<svg xmlns="http://www.w3.org/2000/svg" width="604.683" height="616.982" viewBox="0 0 604.683 616.982">
  <g id="shutterstock_1082055845_Converted_" data-name="shutterstock_1082055845 [Converted]" transform="translate(0)">
    <g id="Group_6151" data-name="Group 6151" transform="translate(201.935 402.591)">
      <rect id="Rectangle_378" data-name="Rectangle 378" width="201.384" height="201.385" fill="#5c5fe0"/>
    </g>
    <g id="Group_6152" data-name="Group 6152" transform="translate(0.55)">
      <rect id="Rectangle_379" data-name="Rectangle 379" width="201.384" height="201.385" fill="#5c5fe0"/>
    </g>
    <g id="Group_6153" data-name="Group 6153" transform="translate(403.298)">
      <rect id="Rectangle_380" data-name="Rectangle 380" width="201.384" height="201.385" fill="#fff"/>
    </g>
    <g id="Group_6154" data-name="Group 6154" transform="translate(170.125 84.187)">
      <ellipse id="Ellipse_214" data-name="Ellipse 214" cx="16.505" cy="16.505" rx="16.505" ry="16.505" transform="translate(0)" fill="#413d91"/>
    </g>
    <g id="Group_6155" data-name="Group 6155" transform="translate(201.935)">
      <rect id="Rectangle_381" data-name="Rectangle 381" width="201.384" height="201.385" fill="#413d91"/>
    </g>
    <g id="Group_6156" data-name="Group 6156" transform="translate(370.939 84.187)">
      <ellipse id="Ellipse_215" data-name="Ellipse 215" cx="16.505" cy="16.505" rx="16.505" ry="16.505" transform="translate(0)" fill="#fff"/>
    </g>
    <g id="Group_6157" data-name="Group 6157" transform="translate(0.55 201.364)">
      <rect id="Rectangle_382" data-name="Rectangle 382" width="201.384" height="201.385" fill="#413d91"/>
    </g>
    <g id="Group_6158" data-name="Group 6158" transform="translate(403.298 201.364)">
      <rect id="Rectangle_383" data-name="Rectangle 383" width="201.384" height="201.385" fill="#b8b9f1"/>
    </g>
    <g id="Group_6159" data-name="Group 6159" transform="translate(170.125 285.551)">
      <ellipse id="Ellipse_216" data-name="Ellipse 216" cx="16.505" cy="16.505" rx="16.505" ry="16.505" transform="translate(0)" fill="#fff"/>
    </g>
    <g id="Group_6160" data-name="Group 6160" transform="translate(201.522 201.364)">
      <rect id="Rectangle_384" data-name="Rectangle 384" width="201.384" height="201.385" fill="#fff"/>
    </g>
    <g id="Group_6161" data-name="Group 6161" transform="translate(370.939 285.551)">
      <ellipse id="Ellipse_217" data-name="Ellipse 217" cx="16.505" cy="16.505" rx="16.505" ry="16.505" transform="translate(0)" fill="#b8b9f1"/>
    </g>
    <g id="Group_6162" data-name="Group 6162" transform="translate(0 402.728)">
      <rect id="Rectangle_385" data-name="Rectangle 385" width="201.384" height="201.385" fill="#fff"/>
    </g>
    <g id="Group_6163" data-name="Group 6163" transform="translate(403.115 402.728)">
      <rect id="Rectangle_386" data-name="Rectangle 386" width="201.384" height="201.385" fill="#fff"/>
    </g>
    <g id="Group_6164" data-name="Group 6164" transform="translate(170.125 485.815)">
      <ellipse id="Ellipse_218" data-name="Ellipse 218" cx="16.505" cy="16.505" rx="16.505" ry="16.505" transform="translate(0)" fill="#5c5fe0"/>
    </g>
    <g id="Group_6165" data-name="Group 6165" transform="translate(370.939 485.815)">
      <ellipse id="Ellipse_219" data-name="Ellipse 219" cx="16.505" cy="16.505" rx="16.505" ry="16.505" transform="translate(0)" fill="#413d91"/>
    </g>
    <g id="Group_6166" data-name="Group 6166" transform="translate(62.29 38.29)">
      <path id="Path_1556" data-name="Path 1556" d="M157.268,78.912c-3.014,6.674-5.186,10.905-8.417,15.012a.942.942,0,0,1-1.291.175l-3.209-1.459-2.49,8.613a5.009,5.009,0,0,0,1.624,5.038l9.293,7.863,1.339,25.664-3.2,92.842-37.515.1V143.669l2.751-36.862,13.479-3.439c2.382-2.382,4.76-7.183,6.116-10.266l5.355-12.17C145.6,67.239,162.431,65.218,157.268,78.912Z" transform="translate(-113.404 -69.596)" fill="#f6b20e"/>
    </g>
    <g id="Group_6167" data-name="Group 6167" transform="translate(101.664 82.848)">
      <path id="Path_1557" data-name="Path 1557" d="M184.971,150.585a186.077,186.077,0,0,1,26.7,43.106,16.258,16.258,0,0,0,8.809,8.554c5.981,2.4,13.189,2.251,22.4-2.051,16.808-8.732,32.722-15.29,47.589-19.305l3.064-1.865a7.132,7.132,0,0,1,4.539-.991l3.818.448a.735.735,0,0,1-.345,1.415l-.967-.1a4.121,4.121,0,0,0-3.855,1.822l-.833,1.256a.757.757,0,0,0,.571,1.291l5.12-.238a16.578,16.578,0,0,1,5.074.551l4.855,1.307a.507.507,0,0,1-.151,1l-6.69-.253a10.289,10.289,0,0,0-1.461.049l-5.135.54a.414.414,0,0,0-.04.818l7.251,1.483,9.057,3.178a.42.42,0,0,1-.192.813l-10.212-1.3-6-.162a.277.277,0,0,0-.08.544l4.092,1.116A12.686,12.686,0,0,1,308,197.314l1.232,1.356a.275.275,0,0,1-.3.443l-7.232-2.737-1.163-.179a1.009,1.009,0,0,0-.7,1.844l.95.613a6.889,6.889,0,0,1,2.8,3.611l.074.222a.321.321,0,0,1-.475.374l-1.369-1.259a5.942,5.942,0,0,0-3.806-1.564l-1.924-.07-22.672,13.02c-10.829,6.81-21.638,13.518-31.926,17.528a36.83,36.83,0,0,1-38.058-6.723c-5.524-4.986-12.727-15.405-17.121-23.889l-.449-30.978Z" transform="translate(-184.971 -150.585)" fill="#f6b20e"/>
    </g>
    <g id="Group_6168" data-name="Group 6168" transform="translate(88.869 30.193)">
      <path id="Path_1558" data-name="Path 1558" d="M161.715,76.108c5.372-2.934,10.5-5.325,14.029-4.152a9.634,9.634,0,0,0,2.119.506,19.726,19.726,0,0,0,5.272-.216,17,17,0,0,0,11.052-6.722,8.8,8.8,0,0,0,1.61-3.32c.976-5.39-5.168-9.272-9.761-6.288a23.394,23.394,0,0,0-3.329,2.654,12.07,12.07,0,0,1-6.141,3.086C165.238,63.726,162.218,67.569,161.715,76.108Z" transform="translate(-161.715 -54.88)" fill="#413d91"/>
    </g>
    <g id="Group_6169" data-name="Group 6169" transform="translate(291.123 30.385)">
      <path id="Path_1559" data-name="Path 1559" d="M537.677,65.542l1.75,18.2a2.455,2.455,0,0,0,2.632,2.213l3.435-.264.966,6.174a11.014,11.014,0,0,1-4.615,10.759l-12.513,8.658,4.489,115.223h48.786l.6-121.06-16.616-6.8A10.876,10.876,0,0,1,560.5,92.49a67.174,67.174,0,0,1-2.984-13.6,42.73,42.73,0,0,1-1.906-11.035c-.536-11.106-10.081-16.164-15.58-9.908A10.037,10.037,0,0,0,537.677,65.542Z" transform="translate(-529.332 -55.228)" fill="#fcfded"/>
    </g>
    <g id="Group_6170" data-name="Group 6170" transform="translate(201.177 85.991)">
      <path id="Path_1560" data-name="Path 1560" d="M456.342,156.3c-9.2,11.153-18.318,28.544-27.386,50.469-7.232,22.709-15.747,40.676-26.039,52.08l-31.964,36.736a17.029,17.029,0,0,0-3.618,7.144l-1.48,6.069c-.068.278.262.431.368.17l1.712-4.2a4.033,4.033,0,0,1,.7-1.139l2.592-2.953c.027-.031.069,0,.054.046-1.953,5.683-1.812,11.6-1.309,16.653a.172.172,0,1,0,.344,0c.8-6.637.774-11.159,2.972-13.607.35-.391,1.525-.393,1.5.179,0,0-3.143,17-2.694,17.36s3.854-12.886,6.734-16.465c.541-.673,1.488-.151,1.4.778l-1.389,10.893c-.038.3.315.423.413.139,2.487-7.23,6.989-14.12,11.544-15.389,9.846-5,21.522-8.994,33.222-22.013,15.265-14.5,26.108-44.2,33.671-74.093Z" transform="translate(-365.846 -156.298)" fill="#b8b9f1"/>
    </g>
    <g id="Group_6171" data-name="Group 6171" transform="translate(287.139 28.971)">
      <path id="Path_1561" data-name="Path 1561" d="M547,68.224c-4.469-.147-8.365-.661-8.479-3.592l-2.894-1.1a3.14,3.14,0,0,1-1.981-3.856,6.189,6.189,0,0,1,2.678-3.122c6.658-5.557,10.389-4.443,13.167-1.154a12.265,12.265,0,0,1,2.793,6.9l.682,8.021c.427,4.02-1.948,5.949-5.652,6.884a19.94,19.94,0,0,1-.516,2.075c-2.1,6.814-8.614,11.536-16.051,11.953l-.705.04c-3.054,1.575-5.424,1.984-6.94.94a2.441,2.441,0,0,1-.882-2.775c1.284-4.02,4.268-7.664,12.533-10.138l8.165-2.1C545.1,76.055,546.568,73.305,547,68.224Z" transform="translate(-522.091 -52.657)" fill="#5c5fe0"/>
    </g>
    <g id="Group_6172" data-name="Group 6172" transform="translate(101.665 82.848)">
      <path id="Path_1562" data-name="Path 1562" d="M220.482,202.245a16.256,16.256,0,0,1-8.809-8.554,186.079,186.079,0,0,0-26.7-43.106l.89,18.343-.835,30.978a100.376,100.376,0,0,0,18.4,23.889,35.745,35.745,0,0,0,6.789,4.816c5.295-6.431,9.253-15.107,12.039-25.75C221.657,202.678,221.062,202.477,220.482,202.245Z" transform="translate(-184.972 -150.585)" fill="#fcfded"/>
    </g>
    <g id="Group_6173" data-name="Group 6173" transform="translate(32.5 75.226)">
      <path id="Path_1563" data-name="Path 1563" d="M93.037,136.731c-.356.259-.953.7-1.307.963-21.709,16.144-34.2,44.473-32.279,75.4.777,12.548,3.884,24.509,10.486,35.588a63.9,63.9,0,0,0,22.306,22.379c8.5,5.033,14.727,11.265,18.258,18.921a12.065,12.065,0,0,1,1.062,4.15l.3,4.045-1.739,1.237a1.247,1.247,0,0,1-1.736-.274l-1.221-1.489c-.134-.163-.353.025-.271.233l.89,2.278a2.4,2.4,0,0,0,3.017,1.632l2.407-.881,1.8-5.2-1.451,3.932a2.171,2.171,0,0,1-1.957,1.543h-4.347c-.333,0-.4.573-.086.693,2.33.875,4.564,1.61,6.215,1.5a2.707,2.707,0,0,0,2.15-1.555l2.851-5.464c.185-.355.633-.091.519.306l-.035,1.46a3.007,3.007,0,0,1-1.41,2.584l-5.833,3.224c-.279.17-.115.684.185.581l8.558-3.127a2.4,2.4,0,0,0,1.352-1.395l1.83-4.528c.045-.179.26-.151.272.035l-.061,5.276s-5.387,3.149-5.163,3.97,6.061-2.053,6.061-2.053c1.134-.54,1.915-2.406,2.108-3.872l1.05-7.967a26.515,26.515,0,0,0-.686-10.488q-.257-.93-.534-1.845c-2.5-8.26-8.25-14.893-13.891-20.474-11.18-11.06-22.214-23.933-25.033-38.237-3.442-12.6-1.773-28.046,1.968-46.477Z" transform="translate(-59.259 -136.731)" fill="#b8b9f1"/>
    </g>
    <g id="Group_6174" data-name="Group 6174" transform="translate(32.426 67.679)">
      <path id="Path_1564" data-name="Path 1564" d="M128.362,138.182l-9.184-8.035a4.515,4.515,0,0,1-1.464-4.543l.281-1.122-10.205-1.47a10.259,10.259,0,0,0-.907,1.655,5.392,5.392,0,0,1-3.78,2.948c-1.061.219-2.294.448-3.51.664a34.538,34.538,0,0,0-11.757,4.394c-.193.116-.321.2-.361.225-21.709,16.144-30,43.1-28.084,74.02a84.984,84.984,0,0,0,6.9,29.413c7.813-1.669,17.222-6.423,24.758-12.379,7.267,12.852,14.18,21,26.546,33.01l8.94-.275,3.164-92.842ZM87.887,174.3l.854,37.807C83.486,206.484,87.065,183.23,87.887,174.3Z" transform="translate(-59.123 -123.013)" fill="#fcfded"/>
    </g>
    <g id="Group_6175" data-name="Group 6175" transform="translate(291.123 70.793)">
      <path id="Path_1565" data-name="Path 1565" d="M566.59,131.687a11.134,11.134,0,0,1-4.2-3.013,18.551,18.551,0,0,1-17.438,3.7,11,11,0,0,1-3.112,3.288l-12.513,8.658,4.489,115.223h48.786l.6-121.059Z" transform="translate(-529.332 -128.674)" fill="#6dd2a1"/>
    </g>
    <g id="Group_6176" data-name="Group 6176" transform="translate(204.925 81.052)">
      <path id="Path_1566" data-name="Path 1566" d="M513.18,147.321c17.06,20.652,25.417,49.136,16.162,80.363-2.183,7.367-10.091,24.187-17.629,27.422-6,2.575-5.41,1.953-14.247,2.209-10.2.3-25.391-6.674-34.57-10.775-15.848-7.081-35.977-29.44-55.9-43.329-.638-.445-1.292-.874-1.967-1.27a60.087,60.087,0,0,0-17.59-7.031l-4.405,4.938,2.22.873a.245.245,0,0,1-.106.474h-1.689a1.918,1.918,0,0,1-1.858-2.757l3.392-6.224c.1-.184-.152-.358-.317-.219l-3.042,2.558a3.18,3.18,0,0,0-.82,3.969l1.148,2.157c.09.168-.17.3-.283.149l-2.488-3.424a2.937,2.937,0,0,1,.157-3.687l4.39-5.123c.052-.067-.047-.145-.112-.089l-5.056,4.427a3.417,3.417,0,0,0-1.134,3.331l1.081,4.8c.056.249-.334.352-.43.113l-2.319-5.752a3.976,3.976,0,0,1,1.159-4.53l5.752-4.972a.136.136,0,0,0-.15-.223l-5.9,1.988a2.468,2.468,0,0,0-1.68,1.854l-1.02,5.511a.166.166,0,0,1-.323-.008l-.925-7.535a2.734,2.734,0,0,1,1.8-2.844l6.282-2.476a46.847,46.847,0,0,1,28.458-1.865q.461.116.917.234A72.942,72.942,0,0,1,427,187.288c21.053,11.6,44.983,36.52,59.447,38.807a10.575,10.575,0,0,0,11.472-6.044c3.087-7.468,7.535-26.8,6.734-44.446Z" transform="translate(-372.658 -147.321)" fill="#fcfded"/>
    </g>
    <g id="Group_6177" data-name="Group 6177" transform="translate(212.704 125.676)">
      <path id="Path_1567" data-name="Path 1567" d="M387.958,234.923l3.392-6.224c.1-.184-.152-.358-.317-.219l-3.042,2.558a3.18,3.18,0,0,0-.82,3.97l.607,1.14A1.742,1.742,0,0,1,387.958,234.923Z" transform="translate(-386.798 -228.43)" fill="none"/>
    </g>
    <g id="Group_6178" data-name="Group 6178" transform="translate(335.59 80.453)">
      <path id="Path_1568" data-name="Path 1568" d="M619.508,146.231,610.43,175.39a105.706,105.706,0,0,1-.275,17.055l29.985-.55C638.047,175.083,632.575,155.034,619.508,146.231Z" transform="translate(-610.155 -146.231)" fill="#6dd2a1"/>
    </g>
    <g id="Group_6179" data-name="Group 6179" transform="translate(213.684 133.394)">
      <path id="Path_1569" data-name="Path 1569" d="M389.039,243.321l-.46-.864A1.877,1.877,0,0,0,389.039,243.321Z" transform="translate(-388.579 -242.457)" fill="#5eb87c"/>
    </g>
    <g id="Group_6180" data-name="Group 6180" transform="translate(269.712 85.991)">
      <path id="Path_1570" data-name="Path 1570" d="M512.376,156.3c-9.45,8.216-14.681,21.868-21.961,37.926l26.4,4.952Z" transform="translate(-490.415 -156.298)" fill="#6dd2a1"/>
    </g>
    <g id="Group_6181" data-name="Group 6181" transform="translate(276.362 233.834)">
      <path id="Path_1571" data-name="Path 1571" d="M532.986,449.683l3.06,1.36a.245.245,0,0,0,.286-.065c3.248-3.844,6.236-8.623,8.125-18.986a5.589,5.589,0,0,0-2.484-5.709,7.854,7.854,0,0,0-3.38-1.224,7.718,7.718,0,0,0-6.484,2.627c-3.93,4.314-5.359,11.117-6.295,18.411l-1.715,6.516a18.067,18.067,0,0,1-8.178,10.9l-9.833,5.9L502.5,522.488l15.422,63.121h42.32l-7.531-69.935-6.456-43.037-12.11-11.815a6.939,6.939,0,0,1-2-6.106Z" transform="translate(-502.502 -425.017)" fill="#b8b9f1"/>
    </g>
    <g id="Group_6182" data-name="Group 6182" transform="translate(320.116 281.453)">
      <path id="Path_1572" data-name="Path 1572" d="M582.029,511.57c20.847,15.143,30.14,44.728,37.447,76.8a35.76,35.76,0,0,1,.345,14.63c-1.187,6.222-3.6,9.788-6.848,11.517a8.431,8.431,0,0,1-9.249-.959c-10.779-8.809-13.627-37.971-16.793-67.794Z" transform="translate(-582.029 -511.57)" fill="#52a16d"/>
    </g>
    <g id="Group_6183" data-name="Group 6183" transform="translate(276.36 272.89)">
      <path id="Path_1573" data-name="Path 1573" d="M552.71,547.606l-6.456-43.037-6.369-6.214a16.12,16.12,0,0,1-22.676-.117l-2.233-2.232-8.891,5.335L502.5,554.42l16.034,72.341h42.32Z" transform="translate(-502.499 -496.006)" fill="#413d91"/>
    </g>
    <g id="Group_6184" data-name="Group 6184" transform="translate(337.258 315.799)">
      <path id="Path_1574" data-name="Path 1574" d="M618.607,585.9l.168-3.368c-.462-2.355-2.918-5.926-5.126-8.446a.263.263,0,0,0-.441.271l2.025,4.168.089,3.3Z" transform="translate(-613.188 -573.998)" fill="#e6af18"/>
    </g>
    <g id="Group_6185" data-name="Group 6185" transform="translate(320.116 281.453)">
      <path id="Path_1575" data-name="Path 1575" d="M614.174,567.383c-6.735-23.58-15.955-44.053-32.145-55.814l4.9,34.191c1.047,9.859,2.06,19.641,3.336,28.644C599.877,574.6,608.344,573.025,614.174,567.383Z" transform="translate(-582.029 -511.569)" fill="#413d91"/>
    </g>
    <g id="Group_6186" data-name="Group 6186" transform="translate(319.993 312.896)">
      <path id="Path_1576" data-name="Path 1576" d="M618.126,629.38a164.558,164.558,0,0,0-14.559-47.708c-2.906-4.5-8.043-10.547-13.424-12.935a.16.16,0,0,0-.167.27c1.7,1.465,4.784,7.034,4.506,7.339-.359.393-11.895-5.357-11.955-4.842s9.624,5.81,9.086,6.295-10.012-4.176-9.8-2.663c1.913,1.422,10.73,4.9,10.042,5.568s-8.065-1.67-8.065-1.67l2.3,1.392a6.109,6.109,0,0,1,2.806,3.338l.146.418a15.987,15.987,0,0,1,.849,4.111c1.4,19.4,2.558,33.394,7.154,44.505a14.465,14.465,0,0,0,7.475,7.83c4.392,1.91,8.5,1.062,11.284-2.4A11.52,11.52,0,0,0,618.126,629.38Z" transform="translate(-581.806 -568.721)" fill="#b8b9f1"/>
    </g>
    <g id="Group_6187" data-name="Group 6187" transform="translate(318.183 321.25)">
      <path id="Path_1577" data-name="Path 1577" d="M586.031,606.84l-6.624-3.433a1.651,1.651,0,0,1-.706-2.225l8.494-16.386a1.651,1.651,0,0,1,2.225-.706l6.624,3.433a1.651,1.651,0,0,1,.706,2.225l-8.494,16.386A1.65,1.65,0,0,1,586.031,606.84Z" transform="translate(-578.516 -583.904)" fill="#f8f9f4"/>
    </g>
    <g id="Group_6188" data-name="Group 6188" transform="translate(249.821 278.225)">
      <path id="Path_1578" data-name="Path 1578" d="M484.388,505.7c-18.077,19.2-29.327,41.485-30.126,68.5.667,28.2,8.615,42.993,19.793,47.747a15.068,15.068,0,0,0,12.29-.162c13.089-6.158,28.831-28.109,44.666-45.433l2.017-2.018a9.863,9.863,0,0,0,2.418-3.962l1.045-3.257a.107.107,0,0,0-.192-.09l-1.582,2.512a5.8,5.8,0,0,1-1.913,1.435c-.623.178,1.666-3.018,2.879-4.667a6.391,6.391,0,0,0,1.024-2.135l.911-3.4a.24.24,0,0,0-.444-.173l-1.768,3.4a5.9,5.9,0,0,1-.5.8c-.886,1.188-3.539,4.625-4.134,4.03-.52-.52,1.848-3.927,3.192-5.764a7.625,7.625,0,0,0,1.243-2.65l1.006-4.022a.321.321,0,0,0-.6-.216l-2.328,4.882s-6.1,5.5-6.1,4.782,3.347-4.9,3.347-4.9l1.6-5.193a.391.391,0,0,0-.706-.321l-1.791,3.591a4.949,4.949,0,0,1-2.37,2.292l-3.428,2.27a1.29,1.29,0,0,1-1.982-1.3l.116-.642a3.481,3.481,0,0,1,.935-1.816l2.3-2.36a.34.34,0,0,0-.423-.526l-4.038,2.456a7.775,7.775,0,0,0-1.748,1.452l-4.732,6.438-18.649,15.541-14.876,11.07a.381.381,0,0,1-.606-.272c-.385-4.4-.649-8.758-.741-13.055a100.967,100.967,0,0,1,2.922-26.058l3.618-14.841Z" transform="translate(-454.262 -505.703)" fill="#6dd2a1"/>
    </g>
    <g id="Group_6189" data-name="Group 6189" transform="translate(249.814 278.225)">
      <path id="Path_1579" data-name="Path 1579" d="M479.456,574.834c0-.069.006-.137.008-.206a93.014,93.014,0,0,1,5.332-27.159l2.549-7.228L484.383,505.7c-18.137,19.262-29.4,41.633-30.134,68.771l.017.026C461.458,577.236,469.911,577.227,479.456,574.834Z" transform="translate(-454.249 -505.702)" fill="#413d91"/>
    </g>
    <g id="Group_6190" data-name="Group 6190" transform="translate(295.65 233.614)">
      <path id="Path_1580" data-name="Path 1580" d="M544.077,432.84l-4.96-2.676a2.951,2.951,0,0,1,1.721-5.529,11.387,11.387,0,0,1,7.041,2.87Z" transform="translate(-537.56 -424.617)" fill="#413d91"/>
    </g>
    <g id="Group_6191" data-name="Group 6191" transform="translate(302.167 233.03)">
      <path id="Path_1581" data-name="Path 1581" d="M565.129,434.009c2.045-6.8-.14-10.238-5.638-10.448-4.647-.171-8.12,3.863-10.086,8.8.249,2.252,4.575,2.925,9.638,3.313l.632-2.212Z" transform="translate(-549.405 -423.556)" fill="#f6b20e"/>
    </g>
    <g id="Group_6192" data-name="Group 6192" transform="translate(308.952 242.938)">
      <path id="Path_1582" data-name="Path 1582" d="M568.906,443.794a31.787,31.787,0,0,1-6.747-1.145.55.55,0,1,1,.259-1.07c3.261.788,6.322,1.454,7.955.928a.55.55,0,1,1,.337,1.048A5.936,5.936,0,0,1,568.906,443.794Z" transform="translate(-561.738 -441.565)" fill="#413d91"/>
    </g>
    <g id="Group_6193" data-name="Group 6193" transform="translate(429.9 253.934)">
      <path id="Path_1583" data-name="Path 1583" d="M852.608,496.547c-10.975,11.6-16.74,19.74-23.608,34.791,0,0-21.121,35.123-20.295,34.377,2.334-2.107,20.069-40.641,27.472-57.963a201.6,201.6,0,0,1,10.514-21.1l.909-1.584a38.841,38.841,0,0,1,6.327-7.862h0a5.394,5.394,0,0,0,1.166-2.614l1.33-3.868a.189.189,0,0,0-.357-.111l-1.388,2.874a2.774,2.774,0,0,1-1.383,1.145l-1.855.1a.608.608,0,0,1-.76-.841l2.109-4.219a3.187,3.187,0,0,1,.6-.828l3.482-3.367a.124.124,0,0,0-.148-.2l-4.942,2.824s-2.485,4.28-2.9,3.865c-.3-.3.554-2.975,1.051-4.438a3.242,3.242,0,0,1,1.111-1.54l4.114-3.126a.22.22,0,0,0-.234-.37l-5.435,2.8a2.744,2.744,0,0,0-1.423,1.852c-.4,1.828-1.177,4.979-1.669,4.682-.69-.414,1.242-7.455,1.242-7.455l2.117-2.47a.067.067,0,0,0-.09-.1l-2.6,1.881a4.915,4.915,0,0,0-2.03,3.564c-.115,1.365-.327,2.811-.706,2.508-.45-.36-.607-2.365-.661-3.716a4.718,4.718,0,0,1,.493-2.3l1-2a.134.134,0,0,0-.228-.14l-2.262,3.05h0a16.225,16.225,0,0,1-2.893,7.793L831.346,484.4l-22.969,36.13c-1.714,2.7-8.408,13.917-9.889,16.747l-10.907,20.432c-6.359,13.139-7.009,23.055-4.991,31.449A22.2,22.2,0,0,0,797.384,605.3c24.653,7.68,38-36.434,51.91-63.19l-1.656-14.358Z" transform="translate(-781.573 -461.551)" fill="#fff"/>
    </g>
    <g id="Group_6194" data-name="Group 6194" transform="translate(497.957 249.989)">
      <path id="Path_1584" data-name="Path 1584" d="M909.637,454.4l7.393,1.007a1.651,1.651,0,0,1,1.413,1.858l-2.491,18.288a1.651,1.651,0,0,1-1.858,1.413l-7.393-1.007a1.651,1.651,0,0,1-1.413-1.858l2.49-18.288A1.651,1.651,0,0,1,909.637,454.4Z" transform="translate(-905.273 -454.381)" fill="#413d91"/>
    </g>
    <g id="Group_6195" data-name="Group 6195" transform="translate(495.965 241.792)">
      <path id="Path_1585" data-name="Path 1585" d="M912.88,445.335l-4.674,20.256a.642.642,0,0,0,.689.783l4.632-.463c.836,7.431.8,13.49-1.656,15.739l-5.246,4.97-4.97,30.787,2.209,22.779.828,59.365,35.343-.276-7.442-32.406a28.445,28.445,0,0,1-.51-9.829l2.981-24.309,5.246-38.38a104.413,104.413,0,0,0-14.363-9.418,8.2,8.2,0,0,1-4.432-7.647l.572-12.2,3.589-11.6c3.238-7.556.65-12.589-3.785-13.767A7.42,7.42,0,0,0,912.88,445.335Z" transform="translate(-901.654 -439.481)" fill="#fff"/>
    </g>
    <g id="Group_6196" data-name="Group 6196" transform="translate(509.18 296.661)">
      <path id="Path_1586" data-name="Path 1586" d="M951.114,539.211c15.145,12.081,28.741,35.728,41.97,62.126a77.569,77.569,0,0,1,5.571,15.733,27.606,27.606,0,0,1-6.047,23.85c-6.076,7.107-14.668,11.775-24.529,15.215a73.734,73.734,0,0,1-8.2,2.246,25.7,25.7,0,0,0-11.823,6.252,8.944,8.944,0,0,0-2.342,3.447L944.981,670a4.753,4.753,0,0,0,.248,3.93l.812,1.523a.149.149,0,0,1-.229.183l-2.076-1.8a3.988,3.988,0,0,1-1.373-3.188l.143-3.3a.28.28,0,0,0-.521-.155l-2.36,3.994a4.257,4.257,0,0,0-.492,3.128c.535,2.29,2.19,4.092,3.994,5.829a.116.116,0,0,1-.154.173l-5.387-4.426c-2.151-2.073-1.38-9.008-1.656-9.664s-1.721,5.968-1.721,5.968a4.256,4.256,0,0,0,.173,2.843l3.406,8.006a.233.233,0,0,1-.412.215l-5.548-8.52a4.263,4.263,0,0,1-.651-2.91l.8-5.794a.363.363,0,0,0-.5-.384l-2.111.905a2.515,2.515,0,0,0-1.456,1.73l-1.727,7.253a.256.256,0,0,1-.5-.078l.868-11.72c1.7-5.437,5.8-10.234,12.425-14.358l31.236-20.2a7,7,0,0,0,2.323-9.266l-29.694-53.648Z" transform="translate(-925.672 -539.211)" fill="#6dd2a1"/>
    </g>
    <g id="Group_6197" data-name="Group 6197" transform="translate(508.177 240.761)">
      <path id="Path_1587" data-name="Path 1587" d="M923.851,441.223c.059,3.282.513,6.34,2.331,8.628a6.389,6.389,0,0,1,1.2,5.678l-.307,1.113a5.846,5.846,0,0,0,5.758,7.406c.917-.02,1.865-.106,2.826-.223,3.859,6.117,10.091,6.471,16.988,5.211a10.233,10.233,0,0,1,2.457-.14c8.3.5,13.4-3.11,14.5-11.847a17.032,17.032,0,0,0-.936-8.129c-1.023-2.714-2.562-4.924-5.539-5.731a8.326,8.326,0,0,0-5.658.551l-4.249,1.967a8.623,8.623,0,0,1-9.155-1.223c-6.131-5.128-12.3-8.376-18.259-6.182A3.044,3.044,0,0,0,923.851,441.223Z" transform="translate(-923.85 -437.607)" fill="#413d91"/>
    </g>
    <g id="Group_6198" data-name="Group 6198" transform="translate(493.077 288.419)">
      <path id="Path_1588" data-name="Path 1588" d="M931.7,577.747l1.876-13.31L944,536.885c-3.43-2.584-13.462-11.2-18.706-12.654l-5.391,6.524a7.847,7.847,0,0,1-13.545-2.154l-1.616-4.309-.474.449-7.858,8.017,2.887,22.77,2.209,22.78.829,59.915,29.654.23,4.951-2.72h0C933.538,616.35,928.96,597.221,931.7,577.747Z" transform="translate(-896.405 -524.231)" fill="#f6b20e"/>
    </g>
    <g id="Group_6199" data-name="Group 6199" transform="translate(505.713 310.754)">
      <ellipse id="Ellipse_220" data-name="Ellipse 220" cx="7.455" cy="7.455" rx="7.455" ry="7.455" transform="matrix(0.925, -0.379, 0.379, 0.925, 0, 5.658)" fill="#413d91"/>
    </g>
    <g id="Group_6200" data-name="Group 6200" transform="translate(490.4 311.195)">
      <ellipse id="Ellipse_221" data-name="Ellipse 221" cx="7.455" cy="7.455" rx="7.455" ry="7.455" transform="matrix(0.282, -0.959, 0.959, 0.282, 0, 14.304)" fill="#f6b20e"/>
    </g>
    <g id="Group_6201" data-name="Group 6201" transform="translate(512.536 319.627)">
      <path id="Path_1589" data-name="Path 1589" d="M934.677,584.683a2.906,2.906,0,0,1-2.9-2.9.825.825,0,1,1,1.651,0,1.254,1.254,0,0,0,1.252,1.253.825.825,0,1,1,0,1.651Z" transform="translate(-931.774 -580.954)" fill="#f6b20e"/>
    </g>
    <g id="Group_6202" data-name="Group 6202" transform="translate(84.032 438.377)">
      <path id="Path_1590" data-name="Path 1590" d="M194.911,807.37l-5.943,20.206a.978.978,0,0,1-1.466.548l-4.179-2.675-2.352,15.6a7.3,7.3,0,0,0,1.634,4.925l14.861,14.517-6.755,22.376-3.879,27.15a71.329,71.329,0,0,0-.412,16.676l3.064,31.554-34.659,1.036-1.63-33.258q-.48-9.8-.117-19.616l.9-24.386,3.8-26.6,7.9-7.155a27.468,27.468,0,0,0,8.873-17.476l.963-9.144q.7-22.454,9.873-24.637C191.409,795.581,196.659,801.429,194.911,807.37Z" transform="translate(-152.922 -796.794)" fill="#413d91"/>
    </g>
    <g id="Group_6203" data-name="Group 6203" transform="translate(17.813 433.493)">
      <path id="Path_1591" data-name="Path 1591" d="M143.292,798.458a12.588,12.588,0,0,1-8.811,10.409,14.522,14.522,0,0,0-5.843,4.041,10.7,10.7,0,0,1-4.4,2.5,19.2,19.2,0,0,0-11.052,9.661c-4.131,8.6-8.968,13.793-17.213,12.433h0a19.956,19.956,0,0,0-5.509-1.546A19.684,19.684,0,0,0,74.8,840.947l-3.064,2.771a9.33,9.33,0,0,1-7.175,2.35c-4.261-.427-7.686-1.9-8.757-4.6a7.657,7.657,0,0,0-4.76-4.56l-5.715-1.816a17.84,17.84,0,0,1-12.372-20.61,30.48,30.48,0,0,1,6.49-13.184,37.93,37.93,0,0,1,31.012-13.336c10.73.489,21.726,2.733,32.758,5.208a15.2,15.2,0,0,1,3.59,1.3h0a15.407,15.407,0,0,0,12.821.511c10.188-4.167,16.692-4.45,20.582-2.516A5.669,5.669,0,0,1,143.292,798.458Z" transform="translate(-32.563 -787.918)" fill="#f6b20e"/>
    </g>
    <g id="Group_6204" data-name="Group 6204" transform="translate(282.241 425.422)">
      <path id="Path_1592" data-name="Path 1592" d="M517.469,783.119c1.1,6.141,3.286,14.285,4.178,19.28a2.114,2.114,0,0,0,2.455,1.779l5.521-1.1.846,11.623a9.39,9.39,0,0,1-3.236,8.269L515.874,832.4l-2.686,41.482,4.3,77.8h48.688L564.7,873.21l-6.163-47.359-12.45-5.007a10.928,10.928,0,0,1-6.442-7.65l-.951-3.943a89.977,89.977,0,0,1-2.473-16.913,39.747,39.747,0,0,0-1.973-11.6,11.4,11.4,0,0,0-7.147-7.092,6.96,6.96,0,0,0-6.14.7A8.647,8.647,0,0,0,517.469,783.119Z" transform="translate(-513.188 -773.249)" fill="#f6b20e"/>
    </g>
    <g id="Group_6205" data-name="Group 6205" transform="translate(229.772 484.574)">
      <path id="Path_1593" data-name="Path 1593" d="M472.976,880.762c-7.806,7.631-16.567,15.877-23.4,27.9a82.593,82.593,0,0,1-4.981,7.768l-24.869,34.187a7.908,7.908,0,0,0-1.434,3.49C416.493,966.3,420.1,973.1,425.1,978.5l15.913-21.79q.522-.714,1.089-1.387l28.192-33.419Z" transform="translate(-417.82 -880.762)" fill="#f6b20e"/>
    </g>
    <g id="Group_6206" data-name="Group 6206" transform="translate(285.002 418.873)">
      <path id="Path_1594" data-name="Path 1594" d="M518.21,774.208a3.762,3.762,0,0,0,1.26,2.763,5.807,5.807,0,0,0,3.139.977c1.779.187,4.029.082,4.749-1.555a5.6,5.6,0,0,0,5.7,5.108c.483-.029,1.041-.1,1.381.247a1.477,1.477,0,0,1,.311.631c.7,2.287,1.488,3.172,2.27,6.138a1.3,1.3,0,0,0,1.055.977c1.142.166,1.337-.111.893-1.391a13.408,13.408,0,0,1-.483-5.134c.044-4.068-.055-9.693-1.592-13.52-1.64-4.082-5.134-7.673-9.6-8.078a4.993,4.993,0,0,0-2.772.492,4.112,4.112,0,0,0-2.113,2.994,19.915,19.915,0,0,1-3.442,7.408A3.094,3.094,0,0,0,518.21,774.208Z" transform="translate(-518.206 -761.345)" fill="#fff"/>
    </g>
    <g id="Group_6207" data-name="Group 6207" transform="translate(84.031 477.679)">
      <path id="Path_1595" data-name="Path 1595" d="M190.711,915l6.755-22.376L182.6,878.107a7.3,7.3,0,0,1-1.634-4.925l.747-4.952h-8.27a27.461,27.461,0,0,1-7.771,12.173l-7.9,7.155-3.8,26.6-.9,24.386q-.363,9.806.117,19.616l1.63,33.257,34.293-2.457-2.7-30.132a71.3,71.3,0,0,1,.412-16.676Z" transform="translate(-152.921 -868.231)" fill="#b8b9f1"/>
    </g>
    <g id="Group_6208" data-name="Group 6208" transform="translate(97.071 515.028)">
      <ellipse id="Ellipse_222" data-name="Ellipse 222" cx="8.747" cy="8.747" rx="8.747" ry="8.747" transform="translate(0)" fill="#413d91"/>
    </g>
    <g id="Group_6209" data-name="Group 6209" transform="translate(102.121 524.935)">
      <path id="Path_1596" data-name="Path 1596" d="M188.946,958.093a3.149,3.149,0,0,1-3.145-3.145.825.825,0,1,1,1.651,0,1.5,1.5,0,0,0,1.494,1.494.825.825,0,1,1,0,1.651Z" transform="translate(-185.801 -954.123)" fill="#b8b9f1"/>
    </g>
    <g id="Group_6210" data-name="Group 6210" transform="translate(85.411 502.073)">
      <path id="Path_1597" data-name="Path 1597" d="M198.594,912.569c16.967,21.6,29.386,46.645,33.353,78.1a67.586,67.586,0,0,1-.909,12.13,4.732,4.732,0,0,1-4.277,3.733l-22.161,1.745a29.864,29.864,0,0,0-3.124.413l-23.358,4.355-2.8,1.542a5.75,5.75,0,0,0-2.222,2.187l-2.361,4.131a.381.381,0,0,1-.707-.252l1.118-6.708a.953.953,0,0,0-1.648-.794l-4.12,4.577a2.613,2.613,0,0,0-.518.868l-2.35,6.581a.31.31,0,0,1-.6-.111l1.106-7.515a2.648,2.648,0,0,1,.676-1.413l3.244-3.514-6.426,5.292a2.406,2.406,0,0,0-.861,1.586l-.874,7.72a.285.285,0,0,1-.566,0l-.125-9.55a2.731,2.731,0,0,1,.664-1.822l2.246-2.6a.247.247,0,0,0-.319-.371l-1.716,1.084a2.691,2.691,0,0,0-1.161,1.576l-1.948,7.233a.211.211,0,0,1-.413-.079l1.155-10.069a44.274,44.274,0,0,1,9.529-11.949,47.5,47.5,0,0,1,11.027-7.221c13.32-6.361,26.7-12.78,34.75-13.55l-20.054-44.963Z" transform="translate(-155.429 -912.569)" fill="#b8b9f1"/>
    </g>
    <g id="Group_6211" data-name="Group 6211" transform="translate(54.009 497.007)">
      <path id="Path_1598" data-name="Path 1598" d="M133.235,903.361c-16.833,14.769-38.813,92.8-34.278,101.307a9.992,9.992,0,0,0,7.581,5.188c18.622,2.322,41.539-2.014,66.826-11.237a13.22,13.22,0,0,1,8.143-.3l4.5,1.284-2.17,3.171a.107.107,0,0,0,.156.142l2.932-2.2a2.162,2.162,0,0,0,.22-3.3l-2.4-2.342,2.488,1.818a2.679,2.679,0,0,1,.906,3.218l-1.964,4.566a.17.17,0,0,0,.3.157l3.753-5.484a2.112,2.112,0,0,0-.292-2.936l-2.877-2.453a.188.188,0,0,1,.177-.321l1.819.478a2.48,2.48,0,0,1,1.348,2.692l-1.434,7.313,3.752-9.805a1.389,1.389,0,0,0-1.035-1.847l-2.566-1.047a.37.37,0,0,1,.206-.706l4.288.656,2.408,4.872a.129.129,0,0,0,.243-.069l-.962-5.214c.285-1.428-1.748-3.043-3.166-3.5l-5.3-1.742a49.214,49.214,0,0,0-9.164-2c-18.085-2.152-56.055,3.983-56.919.265-1.8-7.732-.567-17.257,2.354-27.78l6.332-26.938Z" transform="translate(-98.354 -903.361)" fill="#413d91"/>
    </g>
    <g id="Group_6212" data-name="Group 6212" transform="translate(79.219 515.028)">
      <ellipse id="Ellipse_223" data-name="Ellipse 223" cx="8.747" cy="8.747" rx="8.747" ry="8.747" transform="translate(0)" fill="#b8b9f1"/>
    </g>
    <g id="Group_6213" data-name="Group 6213" transform="translate(282.241 477.044)">
      <path id="Path_1599" data-name="Path 1599" d="M564.7,915.416l-6.163-47.36-2.436-.98c-3.186,8.5-7.063,16.209-12.335,22.322a12.432,12.432,0,0,1-20.193-1.835,41.575,41.575,0,0,1-4.728-15.426l-2.973,2.469-2.686,41.482,4.3,77.8h48.688Z" transform="translate(-513.188 -867.076)" fill="#b8b9f1"/>
    </g>
    <g id="Group_6214" data-name="Group 6214" transform="translate(271.19 478.024)">
      <path id="Path_1600" data-name="Path 1600" d="M549.505,868.857c16.392,12.819,29.306,29.854,39.831,49.784a92.552,92.552,0,0,1,9.907,29.9c1.478,10.214.907,18.95-2.685,25.507a14.451,14.451,0,0,1-14.391,7.6c-17.329-2.108-42-9.089-67.918-16.9-2.12-.639-4.182-1.88-6.126-.774l-5.221,4.358a.2.2,0,0,1-.234-.3l5.317-7.359c1.471-1.553,2.822-2.9,2.473-3.953a1.29,1.29,0,0,0-1.813-.665l-5.332,2.7a5.237,5.237,0,0,0-1.082.731l-5.771,5.038c-.353.308-.826-.179-.549-.563l4.624-6.41a5.11,5.11,0,0,1,1.492-1.384L510,951.318l-9.8,4.031-6.625,8.984c-.2.276-.6-.015-.434-.316L497.4,954.8a7.806,7.806,0,0,1,2.644-3.166l5.658-3.9a.2.2,0,0,0-.178-.36l-7.806,2.52c-.259.084-.4-.312-.15-.429l8.485-5.2c6.483-3.5,13.481-3.26,20.635-1.873,22.142,4.292,41.451,7.653,50.316,7.583l-22.439-37.619Z" transform="translate(-493.102 -868.857)" fill="#d31811"/>
    </g>
    <g id="Group_6215" data-name="Group 6215" transform="translate(246.202 484.574)">
      <path id="Path_1601" data-name="Path 1601" d="M486.409,880.762c-7.806,7.631-16.567,15.877-23.4,27.9a82.581,82.581,0,0,1-4.981,7.768l-10.341,14.215c5.448,7.023,11.418,10.95,17.7,13l18.335-21.735Z" transform="translate(-447.683 -880.762)" fill="#b8b9f1"/>
    </g>
    <g id="Group_6216" data-name="Group 6216" transform="translate(277.816 536.555)">
      <path id="Path_1602" data-name="Path 1602" d="M505.146,998.668s14.854-25.023,15.17-23.344-14.38,26.535-14.38,26.535Z" transform="translate(-505.146 -975.243)" fill="#413d91"/>
    </g>
    <g id="Group_6217" data-name="Group 6217" transform="translate(271.191 549.348)">
      <path id="Path_1603" data-name="Path 1603" d="M597.6,998.5l-25.789,1.1,5.186,8.695c-8.866.07-28.174-3.291-50.316-7.583-7.154-1.387-14.152-1.629-20.635,1.873l-8.485,5.2c-.247.117-.108.512.15.429l7.806-2.52a.2.2,0,0,1,.178.36l-5.657,3.9a7.8,7.8,0,0,0-2.644,3.166l-4.253,9.215c-.169.3.231.592.434.316l6.625-8.984,9.8-4.031-7.972,4.842a5.121,5.121,0,0,0-1.492,1.384l-4.624,6.41c-.278.385.2.871.549.563l5.771-5.039a5.252,5.252,0,0,1,1.082-.731l5.332-2.7a1.29,1.29,0,0,1,1.813.665c.349,1.054-1,2.4-2.473,3.953l-5.317,7.359a.2.2,0,0,0,.234.3l5.221-4.358c1.943-1.106,4,.135,6.125.774,25.921,7.814,50.589,14.795,67.918,16.9a14.451,14.451,0,0,0,14.392-7.6c3.592-6.557,4.163-15.293,2.685-25.507C598.836,1004.033,598.283,1001.244,597.6,998.5Z" transform="translate(-493.104 -998.496)" fill="#f6b20e"/>
    </g>
    <g id="Group_6218" data-name="Group 6218" transform="translate(327.594 478.024)">
      <path id="Path_1604" data-name="Path 1604" d="M635.452,918.641c-10.525-19.931-23.439-36.965-39.831-49.784l2.266,43.3,22.007,32.277c5.73,1.384,13.119.666,23.825-4.256A94.931,94.931,0,0,0,635.452,918.641Z" transform="translate(-595.621 -868.857)" fill="#b8b9f1"/>
    </g>
    <g id="Group_6219" data-name="Group 6219" transform="translate(223.3 504.726)">
      <path id="Path_1605" data-name="Path 1605" d="M406.056,929.148l22.123,76.078,39.347-9.909-23.7-77.926Z" transform="translate(-406.056 -917.392)" fill="#6dd2a1"/>
    </g>
    <g id="Group_6220" data-name="Group 6220" transform="translate(229.475 556.794)">
      <path id="Path_1606" data-name="Path 1606" d="M417.584,1016.894c4.04-.918,7.909-2.167,11.085-4.757.421-.344.955.218.636.669a23.816,23.816,0,0,1-6.748,5.87.708.708,0,0,0,.37,1.3l4.445-.182a4.014,4.014,0,0,0,2.059-.674l7.554-5.022c.272-.164.542.217.319.45l-5.459,5.7a18.689,18.689,0,0,1-4.722,3.583l-4.014,2.132a.668.668,0,0,0,.212,1.241l3.9.436,7.723-1.087a.433.433,0,0,1,.21.824l-7.775,3.453-3.833.349a.774.774,0,0,0-.407,1.337l2.313,2.12a5.335,5.335,0,0,0,2.232,1.23l3.554.944a.332.332,0,0,1-.065.649l-7.271.258C419.269,1033.476,416.292,1027.463,417.584,1016.894Z" transform="translate(-417.281 -1012.03)" fill="#fff"/>
    </g>
  </g>
</svg>
