<svg xmlns="http://www.w3.org/2000/svg" width="89" height="27" viewBox="0 0 89 27">
  <path id="Airbnb_Logo_BeÌlo" d="M25.3,18.859c.046.111.093.222.139.33a4.972,4.972,0,0,1,.25,2.892A5.921,5.921,0,0,1,19.826,27a6.5,6.5,0,0,1-.723-.054,7.49,7.49,0,0,1-2.78-.919,14.524,14.524,0,0,1-3.448-2.811,14,14,0,0,1-3.448,2.811,7.49,7.49,0,0,1-2.78.919A6.5,6.5,0,0,1,5.924,27a5.852,5.852,0,0,1-2.252-.432A5.775,5.775,0,0,1,.058,22.081a5.912,5.912,0,0,1,.334-2.919q.209-.527.417-.973c.1-.222.2-.438.3-.649h0c.118-.251.232-.494.338-.73l.028-.054C3.394,12.7,5.48,8.595,7.62,4.541L7.7,4.378c.222-.405.445-.838.667-1.27a9.3,9.3,0,0,1,1-1.486A4.721,4.721,0,0,1,12.931,0a4.539,4.539,0,0,1,3.531,1.676A7.185,7.185,0,0,1,17.4,3.048l.065.114c.222.432.445.865.667,1.27l.083.162c2.169,4.054,4.226,8.162,6.144,12.216l.028.027c.106.235.22.478.337.729h0c.1.21.2.426.3.648C25.118,18.414,25.21,18.637,25.3,18.859Zm21.6-12.075A1.808,1.808,0,1,1,45.1,5.027,1.779,1.779,0,0,1,46.906,6.784Zm-7.451,3.541v.432a3.511,3.511,0,0,0-2.7-1.081,5.247,5.247,0,0,0-5.394,5.351,5.247,5.247,0,0,0,5.394,5.351,3.411,3.411,0,0,0,2.7-1.108v.459a.375.375,0,0,0,.389.378H42.1V9.946H39.844A.392.392,0,0,0,39.455,10.324ZM37.2,17.946a2.788,2.788,0,0,0,2.252-1.108V13.216a2.982,2.982,0,1,0-2.252,4.73Zm6.562-8h2.669V20.108H43.764Zm37.173.811a3.511,3.511,0,0,1,2.7-1.081A5.257,5.257,0,0,1,89,15.027a5.263,5.263,0,0,1-5.394,5.351,3.478,3.478,0,0,1-2.7-1.108v.459a.392.392,0,0,1-.389.378H78.268V5.054h2.669Zm2.252,7.162a2.747,2.747,0,0,1-2.252-1.108V13.189a3.045,3.045,0,0,1,2.252-1.108,2.927,2.927,0,1,1,0,5.838Zm-6.311,2.216V14.081c0-1.7-.361-2.676-1.307-3.432a4.406,4.406,0,0,0-2.919-.973,3.891,3.891,0,0,0-2.836,1.081v-.432a.392.392,0,0,0-.389-.378H67.314V20.108h2.669V13.027a3.019,3.019,0,0,1,2.169-1c1.5,0,2.057.676,2.057,2.351v5.757ZM60.835,9.676a3.511,3.511,0,0,0-2.7,1.081v-5.7H55.469V20.108h2.252a.392.392,0,0,0,.389-.378V19.27a3.478,3.478,0,0,0,2.7,1.108A5.263,5.263,0,0,0,66.2,15.027,5.224,5.224,0,0,0,60.835,9.676Zm-2.7,7.135a2.747,2.747,0,0,0,2.252,1.108,2.927,2.927,0,1,0,0-5.838,3.045,3.045,0,0,0-2.252,1.108ZM53.162,9.676a4.37,4.37,0,0,1,1.223.135v2.405a3.647,3.647,0,0,0-3.614.811v7.108H48.1V9.946h2.252a.392.392,0,0,1,.389.378v.432A3.7,3.7,0,0,1,53.162,9.676ZM12.9,20.595a13.216,13.216,0,0,1-2.808-5.027,4.241,4.241,0,0,1-.083-1.649,2.579,2.579,0,0,1,.445-1.135A2.98,2.98,0,0,1,12.9,11.595a2.873,2.873,0,0,1,2.447,1.189,2.579,2.579,0,0,1,.445,1.135,4.221,4.221,0,0,1-.083,1.649A13.617,13.617,0,0,1,12.9,20.595Zm8.563,4.432A4.037,4.037,0,0,0,24,21.865a4.446,4.446,0,0,0-.195-2.081,5.114,5.114,0,0,0-.236-.582c-.041-.09-.083-.184-.126-.283-.111-.216-.215-.446-.32-.676s-.209-.459-.32-.676v-.027c-1.918-4.027-3.976-8.135-6.089-12.162l-.083-.162c-.111-.2-.222-.412-.334-.622s-.222-.419-.334-.622a5.918,5.918,0,0,0-.778-1.189,2.974,2.974,0,0,0-4.448,0,5.918,5.918,0,0,0-.778,1.189c-.111.2-.222.412-.334.622s-.222.419-.334.622l-.083.162c-2.141,4-4.2,8.108-6.117,12.135l-.028.054c-.222.459-.445.919-.639,1.351-.042.1-.085.193-.126.283a5.111,5.111,0,0,0-.236.582,4.358,4.358,0,0,0-.25,2.108,4.037,4.037,0,0,0,2.53,3.162,4.565,4.565,0,0,0,2.113.27,5.574,5.574,0,0,0,2.113-.7A12.412,12.412,0,0,0,11.735,22a15.548,15.548,0,0,1-3.364-6,5.46,5.46,0,0,1-.139-2.3,4.316,4.316,0,0,1,.751-1.838A4.8,4.8,0,0,1,12.9,9.946a4.729,4.729,0,0,1,3.92,1.919,4.316,4.316,0,0,1,.751,1.838,6.59,6.59,0,0,1-.139,2.3,15.113,15.113,0,0,1-3.364,5.973,12.9,12.9,0,0,0,3.17,2.622,5.574,5.574,0,0,0,2.113.7A4.321,4.321,0,0,0,21.466,25.027Z" fill="#0b2238" fill-rule="evenodd"/>
</svg>
