<svg xmlns="http://www.w3.org/2000/svg" width="89" height="26" viewBox="0 0 89 26">
  <g id="amazon-2-1" transform="translate(0 -0.206)">
    <path id="Path_356" data-name="Path 356" d="M55.211,21.16C50.059,24.97,42.564,27,36.1,27a34.652,34.652,0,0,1-23.359-8.9c-.468-.437-.062-1.031.531-.687A46.938,46.938,0,0,0,36.631,23.6a46.474,46.474,0,0,0,17.831-3.654C55.336,19.6,56.055,20.536,55.211,21.16Z" transform="translate(0 -0.794)" fill="#0b2238" fill-rule="evenodd"/>
    <path id="Path_357" data-name="Path 357" d="M57.366,18.693c-.656-.843-4.372-.406-6.027-.187-.5.063-.593-.375-.125-.687,2.967-2.092,7.807-1.468,8.369-.781s-.156,5.559-2.935,7.869c-.437.344-.843.156-.656-.312C56.616,23.034,58.022,19.568,57.366,18.693Z" transform="translate(0 -0.794)" fill="#0b2238" fill-rule="evenodd"/>
    <path id="Path_358" data-name="Path 358" d="M51.433,3.142V1.112a.475.475,0,0,1,.5-.5h9.056a.52.52,0,0,1,.531.5V2.829c0,.281-.25.656-.687,1.28l-4.684,6.683A10.174,10.174,0,0,1,61.3,11.886a.93.93,0,0,1,.468.781v2.155c0,.312-.312.656-.656.469a10.331,10.331,0,0,0-9.556.031.49.49,0,0,1-.656-.468V12.791a2.333,2.333,0,0,1,.344-1.374l5.434-7.776H51.964A.52.52,0,0,1,51.433,3.142ZM18.425,15.727H15.677a.564.564,0,0,1-.5-.469V1.143a.52.52,0,0,1,.531-.5h2.561a.509.509,0,0,1,.5.468V2.954h.062A3.639,3.639,0,0,1,22.453.331c1.718,0,2.811.843,3.56,2.623A3.914,3.914,0,0,1,29.823.331a3.871,3.871,0,0,1,3.185,1.561c.874,1.187.687,2.9.687,4.434v8.931a.52.52,0,0,1-.531.5H30.447a.537.537,0,0,1-.5-.5V7.763a18.731,18.731,0,0,0-.062-2.654,1.449,1.449,0,0,0-1.624-1.218,1.839,1.839,0,0,0-1.655,1.155,8.654,8.654,0,0,0-.25,2.717v7.495a.52.52,0,0,1-.531.5H23.078a.537.537,0,0,1-.5-.5V7.763c0-1.561.25-3.9-1.686-3.9-1.967,0-1.9,2.248-1.9,3.9v7.495A.548.548,0,0,1,18.425,15.727Zm50.9-15.4c4.091,0,6.308,3.5,6.308,7.963,0,4.31-2.436,7.745-6.308,7.745-4,0-6.183-3.5-6.183-7.869C63.112,3.766,65.329.331,69.326.331Zm0,2.9c-2.03,0-2.155,2.779-2.155,4.5s-.031,5.4,2.123,5.4c2.124,0,2.248-2.967,2.248-4.778a13.665,13.665,0,0,0-.406-3.747A1.727,1.727,0,0,0,69.326,3.235ZM80.912,15.727H78.164a.537.537,0,0,1-.5-.5V1.081A.54.54,0,0,1,78.2.612h2.561a.534.534,0,0,1,.5.406V3.173h.063C82.1,1.237,83.16.331,85.065.331a3.637,3.637,0,0,1,3.216,1.655C89,3.111,89,5.015,89,6.389v8.9a.514.514,0,0,1-.531.437H85.721a.568.568,0,0,1-.5-.437V7.607c0-1.561.187-3.81-1.717-3.81a1.808,1.808,0,0,0-1.593,1.124,6.484,6.484,0,0,0-.437,2.686v7.62A.572.572,0,0,1,80.912,15.727ZM44.219,8.981a5.583,5.583,0,0,1-.5,2.935,2.21,2.21,0,0,1-1.9,1.249c-1.062,0-1.686-.812-1.686-2,0-2.342,2.092-2.779,4.091-2.779ZM47,15.7a.565.565,0,0,1-.656.063,6.9,6.9,0,0,1-1.593-1.843,5.471,5.471,0,0,1-4.528,2A3.911,3.911,0,0,1,36.1,11.636a4.675,4.675,0,0,1,2.935-4.5,19.5,19.5,0,0,1,5.184-.968V5.827a3.373,3.373,0,0,0-.344-2,1.849,1.849,0,0,0-1.53-.718,2.079,2.079,0,0,0-2.217,1.655c-.062.25-.219.5-.468.5l-2.654-.281a.481.481,0,0,1-.406-.562C37.224,1.174,40.128.206,42.751.206A6.18,6.18,0,0,1,46.9,1.58c1.343,1.249,1.218,2.935,1.218,4.747v4.278a3.869,3.869,0,0,0,1.03,2.561c.187.25.219.562,0,.718C48.56,14.353,47.56,15.227,47,15.7ZM8.151,8.981a5.583,5.583,0,0,1-.5,2.935,2.21,2.21,0,0,1-1.9,1.249c-1.062,0-1.686-.812-1.686-2,0-2.342,2.092-2.779,4.091-2.779ZM10.9,15.7a.565.565,0,0,1-.656.063A6.9,6.9,0,0,1,8.65,13.915a5.471,5.471,0,0,1-4.528,2A3.911,3.911,0,0,1,0,11.636a4.674,4.674,0,0,1,2.935-4.5,19.5,19.5,0,0,1,5.184-.968V5.827a3.373,3.373,0,0,0-.344-2,1.849,1.849,0,0,0-1.53-.718A2.079,2.079,0,0,0,4.028,4.766c-.062.25-.219.5-.468.5L.906,4.984A.481.481,0,0,1,.5,4.422C1.124,1.174,4.028.206,6.652.206A6.18,6.18,0,0,1,10.8,1.58c1.343,1.249,1.218,2.935,1.218,4.747v4.278a3.869,3.869,0,0,0,1.03,2.561c.187.25.219.562,0,.718C12.46,14.353,11.461,15.227,10.9,15.7Z" fill="#0b2238" fill-rule="evenodd"/>
  </g>
</svg>
