<svg xmlns="http://www.w3.org/2000/svg" width="186" height="59" viewBox="0 0 186 59">
  <g id="aust" transform="translate(-760 -1232)">
    <rect id="Rectangle_235" data-name="Rectangle 235" width="186" height="59" transform="translate(760 1232)" fill="none"/>
    <g id="Episerver-Reversed" transform="translate(790 1235)">
      <path id="Fill-1" d="M23.811,19.825V11.119a5.562,5.562,0,0,1,5.56-5.559,5.707,5.707,0,0,1,5.193,3.514Zm40.176-7.709c0-3.619,2.1-6.242,5.507-6.242,3.357,0,5.56,2.518,5.56,6.136V26.434c0,3.357-1.363,6.5-5.822,6.5H67.816v5.769h1.416c4.144,0,6.4-1.468,9.913-4.982L103.01,9.808V30.63c0,5.874,3.462,8.339,7.4,8.339,2.675,0,4.3-.944,6.766-3.409l9.7-9.7-3.986-3.776-9.807,9.7c-1.312,1.259-1.889,1.469-2.413,1.469a2.06,2.06,0,0,1-2.045-2.308V3.462c0-1.783-.892-3.2-2.781-3.2-.787,0-1.468.262-2.832,1.626l-22.343,22.4V11.119A11.169,11.169,0,0,0,69.494,0c-3.356,0-5.716,1.1-9.073,4.458L34.2,30.683c-1.94,1.941-3.042,2.57-4.93,2.57a5.53,5.53,0,0,1-5.455-5.507L39.6,11.906a2.937,2.937,0,0,0,.84-2.412A11.265,11.265,0,0,0,29.371,0c-3.042,0-5.56.839-9.231,4.511L0,24.7l3.986,3.934L18.2,14.424V26.959c0,7.343,4.878,11.853,11.172,11.853,3.619,0,5.769-1.154,8.969-4.353L58.375,14.424V52.082h5.612Z" fill="#0b2238" fill-rule="evenodd"/>
    </g>
  </g>
</svg>
