<svg xmlns="http://www.w3.org/2000/svg" width="87.215" height="20" viewBox="0 0 87.215 20">
  <g id="log1_-_w" data-name="log1 - w" transform="translate(0 0)">
    <g id="Logo-5-white-medium-01">
      <g id="Logo-example-8" transform="translate(0 0)">
        <g id="Group-12">
          <path id="Combined-Shape" d="M0,1.538c0-1.7,2.927-2.147,3.281-.4a66.675,66.675,0,0,1,.4,17.075,1.546,1.546,0,0,1-3.079-.05C.454,12.622.05,7.08,0,1.538Zm8.075-.15c.05-1.6,2.675-2,2.978-.349a76.68,76.68,0,0,1,.908,17.674,1.419,1.419,0,0,1-2.826-.05A151.875,151.875,0,0,1,8.075,1.388Zm8.176.449c.1-1.548,2.978-2.047,3.331-.349a41.549,41.549,0,0,1-.151,14.778c-.3,1.548-2.927,1.048-3.028-.4C16.252,11.274,16,6.431,16.252,1.837Z" transform="translate(0 0.02)" fill="#fff"/>
        </g>
        <g id="Group-13" transform="translate(25.842 2.029)">
          <path id="Fill-162" d="M-9.267,1.271h-1.262V6.016c1.464,0,3.079-.1,3.483-1.817A2.336,2.336,0,0,0-9.267,1.271ZM-6.239.211A4.782,4.782,0,0,1-5.229,5.763C-6.743,8.691-10.024,8.236-12.8,8.236V-1h2.322A5.782,5.782,0,0,1-6.239.211Z" transform="translate(12.8 1)" fill="#fff"/>
          <path id="Fill-163" d="M4.8,7.883H7.223V-1H4.8Z" transform="translate(4.083 1)" fill="#fff"/>
          <path id="Fill-164" d="M15.339.817h-2.12V2.735h2.12a.94.94,0,0,0,.858-.959A.94.94,0,0,0,15.339.817Zm3.129,7.066H16.2L14.784,4.552H13.32V7.883H11.2V-1h4.24a2.791,2.791,0,0,1,2.776,2.725,2.8,2.8,0,0,1-1.262,2.322Z" transform="translate(0.913 1)" fill="#fff"/>
          <path id="Fill-165" d="M34.46,7.883H28V-1h6.309V.968H30.423V2.483H33.7V4.4H30.423V5.965H34.46V7.883" transform="translate(-7.407 1)" fill="#fff"/>
          <path id="Fill-166" d="M48.86,5.359l1.615,1.565a4.649,4.649,0,0,1-3.331,1.363A4.686,4.686,0,0,1,42.4,3.643,4.642,4.642,0,0,1,47.094-1,4.564,4.564,0,0,1,50.425.363L48.81,1.927a2.4,2.4,0,0,0-1.716-.707,2.456,2.456,0,0,0-2.423,2.423A2.5,2.5,0,0,0,48.86,5.359" transform="translate(-14.54 1)" fill="#fff"/>
          <path id="Fill-167" d="M66.064,1.271H63.742V7.883H61.471V1.271H59.2V-1h6.864V1.271" transform="translate(-22.86 1)" fill="#fff"/>
          <path id="Fill-168" d="M81.416,3.643a2.369,2.369,0,0,0-2.372-2.372,2.456,2.456,0,0,0-2.423,2.423,2.4,2.4,0,0,0,4.795-.05Zm2.271,0A4.643,4.643,0,1,1,79.043-1,4.664,4.664,0,0,1,83.687,3.643Z" transform="translate(-30.389 1)" fill="#fff"/>
          <path id="Fill-169" d="M98.539.817h-2.12V2.735h2.12a.94.94,0,0,0,.858-.959A.94.94,0,0,0,98.539.817Zm3.129,7.066H99.4L97.984,4.552H96.52V7.883H94.4V-1h4.24a2.791,2.791,0,0,1,2.776,2.725,2.8,2.8,0,0,1-1.262,2.322Z" transform="translate(-40.294 1)" fill="#fff"/>
        </g>
        <path id="Brand-Tagline" d="M52.051,32.583c-.05,0-.05,0-.1-.05s-.05-.05-.05-.1V29.3c0-.05,0-.1.05-.1.05-.05.05-.05.1-.05h1.413a1.444,1.444,0,0,1,.858.252.847.847,0,0,1,.3.707,1.474,1.474,0,0,1-.1.454c-.1.1-.151.2-.3.252.1.1.252.151.353.3a.756.756,0,0,1,.1.5.916.916,0,0,1-.3.707,1.225,1.225,0,0,1-.908.252Zm1.312-2.019a.588.588,0,0,0,.353-.1.371.371,0,0,0,.1-.3.541.541,0,0,0-.1-.3.426.426,0,0,0-.353-.1h-.757v.808Zm.05,1.514a.951.951,0,0,0,.4-.1.426.426,0,0,0,.1-.353.458.458,0,0,0-.151-.353.544.544,0,0,0-.4-.1h-.808v.908Zm2.372.5c-.05,0-.05,0-.1-.05s-.05-.05-.05-.1V29.3c0-.05,0-.1.05-.1.05-.05.05-.05.1-.05h1.262a1.234,1.234,0,0,1,.908.3.866.866,0,0,1,.3.757,1.076,1.076,0,0,1-.151.606.926.926,0,0,1-.5.353l.707,1.262v.05c0,.05,0,.05-.05.1h-.454c-.05,0-.1,0-.1-.05l-.1-.1L57,31.321h-.656v1.161c0,.05,0,.05-.05.1a.07.07,0,0,1-.1,0ZM57,30.766a1.205,1.205,0,0,0,.454-.1.458.458,0,0,0,.151-.353.393.393,0,0,0-.151-.353,1.008,1.008,0,0,0-.454-.1h-.707v1.009Zm2.12,1.817c-.05,0-.05,0-.1-.05a.176.176,0,0,1-.05-.1v-.05l1.161-3.129c.05-.1.1-.1.151-.1h.5c.1,0,.151.05.151.1L62.1,32.381v.05c0,.05,0,.05-.05.1-.05,0-.05.05-.1.05H61.49a.049.049,0,0,0,.05-.05l-.252-.606H59.824l-.252.606c.1.05.05.1-.05.1h-.4Zm.959-1.262h1.11l-.555-1.514Zm3.129,1.262c-.05,0-.05,0-.1-.05s-.05-.05-.05-.1V29.3c0-.05,0-.1.05-.1.05-.05.05-.05.1-.05h.353c.1,0,.1.05.1.1l1.363,2.12v-2.12c0-.05,0-.1.05-.1s.05-.05.1-.05h.4c.05,0,.1,0,.1.05.05.05.05.05.05.1v3.129c0,.05,0,.1-.05.1.05.05,0,.05-.05.05h-.353c-.1,0-.1-.05-.151-.1l-1.363-2.12v2.069c0,.05,0,.05-.05.1,0,.05-.05.05-.1.05h-.4Zm3.836,0c-.05,0-.05,0-.1-.05s-.05-.05-.05-.1V29.3c0-.05,0-.1.05-.1.05-.05.05-.05.1-.05H68.2c.959,0,1.464.454,1.464,1.312v.707a1.3,1.3,0,0,1-.353,1.009,1.656,1.656,0,0,1-1.06.3H67.042Zm1.161-.555a.729.729,0,0,0,.555-.151.853.853,0,0,0,.2-.606v-.707a.715.715,0,0,0-.2-.555.853.853,0,0,0-.606-.2H67.6v2.271ZM73,32.583c-.05,0-.05,0-.1-.05s-.05-.05-.05-.1V29.756h-.908c-.05,0-.05,0-.1-.05s-.05-.05-.05-.1v-.353c0-.05,0-.1.05-.1.05-.05.05-.05.1-.05H74.41c.05,0,.1,0,.1.05.05.05.05.05.05.1V29.6c0,.05,0,.1-.05.1-.05.05-.05.05-.1.05H73.5v2.675c0,.05,0,.05-.05.1,0,.05,0,.05-.05.05Zm1.867,0c-.05,0-.05,0-.1-.05a.176.176,0,0,1-.05-.1v-.05l1.161-3.129c.05-.1.1-.1.151-.1h.5c.1,0,.151.05.151.1l1.161,3.129v.05c0,.05,0,.05-.05.1-.05,0-.05.05-.1.05h-.454c-.1,0-.1-.05-.1-.1l-.252-.606H75.42l-.252.606c.1.1.05.1.05.1Zm.959-1.262h1.11l-.555-1.514Zm4.29,1.312a1.422,1.422,0,0,1-1.06-.353,1.517,1.517,0,0,1-.4-.959v-.908a1.109,1.109,0,0,1,.4-.908,1.406,1.406,0,0,1,1.06-.3,1.685,1.685,0,0,1,.757.151,4.366,4.366,0,0,1,.5.353.814.814,0,0,1,.151.454c0,.05,0,.05-.05.1a.176.176,0,0,1-.1.05H80.77a.176.176,0,0,1-.05-.1.784.784,0,0,0-1.211-.2.807.807,0,0,0-.2.555v.908a.807.807,0,0,0,.2.555.771.771,0,0,0,.5.2.919.919,0,0,0,.555-.2.807.807,0,0,0,.2-.555v-.151h-.606c-.05,0-.05,0-.1-.05s-.05-.05-.05-.1v-.3c0-.05,0-.05.05-.1s.05-.05.1-.05h1.161c.05,0,.1,0,.1.05.05.05.05.05.05.1v.5a1.466,1.466,0,0,1-.151.707,1.1,1.1,0,0,1-.5.454A2.34,2.34,0,0,1,80.114,32.633Zm2.574-.05c-.05,0-.05,0-.1-.05s-.05-.05-.05-.1V29.3c0-.05,0-.1.05-.1.05-.05.05-.05.1-.05h.454c.05,0,.1,0,.1.05.05.05.05.05.05.1v2.725h1.514c.05,0,.1,0,.1.05.05.05.05.05.05.1v.353c0,.05,0,.05-.05.1s-.05.05-.1.05Zm3.23,0c-.05,0-.05,0-.1-.05s-.05-.05-.05-.1V29.3c0-.05,0-.1.05-.1.05-.05.05-.05.1-.05h.5c.05,0,.1,0,.1.05.05.05.05.05.05.1v3.129c0,.05,0,.05-.05.1s-.05.05-.1.05Zm1.867,0c-.05,0-.05,0-.1-.05s-.05-.05-.05-.1V29.3c0-.05,0-.1.05-.1.05-.05.05-.05.1-.05h.353c.1,0,.1.05.1.1l1.363,2.12v-2.12c0-.05,0-.1.05-.1.05-.05.05-.05.1-.05h.4c.05,0,.1,0,.1.05.05.05.05.05.05.1v3.129c0,.05,0,.1-.05.1-.05.05-.05.05-.1.05H89.8c-.1,0-.1-.05-.151-.1l-1.363-2.12v2.069c0,.05,0,.05-.05.1s-.05.05-.1.05Zm3.836,0c-.05,0-.05,0-.1-.05s-.05-.05-.05-.1V29.3c0-.05,0-.1.05-.1.05-.05.05-.05.1-.05h2.12c.05,0,.1,0,.1.05.05.05.05.05.05.1v.3c0,.05,0,.1-.05.1-.05.05-.05.05-.1.05H92.177v.858h1.514c.05,0,.1,0,.1.05.05.05.05.05.05.1v.3c0,.05,0,.1-.05.1-.05.05-.05.05-.1.05H92.177v.858h1.615c.05,0,.1,0,.1.05.05.05.05.05.05.1v.3c0,.05,0,.1-.05.1-.05.05-.05.05-.1.05Z" transform="translate(-25.705 -14.621)" fill="#fff"/>
      </g>
    </g>
  </g>
</svg>
