<svg id="log1" xmlns="http://www.w3.org/2000/svg" width="89.014" height="32.726" viewBox="0 0 89.014 32.726">
  <g id="Logo-3-white-medium-01" transform="translate(0 0)">
    <g id="Logo-example-6">
      <path id="Fill-170" d="M23.89,32.726H35.916L23.89,0H11.945L0,32.726H5.972L3.436,25.772l9-24.544,11.454,31.5" fill="#042468"/>
      <path id="Brand-Name" d="M59.7,11.527a2.3,2.3,0,0,1,1.145.818,2.2,2.2,0,0,1,.409,1.227,1.958,1.958,0,0,1-.818,1.718,4.485,4.485,0,0,1-2.536.573H53.4V7.6h4.254a4.2,4.2,0,0,1,2.454.573,1.977,1.977,0,0,1,.818,1.554,2.265,2.265,0,0,1-.245,1.064A2.822,2.822,0,0,1,59.7,11.527ZM55.691,9.318v1.554h1.554c.818,0,1.145-.245,1.145-.818s-.409-.818-1.145-.818H55.691Zm1.964,4.827c.818,0,1.227-.245,1.227-.818s-.409-.818-1.227-.818H55.691v1.718A15.765,15.765,0,0,1,57.654,14.145Zm8.427-.409H64.854v2.209H62.481V7.6h3.845a4.943,4.943,0,0,1,1.964.409,2.27,2.27,0,0,1,1.227,1.064,3.5,3.5,0,0,1,.491,1.636,3.133,3.133,0,0,1-.409,1.554,2.413,2.413,0,0,1-1.145,1.064l1.8,2.618H67.717Zm1.473-3.109a1.172,1.172,0,0,0-.409-.9A1.907,1.907,0,0,0,66,9.4H64.69v2.454H66a2.365,2.365,0,0,0,1.145-.327C67.472,11.363,67.554,11.036,67.554,10.627ZM76.8,14.309H73.281l-.655,1.554H70.254L73.935,7.6h2.291l3.682,8.263H77.453Zm-.736-1.8L75,9.891l-1.064,2.618ZM88.5,7.6v8.263H86.617l-3.682-4.418v4.418H80.644V7.6h1.882l3.682,4.418V7.6Zm1.636,0h3.927a5.978,5.978,0,0,1,2.454.491,3.582,3.582,0,0,1,1.636,1.473,4.052,4.052,0,0,1,.573,2.209,4.052,4.052,0,0,1-.573,2.209,4.1,4.1,0,0,1-1.636,1.473,5.978,5.978,0,0,1-2.454.491H90.135ZM93.9,14.063a2.431,2.431,0,0,0,1.718-.573,2,2,0,0,0,.655-1.636,2,2,0,0,0-.655-1.636A2.431,2.431,0,0,0,93.9,9.645H92.344v4.582l1.554-.164ZM61.009,20.118v8.263H59.782L55.2,22.817v5.563H53.645V20.118h1.227l4.582,5.563V20.118ZM68.617,26.5H64.445l-.818,1.882H62.072l3.763-8.263H67.39l3.682,8.263H69.517Zm-.491-1.309-1.554-3.6-1.554,3.6Zm11.618,3.191V22.817l-2.7,4.582H76.39l-2.782-4.418v5.4H72.135V20.118h1.227l3.273,5.563,3.191-5.563h1.227v8.263Zm9.9-1.309v1.309H83.426V20.118H89.48v1.309h-4.5v2.209h4.009v1.227H84.98v2.209h4.663Z" transform="translate(-9.711 -1.382)" fill="#042468"/>
    </g>
  </g>
</svg>
