<svg id="log2-w" xmlns="http://www.w3.org/2000/svg" width="68.262" height="19.763" viewBox="0 0 68.262 19.763">
  <g id="Logo-6-white-small-01">
    <g id="Logo-example-16_1_">
      <path id="Combined-Shape_1_" d="M43.669,12.817c-.071,0-.071,0-.142-.071s-.071-.071-.071-.142V7.413c0-.071,0-.071.071-.142s.071-.071.142-.071h2.275a2.123,2.123,0,0,1,1.422.427,1.447,1.447,0,0,1,.427,1.067,1.2,1.2,0,0,1-.213.711c-.142.142-.284.356-.5.427a1.265,1.265,0,0,1,.569.5,1.433,1.433,0,0,1,.213.782,1.56,1.56,0,0,1-.5,1.209,2.123,2.123,0,0,1-1.422.427l-2.275.071ZM45.8,9.547a1.42,1.42,0,0,0,.64-.142.646.646,0,0,0,.213-.5.554.554,0,0,0-.213-.5c-.142-.142-.356-.142-.64-.142H44.593V9.689C44.593,9.547,45.8,9.547,45.8,9.547Zm.071,2.418a.869.869,0,0,0,.64-.213.807.807,0,0,0,.213-.569.766.766,0,0,0-.142-.569.869.869,0,0,0-.64-.213H44.593v1.564Zm4.551.853c-.071,0-.071,0-.142-.071s-.071-.071-.071-.142V7.413c0-.071,0-.071.071-.142s.071-.071.142-.071h3.484c.071,0,.071,0,.142.071s.071.071.071.142v.5c0,.071,0,.071-.071.142s-.071.071-.142.071H51.277V9.475h2.418c.071,0,.071,0,.142.071s.071.071.071.142v.5c0,.071,0,.071-.071.142s-.071.071-.142.071H51.277v1.422h2.631c.071,0,.071,0,.142.071s.071.071.071.142v.5c0,.071,0,.071-.071.142,0,.142-.071.142-.071.142Zm5.76,0c-.071,0-.071,0-.142-.071s-.071-.071-.071-.142v-.071l1.92-5.12c.071-.142.142-.142.284-.142h.853a.369.369,0,0,1,.284.142l1.92,5.12V12.6c0,.071,0,.071-.071.142s-.071.071-.142.071h-.711c-.142,0-.142-.071-.213-.142l-.356-1H57.392l-.356,1c-.071.071-.142.142-.213.142Zm1.564-2.062h1.778l-.853-2.418Zm7.68,2.133a2.569,2.569,0,0,1-1.707-.5,2.077,2.077,0,0,1-.569-1.707V7.413c0-.071,0-.071.071-.142s.071-.071.142-.071h.782c.071,0,.071,0,.142.071s.071.071.071.142v3.2c0,.427.071.782.284.924a1.422,1.422,0,0,0,1.707,0,1.207,1.207,0,0,0,.284-.924v-3.2c0-.071,0-.071.071-.142s.071-.071.142-.071h.782c.071,0,.071,0,.142.071s.071.071.071.142v3.2a2.169,2.169,0,0,1-.569,1.707A2.622,2.622,0,0,1,65.427,12.889Zm6.186-.071c-.071,0-.071,0-.142-.071s-.071-.071-.071-.142V8.267H69.978c-.071,0-.071,0-.142-.071s-.071-.071-.071-.142v-.64c0-.071,0-.071.071-.142s.071-.071.142-.071h4.053c.071,0,.071,0,.142.071s.071.071.071.142v.569c0,.071,0,.071-.071.142s-.071.071-.142.071H72.609v4.338c0,.071,0,.071-.071.142s-.071.071-.142.071h-.782v.071Zm6.328,0c-.071,0-.071,0-.142-.071s-.071-.071-.071-.142V10.826l-1.92-3.271a.07.07,0,0,0-.071-.071c0-.071,0-.071.071-.142s.071-.071.142-.071h.711c.071,0,.142.071.284.142L78.3,9.689l1.351-2.275a.07.07,0,0,1,.071-.071c.071-.071.071-.071.142-.071h.711c.071,0,.071,0,.142.071v.071c0,.071,0,.071-.071.071L78.8,10.755v1.778c0,.071,0,.071-.071.142s-.071.071-.142.071h-.64ZM45.3,21.706a2.75,2.75,0,0,1-1.92-.711,1.5,1.5,0,0,1-.284-.711c0-.071,0-.071.071-.142s.071-.071.142-.071h.427c.071,0,.142.071.213.142a.826.826,0,0,0,.427.569,2.429,2.429,0,0,0,1.991,0,.848.848,0,0,0,.356-.64,1.011,1.011,0,0,0-.142-.427c-.071-.142-.284-.213-.5-.284s-.5-.142-1-.284a5.1,5.1,0,0,1-1-.356,1.12,1.12,0,0,1-.5-.5c-.142-.142-.142-.427-.142-.782a1.621,1.621,0,0,1,.213-.782,1.433,1.433,0,0,1,.64-.5,2.26,2.26,0,0,1,1-.142,2.6,2.6,0,0,1,1.067.213,1.548,1.548,0,0,1,.64.5,2.526,2.526,0,0,1,.284.64c0,.071,0,.071-.071.142s-.071.071-.142.071h-.427c-.071,0-.071,0-.142-.071s-.071-.071-.071-.142a.826.826,0,0,0-.427-.569,1.813,1.813,0,0,0-1.707,0,.693.693,0,0,0-.284.64.762.762,0,0,0,.142.427c.071.142.284.213.427.284.213.071.5.142.853.284a8.276,8.276,0,0,1,1.067.427,1.317,1.317,0,0,1,.569.5,1.169,1.169,0,0,1,.142.711,1.22,1.22,0,0,1-.569,1.138C46.442,21.564,46.015,21.706,45.3,21.706Zm5.831-.071c-.071,0-.071,0-.142-.071s-.071-.071-.071-.142V16.728H49.428c-.071,0-.071,0-.142-.071s-.071-.071-.071-.142v-.284c0-.071,0-.071.071-.142s.071-.071.142-.071H53.2c.071,0,.071,0,.142.071s.071.071.071.142v.284c0,.071,0,.071-.071.142s-.071.071-.142.071H51.633v4.693c0,.071,0,.071-.071.142,0,.071-.071.071-.142.071Zm6.542.071a1.942,1.942,0,0,1-1.564-.569,2.169,2.169,0,0,1-.569-1.707v-3.2c0-.071,0-.071.071-.142s.071-.071.142-.071h.427c.071,0,.071,0,.142.071s.071.071.071.142v3.2a1.67,1.67,0,0,0,.356,1.138,1.375,1.375,0,0,0,1.991,0A1.809,1.809,0,0,0,59.1,19.43v-3.2c0-.071,0-.071.071-.142s.071-.071.142-.071h.427c.071,0,.071,0,.142.071s.071.071.071.142v3.2a2.077,2.077,0,0,1-.569,1.707A2.6,2.6,0,0,1,57.677,21.706Zm4.977-.071c-.071,0-.071,0-.142-.071s-.071-.071-.071-.142V16.231c0-.071,0-.071.071-.142s.071-.071.142-.071h1.778a2.336,2.336,0,0,1,1.707.5,2.151,2.151,0,0,1,.5,1.635v1.28a2.833,2.833,0,0,1-.213,1.209,2.26,2.26,0,0,1-.711.711,3.2,3.2,0,0,1-1.28.213A14.28,14.28,0,0,1,62.654,21.635Zm1.849-.711a2.652,2.652,0,0,0,.853-.142,1.12,1.12,0,0,0,.5-.5A2.652,2.652,0,0,0,66,19.43V18.222a1.4,1.4,0,0,0-.427-1.138c-.213-.284-.64-.356-1.209-.356H63.152v4.2Zm4.977.711c-.071,0-.071,0-.142-.071s-.071-.071-.071-.142V16.231c0-.071,0-.071.071-.142s.071-.071.142-.071h.427c.071,0,.071,0,.142.071s.071.071.071.142v5.191c0,.071,0,.071-.071.142s-.071.071-.142.071Zm5.191.071a2.075,2.075,0,0,1-1.564-.5,2.008,2.008,0,0,1-.569-1.635v-1.28a2.04,2.04,0,0,1,.64-1.635,2.343,2.343,0,0,1,1.564-.569,1.942,1.942,0,0,1,1.564.569,2.439,2.439,0,0,1,.64,1.635v1.28a2.159,2.159,0,0,1-.569,1.635A3.034,3.034,0,0,1,74.671,21.706Zm0-.64a1.193,1.193,0,0,0,1-.427,1.563,1.563,0,0,0,.427-1.209V18.15a1.673,1.673,0,0,0-.427-1.209,1.291,1.291,0,0,0-1-.427,1.193,1.193,0,0,0-1,.427,1.563,1.563,0,0,0-.427,1.209v1.28a1.673,1.673,0,0,0,.427,1.209A1.4,1.4,0,0,0,74.671,21.066Z" transform="translate(-12.453 -5.067)" fill="#fff"/>
      <g id="XMLID_1_">
        <path id="XMLID_4_" d="M28.23,23.963l-1.778-3.587L18.417,4.2H16.639L24.39,19.743H22.826L15.146,4.27,6.4,21.22l3.484.07,12.515.07h2.773l1.28,2.6ZM8.96,19.673,15.146,7.716,16,9.4,10.738,19.743Zm3.484,0,4.409-8.51,4.266,8.58Z" transform="translate(-1.849 -4.2)" fill="#fff"/>
        <path id="XMLID_3_" d="M11.733,4.2H10.026L0,23.75l1.778.07L2.56,22.2h0Z" transform="translate(0 -4.2)" fill="#fff"/>
        <path id="XMLID_2_" d="M5.453,29.8,4.6,31.435l19.839.071-.782-1.564Z" transform="translate(-1.329 -11.815)" fill="#fff"/>
      </g>
    </g>
  </g>
</svg>
