<svg id="log2" xmlns="http://www.w3.org/2000/svg" width="116.359" height="32.133" viewBox="0 0 116.359 32.133">
  <g id="Logo-7-white-small-01">
    <g id="Logo-example-5">
      <g id="Group-6">
        <path id="Fill-1" d="M30.886,34.882a4.635,4.635,0,0,1-3.133-1.253A4.117,4.117,0,0,1,26.5,30.5a4.262,4.262,0,0,1,1.253-3.043A4.473,4.473,0,0,1,30.886,26.2a4.635,4.635,0,0,1,3.133,1.253,4.376,4.376,0,0,1,0,6.176,4.635,4.635,0,0,1-3.133,1.253" transform="translate(-2.781 -2.749)" fill="#042468"/>
        <path id="Fill-3" d="M4.386,8.882A4.635,4.635,0,0,1,1.253,7.629,4.635,4.635,0,0,1,0,4.5,4.262,4.262,0,0,1,1.253,1.453,4.473,4.473,0,0,1,4.386.2,4.262,4.262,0,0,1,7.429,1.453,4.473,4.473,0,0,1,8.682,4.586,4.25,4.25,0,0,1,7.429,7.719,4.42,4.42,0,0,1,4.386,8.882" transform="translate(0 -0.021)" fill="#042468"/>
        <path id="Fill-5" d="M30.683,8.772A4.635,4.635,0,0,1,27.55,7.519a4.376,4.376,0,0,1,0-6.176A4.2,4.2,0,0,1,30.683,0a4.635,4.635,0,0,1,3.133,1.253,4.376,4.376,0,0,1,0,6.176,4.343,4.343,0,0,1-3.133,1.343" transform="translate(-2.757)" fill="#042468"/>
        <path id="Fill-7" d="M4.586,33.508a4.635,4.635,0,0,1-3.133-1.253A4.117,4.117,0,0,1,.2,29.122a4.635,4.635,0,0,1,1.253-3.133,3.893,3.893,0,0,1,.627-.537c.09-.09.09-.09.179-.09.09-.09.358-.179.448-.269A.329.329,0,0,1,2.975,25c.09-.09.358-.09.537-.09h.179l.985-.09a.538.538,0,0,1,.358.09H5.57a6.452,6.452,0,0,0,4.565-1.969,6.06,6.06,0,0,0,1.79-4.565v-.806l.09-.985v-.179c.09-.179.09-.358.179-.537a.329.329,0,0,0,.09-.269c.09-.179.09-.358.269-.448.09-.09.09-.09.09-.179a3.893,3.893,0,0,1,.537-.627A4.473,4.473,0,0,1,16.311,13.1a4.635,4.635,0,0,1,3.133,1.253,4.376,4.376,0,0,1,0,6.176,3.893,3.893,0,0,1-.627.537h-.09c-.09.09-.358.179-.448.269a.329.329,0,0,1-.269.09,1.135,1.135,0,0,1-.537.09H17.3l-.985.09a.538.538,0,0,1-.358-.09h-.627a6.452,6.452,0,0,0-4.565,1.969,6.06,6.06,0,0,0-1.79,4.565v.716h0l-.09.9-.09.09a1.135,1.135,0,0,0-.09.537.329.329,0,0,0-.09.269c-.09.179-.09.358-.269.448-.09.09-.09.09-.09.179a1.217,1.217,0,0,1-.537.716,3.778,3.778,0,0,1-3.133,1.611Z" transform="translate(-0.021 -1.375)" fill="#042468"/>
        <path id="Fill-9" d="M17.686,33.529a4.635,4.635,0,0,1-3.133-1.253A4.473,4.473,0,0,1,13.3,29.143,4.262,4.262,0,0,1,14.553,26.1a3.893,3.893,0,0,1,.627-.537c.09-.09.09-.09.179-.09.09-.09.358-.179.448-.269a.329.329,0,0,1,.269-.09c.09-.09.358-.09.537-.09a.313.313,0,0,1,.179-.09l.985-.09a.538.538,0,0,1,.358.09h.537a6.452,6.452,0,0,0,4.565-1.969,6.06,6.06,0,0,0,1.79-4.565v-.179h0v-.448l.09-.985a.313.313,0,0,0,.09-.179,1.135,1.135,0,0,0,.09-.537c0-.09.09-.179.09-.269.09-.09.09-.358.269-.448h0c.09-.09.09-.09.09-.179a3.893,3.893,0,0,1,.537-.627A4.473,4.473,0,0,1,29.411,13.3a4.635,4.635,0,0,1,3.133,1.253,4.376,4.376,0,0,1,0,6.176,3.893,3.893,0,0,1-.627.537c0-.179,0-.179-.09-.179l-.09.09c-.09.09-.358.179-.448.269a.329.329,0,0,1-.269.09c-.09.09-.358.09-.537.09h-.179l-.985.09c-.09,0-.358,0-.448-.09h-.448a6.452,6.452,0,0,0-4.565,1.969,6.06,6.06,0,0,0-1.79,4.565v.627l-.09,1.074v.179a1.135,1.135,0,0,0-.09.537c0,.09-.09.09-.09.269h0c-.09.09-.09.358-.269.448-.09.09-.09.09-.09.179a3.893,3.893,0,0,1-.537.627,4.435,4.435,0,0,1-3.222,1.432" transform="translate(-1.396 -1.396)" fill="#042468"/>
        <path id="Fill-11" d="M4.586,20.318a4.635,4.635,0,0,1-3.133-1.253A4.473,4.473,0,0,1,.2,15.932a4.262,4.262,0,0,1,1.253-3.043,1.822,1.822,0,0,1,.627-.537c.09-.09.09-.09.179-.09.09-.09.358-.179.448-.269a.329.329,0,0,1,.269-.09.774.774,0,0,1,.537-.269H4.675a.538.538,0,0,1,.358.09H5.57a6.452,6.452,0,0,0,4.565-1.969,6.06,6.06,0,0,0,1.79-4.565V5.1h0V4.386l.09-.9h0l.09-.09a1.523,1.523,0,0,0,.09-.627c0-.09.09-.179.09-.269.09-.09.09-.358.269-.448h0c.09-.09.09-.09.09-.179a3.893,3.893,0,0,1,.537-.627A4.857,4.857,0,0,1,16.4,0a4.635,4.635,0,0,1,3.133,1.253,4.376,4.376,0,0,1,0,6.176,3.893,3.893,0,0,1-.627.537c-.09.09-.179.09-.179.179h0c-.09.09-.358.179-.448.269a.329.329,0,0,1-.269.09,1.135,1.135,0,0,1-.537.09H17.3l-.985.09a.538.538,0,0,1-.358-.09h-.537a6.452,6.452,0,0,0-4.565,1.969,6.06,6.06,0,0,0-1.79,4.565v.09h0v.448l-.179.985v.179a1.135,1.135,0,0,0-.09.537c0,.09-.09.179-.09.269-.09.09-.09.358-.269.448-.09.09-.09.09-.09.179a3.893,3.893,0,0,1-.537.627,4.435,4.435,0,0,1-3.222,1.432" transform="translate(-0.021)" fill="#042468"/>
      </g>
      <path id="TechBrand" d="M45.406,15.759H42.9v-1.79h7.25v1.79H47.644v6.355H45.317l.09-6.355Zm12.173,4.565v1.79H51.045V13.969H57.49v1.79H53.372V17.1h3.67v1.79h-3.67v1.522l4.207-.09Zm5.46,1.969a5.222,5.222,0,0,1-2.327-.537A3.329,3.329,0,0,1,59.1,20.234,4.381,4.381,0,0,1,58.474,18a3.845,3.845,0,0,1,.627-2.238,3.792,3.792,0,0,1,1.611-1.522,4.955,4.955,0,0,1,2.327-.537,4.308,4.308,0,0,1,1.969.358,3.858,3.858,0,0,1,1.522,1.164l-1.522,1.343a2.523,2.523,0,0,0-3.133-.716,1.756,1.756,0,0,0-.806.806,5.267,5.267,0,0,0-.179,1.522,3.159,3.159,0,0,0,.269,1.253,1.756,1.756,0,0,0,.806.806,2.523,2.523,0,0,0,3.133-.716l1.522,1.343A3.319,3.319,0,0,1,65.1,22.024,5.221,5.221,0,0,1,63.039,22.293ZM75.3,13.969v8.145H72.974V18.891H69.842v3.222H67.514V13.969h2.327v3.043h3.222V13.969ZM83,17.817a1.782,1.782,0,0,1,1.074.716,2.055,2.055,0,0,1,.358,1.253,1.807,1.807,0,0,1-.806,1.611,4.338,4.338,0,0,1-2.417.627H77.181V13.969H81.03a3.336,3.336,0,0,1,2.238.627,1.872,1.872,0,0,1,.806,1.522,2.126,2.126,0,0,1-.269,1.074A2.468,2.468,0,0,1,83,17.817Zm-4.3-2.685V17.37h2.148A2.6,2.6,0,0,0,82.1,17.1a.94.94,0,0,0,.448-.806.783.783,0,0,0-.448-.806,2.6,2.6,0,0,0-1.253-.269l-2.148-.09Zm2.506,5.818c1.164,0,1.79-.358,1.79-1.164s-.627-1.164-1.79-1.164H78.7V20.95ZM91.5,22.114,89.8,19.7H87.564v2.417H86.042V13.969h3.4a4.4,4.4,0,0,1,1.88.358,4.7,4.7,0,0,1,1.253.985,2.942,2.942,0,0,1,.358,1.522,2.2,2.2,0,0,1-.448,1.522,3.414,3.414,0,0,1-1.253.985l1.88,2.685H91.5Zm-.09-5.281a1.625,1.625,0,0,0-.537-1.253c-.358-.358-.806-.358-1.522-.358h-1.79v3.222h1.79A2.069,2.069,0,0,0,90.876,18,1.231,1.231,0,0,0,91.413,16.833Zm8.5,3.4H95.8l-.806,1.88H93.471l3.67-8.145h1.522l3.67,8.145h-1.522Zm-.448-1.253L97.947,15.4l-1.522,3.58Zm11.188-5.012v8.145H109.4l-4.475-5.549v5.549h-1.522V13.969h1.253l4.475,5.549V13.969Zm2.148,0h3.58a5.222,5.222,0,0,1,2.327.537,3.381,3.381,0,0,1,1.522,1.432,4.31,4.31,0,0,1,.627,2.148,3.568,3.568,0,0,1-.627,2.148,3.905,3.905,0,0,1-1.522,1.432,4.708,4.708,0,0,1-2.327.537H112.8Zm3.491,6.892a2.743,2.743,0,0,0,1.522-.358,3.815,3.815,0,0,0,1.074-.985A2.743,2.743,0,0,0,119.249,18a2.743,2.743,0,0,0-.358-1.522,2.278,2.278,0,0,0-1.074-.985,2.942,2.942,0,0,0-1.522-.358h-1.969v5.549H116.3Z" transform="translate(-4.502 -1.438)" fill="#042468"/>
    </g>
  </g>
</svg>
