<svg id="log3" xmlns="http://www.w3.org/2000/svg" width="63.733" height="32.726" viewBox="0 0 63.733 32.726">
  <g id="Logo-2-white-medium-01" transform="translate(0)">
    <g id="Logo-example-3">
      <path id="MONOGRAMS" d="M.164,38.536c-.082,0-.164,0-.164-.082V32.727c0-.082,0-.164.082-.164.082-.082.082-.082.164-.082H.982c.164,0,.164.082.245.164l1.636,3.109L4.5,32.645c.082-.164.164-.164.245-.164H5.4c.082,0,.164,0,.164.082.082.082.082.082.082.164v5.645c0,.082,0,.164-.082.164,0,.082-.082.082-.164.082H4.745c-.082,0-.164,0-.164-.082-.082-.082-.082-.082-.082-.164V34.691L3.273,36.982c-.082.164-.164.164-.245.164H2.618c-.164,0-.164-.082-.245-.164L1.145,34.691v3.682c0,.082,0,.164-.082.164a.253.253,0,0,1-.164.082H.164Zm10.309.082a2.728,2.728,0,0,1-1.882-.573,2.134,2.134,0,0,1-.655-1.8V34.773A2.264,2.264,0,0,1,10.472,32.4a2.511,2.511,0,0,1,1.8.573,2.447,2.447,0,0,1,.736,1.8v1.473a2.411,2.411,0,0,1-.655,1.8A2.868,2.868,0,0,1,10.472,38.618Zm0-.982a1.489,1.489,0,0,0,.9-.327,1.632,1.632,0,0,0,.327-1.064V34.773a1.413,1.413,0,0,0-.409-1.064,1.117,1.117,0,0,0-.9-.327,1.489,1.489,0,0,0-.9.327,1.822,1.822,0,0,0-.327,1.064v1.473a1.822,1.822,0,0,0,.327,1.064A1.754,1.754,0,0,0,10.472,37.636Zm4.991.9c-.082,0-.164,0-.164-.082-.082-.082-.082-.082-.082-.164V32.645c0-.082,0-.164.082-.164.082-.082.082-.082.164-.082h.655c.164,0,.164.082.245.164l2.454,3.845V32.645c0-.082,0-.164.082-.164.082-.082.082-.082.164-.082H19.8c.082,0,.164,0,.164.082.082.082.082.082.082.164v5.645c0,.082,0,.164-.082.164a.08.08,0,0,1-.082.082h-.655c-.164,0-.164-.082-.245-.164l-2.454-3.682v3.682c0,.082,0,.164-.082.164h-.982Zm9.327.082a2.728,2.728,0,0,1-1.882-.573,2.134,2.134,0,0,1-.655-1.8V34.773A2.264,2.264,0,0,1,24.79,32.4a2.511,2.511,0,0,1,1.8.573,2.815,2.815,0,0,1,.736,1.8v1.473a2.411,2.411,0,0,1-.655,1.8A2.728,2.728,0,0,1,24.79,38.618Zm0-.982a1.489,1.489,0,0,0,.9-.327c.245-.164.327-.573.327-1.064V34.773a1.413,1.413,0,0,0-.409-1.064,1.019,1.019,0,0,0-.9-.327,1.489,1.489,0,0,0-.9.327c-.245.164-.327.573-.327,1.064v1.473a1.822,1.822,0,0,0,.327,1.064A1.428,1.428,0,0,0,24.79,37.636Zm7.2.982a2.728,2.728,0,0,1-1.882-.573,2.4,2.4,0,0,1-.736-1.718V34.691a1.951,1.951,0,0,1,.736-1.636,2.728,2.728,0,0,1,1.882-.573,3.822,3.822,0,0,1,1.391.245,2.564,2.564,0,0,1,.9.655,1.454,1.454,0,0,1,.327.818c0,.082,0,.082-.082.164s-.082.082-.164.082h-.9c-.082,0-.164,0-.164-.082a.286.286,0,0,1-.082-.164c-.082-.164-.164-.409-.409-.491a1.226,1.226,0,0,0-.818-.164,1.308,1.308,0,0,0-.9.327,1.383,1.383,0,0,0-.327.982v1.473a1.822,1.822,0,0,0,.327,1.064,1.308,1.308,0,0,0,.9.327,1.754,1.754,0,0,0,.982-.327,1.116,1.116,0,0,0,.409-.982v-.245H32.153c-.082,0-.164,0-.164-.082-.082-.082-.082-.082-.082-.164v-.573c0-.082,0-.164.082-.164.082-.082.082-.082.164-.082H34.2c.082,0,.164,0,.164.082.082.082.082.082.082.164v.9a2.71,2.71,0,0,1-.327,1.227,2.215,2.215,0,0,1-.9.818A1.829,1.829,0,0,1,31.989,38.618Zm4.991-.082c-.082,0-.164,0-.164-.082-.082-.082-.082-.082-.082-.164V32.645c0-.082,0-.164.082-.164.082-.082.082-.082.164-.082h2.291a2.443,2.443,0,0,1,1.636.491,1.685,1.685,0,0,1,.573,1.391,2.046,2.046,0,0,1-.327,1.064,1.447,1.447,0,0,1-.9.573l1.227,2.209v.082c0,.082,0,.082-.082.164.082.164,0,.164-.082.164H40.5c-.082,0-.164,0-.164-.082s-.082-.082-.164-.164l-1.145-2.045H37.8v2.045c0,.082,0,.164-.082.164,0,.164-.082.164-.164.164H36.98Zm2.291-3.273a2.42,2.42,0,0,0,.818-.164,1,1,0,0,0,0-1.309,1.086,1.086,0,0,0-.818-.245H38.044v1.8h1.227Zm4.091,3.273c-.082,0-.082,0-.164-.082s-.082-.082-.082-.164v-.082l2.045-5.563c.082-.164.164-.164.327-.164h.9a.425.425,0,0,1,.327.164l2.045,5.563v.082c0,.082,0,.082-.082.164.082.082,0,.082-.082.082H47.78c-.164,0-.164-.082-.245-.164l-.409-1.064H44.589l-.409,1.064c-.082.164-.164.164-.245.164Zm1.718-2.209h1.964L45.98,33.709Zm5.972,2.209c-.082,0-.164,0-.164-.082-.082-.082-.082-.082-.082-.164V32.645c0-.082,0-.164.082-.164.082-.082.082-.082.164-.082h.736c.164,0,.164.082.245.164l1.636,3.109,1.636-3.109c.082-.164.164-.164.245-.164h.655c.082,0,.164,0,.164.082.082.082.082.082.082.164v5.645c0,.082,0,.164-.082.164,0,.082-.082.082-.164.082H55.47c-.082,0-.164,0-.164-.082-.082-.082-.082-.082-.082-.164V34.609L54,36.9c-.082.164-.164.164-.245.164h-.409c-.164,0-.164-.082-.245-.164L51.87,34.609v3.682c0,.082,0,.164-.082.164a.253.253,0,0,1-.164.082Zm9.981.082a3.392,3.392,0,0,1-1.309-.245,2.437,2.437,0,0,1-.9-.573,2.45,2.45,0,0,1-.327-.818c0-.082,0-.082.082-.164s.082-.082.164-.082h.818c.082,0,.164,0,.164.082.082,0,.082.082.164.164a1.091,1.091,0,0,0,.409.491,1.485,1.485,0,0,0,.9.164,2.189,2.189,0,0,0,.9-.164c.164-.164.327-.327.327-.491s-.082-.245-.164-.409a.933.933,0,0,0-.491-.245,4.342,4.342,0,0,0-.9-.245,3.551,3.551,0,0,1-1.473-.655,1.373,1.373,0,0,1-.491-1.145,1.649,1.649,0,0,1,.245-.9,1.5,1.5,0,0,1,.818-.573,2.794,2.794,0,0,1,1.227-.164,2.732,2.732,0,0,1,1.227.245,7.077,7.077,0,0,1,.818.573,1.32,1.32,0,0,1,.245.736c0,.082,0,.082-.082.164s-.082.082-.164.082h-.818c-.164,0-.164-.082-.245-.164,0-.164-.164-.327-.327-.491a1.1,1.1,0,0,0-.736-.164,1.634,1.634,0,0,0-.736.164.583.583,0,0,0-.245.491c0,.164.082.245.164.409s.245.164.491.245a4.341,4.341,0,0,0,.9.245,10.7,10.7,0,0,1,1.227.409,4.539,4.539,0,0,1,.655.491c.164.164.164.491.164.9a1.754,1.754,0,0,1-.327.982,1.447,1.447,0,0,1-.9.573C62.015,38.536,61.606,38.618,61.033,38.618Z" transform="translate(0 -5.892)" fill="#042468"/>
      <g id="Group-2" transform="translate(0.409)">
        <path id="Fill-12" d="M20.327,21.681h6.3L17.218,0H11l9.327,21.681" transform="translate(-1.591)" fill="#042468"/>
        <path id="Fill-14" d="M5.718,21.681H-.5L8.827,0h6.3L5.718,21.681" transform="translate(0.5)" fill="#042468"/>
        <path id="Fill-15" d="M43.427,21.681h6.218L40.318,0H34.1l9.327,21.681" transform="translate(-5.792)" fill="#042468"/>
        <path id="Fill-17" d="M28.8,21.681H22.5L31.909,0h6.218L28.8,21.681" transform="translate(-3.683)" fill="#042468"/>
        <path id="Fill-18" d="M66.409,21.681h6.218L63.218,0H57l9.409,21.681" transform="translate(-9.957)" fill="#042468"/>
        <path id="Fill-20" d="M51.718,21.681H45.5L54.827,0h6.3L51.718,21.681" transform="translate(-7.865)" fill="#042468"/>
      </g>
    </g>
  </g>
</svg>
