<svg id="log3-w" xmlns="http://www.w3.org/2000/svg" width="39.318" height="19.97" viewBox="0 0 39.318 19.97">
  <g id="Logo-2-white-medium-01" transform="translate(0)">
    <g id="Logo-example-3">
      <path id="MONOGRAMS" d="M.1,36.185c-.05,0-.1,0-.1-.05V32.6c0-.05,0-.1.05-.1.05-.05.05-.05.1-.05H.606c.1,0,.1.05.151.1l1.009,1.918,1.009-1.918c.05-.1.1-.1.151-.1h.4c.05,0,.1,0,.1.05.05.05.05.05.05.1v3.483c0,.05,0,.1-.05.1,0,.05-.05.05-.1.05h-.4c-.05,0-.1,0-.1-.05-.05-.05-.05-.05-.05-.1V33.813l-.757,1.413c-.05.1-.1.1-.151.1H1.615c-.1,0-.1-.05-.151-.1L.707,33.813v2.271c0,.05,0,.1-.05.1a.156.156,0,0,1-.1.05H.1Zm6.359.05A1.683,1.683,0,0,1,5.3,35.883a1.316,1.316,0,0,1-.4-1.11v-.908A1.4,1.4,0,0,1,6.46,32.4a1.549,1.549,0,0,1,1.11.353,1.509,1.509,0,0,1,.454,1.11v.908a1.487,1.487,0,0,1-.4,1.11A1.769,1.769,0,0,1,6.46,36.236Zm0-.606a.919.919,0,0,0,.555-.2,1.007,1.007,0,0,0,.2-.656v-.908a.872.872,0,0,0-.252-.656.689.689,0,0,0-.555-.2.919.919,0,0,0-.555.2,1.124,1.124,0,0,0-.2.656v.908a1.124,1.124,0,0,0,.2.656A1.082,1.082,0,0,0,6.46,35.63Zm3.079.555c-.05,0-.1,0-.1-.05-.05-.05-.05-.05-.05-.1V32.551c0-.05,0-.1.05-.1.05-.05.05-.05.1-.05h.4c.1,0,.1.05.151.1l1.514,2.372V32.551c0-.05,0-.1.05-.1.05-.05.05-.05.1-.05h.454c.05,0,.1,0,.1.05.05.05.05.05.05.1v3.483c0,.05,0,.1-.05.1a.049.049,0,0,1-.05.05h-.4c-.1,0-.1-.05-.151-.1L10.2,33.813v2.271c0,.05,0,.1-.05.1H9.539Zm5.754.05a1.683,1.683,0,0,1-1.161-.353,1.316,1.316,0,0,1-.4-1.11v-.908A1.4,1.4,0,0,1,15.293,32.4a1.549,1.549,0,0,1,1.11.353,1.736,1.736,0,0,1,.454,1.11v.908a1.487,1.487,0,0,1-.4,1.11A1.683,1.683,0,0,1,15.293,36.236Zm0-.606a.919.919,0,0,0,.555-.2c.151-.1.2-.353.2-.656v-.908a.872.872,0,0,0-.252-.656.629.629,0,0,0-.555-.2.919.919,0,0,0-.555.2c-.151.1-.2.353-.2.656v.908a1.124,1.124,0,0,0,.2.656A.881.881,0,0,0,15.293,35.63Zm4.442.606a1.683,1.683,0,0,1-1.161-.353,1.477,1.477,0,0,1-.454-1.06V33.813a1.2,1.2,0,0,1,.454-1.009,1.683,1.683,0,0,1,1.161-.353,2.358,2.358,0,0,1,.858.151,1.582,1.582,0,0,1,.555.4.9.9,0,0,1,.2.5c0,.05,0,.05-.05.1s-.05.05-.1.05h-.555c-.05,0-.1,0-.1-.05a.176.176,0,0,1-.05-.1c-.05-.1-.1-.252-.252-.3a.756.756,0,0,0-.5-.1.807.807,0,0,0-.555.2.853.853,0,0,0-.2.606v.908a1.124,1.124,0,0,0,.2.656.807.807,0,0,0,.555.2,1.082,1.082,0,0,0,.606-.2.688.688,0,0,0,.252-.606v-.151h-.757c-.05,0-.1,0-.1-.05-.05-.05-.05-.05-.05-.1v-.353c0-.05,0-.1.05-.1.05-.05.05-.05.1-.05H21.1c.05,0,.1,0,.1.05.05.05.05.05.05.1v.555a1.672,1.672,0,0,1-.2.757,1.366,1.366,0,0,1-.555.5A1.128,1.128,0,0,1,19.734,36.236Zm3.079-.05c-.05,0-.1,0-.1-.05-.05-.05-.05-.05-.05-.1V32.551c0-.05,0-.1.05-.1.05-.05.05-.05.1-.05h1.413a1.507,1.507,0,0,1,1.009.3,1.04,1.04,0,0,1,.353.858,1.262,1.262,0,0,1-.2.656.893.893,0,0,1-.555.353l.757,1.363v.05c0,.05,0,.05-.05.1.05.1,0,.1-.05.1h-.5c-.05,0-.1,0-.1-.05s-.05-.05-.1-.1l-.707-1.262h-.757v1.262c0,.05,0,.1-.05.1,0,.1-.05.1-.1.1h-.353Zm1.413-2.019a1.493,1.493,0,0,0,.5-.1.614.614,0,0,0,0-.808.67.67,0,0,0-.5-.151h-.757v1.11h.757Zm2.524,2.019c-.05,0-.05,0-.1-.05s-.05-.05-.05-.1v-.05l1.262-3.432c.05-.1.1-.1.2-.1h.555a.262.262,0,0,1,.2.1l1.262,3.432v.05c0,.05,0,.05-.05.1.05.05,0,.05-.05.05h-.5c-.1,0-.1-.05-.151-.1l-.252-.656H27.507l-.252.656c-.05.1-.1.1-.151.1Zm1.06-1.363h1.211l-.656-1.615Zm3.684,1.363c-.05,0-.1,0-.1-.05-.05-.05-.05-.05-.05-.1V32.551c0-.05,0-.1.05-.1.05-.05.05-.05.1-.05h.454c.1,0,.1.05.151.1l1.009,1.918L34.119,32.5c.05-.1.1-.1.151-.1h.4c.05,0,.1,0,.1.05.05.05.05.05.05.1v3.483c0,.05,0,.1-.05.1,0,.05-.05.05-.1.05H34.22c-.05,0-.1,0-.1-.05-.05-.05-.05-.05-.05-.1V33.763l-.757,1.413c-.05.1-.1.1-.151.1h-.252c-.1,0-.1-.05-.151-.1L32,33.763v2.271c0,.05,0,.1-.05.1a.156.156,0,0,1-.1.05Zm6.158.05a2.092,2.092,0,0,1-.808-.151.98.98,0,0,1-.757-.858c0-.05,0-.05.05-.1s.05-.05.1-.05h.5c.05,0,.1,0,.1.05.05,0,.05.05.1.1a.673.673,0,0,0,.252.3.916.916,0,0,0,.555.1,1.351,1.351,0,0,0,.555-.1c.1-.1.2-.2.2-.3s-.05-.151-.1-.252a.576.576,0,0,0-.3-.151,2.679,2.679,0,0,0-.555-.151,2.19,2.19,0,0,1-.908-.4.847.847,0,0,1-.3-.707,1.017,1.017,0,0,1,.151-.555.926.926,0,0,1,.5-.353,1.724,1.724,0,0,1,.757-.1,1.685,1.685,0,0,1,.757.151,4.366,4.366,0,0,1,.5.353.814.814,0,0,1,.151.454c0,.05,0,.05-.05.1s-.05.05-.1.05h-.5c-.1,0-.1-.05-.151-.1,0-.1-.1-.2-.2-.3a.679.679,0,0,0-.454-.1,1.008,1.008,0,0,0-.454.1.36.36,0,0,0-.151.3c0,.1.05.151.1.252s.151.1.3.151a2.678,2.678,0,0,0,.555.151,6.6,6.6,0,0,1,.757.252,2.8,2.8,0,0,1,.4.3c.1.1.1.3.1.555a1.082,1.082,0,0,1-.2.606.893.893,0,0,1-.555.353C38.258,36.185,38.005,36.236,37.652,36.236Z" transform="translate(0 -16.265)" fill="#fff"/>
      <g id="Group-2" transform="translate(0.252)">
        <path id="Fill-12" d="M16.754,13.375H20.64L14.836,0H11l5.754,13.375" transform="translate(-5.196)" fill="#fff"/>
        <path id="Fill-14" d="M3.336,13.375H-.5L5.254,0H9.14l-5.8,13.375" transform="translate(0.5)" fill="#fff"/>
        <path id="Fill-15" d="M39.854,13.375H43.69L37.936,0H34.1l5.754,13.375" transform="translate(-16.637)" fill="#fff"/>
        <path id="Fill-17" d="M26.386,13.375H22.5L28.3,0H32.14L26.386,13.375" transform="translate(-10.891)" fill="#fff"/>
        <path id="Fill-18" d="M62.8,13.375H66.64L60.836,0H57l5.8,13.375" transform="translate(-27.979)" fill="#fff"/>
        <path id="Fill-20" d="M49.336,13.375H45.5L51.254,0H55.14l-5.8,13.375" transform="translate(-22.283)" fill="#fff"/>
      </g>
    </g>
  </g>
</svg>
