<svg id="log4" xmlns="http://www.w3.org/2000/svg" width="110.652" height="32.389" viewBox="0 0 110.652 32.389">
  <g id="Logo-6-white-small-01">
    <g id="Logo-example-16_1_">
      <path id="Combined-Shape_1_" d="M44.022,16.306c-.115,0-.115,0-.231-.115s-.115-.115-.115-.231V7.546c0-.115,0-.115.115-.231s.115-.115.231-.115h3.688a3.442,3.442,0,0,1,2.305.692,2.346,2.346,0,0,1,.692,1.729,1.947,1.947,0,0,1-.346,1.153c-.231.231-.461.576-.807.692a2.05,2.05,0,0,1,.922.807,2.323,2.323,0,0,1,.346,1.268,2.528,2.528,0,0,1-.807,1.959,3.442,3.442,0,0,1-2.305.692l-3.688.115ZM47.48,11a2.3,2.3,0,0,0,1.037-.231,1.046,1.046,0,0,0,.346-.807.9.9,0,0,0-.346-.807c-.231-.231-.576-.231-1.037-.231H45.521v2.305C45.521,11,47.48,11,47.48,11Zm.115,3.919a1.409,1.409,0,0,0,1.037-.346,1.309,1.309,0,0,0,.346-.922,1.242,1.242,0,0,0-.231-.922,1.409,1.409,0,0,0-1.037-.346h-2.19v2.536Zm7.377,1.383c-.115,0-.115,0-.231-.115s-.115-.115-.115-.231V7.546c0-.115,0-.115.115-.231s.115-.115.231-.115H60.62c.115,0,.115,0,.231.115s.115.115.115.231v.807c0,.115,0,.115-.115.231s-.115.115-.231.115H56.355v2.19h3.919c.115,0,.115,0,.231.115s.115.115.115.231v.807c0,.115,0,.115-.115.231s-.115.115-.231.115H56.355v2.305H60.62c.115,0,.115,0,.231.115s.115.115.115.231v.807c0,.115,0,.115-.115.231,0,.231-.115.231-.115.231Zm9.336,0c-.115,0-.115,0-.231-.115s-.115-.115-.115-.231v-.115l3.112-8.3c.115-.231.231-.231.461-.231h1.383a.6.6,0,0,1,.461.231l3.112,8.3v.115c0,.115,0,.115-.115.231s-.115.115-.231.115H70.994c-.231,0-.231-.115-.346-.231l-.576-1.614h-3.8l-.576,1.614c-.115.115-.231.231-.346.231Zm2.536-3.343h2.882L68.343,9.044Zm12.448,3.458a4.164,4.164,0,0,1-2.766-.807,3.367,3.367,0,0,1-.922-2.766v-5.3c0-.115,0-.115.115-.231s.115-.115.231-.115h1.268c.115,0,.115,0,.231.115s.115.115.115.231v5.187c0,.692.115,1.268.461,1.5a2.305,2.305,0,0,0,2.766,0,1.956,1.956,0,0,0,.461-1.5V7.546c0-.115,0-.115.115-.231s.115-.115.231-.115h1.268c.115,0,.115,0,.231.115s.115.115.115.231v5.187a3.516,3.516,0,0,1-.922,2.766A4.251,4.251,0,0,1,79.293,16.421Zm10.028-.115c-.115,0-.115,0-.231-.115s-.115-.115-.115-.231V8.929H86.669c-.115,0-.115,0-.231-.115s-.115-.115-.115-.231V7.546c0-.115,0-.115.115-.231s.115-.115.231-.115h6.57c.115,0,.115,0,.231.115s.115.115.115.231v.922c0,.115,0,.115-.115.231s-.115.115-.231.115H90.934v7.031c0,.115,0,.115-.115.231s-.115.115-.231.115H89.32v.115Zm10.258,0c-.115,0-.115,0-.231-.115s-.115-.115-.115-.231V13.078l-3.112-5.3a.113.113,0,0,0-.115-.115c0-.115,0-.115.115-.231s.115-.115.231-.115H97.5c.115,0,.231.115.461.231l2.19,3.688,2.19-3.688a.113.113,0,0,1,.115-.115c.115-.115.115-.115.231-.115h1.153c.115,0,.115,0,.231.115v.115c0,.115,0,.115-.115.115l-3,5.3v2.882c0,.115,0,.115-.115.231s-.115.115-.231.115H99.579ZM46.673,30.714a4.458,4.458,0,0,1-3.112-1.153,2.434,2.434,0,0,1-.461-1.153c0-.115,0-.115.115-.231s.115-.115.231-.115h.692c.115,0,.231.115.346.231a1.339,1.339,0,0,0,.692.922,2.789,2.789,0,0,0,1.614.346,2.789,2.789,0,0,0,1.614-.346,1.375,1.375,0,0,0,.576-1.037,1.638,1.638,0,0,0-.231-.692c-.115-.231-.461-.346-.807-.461s-.807-.231-1.614-.461a8.267,8.267,0,0,1-1.614-.576,1.816,1.816,0,0,1-.807-.807c-.231-.231-.231-.692-.231-1.268a2.627,2.627,0,0,1,.346-1.268,2.324,2.324,0,0,1,1.037-.807,3.663,3.663,0,0,1,1.614-.231,4.211,4.211,0,0,1,1.729.346,2.51,2.51,0,0,1,1.037.807A4.094,4.094,0,0,1,49.9,23.8c0,.115,0,.115-.115.231s-.115.115-.231.115h-.692c-.115,0-.115,0-.231-.115s-.115-.115-.115-.231a1.339,1.339,0,0,0-.692-.922,2.939,2.939,0,0,0-2.766,0,1.124,1.124,0,0,0-.461,1.037,1.236,1.236,0,0,0,.231.692c.115.231.461.346.692.461.346.115.807.231,1.383.461a13.417,13.417,0,0,1,1.729.692,2.135,2.135,0,0,1,.922.807,1.9,1.9,0,0,1,.231,1.153,1.978,1.978,0,0,1-.922,1.844C48.517,30.483,47.826,30.714,46.673,30.714Zm9.452-.115c-.115,0-.115,0-.231-.115s-.115-.115-.115-.231V22.645H53.358c-.115,0-.115,0-.231-.115s-.115-.115-.115-.231v-.461c0-.115,0-.115.115-.231s.115-.115.231-.115h6.109c.115,0,.115,0,.231.115s.115.115.115.231V22.3c0,.115,0,.115-.115.231s-.115.115-.231.115H56.932v7.607c0,.115,0,.115-.115.231,0,.115-.115.115-.231.115Zm10.6.115a3.149,3.149,0,0,1-2.536-.922,3.516,3.516,0,0,1-.922-2.766V21.838c0-.115,0-.115.115-.231s.115-.115.231-.115h.692c.115,0,.115,0,.231.115s.115.115.115.231v5.187a2.707,2.707,0,0,0,.576,1.844,2.228,2.228,0,0,0,3.227,0,2.933,2.933,0,0,0,.576-1.844V21.838c0-.115,0-.115.115-.231s.115-.115.231-.115h.692c.115,0,.115,0,.231.115s.115.115.115.231v5.187a3.367,3.367,0,0,1-.922,2.766A4.206,4.206,0,0,1,66.729,30.714ZM74.8,30.6c-.115,0-.115,0-.231-.115s-.115-.115-.115-.231V21.838c0-.115,0-.115.115-.231s.115-.115.231-.115h2.882a3.787,3.787,0,0,1,2.766.807,3.486,3.486,0,0,1,.807,2.651v2.075a4.593,4.593,0,0,1-.346,1.959,3.663,3.663,0,0,1-1.153,1.153,5.182,5.182,0,0,1-2.075.346A23.147,23.147,0,0,1,74.8,30.6Zm3-1.153a4.3,4.3,0,0,0,1.383-.231,1.816,1.816,0,0,0,.807-.807,4.3,4.3,0,0,0,.231-1.383V25.066a2.269,2.269,0,0,0-.692-1.844c-.346-.461-1.037-.576-1.959-.576H75.6v6.8ZM85.863,30.6c-.115,0-.115,0-.231-.115s-.115-.115-.115-.231V21.838c0-.115,0-.115.115-.231s.115-.115.231-.115h.692c.115,0,.115,0,.231.115s.115.115.115.231v8.414c0,.115,0,.115-.115.231s-.115.115-.231.115Zm8.414.115a3.363,3.363,0,0,1-2.536-.807,3.255,3.255,0,0,1-.922-2.651V25.181a3.307,3.307,0,0,1,1.037-2.651,3.8,3.8,0,0,1,2.536-.922,3.149,3.149,0,0,1,2.536.922,3.954,3.954,0,0,1,1.037,2.651v2.075a3.5,3.5,0,0,1-.922,2.651A4.918,4.918,0,0,1,94.277,30.714Zm0-1.037a1.934,1.934,0,0,0,1.614-.692,2.534,2.534,0,0,0,.692-1.959V24.951a2.711,2.711,0,0,0-.692-1.959,2.093,2.093,0,0,0-1.614-.692,1.934,1.934,0,0,0-1.614.692,2.534,2.534,0,0,0-.692,1.959v2.075a2.711,2.711,0,0,0,.692,1.959A2.276,2.276,0,0,0,94.277,29.676Z" transform="translate(6.578 -3.742)" fill="#042468"/>
      <g id="XMLID_1_">
        <path id="XMLID_4_" d="M41.786,36.589,38.9,30.71,25.879,4.2H23L35.562,29.673H33.026L20.577,4.315,6.4,32.094l5.648.115,20.286.115h4.5L38.9,36.589ZM10.549,29.558,20.577,9.963l1.383,2.766L13.431,29.673Zm5.648,0,7.146-13.947,6.916,14.062Z" transform="translate(0.977 -4.2)" fill="#042468"/>
        <path id="XMLID_3_" d="M19.018,4.2H16.252L0,36.243l2.882.115,1.268-2.651h0Z" transform="translate(0 -4.2)" fill="#042468"/>
        <path id="XMLID_2_" d="M5.983,29.8,4.6,32.451l32.158.115L35.49,30.031Z" transform="translate(0.702 -0.293)" fill="#042468"/>
      </g>
    </g>
  </g>
</svg>
