<svg id="log4-w" xmlns="http://www.w3.org/2000/svg" width="71.783" height="19.605" viewBox="0 0 71.783 19.605">
  <g id="Logo-7-white-small-01">
    <g id="Logo-example-5">
      <g id="Group-6">
        <path id="Fill-1" d="M29.206,31.556a2.859,2.859,0,0,1-1.933-.773A2.54,2.54,0,0,1,26.5,28.85a2.629,2.629,0,0,1,.773-1.877,2.759,2.759,0,0,1,1.933-.773,2.859,2.859,0,0,1,1.933.773,2.7,2.7,0,0,1,0,3.81,2.859,2.859,0,0,1-1.933.773" transform="translate(-11.867 -11.951)" fill="#fff"/>
        <path id="Fill-3" d="M2.706,5.556A2.859,2.859,0,0,1,.773,4.783,2.859,2.859,0,0,1,0,2.85,2.629,2.629,0,0,1,.773.973,2.759,2.759,0,0,1,2.706.2,2.629,2.629,0,0,1,4.583.973a2.759,2.759,0,0,1,.773,1.933,2.622,2.622,0,0,1-.773,1.933,2.727,2.727,0,0,1-1.877.718" transform="translate(0 -0.09)" fill="#fff"/>
        <path id="Fill-5" d="M28.994,5.411a2.859,2.859,0,0,1-1.933-.773,2.7,2.7,0,0,1,0-3.81A2.59,2.59,0,0,1,28.994,0a2.859,2.859,0,0,1,1.933.773,2.7,2.7,0,0,1,0,3.81,2.679,2.679,0,0,1-1.933.828" transform="translate(-11.767)" fill="#fff"/>
        <path id="Fill-7" d="M2.906,25.69a2.859,2.859,0,0,1-1.933-.773A2.54,2.54,0,0,1,.2,22.984a2.859,2.859,0,0,1,.773-1.933,2.4,2.4,0,0,1,.387-.331c.055-.055.055-.055.11-.055.055-.055.221-.11.276-.166a.2.2,0,0,1,.166-.055c.055-.055.221-.055.331-.055h.11l.607-.055a.332.332,0,0,1,.221.055h.331a3.98,3.98,0,0,0,2.816-1.215,3.739,3.739,0,0,0,1.1-2.816v-.5l.055-.607v-.11c.055-.11.055-.221.11-.331a.2.2,0,0,0,.055-.166c.055-.11.055-.221.166-.276.055-.055.055-.055.055-.11a2.4,2.4,0,0,1,.331-.387,2.759,2.759,0,0,1,1.933-.773,2.859,2.859,0,0,1,1.933.773,2.7,2.7,0,0,1,0,3.81,2.4,2.4,0,0,1-.387.331H11.63c-.055.055-.221.11-.276.166a.2.2,0,0,1-.166.055.7.7,0,0,1-.331.055h-.11l-.607.055a.332.332,0,0,1-.221-.055H9.532a3.98,3.98,0,0,0-2.816,1.215,3.739,3.739,0,0,0-1.1,2.816v.442h0l-.055.552L5.5,23.37a.7.7,0,0,0-.055.331.2.2,0,0,0-.055.166c-.055.11-.055.221-.166.276-.055.055-.055.055-.055.11a.75.75,0,0,1-.331.442,2.331,2.331,0,0,1-1.933.994Z" transform="translate(-0.09 -6.085)" fill="#fff"/>
        <path id="Fill-9" d="M16.006,25.779a2.859,2.859,0,0,1-1.933-.773,2.759,2.759,0,0,1-.773-1.933,2.629,2.629,0,0,1,.773-1.877,2.4,2.4,0,0,1,.387-.331c.055-.055.055-.055.11-.055.055-.055.221-.11.276-.166a.2.2,0,0,1,.166-.055c.055-.055.221-.055.331-.055a.193.193,0,0,1,.11-.055l.607-.055a.332.332,0,0,1,.221.055h.331a3.98,3.98,0,0,0,2.816-1.215,3.739,3.739,0,0,0,1.1-2.816v-.11h0v-.276l.055-.607a.193.193,0,0,0,.055-.11.7.7,0,0,0,.055-.331c0-.055.055-.11.055-.166.055-.055.055-.221.166-.276h0c.055-.055.055-.055.055-.11a2.4,2.4,0,0,1,.331-.387,2.759,2.759,0,0,1,1.933-.773,2.859,2.859,0,0,1,1.933.773,2.7,2.7,0,0,1,0,3.81,2.4,2.4,0,0,1-.387.331c0-.11,0-.11-.055-.11l-.055.055c-.055.055-.221.11-.276.166a.2.2,0,0,1-.166.055c-.055.055-.221.055-.331.055h-.11l-.607.055c-.055,0-.221,0-.276-.055h-.276a3.98,3.98,0,0,0-2.816,1.215,3.739,3.739,0,0,0-1.1,2.816v.387l-.055.663v.11a.7.7,0,0,0-.055.331c0,.055-.055.055-.055.166h0c-.055.055-.055.221-.166.276-.055.055-.055.055-.055.11a2.4,2.4,0,0,1-.331.387,2.736,2.736,0,0,1-1.988.883" transform="translate(-5.956 -6.174)" fill="#fff"/>
        <path id="Fill-11" d="M2.906,12.534a2.859,2.859,0,0,1-1.933-.773A2.759,2.759,0,0,1,.2,9.829,2.629,2.629,0,0,1,.973,7.951,1.124,1.124,0,0,1,1.36,7.62c.055-.055.055-.055.11-.055.055-.055.221-.11.276-.166a.2.2,0,0,1,.166-.055.477.477,0,0,1,.331-.166h.718a.332.332,0,0,1,.221.055h.331A3.98,3.98,0,0,0,6.329,6.019,3.739,3.739,0,0,0,7.433,3.2V3.147h0V2.706l.055-.552h0L7.544,2.1A.94.94,0,0,0,7.6,1.712c0-.055.055-.11.055-.166.055-.055.055-.221.166-.276h0c.055-.055.055-.055.055-.11A2.4,2.4,0,0,1,8.207.773,3,3,0,0,1,10.194,0a2.859,2.859,0,0,1,1.933.773,2.7,2.7,0,0,1,0,3.81,2.4,2.4,0,0,1-.387.331c-.055.055-.11.055-.11.11h0c-.055.055-.221.11-.276.166a.2.2,0,0,1-.166.055.7.7,0,0,1-.331.055h-.11l-.607.055A.332.332,0,0,1,9.918,5.3H9.587A3.98,3.98,0,0,0,6.771,6.516a3.739,3.739,0,0,0-1.1,2.816v.055h0v.276l-.11.607v.11a.7.7,0,0,0-.055.331c0,.055-.055.11-.055.166-.055.055-.055.221-.166.276-.055.055-.055.055-.055.11a2.4,2.4,0,0,1-.331.387,2.736,2.736,0,0,1-1.988.883" transform="translate(-0.09)" fill="#fff"/>
      </g>
      <path id="TechBrand" d="M44.446,14.97H42.9v-1.1h4.473v1.1H45.827v3.92H44.391l.055-3.92Zm7.51,2.816v1.1H47.925V13.866H51.9v1.1H49.36V15.8h2.264v1.1H49.36v.939l2.6-.055ZM55.324,19a3.222,3.222,0,0,1-1.436-.331,2.054,2.054,0,0,1-.994-.939,2.7,2.7,0,0,1-.387-1.38,2.372,2.372,0,0,1,.387-1.38,2.339,2.339,0,0,1,.994-.939,3.057,3.057,0,0,1,1.436-.331,2.658,2.658,0,0,1,1.215.221,2.38,2.38,0,0,1,.939.718l-.939.828a1.556,1.556,0,0,0-1.933-.442,1.083,1.083,0,0,0-.5.5,3.249,3.249,0,0,0-.11.939,1.949,1.949,0,0,0,.166.773,1.084,1.084,0,0,0,.5.5,1.556,1.556,0,0,0,1.933-.442l.939.828a2.047,2.047,0,0,1-.939.718A3.221,3.221,0,0,1,55.324,19Zm7.565-5.135V18.89H61.453V16.9H59.52V18.89H58.085V13.866H59.52v1.877h1.988V13.866Zm4.749,2.374a1.1,1.1,0,0,1,.663.442,1.268,1.268,0,0,1,.221.773,1.115,1.115,0,0,1-.5.994,2.676,2.676,0,0,1-1.491.387H64.048v-4.97h2.374a2.058,2.058,0,0,1,1.38.387,1.155,1.155,0,0,1,.5.939,1.312,1.312,0,0,1-.166.663A1.522,1.522,0,0,1,67.637,16.24Zm-2.65-1.657v1.38h1.325a1.6,1.6,0,0,0,.773-.166.58.58,0,0,0,.276-.5.483.483,0,0,0-.276-.5,1.6,1.6,0,0,0-.773-.166l-1.325-.055Zm1.546,3.589c.718,0,1.1-.221,1.1-.718s-.387-.718-1.1-.718H64.987v1.436Zm6.35.718L71.834,17.4h-1.38V18.89h-.939V13.866h2.1a2.716,2.716,0,0,1,1.16.221,2.9,2.9,0,0,1,.773.607,1.815,1.815,0,0,1,.221.939,1.357,1.357,0,0,1-.276.939,2.106,2.106,0,0,1-.773.607l1.16,1.657h-.994Zm-.055-3.258a1,1,0,0,0-.331-.773c-.221-.221-.5-.221-.939-.221h-1.1v1.988h1.1a1.276,1.276,0,0,0,.939-.276A.759.759,0,0,0,72.828,15.633Zm5.246,2.1h-2.54l-.5,1.16H74.1l2.264-5.025H77.3l2.264,5.025h-.939Zm-.276-.773-.939-2.209-.939,2.209Zm6.9-3.092V18.89h-.773l-2.761-3.423V18.89h-.939V13.866H81l2.761,3.423V13.866Zm1.325,0h2.209a3.222,3.222,0,0,1,1.436.331,2.086,2.086,0,0,1,.939.883,2.659,2.659,0,0,1,.387,1.325,2.2,2.2,0,0,1-.387,1.325,2.409,2.409,0,0,1-.939.883,2.9,2.9,0,0,1-1.436.331H86.025Zm2.153,4.252a1.692,1.692,0,0,0,.939-.221,2.354,2.354,0,0,0,.663-.607A1.692,1.692,0,0,0,90,16.35a1.692,1.692,0,0,0-.221-.939,1.4,1.4,0,0,0-.663-.607,1.815,1.815,0,0,0-.939-.221H86.964v3.423h1.215Z" transform="translate(-19.212 -6.249)" fill="#fff"/>
    </g>
  </g>
</svg>
