<svg id="log5" xmlns="http://www.w3.org/2000/svg" width="141.375" height="32.773" viewBox="0 0 141.375 32.773">
  <g id="Logo-5-white-medium-01" transform="translate(0 0)">
    <g id="Logo-example-8" transform="translate(0 0)">
      <g id="Group-12">
        <path id="Combined-Shape" d="M0,2.533C0-.249,4.745-.985,5.318,1.878a110.439,110.439,0,0,1,.655,27.98c-.245,3.027-4.909,3.027-4.991-.082C.736,20.7.082,11.614,0,2.533Zm13.09-.245c.082-2.618,4.336-3.273,4.827-.573,1.8,9.327,1.882,19.472,1.473,28.962-.164,2.863-4.336,2.7-4.582-.082C13.908,21.35,12.927,11.614,13.09,2.287Zm13.254.736c.164-2.536,4.827-3.354,5.4-.573A68.816,68.816,0,0,1,31.5,26.668c-.491,2.536-4.745,1.718-4.909-.655C26.344,18.486,25.935,10.55,26.344,3.024Z" transform="translate(0 0.02)" fill="#042468"/>
      </g>
      <g id="Group-13" transform="translate(41.889 3.289)">
        <path id="Fill-162" d="M-7.073,2.682H-9.118v7.691c2.373,0,4.991-.164,5.645-2.945A3.786,3.786,0,0,0-7.073,2.682ZM-2.164.964a7.752,7.752,0,0,1,1.636,9C-2.982,14.708-8.3,13.972-12.8,13.972V-1h3.763C-6.5-1-4.128-.836-2.164.964Z" transform="translate(12.8 1)" fill="#042468"/>
        <path id="Fill-163" d="M4.8,13.4H8.727V-1H4.8Z" transform="translate(9.599 1)" fill="#042468"/>
        <path id="Fill-164" d="M17.909,1.945H14.473V5.054h3.436A1.524,1.524,0,0,0,19.3,3.5,1.524,1.524,0,0,0,17.909,1.945ZM22.981,13.4H19.3L17.009,8H14.636v5.4H11.2V-1h6.872a4.524,4.524,0,0,1,4.5,4.418,4.545,4.545,0,0,1-2.045,3.763Z" transform="translate(8.435 1)" fill="#042468"/>
        <path id="Fill-165" d="M38.472,13.4H28V-1H38.227V2.191h-6.3V4.645h5.318V7.754H31.927V10.29h6.545V13.4" transform="translate(5.38 1)" fill="#042468"/>
        <path id="Fill-166" d="M52.872,9.309l2.618,2.536A7.6,7.6,0,1,1,50.009-1a7.4,7.4,0,0,1,5.4,2.209L52.79,3.745A3.9,3.9,0,0,0,50.009,2.6a3.982,3.982,0,0,0-3.927,3.927,4.056,4.056,0,0,0,6.791,2.782" transform="translate(2.761 1)" fill="#042468"/>
        <path id="Fill-167" d="M70.327,2.682H66.563V13.4H62.882V2.682H59.2V-1H70.327V2.682" transform="translate(-0.294 1)" fill="#042468"/>
        <path id="Fill-168" d="M85.772,6.527a3.84,3.84,0,0,0-3.845-3.845A3.982,3.982,0,0,0,78,6.609a3.886,3.886,0,1,0,7.772-.082Zm3.682,0A7.527,7.527,0,1,1,81.927-1,7.56,7.56,0,0,1,89.454,6.527Z" transform="translate(-3.058 1)" fill="#042468"/>
        <path id="Fill-169" d="M101.109,1.945H97.673V5.054h3.436A1.524,1.524,0,0,0,102.5,3.5,1.524,1.524,0,0,0,101.109,1.945ZM106.181,13.4H102.5L100.209,8H97.836v5.4H94.4V-1h6.872a4.524,4.524,0,0,1,4.5,4.418,4.545,4.545,0,0,1-2.045,3.763Z" transform="translate(-6.695 1)" fill="#042468"/>
      </g>
      <path id="Brand-Tagline" d="M52.145,34.745c-.082,0-.082,0-.164-.082s-.082-.082-.082-.164V29.427c0-.082,0-.164.082-.164.082-.082.082-.082.164-.082h2.291a2.34,2.34,0,0,1,1.391.409,1.373,1.373,0,0,1,.491,1.145,2.389,2.389,0,0,1-.164.736c-.164.164-.245.327-.491.409.164.164.409.245.573.491a1.226,1.226,0,0,1,.164.818,1.485,1.485,0,0,1-.491,1.145,1.986,1.986,0,0,1-1.473.409Zm2.127-3.273a.954.954,0,0,0,.573-.164.6.6,0,0,0,.164-.491.877.877,0,0,0-.164-.491.69.69,0,0,0-.573-.164H53.045v1.309Zm.082,2.454a1.541,1.541,0,0,0,.655-.164.69.69,0,0,0,.164-.573.743.743,0,0,0-.245-.573.882.882,0,0,0-.655-.164H52.964v1.473Zm3.845.818c-.082,0-.082,0-.164-.082s-.082-.082-.082-.164V29.427c0-.082,0-.164.082-.164.082-.082.082-.082.164-.082h2.045a2,2,0,0,1,1.473.491,1.4,1.4,0,0,1,.491,1.227,1.745,1.745,0,0,1-.245.982,1.5,1.5,0,0,1-.818.573L62.29,34.5v.082c0,.082,0,.082-.082.164h-.736c-.082,0-.164,0-.164-.082l-.164-.164-.982-1.8H59.1v1.882c0,.082,0,.082-.082.164a.113.113,0,0,1-.164,0ZM60.163,31.8a1.954,1.954,0,0,0,.736-.164.743.743,0,0,0,.245-.573.637.637,0,0,0-.245-.573,1.634,1.634,0,0,0-.736-.164H59.018v1.636ZM63.6,34.745c-.082,0-.082,0-.164-.082a.286.286,0,0,1-.082-.164v-.082l1.882-5.072c.082-.164.164-.164.245-.164H66.3c.164,0,.245.082.245.164l1.882,5.072V34.5c0,.082,0,.082-.082.164-.082,0-.082.082-.164.082h-.736a.08.08,0,0,0,.082-.082l-.409-.982H64.745l-.409.982c.164.082.082.164-.082.164H63.6ZM65.154,32.7h1.8l-.9-2.454Zm5.072,2.045c-.082,0-.082,0-.164-.082s-.082-.082-.082-.164V29.427c0-.082,0-.164.082-.164.082-.082.082-.082.164-.082H70.8c.164,0,.164.082.164.164l2.209,3.436V29.345c0-.082,0-.164.082-.164s.082-.082.164-.082h.655c.082,0,.164,0,.164.082.082.082.082.082.082.164v5.072c0,.082,0,.164-.082.164.082.082,0,.082-.082.082h-.573c-.164,0-.164-.082-.245-.164l-2.209-3.436v3.354c0,.082,0,.082-.082.164,0,.082-.082.082-.164.082h-.655Zm6.218,0c-.082,0-.082,0-.164-.082s-.082-.082-.082-.164V29.427c0-.082,0-.164.082-.164.082-.082.082-.082.164-.082h1.882c1.554,0,2.373.736,2.373,2.127v1.145a2.109,2.109,0,0,1-.573,1.636,2.684,2.684,0,0,1-1.718.491H76.444Zm1.882-.9a1.182,1.182,0,0,0,.9-.245,1.383,1.383,0,0,0,.327-.982V31.473a1.16,1.16,0,0,0-.327-.9,1.383,1.383,0,0,0-.982-.327h-.9v3.682Zm7.772.9c-.082,0-.082,0-.164-.082s-.082-.082-.082-.164V30.164H84.38c-.082,0-.082,0-.164-.082s-.082-.082-.082-.164v-.573c0-.082,0-.164.082-.164.082-.082.082-.082.164-.082h4.009c.082,0,.164,0,.164.082.082.082.082.082.082.164v.573c0,.082,0,.164-.082.164-.082.082-.082.082-.164.082H86.917V34.5c0,.082,0,.082-.082.164,0,.082,0,.082-.082.082Zm3.027,0c-.082,0-.082,0-.164-.082a.286.286,0,0,1-.082-.164v-.082l1.882-5.072c.082-.164.164-.164.245-.164h.818c.164,0,.245.082.245.164l1.882,5.072V34.5c0,.082,0,.082-.082.164-.082,0-.082.082-.164.082h-.736c-.164,0-.164-.082-.164-.164L92.4,33.6H90.025l-.409.982c.164.164.082.164.082.164ZM90.68,32.7h1.8l-.9-2.454Zm6.954,2.127a2.3,2.3,0,0,1-1.718-.573,2.459,2.459,0,0,1-.655-1.554V31.227a1.8,1.8,0,0,1,.655-1.473,2.278,2.278,0,0,1,1.718-.491,2.732,2.732,0,0,1,1.227.245,7.076,7.076,0,0,1,.818.573,1.32,1.32,0,0,1,.245.736c0,.082,0,.082-.082.164a.286.286,0,0,1-.164.082H98.7a.286.286,0,0,1-.082-.164,1.271,1.271,0,0,0-1.964-.327,1.308,1.308,0,0,0-.327.9v1.473a1.308,1.308,0,0,0,.327.9,1.25,1.25,0,0,0,.818.327,1.489,1.489,0,0,0,.9-.327,1.308,1.308,0,0,0,.327-.9V32.7h-.982c-.082,0-.082,0-.164-.082s-.082-.082-.082-.164v-.491c0-.082,0-.082.082-.164s.082-.082.164-.082H99.6c.082,0,.164,0,.164.082.082.082.082.082.082.164v.818a2.376,2.376,0,0,1-.245,1.145,1.791,1.791,0,0,1-.818.736A3.793,3.793,0,0,1,97.634,34.827Zm4.173-.082c-.082,0-.082,0-.164-.082s-.082-.082-.082-.164V29.427c0-.082,0-.164.082-.164.082-.082.082-.082.164-.082h.736c.082,0,.164,0,.164.082.082.082.082.082.082.164v4.418h2.454c.082,0,.164,0,.164.082.082.082.082.082.082.164v.573c0,.082,0,.082-.082.164s-.082.082-.164.082Zm5.236,0c-.082,0-.082,0-.164-.082s-.082-.082-.082-.164V29.427c0-.082,0-.164.082-.164.082-.082.082-.082.164-.082h.818c.082,0,.164,0,.164.082.082.082.082.082.082.164V34.5c0,.082,0,.082-.082.164s-.082.082-.164.082Zm3.027,0c-.082,0-.082,0-.164-.082s-.082-.082-.082-.164V29.427c0-.082,0-.164.082-.164.082-.082.082-.082.164-.082h.573c.164,0,.164.082.164.164l2.209,3.436V29.345c0-.082,0-.164.082-.164.082-.082.082-.082.164-.082h.655c.082,0,.164,0,.164.082.082.082.082.082.082.164v5.072c0,.082,0,.164-.082.164-.082.082-.082.082-.164.082h-.573c-.164,0-.164-.082-.245-.164l-2.209-3.436v3.354c0,.082,0,.082-.082.164s-.082.082-.164.082Zm6.218,0c-.082,0-.082,0-.164-.082s-.082-.082-.082-.164V29.427c0-.082,0-.164.082-.164.082-.082.082-.082.164-.082h3.436c.082,0,.164,0,.164.082.082.082.082.082.082.164v.491c0,.082,0,.164-.082.164-.082.082-.082.082-.164.082h-2.536v1.391h2.454c.082,0,.164,0,.164.082.082.082.082.082.082.164v.491c0,.082,0,.164-.082.164-.082.082-.082.082-.164.082h-2.454v1.391h2.618c.082,0,.164,0,.164.082.082.082.082.082.082.164v.491c0,.082,0,.164-.082.164-.082.082-.082.082-.164.082Z" transform="translate(-9.438 -5.276)" fill="#042468"/>
    </g>
  </g>
</svg>
