<svg xmlns="http://www.w3.org/2000/svg" width="70.852" height="31.54" viewBox="0 0 70.852 31.54">
  <g id="log6" transform="translate(-912.086 -8042.818)">
    <g id="Group_112" data-name="Group 112" transform="translate(912.086 8042.818)">
      <g id="Logo-8-white-small-01" transform="translate(0 0)">
        <g id="Logo-example-13">
          <path id="Combined-Shape" d="M.225,31.315c-.113,0-.113,0-.113-.113H0v-6.2c0-.113,0-.225.113-.225H.676a.393.393,0,0,1,.225.113l2.028,3.83,2.028-3.83a.414.414,0,0,1,.338-.113h.451c.113,0,.113,0,.113.113l.113.113v6.2c0,.113,0,.113-.113.113l-.113.113H5.182c-.113,0-.113,0-.113-.113L4.956,31.2V26.471L3.379,29.512c-.113.113-.113.225-.225.225H2.7a.242.242,0,0,1-.225-.225L.789,26.358v4.731c0,.113,0,.113-.113.113l-.113.113Zm11.264.225a2.65,2.65,0,0,1-1.915-.676A2.754,2.754,0,0,1,8.9,28.837V27.26a2.555,2.555,0,0,1,.789-2.028,2.65,2.65,0,0,1,1.915-.676,2.65,2.65,0,0,1,1.915.676,3.355,3.355,0,0,1,.789,2.028v1.577a2.754,2.754,0,0,1-.676,2.028A4.372,4.372,0,0,1,11.49,31.54Zm0-.9a1.694,1.694,0,0,0,1.239-.451,2.508,2.508,0,0,0,.451-1.464V27.147a2.817,2.817,0,0,0-.451-1.464,1.4,1.4,0,0,0-1.239-.451,1.694,1.694,0,0,0-1.239.451A1.911,1.911,0,0,0,9.8,27.147v1.577a2.817,2.817,0,0,0,.451,1.464A1.539,1.539,0,0,0,11.49,30.639Zm5.857.676c-.113,0-.113,0-.113-.113l-.113-.113v-6.2c0-.113,0-.113.113-.113l.113-.113H17.8c.113,0,.113,0,.113.113l.113.113,3.154,4.956V25.007c0-.113,0-.113.113-.113,0-.113,0-.113.113-.113h.451c.113,0,.113,0,.113.113l.113.113v6.2c0,.113,0,.113-.113.113l-.113.113H21.4a.393.393,0,0,1-.225-.113l-3.154-4.956v4.731c0,.113,0,.113-.113.113l-.113.113Zm10.363.225a2.65,2.65,0,0,1-1.915-.676,2.754,2.754,0,0,1-.676-2.028V27.26a2.555,2.555,0,0,1,.789-2.028,2.65,2.65,0,0,1,1.915-.676,2.65,2.65,0,0,1,1.915.676,3.355,3.355,0,0,1,.788,2.028v1.577a2.754,2.754,0,0,1-.676,2.028A4.372,4.372,0,0,1,27.71,31.54Zm0-.9a1.694,1.694,0,0,0,1.239-.451,2.508,2.508,0,0,0,.451-1.464V27.147a2.817,2.817,0,0,0-.451-1.464,1.4,1.4,0,0,0-1.239-.451,1.694,1.694,0,0,0-1.239.451,1.911,1.911,0,0,0-.451,1.464v1.577a2.817,2.817,0,0,0,.451,1.464A1.539,1.539,0,0,0,27.71,30.639Zm8.11.9a2.65,2.65,0,0,1-1.915-.676,3.3,3.3,0,0,1-.789-1.8v-1.8a2.1,2.1,0,0,1,.789-1.8,2.65,2.65,0,0,1,1.915-.676,5.707,5.707,0,0,1,1.464.225,2.087,2.087,0,0,1,.9.789c.225.225.225.563.338.789h0c0,.113,0,.113-.113.113h-.676c-.113,0-.113,0-.113-.113l-.113-.113a1.725,1.725,0,0,0-.563-.789c-.225-.225-.563-.225-1.126-.225a1.539,1.539,0,0,0-1.239.451,2.137,2.137,0,0,0-.451,1.352v1.577a2.137,2.137,0,0,0,.451,1.352,2.05,2.05,0,0,0,1.239.451,1.539,1.539,0,0,0,1.239-.451,1.8,1.8,0,0,0,.451-1.352v-.451H36.046c-.113,0-.113,0-.113-.113-.113,0-.113,0-.113-.113v-.225c0-.113,0-.113.113-.113l.113-.113H38.3c.113,0,.113,0,.113.113l.113.113v.9a2.676,2.676,0,0,1-.338,1.352,2.306,2.306,0,0,1-.9.9A3.67,3.67,0,0,1,35.82,31.54Zm5.857-.225c-.113,0-.113,0-.113-.113l-.113-.113v-6.2c0-.113,0-.113.113-.113h2.366a2.518,2.518,0,0,1,1.69.451,1.609,1.609,0,0,1,.563,1.464,2.271,2.271,0,0,1-.338,1.239,1.64,1.64,0,0,1-1.014.676L46.3,31.089V31.2c0,.113,0,.113-.113.113.113.225.113.225,0,.225h-.451c-.113,0-.113,0-.225-.113s-.113-.113-.113-.225l-1.464-2.478h-1.69V31.2c0,.113,0,.113-.113.113l-.113.113-.338-.113Zm2.253-3.379c.9,0,1.464-.451,1.464-1.239s-.451-1.239-1.464-1.239h-1.69v2.478Zm4.844,3.379c-.113,0-.113,0-.113-.113l-.113-.113v-.113l2.366-6.2c.113-.113.113-.225.225-.225H51.7a.242.242,0,0,1,.225.225l2.366,6.2v.113c0,.113,0,.113-.113.113l-.113.113h-.451c-.113,0-.113,0-.113-.113l-.113-.113-.563-1.352H49.676l-.563,1.352C49,31.2,49,31.2,48.887,31.2l-.113.113Zm1.577-2.253h2.591L51.7,25.683Zm7.1,2.253c-.113,0-.113,0-.113-.113l-.113-.113v-6.2c0-.113,0-.113.113-.113H57.9a.393.393,0,0,1,.225.113l2.028,3.83,2.028-3.83c.113-.113.113-.113.225-.113h.451c.113,0,.113,0,.113.113l.113.113v6.2c0,.113,0,.113-.113.113l-.113.113H62.4c-.113,0-.113,0-.113-.113l-.113-.113V26.471l-1.69,3.154c-.113.113-.113.225-.225.225h-.225a.242.242,0,0,1-.225-.225l-1.69-3.154V31.2c0,.113,0,.113-.113.113l-.113.113C58.011,31.315,57.448,31.315,57.448,31.315Zm-28.386-10.7a8.223,8.223,0,0,0-16.446,0H10.588a10.285,10.285,0,0,1,19.149-5.182,33.853,33.853,0,0,1,1.239-3.6A13.5,13.5,0,0,0,7.209,20.614H5.294A15.576,15.576,0,0,1,20.839,5.069,15.3,15.3,0,0,1,32.1,9.913a19.92,19.92,0,0,1,1.8-2.478A18.479,18.479,0,0,0,2.366,20.614H.225A20.624,20.624,0,0,1,20.839,0,20.257,20.257,0,0,1,35.257,5.97,20.63,20.63,0,0,1,70.4,20.614H68.374A18.6,18.6,0,0,0,49.788,2.028,18.391,18.391,0,0,0,36.722,7.434c.676.789,1.239,1.69,1.8,2.478A15.3,15.3,0,0,1,49.788,5.069,15.576,15.576,0,0,1,65.333,20.614H63.305A13.557,13.557,0,0,0,49.788,7.1a13.417,13.417,0,0,0-10.251,4.731,19.443,19.443,0,0,1,1.239,3.6,10.285,10.285,0,0,1,19.149,5.182H57.9a8.223,8.223,0,1,0-16.446,0H39.425a19.587,19.587,0,0,0-1.239-6.871,14.063,14.063,0,0,0-1.8,5.294,7.437,7.437,0,0,1,.113,1.577H34.243a6.927,6.927,0,0,1,.113-1.577,12.348,12.348,0,0,0-1.8-5.294,19.587,19.587,0,0,0-1.239,6.871ZM33.568,11.6a18.483,18.483,0,0,1,1.8,3.267,18.483,18.483,0,0,1,1.8-3.267c-.563-.9-1.126-1.8-1.8-2.7A10.3,10.3,0,0,0,33.568,11.6ZM68.487,31.54a4.841,4.841,0,0,1-1.352-.225,3.11,3.11,0,0,1-.9-.676,1.279,1.279,0,0,1-.338-.9c0-.113,0-.113.113-.113l.113-.113h.451a.242.242,0,0,1,.225.225,2.356,2.356,0,0,0,.451.676,1.688,1.688,0,0,0,1.126.225,3.477,3.477,0,0,0,1.239-.225,1.14,1.14,0,0,0,.451-.789.86.86,0,0,0-.225-.563,2.462,2.462,0,0,0-.563-.338c-.225-.113-.563-.225-1.126-.451a2.614,2.614,0,0,1-1.126-.451,2.987,2.987,0,0,1-.676-.563,1.915,1.915,0,0,1,0-1.8,2.02,2.02,0,0,1,.789-.563,3.52,3.52,0,0,1,2.478,0,4.9,4.9,0,0,1,.789.676,1.072,1.072,0,0,1,.225.789c0,.113,0,.113-.113.113l-.113.113h-.451c-.113,0-.113,0-.113-.113a.11.11,0,0,1-.113-.113,2.357,2.357,0,0,0-.451-.676c-.225-.225-.563-.225-1.014-.225a2.249,2.249,0,0,0-1.014.225.948.948,0,0,0-.451.789.86.86,0,0,0,.225.563,1.2,1.2,0,0,0,.563.338,4.565,4.565,0,0,0,1.126.338,3.173,3.173,0,0,1,1.239.451,1.154,1.154,0,0,1,.676.563,2.122,2.122,0,0,1,.225.9,1.816,1.816,0,0,1-.676,1.464A2.761,2.761,0,0,1,68.487,31.54Z" fill="#042468"/>
        </g>
      </g>
    </g>
  </g>
</svg>
