<svg xmlns="http://www.w3.org/2000/svg" width="186" height="59" viewBox="0 0 186 59">
  <g id="sitecore" transform="translate(-760 -1232)">
    <rect id="Rectangle_235" data-name="Rectangle 235" width="186" height="59" transform="translate(760 1232)" fill="none"/>
    <path id="Union_5" data-name="Union 5" d="M-8154-9026.257A18.752,18.752,0,0,1-8135.256-9045a18.62,18.62,0,0,1,18.741,18.743,18.751,18.751,0,0,1-18.741,18.743A18.752,18.752,0,0,1-8154-9026.257Zm5.121,0a13.7,13.7,0,0,0,13.622,13.725,13.571,13.571,0,0,0,13.62-13.725,13.614,13.614,0,0,0-13.62-13.622A13.681,13.681,0,0,0-8148.878-9026.257Zm1.843,5.529a13.843,13.843,0,0,0,10.755,5.532,11.658,11.658,0,0,0,10.242-5.838l2.048,1.228a13.044,13.044,0,0,1-11.266,6.556A12.983,12.983,0,0,1-8147.035-9020.728Zm4.3,2.972a14.457,14.457,0,0,0,5.019.922,12.731,12.731,0,0,0,6.145-1.537,11.06,11.06,0,0,0,5.532-8.808h3.789v.922a12.617,12.617,0,0,1-1.435,5.838l-2.561-1.639-.2.307a11.129,11.129,0,0,1-9.832,5.839A11.847,11.847,0,0,1-8142.734-9017.756Zm14.033-6.352a7.124,7.124,0,0,0-.513-6.862l4.506-2.867a13.638,13.638,0,0,1,2.356,6.043h-4.4v.307a10.139,10.139,0,0,1-5.121,8.5,12.55,12.55,0,0,1-4.2,1.333A12.862,12.862,0,0,0-8128.7-9024.107Zm25.4,4.509a7.355,7.355,0,0,1-2.561-1.64l2.458-2.458a5.9,5.9,0,0,0,1.537,1.126,4.15,4.15,0,0,0,1.843.513,2.282,2.282,0,0,0,.82-.1,5.268,5.268,0,0,0,.717-.307,1.248,1.248,0,0,0,.511-.514,1.934,1.934,0,0,0,.2-.819,1.483,1.483,0,0,0-.2-.717c-.1-.2-.307-.307-.615-.511a3.142,3.142,0,0,0-1.024-.514,9.445,9.445,0,0,1-1.33-.408c-.513-.207-.922-.411-1.435-.615a8.5,8.5,0,0,1-1.228-.819,2.781,2.781,0,0,1-.922-1.23,4.046,4.046,0,0,1-.309-1.741,4.85,4.85,0,0,1,.513-2.252,3.815,3.815,0,0,1,1.33-1.536,11.121,11.121,0,0,1,1.948-.819,7.764,7.764,0,0,1,2.149-.307,8.724,8.724,0,0,1,2.663.511,8.1,8.1,0,0,1,2.356,1.435l-2.356,2.561a3,3,0,0,0-1.228-1.024,2.879,2.879,0,0,0-1.537-.41c-.2,0-.513.1-.717.1a1.467,1.467,0,0,0-.717.207,3.252,3.252,0,0,0-.511.612,1.5,1.5,0,0,0-.207.718,1.467,1.467,0,0,0,.207.615,2.2,2.2,0,0,0,.511.408,1.647,1.647,0,0,0,.717.411c.309.1.615.2,1.024.307a9.066,9.066,0,0,0,1.537.513,10.948,10.948,0,0,1,1.537.819,7.062,7.062,0,0,1,1.126,1.33,3.68,3.68,0,0,1,.411,1.948,5.3,5.3,0,0,1-.513,2.354,4.27,4.27,0,0,1-1.33,1.64,6.773,6.773,0,0,1-1.948.921,8.435,8.435,0,0,1-2.252.31A8.768,8.768,0,0,1-8103.3-9019.6Zm74.665,0a6.507,6.507,0,0,1-2.663-1.64,7.569,7.569,0,0,1-1.741-2.561,9.041,9.041,0,0,1-.615-3.38,9.033,9.033,0,0,1,.615-3.38,7.588,7.588,0,0,1,1.741-2.561,7.755,7.755,0,0,1,2.663-1.639,8.994,8.994,0,0,1,3.38-.613,9,9,0,0,1,3.38.613,7.753,7.753,0,0,1,2.663,1.639,7.561,7.561,0,0,1,1.741,2.561,8.985,8.985,0,0,1,.615,3.38,8.992,8.992,0,0,1-.615,3.38,8.7,8.7,0,0,1-1.741,2.561,7.8,7.8,0,0,1-2.663,1.64,9.053,9.053,0,0,1-3.38.612A9.052,9.052,0,0,1-8028.637-9019.6Zm1.435-11.983a5.086,5.086,0,0,0-1.435,1.023,3.853,3.853,0,0,0-.922,1.537,4.969,4.969,0,0,0-.306,1.843,5.978,5.978,0,0,0,.306,1.945,3.874,3.874,0,0,0,.922,1.537,4.628,4.628,0,0,0,1.435,1.023,4.019,4.019,0,0,0,1.843.411,4.907,4.907,0,0,0,1.843-.411,5.179,5.179,0,0,0,1.435-1.023,3.867,3.867,0,0,0,.921-1.537,5.965,5.965,0,0,0,.307-1.945,5.787,5.787,0,0,0-.307-1.843,3.847,3.847,0,0,0-.921-1.537,4.591,4.591,0,0,0-1.435-1.023,4,4,0,0,0-1.843-.411A4.841,4.841,0,0,0-8027.2-9031.582Zm-18.026,11.677a6.478,6.478,0,0,1-2.663-1.639,7.588,7.588,0,0,1-1.743-2.562,9.04,9.04,0,0,1-.613-3.38,9.036,9.036,0,0,1,.613-3.38,7.594,7.594,0,0,1,1.743-2.561,7.731,7.731,0,0,1,2.663-1.639,8.46,8.46,0,0,1,3.276-.615,8.839,8.839,0,0,1,3.278.615,6.645,6.645,0,0,1,2.561,1.741l-2.561,2.561a2.743,2.743,0,0,0-1.33-1.024,4.77,4.77,0,0,0-1.741-.309,4.9,4.9,0,0,0-1.843.411,5.136,5.136,0,0,0-1.435,1.023,3.846,3.846,0,0,0-.922,1.537,5.983,5.983,0,0,0-.309,1.945,5.966,5.966,0,0,0,.309,1.945,3.832,3.832,0,0,0,.922,1.537,3.372,3.372,0,0,0,1.435,1.023,4.731,4.731,0,0,0,1.741.309,3.89,3.89,0,0,0,1.945-.41,4.225,4.225,0,0,0,1.435-1.537l2.561,2.458a7.8,7.8,0,0,1-2.561,1.844,7.573,7.573,0,0,1-3.484.717A11.622,11.622,0,0,1-8045.229-9019.905Zm-44.042.612v-15.567h3.791v15.567Zm93.2-.1v-15.466h10.344v3.176h-6.76v2.867h6.452v3.071h-6.452v3.176h7.169v3.176Zm-8.4,0-3.38-6.146h-1.228v6.146h-3.688v-15.466h5.94a7.7,7.7,0,0,1,2.152.2,5.612,5.612,0,0,1,1.945.819,3.617,3.617,0,0,1,1.333,1.436,4.877,4.877,0,0,1,.511,2.251,3.931,3.931,0,0,1-.819,2.663,3.969,3.969,0,0,1-2.458,1.435l4.1,6.658Zm-4.506-8.706h1.741a2.859,2.859,0,0,0,.922-.1c.408-.1.613-.207.921-.309.2-.205.409-.409.615-.613a6.838,6.838,0,0,1,.307-.819c0-.411,0-.718-.2-.924a2.7,2.7,0,0,0-.615-.511,1.927,1.927,0,0,0-.819-.2,1.989,1.989,0,0,0-.819-.1h-2.048Zm-55.717,8.706v-15.466h10.446v3.176h-6.862v2.867h6.454v3.071h-6.454v3.176h7.171v3.176Zm-12.292,0v-12.29h-4.4v-3.176h12.5v3.176h-4.3v12.29Zm95.355-12.5a2.29,2.29,0,0,1-.513-.307c-.1-.2-.2-.307-.307-.514a1.294,1.294,0,0,1-.1-.612,1.3,1.3,0,0,1,.1-.615,2.243,2.243,0,0,1,.307-.513c.207-.1.309-.205.513-.307a1.3,1.3,0,0,1,.615-.1,1.29,1.29,0,0,1,.613.1,2.161,2.161,0,0,1,.513.307c.1.206.2.309.307.513s.207.408.1.615a1.294,1.294,0,0,1-.1.612,2.209,2.209,0,0,1-.307.514c-.2.1-.306.2-.513.307a1.3,1.3,0,0,1-.613.1A1.308,1.308,0,0,1-7981.625-9031.891Zm.1-2.663a1.373,1.373,0,0,0-.409.309,1.375,1.375,0,0,0-.309.408.924.924,0,0,0-.1.514.918.918,0,0,0,.1.511c.1.1.2.309.309.411a1.4,1.4,0,0,0,.409.306.92.92,0,0,0,.513.1.917.917,0,0,0,.511-.1,1.394,1.394,0,0,0,.411-.306,1.435,1.435,0,0,0,.306-.411.764.764,0,0,0,.1-.511.924.924,0,0,0-.1-.514,1.416,1.416,0,0,0-.306-.408,1.363,1.363,0,0,0-.411-.309.917.917,0,0,0-.511-.1A.92.92,0,0,0-7981.523-9034.554Zm.921,2.152-.411-.718h-.2v.718h-.306v-1.741h.819c.1,0,.1.1.2.1,0,.1.1.1.1.2.1,0,.1.1.1.207a.375.375,0,0,1-.1.307c-.1,0-.2.1-.306.2l.511.718Zm-.615-1.024h.2a.381.381,0,0,0,.309-.1c.1,0,.1-.1.1-.207s0-.2-.1-.2h-.513Z" transform="translate(8920 10288)" fill="#0b2238"/>
  </g>
</svg>
