<svg xmlns="http://www.w3.org/2000/svg" width="92" height="27" viewBox="0 0 92 27">
  <path id="spotify-1-1" d="M14.022,0A13.651,13.651,0,0,0,.225,13.5,13.651,13.651,0,0,0,14.022,27a13.65,13.65,0,0,0,13.8-13.5A13.65,13.65,0,0,0,14.022,0Zm6.327,19.471a.87.87,0,0,1-1.182.28c-3.24-1.937-7.318-2.375-12.12-1.3a.86.86,0,0,1-1.03-.633.84.84,0,0,1,.647-1.007c5.256-1.176,9.763-.67,13.4,1.5a.831.831,0,0,1,.285,1.157ZM22.037,15.8a1.09,1.09,0,0,1-1.48.347A18.461,18.461,0,0,0,6.81,14.569a1.081,1.081,0,0,1-1.342-.7,1.05,1.05,0,0,1,.717-1.313,20.518,20.518,0,0,1,15.5,1.794,1.039,1.039,0,0,1,.354,1.447Zm.145-3.828C17.735,9.383,10.4,9.146,6.154,10.406a1.3,1.3,0,0,1-1.609-.841A1.259,1.259,0,0,1,5.4,7.99C10.278,6.542,18.38,6.822,23.5,9.8a1.248,1.248,0,0,1,.451,1.73,1.305,1.305,0,0,1-1.768.442Zm15.579.5c-2.382-.556-2.806-.946-2.806-1.766,0-.774.745-1.3,1.853-1.3a5.487,5.487,0,0,1,3.256,1.21.159.159,0,0,0,.118.028.155.155,0,0,0,.1-.062l1.163-1.6a.151.151,0,0,0-.03-.208,7.135,7.135,0,0,0-4.575-1.551c-2.572,0-4.369,1.51-4.369,3.671,0,2.317,1.55,3.138,4.228,3.771,2.279.514,2.664.944,2.664,1.714,0,.853-.778,1.383-2.03,1.383a5.535,5.535,0,0,1-3.793-1.533.166.166,0,0,0-.114-.036.156.156,0,0,0-.107.054l-1.3,1.519a.149.149,0,0,0,.015.212,7.872,7.872,0,0,0,5.251,1.971c2.772,0,4.562-1.482,4.562-3.775,0-1.936-1.18-3.008-4.081-3.7Zm10.356-2.3a3.769,3.769,0,0,0-3,1.412V10.508a.155.155,0,0,0-.156-.153H42.829a.155.155,0,0,0-.156.153V22.373a.155.155,0,0,0,.156.153h2.133a.155.155,0,0,0,.156-.153V18.628a3.868,3.868,0,0,0,3,1.328,4.545,4.545,0,0,0,4.492-4.9,4.542,4.542,0,0,0-4.489-4.9Zm2.012,4.9a2.537,2.537,0,0,1-2.506,2.779,2.616,2.616,0,0,1-2.559-2.779,2.617,2.617,0,0,1,2.559-2.779,2.565,2.565,0,0,1,2.506,2.779Zm8.272-4.9a4.91,4.91,0,1,0,5.109,4.9,4.978,4.978,0,0,0-5.109-4.9Zm0,7.692a2.68,2.68,0,0,1-2.682-2.8A2.617,2.617,0,0,1,58.366,12.3a2.689,2.689,0,0,1,2.7,2.8A2.624,2.624,0,0,1,58.4,17.856Zm11.247-7.5H67.3V8.007a.154.154,0,0,0-.156-.153H65.013a.155.155,0,0,0-.156.153v2.348H63.831a.154.154,0,0,0-.155.153V12.3a.154.154,0,0,0,.155.153h1.026V17.1a2.509,2.509,0,0,0,2.836,2.827,3.959,3.959,0,0,0,2-.487.151.151,0,0,0,.079-.132V17.6a.152.152,0,0,0-.074-.13.159.159,0,0,0-.152-.007,2.737,2.737,0,0,1-1.252.3c-.684,0-.99-.3-.99-.985V12.455h2.347A.154.154,0,0,0,69.8,12.3V10.509a.149.149,0,0,0-.153-.153Zm8.178.009v-.288c0-.849.332-1.227,1.078-1.227a3.67,3.67,0,0,1,1.2.217.159.159,0,0,0,.141-.021.151.151,0,0,0,.064-.124V7.162a.153.153,0,0,0-.11-.147,5.974,5.974,0,0,0-1.773-.249c-1.97,0-3.011,1.086-3.011,3.138v.442H74.392a.155.155,0,0,0-.157.153v1.8a.155.155,0,0,0,.157.153h1.025v7.159a.154.154,0,0,0,.155.153h2.133a.155.155,0,0,0,.156-.153V12.455h1.991L82.9,19.612c-.346.752-.687.9-1.152.9a2.5,2.5,0,0,1-1.176-.326.163.163,0,0,0-.124-.011.156.156,0,0,0-.092.082l-.723,1.552a.15.15,0,0,0,.067.2,4.57,4.57,0,0,0,2.278.571c1.575,0,2.446-.718,3.213-2.649l3.7-9.356a.148.148,0,0,0-.017-.142.155.155,0,0,0-.128-.066H86.53a.157.157,0,0,0-.148.1l-2.275,6.358-2.492-6.362a.156.156,0,0,0-.146-.1H77.826Zm-4.742-.009H70.952a.155.155,0,0,0-.156.153v9.106a.155.155,0,0,0,.156.153h2.133a.155.155,0,0,0,.156-.153V10.508A.151.151,0,0,0,73.2,10.4a.157.157,0,0,0-.051-.033.159.159,0,0,0-.06-.011ZM72.03,6.209a1.5,1.5,0,1,0,1.53,1.5,1.514,1.514,0,0,0-1.53-1.5Zm18.686,7.074a1.473,1.473,0,1,1,1.509-1.477,1.479,1.479,0,0,1-1.509,1.477Zm.008-2.8a1.326,1.326,0,1,0,1.344,1.322,1.328,1.328,0,0,0-1.344-1.322Zm.333,1.473.424.582h-.357L90.742,12h-.329v.534h-.3V11h.7c.365,0,.606.183.606.492a.459.459,0,0,1-.363.468h0Zm-.254-.7h-.39v.488h.39c.2,0,.312-.093.312-.244s-.117-.244-.312-.244Z" transform="translate(-0.225)" fill="#0b2238"/>
</svg>
