<svg xmlns="http://www.w3.org/2000/svg" width="186" height="59" viewBox="0 0 186 59">
  <g id="xperience" transform="translate(-760 -1232)">
    <rect id="Rectangle_235" data-name="Rectangle 235" width="186" height="59" transform="translate(760 1232)" fill="none"/>
    <path id="Union_5" data-name="Union 5" d="M-8036.285-8999.769a3.74,3.74,0,0,1-2.467-.758,2.425,2.425,0,0,1-.822-1.88h1.375c.063.883.538,1.484,1.9,1.484,1.232,0,2.022-.694,2.022-2.355v-1.36a2.658,2.658,0,0,1-2.529,1.487c-1.9,0-2.767-1.265-2.767-3.114v-4.35h1.36v4.063c0,1.3.427,2.181,1.866,2.181,1.407,0,2.07-1.185,2.07-2.5v-3.748h1.362v7.43a3.44,3.44,0,0,1-.98,2.626,3.563,3.563,0,0,1-2.239.793Zm44.345-7.193a3.5,3.5,0,0,1,3.623-3.827c1.959,0,3.224,1.076,3.4,2.7h-1.376a1.812,1.812,0,0,0-2.038-1.471c-1.392,0-2.248.965-2.248,2.595,0,1.611.856,2.592,2.248,2.592a1.818,1.818,0,0,0,2.038-1.423h1.376c-.175,1.6-1.439,2.658-3.4,2.658A3.5,3.5,0,0,1-7991.94-9006.962Zm-55.538,2.354v1.283h-1.359v-11.068h1.359v5.075a2.961,2.961,0,0,1,2.688-1.486,3.519,3.519,0,0,1,3.525,3.843,3.583,3.583,0,0,1-3.6,3.825h-.08A2.908,2.908,0,0,1-8047.478-9004.608Zm-.063-2.354a2.437,2.437,0,0,0,2.481,2.592,2.416,2.416,0,0,0,2.42-2.592,2.431,2.431,0,0,0-2.42-2.61A2.442,2.442,0,0,0-8047.542-9006.962Zm63.9,0a3.647,3.647,0,0,1,3.8-3.843,3.656,3.656,0,0,1,3.8,3.843,3.651,3.651,0,0,1-3.8,3.825A3.642,3.642,0,0,1-7983.639-9006.962Zm1.359,0a2.392,2.392,0,0,0,2.436,2.592,2.379,2.379,0,0,0,2.417-2.592,2.384,2.384,0,0,0-2.417-2.61A2.4,2.4,0,0,0-7982.279-9006.962Zm-35.968-.016a3.5,3.5,0,0,1,3.589-3.827,3.283,3.283,0,0,1,3.448,3.43,7.424,7.424,0,0,1-.032.808h-5.646a2.108,2.108,0,0,0,2.292,2.229,1.91,1.91,0,0,0,1.93-1.076h1.375a3.129,3.129,0,0,1-3.305,2.277A3.49,3.49,0,0,1-8018.247-9006.978Zm1.36-.649h4.333a1.933,1.933,0,0,0-2.12-2.07A2.066,2.066,0,0,0-8016.887-9007.627Zm18.909,4.4c-.854,0-2.229-.156-2.229-2.515v-3.716h-1.312v-1.153h1.312v-2.309h1.375v2.309H-7997v1.153h-1.834v3.416c0,1.392.475,1.582,1.169,1.582a5.443,5.443,0,0,0,.917-.095v1.216a6.251,6.251,0,0,1-1.167.112Zm2.895-.095v-7.289h1.357v7.289Zm-9.076,0v-3.891c0-1.63-.538-2.4-1.834-2.4-1.36,0-2.057.965-2.057,2.436v3.859h-1.374v-7.289h1.374v1.344a2.588,2.588,0,0,1,2.547-1.534c1.787,0,2.7,1.044,2.7,2.989v4.49Zm-16.221,0-4.633-5.137v5.137h-1.437v-11.065h1.437v5.171l4.649-5.171h1.834l-5.124,5.468,5.124,5.6Zm-102.888-13.05a5.853,5.853,0,0,1,5.854-5.852,5.853,5.853,0,0,1,5.854,5.852,5.856,5.856,0,0,1-5.854,5.856A5.856,5.856,0,0,1-8123.269-9016.378Zm127.742,3.407a1.11,1.11,0,0,1,.552-.98,1.107,1.107,0,0,1,1.124,0,1.11,1.11,0,0,1,.552.98,1.115,1.115,0,0,1-1.115,1.1A1.113,1.113,0,0,1-7995.527-9012.971Zm-87.872-2.231V-9032h3.743v1.7a4.455,4.455,0,0,1,3.891-2.018c3.253,0,5.468,2.513,5.468,6.256,0,3.718-2.291,6.254-5.566,6.254a4.318,4.318,0,0,1-3.793-1.993v6.6Zm3.6-10.859a2.859,2.859,0,0,0,2.858,3.126,2.847,2.847,0,0,0,2.806-3.126h0a2.843,2.843,0,0,0-2.808-3.105A2.84,2.84,0,0,0-8079.8-9026.062Zm84.617,0c0-3.894,2.538-6.256,6.4-6.256,3.7,0,6.206,2.29,6.206,5.639a12.936,12.936,0,0,1-.1,1.649h-8.767c.073,1.553,1.108,2.391,2.781,2.391,1.158,0,1.9-.322,2.218-1.06h3.693c-.368,2.34-2.758,3.891-5.911,3.891C-7992.7-9019.808-7995.186-9022.1-7995.186-9026.062Zm3.745-1.308h5.146a2.233,2.233,0,0,0-2.513-2.413A2.376,2.376,0,0,0-7991.441-9027.369Zm-17.9,1.308c0-3.743,2.436-6.256,6.352-6.256,3.548,0,5.863,1.87,6.158,4.825h-3.768c-.272-1.107-.985-1.625-2.365-1.625-1.625,0-2.61,1.085-2.61,3.053s.985,3.056,2.61,3.056c1.38,0,2.093-.492,2.365-1.527h3.768c-.295,2.883-2.61,4.729-6.158,4.729C-8006.909-9019.808-8009.344-9022.318-8009.344-9026.062Zm-28.791,0c0-3.894,2.538-6.256,6.4-6.256,3.693,0,6.206,2.29,6.206,5.639a12.938,12.938,0,0,1-.1,1.649h-8.767c.075,1.553,1.107,2.391,2.783,2.391,1.158,0,1.9-.322,2.218-1.06h3.693c-.37,2.34-2.758,3.891-5.911,3.891C-8035.646-9019.808-8038.135-9022.1-8038.135-9026.062Zm3.744-1.308h5.148a2.234,2.234,0,0,0-2.513-2.413A2.378,2.378,0,0,0-8034.391-9027.369Zm-34.5,1.308c0-3.894,2.536-6.256,6.4-6.256,3.693,0,6.206,2.29,6.206,5.639a12.85,12.85,0,0,1-.1,1.649h-8.767c.073,1.553,1.108,2.391,2.783,2.391,1.158,0,1.9-.322,2.215-1.06h3.7c-.37,2.34-2.758,3.891-5.911,3.891C-8066.407-9019.808-8068.893-9022.1-8068.893-9026.062Zm3.743-1.308H-8060a2.233,2.233,0,0,0-2.513-2.413A2.377,2.377,0,0,0-8065.15-9027.369Zm84.986,6.792a2.413,2.413,0,0,1-.715-1.717,2.441,2.441,0,0,1,1.489-2.271,2.441,2.441,0,0,1,2.665.513,2.434,2.434,0,0,1,.541,2.66,2.439,2.439,0,0,1-2.256,1.512h-.026A2.412,2.412,0,0,1-7980.164-9020.577Zm-35.044.449v-6.106c0-2-.565-2.908-2.091-2.908-1.5,0-2.292.985-2.292,2.809v6.206h-3.769V-9032h3.769v1.724a4.035,4.035,0,0,1,3.843-2.043c2.881,0,4.333,1.625,4.333,4.851v7.339Zm-28.863,0V-9032h3.746v11.87Zm-10.047,0V-9032h3.768v2.488a3.322,3.322,0,0,1,3.276-2.686,3.6,3.6,0,0,1,.985.1v3.5a8.14,8.14,0,0,0-1.132-.072c-2.045,0-3.128,1.33-3.128,3.963v4.581Zm-35.437,0-3.421-5.613-3.425,5.613h-4.383l5.516-8.619-5.516-8.619h4.383l3.425,5.639,3.423-5.639h4.381l-5.516,8.619,5.516,8.619Zm-48.9-7.476a5.851,5.851,0,0,1,5.852-5.852,5.852,5.852,0,0,1,5.854,5.852,5.852,5.852,0,0,1-5.854,5.854A5.852,5.852,0,0,1-8138.45-9027.6ZM-8154-9038.965a6.035,6.035,0,0,1,6.036-6.035,6.036,6.036,0,0,1,6.036,6.035,6.037,6.037,0,0,1-6.036,6.039A6.037,6.037,0,0,1-8154-9038.965Zm110.158,5.278a2.27,2.27,0,0,1-.672-1.637,2.332,2.332,0,0,1,1.414-2.177,2.324,2.324,0,0,1,2.549.485,2.326,2.326,0,0,1,.515,2.545,2.329,2.329,0,0,1-2.163,1.437h-.05A2.274,2.274,0,0,1-8043.841-9033.687Z" transform="translate(8918 10284)" fill="#0b2238"/>
  </g>
</svg>
