<svg viewBox="0 0 490 370" xmlns="http://www.w3.org/2000/svg"><path fill="#fff" d="M0 0h490v370H0z"/><radialGradient id="a" cx="-314.77" cy="-5147.6" r="92.682" gradientTransform="matrix(1.1835 0 0 -.1156 617.53 -261.72)" gradientUnits="userSpaceOnUse"><stop stop-color="#5E5E5E" offset="0"/><stop stop-opacity="0" offset="1"/></radialGradient><path d="M354.72 333.35c0 5.916-49.13 10.711-109.72 10.711s-109.72-4.795-109.72-10.711 49.126-10.711 109.72-10.711c60.596 0 109.72 4.797 109.72 10.713v-.002z" fill="url(#a)"/><linearGradient id="b" x1="-147.56" x2="-147.56" y1="-242.16" y2="-314.65" gradientTransform="matrix(1 0 0 -1 395.2 18.699)" gradientUnits="userSpaceOnUse"><stop offset="0"/><stop stop-color="#282826" offset=".299"/><stop stop-color="#A6A5A8" offset=".481"/><stop stop-color="#BABABA" offset=".687"/><stop stop-color="#6E6E6E" offset=".804"/><stop stop-color="#949494" offset=".904"/><stop stop-color="#ABAAAA" offset=".981"/></linearGradient><linearGradient id="c" x1="-147.6" x2="-147.6" y1="-241.66" y2="-315.15" gradientTransform="matrix(1 0 0 -1 395.2 18.699)" gradientUnits="userSpaceOnUse"><stop offset="0"/><stop stop-color="#282826" offset=".199"/><stop stop-color="#A6A5A8" offset=".39"/><stop stop-color="#BABABA" offset=".622"/><stop stop-color="#A8A8A8" offset=".821"/><stop stop-color="#ADADAD" offset=".934"/><stop stop-color="#C3C2C2" offset=".995"/></linearGradient><path d="M306.96 333.35H188.32c6.832-4.146 21.208-9.547 21.984-18.275 2.197-24.725.182-54.217.182-54.217h70.855s-1.816 32.775-.361 55.309c.535 8.263 19.962 13.339 25.981 17.183z" fill="url(#b)" stroke="url(#c)" stroke-miterlimit="10"/><linearGradient id="d" x1="-147.6" x2="-147.6" y1="-315.04" y2="-319.65" gradientTransform="matrix(1 0 0 -1 395.2 18.699)" gradientUnits="userSpaceOnUse"><stop stop-color="#616161" offset="0"/><stop stop-color="#A6A5A8" offset=".241"/><stop stop-color="#BDBDBD" offset=".505"/><stop stop-color="#ABAAAA" offset=".784"/><stop stop-color="#4F4F4F" offset="1"/></linearGradient><path d="M306.13 338.35H188.48c.263-1.949-1.942-4.564-1.942-4.564l122.14-.049c0 .009-2.697 2.728-2.544 4.613z" fill="url(#d)"/><path d="M442.1 279.79c0 3.1-2.563 5.611-5.729 5.611H53.631c-3.163 0-5.731-2.512-5.731-5.611V33.55c0-3.099 2.568-5.612 5.731-5.612h382.74c3.168 0 5.729 2.513 5.729 5.612v246.24h.005z"/><path fill="#fff" d="M55.178 35.209h379.65v242.19H55.178z"/><path fill="#282E40" d="M54.448 34.846h381.1v242.92h-381.1z"/><path d="M194.15 128.51h16.359v.39c0 .389-.295.583-.884.583h-15.476v21.021h-1.326v-21.021h-38.354c-.405 0-.654-.04-.746-.121s-.175-.203-.249-.365l-.11-.39 40.014-46.322h.773l-.001 46.225zm-1.326-42.332v-.827s.036-.584.11-.876l-38.023 44.035h37.913V86.178zm79.586 30.262c0 5.969-.729 11.135-2.186 15.498-1.455 4.363-3.426 7.972-5.914 10.826-2.484 2.854-5.396 4.972-8.729 6.35-3.337 1.379-6.859 2.068-10.584 2.068-3.722 0-7.25-.689-10.584-2.068-3.335-1.378-6.246-3.495-8.733-6.35-2.486-2.854-4.458-6.463-5.913-10.826-1.456-4.363-2.183-9.529-2.183-15.498 0-5.968.727-11.134 2.183-15.498 1.455-4.362 3.427-7.979 5.913-10.85 2.487-2.871 5.398-5.004 8.733-6.399 3.334-1.394 6.862-2.092 10.584-2.092 3.725 0 7.247.698 10.584 2.092 3.334 1.395 6.244 3.528 8.729 6.399 2.488 2.871 4.459 6.488 5.914 10.85 1.46 4.364 2.186 9.53 2.186 15.498zm-1.435 0c0-5.839-.688-10.882-2.07-15.132-1.383-4.249-3.254-7.761-5.609-10.534-2.355-2.774-5.109-4.834-8.263-6.18-3.15-1.346-6.494-2.02-10.03-2.02-3.537 0-6.893.673-10.059 2.02-3.17 1.346-5.941 3.405-8.318 6.18-2.376 2.772-4.256 6.285-5.638 10.534-1.382 4.25-2.072 9.293-2.072 15.132s.69 10.884 2.072 15.133c1.382 4.25 3.262 7.753 5.638 10.51 2.377 2.758 5.148 4.801 8.318 6.13 3.167 1.331 6.521 1.995 10.059 1.995 3.536 0 6.88-.664 10.03-1.995 3.149-1.329 5.903-3.373 8.263-6.13 2.355-2.756 4.229-6.26 5.609-10.51 1.377-4.249 2.07-9.294 2.07-15.133zm51.395 12.07h16.355v.39c0 .389-.295.583-.883.583h-15.474v21.021h-1.326v-21.021h-38.354c-.404 0-.653-.04-.744-.121a.986.986 0 01-.249-.365l-.11-.39 40.018-46.322h.771l-.004 46.225zm-1.326-42.332v-.827s.035-.584.11-.876l-38.021 44.035h37.911V86.178zM111.17 192.26v.781c0 .391-.279.725-.726.725-.334 0-.725-.334-.725-.725v-3.012c0-.223.111-.391.279-.557.39-.227.78-.166 1.004.107l1.672 2.346c.224.275.168.725-.167 1.004-.111.055-.278.055-.446.055-.223 0-.446-.055-.558-.277l-.333-.447zm-1.45 3.625c0-.445.391-.725.725-.725.446 0 .726.279.726.725v2.844c0 .334-.279.668-.726.668-.334 0-.725-.334-.725-.668v-2.844zm0 5.631c0-.391.391-.668.725-.668.446 0 .726.277.726.668v2.848c0 .334-.279.723-.726.723-.334 0-.725-.389-.725-.723v-2.848zm0 5.687c0-.445.391-.725.725-.725.446 0 .726.275.726.725v2.787c0 .336-.279.727-.726.727-.334 0-.725-.391-.725-.727v-2.787zm0 5.633c0-.447.391-.727.725-.727.446 0 .726.279.726.727v2.787a.704.704 0 01-.726.725c-.334 0-.725-.336-.725-.725v-2.787zm0 5.631c0-.447.391-.727.725-.727.446 0 .726.279.726.727v2.842c0 .336-.279.67-.726.67-.334 0-.725-.334-.725-.67v-2.842zm0 5.631c0-.391.391-.67.725-.67.446 0 .726.279.726.67v2.844c0 .334-.279.729-.726.729-.334 0-.725-.395-.725-.729v-2.844zm3.457-29.049c-.224-.391-.111-.781.167-1.004.279-.225.781-.111 1.004.166l1.617 2.287c.278.277.167.725-.167.949-.112.111-.279.111-.391.111-.223 0-.446-.061-.613-.279l-1.617-2.23zm3.29 4.57c-.224-.334-.167-.779.167-1.002.279-.279.725-.168 1.004.166l1.617 2.23c.223.391.167.777-.111 1.004-.168.168-.279.168-.447.168a.684.684 0 01-.557-.279l-1.673-2.287zm3.289 4.574c-.223-.336-.167-.781.224-.949.278-.279.669-.223.893.111l1.728 2.287c.168.334.112.775-.167.941-.111.17-.278.17-.391.17-.223 0-.445-.057-.612-.275l-1.675-2.285zm3.345 4.516a.628.628 0 01.112-.893c.334-.279.78-.229 1.004.111l1.672 2.283c.223.334.167.779-.224 1.002-.056.061-.166.111-.39.111s-.446-.059-.558-.279l-1.616-2.335zm3.29 4.627c-.223-.279-.167-.727.168-1.004.278-.223.725-.168.948.223l1.616 2.23c.279.391.224.781-.111 1.004-.167.057-.279.111-.446.111a.617.617 0 01-.557-.277l-1.618-2.287zm3.29 4.572c-.278-.279-.167-.725.168-1.004.278-.223.725-.111 1.003.223l1.617 2.287c.223.334.111.725-.167.947-.111.057-.279.168-.391.168-.224 0-.446-.168-.558-.279l-1.672-2.342zm3.29 4.572c-.224-.279-.168-.781.223-1.004.279-.168.669-.111.893.223l1.672 2.287c.224.277.168.779-.111 1.004-.167.055-.278.111-.445.111-.224 0-.391-.111-.558-.279l-1.674-2.342zm3.29 4.573c-.224-.279-.112-.725.167-.947.167-.109.39-.17.558-.109v-1.896c0-.392.334-.67.725-.67s.669.278.669.67v2.845a.897.897 0 01-.167.5c.056.278-.056.561-.335.78-.056.06-.167.06-.334.06-.278 0-.502-.06-.614-.279l-.669-.954zm.724-36.801c0-.445.334-.725.725-.725s.669.279.669.725v2.789c0 .391-.278.725-.669.725s-.725-.334-.725-.725v-2.789zm0 5.633c0-.445.334-.725.725-.725s.669.279.669.725v2.844c0 .334-.278.668-.669.668s-.725-.334-.725-.668v-2.844zm0 5.631c0-.391.334-.668.725-.668s.669.277.669.668v2.848c0 .334-.278.723-.669.723s-.725-.389-.725-.723v-2.848zm0 5.687c0-.445.334-.725.725-.725s.669.275.669.725v2.787c0 .336-.278.727-.669.727s-.725-.391-.725-.727v-2.787zm0 5.633c0-.447.334-.727.725-.727s.669.279.669.727v2.787c0 .389-.278.725-.669.725s-.725-.336-.725-.725v-2.787zm0 5.631c0-.447.334-.727.725-.727s.669.279.669.727v2.842c0 .336-.278.67-.669.67s-.725-.334-.725-.67v-2.842zm13.835-3.847c0-.834.056-1.727.278-2.564.057-.334.446-.668.78-.613.447.111.614.447.559.896-.111.781-.224 1.508-.224 2.285v.275c0 .447-.278.781-.613.781h-.056a.738.738 0 01-.725-.725l.001-.335zm.335 3.291c-.057-.391.223-.725.557-.836.335-.168.781.111.837.5.223.895.502 1.729.836 2.51.223.336 0 .779-.334.893-.056.111-.111.111-.279.111-.278 0-.445-.166-.613-.447-.447-.836-.725-1.782-1.004-2.731zm.724-8.697c.447-.893.837-1.785 1.395-2.564.223-.391.726-.391 1.004-.225.334.225.39.613.167 1.004a12.625 12.625 0 00-1.227 2.287c-.167.277-.391.502-.669.502-.111 0-.223-.059-.223-.059-.39-.166-.614-.556-.447-.945zm1.841 13.937c-.335-.279-.224-.668.111-.947.278-.223.669-.166.948.111.502.725 1.17 1.34 1.84 2.008.278.168.278.613.111.947-.167.107-.39.223-.613.223-.111 0-.279-.111-.391-.111-.78-.668-1.449-1.338-2.006-2.231zm1.506-18.734c.724-.723 1.505-1.281 2.397-1.783.278-.168.78-.055.892.223.223.336.056.781-.223 1.004-.78.395-1.45.947-2.175 1.51a.481.481 0 01-.391.223c-.223 0-.445-.055-.558-.223a.701.701 0 01.058-.954zm2.954 22.527c-.39-.168-.501-.563-.39-.896.224-.336.669-.502 1.004-.336.78.396 1.617.67 2.453.896a.64.64 0 01.558.834c-.056.336-.391.56-.669.56h-.168c-1.004-.278-1.951-.558-2.788-1.058zm2.175-25.482a12.171 12.171 0 012.898-.5c.391 0 .725.277.725.725 0 .395-.278.668-.725.668-.892.111-1.729.229-2.564.447-.056.055-.167.055-.167.055-.279 0-.614-.223-.67-.502-.111-.391.056-.78.503-.893zm3.512 25.426c.892 0 1.841-.111 2.62-.334.391-.111.726.111.893.502 0 .389-.167.729-.502.895-1.004.168-1.951.336-2.955.336-.445 0-.669-.279-.669-.729-.111-.336.224-.67.613-.67zm2.119-24.309c-.446-.113-.67-.391-.614-.781.057-.391.447-.613.838-.559 1.003.223 1.895.502 2.843.949.334.166.446.609.278.943-.111.227-.391.395-.613.395-.111 0-.278 0-.278-.111-.782-.334-1.673-.613-2.454-.836zm2.899 22.971c.781-.445 1.563-.893 2.176-1.506.278-.223.78-.168 1.003.111.279.279.279.67-.111.949-.669.668-1.506 1.227-2.342 1.672-.168.111-.224.111-.391.111s-.502-.111-.613-.334c-.168-.39-.001-.781.278-1.003zm1.784-20.742c-.278-.223-.39-.607-.167-.947.279-.334.67-.334.948-.107a9.611 9.611 0 012.119 2.119c.334.275.223.725-.056 1.004a1.276 1.276 0 01-.503.105c-.167 0-.39-.105-.557-.273-.501-.73-1.114-1.343-1.784-1.901zm2.175 17.285c.559-.668.948-1.451 1.339-2.287.111-.334.502-.502.892-.334.335.111.502.563.391.896-.391.943-.893 1.729-1.45 2.617-.111.111-.39.277-.557.277-.168 0-.279-.111-.447-.166-.335-.224-.391-.726-.168-1.003zm1.059-13.104a.752.752 0 01.279-.947c.39-.223.78-.111 1.004.279.39.836.78 1.838 1.003 2.729.056.393-.167.781-.502.895h-.223c-.278 0-.558-.223-.613-.557a11.281 11.281 0 00-.948-2.399zm1.06 8.309c.168-.836.224-1.783.224-2.678v-.557c0-.395.278-.668.725-.779.334 0 .725.277.725.725v.611a12.56 12.56 0 01-.335 2.955c-.056.336-.334.559-.725.559h-.111c-.335-.057-.559-.502-.503-.836zm8.087-15.668c0-.391.334-.725.725-.725h2.788c.39 0 .725.334.725.725s-.335.67-.725.67h-2.788c-.391 0-.725-.28-.725-.67zm4.739-11.598c0-.391.334-.723.726-.723.39 0 .724.332.724.723v2.844c0 .391-.334.67-.724.67-.392 0-.726-.279-.726-.67v-2.844zm0 5.633c0-.391.334-.67.726-.67.39 0 .724.279.724.67v2.844a.739.739 0 01-.724.725.739.739 0 01-.726-.725v-2.844zm0 5.686c0-.389.334-.723.726-.723.39 0 .724.334.724.723v2.789a.74.74 0 01-.724.729.74.74 0 01-.726-.729v-2.789zm0 5.63c0-.395.334-.727.726-.727.39 0 .724.332.724.727v2.844c0 .393-.334.672-.724.672-.392 0-.726-.279-.726-.672v-2.844zm0 5.631c0-.389.334-.668.726-.668.39 0 .724.279.724.668v2.846a.737.737 0 01-.724.725.738.738 0 01-.726-.725v-2.846zm0 5.69a.74.74 0 01.726-.727c.39 0 .724.336.724.727v2.787a.737.737 0 01-.724.725.738.738 0 01-.726-.725v-2.787zm0 5.799v-.168c0-.389.334-.725.726-.725.39 0 .724.336.724.725v.168c0 .729.279 1.449.726 1.951a.709.709 0 010 1.004c-.168.111-.335.166-.502.166s-.391-.055-.502-.223c-.726-.779-1.172-1.783-1.172-2.898zm1.951-22.471c0-.391.335-.725.725-.725h2.788c.391 0 .726.334.726.725s-.335.67-.726.67h-2.788c-.39 0-.725-.28-.725-.67zm1.505 25.982c0-.391.336-.668.726-.668h.111c.391 0 .67.334.67.725s-.279.668-.67.668h-.111a.739.739 0 01-.726-.725zm34.295-37.632c0-.443.334-.725.725-.725h3.011c.446 0 .725.277.725.725 0 .334-.278.729-.725.729h-2.286v2.174c0 .334-.278.729-.725.729-.391 0-.725-.395-.725-.729v-2.903zm0 5.798c0-.447.334-.729.725-.729.446 0 .725.277.725.729v2.896c0 .336-.278.67-.725.67-.391 0-.725-.334-.725-.67v-2.896zm0 5.743c0-.391.334-.725.725-.725.446 0 .725.334.725.725v2.898c0 .391-.278.727-.725.727a.74.74 0 01-.725-.727v-2.898zm0 5.798c0-.445.334-.729.725-.729.446 0 .725.281.725.729v1.17h2.286c.446 0 .725.336.725.727 0 .443-.278.723-.725.723h-2.286v.281c0 .334-.278.723-.725.723-.391 0-.725-.389-.725-.723v-2.901zm0 5.799c0-.447.334-.725.725-.725.446 0 .725.273.725.725v2.898c0 .336-.278.725-.725.725-.391 0-.725-.389-.725-.725v-2.898zm0 5.744c0-.395.334-.672.725-.672.446 0 .725.281.725.672v2.896c0 .394-.278.728-.725.728a.738.738 0 01-.725-.728v-2.896zm0 5.797c0-.445.334-.725.725-.725.446 0 .725.275.725.725v2.9c0 .389-.278.725-.725.725a.739.739 0 01-.725-.725v-2.9zm6.635-33.955c-.446 0-.725-.391-.725-.725 0-.447.278-.729.725-.729h2.899c.446 0 .726.273.726.729 0 .334-.279.725-.726.725h-2.899zm0 19.235c-.446 0-.725-.275-.725-.723 0-.391.278-.727.725-.727h2.899c.446 0 .726.336.726.727 0 .443-.279.723-.726.723h-2.899zm5.8-19.235c-.444 0-.726-.391-.726-.725 0-.447.278-.729.726-.729h2.899c.444 0 .726.273.726.729 0 .334-.279.725-.726.725h-2.899zm0 19.235c-.444 0-.726-.275-.726-.723 0-.391.278-.727.726-.727h2.899c.444 0 .726.336.726.727 0 .443-.279.723-.726.723h-2.899zm5.797-19.235c-.444 0-.726-.391-.726-.725 0-.447.279-.729.726-.729h2.898c.394 0 .669.273.669.729 0 .334-.275.725-.669.725h-2.898zm0 19.235c-.444 0-.726-.275-.726-.723 0-.391.279-.727.726-.727h1.34c.446 0 .725.336.725.727 0 .443-.277.723-.725.723h-1.34zm9.538 4.681c0-.834.058-1.727.276-2.564.06-.334.444-.668.78-.613.443.111.611.447.56.896-.11.781-.225 1.508-.225 2.285v.275c0 .447-.279.781-.614.781h-.057a.737.737 0 01-.725-.725c.005-.11.005-.167.005-.335zm.334 3.291c-.059-.391.224-.725.559-.836.334-.168.777.111.836.5.227.895.502 1.729.837 2.51.226.336 0 .779-.335.893-.059.111-.109.111-.275.111-.279 0-.447-.166-.613-.447-.454-.836-.733-1.782-1.009-2.731zm.722-8.697c.443-.893.837-1.785 1.396-2.564.224-.391.726-.391 1.005-.225.334.225.392.613.168 1.004a12.446 12.446 0 00-1.229 2.287c-.168.277-.394.502-.67.502-.111 0-.226-.059-.226-.059-.388-.166-.611-.556-.444-.945zm1.841 13.937c-.335-.279-.226-.668.108-.947.279-.223.672-.166.947.111.502.725 1.172 1.34 1.84 2.008.278.168.278.613.111.947-.168.107-.391.223-.611.223-.109 0-.277-.111-.393-.111-.774-.668-1.442-1.338-2.002-2.231zm1.505-18.734c.729-.723 1.507-1.281 2.396-1.783.278-.168.781-.055.894.223.226.336.058.781-.222 1.004-.78.395-1.449.947-2.176 1.51a.477.477 0 01-.393.223c-.225 0-.445-.055-.559-.223a.71.71 0 01.06-.954zm2.953 22.527c-.391-.168-.501-.563-.391-.896.225-.336.668-.502 1.006-.336.777.396 1.613.67 2.449.896.447.056.674.445.561.834-.059.336-.391.56-.669.56h-.167c-1.003-.278-1.951-.558-2.789-1.058zm2.179-25.482a12.181 12.181 0 012.896-.5c.392 0 .729.277.729.725 0 .395-.28.668-.729.668-.893.111-1.729.229-2.563.447-.056.055-.164.055-.164.055-.278 0-.612-.223-.671-.502-.114-.391.052-.78.502-.893zm3.511 25.426c.892 0 1.838-.111 2.619-.334.391-.111.727.111.894.502 0 .389-.167.729-.503.895-1.004.168-1.95.336-2.953.336-.447 0-.672-.279-.672-.729-.112-.336.223-.67.615-.67zm2.121-24.309c-.447-.113-.67-.391-.615-.781.059-.391.447-.613.836-.559 1.007.223 1.896.502 2.848.949.333.166.443.609.277.943a.756.756 0 01-.613.395c-.109 0-.277 0-.277-.111-.788-.334-1.679-.613-2.456-.836zm2.895 22.971c.778-.445 1.563-.893 2.175-1.506.278-.223.781-.168 1.007.111.276.279.276.67-.11.949-.672.668-1.508 1.227-2.344 1.672-.168.111-.226.111-.392.111-.167 0-.503-.111-.613-.334-.169-.39 0-.781.277-1.003zm1.784-20.742c-.278-.223-.393-.607-.166-.947.275-.334.668-.334.945-.107a9.569 9.569 0 012.119 2.119c.334.275.223.725-.058 1.004a1.27 1.27 0 01-.502.105c-.168 0-.392-.105-.558-.273-.496-.73-1.111-1.343-1.78-1.901zm2.175 17.285c.56-.668.946-1.451 1.339-2.287.111-.334.502-.502.895-.334.334.111.502.563.392.896-.392.943-.894 1.729-1.449 2.617-.11.111-.391.277-.56.277-.168 0-.277-.111-.444-.166-.34-.224-.398-.726-.173-1.003zm1.062-13.104a.754.754 0 01.277-.947c.393-.223.781-.111 1.004.279.393.836.779 1.838 1.006 2.729.055.393-.169.781-.503.895h-.225c-.278 0-.56-.223-.613-.557a11.492 11.492 0 00-.946-2.399zm1.058 8.309c.167-.836.223-1.783.223-2.678v-.557c0-.395.278-.668.727-.779.334 0 .727.277.727.725v.611c0 1.061-.109 2.008-.335 2.955-.058.336-.335.559-.726.559h-.11c-.339-.057-.562-.502-.506-.836zm10.54-15.668c0-.334.335-.668.726-.668.393 0 .672.334.672.668v1.953c0 .389-.279.723-.672.723a.738.738 0 01-.726-.723v-1.953zm0 4.795c0-.445.335-.723.726-.723.393 0 .672.277.672.723v2.789c0 .389-.279.723-.672.723a.738.738 0 01-.726-.723v-2.789zm0 5.631c0-.445.335-.725.726-.725.393 0 .672.279.672.725v2.732c0 .391-.279.727-.672.727a.74.74 0 01-.726-.727v-2.732zm0 5.576c0-.334.276-.725.726-.725.393 0 .672.279.672.725.108.838.223 1.729.443 2.51.109.445-.059.781-.443.896h-.169c-.336 0-.612-.111-.727-.447a12.704 12.704 0 01-.502-2.959zm1.782 5.687c-.276-.334-.109-.781.168-1.004.334-.227.779-.111 1.002.223.504.725 1.008 1.395 1.729 1.953a.704.704 0 010 1.002c-.108.111-.274.223-.442.223s-.394 0-.504-.166c-.723-.613-1.451-1.395-1.953-2.231zm4.461 3.903c-.334-.166-.502-.611-.334-.947.166-.391.559-.559.894-.275.781.336 1.617.611 2.51.777.392 0 .671.395.56.781-.057.393-.334.561-.67.561h-.166c-1.008-.173-1.956-.45-2.794-.897zm5.689-.334c.896-.111 1.729-.277 2.513-.613.334-.166.727.061.894.395.167.395-.058.775-.446.896-.893.389-1.84.557-2.843.725h-.058c-.336 0-.729-.279-.729-.613-.057-.456.225-.79.669-.79zm4.797-1.895a7.149 7.149 0 001.841-1.842c.277-.279.728-.334 1.004-.166.336.334.336.725.11 1.059a12.024 12.024 0 01-2.063 2.064c-.166.166-.334.166-.443.166a.69.69 0 01-.561-.279c-.28-.279-.224-.725.112-1.002zm3.177-4.07c.277-.781.445-1.619.611-2.51.112-.336.445-.615.78-.615.394.057.61.391.61.783-.108 1.002-.334 2.006-.777 2.898-.059.275-.334.443-.613.443-.056 0-.165 0-.275-.109-.336-.111-.502-.501-.336-.89zm.726-19.293c0-.334.275-.668.668-.668s.727.334.727.668v2.844c0 .445-.334.67-.727.67s-.668-.225-.668-.67v-2.844zm0 5.633c0-.336.275-.672.668-.672s.727.336.727.672v2.785c0 .449-.334.727-.727.727s-.668-.273-.668-.727v-2.785zm0 5.576c0-.338.275-.672.668-.672s.727.334.727.672v2.842c0 .445-.334.67-.727.67s-.668-.225-.668-.67v-2.842zm12.768-11.149c0-.391.276-.725.727-.725.334 0 .669.334.669.725v2.787c0 .445-.335.729-.669.729-.446 0-.727-.281-.727-.729v-2.787zm.723 9.755c-.446 0-.728-.334-.669-.779v-.223c-.059-.111-.059-.227-.059-.396v-2.781c0-.34.277-.676.728-.676.334 0 .669.336.669.676v.107c.058 0 .168 0 .277.055.334.111.56.506.445.896-.392.836-.613 1.672-.613 2.508-.109.447-.393.613-.727.613h-.051zm-.723 2.12v-.668c0-.393.276-.727.727-.727.334 0 .669.334.669.727v3.516c0 .391-.335.67-.669.67-.446 0-.727-.279-.727-.67v-2.848zm0 5.63v-.722c0-.336.276-.672.727-.672.334 0 .669.336.669.672v3.512a.675.675 0 01-.669.668c-.446 0-.727-.275-.727-.668v-2.79zm0 7.864v-3.007c0-.334.276-.67.727-.67.334 0 .669.336.669.67v3.509c0 .445-.335.729-.669.729-.446 0-.727-.279-.727-.729v-.502zm2.287-21.856a14.686 14.686 0 012.117-2.064c.278-.223.779-.168 1.005.111.224.391.109.781-.17 1.004-.668.557-1.28 1.115-1.896 1.84-.11.168-.334.279-.559.279-.113 0-.279-.111-.393-.111-.273-.28-.388-.725-.104-1.059zm4.681-3.459c.945-.334 1.949-.613 2.953-.725.392-.059.727.223.779.67 0 .334-.277.668-.613.775-.945 0-1.729.279-2.617.502-.059.113-.111.113-.168.113-.334 0-.613-.168-.613-.447-.167-.441 0-.776.279-.888zm5.688.725c-.391 0-.611-.389-.503-.725 0-.445.394-.613.728-.557 1.062.107 2.009.502 2.897.893.335.111.446.557.279.891a.73.73 0 01-.671.447c-.057 0-.225 0-.225-.057-.781-.39-1.668-.613-2.505-.892zm4.628 2.287c-.276-.225-.337-.613-.057-1.004.278-.223.67-.223 1.004-.055a18.037 18.037 0 011.952 2.285c.167.275.167.781-.229 1.002-.107.057-.222.057-.332.057-.336 0-.502-.057-.67-.277-.447-.782-1.055-1.395-1.668-2.008zm2.788 4.348c-.111-.389.111-.775.561-.834.332-.17.725.059.779.395.276 1 .5 2.006.5 2.949 0 .445-.277.729-.611.781h-.058c-.392 0-.726-.336-.726-.67 0-.948-.167-1.785-.445-2.621zm.445 5.353c0-.391.334-.668.727-.668.391 0 .668.277.668.668v2.844a.676.676 0 01-.668.668c-.393 0-.727-.334-.727-.668v-2.844zm0 5.631c0-.445.334-.725.727-.725.391 0 .668.279.668.725v2.787c0 .391-.277.727-.668.727a.74.74 0 01-.727-.727v-2.787zm0 5.631c0-.445.334-.723.727-.723.391 0 .668.277.668.723v1.842c0 .445-.277.729-.668.729-.393 0-.727-.279-.727-.729v-1.842zm10.713-10.869v-.113c0-.441.334-.723.727-.723.391 0 .67.277.67.723v.113c0 .836.168 1.672.276 2.453.11.445-.167.779-.56.891h-.108c-.394 0-.671-.223-.729-.557-.109-.893-.276-1.84-.276-2.787zm.895-2.287c-.393-.057-.613-.441-.561-.836.227-.947.561-1.896 1.004-2.787.168-.391.561-.502.947-.391.336.225.558.67.336 1.002a18.435 18.435 0 00-.84 2.455c-.108.391-.391.557-.725.557h-.161zm.334 7.974c-.166-.447 0-.781.336-1.004.334-.168.777 0 .893.334.443.836.893 1.617 1.339 2.342.335.279.224.781-.112 1.004-.056.055-.224.111-.445.111a.682.682 0 01-.558-.279 15.677 15.677 0 01-1.453-2.508zm1.67-14.162a12.675 12.675 0 012.118-2.119.718.718 0 011.005.111c.225.279.225.723-.168 1.004a19.587 19.587 0 00-1.839 1.896c-.11.166-.337.221-.56.221-.111 0-.278 0-.391-.109-.331-.223-.387-.67-.165-1.004zm1.837 18.846c-.276-.279-.334-.67-.055-.949.275-.391.668-.391.945-.166.725.668 1.449 1.115 2.229 1.504.334.227.502.615.334 1.006-.109.166-.442.334-.61.334-.167 0-.224 0-.392-.057a14.165 14.165 0 01-2.451-1.672zm2.735-22.526c.947-.502 1.844-.781 2.846-1.004.444-.061.777.166.836.502.109.441-.11.775-.502.836-.894.223-1.729.502-2.509.947-.059 0-.226.057-.278.057-.277 0-.56-.223-.668-.445-.172-.336-.058-.781.275-.893zm2.564 25.256c-.446-.111-.613-.502-.561-.891.11-.334.502-.613.895-.445.777.166 1.729.277 2.619.277.393 0 .727.334.727.67a.706.706 0 01-.727.725c-1.055 0-2.005-.168-2.953-.336zm5.857-24.754c-.838-.229-1.675-.395-2.62-.395-.393 0-.668-.336-.668-.725 0-.395.334-.672.668-.672 1.061 0 2.063.17 3.01.443.393.061.615.395.502.838-.109.277-.389.502-.668.502h-.224v.009zm-.282 23.418c.836-.229 1.729-.502 2.511-.949.335-.111.778 0 .944.277.168.336 0 .783-.334 1.006-.836.445-1.783.779-2.729 1.002-.109.057-.166.057-.226.057-.275 0-.559-.223-.668-.559-.11-.388.169-.779.502-.834zm2.789-22.414c-.392-.225-.502-.67-.276-1.004.167-.395.61-.502.896-.279.945.502 1.78 1.059 2.508 1.672.276.279.334.727.058 1.004-.167.223-.392.279-.56.279s-.276-.057-.443-.223c-.73-.56-1.403-1.06-2.183-1.449zm1.955 19.959a11.998 11.998 0 001.84-1.896c.225-.277.668-.332 1.004-.109.278.166.334.668.11.947a25.465 25.465 0 01-2.01 2.23c-.167.055-.392.111-.502.111-.224 0-.442-.061-.56-.279-.216-.279-.216-.668.118-1.004zm2.004-16.502c-.225-.279-.168-.729.11-1.004.392-.229.78-.168 1.004.223.445.611.836 1.283 1.228 1.951v-1.896c0-.445.279-.725.672-.725.39 0 .725.279.725.725v2.844c0 .334-.335.67-.725.67a.685.685 0 01-.561-.277c-.058.111-.111.111-.225.17-.109.061-.225.061-.278.061-.278 0-.558-.111-.612-.396a11.438 11.438 0 00-1.338-2.346zm2.339 13.157c-.109.113-.336.168-.502.168-.109 0-.223-.055-.276-.055-.392-.113-.502-.559-.392-.893.109-.168.109-.279.166-.447.11-.334.56-.502.895-.334 0 0 .059.055.109.055v-1.059c0-.447.279-.725.672-.725.39 0 .725.273.725.725v2.844c0 .336-.335.67-.725.67a.679.679 0 01-.672-.67v-.279zm0-30.832c0-.443.279-.725.672-.725.39 0 .725.277.725.725v2.787a.739.739 0 01-.725.729c-.393 0-.672-.334-.672-.729v-2.787zm0 5.63c0-.395.279-.729.672-.729.39 0 .725.334.725.729v2.844c0 .334-.335.725-.725.725-.393 0-.672-.391-.672-.725v-2.844zm0 5.688c0-.445.279-.725.672-.725.39 0 .725.279.725.725v2.789a.738.738 0 01-.725.723c-.393 0-.672-.334-.672-.723v-2.789zm0 11.262c0-.391.279-.668.672-.668.39 0 .725.277.725.668v2.844a.739.739 0 01-.725.729c-.393 0-.672-.334-.672-.729v-2.844zm0 11.318c0-.389.279-.668.672-.668.39 0 .725.279.725.668v2.846c0 .334-.335.723-.725.723-.393 0-.672-.389-.672-.723v-2.846z" fill="#AF9ECB"/></svg>