<svg xmlns="http://www.w3.org/2000/svg" width="376.032" height="344.714" viewBox="0 0 376.032 344.714">
  <g id="Group_5788" data-name="Group 5788" transform="translate(-1001.756 -229.858)">
    <g id="background" transform="translate(1001.756 229.858)">
      <path id="Path_724" data-name="Path 724" d="M287.632,342.906c6.946-11.633,10.867-36.447,43.244-50.171C358.137,281.176,450,278.656,460.515,183.392S389.954,44.884,292.469,55.545c-88.094,9.691-162.5,54.783-193.2,133.709-26.869,69.086-12.323,133.691,23.3,178.466S246.4,411.992,287.632,342.906Z" transform="translate(-85.403 -53.962)" fill="#ffe7aa"/>
      <path id="Path_725" data-name="Path 725" d="M264.517,111.316c-7.768,19.605-15.8,39.883-33.777,39.883-8.029,0-17.253-9.336-19.736-30.024q-.205-1.867-.448-4.145c-.3-2.819-.672-6.18-1.158-9.9-.579,1.55-1.139,3.1-1.718,4.631q.336,3,.616,5.6c.187,1.736.317,2.931.467,4.164,2.633,22.145,12.94,32.041,21.977,32.041,19.531,0,27.84-21.006,35.887-41.321,4.593-11.577,9.037-22.742,15.274-29.371-.187-.9-.355-1.867-.541-2.689C274.227,86.875,269.465,98.862,264.517,111.316Z" transform="translate(20.634 -31.217)" fill="#fff"/>
      <path id="Path_726" data-name="Path 726" d="M225.6,127.868c.56-1.512,1.1-3.006,1.643-4.5-3.361-21.79-11.633-52.748-37.1-67.368l-3.828.635C214.766,71.068,222.608,105.817,225.6,127.868Z" transform="translate(2.102 -52.195)" fill="#fff"/>
      <path id="Path_727" data-name="Path 727" d="M136.522,103.786A141.176,141.176,0,0,1,148.248,71.54c-1.176.654-2.353,1.288-3.529,1.867A149.755,149.755,0,0,0,134.3,103.282C135.028,103.488,135.775,103.618,136.522,103.786Z" transform="translate(-43 -38.719)" fill="#fff"/>
      <path id="Path_728" data-name="Path 728" d="M259.729,79.348c15.852,0,20.651,19.363,25.3,38.091a2.739,2.739,0,0,0,.187.747c.6-.784,1.176-1.606,1.736-2.427C282.378,97.385,277,77.07,259.729,77.07A18.467,18.467,0,0,0,248.19,81.1c.187.84.355,1.681.523,2.521a16.525,16.525,0,0,1,11.016-4.276Z" transform="translate(55.764 -33.923)" fill="#fff"/>
      <path id="Path_729" data-name="Path 729" d="M286.67,127.418c-9.168,0-12.846-13.406-16.506-28.008-.579.784-1.158,1.55-1.774,2.3,3.734,14.938,7.786,28.008,18.28,28.008,6.236,0,11.408-3.137,16.058-7.693a18.718,18.718,0,0,0-.168-3.081C297.892,123.889,292.776,127.418,286.67,127.418Z" transform="translate(73.281 -14.55)" fill="#fff"/>
      <path id="Path_730" data-name="Path 730" d="M130.651,155.067a1.12,1.12,0,0,0,1.139,1.083h0a1.139,1.139,0,0,0,1.083-1.176,276.549,276.549,0,0,1,6.33-64.791l-2.241-.392A278.006,278.006,0,0,0,130.651,155.067Z" transform="translate(-46.222 -22.892)" fill="#fff"/>
      <path id="Path_731" data-name="Path 731" d="M127.51,89.092l.5,2.2a36.317,36.317,0,0,1,11.633-.28c.168-.747.355-1.494.541-2.241a37.157,37.157,0,0,0-12.678.317Z" transform="translate(-48.889 -24.118)" fill="#ef6744"/>
      <path id="Path_732" data-name="Path 732" d="M205.8,172.4c-31.742,0-41.078-27.448-46.68-57.08-1.867-10.363-6.46-17.925-13.444-22.406a29.259,29.259,0,0,0-9.952-4.052c-.187.747-.373,1.494-.542,2.222a26.981,26.981,0,0,1,9.336,3.734c6.442,4.2,10.624,11.2,12.454,20.987,5.434,29.147,15.516,58.928,48.939,58.928,35.925,0,51.8-35.757,64.679-70.412-.187-1.531-.392-3.174-.616-4.873C257.014,134.531,241.666,172.4,205.8,172.4Z" transform="translate(-42.237 -23.699)" fill="#fd6b3b"/>
      <path id="Path_733" data-name="Path 733" d="M269.129,124.608c-12.23,0-14.807-15.255-17.794-32.937-.616-3.734-1.251-7.469-2-11.091a22.809,22.809,0,0,0-1.867,1.867c.616,3.212,1.158,6.442,1.7,9.616,3.025,17.906,5.882,34.823,20.035,34.823,7.693,0,13.07-3.734,17.4-8.944-.224-.934-.467-1.867-.691-2.8C281.7,120.575,276.467,124.608,269.129,124.608Z" transform="translate(55.139 -30.879)" fill="#fd6b3b"/>
      <path id="Path_734" data-name="Path 734" d="M274.178,100.168c-1.624,2.913-3.324,5.938-5.228,8.757l.28,1.139.448,1.867a105,105,0,0,0,6.479-10.587c4.183-7.469,7.8-13.929,13.164-14.265-.392-.71-.8-1.438-1.232-2.129C282.114,85.958,278.249,92.867,274.178,100.168Z" transform="translate(73.766 -27.09)" fill="#fd6b3b"/>
      <path id="Path_735" data-name="Path 735" d="M210.4,119.843C221.059,90.659,231.142,63.1,250.878,63.1s26.29,16.151,29.987,33.777a23.655,23.655,0,0,1,1.96-1.7c-3.884-18.037-10.867-34.338-31.948-34.338S219.21,89.147,208.25,119.022v.112c.261,1.643.485,3.212.691,4.743C209.389,122.551,209.893,121.188,210.4,119.843Z" transform="translate(21.128 -47.998)" fill="#fd6b3b"/>
      <path id="Path_736" data-name="Path 736" d="M208.993,92.08c-.541,1.494-1.083,2.988-1.643,4.5.224,1.7.429,3.342.616,4.873.579-1.531,1.139-3.081,1.718-4.631C209.479,95.292,209.255,93.8,208.993,92.08Z" transform="translate(20.348 -20.907)" fill="#ef6744"/>
      <path id="Path_737" data-name="Path 737" d="M269.806,97.79c-.56.822-1.139,1.643-1.736,2.427.224.934.467,1.867.691,2.8.616-.747,1.2-1.512,1.774-2.3l-.448-1.867Z" transform="translate(73.003 -15.955)" fill="#ef6744"/>
      <path id="Path_738" data-name="Path 738" d="M134.551,88.59c-.187.747-.373,1.494-.541,2.241l2.222.392c.168-.728.355-1.475.541-2.222C136.027,88.833,135.28,88.7,134.551,88.59Z" transform="translate(-43.252 -23.933)" fill="#ef6744"/>
      <path id="Path_739" data-name="Path 739" d="M249.1,79.23a23.644,23.644,0,0,0-1.961,1.7c.187.9.355,1.867.542,2.689a22.823,22.823,0,0,1,1.867-1.867A23.8,23.8,0,0,0,249.1,79.23Z" transform="translate(54.853 -32.05)" fill="#ef6744"/>
      <path id="Path_740" data-name="Path 740" d="M124.245,326.3a1.139,1.139,0,1,0,0-2.259h-8.552V310.449h8.552a1.139,1.139,0,1,0,0-2.278h-8.552V294.578h8.552a1.139,1.139,0,0,0,0-2.278h-8.552V278.707h8.552a1.139,1.139,0,1,0,0-2.259h-8.552V172.557h8.552a1.139,1.139,0,0,0,0-2.278h-8.552V156.686h8.552a1.139,1.139,0,0,0,0-2.278h-8.552V140.815h8.552a1.139,1.139,0,1,0,0-2.259h-8.552V124.963h8.552a1.139,1.139,0,0,0,0-2.278h-8.552v-16.8l4.444,6.834a1.176,1.176,0,0,0,.971.523,1.12,1.12,0,0,0,.616-.187,1.139,1.139,0,0,0,.336-1.568l-6.535-10.045h0a.934.934,0,0,0-.5-.336h-.579l-.28.112h0l-.205.205v.093h0l-6.031,10.045a1.139,1.139,0,0,0,1.867,1.176l3.921-6.535V337.43c.747.635,1.494,1.251,2.259,1.867V326.32Z" transform="translate(-65.92 -13.085)" fill="#fff"/>
    </g>
    <g id="Group_5636" data-name="Group 5636" transform="translate(1228.318 221.945)">
      <g id="Group_5633" data-name="Group 5633">
        <path id="Path_900" data-name="Path 900" d="M246.773,310.122c-20.026-5.688-22.914,13.444-52.777,14.221.777-4.53,1.569-9.324,2.17-13.5,1.642-11.42,2.36-19.059,2.36-19.059s.718-11.318-4.633-12.3c-4.618-.85-9.133,3.768-3.709,13.429,1.466,2.639-5.512,23.163-8.224,30.875-4.647-.645-4-5.219-7.917-10.262s-9.661-6.978-10.438-6.363,0,6.421,0,6.421a15.848,15.848,0,0,0-2.815,1.554c-.909.733-2.214,1.847-2.214,1.847s-4.853-2.785-5.7-2.111c-.572.454-.191,1.657.161,3.856a32.56,32.56,0,0,0,2.566,7.785c12.007,21.492,37.34,24.571,37.34,24.571s25.363-1.613,42.281-3.4a22.738,22.738,0,0,0,16.889-9.705,22.709,22.709,0,0,1-.894,9.573c-2.727,9.456-10.336,12.2-16.816,14.265-6.744,2.155-18.707,3.489-17.666,7.623.792,3.181,29.174,4.4,40.58-15.32C267.21,336.936,265.45,315.473,246.773,310.122Z" transform="translate(-152.58 -18.64)" fill="#fd6b3b"/>
        <path id="Path_901" data-name="Path 901" d="M164.7,321s-10.8,4.061-8.049,8.4c1.818,2.844,5.674,3.782,18.633,3.782s14.221-.191,14.221-.191,1.466,4.032,4.325,4.325c4.281.44,8.87-2.58,7.33-6.978-1.759-5.043-7.535-6.348-14.543-6.524S164.7,321,164.7,321Z" transform="translate(-150.893 0.756)" fill="#fd6b3b"/>
        <path id="Path_902" data-name="Path 902" d="M194.884,338.54h-.909c-2.668-.279-4.237-3.02-4.809-4.281-1.261,0-4.647.132-13.649.132-13.194,0-17.3-.894-19.381-4.193a3.489,3.489,0,0,1-.4-3.079c1.217-3.65,8.093-6.333,8.8-6.612l.235-.088h.235c.147,0,14.924,2.61,21.8,2.785,6.055.161,13.282,1.114,15.364,7.125a5.439,5.439,0,0,1-.836,5.336,8.459,8.459,0,0,1-6.451,2.874Zm-4.559-6.216.249.66c.352.968,1.686,3.533,3.577,3.738a6.817,6.817,0,0,0,5.864-2.17,3.665,3.665,0,0,0,.542-3.636c-1.349-3.885-5.586-5.718-13.722-5.864a208.938,208.938,0,0,1-21.815-2.785c-2.052.806-6.817,3.108-7.594,5.439a1.745,1.745,0,0,0,.205,1.554c1.466,2.287,4.5,3.372,17.886,3.372,12.432,0,14.045-.176,14.118-.176Z" transform="translate(-151.197 0.485)" fill="#fff"/>
        <path id="Path_903" data-name="Path 903" d="M161.407,307.522a.44.44,0,0,0-.513.381,2.023,2.023,0,0,1-.821,1.466,2.493,2.493,0,0,1-1.789.132.454.454,0,0,0-.279.85,3.71,3.71,0,0,0,1.07.147,2.712,2.712,0,0,0,1.466-.366,2.932,2.932,0,0,0,1.246-2.111A.454.454,0,0,0,161.407,307.522Z" transform="translate(-150.164 -5.528)" fill="#0b2238"/>
        <path id="Path_904" data-name="Path 904" d="M165.627,306.826a2.932,2.932,0,0,0,1.188-2.155.454.454,0,0,0-.894-.1,1.994,1.994,0,0,1-.777,1.466,2.448,2.448,0,0,1-1.774.191.425.425,0,0,0-.542.293.44.44,0,0,0,.293.557,3.34,3.34,0,0,0,.968.132A2.727,2.727,0,0,0,165.627,306.826Z" transform="translate(-147.816 -7.061)" fill="#0b2238"/>
        <path id="Path_905" data-name="Path 905" d="M168.955,309.688a.455.455,0,0,0-.63.073,1.935,1.935,0,0,1-1.363.792,1.3,1.3,0,0,1-1-.616.156.156,0,0,1-.132-.088v-1.862a.469.469,0,0,0-.249-.425.454.454,0,0,0-.484.073l-1.789,1.466a.4.4,0,0,0-.147.425.425.425,0,0,0,.308.337l1.569.484h0a2.742,2.742,0,0,1-.132,1.847.894.894,0,0,1-.718.308.469.469,0,0,0-.44.454.454.454,0,0,0,.454.44h0a1.759,1.759,0,0,0,1.466-.674,2.536,2.536,0,0,0,.41-1.569,1.877,1.877,0,0,0,.88.235h0a3.049,3.049,0,0,0,2.052-1.129.454.454,0,0,0-.059-.572Z" transform="translate(-147.654 -5.525)" fill="#0b2238"/>
        <path id="Path_906" data-name="Path 906" d="M216.5,304.7a13.37,13.37,0,0,0-8.957,15.672,29.819,29.819,0,0,0,6.495,13.9s-16.361.674-19.059,3.357a4.809,4.809,0,0,0-1.114,5.6h32.253s12.989-15.687,9.632-27.107A15.745,15.745,0,0,0,216.5,304.7Z" transform="translate(-133.553 -7.077)" fill="#fd6b3b"/>
      </g>
      <path id="Path_907" data-name="Path 907" d="M226.806,344.386H193.615l-.249-.469a5.732,5.732,0,0,1,1.275-6.656c2.39-2.39,13.37-3.269,17.871-3.533a32.384,32.384,0,0,1-5.571-12.916,14.338,14.338,0,0,1,9.6-16.64h0a16.654,16.654,0,0,1,20.363,12.036c3.46,11.728-9.251,27.268-9.793,27.855ZM194.729,342.6h31.227c1.789-2.272,12.124-15.995,9.207-25.964A14.939,14.939,0,0,0,217,305.814h0a12.593,12.593,0,0,0-8.342,14.66,29.321,29.321,0,0,0,6.275,13.444l1.349,1.466-1.964.088c-6.187.249-16.669,1.319-18.443,3.093a3.958,3.958,0,0,0-1.114,4.032Z" transform="translate(-133.832 -7.34)" fill="#fff"/>
    </g>
  </g>
</svg>
