<svg xmlns="http://www.w3.org/2000/svg" width="589.82" height="366.214" viewBox="0 0 589.82 366.214">
  <g id="Group_6408" data-name="Group 6408" transform="matrix(0.914, -0.407, 0.407, 0.914, -93.91, 76.925)" style="isolation: isolate">
    <g id="Group_6404" data-name="Group 6404" transform="translate(593.544 184.423)" style="isolation: isolate">
      <path id="Path_1728" data-name="Path 1728" d="M266.212,189.857l-4.831,109.016a9.519,9.519,0,0,0-.206-2.383,11.909,11.909,0,0,0-.8-2.438,17.04,17.04,0,0,0-1.386-2.475,23.873,23.873,0,0,0-1.954-2.518l4.431-104.637a19.491,19.491,0,0,1,2.092,1.357,10.132,10.132,0,0,1,1.5,1.36,4.984,4.984,0,0,1,.894,1.362,3.046,3.046,0,0,1,.264,1.355" transform="translate(-257.031 -184.423)" fill="#858585"/>
    </g>
    <g id="Group_6405" data-name="Group 6405" transform="translate(593.544 184.423)">
      <path id="Path_1729" data-name="Path 1729" d="M265.866,196.271c.029-.587.032-1.178.111-1.767l.007.01,0,.092a.625.625,0,0,0,0,.095v.095a.578.578,0,0,0,0,.09c-.124,2.894-.3,6.743-.427,9.635a.69.69,0,0,0,0-.1.675.675,0,0,0,0-.1v-.1c0-.034,0-.065-.007-.1-.019-.749.027-1.5.058-2.244l.25-5.606m-.23-3.006a13.814,13.814,0,0,1,.019,2.244l-.247,5.572a6.642,6.642,0,0,1-.167,1.723l-.024-.012q-.054-.124-.124-.255c-.039-.08-.085-.165-.131-.25s-.1-.165-.158-.252-.109-.165-.17-.25a8.824,8.824,0,0,1-.111-2.22l.242-5.514c.07-1.447.2-1.663.245-1.733l.041.01c.058.078.119.155.17.235s.107.158.158.233.1.158.136.237.082.155.121.23m-1.779-2.186a5.769,5.769,0,0,1,.184,2.206l-.235,5.488c-.075,1.435-.24,1.619-.3,1.689l-.058-.015c-.09-.085-.182-.17-.279-.252s-.192-.17-.291-.254-.2-.17-.308-.25-.216-.172-.322-.257a5.009,5.009,0,0,1-.279-2.181l.235-5.425c.056-1.115.23-1.781.441-1.692.112.08.221.158.325.238s.208.155.31.233l.3.235c.092.08.189.158.279.238m-1.99,95.46c.024-.492.041-.989.092-1.478l.012.007c0,.051,0,.1,0,.15v.148c0,.048,0,.1,0,.148s0,.1,0,.15c-.116,2.686-.276,6.268-.4,8.954,0-.053,0-.1,0-.153s0-.1,0-.155v-.153c0-.051,0-.1,0-.155,0-.754.031-1.5.063-2.254l.23-5.209m-.194-3.483a15.363,15.363,0,0,1,.014,2.254l-.228,5.185a5.967,5.967,0,0,1-.143,1.464l-.034-.044c-.036-.128-.07-.262-.109-.4s-.08-.264-.124-.4-.095-.267-.143-.4-.1-.267-.158-.4a8.923,8.923,0,0,1-.1-2.242l.223-5.134c.063-1.212.17-1.4.213-1.466a.32.32,0,0,0,.056.036c.056.128.107.259.158.39s.1.254.143.383.087.255.124.383.08.257.112.383m-1.651-3.607a6.468,6.468,0,0,1,.175,2.24l-.223,5.1c-.061,1.2-.189,1.357-.25,1.43a.154.154,0,0,1-.082-.046c-.085-.133-.17-.271-.259-.407s-.182-.272-.274-.407-.192-.276-.291-.412-.2-.276-.305-.41a5.129,5.129,0,0,1-.262-2.223l.213-5.051c.063-1.2.24-1.365.315-1.435a.17.17,0,0,1,.1.044c.107.126.208.259.313.393s.194.264.291.4.187.262.276.4.174.259.262.393m1.44-95.026-.734,17.355a19.285,19.285,0,0,1,2.068,1.559,10.639,10.639,0,0,1,1.481,1.549,5.9,5.9,0,0,1,.882,1.546,3.935,3.935,0,0,1,.25,1.534q.4-9.057.8-18.108a3.046,3.046,0,0,0-.264-1.355,4.984,4.984,0,0,0-.894-1.362,10.132,10.132,0,0,0-1.5-1.36,19.491,19.491,0,0,0-2.092-1.357m-3.725,87.965-.705,16.669a24.37,24.37,0,0,1,1.954,2.516,17.062,17.062,0,0,1,1.386,2.477,12.271,12.271,0,0,1,.81,2.436,9.767,9.767,0,0,1,.2,2.387q.382-8.671.768-17.342a8.28,8.28,0,0,0-.211-2.23,10.962,10.962,0,0,0-.822-2.266,15.361,15.361,0,0,0-1.406-2.31,22.865,22.865,0,0,0-1.975-2.337" transform="translate(-257.031 -184.423)" fill="#0a0909"/>
      <path id="Path_1730" data-name="Path 1730" d="M260.313,191.583a19.282,19.282,0,0,1,2.068,1.559,10.637,10.637,0,0,1,1.481,1.549,5.9,5.9,0,0,1,.882,1.546,3.934,3.934,0,0,1,.25,1.534q-1.625,36.783-3.258,73.566a8.28,8.28,0,0,0-.211-2.23,10.961,10.961,0,0,0-.822-2.266,15.362,15.362,0,0,0-1.406-2.31,22.873,22.873,0,0,0-1.975-2.337l2.991-70.611" transform="translate(-256.617 -174.228)" fill="#fff"/>
    </g>
    <path id="Path_1731" data-name="Path 1731" d="M266.212,189.857q-2.418,54.507-4.831,109.016a9.519,9.519,0,0,0-.206-2.383,11.909,11.909,0,0,0-.8-2.438,17.04,17.04,0,0,0-1.386-2.475,23.873,23.873,0,0,0-1.954-2.518l4.431-104.637a19.491,19.491,0,0,1,2.092,1.357,10.132,10.132,0,0,1,1.5,1.36,4.984,4.984,0,0,1,.894,1.362A3.046,3.046,0,0,1,266.212,189.857Z" transform="translate(336.513)" fill="none"/>
    <g id="Group_6406" data-name="Group 6406" transform="translate(20.687 184.423)">
      <path id="Path_1732" data-name="Path 1732" d="M88.118,205.1q2.992-.16,6.086-.31t6.307-.286q3.21-.134,6.53-.259t6.76-.235q16.517-.531,33.25-.623,17.037-.095,34.569.262,17.957.371,36.755,1.236,19.382.9,40.046,2.366c11.2.8,23.106,1.5,35.565,2.1,12.8.611,26.158,1.117,39.884,1.5,14.065.393,28.47.657,43,.78,14.831.124,29.731.1,44.451-.07q8.18-.1,16.189-.254,8.042-.156,15.869-.378,7.857-.218,15.462-.5,7.628-.28,14.962-.616,13.645-.633,26.131-1.454t23.625-1.84c7.4-.674,14.3-1.4,20.663-2.189,6.336-.783,12.119-1.619,17.316-2.5a165.371,165.371,0,0,0,18.344-4.014q7.09-2.083,10.255-4.324c2.077-1.466,2.9-2.967,2.492-4.506-.4-1.5-1.963-3.015-4.651-4.55,2.926,1.537,4.673,3.059,5.2,4.564.541,1.542-.194,3.056-2.23,4.533q-3.116,2.254-10.245,4.363a166.434,166.434,0,0,1-18.5,4.05c-5.231.892-11.053,1.733-17.432,2.526-6.4.79-13.348,1.525-20.8,2.206s-15.394,1.292-23.775,1.845q-12.54.833-26.286,1.464-7.37.342-15.028.62-7.635.276-15.522.5-7.853.215-15.929.376-8.031.156-16.249.255c-14.759.174-29.692.2-44.562.065-14.565-.126-29-.388-43.1-.783-13.758-.385-27.135-.892-39.962-1.51-12.48-.6-24.4-1.306-35.618-2.109q-20.676-1.476-40.013-2.366-18.8-.873-36.716-1.246-17.532-.36-34.535-.264-16.732.091-33.231.618-3.425.109-6.741.233t-6.513.262q-3.2.135-6.29.284t-6.069.308q-11.733.625-21.868,1.382c-6.736.492-12.943,1.013-18.581,1.529s-10.721,1.033-15.185,1.52-8.331.943-11.518,1.338c3.219-.424,7.107-.9,11.608-1.4,4.484-.5,9.586-1.028,15.248-1.551s11.886-1.049,18.644-1.546S80.274,205.515,88.118,205.1Z" transform="translate(-20.687 -184.423)" fill="#8b8b8b"/>
    </g>
    <g id="Group_6407" data-name="Group 6407" transform="translate(20.687 190.085)">
      <path id="Path_1733" data-name="Path 1733" d="M602.992,192.542a7.924,7.924,0,0,1-.024,1.765l-.252,5.655c-.031.742-.1,2.019-.158,2.286-.027.087-.058.177-.087.267s-.07.177-.109.264-.082.177-.133.267-.1.175-.15.264c-.058-.048-.16-.131-.1-1.748l.252-5.708a9.9,9.9,0,0,1,.274-2.305c.058-.087.107-.17.158-.252s.09-.165.131-.25.078-.167.109-.25.061-.167.087-.255m-1.67,2.322a.226.226,0,0,1,.056-.01c.058.08.2.279.136,1.8l-.25,5.742a6.141,6.141,0,0,1-.376,2.305c-.095.087-.191.175-.293.259s-.208.177-.315.262-.225.172-.342.259-.238.172-.364.257l-.078.015c-.07-.073-.288-.288-.235-1.8l.247-5.788a4.758,4.758,0,0,1,.494-2.329c.128-.08.25-.162.366-.245s.23-.162.339-.242.216-.167.318-.247l.3-.245m-3.628,2.266c.39-.032.443.977.419,1.83l-.247,5.815a3.788,3.788,0,0,1-.6,2.324c-.165.09-.332.172-.507.257s-.347.17-.526.25-.368.17-.555.252-.38.17-.577.25c-.361.095-.577-.616-.548-1.813l.247-5.861c.065-1.217.349-2.135.72-2.344.2-.08.388-.16.577-.24l.555-.238c.179-.08.356-.16.528-.24s.344-.16.511-.242m-5.638,2.211c.431-.082.681.63.65,1.859l-.235,5.883c-.073,1.234-.385,2.128-.819,2.337-.237.082-.48.165-.725.245l-.744.245c-.257.08-.511.16-.773.24s-.528.162-.8.24c-.492.082-.8-.642-.776-1.847l.228-5.919c.078-1.229.446-2.155.945-2.358.267-.075.536-.15.8-.233l.776-.225c.254-.082.5-.158.747-.233s.49-.158.727-.233m-7.664,2.123c.565-.073.9.652.885,1.891l-.223,5.938c-.075,1.243-.475,2.143-1.04,2.346-.31.078-.625.153-.943.233s-.64.153-.967.228l-.986.233c-.332.075-.671.15-1.011.225-.628.078-1.023-.662-1.013-1.876l.213-5.967c.078-1.241.536-2.169,1.166-2.368.339-.07.679-.143,1.016-.216s.664-.148.991-.221.647-.15.967-.223.635-.15.945-.223m-9.7,2.026c.7-.068,1.132.669,1.127,1.92l-.2,5.98c-.078,1.236-.574,2.157-1.268,2.351-.216.039-.431.082-.652.121s-.439.085-.659.121-.444.085-.667.124-.448.08-.674.124c-.148.024-.3.051-.439.08s-.3.051-.446.075-.3.053-.446.08-.3.053-.448.078c-.635.046-1.037-.715-1.033-1.937l.189-6.009c.075-1.243.528-2.157,1.171-2.329.148-.022.3-.051.448-.075s.3-.046.448-.075.3-.051.446-.075.3-.051.439-.078c.228-.036.456-.078.679-.116s.448-.082.671-.119.441-.08.662-.119.439-.08.654-.121m-10.2,1.687c.686-.041,1.108.717,1.105,1.975l-.179,6.011c-.073,1.26-.541,2.145-1.229,2.31-.371.058-.749.114-1.127.172s-.756.114-1.142.17-.768.112-1.154.165-.778.114-1.173.17c-.717.034-1.185-.732-1.193-1.963l.167-6.023c.07-1.253.582-2.167,1.311-2.327.393-.056.785-.109,1.176-.162s.776-.109,1.159-.165.768-.109,1.146-.165.759-.109,1.132-.167m-11.1,1.5c.768-.032,1.251.73,1.253,1.995l-.15,6.03c-.068,1.243-.606,2.145-1.362,2.3-.417.056-.841.1-1.263.16s-.851.1-1.277.153-.858.1-1.289.155-.87.1-1.306.148c-.8.029-1.321-.747-1.331-1.98l.133-6.038c.065-1.256.63-2.165,1.435-2.317l1.311-.15c.436-.051.865-.1,1.294-.15s.861-.1,1.282-.153.846-.1,1.27-.153m-12.332,1.369c.836-.019,1.386.771,1.4,2.017l-.124,6.04c-.065,1.243-.65,2.143-1.486,2.291-.458.046-.921.1-1.389.138l-1.4.143c-.475.041-.943.09-1.418.136l-1.43.133c-.87.019-1.447-.766-1.474-2l.107-6.043c.07-1.256.679-2.16,1.554-2.305.477-.044.955-.092,1.432-.133s.95-.09,1.423-.138.94-.09,1.408-.136.933-.092,1.394-.143m-13.479,1.241c.911-.015,1.517.783,1.546,2.031l-.095,6.043a2.172,2.172,0,0,1-1.6,2.271l-1.505.124c-.5.041-1.008.082-1.515.121s-1.016.08-1.529.124-1.025.075-1.542.114c-.938.007-1.566-.783-1.6-2.014l.068-6.04a2.185,2.185,0,0,1,1.66-2.286c.519-.039,1.035-.08,1.546-.119s1.025-.08,1.537-.124,1.013-.08,1.52-.124,1.011-.08,1.512-.121m-14.521,1.1c.989,0,1.626.778,1.663,2.043l-.058,6.035a2.144,2.144,0,0,1-1.7,2.249l-1.612.107c-.538.036-1.079.073-1.624.1l-1.631.1c-.545.036-1.093.07-1.638.1-1.006-.007-1.677-.8-1.721-2.031l.034-6.028a2.153,2.153,0,0,1,1.752-2.261l1.651-.1c.545-.034,1.093-.073,1.636-.1s1.088-.073,1.626-.107,1.081-.075,1.619-.109m-15.466.943c1.033,0,1.728.812,1.779,2.055l-.022,6.023a2.124,2.124,0,0,1-1.786,2.22q-.851.047-1.7.09c-.572.029-1.142.056-1.716.09s-1.146.053-1.721.08l-1.735.085a1.9,1.9,0,0,1-1.835-2.043l0-6a2.142,2.142,0,0,1,1.84-2.24c.584-.029,1.161-.058,1.745-.09s1.151-.058,1.728-.085,1.146-.063,1.721-.09,1.144-.065,1.711-.1m-15.755.768c.875.029,1.445.824,1.5,2.082l.012,5.994c-.039,1.226-.618,2.082-1.471,2.179-.473.017-.945.041-1.42.056l-1.423.056c-.475.019-.95.039-1.43.053s-.953.036-1.432.051c-.873-.029-1.469-.839-1.52-2.058l-.039-5.98c.036-1.236.628-2.1,1.5-2.2l1.44-.058,1.435-.056c.475-.024.953-.044,1.428-.063s.953-.036,1.423-.061m-13.438.521c.887.032,1.5.848,1.551,2.082l.051,5.965c-.034,1.226-.628,2.075-1.512,2.162l-1.462.044-1.469.044-1.471.041-1.474.044c-.9-.041-1.517-.853-1.578-2.07l-.07-5.946c.031-1.231.635-2.082,1.532-2.172.494-.019.989-.034,1.483-.049s.984-.032,1.479-.046.982-.034,1.471-.051l1.469-.048m-13.838.419c.916.036,1.551.853,1.612,2.08l.082,5.936c-.031,1.217-.637,2.055-1.546,2.135-.5.015-1,.024-1.5.034s-1,.022-1.5.032l-1.508.029-1.51.029c-.919-.044-1.556-.853-1.624-2.065l-.1-5.909c.024-1.224.638-2.07,1.556-2.152l1.517-.036c.5-.01,1.008-.024,1.512-.034s1.006-.027,1.51-.039,1-.029,1.5-.039m-14.153.315c.931.046,1.578.86,1.648,2.082l.112,5.9c-.022,1.207-.635,2.036-1.559,2.114-.509,0-1.023.012-1.532.019s-1.023.012-1.534.017-1.025.015-1.539.019-1.025.012-1.539.019c-.936-.053-1.59-.863-1.663-2.065l-.138-5.871c.019-1.217.637-2.048,1.578-2.128l1.542-.022c.516-.007,1.033-.017,1.544-.027s1.03-.019,1.542-.027l1.539-.029m-14.427.216c.948.053,1.607.868,1.687,2.08l.145,5.856c-.017,1.2-.633,2.017-1.573,2.082-.385,0-.773,0-1.159.01s-.768,0-1.156,0-.773,0-1.161,0-.768,0-1.159,0h-.335l-.337,0h-.337c-.112,0-.225,0-.337,0-.795-.058-1.362-.868-1.435-2.06l-.167-5.832c.007-1.2.526-2.026,1.323-2.1h.335c.114,0,.228,0,.339,0h.339c.111,0,.223,0,.335,0,.39,0,.778-.01,1.166-.01l1.161-.015c.39,0,.778-.007,1.163-.01l1.161-.015m-12.977.1c.8.058,1.362.873,1.44,2.075l.175,5.817c0,1.188-.519,2-1.306,2.058l-1.311,0c-.439,0-.875,0-1.311,0l-1.311,0-1.311,0c-.8-.063-1.365-.87-1.442-2.055l-.2-5.786c0-1.2.514-2.017,1.309-2.077.439,0,.88,0,1.319,0s.875,0,1.314,0l1.319,0,1.316-.007m-12.243.024c.8.061,1.369.873,1.452,2.07l.2,5.771c0,1.183-.509,1.983-1.3,2.034-.439,0-.875,0-1.311-.007l-1.306-.01-1.311-.01-1.311-.015c-.8-.068-1.36-.873-1.447-2.051l-.221-5.742c0-1.188.5-1.992,1.3-2.051h1.314c.439,0,.875,0,1.314,0s.875,0,1.314,0h1.314m-12.216-.046c.8.065,1.374.875,1.462,2.058l.228,5.73c.007,1.173-.5,1.963-1.287,2.012-.436,0-.87-.01-1.306-.017l-1.3-.019c-.431-.007-.868-.012-1.3-.017s-.87-.015-1.3-.024c-.793-.07-1.36-.87-1.449-2.038l-.25-5.7c-.007-1.18.494-1.978,1.282-2.029l1.3.015c.436,0,.87,0,1.306.01l1.3.01c.439,0,.873.007,1.306.01m-12.136-.116c.79.068,1.362.873,1.457,2.051l.252,5.684c.015,1.163-.482,1.944-1.265,1.985-.429-.01-.863-.015-1.289-.022l-1.292-.029c-.429-.01-.863-.019-1.292-.024l-1.287-.029c-.788-.075-1.36-.875-1.452-2.031l-.274-5.65c-.015-1.171.482-1.956,1.265-2,.431,0,.86.012,1.292.019l1.3.015c.429.01.858.015,1.292.019s.868.015,1.3.017m-12.022-.184c.785.078,1.353.877,1.447,2.041l.279,5.635c.019,1.154-.468,1.925-1.236,1.963-.429-.01-.856-.022-1.282-.034s-.853-.019-1.28-.032-.848-.024-1.275-.034-.848-.024-1.272-.036c-.773-.078-1.34-.873-1.44-2.021l-.3-5.6c-.022-1.156.463-1.932,1.231-1.975.427.007.853.015,1.277.024s.856.019,1.28.024.858.019,1.285.024.856.017,1.282.022m-11.867-.24c.768.075,1.333.87,1.435,2.026l.305,5.585c.022,1.142-.456,1.905-1.217,1.937-.419-.012-.841-.024-1.26-.039s-.841-.027-1.258-.041-.839-.027-1.26-.041-.836-.024-1.256-.039c-.761-.085-1.319-.873-1.42-2.012l-.32-5.551c-.029-1.149.444-1.915,1.2-1.951.422.012.839.022,1.26.031l1.263.032,1.26.029c.424.012.846.019,1.27.034m-11.69-.308c.759.08,1.323.87,1.425,2.017l.327,5.534c.029,1.132-.436,1.881-1.19,1.91l-1.239-.044c-.412-.015-.824-.034-1.234-.049s-.822-.034-1.234-.046-.819-.034-1.229-.049c-.751-.09-1.3-.87-1.408-2l-.342-5.5c-.036-1.134.427-1.891,1.168-1.927.41.012.824.027,1.231.041s.824.024,1.239.039.827.022,1.239.034.831.022,1.246.036m-11.467-.364c.744.085,1.294.87,1.4,2.007l.349,5.475c.036,1.122-.417,1.861-1.149,1.886-.4-.015-.812-.034-1.214-.051s-.8-.034-1.209-.053-.8-.034-1.2-.053l-1.207-.056c-.73-.085-1.275-.868-1.386-1.985l-.364-5.441c-.039-1.122.4-1.871,1.132-1.9l1.21.044c.4.015.807.027,1.212.044s.807.029,1.212.041l1.217.044m-11.215-.417c.727.085,1.268.865,1.382,1.992l.371,5.42c.039,1.113-.4,1.842-1.115,1.861l-1.183-.058-1.183-.056c-.4-.022-.785-.044-1.178-.061s-.78-.039-1.173-.061c-.717-.092-1.256-.868-1.372-1.971l-.383-5.388c-.041-1.113.39-1.849,1.1-1.874.39.015.78.032,1.176.048s.788.032,1.183.051.793.032,1.185.046.793.034,1.188.049m-10.941-.47c.708.087,1.241.868,1.36,1.975l.388,5.369c.046,1.1-.376,1.818-1.074,1.835-.385-.017-.773-.041-1.154-.063s-.771-.046-1.151-.063-.766-.044-1.151-.068-.761-.041-1.144-.065c-.693-.095-1.219-.863-1.336-1.956l-.4-5.33c-.048-1.1.366-1.828,1.054-1.852l1.146.058c.383.019.768.036,1.154.051l1.156.058c.383.019.768.031,1.154.051m-10.636-.516c.688.09,1.212.858,1.331,1.961l.407,5.311c.046,1.086-.361,1.8-1.037,1.808-.371-.022-.747-.046-1.117-.07l-1.12-.07c-.371-.022-.747-.046-1.115-.065l-1.108-.073c-.679-.1-1.19-.86-1.309-1.944l-.419-5.269c-.051-1.093.347-1.808,1.013-1.828.368.024.739.041,1.113.061s.747.039,1.117.063l1.12.056c.376.019.749.039,1.125.061m-10.318-.567c.667.092,1.176.858,1.3,1.946l.424,5.255c.053,1.071-.339,1.772-1,1.781l-1.086-.073-1.081-.075c-.356-.024-.717-.048-1.074-.075s-.715-.048-1.074-.075c-.65-.1-1.151-.856-1.275-1.927l-.436-5.214c-.058-1.081.32-1.786.967-1.8.359.022.72.041,1.074.065l1.081.061c.364.024.722.046,1.086.068s.725.039,1.088.061m-9.974-.608c.642.1,1.139.856,1.265,1.929l.441,5.2c.058,1.062-.315,1.752-.948,1.757-.347-.024-.7-.051-1.047-.078s-.7-.056-1.04-.078-.693-.056-1.04-.082-.693-.051-1.035-.08c-.633-.1-1.122-.851-1.243-1.912l-.453-5.155c-.061-1.064.3-1.76.926-1.769l1.04.068,1.04.068c.349.022.7.046,1.045.07s.7.044,1.049.065m-9.608-.647c.618.095,1.1.848,1.224,1.912l.456,5.139c.063,1.045-.288,1.728-.9,1.731-.339-.027-.671-.056-1.008-.085s-.667-.053-1-.082-.667-.053-1-.082l-.994-.085c-.606-.1-1.079-.848-1.2-1.893l-.465-5.1c-.063-1.05.279-1.738.875-1.748l1,.075,1,.073,1.008.07c.335.027.671.051,1.013.075m-9.327-.7c.182.029,1.081.254,1.277,1.9l.47,5.08c.109,1.624-.766,1.7-.938,1.7-.354-.029-.71-.061-1.059-.095s-.705-.058-1.057-.09l-1.052-.09-1.052-.09c-.64-.107-1.134-.843-1.265-1.876l-.478-5.039c-.068-1.037.3-1.716.926-1.721.351.024.7.053,1.054.08s.7.049,1.054.078.705.051,1.059.08.708.056,1.059.08m-9.763-.717c.637.1,1.132.831,1.263,1.874l.485,5.012c.068,1.028-.3,1.689-.916,1.692l-1.033-.087c-.344-.024-.683-.053-1.03-.08s-.684-.056-1.025-.082l-1.023-.08c-.623-.1-1.113-.826-1.241-1.849l-.494-4.976c-.068-1.025.284-1.7.9-1.709l1.023.073c.342.022.686.046,1.03.07l1.028.07,1.035.073m-9.521-.645c.618.095,1.1.817,1.239,1.842l.5,4.959c.07,1.013-.274,1.672-.882,1.677l-1.006-.075c-.337-.024-.669-.048-1-.075l-1-.073-1-.073c-.608-.095-1.088-.807-1.222-1.82l-.5-4.918c-.075-1.018.264-1.687.868-1.7.332.019.664.039,1,.063l1,.061,1.008.065c.334.019.669.044,1.008.063m-9.3-.57c.606.087,1.086.8,1.219,1.813l.509,4.9c.075,1-.259,1.658-.853,1.665-.327-.019-.657-.041-.986-.066s-.652-.041-.982-.065-.65-.044-.977-.063-.654-.046-.982-.065c-.6-.09-1.069-.795-1.207-1.794l-.514-4.867c-.08-1.008.255-1.665.841-1.685l.979.056c.327.015.654.034.984.053l.984.056.984.061m-9.1-.507c.594.082,1.064.785,1.2,1.791l.519,4.852c.08.989-.247,1.636-.827,1.651-.322-.017-.642-.036-.965-.056s-.642-.041-.962-.061l-.962-.058-.955-.056c-.589-.087-1.054-.778-1.192-1.767l-.526-4.819c-.082-.994.238-1.653.814-1.675.318.017.637.032.96.051s.642.029.96.048l.97.046c.32.019.642.034.965.051m-8.915-.439c.579.075,1.045.771,1.185,1.765l.533,4.8c.08.984-.238,1.629-.8,1.646-.315-.015-.633-.032-.945-.051l-.945-.051c-.315-.015-.63-.034-.94-.048s-.628-.034-.943-.051c-.574-.08-1.037-.764-1.173-1.743l-.54-4.773c-.085-.984.228-1.638.79-1.665.315.015.63.029.943.041l.943.044.95.041.948.044m-8.755-.373c.574.07,1.033.751,1.176,1.735l.543,4.76c.085.974-.225,1.617-.785,1.636l-.928-.044c-.308-.012-.616-.027-.928-.041s-.613-.032-.919-.046l-.923-.039c-.567-.08-1.023-.754-1.163-1.723l-.553-4.726c-.085-.994.208-1.626.771-1.655.308.01.618.024.926.034s.618.022.926.034.618.022.928.036.62.024.931.039m-8.6-.318c.565.065,1.02.742,1.163,1.719l.553,4.714c.087.979-.206,1.6-.761,1.629-.305-.01-.608-.024-.911-.036l-.911-.036c-.3-.012-.606-.027-.909-.036s-.606-.024-.907-.036c-.557-.073-1.013-.734-1.156-1.7l-.562-4.69c-.087-.967.208-1.614.756-1.648l.911.029c.3.007.606.019.909.029l.911.032.914.029m-8.457-.257c.555.063,1,.73,1.151,1.7l.565,4.676c.087.957-.2,1.592-.742,1.624l-.9-.034-.9-.027c-.3-.01-.6-.019-.894-.034s-.6-.017-.894-.027c-.548-.068-.994-.727-1.142-1.677l-.574-4.649c-.09-.962.2-1.6.734-1.643.3.01.6.015.9.024s.6.015.9.024.6.015.9.019l.9.027m-8.331-.2c.543.061.991.717,1.139,1.68l.574,4.639c.095.945-.191,1.58-.722,1.614-.3-.01-.594-.015-.89-.024s-.589-.017-.887-.024-.589-.017-.882-.024l-.885-.022c-.541-.063-.984-.71-1.127-1.658l-.587-4.615c-.095-.955.184-1.6.717-1.634l.885.015c.3.01.589.015.885.019s.594.012.887.017.6.01.892.017m-8.224-.143c.541.056.984.708,1.132,1.655l.589,4.608c.092.94-.187,1.573-.713,1.609-.291,0-.584-.015-.875-.019s-.582-.01-.875-.017l-.873-.017-.868-.017c-.536-.058-.979-.7-1.125-1.638l-.594-4.583c-.1-.948.177-1.585.7-1.629.293,0,.584.01.875.01l.873.015c.293,0,.587,0,.877.01l.877.015m-8.122-.092c.531.048.972.7,1.125,1.641l.6,4.571c.095.938-.177,1.566-.7,1.607-.288,0-.577-.01-.863-.012l-.865-.015-.863-.007c-.286-.007-.574-.007-.858-.01-.531-.053-.97-.693-1.12-1.624l-.606-4.552c-.1-.94.174-1.58.691-1.622.284,0,.572,0,.86,0s.577,0,.865,0,.577,0,.863,0l.868.007m-8.033-.041c.528.051.967.688,1.12,1.629l.608,4.54c.1.928-.167,1.556-.679,1.6l-.856-.007c-.286,0-.572,0-.858,0s-.57,0-.851,0-.567,0-.853,0c-.526-.046-.965-.679-1.115-1.607l-.616-4.523c-.1-.933.162-1.571.676-1.619h3.422m-7.95.015c.524.046.96.676,1.113,1.609l.623,4.516c.1.923-.167,1.549-.674,1.6-.281,0-.565,0-.846,0h-.848c-.284,0-.565,0-.851,0s-.56,0-.843,0c-.519-.046-.955-.671-1.108-1.59l-.628-4.5c-.1-.933.155-1.566.662-1.617.286,0,.567,0,.851-.007s.565,0,.848,0,.567,0,.851,0,.57,0,.851,0m-7.885.065c.519.039.953.667,1.11,1.595l.63,4.489c.107.919-.155,1.544-.659,1.595-.279,0-.562,0-.844,0s-.557,0-.841,0-.56,0-.839.007-.562.007-.843.007c-.514-.044-.945-.662-1.1-1.578l-.637-4.472c-.107-.923.15-1.559.654-1.609l.843-.015c.279,0,.56,0,.841-.01s.562-.01.841-.01.565-.007.846-.01m-7.834.114c.519.039.955.657,1.113,1.58l.645,4.465c.1.914-.153,1.539-.654,1.592-.279,0-.557.007-.834.012s-.56.007-.836.012-.555.007-.836.012l-.831.015c-.514-.041-.945-.654-1.105-1.563l-.647-4.453c-.109-.933.136-1.549.642-1.612l.836-.012c.279,0,.56-.015.839-.019l.836-.015.834-.015m-7.776.16c.509.036.945.65,1.105,1.573l.654,4.44c.109.914-.145,1.539-.642,1.592l-.829.017c-.279,0-.555.01-.831.019l-.829.015c-.276.01-.555.012-.831.017-.511-.032-.945-.637-1.105-1.546l-.662-4.431c-.109-.919.143-1.549.64-1.609.276,0,.557-.015.834-.019s.555-.019.831-.024l.834-.022.831-.022m-7.989.223c.633.029,1.151.635,1.319,1.549l.667,4.423c.1.906-.233,1.532-.851,1.6l-1.028.029-1.02.029c-.344.01-.681.019-1.02.027s-.674.022-1.013.034c-.613-.029-1.12-.63-1.292-1.532l-.671-4.409c-.109-.914.216-1.549.817-1.614.337-.015.674-.024,1.013-.036s.681-.022,1.023-.032.684-.022,1.025-.036l1.033-.029m-9.385.327c.6.024,1.105.625,1.275,1.534l.676,4.4c.109.9-.2,1.532-.793,1.6l-.977.036c-.327.01-.65.024-.974.039s-.645.019-.967.032-.645.027-.965.039c-.587-.022-1.079-.618-1.248-1.515l-.684-4.392c-.111-.911.187-1.544.761-1.617.32-.012.642-.027.965-.036l.974-.044c.322-.012.647-.027.974-.036s.654-.029.982-.039m-8.939.381c.582.017,1.066.618,1.239,1.522l.688,4.39c.114.9-.179,1.525-.742,1.595-.313.015-.623.029-.931.041l-.923.044-.921.044c-.308.012-.611.027-.916.041-.57-.022-1.028-.6-1.2-1.505l-.7-4.38c-.119-.907.158-1.539.705-1.612l.916-.044c.305-.019.613-.034.926-.048l.926-.041c.31-.015.62-.034.931-.046m-10.064.514a1.773,1.773,0,0,1,1.769,1.483l.705,4.37A1.369,1.369,0,0,1,85.6,213.5c-.482.024-.957.051-1.432.075s-.95.053-1.42.08-.94.053-1.406.082-.933.051-1.391.08a1.7,1.7,0,0,1-1.7-1.459l-.717-4.36a1.342,1.342,0,0,1,1.2-1.651c.461-.029.928-.056,1.394-.082s.938-.056,1.411-.085l1.423-.082c.478-.027.955-.053,1.44-.082m-12.878.8a1.7,1.7,0,0,1,1.655,1.469l.725,4.356a1.328,1.328,0,0,1-1.132,1.636l-1.311.087c-.436.032-.873.061-1.3.09l-1.287.09c-.424.032-.851.061-1.273.095a1.653,1.653,0,0,1-1.588-1.449l-.737-4.351a1.316,1.316,0,0,1,1.064-1.653l1.277-.092c.431-.032.858-.063,1.289-.092l1.3-.092c.436-.029.875-.058,1.314-.092m-11.743.87a1.624,1.624,0,0,1,1.532,1.454l.744,4.348c.114.892-.276,1.537-1,1.641-.4.032-.8.061-1.193.094s-.79.063-1.178.095l-1.168.1c-.383.032-.771.061-1.154.095-.708.015-1.265-.54-1.457-1.44l-.759-4.346c-.124-.916.233-1.551.928-1.655.381-.034.766-.068,1.156-.1s.776-.065,1.168-.1.785-.068,1.183-.095.8-.068,1.195-.1m-10.614.9c.667-.012,1.219.557,1.413,1.452l.761,4.346c.121.892-.218,1.539-.863,1.643l-1.071.1c-.354.034-.705.061-1.054.1l-1.042.095-1.033.1c-.62.015-1.146-.548-1.336-1.44l-.773-4.346c-.131-.9.179-1.551.79-1.656.342-.034.686-.068,1.03-.1s.7-.068,1.05-.1.7-.065,1.057-.1.713-.068,1.071-.1m-9.453.909c.589-.015,1.1.555,1.285,1.452l.783,4.346c.128.894-.16,1.539-.732,1.646-.315.034-.63.063-.94.1s-.62.065-.928.095-.611.068-.911.1l-.9.095c-.545.012-1.018-.553-1.207-1.442l-.79-4.351c-.136-.919.109-1.551.652-1.655l.9-.095.919-.095c.3-.034.613-.063.926-.1l.945-.095m-8.241.875c.509-.01.957.562,1.146,1.464l.8,4.348c.138.9-.09,1.539-.579,1.643l-.807.09c-.267.031-.533.063-.793.09s-.524.063-.778.092-.511.061-.764.09c-.473.01-.882-.545-1.074-1.452l-.8-4.358c-.148-.916.046-1.549.5-1.648l.768-.09c.259-.027.514-.058.78-.09s.526-.058.8-.09.536-.061.812-.09m561.382,7.81c.255-3.454.94-5.628,2.041-6.45a29.9,29.9,0,0,0,3.313-1.653,15.108,15.108,0,0,0,2.373-1.694,6.972,6.972,0,0,0,1.432-1.723,3.932,3.932,0,0,0,.526-1.75q-1.64,36.852-3.284,73.706a7.461,7.461,0,0,1-.548,2.5,9.85,9.85,0,0,1-1.425,2.434,15.344,15.344,0,0,1-2.327,2.344,25.758,25.758,0,0,1-3.241,2.249c-.2-.012-.453-.029-.645-.039-.776-.919-.911-2.2-.9-4.377l2.683-65.55m-4.176-4.222c1.735-.095,2.041,2.681,1.988,5.029l-2.632,65.766c-.191,3.238-1.1,5.672-2.378,6.348-1.108.453-2.288.9-3.534,1.333s-2.562.865-3.948,1.282-2.838.827-4.358,1.224-3.117.783-4.77,1.159q-4.087.931-8.67,1.762-4.6.836-9.666,1.561t-10.6,1.357q-5.526.625-11.482,1.139c-3.473-.172-4.072-3.328-4.118-5.2l.948-67.348c.175-3.4,1.905-5.854,4.414-6.241q6.144-.531,11.852-1.125t10.944-1.251q5.228-.651,9.967-1.367t8.946-1.479c1.706-.313,3.342-.623,4.913-.945s3.061-.645,4.491-.977,2.778-.662,4.06-1,2.5-.681,3.633-1.028M516.168,224.19c2.661-.015,4.37,2.111,4.465,5.548l-.814,67.324c-.17,3.27-1.878,5.5-4.462,5.824-2.443.148-4.935.291-7.461.417s-5.09.238-7.7.342-5.238.189-7.911.267-5.378.136-8.12.189q-5.312.1-10.786.133t-11.07.007q-5.592-.025-11.314-.112t-11.53-.242c-2.5-.223-4.251-2.387-4.45-5.514l-1.5-65.531c.051-3.3,1.75-5.56,4.324-5.761q6.006-.058,11.891-.165,5.9-.1,11.673-.245,5.784-.145,11.421-.327t11.137-.407q4.239-.171,8.379-.371t8.171-.41q4.036-.222,7.948-.461t7.705-.507M424,227.179c2.611.158,4.436,2.39,4.649,5.684l1.626,65.373c-.051,3.115-1.714,5.165-4.234,5.228l-.558-.022-.56-.017c-.182-.01-.368-.015-.558-.024l-.557-.022q-7.73-.3-15.537-.708-7.751-.4-15.532-.9-7.719-.5-15.423-1.079-7.646-.585-15.236-1.246c-2.986-.691-3.694-3.721-3.851-5.468l-3.4-62.423c-.065-3.139,1.258-5.226,3.369-5.32q7.788.24,15.655.427,7.915.182,15.861.3,8,.124,15.985.179,8.031.051,16.007.036h1.726l.57,0m-77.075-1.326c3.039.565,3.769,3.721,3.934,5.553l3.5,62.232c.063,2.964-1.212,4.845-3.246,4.8q-7.639-.731-15.154-1.549-7.446-.8-14.732-1.685-7.221-.869-14.247-1.808-6.959-.931-13.707-1.917c-2.581-.776-3.279-3.65-3.466-5.294l-4.838-58.611c-.087-1.718.145-4.632,2.715-4.872q6.886.487,14.017.931,7.188.444,14.584.839,7.457.4,15.1.747,7.7.349,15.546.637M278.1,221.984c2.577.625,3.292,3.6,3.49,5.315l4.9,58.4c.141,2.736-.9,4.489-2.6,4.358-1.573-.247-3.141-.492-4.693-.747s-3.09-.5-4.615-.754-3.03-.511-4.523-.771-2.969-.516-4.438-.778q-4.152-.738-8.243-1.435-4.068-.687-8.074-1.333-3.981-.647-7.911-1.248-3.9-.6-7.761-1.156c-2.346-.71-3.047-3.384-3.258-4.916L224.555,222.3c-.206-2.693.727-4.52,2.32-4.547q3.923.273,7.9.574,4,.3,8.057.633c2.72.221,5.466.451,8.222.691q4.174.36,8.406.756,2.24.2,4.523.407t4.615.4q2.334.2,4.7.393c1.585.128,3.187.252,4.8.378m-59.9-4.809c2.356.543,3.078,3.3,3.294,4.9l5.868,54.432c.119,1.515-.019,4.062-2.254,4.133q-5.908-.8-11.722-1.505-5.763-.7-11.438-1.314-5.635-.607-11.193-1.13-5.523-.52-10.978-.957c-2.118-.526-2.816-3.032-3.044-4.484l-6.632-51.734c-.15-1.512-.1-4.1,1.966-4.423q5.552.149,11.171.344,5.657.2,11.387.456,5.777.262,11.644.579,5.919.316,11.93.7m-53.95-2.254c2.143.417,2.86,3.013,3.1,4.525l6.673,51.615c.148,1.44.087,3.885-1.92,4.1q-5.355-.374-10.672-.674-5.279-.3-10.524-.516-5.225-.222-10.41-.364-5.166-.149-10.316-.218c-2.012-.373-2.727-2.775-2.974-4.171l-7.4-49.928c-.3-2.506.393-4.225,1.765-4.375q5.243-.1,10.507-.153,5.286-.047,10.6-.046,5.337,0,10.718.053,5.41.047,10.861.155m-50.462.165c2.225.286,3.389,4.215,3.4,4.251L124.64,269.2c0,.036-.114,3.82-2.082,4.121q-3.1-.011-6.1,0t-5.9.056q-2.9.044-5.715.1t-5.519.145q-4.657.142-9.055.337t-8.517.436q-4.119.24-7.982.516t-7.451.577c-2.7-.109-3.59-2.419-3.881-3.786l-8.568-48.978c-.2-1.44-.133-3.944,2.5-4.523q3.672-.313,7.618-.616t8.163-.587q4.217-.284,8.7-.543t9.242-.494q2.774-.138,5.635-.259t5.827-.237q2.963-.113,6.021-.208t6.22-.179m485.129,68.856c.036.1.046.138-.012,1.462l-.233,5.257c-.041.851-.1,1.939-.157,2.3-.027.136-.058.271-.09.407s-.073.271-.114.407-.085.269-.133.4-.1.274-.155.4l-.031.049c-.041-.078-.121-.208-.068-1.505l.233-5.306a11.7,11.7,0,0,1,.271-2.305c.051-.131.1-.259.15-.39s.095-.262.136-.39.078-.264.112-.393.065-.264.092-.4m-1.672,3.609c.019-.01.041-.029.061-.041.056.046.189.145.141,1.551l-.238,5.328a7.37,7.37,0,0,1-.364,2.3c-.095.131-.189.262-.288.388s-.206.262-.313.39-.218.254-.33.383-.233.257-.359.383c-.022.015-.051.029-.073.044-.073-.039-.284-.153-.238-1.544l.23-5.374a5.277,5.277,0,0,1,.48-2.31c.124-.121.242-.247.356-.368s.228-.247.33-.376.216-.25.315-.373.2-.252.288-.378m-3.546,3.427c.288-.16.446.439.414,1.551l-.23,5.4a4.168,4.168,0,0,1-.577,2.3c-.162.124-.325.245-.494.366s-.337.245-.514.364-.354.242-.538.359-.371.242-.56.361c-.352.165-.562-.446-.533-1.549l.225-5.429a3.56,3.56,0,0,1,.7-2.307c.191-.116.378-.23.56-.349s.364-.23.543-.349.347-.238.516-.356.33-.233.492-.354m-5.468,3.214c.417-.148.657.468.633,1.6l-.223,5.449a3.112,3.112,0,0,1-.788,2.288c-.228.116-.465.228-.7.342s-.48.225-.722.339-.495.223-.747.332-.511.221-.766.332c-.478.145-.776-.482-.756-1.6l.213-5.48a2.9,2.9,0,0,1,.906-2.3c.262-.107.521-.213.771-.322s.5-.218.749-.327.487-.216.727-.325.473-.223.7-.332m-7.41,2.969c.543-.128.873.5.853,1.646l-.2,5.5a2.679,2.679,0,0,1-1,2.274c-.3.1-.6.206-.909.31s-.62.206-.933.308-.633.2-.955.3-.645.2-.974.3c-.6.124-.989-.521-.979-1.646l.2-5.521a2.519,2.519,0,0,1,1.12-2.276c.33-.1.657-.2.979-.3s.642-.2.955-.3.63-.2.938-.3.611-.2.909-.3m-9.354,2.7c.674-.109,1.093.54,1.088,1.689l-.191,5.534a2.411,2.411,0,0,1-1.214,2.257c-.208.053-.419.107-.63.158s-.424.1-.635.158-.427.1-.642.155-.431.1-.65.158l-.427.1c-.138.031-.281.065-.424.1s-.284.068-.429.1-.288.063-.436.1c-.608.08-1-.6-.994-1.733l.174-5.551c.065-1.154.507-2.024,1.122-2.218.145-.034.288-.061.434-.094s.288-.063.434-.1.286-.063.429-.1.284-.063.424-.1c.218-.051.436-.1.654-.155s.429-.1.64-.15.429-.1.642-.153.422-.1.63-.155m-9.831,2.131c.664-.068,1.071.613,1.071,1.772l-.17,5.56c-.068,1.166-.521,2-1.18,2.189-.359.07-.722.141-1.083.208s-.732.136-1.1.2-.739.138-1.113.2-.749.133-1.125.2c-.7.061-1.146-.635-1.149-1.772l.148-5.57c.068-1.156.562-2.019,1.26-2.2.381-.063.761-.131,1.132-.194s.749-.133,1.12-.2.737-.133,1.1-.2l1.086-.2m-10.682,1.781c.742-.048,1.2.642,1.212,1.808l-.143,5.575c-.065,1.151-.577,2-1.309,2.164-.4.061-.807.119-1.214.179s-.817.119-1.226.174-.827.114-1.241.17-.836.114-1.258.172c-.766.036-1.268-.669-1.282-1.808l.126-5.582c.063-1.159.606-2.007,1.379-2.169.419-.053.841-.109,1.258-.165s.831-.114,1.246-.17.827-.114,1.234-.175.817-.114,1.219-.175m-11.86,1.515c.8-.031,1.338.691,1.353,1.84l-.114,5.587c-.065,1.149-.625,1.988-1.43,2.133-.441.053-.887.1-1.338.148s-.894.095-1.345.145-.9.092-1.362.138-.914.092-1.372.138c-.836.024-1.391-.7-1.418-1.837l.1-5.587a2.068,2.068,0,0,1,1.491-2.138c.465-.044.923-.092,1.382-.138s.911-.09,1.365-.141.9-.095,1.357-.143.894-.095,1.336-.145m-12.953,1.239c.875-.015,1.454.722,1.483,1.874l-.085,5.585a2.026,2.026,0,0,1-1.544,2.1c-.477.039-.96.075-1.447.114s-.97.075-1.457.114-.974.07-1.471.107-.984.068-1.476.1c-.9,0-1.51-.727-1.544-1.869l.068-5.58a2.018,2.018,0,0,1,1.595-2.109c.5-.032.989-.07,1.483-.1l1.476-.109c.492-.036.979-.075,1.462-.112s.969-.082,1.457-.119m-13.961.955c.95,0,1.563.734,1.6,1.905l-.053,5.575a1.976,1.976,0,0,1-1.631,2.065l-1.549.085-1.561.08c-.516.024-1.042.051-1.568.078s-1.049.046-1.578.07a1.741,1.741,0,0,1-1.655-1.9l.034-5.57A1.985,1.985,0,0,1,505.9,307.8c.528-.019,1.057-.046,1.583-.07s1.052-.056,1.578-.08,1.042-.056,1.563-.082,1.04-.056,1.554-.085m-14.865.664a1.79,1.79,0,0,1,1.709,1.932L499,315.639a1.951,1.951,0,0,1-1.718,2.029c-.543.015-1.091.034-1.636.048s-1.1.034-1.651.048l-1.655.041-1.668.044a1.834,1.834,0,0,1-1.767-1.927l0-5.551a1.953,1.953,0,0,1,1.772-2.029c.558-.015,1.115-.029,1.67-.048s1.113-.027,1.668-.044,1.1-.036,1.651-.051l1.648-.056m-15.147.368c.839.048,1.389.795,1.435,1.961l.017,5.543c-.039,1.134-.6,1.912-1.418,1.978l-1.365.014-1.369.015c-.458,0-.916.01-1.374.012l-1.379.01c-.839-.056-1.411-.819-1.464-1.954l-.032-5.524c.034-1.146.6-1.927,1.442-1.99.46,0,.923-.007,1.384-.012s.921-.01,1.379-.017l1.374-.017c.456,0,.914-.014,1.369-.019m-12.924.1c.851.058,1.437.831,1.491,1.975l.044,5.514c-.034,1.132-.6,1.9-1.454,1.954-.465,0-.936,0-1.408,0l-1.411-.007c-.47,0-.945,0-1.416-.01l-1.42-.012c-.863-.063-1.459-.836-1.517-1.963l-.063-5.5c.031-1.137.611-1.908,1.474-1.961.475,0,.953,0,1.428,0s.948,0,1.423,0,.945,0,1.416,0h1.416m-13.314-.085c.88.07,1.488.851,1.546,1.983l.075,5.492c-.029,1.127-.611,1.879-1.488,1.922-.477,0-.96-.015-1.44-.024l-1.449-.027-1.452-.029c-.485-.01-.97-.022-1.452-.034a1.864,1.864,0,0,1-1.563-1.971l-.1-5.471c.029-1.132.616-1.888,1.5-1.932q.735.015,1.462.027c.487.01.97.017,1.457.024s.97.014,1.449.019.972.015,1.452.019m-13.629-.259a1.892,1.892,0,0,1,1.588,1.992l.1,5.458c-.024,1.117-.616,1.859-1.505,1.888-.492-.015-.982-.029-1.476-.041s-.984-.034-1.476-.048-.989-.034-1.481-.048-.989-.036-1.483-.051a1.911,1.911,0,0,1-1.6-1.983L434.841,310c.022-1.122.618-1.866,1.52-1.9l1.491.044c.494.015.991.029,1.486.041l1.483.044c.494.012.987.024,1.481.039m-13.9-.441a1.934,1.934,0,0,1,1.624,2l.138,5.422c-.017,1.11-.616,1.84-1.52,1.859-.371-.019-.747-.034-1.115-.048l-1.115-.051c-.373-.014-.747-.034-1.117-.046s-.744-.036-1.117-.053l-.327-.015c-.1,0-.211-.01-.32-.019s-.216,0-.325-.015l-.322-.012c-.771-.092-1.316-.868-1.384-1.978l-.155-5.4c.007-1.117.507-1.852,1.277-1.881l.322.014.327.015.325.015.325.014c.376.015.747.029,1.125.046l1.117.044,1.122.044c.373.012.747.027,1.115.041m-12.509-.536c.773.095,1.314.877,1.389,1.995l.162,5.388c0,1.1-.5,1.82-1.265,1.84l-1.263-.07c-.419-.024-.844-.044-1.263-.07l-1.268-.068c-.419-.029-.841-.048-1.265-.075-.766-.1-1.311-.875-1.389-1.978l-.179-5.366c0-1.105.5-1.832,1.265-1.849.422.024.848.044,1.27.065s.846.044,1.268.065.848.044,1.273.063.843.041,1.265.061m-11.8-.625c.768.1,1.319.885,1.4,1.995l.189,5.354c0,1.093-.492,1.8-1.256,1.811-.424-.027-.843-.056-1.268-.08s-.839-.056-1.263-.085l-1.263-.082c-.419-.029-.839-.053-1.263-.087-.766-.1-1.311-.88-1.394-1.973l-.206-5.332c0-1.1.49-1.818,1.253-1.823.424.024.846.053,1.27.078l1.265.075c.424.027.848.053,1.27.078s.843.051,1.268.073m-11.787-.737c.768.109,1.323.89,1.4,1.992l.213,5.315c.007,1.086-.482,1.786-1.248,1.786-.419-.034-.841-.063-1.258-.095s-.839-.063-1.258-.092-.836-.065-1.256-.1-.839-.063-1.256-.1c-.763-.112-1.314-.89-1.4-1.975l-.23-5.291c-.01-1.091.478-1.8,1.241-1.8.419.029.839.063,1.258.09s.841.058,1.26.087.844.061,1.26.09.844.056,1.268.085m-11.726-.843c.763.114,1.314.894,1.4,1.988l.24,5.277c.01,1.079-.475,1.769-1.229,1.76l-1.248-.1-1.248-.1-1.246-.1c-.417-.039-.831-.07-1.248-.109-.759-.121-1.306-.894-1.4-1.975l-.25-5.25c-.012-1.079.465-1.774,1.222-1.769l1.251.1,1.253.1,1.251.1c.417.029.836.063,1.253.095m-11.62-.94c.756.116,1.3.9,1.394,1.983l.262,5.236c.017,1.064-.461,1.748-1.2,1.733-.412-.039-.827-.075-1.236-.114s-.827-.075-1.239-.116-.824-.078-1.236-.119l-1.231-.116a1.976,1.976,0,0,1-1.386-1.968l-.274-5.209c-.019-1.074.448-1.757,1.193-1.745.412.036.827.075,1.236.114s.829.07,1.241.109.824.07,1.239.1.829.07,1.243.109m-11.487-1.037a2,2,0,0,1,1.389,1.978l.281,5.194c.019,1.057-.441,1.728-1.178,1.709-.407-.044-.814-.085-1.222-.126s-.814-.082-1.222-.128-.812-.082-1.214-.124-.812-.087-1.214-.128a1.988,1.988,0,0,1-1.377-1.966l-.3-5.16c-.024-1.062.434-1.735,1.168-1.718.407.039.814.078,1.217.119l1.222.119c.407.039.817.078,1.224.119s.817.075,1.224.114m-11.319-1.122a2,2,0,0,1,1.379,1.973l.305,5.146c.024,1.049-.429,1.709-1.159,1.682l-1.2-.133c-.4-.048-.8-.09-1.2-.138s-.8-.09-1.195-.131-.8-.092-1.193-.138a2,2,0,0,1-1.36-1.956l-.318-5.117c-.029-1.054.414-1.718,1.137-1.694.4.041.8.085,1.195.128s.8.085,1.2.126.8.085,1.2.126.8.082,1.2.126m-11.108-1.2c.72.131,1.251.9,1.352,1.963l.327,5.1c.031,1.04-.41,1.689-1.122,1.656l-1.173-.141-1.173-.143c-.4-.046-.785-.095-1.173-.143s-.78-.1-1.168-.145a2.014,2.014,0,0,1-1.343-1.949l-.339-5.066c-.032-1.062.393-1.7,1.108-1.672.39.046.78.09,1.171.138s.783.09,1.173.131.783.092,1.18.138l1.18.133m-10.881-1.28a2.02,2.02,0,0,1,1.333,1.956l.347,5.051c.036,1.033-.39,1.672-1.086,1.634-.385-.048-.768-.1-1.151-.15s-.764-.1-1.147-.15l-1.142-.153-1.144-.153a2.02,2.02,0,0,1-1.323-1.939l-.356-5.02c-.041-1.033.381-1.68,1.074-1.643.378.049.761.095,1.144.143l1.144.141,1.151.143c.385.048.768.095,1.156.141m-10.624-1.343a2.023,2.023,0,0,1,1.311,1.942l.364,5.008c.041,1.018-.373,1.648-1.05,1.6l-1.122-.155c-.373-.053-.747-.107-1.117-.162s-.747-.1-1.115-.155-.744-.109-1.117-.162a2.029,2.029,0,0,1-1.292-1.929l-.376-4.969c-.044-1.025.361-1.66,1.03-1.622.368.051.744.1,1.117.15s.747.1,1.117.153l1.122.148,1.127.15M303.2,296.75a2.033,2.033,0,0,1,1.285,1.934l.385,4.952c.041,1.008-.356,1.631-1.013,1.588-.366-.058-.727-.114-1.093-.167s-.722-.112-1.086-.165-.722-.109-1.083-.165-.722-.109-1.079-.167a2.041,2.041,0,0,1-1.268-1.917l-.393-4.923c-.048-1.013.344-1.639.991-1.595.361.051.72.1,1.083.155s.725.107,1.086.158.727.1,1.091.155l1.093.158m-10.042-1.469a2.052,2.052,0,0,1,1.263,1.922l.4,4.906c.048,1-.337,1.614-.977,1.559-.354-.053-.705-.114-1.057-.167s-.7-.116-1.052-.17-.7-.119-1.047-.175-.7-.116-1.045-.172a2.052,2.052,0,0,1-1.236-1.905l-.407-4.872c-.053-1,.32-1.619.948-1.573l1.047.165c.349.051.7.107,1.052.16s.705.107,1.054.162.705.109,1.059.16m-9.71-1.52a2.069,2.069,0,0,1,1.224,1.91l.41,4.855c.051.989-.31,1.592-.926,1.537l-1.023-.175-1.016-.177c-.339-.058-.674-.116-1.013-.177l-1.008-.177a2.055,2.055,0,0,1-1.207-1.9l-.424-4.819c-.053-.991.3-1.6.911-1.549l1.008.17c.342.056.679.109,1.018.167s.679.109,1.018.165.684.112,1.028.165m-9.378-1.563c.606.153,1.071.9,1.193,1.9l.427,4.8c.056.979-.3,1.573-.887,1.51-.327-.056-.654-.116-.984-.179s-.652-.119-.979-.179-.652-.124-.977-.182l-.972-.182a2.074,2.074,0,0,1-1.166-1.881l-.436-4.768c-.061-.979.276-1.58.86-1.525.322.058.65.114.977.172s.647.114.977.17.654.114.982.175.657.109.987.17m-9.1-1.622c.172.044,1.049.349,1.234,1.9l.441,4.751c.1,1.52-.751,1.5-.924,1.476-.344-.065-.691-.131-1.035-.2l-1.033-.2c-.342-.063-.684-.128-1.028-.194s-.684-.131-1.025-.192a2.072,2.072,0,0,1-1.231-1.874l-.446-4.717c-.063-.97.3-1.556.914-1.5.339.063.686.124,1.025.184s.688.124,1.033.184l1.035.187c.347.061.688.126,1.04.189m-9.543-1.689a2.049,2.049,0,0,1,1.226,1.864l.453,4.7c.061.955-.3,1.532-.9,1.471l-1.011-.184-1-.179c-.334-.063-.667-.119-1-.182s-.667-.116-1-.177a2.029,2.029,0,0,1-1.209-1.84l-.458-4.661c-.068-.962.281-1.549.882-1.493.334.058.667.111,1,.167s.667.114,1,.17.671.119,1.008.172.674.116,1.013.175m-9.31-1.554a2,2,0,0,1,1.2,1.828l.468,4.649c.063.945-.276,1.52-.87,1.466l-.987-.17c-.325-.058-.65-.109-.979-.165s-.654-.109-.979-.167-.652-.109-.977-.162a1.993,1.993,0,0,1-1.19-1.806l-.475-4.617c-.065-.945.271-1.532.858-1.486.327.053.652.1.979.153s.652.1.982.158.654.107.982.158.659.1.986.162m-9.1-1.433c.6.138,1.057.846,1.188,1.8l.475,4.6c.068.938-.259,1.51-.843,1.466-.32-.053-.637-.1-.962-.155l-.96-.158c-.32-.048-.635-.1-.955-.15s-.637-.1-.96-.153c-.587-.136-1.045-.831-1.176-1.774l-.485-4.567c-.07-.94.257-1.525.834-1.486.318.048.637.095.96.143s.64.095.957.143.645.095.965.148.645.095.962.143m-8.9-1.311c.582.131,1.037.826,1.168,1.774l.49,4.547c.073.928-.25,1.505-.817,1.464-.318-.046-.63-.094-.943-.143s-.63-.095-.945-.138-.625-.092-.938-.141-.625-.09-.94-.136c-.57-.131-1.023-.814-1.154-1.748l-.5-4.525c-.075-.933.24-1.512.8-1.483l.943.131c.31.046.625.087.938.131s.63.09.945.131.633.092.945.136m-8.723-1.195c.567.124,1.02.8,1.151,1.743l.5,4.511c.073.919-.238,1.491-.795,1.459-.31-.044-.616-.087-.924-.128l-.926-.129c-.308-.044-.616-.085-.921-.128s-.613-.085-.921-.124c-.562-.124-1.011-.8-1.142-1.721l-.509-4.484c-.075-.923.23-1.505.783-1.481.308.041.613.08.921.119l.926.121c.308.039.616.08.928.119s.618.08.926.124m-8.566-1.088c.56.114,1.008.788,1.142,1.719l.514,4.467c.075.911-.23,1.486-.778,1.459-.3-.039-.606-.075-.909-.119s-.6-.075-.9-.114-.606-.075-.9-.114-.6-.078-.9-.114c-.555-.116-1-.78-1.132-1.694l-.519-4.445c-.078-.916.221-1.5.766-1.481.3.039.6.073.9.109s.606.07.907.109.606.07.907.109.608.07.911.109m-8.416-.982c.553.1.994.771,1.129,1.692l.521,4.431c.08.9-.213,1.476-.751,1.457-.3-.031-.6-.07-.894-.1s-.594-.07-.892-.1-.589-.07-.887-.1-.594-.068-.892-.1c-.541-.1-.984-.759-1.12-1.665l-.528-4.409c-.082-.911.208-1.491.744-1.478.3.031.6.065.894.094l.892.1.89.1c.3.034.6.068.894.1m-8.275-.88c.541.1.977.754,1.115,1.668l.536,4.4c.08.9-.208,1.469-.737,1.459-.293-.034-.584-.068-.88-.095s-.589-.065-.88-.1-.584-.061-.875-.095-.584-.058-.877-.09c-.538-.1-.974-.747-1.108-1.646l-.543-4.375c-.082-.9.2-1.481.73-1.476.291.027.582.056.875.085s.587.058.88.09.589.056.882.085.587.058.882.09m-8.156-.78c.533.09.965.739,1.105,1.643l.543,4.363c.09.892-.194,1.464-.715,1.459-.291-.029-.579-.058-.868-.085l-.868-.085c-.288-.027-.579-.053-.868-.082l-.863-.08c-.528-.095-.96-.73-1.1-1.624l-.553-4.343c-.085-.9.194-1.474.713-1.474.286.024.574.046.865.073s.577.051.868.075.579.051.868.08.582.051.87.08m-8.052-.691c.528.09.965.725,1.105,1.624l.555,4.336c.087.882-.191,1.452-.708,1.452-.286-.022-.567-.046-.856-.07s-.57-.046-.853-.075-.572-.048-.856-.073-.567-.044-.853-.068c-.519-.087-.948-.717-1.091-1.6l-.56-4.312c-.09-.892.182-1.474.693-1.479.286.022.572.044.856.068s.57.041.856.065.57.044.856.065l.856.068m-7.943-.6c.519.08.948.71,1.091,1.6l.567,4.3c.09.88-.182,1.454-.691,1.459-.281-.019-.562-.044-.846-.063s-.562-.041-.846-.061-.56-.044-.841-.063-.562-.041-.841-.061c-.519-.08-.945-.7-1.088-1.58l-.57-4.29c-.092-.885.177-1.462.684-1.476l.843.056.846.058.846.056.846.058m-7.858-.5c.516.073.943.691,1.088,1.58l.57,4.28c.1.873-.17,1.447-.671,1.457-.281-.019-.555-.039-.836-.053l-.836-.053c-.281-.017-.555-.036-.836-.051s-.555-.036-.836-.051c-.511-.075-.936-.688-1.079-1.561l-.582-4.266c-.1-.88.167-1.459.671-1.479.279.019.555.034.836.048s.557.034.836.048.557.031.836.046.56.034.839.053m-7.778-.422c.511.07.936.684,1.081,1.563l.582,4.254c.1.87-.162,1.445-.659,1.464l-.831-.049-.829-.041-.829-.044c-.276-.015-.55-.024-.827-.039-.507-.07-.928-.676-1.076-1.544l-.594-4.239c-.095-.878.165-1.457.662-1.479.276.01.55.024.829.036s.553.027.829.036l.831.039.831.041m-7.71-.334c.507.063.931.669,1.076,1.546l.6,4.232c.092.865-.165,1.442-.654,1.462-.276-.01-.548-.019-.824-.032l-.824-.036c-.271-.012-.545-.022-.822-.032s-.548-.019-.819-.032c-.5-.063-.926-.664-1.074-1.527l-.6-4.22c-.1-.873.158-1.452.647-1.479l.824.029.827.029.822.027c.279.01.55.019.827.032m-7.657-.25c.507.058.933.659,1.079,1.529l.6,4.213c.1.863-.153,1.435-.645,1.464-.269-.01-.545-.019-.817-.024s-.545-.017-.814-.024l-.817-.024c-.269-.007-.545-.017-.814-.022-.5-.056-.919-.65-1.071-1.51l-.608-4.2c-.1-.87.145-1.452.635-1.483.271,0,.545.01.814.017s.548.012.819.022.545.014.819.019.548.015.817.022m-7.6-.167c.5.053.923.647,1.076,1.512l.616,4.2c.1.87-.141,1.435-.635,1.466-.269,0-.541-.01-.81-.019l-.814-.012-.812-.014c-.269,0-.538-.01-.807-.012-.5-.056-.923-.637-1.074-1.5l-.623-4.181c-.107-.865.143-1.447.633-1.486.271,0,.541.007.814.012s.538,0,.81.007l.812.015c.276,0,.545.01.814.012m-7.807-.087c.623.048,1.125.637,1.287,1.5l.625,4.176c.095.851-.23,1.43-.836,1.466-.337,0-.671,0-1-.01s-.669,0-1,0-.664,0-.994,0-.659,0-.987,0c-.606-.048-1.1-.628-1.258-1.479l-.633-4.167c-.1-.858.216-1.442.8-1.488h.994c.332,0,.664,0,1,0s.667,0,1,0,.671,0,1.006,0m-9.16.007c.591.041,1.076.623,1.236,1.478l.637,4.157c.1.853-.2,1.432-.778,1.479l-.955,0c-.32,0-.637,0-.955.007s-.628,0-.943,0-.628,0-.943.01c-.57-.036-1.047-.611-1.207-1.457l-.647-4.147c-.1-.873.182-1.445.751-1.5.315,0,.628-.01.943-.012l.945-.012c.318,0,.637,0,.955-.01l.96-.007m-8.723.124c.565.029,1.035.606,1.2,1.459l.647,4.142c.107.848-.182,1.43-.727,1.488l-.907.012c-.3,0-.6.015-.9.019s-.6.015-.9.019l-.894.022c-.55-.031-1-.584-1.163-1.442l-.659-4.135c-.109-.868.158-1.447.7-1.5.3-.01.6-.015.894-.024s.6-.014.9-.019.6-.015.9-.022.606-.01.909-.017m-9.819.271a1.739,1.739,0,0,1,1.718,1.428l.664,4.13a1.277,1.277,0,0,1-1.241,1.51q-.7.022-1.4.048c-.463.017-.923.031-1.386.051s-.911.036-1.369.056-.907.034-1.357.053a1.66,1.66,0,0,1-1.648-1.4l-.679-4.118a1.252,1.252,0,0,1,1.173-1.539l1.36-.058c.456-.022.914-.039,1.374-.058s.921-.036,1.386-.053.933-.034,1.4-.053m-12.541.572a1.646,1.646,0,0,1,1.6,1.4l.684,4.118a1.248,1.248,0,0,1-1.108,1.529c-.429.022-.856.046-1.28.07s-.843.048-1.263.075-.836.049-1.253.07-.829.053-1.241.082a1.589,1.589,0,0,1-1.534-1.374l-.7-4.111a1.25,1.25,0,0,1,1.047-1.556c.41-.027.824-.051,1.241-.078s.836-.048,1.253-.075.846-.051,1.27-.073.851-.053,1.282-.078m-11.436.749a1.562,1.562,0,0,1,1.488,1.377l.7,4.111a1.233,1.233,0,0,1-.979,1.546l-1.161.085c-.381.029-.766.063-1.146.092s-.759.061-1.134.09-.749.061-1.117.092a1.5,1.5,0,0,1-1.413-1.357l-.715-4.1c-.116-.87.23-1.469.907-1.571l1.125-.092c.376-.027.754-.061,1.137-.09s.766-.061,1.149-.09l1.161-.09m-10.311.87c.642-.014,1.178.521,1.362,1.365l.72,4.108c.114.844-.221,1.454-.848,1.559-.347.032-.693.063-1.035.1s-.691.063-1.028.1-.679.065-1.013.1-.669.065-1,.1c-.606.019-1.113-.509-1.294-1.35l-.727-4.1c-.124-.853.179-1.474.773-1.578.33-.031.662-.065,1-.1s.674-.065,1.016-.1.684-.065,1.03-.1.691-.065,1.042-.1m-9.181.943c.577-.022,1.062.511,1.243,1.36l.737,4.108c.124.844-.16,1.457-.715,1.561-.308.036-.611.073-.914.1s-.6.073-.9.1-.594.073-.885.1-.587.073-.875.1c-.533.022-.982-.494-1.161-1.348l-.747-4.111c-.133-.865.114-1.471.635-1.576l.873-.1c.3-.034.589-.065.887-.1s.6-.065.9-.1l.916-.1m-7.989.957c.494-.019.928.514,1.11,1.362l.749,4.111c.128.846-.095,1.462-.57,1.566-.267.034-.526.07-.783.1s-.511.068-.768.1-.507.065-.754.1-.5.068-.739.1c-.456.019-.853-.5-1.033-1.352l-.761-4.116c-.136-.865.053-1.471.494-1.576.245-.034.494-.065.742-.1s.5-.068.759-.1l.768-.1c.259-.036.521-.068.785-.1m-8.51,7.875.732,3.9c3.056-.48,6.77-1.018,11.077-1.571s9.2-1.108,14.64-1.634,11.443-1.013,17.963-1.42,13.6-.734,21.194-.933q2.894-.08,5.89-.126t6.108-.07q3.109-.022,6.326-.012t6.556.051q16.048.207,32.334,1.19,16.564,1,33.638,2.838,17.47,1.883,35.771,4.688,18.848,2.9,38.946,6.869c10.893,2.16,22.452,4.2,34.537,6.094,12.4,1.946,25.314,3.73,38.568,5.325,13.569,1.634,27.445,3.064,41.428,4.259,14.259,1.219,28.572,2.186,42.691,2.875q7.857.382,15.537.645,7.715.265,15.217.412,7.537.149,14.819.175,7.311.029,14.344-.065c8.723-.116,17.1-.373,25.067-.771q11.987-.6,22.67-1.607,10.66-1.014,19.841-2.424,9.133-1.411,16.649-3.2a114.224,114.224,0,0,0,13.067-3.859,51.382,51.382,0,0,0,9.339-4.426,20.215,20.215,0,0,0,5.621-4.906,9.525,9.525,0,0,0,2-5.306q2.432-54.609,4.867-109.218a4.454,4.454,0,0,1-1.987,3.119,22.262,22.262,0,0,1-5.8,3.049,80.034,80.034,0,0,1-9.712,2.926q-5.864,1.429-13.649,2.756c-5.231.892-11.053,1.731-17.432,2.523-6.4.79-13.348,1.527-20.8,2.206s-15.394,1.3-23.775,1.849q-12.54.825-26.286,1.459-7.37.342-15.028.62-7.635.28-15.522.5-7.853.211-15.929.373-8.031.16-16.249.255c-14.759.177-29.692.2-44.562.068-14.565-.124-29-.388-43.1-.783-13.755-.388-27.135-.894-39.962-1.51-12.48-.6-24.4-1.309-35.618-2.111q-20.676-1.472-40.013-2.366-18.8-.873-36.716-1.241-17.532-.364-34.535-.269-16.732.091-33.231.62-3.425.105-6.741.23t-6.513.262q-3.2.135-6.29.286t-6.069.308q-11.733.625-21.868,1.379c-6.736.492-12.943,1.013-18.581,1.529s-10.721,1.033-15.185,1.52-8.331.943-11.518,1.34l.836,4.474.015-.092a19.085,19.085,0,0,1,2.959-.87L26.315,217c-1.966,1.825-2.181,1.854-2.39,1.881s-.417.051-.621.08l.007,2.741q2.156-.284,4.707-.591t5.488-.647c1.951-.223,4.036-.453,6.237-.684s4.52-.465,6.956-.7c.822.453,1.917,1.059,2.739,1.515,2.894,15.428,6.76,36,9.659,51.424-.165.982-.385,2.29-.55,3.272a36.966,36.966,0,0,1-8.464,1.811q-3.218.374-6.081.737c-1.908.24-3.689.482-5.345.715s-3.185.453-4.581.664l.713,3.8.015-.085a18.133,18.133,0,0,1,2.86-.907l1.735,5.49c-1.908,1.781-2.114,1.811-2.32,1.845s-.4.061-.6.09c.01.225-.4-.327-.577-.47" transform="translate(-20.687 -186.759)" fill="#fff"/>
      <path id="Path_1734" data-name="Path 1734" d="M258.182,207.514c.255-3.454.94-5.628,2.041-6.45a29.9,29.9,0,0,0,3.313-1.653,15.108,15.108,0,0,0,2.373-1.694,6.973,6.973,0,0,0,1.432-1.723,3.933,3.933,0,0,0,.526-1.75q-1.64,36.852-3.284,73.706a7.461,7.461,0,0,1-.548,2.5,9.85,9.85,0,0,1-1.425,2.434,15.346,15.346,0,0,1-2.327,2.344,25.766,25.766,0,0,1-3.241,2.249c-.2-.012-.453-.029-.645-.039-1.929-2.286.878-54.1,1.784-69.927" transform="translate(313.981 -176.102)" fill="#fff"/>
      <path id="Path_1735" data-name="Path 1735" d="M232.666,285.939q5.952-.516,11.482-1.139t10.6-1.357q5.068-.724,9.666-1.561,4.577-.829,8.67-1.762c1.653-.376,3.248-.761,4.77-1.159s2.972-.8,4.358-1.224,2.7-.841,3.948-1.282,2.426-.88,3.534-1.333c1.721-1.122,2.242-4.07,2.378-6.348l2.632-65.766c.053-2.349-.252-5.124-1.988-5.029q-1.705.52-3.633,1.028t-4.06,1q-2.145.5-4.491.977c-1.571.322-3.207.633-4.913.945q-4.214.767-8.946,1.479t-9.967,1.367q-5.235.654-10.944,1.251t-11.852,1.125c-2.509.388-4.239,2.838-4.414,6.241l-.948,67.348c.095,3.713,2.2,5.3,4.118,5.2" transform="translate(275.271 -170.788)"/>
      <path id="Path_1736" data-name="Path 1736" d="M196.96,281.9q5.821.149,11.53.242t11.314.112q5.606.029,11.07-.007t10.786-.133q4.112-.08,8.12-.189t7.911-.267q3.908-.156,7.7-.342c2.526-.126,5.017-.269,7.461-.417,2.584-.325,4.293-2.555,4.462-5.824l.814-67.324c-.095-3.437-1.8-5.563-4.465-5.548q-3.792.262-7.705.507t-7.948.461q-4.025.218-8.171.41t-8.379.371q-5.483.225-11.138.407-5.632.185-11.421.327-5.766.142-11.673.245-5.883.105-11.891.165c-2.574.2-4.273,2.458-4.324,5.761l1.5,65.531c.235,3.643,2.4,5.4,4.45,5.514" transform="translate(221.822 -164.771)"/>
      <path id="Path_1737" data-name="Path 1737" d="M165.8,276.258q7.584.662,15.234,1.246,7.7.582,15.423,1.079,7.773.5,15.532.9,7.8.4,15.537.708l.557.022c.189.01.376.015.558.024l.56.017.558.022c2.521-.063,4.184-2.114,4.234-5.228l-1.626-65.373c-.213-3.294-2.038-5.526-4.649-5.684l-.57,0h-1.726q-7.97.015-16.007-.036-7.977-.058-15.985-.179-7.94-.12-15.861-.3-7.86-.182-15.656-.427c-3.023.364-3.408,3.488-3.369,5.32l3.4,62.423c.313,3.486,2.162,5.255,3.854,5.468" transform="translate(175.593 -163.569)"/>
      <path id="Path_1738" data-name="Path 1738" d="M138.032,270.363q6.744.985,13.707,1.917,7.024.938,14.247,1.808,7.286.88,14.732,1.685,7.508.818,15.154,1.549c2.906-.148,3.279-3.069,3.245-4.8l-3.5-62.232c-.165-1.832-.894-4.988-3.934-5.553q-7.839-.287-15.546-.637-7.631-.345-15.1-.747-7.4-.389-14.584-.839-7.122-.443-14.017-.931c-2.569.24-2.8,3.153-2.715,4.872l4.838,58.611c.371,3.282,2.009,5.025,3.466,5.294" transform="translate(134.547 -165.646)"/>
      <path id="Path_1739" data-name="Path 1739" d="M113.89,263.629q3.858.56,7.761,1.156,3.927.6,7.911,1.248,4,.644,8.074,1.333,4.09.7,8.243,1.435,2.2.393,4.438.778c1.493.259,3.006.514,4.523.771s3.064.507,4.615.754,3.119.5,4.693.747c2.46-.015,2.683-2.737,2.6-4.358l-4.9-58.4c-.2-1.718-.914-4.69-3.49-5.315-1.609-.126-3.212-.25-4.8-.378s-3.149-.262-4.7-.393-3.09-.267-4.615-.4-3.03-.271-4.523-.407q-4.239-.4-8.406-.756c-2.756-.24-5.5-.47-8.222-.691q-4.054-.331-8.057-.633-3.974-.3-7.9-.574c-2.305.235-2.441,2.952-2.32,4.547l5.817,54.621c.419,3.059,1.939,4.673,3.258,4.916" transform="translate(99.053 -168.554)"/>
      <path id="Path_1740" data-name="Path 1740" d="M92.039,259.092q5.461.436,10.978.957,5.563.52,11.193,1.13,5.672.614,11.438,1.314,5.817.7,11.722,1.505c2.235-.07,2.373-2.618,2.254-4.133l-5.868-54.432c-.216-1.6-.938-4.36-3.294-4.9q-6.021-.385-11.93-.7-5.864-.32-11.644-.579-5.734-.255-11.387-.456-5.624-.2-11.171-.344c-2.063.327-2.116,2.911-1.966,4.423l6.632,51.734c.456,2.9,1.859,4.339,3.044,4.484" transform="translate(67.056 -170.113)"/>
      <path id="Path_1741" data-name="Path 1741" d="M72,256.966q5.148.073,10.316.218,5.188.142,10.41.364,5.239.218,10.524.516,5.315.3,10.672.674c2.007-.211,2.068-2.656,1.92-4.1l-6.673-51.615c-.238-1.512-.955-4.108-3.1-4.525q-5.45-.105-10.861-.155-5.377-.055-10.718-.053-5.312,0-10.6.046-5.265.051-10.507.153c-1.944.4-1.941,2.911-1.765,4.375l7.4,49.928c.494,2.795,1.849,4.106,2.974,4.171" transform="translate(37.495 -170.338)"/>
      <path id="Path_1742" data-name="Path 1742" d="M46.864,258.857q3.592-.3,7.451-.577t7.982-.516q4.13-.24,8.517-.436t9.055-.337q2.716-.084,5.519-.145t5.715-.1q2.9-.04,5.9-.056t6.1,0c2.087-.318,2.084-4.084,2.082-4.121L97.742,202.7c-.177-.9-2.092-4.186-3.4-4.251q-3.156.08-6.22.179t-6.021.208q-2.963.113-5.827.238t-5.635.259q-4.752.229-9.242.494t-8.7.543q-4.214.284-8.163.587t-7.618.616c-2.637.579-2.7,3.083-2.5,4.523l8.568,48.978c.667,3.115,2.756,3.847,3.881,3.786" transform="translate(-1.238 -170.119)"/>
      <path id="Path_1743" data-name="Path 1743" d="M21.77,202.718q2.156-.284,4.707-.591t5.488-.647c1.951-.223,4.036-.453,6.237-.684s4.52-.465,6.956-.7c3.069.01,3.069.01,12.4,52.939.305,2.383-.524,4.009-2.223,4.351-2.378.242-4.649.49-6.792.732s-4.174.494-6.081.737-3.689.482-5.345.715-3.185.453-4.581.664L21.77,202.718" transform="translate(-19.145 -167.771)"/>
    </g>
    <path id="Path_1744" data-name="Path 1744" d="M603.346,186.759q-2.432,54.612-4.867,109.222a9.518,9.518,0,0,1-2,5.3,20.222,20.222,0,0,1-5.621,4.908,51.078,51.078,0,0,1-9.339,4.421,112.753,112.753,0,0,1-13.067,3.861q-7.5,1.789-16.649,3.2-9.169,1.411-19.841,2.421t-22.67,1.612c-7.972.4-16.344.652-25.067.771q-7.032.091-14.344.065-7.286-.029-14.819-.175-7.5-.149-15.217-.412-7.679-.262-15.537-.65c-14.119-.686-28.431-1.653-42.691-2.872-13.983-1.193-27.859-2.623-41.428-4.259-13.253-1.595-26.17-3.381-38.568-5.323-12.085-1.893-23.644-3.934-34.537-6.094q-20.124-3.985-38.946-6.869-18.321-2.818-35.768-4.69-17.092-1.84-33.64-2.836-16.3-.989-32.334-1.188c-2.223-.034-4.409-.048-6.556-.056s-4.254,0-6.326.012-4.108.036-6.108.07-3.961.075-5.89.126c-7.589.2-14.659.524-21.194.936s-12.519.894-17.963,1.418-10.34,1.086-14.64,1.634-8.02,1.091-11.074,1.568L20.687,207.657c3.187-.4,7.046-.856,11.518-1.338s9.545-1,15.185-1.52,11.845-1.037,18.581-1.529,14.046-.965,21.868-1.382q2.981-.156,6.069-.308t6.29-.284q3.2-.138,6.513-.262t6.741-.233q16.517-.524,33.231-.618,17.022-.095,34.535.264,17.939.378,36.716,1.246,19.36.9,40.013,2.366c11.215.8,23.138,1.508,35.618,2.109,12.827.618,26.2,1.125,39.962,1.51,14.092.4,28.531.657,43.1.783,14.87.131,29.8.109,44.562-.065q8.213-.1,16.249-.255,8.075-.156,15.929-.376,7.886-.225,15.522-.5,7.657-.28,15.028-.62,13.725-.633,26.286-1.464c8.382-.553,16.322-1.168,23.775-1.845s14.4-1.416,20.8-2.206c6.38-.793,12.2-1.634,17.432-2.526q7.773-1.327,13.649-2.753a80.472,80.472,0,0,0,9.712-2.926,22.335,22.335,0,0,0,5.8-3.049A4.454,4.454,0,0,0,603.346,186.759Z" transform="translate(0 3.326)" fill="none"/>
  </g>
</svg>
