<svg xmlns="http://www.w3.org/2000/svg" width="540.077" height="643.745" viewBox="0 0 540.077 643.745">
  <g id="Group_6398" data-name="Group 6398" transform="matrix(0.588, -0.809, 0.809, 0.588, -41.219, 565.98)" style="isolation: isolate">
    <g id="Group_6394" data-name="Group 6394" transform="translate(19.772 36.884)">
      <path id="Path_1692" data-name="Path 1692" d="M346.925,54.693a3.077,3.077,0,0,1,.216-1.154c.02.032.043.078.066.11a3.451,3.451,0,0,1,.055.346c.014.115.032.231.035.346s.014.234.014.352-.006.237-.017.355l-.537,7.946c.009-.121.012-.242.014-.361s-.006-.239-.012-.361-.017-.234-.035-.352a3.081,3.081,0,0,0-.058-.352,11.863,11.863,0,0,1-.055-2.259l.312-4.617m-1.483-4.019a3.744,3.744,0,0,1,.424,2.21l-.306,4.6c-.037.447-.176,1.443-.638,1.062a.53.53,0,0,1-.058-.055l-.061-.052a.541.541,0,0,0-.058-.058c-.02-.02-.043-.038-.058-.055-.191-.167-.392-.335-.6-.491s-.436-.326-.675-.479-.488-.312-.747-.462-.542-.3-.828-.441a2.353,2.353,0,0,1-.967-2.121l.283-4.576c.092-.926.574-1.4,1.177-1.148.291.141.571.289.837.439s.514.3.75.453.47.309.684.47.413.32.606.488l.061.052.058.055c.02.017.037.038.061.055s.038.035.058.052M335.8,46.311a2.029,2.029,0,0,1,1.411,2.054l-.268,4.573a1.227,1.227,0,0,1-1.59,1.2q-.744-.195-1.541-.381c-.522-.124-1.07-.245-1.633-.364s-1.146-.231-1.74-.343-1.209-.225-1.838-.332a2.179,2.179,0,0,1-1.962-1.945l.228-4.571c.1-.932.967-1.457,2.138-1.31.635.11,1.252.216,1.855.329s1.183.234,1.746.349,1.117.239,1.651.364,1.044.245,1.544.375m-15.46-2.643a1.813,1.813,0,0,1,1.564,1.847l-.208,4.573a1.489,1.489,0,0,1-1.7,1.414c-.522-.061-1.05-.127-1.578-.185s-1.065-.121-1.6-.182-1.076-.113-1.625-.167-1.094-.113-1.648-.167a1.01,1.01,0,0,1-.606-.254,1.05,1.05,0,0,1-.133-.188c-.063-.11-.052-.245-.11-.355-.182-.338-.606-.519-.612-.964l.173-4.588a.734.734,0,0,1,.15-.473c.136-.188.378-.216.531-.384.13-.144.136-.361.286-.5a.93.93,0,0,1,.623-.138c.557.058,1.108.11,1.659.17s1.1.113,1.636.17,1.079.121,1.613.185,1.065.124,1.59.188m-13.429-1.319a1.617,1.617,0,0,1,1.3,1.754l-.153,4.591c-.072.932-.62,1.529-1.4,1.515l-1.29-.092c-.433-.035-.863-.063-1.3-.092s-.874-.061-1.313-.089l-1.324-.084a1.592,1.592,0,0,1-1.353-1.711l.118-4.6a1.489,1.489,0,0,1,1.457-1.564c.441.029.886.058,1.333.089s.88.058,1.319.089.874.061,1.307.1l1.3.1m-12.526-.779A1.6,1.6,0,0,1,295.8,43.3l-.107,4.605a1.5,1.5,0,0,1-1.486,1.561c-.465-.023-.926-.043-1.4-.061s-.932-.04-1.4-.061-.938-.035-1.414-.052-.949-.038-1.428-.055a1.621,1.621,0,0,1-1.483-1.682l.072-4.62a1.564,1.564,0,0,1,1.547-1.6c.482.017.958.038,1.437.052s.952.04,1.425.063l1.414.061,1.4.066m-13.489-.482a1.643,1.643,0,0,1,1.544,1.7l-.052,4.628a1.569,1.569,0,0,1-1.573,1.6c-.5-.012-1-.023-1.5-.032l-1.506-.026c-.5-.009-1-.017-1.509-.023l-1.524-.017a1.653,1.653,0,0,1-1.61-1.659l.02-4.654a1.632,1.632,0,0,1,1.63-1.645c.514.012,1.027.017,1.535.029l1.524.026c.508.012,1.01.02,1.515.035s1,.02,1.5.035m-14.4-.2a1.69,1.69,0,0,1,1.665,1.682v4.657a1.649,1.649,0,0,1-1.653,1.642h-1.584l-1.6.006c-.534,0-1.07.006-1.61.006L260.1,48.9a1.685,1.685,0,0,1-1.717-1.639l-.04-4.683a1.69,1.69,0,0,1,1.7-1.685c.545,0,1.088,0,1.627,0s1.082,0,1.622,0,1.07,0,1.61,0,1.068,0,1.6,0m-15.249.075a1.732,1.732,0,0,1,1.783,1.662l.061,4.695a1.715,1.715,0,0,1-1.72,1.685c-.56.012-1.117.023-1.676.032l-1.685.032c-.56.014-1.125.026-1.694.04s-1.131.026-1.7.04a1.74,1.74,0,0,1-1.829-1.622l-.107-4.715a1.754,1.754,0,0,1,1.769-1.731c.571-.014,1.146-.023,1.714-.035l1.7-.032c.568-.006,1.134-.017,1.7-.029s1.128-.014,1.685-.023m-16.04.346a1.783,1.783,0,0,1,1.9,1.642l.127,4.735a1.786,1.786,0,0,1-1.792,1.731c-.589.017-1.169.038-1.754.061s-1.174.04-1.763.063-1.18.043-1.769.066-1.186.046-1.783.066a1.785,1.785,0,0,1-1.933-1.6l-.167-4.761a1.808,1.808,0,0,1,1.824-1.775c.6-.023,1.2-.043,1.789-.061l1.783-.061c.592-.02,1.186-.038,1.775-.052s1.18-.038,1.766-.055m-16.764.606a1.828,1.828,0,0,1,1.991,1.63l.2,4.778a1.815,1.815,0,0,1-1.841,1.775c-.606.029-1.215.055-1.826.087s-1.223.063-1.835.092-1.226.063-1.841.1-1.232.061-1.85.1a1.846,1.846,0,0,1-2.043-1.59l-.245-4.807a1.868,1.868,0,0,1,1.884-1.821c.62-.032,1.238-.058,1.864-.087s1.235-.061,1.855-.087l1.847-.087c.615-.023,1.229-.049,1.838-.078m-17.419.863a1.885,1.885,0,0,1,2.083,1.619l.271,4.822A1.874,1.874,0,0,1,201.5,51.04c-.626.04-1.264.078-1.893.118s-1.27.078-1.907.118-1.267.084-1.9.124l-1.916.127a1.891,1.891,0,0,1-2.124-1.581l-.323-4.85a1.9,1.9,0,0,1,1.913-1.867l1.93-.118c.643-.04,1.281-.075,1.925-.113s1.278-.072,1.916-.113,1.272-.072,1.91-.107M183.007,43.9a1.937,1.937,0,0,1,2.181,1.607l.349,4.873a1.915,1.915,0,0,1-1.916,1.867c-.649.049-1.3.1-1.951.144s-1.307.1-1.962.15-1.307.1-1.968.147l-1.962.156a1.944,1.944,0,0,1-2.213-1.57l-.4-4.908A1.929,1.929,0,0,1,175.1,44.45c.664-.049,1.327-.1,1.988-.144s1.324-.092,1.979-.141,1.316-.089,1.971-.139,1.319-.087,1.968-.13m-18.522,1.362a2,2,0,0,1,2.271,1.6l.43,4.925a1.963,1.963,0,0,1-1.951,1.919c-.661.055-1.33.113-2,.17s-1.336.115-2.005.176-1.339.115-2.011.176-1.333.124-2.005.179a1.994,1.994,0,0,1-2.288-1.561l-.488-4.963a1.968,1.968,0,0,1,1.959-1.962c.675-.058,1.353-.113,2.028-.17s1.35-.11,2.023-.167,1.348-.11,2.017-.162l2.017-.162m-18.928,1.61a2.047,2.047,0,0,1,2.337,1.6l.514,4.983c.046,1.021-.724,1.792-1.948,1.965-.681.063-1.359.133-2.037.2l-2.04.2c-.681.069-1.362.133-2.043.2s-1.365.138-2.046.2a2.04,2.04,0,0,1-2.352-1.555l-.574-5.021c-.063-1.05.71-1.838,1.962-2.014.687-.063,1.368-.127,2.057-.193s1.373-.127,2.06-.193,1.371-.124,2.057-.19l2.052-.185m-19.24,1.85a2.08,2.08,0,0,1,2.395,1.59l.609,5.044c.069,1.039-.7,1.826-1.942,2.014-.684.075-1.376.15-2.063.228s-1.376.147-2.063.228-1.376.15-2.069.228-1.376.153-2.066.234a2.088,2.088,0,0,1-2.415-1.547l-.667-5.087a2,2,0,0,1,1.956-2.063c.7-.072,1.391-.15,2.086-.219s1.388-.15,2.083-.222,1.388-.144,2.08-.214,1.385-.144,2.075-.214M106.9,50.806a2.121,2.121,0,0,1,2.441,1.587l.7,5.107a2,2,0,0,1-1.927,2.063c-.7.081-1.388.167-2.078.251l-2.077.254c-.693.084-1.385.173-2.08.257s-1.382.17-2.075.26a2.1,2.1,0,0,1-2.444-1.547l-.768-5.153a2,2,0,0,1,1.922-2.106c.7-.084,1.394-.167,2.095-.248s1.394-.164,2.095-.245,1.4-.162,2.095-.239,1.4-.162,2.1-.239M87.415,53.132a2.135,2.135,0,0,1,2.473,1.584l.8,5.171A2,2,0,0,1,88.8,62q-1.039.134-2.075.277l-2.072.277q-1.039.143-2.072.28c-.69.1-1.382.19-2.066.289a2.117,2.117,0,0,1-2.47-1.547l-.866-5.217A1.991,1.991,0,0,1,79.05,54.2c.7-.089,1.394-.182,2.092-.271s1.391-.176,2.089-.271l2.089-.263c.7-.089,1.4-.176,2.095-.263m-19.4,2.551a2.163,2.163,0,0,1,2.5,1.581l.9,5.246a2,2,0,0,1-1.85,2.164c-.684.1-1.368.2-2.052.3s-1.362.2-2.046.306l-2.046.3q-1.021.151-2.037.312a2.132,2.132,0,0,1-2.476-1.544l-.961-5.289a1.971,1.971,0,0,1,1.806-2.207q1.021-.151,2.057-.3c.687-.1,1.373-.193,2.063-.291s1.373-.2,2.066-.291,1.376-.19,2.066-.289M48.892,58.459a2.156,2.156,0,0,1,2.493,1.587l1,5.309a1.975,1.975,0,0,1-1.76,2.213q-1.008.16-2.011.323l-2.008.326-2,.329c-.669.113-1.327.222-1.994.332a2.116,2.116,0,0,1-2.467-1.538l-1.07-5.361a1.967,1.967,0,0,1,1.728-2.259q1-.16,2.014-.317c.669-.107,1.345-.214,2.017-.317l2.023-.312,2.031-.314m257.219-1.027c.314-2.707,1.561-4.06,3.809-4.149.222.017.439.038.661.058s.439.038.655.055l.652.061c.219.02.433.04.652.058,1.189.115,2.369.234,3.529.355s2.3.248,3.422.384,2.23.271,3.318.418,2.158.3,3.211.453q3.566.532,6.486,1.166c1.945.424,3.688.883,5.214,1.379a27.167,27.167,0,0,1,3.985,1.607,13.18,13.18,0,0,1,2.793,1.858,7.426,7.426,0,0,1,1,1.091,5.92,5.92,0,0,1,.667,1.148,5.6,5.6,0,0,1,.343,1.2,5.472,5.472,0,0,1,.052,1.252c-3.012,44.69-3.012,44.69-4,58.987a7.815,7.815,0,0,0-.038-1.4,6.425,6.425,0,0,0-.315-1.342,6.5,6.5,0,0,0-.615-1.27,7.252,7.252,0,0,0-.941-1.2,11.586,11.586,0,0,0-2.64-2.017,22.621,22.621,0,0,0-3.774-1.708,43.385,43.385,0,0,0-4.943-1.414q-2.77-.645-6.155-1.148c-1-.15-2.017-.291-3.053-.427s-2.08-.265-3.148-.387-2.155-.237-3.255-.343-2.222-.214-3.353-.309l-.62-.049c-.2-.017-.413-.032-.62-.052l-.62-.046c-.208-.014-.415-.032-.629-.046-2.121-.407-3.214-1.8-3.356-4.273l1.625-49.953m-7.843-4.954c2.363.407,3.587,1.933,3.745,4.677l-1.443,50.016c-.3,2.487-1.506,3.719-3.8,3.884-5.407-.2-11.092-.286-17.015-.26-5.953.023-12.153.159-18.568.392-6.449.237-13.117.577-19.964,1.016-6.9.444-13.983.981-21.211,1.613-2.874.13-4.983-1.373-5.246-3.742l-2.536-52.059c.02-2.695,2.023-4.625,5.1-4.923,7.641-.387,15.123-.7,22.4-.923,7.225-.225,14.26-.366,21.058-.424,6.758-.055,13.293-.026,19.563.1,6.235.118,12.223.335,17.916.638M200.691,54.05c3.347.075,5.205,1.489,5.7,4.317l2.813,52.221c-.182,2.637-1.743,4.135-4.92,4.723q-11.314,1.16-22.954,2.582c-7.828.958-15.746,2-23.7,3.125-8.039,1.134-16.127,2.349-24.2,3.644-8.169,1.307-16.334,2.689-24.425,4.143-3.269.453-5.739-.9-6.3-3.454L94.2,69.6c-.13-4.216,3.226-5.425,5.237-5.768,8.639-1.111,17.344-2.153,26.047-3.128,8.6-.964,17.194-1.858,25.744-2.678Q163.9,56.8,176.376,55.8q12.322-.987,24.316-1.749m141.337,73.137a2.593,2.593,0,0,1,.162-.9.3.3,0,0,0,.061.035c.006.037.023.081.026.115.02.13.037.263.049.4s.023.263.026.4.009.271.006.407-.009.271-.017.41l-.473,6.977.017-.413c0-.138,0-.277-.006-.413s-.012-.271-.029-.4a3.634,3.634,0,0,0-.043-.4,13.145,13.145,0,0,1-.052-2.15l.274-4.063m-1.368-4.138a3.767,3.767,0,0,1,.4,2.083l-.271,4.045c-.04.482-.17,1.223-.586.8l-.052-.063-.055-.058c-.017-.023-.04-.043-.055-.063a.56.56,0,0,1-.058-.061c-.176-.188-.361-.369-.554-.548s-.413-.355-.629-.528-.456-.343-.7-.5-.5-.329-.773-.488a2.3,2.3,0,0,1-.909-1.968l.248-4.031c.081-.817.531-1.186,1.094-.906.274.159.534.317.779.479s.485.332.707.5.433.343.629.522.387.361.563.545c.017.017.035.04.058.061l.055.058c.017.02.035.043.055.063l.052.058m-9.005-4.741a1.9,1.9,0,0,1,1.327,1.873l-.237,4.025a1.077,1.077,0,0,1-1.489.993c-.465-.133-.943-.265-1.437-.39s-1.007-.245-1.535-.364-1.073-.237-1.633-.346-1.134-.219-1.725-.323c-1.108-.234-1.832-.918-1.847-1.737l.2-4.028c.1-.822.9-1.275,2-1.131.6.11,1.177.216,1.737.329s1.114.225,1.645.343,1.042.24,1.544.366.978.254,1.448.39m-14.5-2.571a1.648,1.648,0,0,1,1.474,1.627l-.188,4.034a1.371,1.371,0,0,1-1.6,1.244c-.485-.058-.984-.113-1.48-.167s-1-.1-1.506-.156l-1.526-.147c-.511-.043-1.027-.092-1.544-.136a.989.989,0,0,1-.574-.225,1.139,1.139,0,0,1-.124-.162c-.058-.1-.052-.216-.1-.315-.173-.291-.568-.439-.58-.848l.153-4.034a.7.7,0,0,1,.141-.421c.13-.167.358-.19.5-.34.124-.124.13-.32.265-.441a.9.9,0,0,1,.586-.124c.519.046,1.042.089,1.555.138s1.03.1,1.535.153,1.013.1,1.515.156,1,.107,1.495.164m-12.609-1.091a1.418,1.418,0,0,1,1.223,1.529l-.136,4.042a1.314,1.314,0,0,1-1.313,1.348c-.4-.02-.805-.046-1.206-.069s-.819-.043-1.223-.063l-1.235-.061c-.407-.02-.822-.038-1.241-.055a1.412,1.412,0,0,1-1.278-1.486l.113-4.048a1.374,1.374,0,0,1,1.362-1.4c.416.02.837.04,1.252.058s.825.04,1.235.063l1.229.069c.41.023.817.046,1.218.072m-11.755-.5a1.425,1.425,0,0,1,1.333,1.492l-.1,4.057a1.386,1.386,0,0,1-1.391,1.4c-.436-.009-.868-.02-1.307-.026s-.88-.017-1.322-.026-.883-.012-1.327-.02l-1.342-.014a1.423,1.423,0,0,1-1.394-1.449l.063-4.066a1.464,1.464,0,0,1,1.448-1.448c.456.006.9.014,1.348.023s.894.012,1.339.023.886.014,1.327.023.883.02,1.319.032m-12.658-.124a1.445,1.445,0,0,1,1.448,1.46l-.046,4.071A1.472,1.472,0,0,1,280.058,121l-1.4.012c-.47.009-.941.014-1.411.02s-.946.012-1.42.02-.952.014-1.431.026a1.456,1.456,0,0,1-1.512-1.417l.017-4.092a1.544,1.544,0,0,1,1.532-1.489c.479-.009.958-.014,1.44-.02s.952-.014,1.425-.017.949-.012,1.425-.014l1.408-.009m-13.5.237a1.475,1.475,0,0,1,1.561,1.425v4.1a1.569,1.569,0,0,1-1.547,1.5c-.5.014-1,.035-1.495.049s-.993.038-1.495.055-1,.04-1.512.063-1.007.037-1.515.061a1.478,1.478,0,0,1-1.607-1.385l-.035-4.112a1.6,1.6,0,0,1,1.593-1.541c.508-.02,1.019-.04,1.526-.058s1.01-.04,1.518-.055,1.007-.032,1.506-.049l1.5-.049m-14.286.586a1.5,1.5,0,0,1,1.665,1.394l.058,4.126a1.646,1.646,0,0,1-1.619,1.544c-.522.026-1.039.055-1.567.087s-1.05.058-1.578.089-1.056.066-1.587.1-1.059.069-1.59.1a1.514,1.514,0,0,1-1.711-1.356l-.092-4.141a1.681,1.681,0,0,1,1.653-1.59l1.607-.1c.534-.032,1.065-.058,1.593-.089l1.59-.084c.531-.032,1.053-.058,1.578-.084m-15.013.918a1.547,1.547,0,0,1,1.769,1.371l.113,4.149a1.711,1.711,0,0,1-1.682,1.6c-.542.037-1.091.081-1.639.124s-1.1.084-1.65.127l-1.656.13q-.827.069-1.662.136a1.557,1.557,0,0,1-1.806-1.33l-.15-4.169a1.742,1.742,0,0,1,1.708-1.636c.563-.043,1.122-.089,1.674-.13s1.117-.087,1.668-.124,1.108-.084,1.665-.124l1.65-.118m-15.668,1.244a1.59,1.59,0,0,1,1.855,1.345l.17,4.181a1.773,1.773,0,0,1-1.72,1.648c-.566.049-1.14.1-1.708.156l-1.714.164c-.574.055-1.148.107-1.725.164s-1.146.113-1.723.17c-1.059.061-1.8-.453-1.9-1.3l-.216-4.207a1.811,1.811,0,0,1,1.769-1.685c.58-.052,1.157-.11,1.737-.164s1.157-.1,1.731-.159l1.723-.156q.866-.078,1.725-.153M205.4,118.565c1.079-.066,1.841.456,1.945,1.324l.237,4.221a1.819,1.819,0,0,1-1.76,1.685c-.589.069-1.177.13-1.769.2s-1.186.133-1.777.2l-1.78.2-1.783.2c-1.085.081-1.861-.421-1.977-1.284l-.28-4.242a1.848,1.848,0,0,1,1.786-1.734c.6-.064,1.2-.13,1.8-.2l1.792-.193c.594-.063,1.192-.13,1.786-.19l1.78-.188m-16.782,1.873c1.108-.087,1.9.421,2.02,1.3l.309,4.259a1.872,1.872,0,0,1-1.795,1.737l-1.821.225q-.909.117-1.821.231c-.612.078-1.223.153-1.832.231s-1.218.159-1.832.237c-1.114.1-1.922-.392-2.049-1.261l-.352-4.282c-.017-.9.7-1.6,1.815-1.783q.922-.113,1.844-.228l1.844-.225q.918-.113,1.838-.222c.612-.075,1.221-.147,1.832-.216M171.384,122.6c1.14-.107,1.965.4,2.1,1.281l.372,4.3c.02.889-.693,1.587-1.821,1.789-.62.087-1.241.17-1.858.257s-1.241.173-1.861.263-1.247.176-1.87.265-1.241.179-1.867.265c-1.143.121-1.971-.366-2.115-1.241l-.421-4.328c-.032-.9.684-1.622,1.826-1.829.626-.087,1.252-.17,1.881-.257s1.252-.173,1.881-.257,1.247-.17,1.876-.254,1.249-.17,1.873-.251m-17.575,2.458c1.154-.124,2.005.372,2.155,1.267l.447,4.343c.04.892-.675,1.613-1.818,1.829-.629.1-1.261.2-1.89.291l-1.9.294-1.893.294q-.948.152-1.893.3c-1.16.139-2.011-.343-2.17-1.229l-.5-4.369c-.046-.918.672-1.653,1.826-1.876.638-.1,1.272-.2,1.916-.294s1.27-.19,1.9-.283,1.272-.193,1.91-.289,1.267-.185,1.9-.28m-17.82,2.747c1.171-.144,2.034.349,2.2,1.249l.528,4.386c.055.906-.655,1.642-1.812,1.881-.638.1-1.27.211-1.91.317s-1.272.219-1.91.326-1.275.216-1.91.323l-1.913.329c-1.174.159-2.043-.317-2.219-1.212L126.461,131c-.061-.929.652-1.685,1.824-1.927l1.927-.32,1.925-.32,1.93-.312q.957-.156,1.922-.309m-17.962,3.018c1.177-.162,2.057.326,2.245,1.235l.606,4.432c.069.918-.635,1.671-1.792,1.927-.641.115-1.278.234-1.919.349s-1.278.234-1.916.352-1.278.237-1.919.358-1.278.237-1.916.361c-1.172.17-2.052-.3-2.242-1.2l-.667-4.461c-.078-.941.626-1.714,1.786-1.974q.974-.173,1.933-.349c.643-.115,1.293-.231,1.933-.343s1.293-.231,1.933-.343,1.29-.231,1.933-.34m-17.965,3.281a1.82,1.82,0,0,1,2.271,1.226l.687,4.481c.084.923-.6,1.7-1.757,1.971q-.957.19-1.913.378l-1.907.381c-.635.13-1.27.254-1.907.384s-1.27.26-1.9.387c-1.16.188-2.049-.277-2.254-1.189l-.744-4.513a1.952,1.952,0,0,1,1.737-2.017c.641-.124,1.278-.251,1.922-.375s1.278-.251,1.922-.375,1.278-.248,1.927-.369,1.281-.245,1.922-.369m-17.841,3.54a1.812,1.812,0,0,1,2.285,1.212l.776,4.527a1.962,1.962,0,0,1-1.717,2.023c-.632.133-1.258.268-1.884.4s-1.255.271-1.884.4-1.246.271-1.876.41-1.249.274-1.876.416a1.775,1.775,0,0,1-2.248-1.183l-.834-4.562a1.945,1.945,0,0,1,1.676-2.063c.629-.13,1.258-.265,1.887-.4s1.261-.268,1.9-.4,1.258-.265,1.893-.4,1.267-.263,1.9-.392m-17.541,3.771a1.79,1.79,0,0,1,2.262,1.209l.866,4.576a1.944,1.944,0,0,1-1.636,2.063l-1.841.43c-.615.144-1.226.286-1.838.433s-1.223.286-1.832.43-1.221.291-1.826.439a1.761,1.761,0,0,1-2.242-1.169l-.918-4.611a1.94,1.94,0,0,1,1.6-2.109l1.838-.424c.617-.141,1.235-.286,1.85-.427s1.232-.28,1.852-.418,1.238-.283,1.861-.421M40.613,154.93l.944,4.383c22.515-6.019,47.69-11.605,73.417-16.441,24.745-4.648,50.106-8.627,74.389-11.683,23.534-2.963,46.271-5.084,66.818-6.14,20.137-1.033,38.431-1.05,53.643.188,1.122.089,2.222.188,3.312.294s2.161.216,3.214.338,2.089.245,3.116.378,2.023.271,3.009.421q3.346.5,6.08,1.143a42.83,42.83,0,0,1,4.885,1.423,22.068,22.068,0,0,1,3.725,1.725,11.573,11.573,0,0,1,2.6,2.049,9.44,9.44,0,0,1,1.529,2.519,10,10,0,0,1,.343,2.8q2.969-43.727,5.935-87.452a6.814,6.814,0,0,0-.407-2.372,8.8,8.8,0,0,0-1.7-2.173,13.334,13.334,0,0,0-2.836-1.815,29.217,29.217,0,0,0-4.037-1.581q-2.329-.731-5.283-1.365t-6.57-1.171q-1.6-.238-3.246-.462c-1.1-.144-2.225-.289-3.364-.424s-2.294-.271-3.465-.4-2.366-.248-3.578-.366c-16.415-1.573-36.16-2.2-57.925-2.043-22.247.162-46.914,1.143-72.522,2.8-26.5,1.723-54.263,4.19-81.47,7.26-28.387,3.2-56.295,7.072-81.4,11.423l1.209,5.606.072-.124a10.192,10.192,0,0,1,3.281-1.221l1.956-.338c.655-.113,1.307-.225,1.968-.335l1.965-.338c.571.173,1.324.4,1.9.568.5,1.919,1.171,4.478,1.679,6.4-.176.516-.413,1.209-.586,1.728a14.7,14.7,0,0,1-3.027.874c-.649.118-1.3.234-1.945.349s-1.29.237-1.939.352l-1.925.355c-.514-.127-1.2-.3-1.705-.427.26,1.206.6,2.813.863,4.019q6.821-1.294,13.9-2.531,7.025-1.234,14.263-2.409,7.176-1.16,14.528-2.277,7.289-1.1,14.71-2.144c6.033-.138,6.033-.138,15.633,60.161-.271,3.7-1.777,4.415-4.876,5.563q-6.925,1.35-13.74,2.756-6.847,1.42-13.544,2.894c-4.487.993-8.919,2-13.267,3.027q-6.574,1.554-12.907,3.151l.929,4.325.069-.115a10.42,10.42,0,0,1,3-1.322l1.783-.447c.6-.147,1.192-.3,1.792-.447s1.2-.291,1.8-.439c.514.1,1.2.245,1.717.349.436,1.648,1.021,3.838,1.46,5.479-.164.47-.381,1.094-.551,1.567a15.261,15.261,0,0,1-2.77.99q-.892.225-1.777.456c-.592.15-1.177.3-1.769.456s-1.174.3-1.76.459c-.063.462-1.079-.173-1.547-.245" transform="translate(-19.772 -36.688)" fill="#fff"/>
      <path id="Path_1693" data-name="Path 1693" d="M120.26,46.588c.314-2.707,1.561-4.06,3.809-4.149.222.017.439.038.661.058s.439.038.655.055l.652.061c.219.02.433.04.652.058,1.189.115,2.369.234,3.529.355s2.3.248,3.422.384,2.23.271,3.318.418,2.158.3,3.211.453q3.566.532,6.486,1.166c1.945.424,3.688.883,5.214,1.379a27.167,27.167,0,0,1,3.985,1.607,13.179,13.179,0,0,1,2.793,1.858,7.426,7.426,0,0,1,1,1.091,5.919,5.919,0,0,1,.667,1.148,5.6,5.6,0,0,1,.343,1.2,5.474,5.474,0,0,1,.052,1.252c-3.012,44.69-3.012,44.69-4,58.987a7.812,7.812,0,0,0-.038-1.4,6.426,6.426,0,0,0-.315-1.342,6.5,6.5,0,0,0-.615-1.27,7.253,7.253,0,0,0-.941-1.2,11.586,11.586,0,0,0-2.64-2.017,22.621,22.621,0,0,0-3.774-1.708,43.386,43.386,0,0,0-4.943-1.414q-2.77-.645-6.155-1.148c-1-.15-2.017-.291-3.053-.427s-2.08-.265-3.148-.387-2.155-.237-3.255-.343-2.222-.214-3.353-.309l-.62-.049c-.2-.017-.413-.032-.62-.052l-.62-.046c-.208-.014-.415-.032-.629-.046-2.675-.514-5.71-1.091-1.731-54.226" transform="translate(166.079 -25.845)"/>
      <path id="Path_1694" data-name="Path 1694" d="M94.255,103.995c7.228-.632,14.315-1.169,21.211-1.613,6.847-.439,13.515-.779,19.964-1.016,6.414-.234,12.615-.369,18.568-.392,5.924-.026,11.608.061,17.015.26,2.291-.164,3.494-1.4,3.8-3.884l1.443-50.016c-.04-2.588-1.509-4.423-3.745-4.677-5.693-.3-11.68-.519-17.916-.638-6.27-.121-12.806-.15-19.563-.1-6.8.058-13.833.2-21.058.424-7.28.228-14.762.537-22.4.923-3.073.3-5.075,2.228-5.1,4.923l2.536,52.059c.652,3.754,4.178,3.815,5.246,3.742" transform="translate(105.988 -26.867)"/>
      <path id="Path_1695" data-name="Path 1695" d="M60.371,117.461c8.091-1.454,16.257-2.836,24.425-4.143,8.073-1.3,16.161-2.51,24.2-3.644,7.955-1.122,15.873-2.167,23.7-3.125q11.621-1.42,22.954-2.582c3.177-.589,4.738-2.086,4.92-4.723l-2.813-52.221c-.491-2.828-2.349-4.242-5.7-4.317q-11.976.762-24.316,1.749-12.456,1-25.149,2.225c-8.55.819-17.148,1.714-25.744,2.678-8.7.975-17.408,2.017-26.047,3.128-2.011.343-5.367,1.552-5.237,5.768l8.506,55.755c1.131,3.956,5.1,3.644,6.3,3.454" transform="translate(28.858 -25.343)" fill="#fff"/>
      <path id="Path_1696" data-name="Path 1696" d="M21.076,56.338q6.821-1.294,13.9-2.531Q42,52.574,49.238,51.4q7.176-1.16,14.528-2.277,7.289-1.1,14.71-2.144C84,46.531,85.089,50.49,85.1,50.53c4.328,16.643,6.325,39.623,9.011,56.609.214,2.7-1.561,4.729-4.876,5.563q-6.925,1.35-13.74,2.756-6.847,1.42-13.544,2.894c-4.487.993-8.919,2-13.267,3.027q-6.574,1.554-12.907,3.151l-14.7-68.191" transform="translate(-17.313 -17.353)" fill="#fff"/>
    </g>
    <path id="Path_1697" data-name="Path 1697" d="M347.577,50.879q-2.969,43.732-5.935,87.455a7.648,7.648,0,0,0-.035-1.434,6.239,6.239,0,0,0-.309-1.371,6.41,6.41,0,0,0-.6-1.3,7.63,7.63,0,0,0-.926-1.223,11.747,11.747,0,0,0-2.6-2.052,22.3,22.3,0,0,0-3.725-1.723,41.683,41.683,0,0,0-4.885-1.423q-2.74-.641-6.08-1.143-1.48-.225-3.009-.421c-1.027-.133-2.063-.26-3.116-.378s-2.127-.231-3.214-.34-2.19-.2-3.312-.291c-15.212-1.241-33.506-1.218-53.643-.185-20.547,1.053-43.279,3.174-66.818,6.134-24.284,3.056-49.644,7.038-74.389,11.686-25.724,4.839-50.9,10.422-73.417,16.444L19.772,58.2c25.109-4.351,53.017-8.223,81.4-11.423,27.207-3.07,54.97-5.537,81.47-7.26,25.608-1.662,50.276-2.643,72.522-2.8,21.765-.156,41.51.47,57.925,2.043,1.212.118,2.4.237,3.578.366s2.329.257,3.465.4,2.262.28,3.364.424,2.181.3,3.246.462q3.618.541,6.57,1.171t5.283,1.365a29.217,29.217,0,0,1,4.037,1.581,13.334,13.334,0,0,1,2.836,1.815,7.433,7.433,0,0,1,1.021,1.059,5.657,5.657,0,0,1,.675,1.114,5.048,5.048,0,0,1,.349,1.166A4.8,4.8,0,0,1,347.577,50.879Z" transform="translate(0 0.196)" fill="none"/>
    <g id="Group_6395" data-name="Group 6395" transform="translate(319.491 51.153)">
      <path id="Path_1698" data-name="Path 1698" d="M151.562,49.695a13.838,13.838,0,0,1,.343-2.343c.046-.133.081-.265.113-.4s.061-.26.087-.39.043-.26.061-.387.029-.257.038-.384l-.542,7.946c-.009.13-.02.26-.04.39s-.035.263-.064.4-.049.263-.084.4-.072.268-.11.4c-.014.032-.026.069-.038.1l-.049,0a3.326,3.326,0,0,1-.035-1.065l.32-4.666m-1.411,1.146c.075-.1.075-.1.173-.144.084.043.225.115.17,1.114l-.314,4.692a6.418,6.418,0,0,1-.571,2.38c-.147.234-.312.467-.476.7s-.338.473-.514.707-.361.476-.551.713-.387.479-.592.721c-.514.548-.545-.473-.551-.592,0-.1.006-.228.012-.323l.309-4.741a5.024,5.024,0,0,1,.762-2.45c.2-.237.4-.47.592-.7s.372-.465.551-.7.355-.465.519-.693.326-.459.482-.684M144.4,57.462c.444-.4.7-.038.655.941l-.3,4.773a4.585,4.585,0,0,1-.863,2.476c-.248.248-.493.5-.742.753l-.756.762c-.254.254-.508.508-.765.762l-.77.768c-.485.427-.753-.127-.727-.886l.286-4.83a4.852,4.852,0,0,1,.932-2.531c.26-.254.525-.5.779-.75s.511-.5.765-.75.514-.5.762-.744.5-.493.744-.742M137.091,64.6c.479-.433.765-.075.736.912l-.28,4.862a4.676,4.676,0,0,1-.926,2.562c-.268.271-.528.542-.788.814s-.519.545-.773.819-.5.542-.753.814-.5.551-.739.822c-.577.6-.643-.349-.655-.545,0-.1,0-.231.006-.329l.263-4.923a4.969,4.969,0,0,1,.843-2.608c.239-.268.488-.534.736-.8s.5-.537.762-.8.514-.534.773-.8.528-.531.8-.8M130.61,72.06c.286-.378.439-.087.485.315a3.766,3.766,0,0,1,.014.626l-.254,4.949a6.455,6.455,0,0,1-.681,2.6c-.179.274-.352.548-.519.817s-.32.542-.467.814-.283.54-.416.811-.248.534-.355.8a.638.638,0,0,1-.124.19c-.078-.072-.141-.133-.1-1.12l.248-5a11.505,11.505,0,0,1,.4-2.62c.113-.263.231-.522.361-.788s.271-.531.421-.8.3-.528.47-.8.338-.534.519-.8m-.257,15.449c.265-3.255.912-5.468,2.086-7.176.568-.681,1.169-1.373,1.786-2.06s1.264-1.368,1.916-2.049,1.316-1.359,1.985-2.034,1.336-1.336,2.005-2c1.4-1.411,2.8-2.808,4.12-4.193,1.3-1.368,2.513-2.721,3.561-4.04a23.3,23.3,0,0,0,2.548-3.829,9.266,9.266,0,0,0,1.105-3.555l-4.045,58.981a12.355,12.355,0,0,1-1.082,4.014,28.91,28.91,0,0,1-2.47,4.348c-1.007,1.506-2.176,3.047-3.425,4.611s-2.606,3.174-3.947,4.778c-.641.756-1.281,1.521-1.919,2.282s-1.275,1.544-1.9,2.317-1.238,1.552-1.829,2.331-1.169,1.561-1.708,2.337a3.723,3.723,0,0,1-.984.788c-.5-.531-.583-.623-.56-2.378l2.758-53.476m-2.885,2.669a5.748,5.748,0,0,1,.055-.62c.026-.208.061-.416.1-.626s.089-.418.147-.629.121-.424.19-.638l.159-.369c.133.038.312.092.444.133a8.441,8.441,0,0,1,.179,2.7l-2.7,53.759a36.183,36.183,0,0,1-1.2,6.948c-.072.237-.13.473-.185.71s-.107.47-.147.7-.072.467-.1.7-.046.462-.052.693l3.111-63.456m19.1,32.66a14.812,14.812,0,0,1,.329-2.245c.04-.156.072-.306.107-.459s.061-.3.084-.453.052-.3.069-.453.029-.291.043-.441l-.482,6.98c-.012.147-.023.3-.043.447s-.04.3-.064.453-.052.306-.089.462-.064.309-.107.465a1.376,1.376,0,0,1-.075.19c-.063-.072-.1-.107-.058-.851l.286-4.094m-1.373,1.838c.1-.167.113-.173.2-.222.075.035.176.081.136.863l-.277,4.112a6.906,6.906,0,0,1-.534,2.3c-.15.268-.3.54-.456.814s-.323.545-.5.822-.346.551-.528.834-.369.557-.566.84c-.366.5-.476.115-.511-.075a2.881,2.881,0,0,1-.012-.5l.271-4.149a5.536,5.536,0,0,1,.718-2.369c.193-.28.384-.557.566-.831s.358-.551.528-.822.335-.542.5-.814.312-.534.462-.8m-5.482,7.811c.566-.652.632.138.635.3.006.084,0,.2,0,.28l-.265,4.175a5.07,5.07,0,0,1-.814,2.395c-.237.294-.467.592-.7.886s-.479.594-.716.892l-.727.895c-.242.3-.488.6-.733.9-.6.678-.692-.242-.692-.242a1.923,1.923,0,0,1,0-.289l.248-4.21a5.425,5.425,0,0,1,.877-2.456c.248-.3.493-.592.742-.886s.485-.592.727-.886.479-.589.721-.877.473-.586.7-.877m-6.937,8.42c.514-.589.693-.115.716.254,0,.084,0,.2-.006.286l-.237,4.236a5.231,5.231,0,0,1-.88,2.487q-.372.472-.744.952c-.248.315-.491.632-.733.952s-.476.635-.713.952-.47.638-.7.955c-.473.612-.591.127-.617-.107a3.77,3.77,0,0,1-.009-.4l.231-4.276a5.515,5.515,0,0,1,.791-2.525c.231-.315.462-.626.7-.941s.473-.629.718-.944.488-.626.736-.941.5-.629.744-.938m-6.134,8.749c.144-.242.179-.251.294-.28.1.055.213.124.185.845l-.219,4.3a7.007,7.007,0,0,1-.635,2.51c-.17.315-.335.629-.49.941s-.306.626-.447.935-.271.623-.392.932-.24.62-.343.923a.711.711,0,0,1-.141.274c-.069-.052-.113-.092-.081-.848l.214-4.334a12.3,12.3,0,0,1,.372-2.5c.11-.3.225-.606.349-.912s.254-.615.4-.92.291-.617.447-.923.323-.623.493-.935m1.619-75.668-4.62,94.077a15.439,15.439,0,0,1,1.238-5.029,34,34,0,0,1,2.819-5.24c1.131-1.76,2.424-3.532,3.786-5.3,1.353-1.754,2.776-3.506,4.178-5.231,1.333-1.645,2.657-3.284,3.91-4.9,1.238-1.6,2.392-3.183,3.393-4.726a29.741,29.741,0,0,0,2.444-4.455,12.829,12.829,0,0,0,1.082-4.109l6-87.434a8.739,8.739,0,0,1-1.105,3.428,22.7,22.7,0,0,1-2.571,3.685c-1.059,1.267-2.285,2.565-3.6,3.881s-2.738,2.672-4.158,4.022c-1.5,1.42-3.018,2.859-4.461,4.305-1.457,1.463-2.839,2.929-4.045,4.389a25.7,25.7,0,0,0-3,4.38,10.388,10.388,0,0,0-1.287,4.265" transform="translate(-123.645 -41.633)" fill="#fff"/>
      <path id="Path_1699" data-name="Path 1699" d="M127.619,77.746c.265-3.255.912-5.468,2.086-7.176.568-.681,1.169-1.373,1.786-2.06s1.264-1.368,1.916-2.049,1.316-1.359,1.985-2.034,1.336-1.336,2.005-2c1.4-1.411,2.8-2.808,4.12-4.193,1.3-1.368,2.513-2.721,3.561-4.04a23.3,23.3,0,0,0,2.548-3.829,9.266,9.266,0,0,0,1.105-3.555l-4.045,58.981a12.355,12.355,0,0,1-1.082,4.014,28.908,28.908,0,0,1-2.47,4.348c-1.007,1.506-2.176,3.047-3.425,4.611s-2.606,3.174-3.947,4.778c-.641.756-1.281,1.521-1.919,2.282s-1.275,1.544-1.9,2.317-1.238,1.552-1.829,2.331-1.169,1.561-1.708,2.337a3.723,3.723,0,0,1-.984.788c-1.394-1.486,2.155-55.308,2.2-55.853" transform="translate(-120.91 -31.87)"/>
      <path id="Path_1700" data-name="Path 1700" d="M127,60.341a5.744,5.744,0,0,1,.055-.62c.026-.208.061-.416.1-.626s.089-.418.147-.629.121-.424.19-.638l.159-.369c.133.038.312.092.444.133.257,1.053.257,1.053-2.522,56.456a36.186,36.186,0,0,1-1.2,6.948c-.072.237-.13.473-.185.71s-.107.47-.147.7-.072.467-.1.7-.046.462-.052.693L127,60.341" transform="translate(-123.179 -11.796)" fill="#fff"/>
    </g>
    <path id="Path_1701" data-name="Path 1701" d="M152.494,41.632l-6,87.44a12.794,12.794,0,0,1-1.082,4.106,30.289,30.289,0,0,1-2.444,4.458c-1,1.544-2.155,3.122-3.393,4.726s-2.577,3.258-3.91,4.9c-1.4,1.725-2.825,3.474-4.178,5.231s-2.655,3.546-3.786,5.3a33.891,33.891,0,0,0-2.819,5.243,15.388,15.388,0,0,0-1.238,5.026l4.62-94.079a10.388,10.388,0,0,1,1.287-4.265,25.7,25.7,0,0,1,3-4.38c1.206-1.46,2.588-2.932,4.045-4.392s2.958-2.885,4.461-4.3c1.42-1.35,2.834-2.7,4.158-4.025s2.542-2.611,3.6-3.881a22.577,22.577,0,0,0,2.571-3.685A8.709,8.709,0,0,0,152.494,41.632Z" transform="translate(195.846 9.518)" fill="none"/>
    <g id="Group_6396" data-name="Group 6396" transform="translate(318.664 44.903)">
      <path id="Path_1702" data-name="Path 1702" d="M519.882,45.861a1.038,1.038,0,0,1,.8,1.518l-1.463,3.8a1.891,1.891,0,0,1-1.844,1.192l-1.261-.147-1.261-.144c-.424-.049-.845-.092-1.264-.141s-.845-.092-1.27-.141a1.023,1.023,0,0,1-.811-1.486l1.44-3.809a1.914,1.914,0,0,1,1.847-1.221l1.272.141,1.27.144c.424.049.848.1,1.27.147s.851.1,1.273.15m-11.4-1.232c.635.1.877.681.617,1.477l-1.431,3.809a1.824,1.824,0,0,1-1.63,1.244c-.358-.038-.713-.069-1.068-.1s-.719-.061-1.071-.1-.713-.061-1.07-.089-.713-.061-1.068-.087c-.632-.1-.874-.661-.62-1.44l1.411-3.82a1.85,1.85,0,0,1,1.63-1.275c.355.029.713.058,1.073.089s.716.063,1.071.1.718.063,1.079.1.716.066,1.076.1m-9.986-.805c.638.084.88.652.623,1.446l-1.4,3.823a1.865,1.865,0,0,1-1.616,1.278l-1.065-.066-1.059-.069c-.358-.02-.71-.038-1.065-.061s-.71-.04-1.065-.058c-.626-.075-.866-.632-.62-1.414l1.382-3.832a1.873,1.873,0,0,1,1.613-1.31c.355.017.71.038,1.065.058s.71.043,1.068.066.71.043,1.068.066.71.049,1.068.072m-9.929-.542c.629.069.877.626.623,1.423l-1.371,3.841a1.886,1.886,0,0,1-1.6,1.31c-.352-.012-.707-.023-1.059-.038s-.7-.026-1.059-.038-.7-.026-1.053-.035-.713-.023-1.065-.029c-.626-.058-.874-.6-.629-1.394l1.35-3.849a1.942,1.942,0,0,1,1.6-1.347c.352.012.71.023,1.068.038s.7.023,1.059.038.71.023,1.068.038l1.062.043m-9.9-.289c.629.052.88.6.632,1.405l-1.345,3.855a1.947,1.947,0,0,1-1.584,1.345c-.358,0-.707-.006-1.062-.012l-1.05-.012-1.062-.009c-.355,0-.707,0-1.059,0-.629-.043-.88-.58-.64-1.371l1.327-3.869a1.975,1.975,0,0,1,1.59-1.379l1.071.009c.349,0,.7.006,1.059.012s.71.009,1.062.014l1.062.014m-9.9-.049c.632.038.886.577.644,1.379L468.091,48.2a1.988,1.988,0,0,1-1.576,1.382l-1.059.012-1.062.014c-.349,0-.707.012-1.059.017s-.707.014-1.062.023c-.623-.029-.88-.56-.646-1.353l1.3-3.89a2.012,2.012,0,0,1,1.584-1.417l1.065-.014c.355-.006.71-.012,1.062-.014l1.062-.012,1.065-.009m-9.9.179c.632.023.886.56.649,1.365l-1.3,3.9a2.022,2.022,0,0,1-1.567,1.417l-1.065.038c-.355.009-.707.023-1.059.038l-1.065.043-1.065.043c-.629-.012-.892-.537-.661-1.333l1.275-3.918a2.051,2.051,0,0,1,1.581-1.448c.352-.014.71-.026,1.062-.04s.716-.023,1.07-.035.713-.023,1.07-.038.71-.023,1.068-.032m-9.949.4c.638.009.9.54.675,1.353L448.315,48.8a2.072,2.072,0,0,1-1.567,1.448l-1.07.061c-.352.017-.71.04-1.065.063s-.71.043-1.065.066l-1.065.066c-.638,0-.9-.519-.678-1.322l1.252-3.941a2.106,2.106,0,0,1,1.573-1.483c.361-.023.718-.043,1.076-.063s.713-.04,1.07-.061.71-.038,1.07-.055.713-.038,1.068-.058m-9.986.609c.638,0,.906.522.681,1.339l-1.249,3.953a2.114,2.114,0,0,1-1.564,1.483c-.355.023-.71.052-1.07.081s-.713.055-1.071.084-.716.058-1.073.089-.718.058-1.07.092c-.649.012-.918-.5-.7-1.307l1.229-3.976a2.153,2.153,0,0,1,1.573-1.515c.364-.032.721-.055,1.082-.084s.716-.058,1.076-.084.716-.052,1.076-.081l1.079-.075m-10.056.805c.649-.017.921.5.7,1.33l-1.218,3.982a2.171,2.171,0,0,1-1.561,1.515c-.364.035-.724.072-1.085.11s-.721.066-1.079.1-.721.069-1.082.11-.724.072-1.085.11c-.643.026-.926-.482-.713-1.3l1.206-4a2.2,2.2,0,0,1,1.573-1.549c.366-.035.727-.072,1.088-.1s.727-.069,1.091-.1l1.085-.1c.361-.032.721-.063,1.082-.1m-10.125,1c.646-.029.929.488.718,1.316l-1.2,4.019a2.207,2.207,0,0,1-1.564,1.549c-.367.04-.727.081-1.091.124l-1.091.127-1.088.13c-.367.04-.727.087-1.094.13-.649.038-.935-.47-.727-1.29L412.795,48a2.228,2.228,0,0,1,1.573-1.581c.366-.043.733-.084,1.1-.124s.727-.081,1.094-.124.73-.078,1.091-.118.73-.078,1.1-.118m-10.22,1.177c.661-.04.949.473.739,1.313l-1.172,4.054a2.255,2.255,0,0,1-1.573,1.581c-.364.049-.733.1-1.1.141s-.73.1-1.1.147-.73.1-1.1.15l-1.1.147c-.658.052-.949-.45-.747-1.278l1.157-4.077a2.239,2.239,0,0,1,1.575-1.613c.369-.049.739-.1,1.1-.141s.739-.1,1.111-.144.733-.092,1.1-.141.733-.089,1.1-.139m-10.312,1.359c.666-.055.964.459.756,1.3l-1.151,4.092a2.29,2.29,0,0,1-1.567,1.616c-.369.049-.736.107-1.108.159s-.739.11-1.108.167-.742.11-1.114.167-.742.11-1.111.164c-.664.063-.961-.439-.765-1.272l1.131-4.118a2.311,2.311,0,0,1,1.578-1.648c.372-.055.747-.11,1.117-.162s.744-.1,1.117-.159.742-.107,1.114-.156.742-.107,1.111-.156M387.8,49.991c.669-.058.975.45.773,1.3l-1.125,4.129a2.316,2.316,0,0,1-1.57,1.648l-1.12.182c-.372.058-.747.121-1.122.179s-.747.124-1.12.188-.75.121-1.128.182c-.669.075-.984-.427-.788-1.267l1.108-4.161a2.347,2.347,0,0,1,1.59-1.679l1.122-.176c.378-.061.756-.118,1.125-.179l1.134-.173,1.12-.173m-10.52,1.676c.678-.066.99.441.8,1.3l-1.1,4.169a2.365,2.365,0,0,1-1.578,1.679c-.375.063-.756.133-1.134.2l-1.128.2c-.381.066-.759.133-1.137.2s-.759.133-1.137.2c-.681.081-1-.418-.814-1.267l1.085-4.2a2.382,2.382,0,0,1,1.587-1.711c.378-.063.762-.13,1.145-.193s.753-.127,1.137-.2.759-.124,1.14-.188l1.137-.19m-10.633,1.824c.684-.078,1,.433.817,1.3L366.4,59a2.4,2.4,0,0,1-1.581,1.711c-.381.069-.765.141-1.145.214s-.762.141-1.146.214-.765.141-1.146.216l-1.148.216c-.687.087-1.013-.41-.831-1.27l1.056-4.244a2.419,2.419,0,0,1,1.59-1.743c.384-.066.768-.141,1.148-.208s.77-.139,1.157-.208.765-.136,1.148-.208.768-.133,1.151-.2M355.9,55.45c.693-.084,1.027.424.845,1.3L355.7,61.013a2.431,2.431,0,0,1-1.59,1.737c-.384.078-.768.15-1.154.228s-.767.153-1.157.225l-1.157.231-1.16.231c-.69.1-1.024-.4-.848-1.272l1.027-4.288a2.446,2.446,0,0,1,1.593-1.775c.39-.072.773-.147,1.166-.222s.773-.144,1.16-.219l1.16-.219c.387-.072.773-.147,1.163-.219m-10.855,2.083c.707-.1,1.042.418.863,1.307l-1.019,4.3a2.444,2.444,0,0,1-1.587,1.772c-.384.081-.776.162-1.16.239s-.782.162-1.172.239-.776.164-1.166.242-.785.164-1.174.245c-.7.1-1.042-.4-.871-1.275l1-4.337a2.444,2.444,0,0,1,1.593-1.8c.39-.081.785-.159,1.174-.234s.782-.159,1.174-.237.782-.153,1.171-.231.782-.153,1.169-.234m-10.953,2.2c.71-.1,1.053.413.883,1.31l-.993,4.351a2.456,2.456,0,0,1-1.581,1.8c-.4.081-.788.167-1.18.248l-1.177.254c-.4.084-.788.17-1.177.254s-.788.167-1.18.254c-.707.113-1.059-.39-.9-1.281l.97-4.383a2.493,2.493,0,0,1,1.6-1.832c.4-.081.791-.164,1.183-.245s.788-.159,1.186-.242.793-.162,1.183-.245.788-.159,1.183-.242m-11.048,2.3c.71-.107,1.068.41.9,1.313l-.964,4.4a2.485,2.485,0,0,1-1.584,1.824c-.4.092-.791.176-1.183.265l-1.192.263c-.4.087-.8.176-1.192.263s-.791.173-1.189.265c-.71.113-1.068-.392-.912-1.293l.941-4.429a2.5,2.5,0,0,1,1.593-1.858c.4-.087.8-.17,1.195-.254l1.195-.257c.4-.084.8-.17,1.192-.254s.8-.167,1.2-.251m-11.132,2.383c.718-.113,1.079.407.923,1.322l-.935,4.452a2.484,2.484,0,0,1-1.581,1.852c-.4.089-.794.179-1.195.271l-1.195.268c-.4.092-.794.182-1.195.271s-.8.185-1.2.274c-.719.118-1.082-.392-.929-1.3l.912-4.481a2.486,2.486,0,0,1,1.587-1.884c.4-.089.8-.176,1.2-.263s.8-.176,1.2-.263.8-.176,1.2-.263.8-.173,1.2-.26M300.707,66.87c.727-.115,1.1.4.952,1.333l-.906,4.5a2.5,2.5,0,0,1-1.578,1.881c-.4.089-.8.182-1.2.274l-1.2.277c-.4.092-.8.188-1.2.277l-1.2.277c-.718.118-1.091-.392-.949-1.31l.874-4.53a2.5,2.5,0,0,1,1.584-1.91l1.209-.268c.4-.089.8-.176,1.206-.268s.808-.176,1.2-.265.805-.179,1.2-.265m-11.236,2.5c.721-.115,1.1.415.955,1.35l-.871,4.547a2.5,2.5,0,0,1-1.567,1.9c-.4.089-.8.188-1.2.28l-1.206.277c-.4.1-.8.188-1.2.283l-1.2.283c-.724.124-1.108-.4-.972-1.322l.845-4.585a2.5,2.5,0,0,1,1.584-1.93c.4-.089.8-.182,1.206-.271s.805-.182,1.206-.274l1.212-.268,1.212-.274M278.2,71.911c.727-.118,1.105.415.969,1.365l-.834,4.6a2.5,2.5,0,0,1-1.555,1.922c-.4.1-.8.19-1.206.286s-.805.188-1.206.283-.8.188-1.2.283-.8.19-1.2.283c-.718.124-1.1-.4-.975-1.339l.814-4.634a2.472,2.472,0,0,1,1.558-1.948l1.212-.277c.4-.089.8-.182,1.212-.274s.808-.179,1.206-.271.808-.185,1.212-.274m-12.041,2.727c1.105-.2,1.749.28,1.639,1.232l-.8,4.651a3,3,0,0,1-2.193,2.092c-.612.144-1.221.286-1.829.43s-1.215.286-1.829.433l-1.821.424c-.609.144-1.215.286-1.821.43-1.091.211-1.734-.268-1.639-1.212l.768-4.7a2.967,2.967,0,0,1,2.19-2.124q.913-.2,1.826-.413c.615-.139,1.223-.274,1.838-.416s1.223-.274,1.838-.413,1.223-.28,1.832-.416m-17.021,3.838c1.1-.2,1.743.3,1.645,1.27l-.742,4.726a2.956,2.956,0,0,1-2.164,2.109c-.6.141-1.206.283-1.8.421s-1.2.28-1.8.418-1.2.28-1.8.415l-1.8.416c-1.076.2-1.711-.294-1.622-1.255l.7-4.773a2.89,2.89,0,0,1,2.138-2.132q.9-.2,1.806-.4l1.806-.4,1.812-.407,1.815-.407m-16.75,3.708c1.073-.185,1.705.332,1.625,1.316l-.687,4.8a2.862,2.862,0,0,1-2.1,2.112c-.592.136-1.177.268-1.763.4s-1.174.263-1.76.392-1.171.265-1.751.4l-1.749.39c-1.047.185-1.674-.326-1.593-1.307l.643-4.848a2.748,2.748,0,0,1,2.072-2.129l1.757-.375c.586-.127,1.171-.251,1.763-.381s1.174-.254,1.766-.384,1.183-.254,1.774-.384m-16.277,3.465c1.033-.164,1.65.375,1.575,1.371l-.626,4.871A2.725,2.725,0,0,1,215.05,94l-1.7.364c-.566.121-1.128.239-1.691.361s-1.122.239-1.682.352-1.12.237-1.674.355a1.2,1.2,0,0,1-1.547-1.371l.586-4.911a2.645,2.645,0,0,1,1.977-2.115L211,86.693q.853-.173,1.7-.343c.568-.118,1.137-.231,1.705-.349l1.711-.352m-15.581,3.1a1.225,1.225,0,0,1,1.506,1.443l-.563,4.934a2.569,2.569,0,0,1-1.9,2.08c-.54.107-1.079.211-1.61.317s-1.073.208-1.6.309-1.056.2-1.587.306-1.053.2-1.575.3c-.944.124-1.512-.441-1.451-1.451l.531-4.966a2.428,2.428,0,0,1,1.838-2.08c.528-.1,1.056-.19,1.587-.291s1.065-.193,1.6-.291,1.073-.2,1.613-.3,1.079-.2,1.622-.306m-14.612,2.6c.912-.1,1.466.5,1.408,1.529l-.514,4.989a2.365,2.365,0,0,1-1.757,2.034c-.5.084-1,.17-1.489.254s-.987.164-1.474.245-.978.162-1.466.239-.964.153-1.443.228c-.863.084-1.388-.522-1.336-1.538l.473-5.024a2.25,2.25,0,0,1,1.682-2.026c.482-.072.967-.147,1.457-.222s.975-.15,1.472-.228.987-.156,1.486-.237,1-.162,1.5-.245m-13.368,1.968c.828-.055,1.324.583,1.278,1.619l-.456,5.041a2.154,2.154,0,0,1-1.587,1.971c-.447.063-.9.118-1.339.179l-1.316.164c-.441.052-.877.1-1.307.153s-.857.1-1.287.15c-.756.032-1.218-.612-1.169-1.645l.418-5.064a2.026,2.026,0,0,1,1.489-1.953l1.29-.138c.433-.052.869-.1,1.307-.15s.886-.1,1.333-.159.895-.113,1.345-.167m-11.81,1.195c.716,0,1.146.684,1.1,1.731l-.4,5.073c-.118,1.042-.661,1.783-1.376,1.89-.392.026-.779.055-1.154.084s-.762.052-1.134.072-.744.04-1.111.061-.733.035-1.091.046c-.643-.023-1.036-.716-.99-1.757l.372-5.09c.115-1.073.6-1.789,1.267-1.864.361-.014.724-.029,1.1-.046s.742-.035,1.12-.055.756-.043,1.137-.069.773-.046,1.163-.075m-9.958.294c.586.069.935.793.892,1.85l-.358,5.1c-.107,1.039-.554,1.74-1.14,1.786-.32-.006-.632-.017-.944-.023s-.617-.023-.918-.04-.6-.026-.892-.043-.58-.04-.866-.063c-1.509-.162-1.561-1.945-1.561-1.962l.332-5.113s.254-1.757,1.809-1.668c.286.023.577.043.871.061s.594.037.9.052.615.029.923.037.629.023.949.026m-12.722-2.1a2.592,2.592,0,0,1,1.65,2.421l-.3,5.107a1.338,1.338,0,0,1-1.855,1.215c-.531-.188-1.036-.384-1.526-.583s-.946-.4-1.388-.606-.854-.413-1.249-.626-.768-.424-1.122-.643a3,3,0,0,1-.949-2.493l.268-5.09c.081-1.062.5-1.477,1.143-1.14q.532.325,1.134.638c.4.211.817.416,1.261.623s.912.4,1.4.6,1,.392,1.538.58m-9.317-6.091a5.533,5.533,0,0,1,.441,2.577l-.254,5.073c-.078,1.192-.39,1.3-.568,1.1-.017-.02-.035-.052-.052-.072a7.411,7.411,0,0,1-.4-.742,6.693,6.693,0,0,1-.291-.756,6.126,6.126,0,0,1-.208-.765,6.458,6.458,0,0,1-.113-.776c-.029-.418-.014-1.05.061-2.606l.239-5.032c.02-.381.026-.759.075-1.137a.489.489,0,0,1,.04.144,6.315,6.315,0,0,0,.118.762,5.855,5.855,0,0,0,.2.756,6.485,6.485,0,0,0,.3.744,6.821,6.821,0,0,0,.4.733m338.121-30.92c.975-2.3,2.4-3.532,4.345-3.763q4.506,0,9.029.115,4.506.113,9.037.329t9.066.551q4.544.333,9.115.785,2.333.229,4.669.491t4.666.531q2.333.273,4.654.551c1.544.188,3.087.369,4.62.551L506.9,104.615q-2.2-.247-4.429-.5c-1.489-.17-2.972-.34-4.464-.508s-2.986-.326-4.484-.482-2.984-.3-4.475-.433q-4.4-.4-8.769-.655t-8.731-.387q-4.363-.139-8.714-.141t-8.711.1c-1.76-.167-2.326-1.241-1.78-3.373l14.528-42.543m-5.122-3.667c2.441.263,2.173,2.435,1.792,3.708L449.111,98.35a5.288,5.288,0,0,1-4.143,3.61q-6.458.338-12.927.906-6.505.571-13.019,1.362-6.561.792-13.149,1.786-6.631,1-13.287,2.19c-1.818.113-2.484-.889-2.043-3.056l12.8-44.49A6.167,6.167,0,0,1,407.65,56.3q6.873-.892,13.717-1.625,6.787-.718,13.564-1.267,6.726-.541,13.446-.894,6.683-.346,13.368-.493m-63.941,5.629c2.556-.049,2.4,2.167,2.072,3.494l-12.7,44.62a6.3,6.3,0,0,1-4.129,4.221q-6.778,1.329-13.582,2.816-6.869,1.5-13.766,3.145-6.968,1.653-13.954,3.445-7.059,1.8-14.13,3.716c-1.936.306-2.721-.655-2.383-2.94L336.172,72.9a6.763,6.763,0,0,1,4.357-4.911q7.315-1.528,14.615-2.969,7.215-1.42,14.418-2.73,7.124-1.3,14.217-2.467,7.029-1.156,14.026-2.176M330.038,70.235c2.747-.257,2.709,2.066,2.444,3.474L321.647,121.14a6.875,6.875,0,0,1-4.167,4.752q-7.193,2.008-14.381,4.086-7.254,2.1-14.485,4.247-7.306,2.168-14.545,4.351-7.319,2.207-14.537,4.406c-3.292.62-2.929-1.927-2.77-3.015l8.662-50.46c.71-3.555,2.779-4.876,4.389-5.361q7.522-1.792,15.148-3.6,7.531-1.783,15.125-3.552,7.5-1.749,15.042-3.454,7.449-1.679,14.909-3.3m-74.854,17.4c2.975-.58,4.787.733,4.507,3.269l-8.457,50.714a8.549,8.549,0,0,1-5.725,5.615c-7.355,2.23-14.586,4.4-21.626,6.475-7.147,2.1-14.092,4.1-20.778,5.944-6.769,1.867-13.256,3.569-19.376,5.055-6.192,1.506-12.009,2.782-17.359,3.78-2.236.144-3.269-1.036-3.261-3.722l4.683-54.442c.352-2.822,2.026-4.934,4.262-5.381,5.653-.776,11.784-1.8,18.314-3.015,6.452-1.2,13.276-2.582,20.388-4.109,7.02-1.506,14.309-3.142,21.8-4.871,7.372-1.7,14.932-3.486,22.625-5.312M127.137,94.291a7.041,7.041,0,0,0,.534,3.128,8.652,8.652,0,0,0,2.124,2.929,16.827,16.827,0,0,0,3.967,2.672,37.269,37.269,0,0,0,6.083,2.355c.439.133.892.254,1.365.366s.978.211,1.492.3,1.059.17,1.619.237,1.134.13,1.731.179c1.007.087,2.075.141,3.194.173s2.3.038,3.523.014,2.5-.063,3.826-.136,2.692-.164,4.112-.283c2.112.124,3.125,1.616,3.1,4.562l-4.5,54.566c-.427,2.718-1.63,4.3-3.667,4.824-1.342.162-2.634.3-3.884.407s-2.458.193-3.615.245-2.262.075-3.321.069-2.06-.046-3.015-.115c-.56-.04-1.1-.1-1.63-.159s-1.03-.136-1.518-.222-.955-.185-1.4-.3-.877-.237-1.29-.375a31.351,31.351,0,0,1-5.71-2.453,15.449,15.449,0,0,1-3.722-2.865,9.317,9.317,0,0,1-1.979-3.188,9.134,9.134,0,0,1-.485-3.454q1.537-31.743,3.073-63.48m369.534,11.986a.953.953,0,0,1,.794,1.365l-1.319,3.416a1.757,1.757,0,0,1-1.725,1.068l-1.2-.13c-.4-.043-.8-.087-1.2-.127s-.8-.087-1.2-.124-.8-.087-1.2-.124a.934.934,0,0,1-.8-1.336l1.293-3.422a1.784,1.784,0,0,1,1.728-1.1c.4.04.808.081,1.206.124s.814.084,1.212.127l1.209.127c.4.046.808.089,1.209.136m-10.849-1.068c.609.087.845.606.612,1.316l-1.284,3.425a1.679,1.679,0,0,1-1.524,1.125c-.335-.029-.681-.052-1.019-.081s-.681-.052-1.019-.075l-1.021-.072c-.338-.026-.675-.046-1.013-.069-.609-.078-.848-.58-.62-1.284l1.264-3.428a1.726,1.726,0,0,1,1.526-1.163c.34.023.681.049,1.024.072s.681.052,1.027.072.681.052,1.024.081.678.052,1.022.081m-9.519-.62c.609.072.851.571.623,1.287l-1.258,3.437a1.74,1.74,0,0,1-1.512,1.163c-.346-.017-.678-.035-1.016-.043s-.675-.032-1.016-.046-.678-.023-1.013-.038-.681-.023-1.016-.037c-.6-.052-.848-.545-.626-1.247l1.244-3.442a1.766,1.766,0,0,1,1.515-1.2c.335.012.675.023,1.016.038s.678.026,1.022.04.678.029,1.016.04.681.035,1.021.049m-9.482-.306c.6.046.845.54.618,1.255l-1.229,3.451a1.791,1.791,0,0,1-1.5,1.2c-.332-.006-.672-.009-1.01-.012s-.675-.009-1.013-.012-.675-.006-1.013-.006-.675,0-1.01,0c-.6-.038-.851-.517-.632-1.221l1.218-3.46a1.818,1.818,0,0,1,1.5-1.235c.343,0,.681,0,1.021.006s.675.006,1.013.009.678.006,1.019.012.678.012,1.021.014m-9.476-.012c.6.026.854.508.635,1.229l-1.212,3.46a1.821,1.821,0,0,1-1.483,1.238c-.341.006-.675.012-1.016.02s-.672.014-1.013.02-.675.017-1.013.029-.678.017-1.016.026c-.6-.017-.857-.488-.643-1.195l1.192-3.474a1.881,1.881,0,0,1,1.5-1.272c.34-.009.678-.02,1.019-.026s.678-.017,1.019-.02.681-.014,1.016-.02.681-.009,1.019-.014m-9.482.268c.6.009.857.482.646,1.2l-1.183,3.477a1.9,1.9,0,0,1-1.486,1.278c-.335.014-.675.029-1.016.046l-1.016.052-1.013.055-1.019.058c-.606,0-.863-.459-.655-1.171l1.172-3.491a1.923,1.923,0,0,1,1.486-1.31c.34-.02.684-.038,1.021-.055l1.021-.049c.338-.017.678-.035,1.021-.049s.681-.032,1.019-.043m-9.5.537c.606-.009.866.456.658,1.177l-1.163,3.5a1.952,1.952,0,0,1-1.477,1.316c-.338.023-.681.049-1.022.078s-.678.049-1.021.078-.678.052-1.019.081l-1.019.087c-.609.017-.871-.436-.667-1.146l1.148-3.514a1.983,1.983,0,0,1,1.483-1.348c.34-.023.684-.052,1.024-.081s.681-.052,1.024-.078.684-.052,1.027-.078l1.021-.069m-9.548.791c.615-.02.877.433.669,1.16l-1.134,3.517a2.025,2.025,0,0,1-1.48,1.35c-.343.035-.681.069-1.027.1s-.681.075-1.021.11l-1.027.11c-.343.035-.684.075-1.027.113-.609.032-.874-.41-.675-1.128l1.119-3.532a2.05,2.05,0,0,1,1.486-1.385c.343-.035.684-.069,1.027-.107s.69-.072,1.033-.1.681-.072,1.024-.1.69-.069,1.033-.1m-9.6,1.042c.615-.04.88.407.684,1.137l-1.117,3.54a2.045,2.045,0,0,1-1.477,1.385l-1.03.13c-.343.046-.687.089-1.027.133s-.693.092-1.033.136-.69.092-1.033.139c-.62.049-.892-.387-.7-1.108l1.1-3.555a2.115,2.115,0,0,1,1.489-1.42c.349-.043.692-.089,1.036-.133s.7-.089,1.039-.13.69-.089,1.033-.13.69-.087,1.039-.124m-9.666,1.272c.62-.055.892.387.7,1.122l-1.091,3.563a2.107,2.107,0,0,1-1.477,1.42c-.349.052-.693.107-1.039.156s-.693.1-1.039.159l-1.039.159c-.349.055-.7.113-1.045.162-.62.066-.9-.364-.71-1.091l1.073-3.581a2.162,2.162,0,0,1,1.489-1.454c.349-.049.7-.1,1.047-.159s.692-.1,1.042-.153.7-.1,1.045-.153.7-.1,1.045-.15m-9.741,1.5c.623-.066.906.369.716,1.108l-1.071,3.592a2.178,2.178,0,0,1-1.474,1.454c-.352.058-.7.118-1.05.176s-.7.121-1.044.185-.7.121-1.053.182-.7.124-1.05.188c-.629.075-.912-.349-.73-1.076l1.053-3.613a2.207,2.207,0,0,1,1.489-1.483c.349-.063.7-.121,1.053-.182s.7-.124,1.053-.179.707-.118,1.056-.179l1.053-.173m-9.834,1.714c.635-.081.929.349.742,1.091l-1.05,3.618a2.221,2.221,0,0,1-1.48,1.492c-.349.066-.707.136-1.056.2s-.707.139-1.059.208-.707.133-1.056.2-.71.139-1.062.208c-.629.089-.926-.326-.747-1.065l1.033-3.639a2.268,2.268,0,0,1,1.486-1.518c.358-.069.71-.136,1.068-.2s.7-.136,1.059-.2.713-.136,1.065-.2.71-.13,1.059-.2m-9.92,1.919c.638-.1.935.332.756,1.082l-1.027,3.644a2.257,2.257,0,0,1-1.475,1.524q-.537.108-1.065.225c-.358.072-.716.144-1.07.225s-.719.15-1.073.225-.71.153-1.068.231c-.638.1-.938-.312-.765-1.053l1.01-3.667a2.3,2.3,0,0,1,1.489-1.552l1.076-.225,1.073-.219c.352-.075.713-.147,1.07-.222s.713-.144,1.068-.216m-10.01,2.109c.638-.1.946.317.77,1.073l-1,3.676a2.326,2.326,0,0,1-1.48,1.555c-.361.081-.721.162-1.079.245s-.719.159-1.079.242-.721.164-1.082.248-.716.167-1.073.251c-.652.113-.961-.294-.793-1.045l.987-3.7a2.327,2.327,0,0,1,1.5-1.587c.364-.081.724-.162,1.085-.245s.721-.162,1.082-.239.721-.162,1.085-.239.719-.159,1.082-.239m-10.113,2.3c.658-.118.958.289.788,1.059l-.978,3.714a2.345,2.345,0,0,1-1.483,1.584c-.361.087-.721.176-1.088.263s-.727.176-1.094.265-.724.176-1.088.265-.73.182-1.094.268c-.655.127-.969-.28-.8-1.033l.958-3.731a2.4,2.4,0,0,1,1.5-1.619c.361-.084.727-.173,1.094-.263l1.1-.26c.364-.087.73-.173,1.094-.257s.73-.173,1.1-.257m-10.217,2.461c.658-.124.978.289.814,1.059l-.955,3.742a2.39,2.39,0,0,1-1.492,1.613c-.364.1-.73.19-1.1.283s-.73.19-1.1.283l-1.1.286-1.105.286c-.661.136-.981-.268-.822-1.03l.941-3.765a2.4,2.4,0,0,1,1.492-1.645c.372-.092.739-.185,1.108-.28l1.108-.277c.366-.092.739-.188,1.105-.277l1.105-.277m-10.321,2.629c.667-.136,1,.271.84,1.047l-.929,3.777a2.415,2.415,0,0,1-1.5,1.648c-.366.1-.739.2-1.105.3s-.739.2-1.111.3-.742.2-1.111.3-.739.2-1.111.3c-.664.147-1-.257-.843-1.024l.912-3.8a2.431,2.431,0,0,1,1.5-1.674c.372-.1.742-.2,1.114-.3s.744-.2,1.117-.291.739-.2,1.111-.294l1.114-.289m-10.408,2.767c.672-.147,1.007.265.851,1.047l-.9,3.815a2.434,2.434,0,0,1-1.489,1.671c-.372.1-.744.2-1.12.314l-1.12.312-1.117.314c-.372.107-.75.211-1.122.317-.669.15-1.01-.248-.863-1.024l.886-3.838a2.457,2.457,0,0,1,1.5-1.7c.369-.1.747-.208,1.122-.309s.75-.2,1.125-.309l1.122-.309,1.122-.3m-10.494,2.9c.675-.153,1.021.257.869,1.047l-.874,3.849a2.484,2.484,0,0,1-1.492,1.7c-.378.107-.75.216-1.128.323l-1.125.326c-.372.11-.753.216-1.128.329l-1.131.329c-.678.159-1.027-.239-.886-1.021l.863-3.872a2.455,2.455,0,0,1,1.5-1.728c.372-.107.753-.216,1.131-.323s.756-.216,1.134-.32l1.134-.32,1.131-.317m-10.575,3.012c.681-.159,1.03.251.892,1.047l-.851,3.884a2.493,2.493,0,0,1-1.492,1.728c-.378.11-.753.222-1.131.335s-.762.225-1.14.335-.756.231-1.137.343-.756.228-1.137.341c-.681.164-1.033-.237-.9-1.027l.831-3.907a2.5,2.5,0,0,1,1.495-1.751l1.146-.338c.378-.107.759-.219,1.143-.329s.759-.222,1.14-.332.762-.222,1.14-.329m-10.636,3.11c.684-.164,1.042.248.906,1.053l-.822,3.918a2.509,2.509,0,0,1-1.489,1.751c-.375.113-.759.231-1.143.343s-.762.231-1.146.349-.753.231-1.137.346l-1.143.349c-.684.173-1.045-.234-.915-1.027l.8-3.95a2.5,2.5,0,0,1,1.489-1.775c.384-.115.768-.228,1.148-.34s.768-.228,1.146-.34.765-.225,1.151-.34l1.148-.338m-10.693,3.188c.69-.17,1.053.245.926,1.053l-.793,3.962a2.51,2.51,0,0,1-1.483,1.772l-1.143.355c-.384.115-.765.234-1.146.352s-.768.234-1.146.352l-1.146.355c-.684.173-1.05-.231-.926-1.036l.77-3.985a2.521,2.521,0,0,1,1.483-1.795c.384-.118.77-.231,1.154-.349s.765-.231,1.148-.343.768-.234,1.151-.349.767-.228,1.148-.343m-10.714,3.24c.69-.17,1.053.251.932,1.068l-.762,4a2.5,2.5,0,0,1-1.469,1.786c-.384.118-.768.24-1.146.358s-.768.24-1.148.358-.762.237-1.146.358-.765.24-1.143.358c-.7.179-1.059-.231-.944-1.042l.742-4.025a2.5,2.5,0,0,1,1.48-1.812l1.151-.352c.381-.118.765-.234,1.148-.349s.77-.234,1.148-.352.768-.234,1.154-.352m-10.719,3.281c.69-.176,1.062.251.944,1.076l-.73,4.034a2.489,2.489,0,0,1-1.457,1.8c-.384.118-.765.239-1.148.358s-.765.239-1.146.361-.759.239-1.137.361-.768.239-1.148.358c-.684.179-1.056-.24-.949-1.056l.716-4.06a2.477,2.477,0,0,1,1.457-1.826c.384-.118.768-.234,1.148-.352s.768-.234,1.154-.352.767-.237,1.148-.355l1.148-.349m-11.435,3.512c1.05-.283,1.665.072,1.575.9l-.7,4.071a3.106,3.106,0,0,1-2.063,2.014c-.58.179-1.154.364-1.737.545s-1.154.361-1.728.542-1.157.361-1.731.545-1.154.361-1.728.54c-1.039.289-1.653-.061-1.567-.883l.664-4.109a3.052,3.052,0,0,1,2.052-2.031c.58-.179,1.16-.352,1.74-.534s1.157-.355,1.737-.531l1.743-.534c.583-.179,1.16-.358,1.743-.534m-16.132,4.934c1.042-.274,1.659.092,1.578.929l-.646,4.126a3.047,3.047,0,0,1-2.031,2.026c-.574.176-1.14.355-1.711.528s-1.137.355-1.705.531-1.131.355-1.7.528-1.134.349-1.694.525c-1.021.274-1.63-.087-1.558-.923l.62-4.167a2.931,2.931,0,0,1,2-2.028c.568-.17,1.137-.343,1.7-.514s1.146-.346,1.714-.516,1.14-.346,1.714-.522,1.143-.346,1.717-.522m-15.829,4.764c1.013-.26,1.616.124,1.544.978l-.6,4.184a2.885,2.885,0,0,1-1.962,2.005c-.557.173-1.114.338-1.662.508s-1.111.335-1.662.5-1.105.332-1.651.5l-1.653.493c-.984.251-1.581-.13-1.515-.975l.56-4.216a2.82,2.82,0,0,1,1.933-2.017c.554-.159,1.1-.323,1.656-.485s1.108-.323,1.665-.488,1.111-.329,1.668-.493,1.117-.326,1.676-.5m-15.35,4.461c.978-.231,1.567.173,1.5,1.036l-.542,4.233a2.745,2.745,0,0,1-1.881,1.985c-.537.159-1.07.312-1.6.465s-1.065.309-1.593.462-1.056.3-1.584.45-1.05.3-1.573.447c-.946.225-1.526-.182-1.472-1.042l.511-4.265a2.64,2.64,0,0,1,1.844-1.982c.525-.147,1.05-.294,1.587-.439s1.059-.294,1.593-.447,1.065-.294,1.6-.447,1.076-.3,1.613-.456m-14.644,4.011c.923-.2,1.483.237,1.428,1.111l-.493,4.282a2.54,2.54,0,0,1-1.775,1.942l-1.506.407c-.5.136-1.007.265-1.506.4s-.993.263-1.489.39-.993.257-1.48.384c-.883.188-1.422-.26-1.371-1.125l.456-4.308a2.4,2.4,0,0,1,1.711-1.93c.491-.124.99-.248,1.486-.375s1-.254,1.5-.384,1-.26,1.515-.392,1.01-.263,1.521-.4M178.053,169.4a1.035,1.035,0,0,1,1.327,1.2l-.436,4.322a2.342,2.342,0,0,1-1.633,1.884l-1.4.329c-.459.107-.92.214-1.382.317s-.915.211-1.371.312-.9.208-1.35.3c-.808.136-1.3-.349-1.258-1.226l.413-4.345a2.158,2.158,0,0,1,1.552-1.855c.459-.1.909-.2,1.365-.3s.918-.2,1.376-.306.926-.211,1.394-.314.932-.214,1.405-.323m-12.505,2.643c.776-.1,1.247.415,1.206,1.307l-.392,4.354a2.066,2.066,0,0,1-1.477,1.8c-.418.078-.834.159-1.252.237s-.822.153-1.229.225-.817.144-1.215.214-.8.138-1.2.2c-.721.075-1.148-.441-1.108-1.345l.364-4.371a1.914,1.914,0,0,1,1.373-1.766c.4-.063.808-.13,1.206-.2s.817-.138,1.229-.214.817-.141,1.241-.219.834-.153,1.255-.231m-11.02,1.717c.664-.032,1.071.528,1.03,1.431l-.352,4.38a1.781,1.781,0,0,1-1.272,1.691c-.361.046-.719.089-1.07.127s-.71.081-1.059.115l-1.039.1c-.34.026-.681.055-1.013.084-.6.006-.967-.571-.932-1.472l.326-4.395c.1-.926.542-1.558,1.163-1.653.338-.023.681-.052,1.027-.084s.69-.061,1.042-.1.7-.072,1.062-.11.718-.084,1.088-.124m-9.279.638c.548.04.874.655.84,1.564l-.312,4.4c-.092.9-.5,1.518-1.05,1.57-.294,0-.589,0-.874,0s-.574-.009-.857-.017-.554-.017-.828-.029-.542-.026-.8-.04a1.668,1.668,0,0,1-1.46-1.676l.283-4.423a1.663,1.663,0,0,1,1.676-1.446c.266.02.542.035.814.046s.545.026.834.032.568.012.857.014.586,0,.883,0m-11.807-2a2.477,2.477,0,0,1,1.541,2.193l-.268,4.406c-.1.877-.8,1.264-1.711.944-.491-.2-.964-.4-1.414-.612s-.874-.424-1.281-.643-.8-.441-1.16-.672-.716-.459-1.042-.7a2.936,2.936,0,0,1-.88-2.305l.228-4.395c.078-.906.459-1.209,1.053-.828.332.234.681.465,1.05.69s.756.447,1.166.667.842.433,1.293.638.926.416,1.425.615m-8.6-6.645a5.793,5.793,0,0,1,.413,2.415l-.222,4.389c-.089,1.258-.47.843-.473.837a.785.785,0,0,1-.089-.141,7.736,7.736,0,0,1-.361-.828c-.107-.277-.2-.56-.277-.845s-.133-.568-.179-.86-.078-.58-.1-.877c-.02-.392-.017-.909.055-2.47l.216-4.357c.009-.289.017-.58.055-.871a.937.937,0,0,1,.035.234c.023.291.055.58.1.866s.113.571.185.851.17.563.277.837a7.45,7.45,0,0,0,.366.822m3.076-87.654q-2.272,47.056-4.542,94.114a9.43,9.43,0,0,0,.467,3.517,9.548,9.548,0,0,0,1.945,3.246,15.076,15.076,0,0,0,3.665,2.9,30.166,30.166,0,0,0,5.635,2.479,24.413,24.413,0,0,0,2.652.667c2.014.286,2.551.332,3.1.375,5.214.366,12.006-.265,20.094-1.685,7.987-1.405,17.174-3.569,27.256-6.279,9.888-2.658,20.582-5.811,31.823-9.271,10.968-3.373,22.414-7.012,34.12-10.74,19.924-6.345,40.546-12.909,61.2-18.943,19.7-5.756,39.481-11.048,59-15.275a461.322,461.322,0,0,1,55.96-8.864,306.41,306.41,0,0,1,54.486-.291c1.48.127,2.958.271,4.438.421s2.96.309,4.438.47,2.955.329,4.423.5,2.929.335,4.386.5l1.088-2.767-2.078-.234c-.234-.026-.465-.055-.7-.081l.542-4.764c.522-.32,1.218-.753,1.737-1.079,1.627.188,1.861.214,2.092.24l.7.078,21.139-53.8c-1.7-.2-1.942-.234-2.184-.263l-.733-.087.681-5.3c.554-.361,1.3-.843,1.858-1.2l2.2.263c.245.032.488.058.733.087l1.333-3.4c-1.544-.185-3.1-.375-4.666-.563s-3.128-.378-4.7-.563-3.139-.369-4.712-.548-3.142-.343-4.712-.5A412.084,412.084,0,0,0,454.611,39.8a587.389,587.389,0,0,0-58.661,5.451c-20.487,2.862-41.253,6.613-61.976,10.768-21.8,4.38-43.625,9.219-64.792,13.919-12.477,2.764-24.7,5.479-36.443,7.981-12.061,2.571-23.562,4.908-34.23,6.847-10.89,1.979-20.827,3.529-29.5,4.47-8.783.946-16.184,1.261-21.874.765-2.323-.254-2.871-.332-3.393-.421-2-.415-2.464-.537-2.9-.669a39.752,39.752,0,0,1-6.178-2.32,17.337,17.337,0,0,1-4.028-2.614,8.456,8.456,0,0,1-2.158-2.857,6.524,6.524,0,0,1-.56-3.033" transform="translate(-123.358 -39.467)" fill="#fff"/>
      <path id="Path_1703" data-name="Path 1703" d="M251.682,47.548c.975-2.3,2.4-3.532,4.345-3.763q4.506,0,9.029.115,4.505.113,9.037.329t9.066.551q4.544.333,9.115.785,2.333.229,4.669.491t4.666.531q2.333.273,4.654.551c1.544.188,3.087.369,4.62.551L291.711,96.473q-2.2-.247-4.429-.5c-1.489-.17-2.972-.34-4.464-.508s-2.986-.326-4.484-.482-2.984-.3-4.475-.433q-4.4-.4-8.769-.655t-8.731-.387q-4.363-.138-8.714-.141t-8.711.1c-2.839-.271-2.839-.271,12.748-45.916" transform="translate(91.828 -31.325)" opacity="0.1"/>
      <path id="Path_1704" data-name="Path 1704" d="M218.1,100q6.652-1.182,13.287-2.19,6.587-.991,13.149-1.786,6.514-.783,13.019-1.362,6.466-.563,12.927-.906a5.415,5.415,0,0,0,4.143-3.61L289.05,47.526c.381-1.272.649-3.445-1.792-3.708q-6.683.147-13.368.493-6.717.351-13.446.894-6.782.545-13.564,1.267-6.847.731-13.717,1.625a6.267,6.267,0,0,0-4.311,4.357l-12.8,44.49c-.589,2.4.646,3.263,2.043,3.056" transform="translate(51.13 -31.263)" opacity="0.1"/>
      <path id="Path_1705" data-name="Path 1705" d="M195.767,111.228q7.072-1.909,14.13-3.716,6.981-1.783,13.954-3.445,6.89-1.645,13.766-3.145,6.808-1.489,13.582-2.816a6.3,6.3,0,0,0,4.129-4.221l12.7-44.62c.326-1.327.485-3.543-2.072-3.494q-7,1.017-14.026,2.176-7.09,1.169-14.217,2.467-7.193,1.307-14.418,2.73-7.3,1.437-14.615,2.969a6.833,6.833,0,0,0-4.357,4.911l-10.944,47.266c-.482,2.533.9,3.3,2.383,2.94" transform="translate(8.486 -27.585)"/>
      <path id="Path_1706" data-name="Path 1706" d="M172.41,122.9q7.215-2.19,14.537-4.406,7.237-2.181,14.545-4.351,7.219-2.138,14.485-4.247,7.18-2.077,14.381-4.086a6.875,6.875,0,0,0,4.167-4.752L245.359,53.63c.45-2.378-.537-3.771-2.444-3.474q-7.462,1.619-14.909,3.3-7.54,1.705-15.042,3.454-7.592,1.762-15.125,3.552-7.618,1.8-15.148,3.6c-1.61.485-3.679,1.806-4.389,5.361l-8.662,50.46c-.508,3.546,1.763,3.286,2.77,3.015" transform="translate(-36.236 -19.388)"/>
      <path id="Path_1707" data-name="Path 1707" d="M140.4,137.109c5.35-1,11.167-2.274,17.359-3.78,6.12-1.486,12.606-3.188,19.376-5.055,6.686-1.844,13.631-3.843,20.778-5.944,7.04-2.075,14.271-4.244,21.626-6.475,2.937-1,5.182-3.2,5.725-5.615l8.457-50.714c.188-3.647-2.744-3.613-4.507-3.269-7.693,1.826-15.252,3.613-22.625,5.312-7.493,1.728-14.782,3.364-21.8,4.871-7.113,1.526-13.937,2.911-20.388,4.109-6.53,1.218-12.661,2.239-18.314,3.015a5.922,5.922,0,0,0-4.262,5.381l-4.683,54.442c-.012,3.82,2.274,3.875,3.261,3.722" transform="translate(-97.384 -8.089)"/>
      <path id="Path_1708" data-name="Path 1708" d="M126.683,58.467a7.041,7.041,0,0,0,.534,3.128,8.652,8.652,0,0,0,2.124,2.929,16.827,16.827,0,0,0,3.967,2.672,37.27,37.27,0,0,0,6.083,2.355c.439.133.892.254,1.365.366s.978.211,1.492.3,1.059.17,1.619.237,1.134.13,1.731.179c1.007.087,2.075.141,3.194.173s2.3.038,3.523.014,2.5-.063,3.826-.136,2.692-.164,4.112-.283c3.457.2,3.457.2-1.4,59.128-.427,2.718-1.63,4.3-3.667,4.824-1.342.162-2.634.3-3.884.407s-2.458.193-3.615.245-2.262.075-3.321.069-2.06-.046-3.015-.115c-.56-.04-1.1-.1-1.63-.159s-1.03-.136-1.518-.222-.955-.185-1.4-.3-.877-.237-1.29-.375a31.352,31.352,0,0,1-5.71-2.453,15.448,15.448,0,0,1-3.722-2.865,9.317,9.317,0,0,1-1.979-3.188,9.135,9.135,0,0,1-.485-3.454q1.537-31.743,3.073-63.48" transform="translate(-122.904 -3.643)"/>
    </g>
    <path id="Path_1709" data-name="Path 1709" d="M123.372,172.209q2.268-47.06,4.542-94.12a6.517,6.517,0,0,0,.56,3.033,8.4,8.4,0,0,0,2.158,2.857,17.305,17.305,0,0,0,4.028,2.614,39.444,39.444,0,0,0,6.178,2.323c.439.133.9.251,1.385.364s.987.214,1.518.3,1.071.17,1.639.242,1.151.133,1.754.182c5.69.5,13.091.182,21.874-.768,8.674-.938,18.611-2.49,29.5-4.467,10.667-1.942,22.175-4.279,34.23-6.847,11.744-2.5,23.966-5.217,36.443-7.981,21.168-4.7,43-9.542,64.792-13.919,20.723-4.158,41.49-7.909,61.976-10.768a587.388,587.388,0,0,1,58.661-5.451,412.077,412.077,0,0,1,57.463,1.636q2.354.242,4.712.5t4.718.548c1.567.185,3.136.369,4.695.563l4.666.56-28.407,72.309q-2.186-.247-4.386-.5c-1.472-.167-2.949-.335-4.423-.5s-2.958-.32-4.438-.47-2.96-.294-4.438-.424a306.409,306.409,0,0,0-54.486.294,461.222,461.222,0,0,0-55.96,8.861c-19.517,4.233-39.3,9.522-59,15.275-20.651,6.036-41.273,12.6-61.2,18.946-11.706,3.725-23.153,7.366-34.12,10.74-11.242,3.46-21.935,6.616-31.823,9.271-10.082,2.707-19.269,4.874-27.256,6.279-8.088,1.42-14.88,2.052-20.094,1.685-.551-.04-1.088-.089-1.607-.153s-1.013-.136-1.495-.219-.941-.185-1.385-.3-.869-.234-1.267-.372a30.361,30.361,0,0,1-5.635-2.476,15.151,15.151,0,0,1-3.665-2.9,9.532,9.532,0,0,1-1.945-3.249A9.407,9.407,0,0,1,123.372,172.209Z" transform="translate(195.305 5.435)" fill="none"/>
    <g id="Group_6397" data-name="Group 6397" transform="translate(19.772 36.584)">
      <path id="Path_1710" data-name="Path 1710" d="M707.042,46.623c1.581.156,3.162.329,4.746.508s3.174.369,4.767.574,3.188.416,4.793.641,3.209.462,4.822.707l-4.666-.56c-1.558-.193-3.128-.378-4.695-.563s-3.145-.372-4.718-.548-3.142-.343-4.712-.5a412.078,412.078,0,0,0-57.463-1.636,587.388,587.388,0,0,0-58.661,5.451C570.768,53.551,550,57.3,529.279,61.46c-21.8,4.377-43.625,9.219-64.792,13.919-12.477,2.764-24.7,5.477-36.443,7.981-12.055,2.568-23.562,4.905-34.23,6.847-10.89,1.977-20.827,3.529-29.5,4.467-8.783.949-16.184,1.264-21.874.768-.6-.049-1.192-.113-1.754-.182s-1.117-.153-1.639-.242-1.033-.19-1.518-.3-.946-.231-1.385-.364c-5.754-1.691-9.3-3.708-11.193-5.944a7.055,7.055,0,0,1-1.3-7.156,23.264,23.264,0,0,1,4.914-7.664c2.254-2.551,4.954-5.11,7.583-7.6,1.965-1.85,3.91-3.693,5.629-5.491a33.331,33.331,0,0,0,4.2-5.174,8.8,8.8,0,0,0,1.6-4.7,5.4,5.4,0,0,0-2.115-4.092,13.333,13.333,0,0,0-2.836-1.815,29.217,29.217,0,0,0-4.037-1.581q-2.329-.731-5.283-1.365t-6.57-1.171q-1.6-.238-3.246-.462c-1.1-.144-2.225-.289-3.364-.424s-2.294-.271-3.465-.4-2.366-.248-3.578-.366c-16.415-1.573-36.16-2.2-57.925-2.043-22.247.162-46.914,1.143-72.522,2.8-26.5,1.723-54.263,4.19-81.47,7.26-28.387,3.2-56.295,7.072-81.4,11.423,25.095-4.444,53-8.379,81.387-11.625,27.2-3.11,54.976-5.6,81.488-7.341,25.62-1.679,50.3-2.666,72.577-2.822,21.785-.159,41.565.473,58.009,2.052q1.818.173,3.59.366t3.477.392c1.14.136,2.262.283,3.367.43s2.19.3,3.263.462q3.683.55,6.709,1.2c2.02.433,3.817.9,5.413,1.408a29.453,29.453,0,0,1,4.152,1.639,14.18,14.18,0,0,1,2.937,1.878,5.631,5.631,0,0,1,2.207,4.181,8.924,8.924,0,0,1-1.578,4.773,33.417,33.417,0,0,1-4.218,5.228c-1.726,1.818-3.688,3.682-5.647,5.552-2.6,2.458-5.26,4.983-7.479,7.5a23.381,23.381,0,0,0-4.871,7.54,6.908,6.908,0,0,0,1.189,7.012c1.812,2.187,5.237,4.152,10.806,5.791.421.124.866.239,1.33.343s.952.2,1.457.291,1.027.164,1.575.231,1.108.13,1.7.182c5.578.485,12.881.167,21.589-.782,8.6-.938,18.478-2.479,29.316-4.455,10.616-1.93,22.085-4.259,34.117-6.824,11.721-2.493,23.926-5.2,36.382-7.955,21.185-4.683,43.019-9.516,64.821-13.882,20.735-4.149,41.513-7.9,62-10.751,19.644-2.738,39.236-4.689,58.693-5.436A411.523,411.523,0,0,1,707.042,46.623Z" transform="translate(-19.772 -36.584)" fill="#949494"/>
    </g>
  </g>
</svg>
