<svg xmlns="http://www.w3.org/2000/svg" width="2341" height="894" viewBox="0 0 2341 894">
  <g id="Group_6443" data-name="Group 6443" transform="translate(21387 -10159)">
    <rect id="Rectangle_420" data-name="Rectangle 420" width="2341" height="894" transform="translate(-21387 10159)"/>
    <path id="Union_2" data-name="Union 2" d="M82.731,682.946c-67.847-95.521-119.183-274.073-49.55-393.7a189.476,189.476,0,0,1,161.586-99.093c51.336-.894,99.543,33.925,129,33.925s84.363-40.622,148.642-36.606h3.124c57.138,1.786,110.255,30.8,143.288,77.672a177.636,177.636,0,0,0-84.812,148.638A174.1,174.1,0,0,0,637.572,574.033a423.147,423.147,0,0,1-53.566,110.7c-32.584,46.87-67.846,95.526-120.075,96.419s-69.185-30.8-129-30.8-75.885,31.7-128.11,31.7S115.314,732.495,82.731,682.946Zm936.934,93.295c-106.682,0-148.642-40.173-148.642-141.946V334.329H796.036V247.736h76.329V124.093H979.941V247.736h99.094v85.257H979.941V623.132c0,45.083,19.641,66.065,63.831,66.065a240.232,240.232,0,0,0,35.707-2.679v84.812a301.2,301.2,0,0,1-53.757,4.977Q1022.692,776.308,1019.665,776.241ZM1326.77,774.9,1136.617,247.736h115.16L1383.9,668.216l133.913-420.48h112.929L1441.936,774.9Zm583.408-5.8V557.516h-208.9V458.871h208.9V248.63h99.986V458.871h209.793v98.645H2010.164V769.1Zm-1594-588.767A163.716,163.716,0,0,1,357.7,59.814,176.609,176.609,0,0,1,473.306,0,176.5,176.5,0,0,1,434.47,126.768c-27.819,33.814-69.6,53.676-112.737,53.675Q318.961,180.443,316.181,180.333Z" transform="translate(-21326 10215)" fill="#fff"/>
  </g>
</svg>
