<svg xmlns="http://www.w3.org/2000/svg" xmlns:xlink="http://www.w3.org/1999/xlink" width="522.024" height="481.112" viewBox="0 0 522.024 481.112">
  <defs>
    <linearGradient id="linear-gradient" x1="0.5" x2="0.5" y2="1" gradientUnits="objectBoundingBox">
      <stop offset="0" stop-color="#fd6b3b"/>
      <stop offset="1" stop-color="#fe936f"/>
    </linearGradient>
    <linearGradient id="linear-gradient-2" x1="0.5" x2="0.5" y2="1" gradientUnits="objectBoundingBox">
      <stop offset="0" stop-color="#ff9c7b"/>
      <stop offset="1" stop-color="#fd6b3b"/>
    </linearGradient>
    <linearGradient id="linear-gradient-4" x1="0.5" x2="0.5" y2="1" gradientUnits="objectBoundingBox">
      <stop offset="0" stop-color="#0b2238"/>
      <stop offset="1" stop-color="#183a5c"/>
    </linearGradient>
  </defs>
  <g id="Group_5788" data-name="Group 5788" transform="translate(-730.136 -112.8)">
    <g id="Group_5632" data-name="Group 5632" transform="translate(425.521 425.398)">
      <circle id="Ellipse_169" data-name="Ellipse 169" cx="19.904" cy="19.904" r="19.904" transform="translate(364.662 128.705)" fill="url(#linear-gradient)"/>
      <path id="Path_783" data-name="Path 783" d="M340.678,180.646c-2.054-.672-4.35-1.288-6.815-1.867a18.931,18.931,0,0,1,.579,2.483q2.969.756,5.6,1.568c7.469,2.39,8.944,4.295,8.888,4.761s-1.979,1.867-9.784,2.465a136.918,136.918,0,0,1-24.778-1.083,138.361,138.361,0,0,1-24.273-4.948c-7.469-2.409-8.944-4.295-8.888-4.78.149-1.232,5.6-2.614,15.516-2.633a17,17,0,0,1,1.176-2.259c-9.672-.112-18.485.9-18.952,4.612-.3,2.5,3.118,4.855,10.456,7.226a141.268,141.268,0,0,0,24.7,5.041,161.966,161.966,0,0,0,19.213,1.288c2.129,0,4.145,0,5.994-.187,7.693-.5,11.6-1.961,11.894-4.463S348.146,183.036,340.678,180.646Z" transform="translate(69.656 -36.107)" fill="#6f5fa6"/>
    </g>
    <g id="Group_5787" data-name="Group 5787">
      <g id="Delivery" transform="translate(698.881 83.626)">
        <g id="character" transform="translate(31.255 54.316)">
          <path id="Path_526" data-name="Path 526" d="M309.442,336.647c1.635-2.257,1.878-9.324,1.527-15.23s4.581-9.784,4.581-9.784h0l.324-.554L305.253,313.5a.2.2,0,0,0,0,.095c-1.527,11.027-1.351,29.581-1.351,30.338.162-1.595.23-2.7.23-2.7A18.014,18.014,0,0,0,309.442,336.647Z" transform="translate(64.536 35.897)" fill="#f0ce78"/>
          <path id="Path_527" data-name="Path 527" d="M303.975,360.567a23.96,23.96,0,0,0,9.216-10.811c3.392-8.784,5.23-13.513,5.23-13.513s-1.122-3.973-.2-5.122a1.351,1.351,0,0,1,.932-.486c1.095-.189,1.689-.568,1.973-1.351l3.365-8.716a3.757,3.757,0,0,0-.649-2.865,12.648,12.648,0,0,0-3.095-3.608,14.472,14.472,0,0,0-4.54-2.554h0s-4.919,3.878-4.581,9.784.108,12.973-1.527,15.23a18.014,18.014,0,0,1-5.284,4.608s-.068,1.095-.23,2.7a62.308,62.308,0,0,1-1.351,8.676,67.7,67.7,0,0,0-1.351,6.824,1.351,1.351,0,0,0,2.095,1.2Z" transform="translate(63.827 36.059)" fill="#0b2238"/>
          <path id="Path_528" data-name="Path 528" d="M406.2,230.53c-2.784,0-8.7,3.851-13.324,7.527s-10.635,1.905-10.635,1.905h-.635l8.108,7.3h.095c9.878-5.122,24.932-15.986,25.54-16.432-1.351.8-2.324,1.351-2.324,1.351A17.919,17.919,0,0,0,406.2,230.53Z" transform="translate(91.841 7.596)" fill="#f0ce78"/>
          <path id="Path_529" data-name="Path 529" d="M429.4,224.485a23.811,23.811,0,0,0-14.149-1.351l-14.068,3.527s-2.595,3.2-4.054,3.122a1.351,1.351,0,0,1-.946-.487,2.135,2.135,0,0,0-2.257-.824l-9.054,2.284c-.919.257-1.554,1.351-1.959,2.176a12.783,12.783,0,0,0-1.176,4.622,14.527,14.527,0,0,0,.541,5.176h0s6,1.784,10.635-1.905,10.54-7.568,13.324-7.527A17.918,17.918,0,0,1,413,234.944s.932-.568,2.324-1.351A63.886,63.886,0,0,1,423.2,229.7a66.213,66.213,0,0,0,6.324-2.865,1.351,1.351,0,0,0-.121-2.351Z" transform="translate(91.872 4.817)" fill="#0b2238"/>
          <path id="Path_530" data-name="Path 530" d="M382.155,237.53H380.06C380.965,237.571,381.682,237.557,382.155,237.53Z" transform="translate(91.296 10.055)" fill="#2755a3"/>
          <path id="Path_531" data-name="Path 531" d="M420.65,267.538l-8.108-7.3h-4.689a78.123,78.123,0,0,1-13.338-1.622c-6.757-1.27-16-3.351-27.608-6.595a50.892,50.892,0,0,0-40.446,6.149s4.473-5.635,9.824-18.919,16.216-25.676,6.757-46.811c-8.176-18.324-25.013-19.554-25.013-19.554s-16.311,13.04-22.676,49.189c-4.054,23.365-.824,57.973,4.676,63s23.23,8.5,59,3.959A161.094,161.094,0,0,0,420.7,267.633Z" transform="translate(60.895 -12.656)" fill="url(#linear-gradient-2)"/>
          <path id="Path_532" data-name="Path 532" d="M303.106,282.55c-.3-4.189-.419-8.554-.486-11.554a159.9,159.9,0,0,1,1.351-36.095c6.311-36.148,7.7-39.77,7.7-39.77S340.484,177,340.579,176.888c14.013-15.513,18.622-2.581,20.919,3.757,8.743,24.054-11.257,58.108-16.581,71.392-4.446,11.041-1.689,43.878-13.513,84.459-4.946,16.959-14,26.851-14.486,27.135-3.122,1.77-11.23-.716-11.23-.716S304.268,299.252,303.106,282.55Z" transform="translate(63.926 -13.829)" fill="url(#linear-gradient-2)"/>
          <path id="Path_533" data-name="Path 533" d="M313.873,365.292a32.055,32.055,0,0,1-8.176-1.351l-.568-.176v-.595c0-.635-1.473-63.838-2.622-80.324h0c-.284-4.216-.419-8.635-.486-11.581a159.7,159.7,0,0,1,1.351-36.257c6.257-35.824,7.689-39.784,7.743-39.932l.095-.257.23-.149c9.527-6,27.5-17.311,28.811-18.162,5.189-5.73,9.554-8.108,13.351-7.419,5.068,1,7.432,7.527,8.851,11.432,7.405,20.351-5.23,47.446-12.784,63.635-1.541,3.324-2.878,6.189-3.784,8.432-1.689,4.216-2.338,12.041-3.162,21.959-1.351,15.905-3.108,37.676-10.311,62.419-5,17.149-14.216,27.243-14.865,27.622A7.743,7.743,0,0,1,313.873,365.292Zm-7.122-2.8c2.513.7,7.892,1.838,10.013.622.973-.8,9.459-10.7,14.108-26.649,7.162-24.581,8.946-46.257,10.257-62.162.865-10.446,1.486-18,3.27-22.446.919-2.284,2.27-5.162,3.824-8.5,7.432-15.959,19.892-42.676,12.757-62.3-1.351-3.662-3.5-9.649-7.649-10.459-3.149-.608-7.149,1.73-11.892,6.973-.095.122-.162.189-28.824,18.216-.365,1.257-2.108,8.108-7.581,39.392a157.244,157.244,0,0,0-1.351,35.892c0,2.986.189,7.365.486,11.54h0c1.068,15.73,2.419,73.324,2.581,79.878Z" transform="translate(63.713 -14.031)" fill="#fff"/>
          <path id="Path_534" data-name="Path 534" d="M256.048,152.607a8.987,8.987,0,0,1,2.7,6.513,12.757,12.757,0,0,1-1.527,6.919,44.137,44.137,0,0,1-11.851-.527c-6.473-1.162-9.851-3.851-10.446-4.649-1.716-2.351-.243-2.986-.243-2.986s-.838-1.905.135-3.054c.716-.838,2.23-.149,2.23-.149a1.774,1.774,0,0,1,.838-1.865c1.081-.514,4.419,2.378,6.527,2.7a21.3,21.3,0,0,0,3.662.311s-2.446-2.149-1.351-3.014,3.054.392,5.257.324a21.285,21.285,0,0,0,4.068-.527Z" transform="translate(40.012 -19.818)" fill="#ef6744"/>
          <path id="Path_535" data-name="Path 535" d="M48.273,293.36l-14.7,8.23,12.162,65.878,15.189-.784a187.675,187.675,0,0,0,8.108-34.257,74.554,74.554,0,0,0,.608-17.365Z" transform="translate(-30.442 29.671)" fill="#0b2238"/>
          <path id="Path_536" data-name="Path 536" d="M61.657,316.286h0c-.108,0-2.838-.108-7.419-3.324-5.041-3.554-6-7.054-6.041-7.2a.824.824,0,0,1,1.595-.419s.905,3.122,5.405,6.27c4.054,2.892,6.5,3.027,6.527,3.027a.838.838,0,0,1,.784.851.824.824,0,0,1-.851.8Z" transform="translate(-25.313 33.664)" fill="#fff"/>
          <path id="Path_537" data-name="Path 537" d="M60.507,320.922h0c-.108,0-2.838-.095-7.419-3.324-5.041-3.541-6-7.04-6.041-7.189a.824.824,0,0,1,1.595-.419s.905,3.108,5.405,6.257c4.054,2.905,6.5,3.027,6.527,3.027a.838.838,0,0,1,.784.851.824.824,0,0,1-.851.8Z" transform="translate(-25.717 35.298)" fill="#fff"/>
          <path id="Path_538" data-name="Path 538" d="M59.45,325.562h0c-.122,0-2.838-.095-7.432-3.324-5.041-3.541-6-7.04-6.041-7.189a.824.824,0,0,1,1.595-.419s.905,3.108,5.405,6.27c4.054,2.892,6.5,3.027,6.527,3.027a.824.824,0,0,1,0,1.635Z" transform="translate(-26.093 36.928)" fill="#fff"/>
          <path id="Path_539" data-name="Path 539" d="M58.586,330.2h0c-.108,0-2.824-.108-7.419-3.324-5.041-3.554-6-7.04-6.041-7.189a.838.838,0,0,1,.595-1.014.824.824,0,0,1,1,.595s.905,3.095,5.405,6.257c4.054,2.892,6.5,3.027,6.527,3.027a.824.824,0,0,1,.784.851.811.811,0,0,1-.851.8Z" transform="translate(-26.391 38.557)" fill="#fff"/>
          <path id="Path_540" data-name="Path 540" d="M37.262,298.24l11.122,58.824a3.973,3.973,0,0,0,3.554,3.216l10.973.973-1.351,4.054a3.081,3.081,0,0,1-2.973,2.149H47.775a3.108,3.108,0,0,1-3.027-2.432L31.329,304.118a3.122,3.122,0,0,1,1.514-3.392Z" transform="translate(-31.255 31.386)" fill="#ef6744"/>
          <path id="Path_541" data-name="Path 541" d="M139.2,218.523s-7.554,9.2-19.284,33.3c-7.405,15.189-13.284,29.73-13.284,29.73L44.47,323.09l21.351,21.7,67.905-38.23a42.554,42.554,0,0,0,17.405-17.851L195.6,208.82Z" transform="translate(-26.613 -0.032)" fill="url(#linear-gradient-4)"/>
          <path id="Path_542" data-name="Path 542" d="M71.346,308.6a.8.8,0,0,1-.595-.257L54.575,291.366a.8.8,0,0,1,0-1.162.811.811,0,0,1,1.162,0l16.216,17a.811.811,0,0,1-.595,1.351Z" transform="translate(-23.15 28.476)" fill="#fff"/>
          <path id="Path_543" data-name="Path 543" d="M125.255,286l-14.865,9.068,41.446,53.824,12.784-8.216a186.122,186.122,0,0,0-9.932-33.784,74.77,74.77,0,0,0-8.108-15.365Z" transform="translate(-3.452 27.085)" fill="#0b2238"/>
          <path id="Path_544" data-name="Path 544" d="M138.276,299.769a25.739,25.739,0,0,1-2.581-.122c-6.135-.581-8.7-3.135-8.811-3.243a.811.811,0,0,1,0-1.162.824.824,0,0,1,1.162,0s2.324,2.243,7.784,2.7c5.014.473,7.149-.608,7.176-.608a.824.824,0,1,1,.77,1.446A12.554,12.554,0,0,1,138.276,299.769Z" transform="translate(2.257 30.248)" fill="#fff"/>
          <path id="Path_545" data-name="Path 545" d="M139.618,304.37a25.748,25.748,0,0,1-2.581-.122c-6.149-.568-8.716-3.135-8.824-3.243a.824.824,0,1,1,1.176-1.149c.068,0,2.365,2.243,7.8,2.7,5,.473,7.149-.595,7.162-.608a.824.824,0,0,1,1.108.338.811.811,0,0,1-.324,1.108A12.553,12.553,0,0,1,139.618,304.37Z" transform="translate(2.712 31.85)" fill="#fff"/>
          <path id="Path_546" data-name="Path 546" d="M141.028,308.933a17.68,17.68,0,0,1-2.581-.135c-6.135-.568-8.716-3.122-8.824-3.23a.838.838,0,0,1,0-1.176.824.824,0,0,1,1.162,0s2.351,2.243,7.8,2.7c5.014.473,7.149-.595,7.162-.608a.824.824,0,0,1,1.108.351.8.8,0,0,1-.324,1.095,12.162,12.162,0,0,1-5.5,1Z" transform="translate(3.221 33.463)" fill="#fff"/>
          <path id="Path_547" data-name="Path 547" d="M142.513,313.368a19.621,19.621,0,0,1-2.581-.122c-6.135-.581-8.716-3.135-8.811-3.243a.824.824,0,0,1,1.162-1.162s2.338,2.257,7.8,2.7c5.014.473,7.149-.595,7.176-.608a.825.825,0,0,1,.77,1.459A12.554,12.554,0,0,1,142.513,313.368Z" transform="translate(3.763 35.041)" fill="#fff"/>
          <path id="Path_548" data-name="Path 548" d="M111.662,292.67l38.662,45.351a4.054,4.054,0,0,0,4.689,1.027l10.013-4.608.878,4.189a3.108,3.108,0,0,1-1.513,3.338L155,347.278a3.122,3.122,0,0,1-3.838-.608l-42.973-47.811c-.919-1.027-1.959-2.419-.351-3.689Z" transform="translate(-4.643 29.429)" fill="#ef6744"/>
          <path id="Path_549" data-name="Path 549" d="M166.314,214.945s54.716,18.635,61.662,39.892-81.216,66.648-81.216,66.648l-21.338-5.473s7.432-12.473,22.635-28.095A222.829,222.829,0,0,1,171.463,267.3s-24.068-1.5-44.594-10.581c-17.757-7.865-20.824-30.216-12.649-41.527s15.568-14.608,15.568-14.608Z" transform="translate(-3.619 -2.927)" fill="url(#linear-gradient-4)"/>
          <path id="Path_550" data-name="Path 550" d="M147.072,322.592l-22.7-5.851.554-.946a173.907,173.907,0,0,1,22.77-28.243,225.282,225.282,0,0,1,21.8-19.405c-6.378-.622-25.851-3-42.743-10.486a28.865,28.865,0,0,1-16.338-19.324c-2.284-8.432-1-17.419,3.351-23.432,8.2-11.365,15.595-14.73,15.905-14.865l.311-.149,36.838,14.527c2.514.865,55.189,19.068,62.162,40.405,7.068,21.622-78,65.77-81.635,67.567ZM126.923,315.7l19.946,5.149c2.622-1.351,23.243-12.162,42.865-25.176,27.351-18.095,40.378-32.04,37.676-40.338-6.757-20.622-60.594-39.189-61.135-39.365h0l-36.2-14.27c-1.446.743-7.919,4.473-14.946,14.189-4.054,5.622-5.243,14.068-3.095,22.04a27.324,27.324,0,0,0,15.419,18.243c20.176,8.932,44.081,10.5,44.311,10.513l2.243.149-1.8,1.351a223.052,223.052,0,0,0-23.3,20.54A180.027,180.027,0,0,0,126.923,315.7Z" transform="translate(-3.836 -3.169)" fill="#fff"/>
          <path id="Path_551" data-name="Path 551" d="M160.426,250.3a.824.824,0,0,1-.216-1.622l9.73-2.554a.824.824,0,0,1,.419,1.595l-9.73,2.554Z" transform="translate(13.836 13.066)" fill="#fff"/>
          <path id="Path_552" data-name="Path 552" d="M165.8,254.217h-.176l-6.068-1.351a.824.824,0,1,1,.351-1.608l6.068,1.351a.838.838,0,0,1,.622.987A.811.811,0,0,1,165.8,254.217Z" transform="translate(13.58 14.868)" fill="#fff"/>
          <path id="Path_553" data-name="Path 553" d="M177.054,238.989s6.919-50.351,8.405-65.946-5.27-28.595-13.243-30.013-22.689-2.7-22.689-2.7-17.135-5.405-24.54,18.338S110,235.489,110,235.489a43.351,43.351,0,0,0,38.162,6.676,82.863,82.863,0,0,1,28.892-3.176Z" transform="translate(-3.589 -24.282)" fill="#ffce53"/>
          <path id="Path_554" data-name="Path 554" d="M335.466,128.067c-18.054-23.473-39.189-2.7-39.189-2.7a66.5,66.5,0,0,1-6.986,2.405c-7.149,1.527-11.851,9.986-12.757,19.905C258.52,165.756,250.9,165.689,250.9,165.689l3.905,12.946s11.013,2.014,30.432-3.608c.149.135.27.284.405.432a38.048,38.048,0,0,1,3.189,3.743,68.58,68.58,0,0,1-10.54,5.149,128.459,128.459,0,0,1-38.54,8l2.459,13.23s7.108,3.162,30.621,2.8a103.486,103.486,0,0,0,30.608-4.851c5.54,10.689,9.7,20.013,9.7,20.013a77.945,77.945,0,0,1,28.162-7.459c39.594-2.7,53.189-53.5,53.189-53.5S355.425,154.013,335.466,128.067Z" transform="translate(41.999 -32.333)" fill="#ffe0d5"/>
          <path id="Path_555" data-name="Path 555" d="M248.29,173.142a9.041,9.041,0,0,1,1.73,6.824,12.608,12.608,0,0,1-2.459,6.635,43.647,43.647,0,0,1-11.662-2.135c-6.257-2.054-9.23-5.176-9.7-6.054-1.351-2.554.162-2.986.162-2.986s-.581-2,.554-3c.824-.743,2.23.162,2.23.162a1.891,1.891,0,0,1,1.081-1.73c1.081-.378,4.054,2.959,6.095,3.595a20.651,20.651,0,0,0,3.581.8s-2.135-2.459-.932-3.162,2.973.8,5.162,1.041a20.7,20.7,0,0,0,4.162.014Z" transform="translate(37.039 -13.38)" fill="#ef6744"/>
          <path id="Path_556" data-name="Path 556" d="M275.407,107.719c-6.757-1.608-6.757,10.122-6.757,10.122h0q.081.568.2,1.095a16.784,16.784,0,0,0,5.23,8.108,2.7,2.7,0,0,0,2.608.541l1.351-.419s.473,1.649.7,2.838c.459,2.419,2.905,2.527,5.189,1.351a10.311,10.311,0,0,0,2.892-2.7h0a13.108,13.108,0,0,1-3.351-2.027C279.2,123.152,281.893,109.26,275.407,107.719Z" transform="translate(52.153 -35.606)" fill="#ef6744"/>
          <path id="Path_557" data-name="Path 557" d="M365.963,65.632C343.8,45.74,314.288,55.956,303.4,66.808,293.612,76.564,297.99,87.862,295.45,94s-4.419,10.149-14.013,10.068-15.892,3.892-18.054,13.04c-2.959,12.419,7.027,19.3,7.23,19.432h0s.081-11.73,6.757-10.122c6.486,1.541,3.8,15.432,8.027,18.919a13.108,13.108,0,0,0,3.351,2.027c7.446,2.919,13.068-5.527,20.851-8.919,4.054-1.784,8.73,1.662,15.513-2.595,11.878-7.459,11.905-25.865,25.2-21.757C367.977,119.5,395.666,92.267,365.963,65.632Z" transform="translate(50.109 -54.316)" fill="#0b2238"/>
          <path id="Path_558" data-name="Path 558" d="M270.836,117.733a.432.432,0,0,1-.27-.108.378.378,0,0,1-.135-.311v-3.689c0-.23.149-.378.419-.405a.419.419,0,0,1,.405.419v3.2l1.284-.176a.409.409,0,0,1,.108.811l-1.757.257Z" transform="translate(52.778 -33.621)"/>
          <path id="Path_559" data-name="Path 559" d="M272.546,119.392h-.338a.419.419,0,0,1-.378-.432.405.405,0,0,1,.446-.378c1.189.081,1.351-.405,1.351-.419a.409.409,0,0,1,.784.23S274.154,119.392,272.546,119.392Z" transform="translate(53.27 -31.982)"/>
          <path id="Path_560" data-name="Path 560" d="M273.808,113.915a2.284,2.284,0,0,1-1.257-.392.419.419,0,0,1,.473-.676h0a1.433,1.433,0,0,0,.986.216,1.676,1.676,0,0,0,1.041-.8.409.409,0,0,1,.676.459,2.406,2.406,0,0,1-1.581,1.149Z" transform="translate(53.481 -34.018)"/>
          <line id="Line_22" data-name="Line 22" y1="4.568" x2="1.986" transform="translate(381.721 171.396)" fill="none" stroke="#2755a3" stroke-linecap="round" stroke-linejoin="round" stroke-width="1"/>
          <line id="Line_23" data-name="Line 23" y1="4.568" x2="1.973" transform="translate(340.667 157.923)" fill="none" stroke="#2755a3" stroke-linecap="round" stroke-linejoin="round" stroke-width="1"/>
          <line id="Line_24" data-name="Line 24" x1="4.959" y1="0.446" transform="translate(410.937 156.505)" fill="none" stroke="#2755a3" stroke-linecap="round" stroke-linejoin="round" stroke-width="1"/>
          <line id="Line_25" data-name="Line 25" y1="2.986" x2="3.986" transform="translate(355.019 147.734)" fill="none" stroke="#2755a3" stroke-linecap="round" stroke-linejoin="round" stroke-width="1"/>
          <line id="Line_26" data-name="Line 26" x1="3.649" y1="3.365" transform="translate(360.559 93.397)" fill="none" stroke="#2755a3" stroke-linecap="round" stroke-linejoin="round" stroke-width="1"/>
          <line id="Line_27" data-name="Line 27" y1="0.324" x2="4.973" transform="translate(370.843 109.397)" fill="none" stroke="#2755a3" stroke-linecap="round" stroke-linejoin="round" stroke-width="1"/>
          <line id="Line_28" data-name="Line 28" y1="2.986" x2="3.973" transform="translate(351.546 100.167)" fill="none" stroke="#2755a3" stroke-linecap="round" stroke-linejoin="round" stroke-width="1"/>
          <line id="Line_29" data-name="Line 29" x1="3.068" y1="1.905" transform="translate(362.951 161.045)" fill="none" stroke="#2755a3" stroke-linecap="round" stroke-linejoin="round" stroke-width="1"/>
          <line id="Line_30" data-name="Line 30" x2="1.014" y2="3.473" transform="translate(408.451 166.356)" fill="none" stroke="#2755a3" stroke-linecap="round" stroke-linejoin="round" stroke-width="1"/>
          <line id="Line_31" data-name="Line 31" x1="3.905" y1="0.014" transform="translate(350.667 166.559)" fill="none" stroke="#2755a3" stroke-linecap="round" stroke-linejoin="round" stroke-width="1"/>
          <line id="Line_32" data-name="Line 32" x1="0.027" y1="3.905" transform="translate(367.465 176.032)" fill="none" stroke="#2755a3" stroke-linecap="round" stroke-linejoin="round" stroke-width="1"/>
          <line id="Line_33" data-name="Line 33" x1="1.432" y1="3.311" transform="translate(389.329 160.261)" fill="none" stroke="#2755a3" stroke-linecap="round" stroke-linejoin="round" stroke-width="1"/>
          <line id="Line_34" data-name="Line 34" x1="3.716" y2="1.162" transform="translate(376.208 159.802)" fill="none" stroke="#2755a3" stroke-linecap="round" stroke-linejoin="round" stroke-width="1"/>
          <line id="Line_35" data-name="Line 35" x1="2.176" y2="3.23" transform="translate(396.559 171.802)" fill="none" stroke="#2755a3" stroke-linecap="round" stroke-linejoin="round" stroke-width="1"/>
          <line id="Line_36" data-name="Line 36" x1="3.176" y1="1.73" transform="translate(417.6 144.342)" fill="none" stroke="#2755a3" stroke-linecap="round" stroke-linejoin="round" stroke-width="1"/>
          <line id="Line_37" data-name="Line 37" x1="2.23" y2="3.203" transform="translate(405.518 146.194)" fill="none" stroke="#2755a3" stroke-linecap="round" stroke-linejoin="round" stroke-width="1"/>
          <line id="Line_38" data-name="Line 38" x2="0.284" y2="3.892" transform="translate(430.748 133.086)" fill="none" stroke="#2755a3" stroke-linecap="round" stroke-linejoin="round" stroke-width="1"/>
          <line id="Line_39" data-name="Line 39" x1="4.243" y1="1.784" transform="translate(357.451 130.951)" fill="none" stroke="#2755a3" stroke-linecap="round" stroke-linejoin="round" stroke-width="1"/>
          <line id="Line_40" data-name="Line 40" x1="4.446" y2="1.189" transform="translate(416.64 136.032)" fill="none" stroke="#2755a3" stroke-linecap="round" stroke-linejoin="round" stroke-width="1"/>
          <line id="Line_41" data-name="Line 41" x1="2.635" y2="4.135" transform="translate(344.329 138.667)" fill="none" stroke="#2755a3" stroke-linecap="round" stroke-linejoin="round" stroke-width="1"/>
          <line id="Line_42" data-name="Line 42" x1="2.635" y2="4.135" transform="translate(396.154 133.005)" fill="none" stroke="#2755a3" stroke-linecap="round" stroke-linejoin="round" stroke-width="1"/>
          <line id="Line_43" data-name="Line 43" x1="0.365" y1="4.595" transform="translate(371.559 140.721)" fill="none" stroke="#2755a3" stroke-linecap="round" stroke-linejoin="round" stroke-width="1"/>
          <line id="Line_44" data-name="Line 44" x1="4.878" y1="0.446" transform="translate(379.532 144.261)" fill="none" stroke="#2755a3" stroke-linecap="round" stroke-linejoin="round" stroke-width="1"/>
          <line id="Line_45" data-name="Line 45" x1="2.122" y1="4.419" transform="translate(356.546 176.315)" fill="none" stroke="#2755a3" stroke-linecap="round" stroke-linejoin="round" stroke-width="1"/>
          <line id="Line_46" data-name="Line 46" x1="4.243" y1="1.784" transform="translate(339.289 107.491)" fill="none" stroke="#2755a3" stroke-linecap="round" stroke-linejoin="round" stroke-width="1"/>
          <line id="Line_47" data-name="Line 47" x1="4.243" y1="1.784" transform="translate(399.127 123.14)" fill="none" stroke="#2755a3" stroke-linecap="round" stroke-linejoin="round" stroke-width="1"/>
          <line id="Line_48" data-name="Line 48" x1="4.243" y1="1.784" transform="translate(382.1 132.788)" fill="none" stroke="#2755a3" stroke-linecap="round" stroke-linejoin="round" stroke-width="1"/>
          <line id="Line_49" data-name="Line 49" x1="4.189" y2="2.541" transform="translate(308.086 161.221)" fill="none" stroke="#2755a3" stroke-linecap="round" stroke-linejoin="round" stroke-width="1"/>
          <line id="Line_50" data-name="Line 50" y1="4" x2="1.662" transform="translate(346.005 117.761)" fill="none" stroke="#2755a3" stroke-linecap="round" stroke-linejoin="round" stroke-width="1"/>
          <line id="Line_51" data-name="Line 51" y1="4" x2="1.676" transform="translate(383.627 116.397)" fill="none" stroke="#2755a3" stroke-linecap="round" stroke-linejoin="round" stroke-width="1"/>
          <line id="Line_52" data-name="Line 52" x1="2.446" y1="3.608" transform="translate(334.289 119.14)" fill="none" stroke="#2755a3" stroke-linecap="round" stroke-linejoin="round" stroke-width="1"/>
          <line id="Line_53" data-name="Line 53" x1="4" y2="1.716" transform="translate(341.938 94.41)" fill="none" stroke="#2755a3" stroke-linecap="round" stroke-linejoin="round" stroke-width="1"/>
          <line id="Line_54" data-name="Line 54" x1="2.446" y1="3.608" transform="translate(327.6 153.424)" fill="none" stroke="#2755a3" stroke-linecap="round" stroke-linejoin="round" stroke-width="1"/>
          <line id="Line_55" data-name="Line 55" x1="2.446" y1="3.608" transform="translate(322.127 122.397)" fill="none" stroke="#2755a3" stroke-linecap="round" stroke-linejoin="round" stroke-width="1"/>
          <line id="Line_56" data-name="Line 56" x1="2.446" y1="3.622" transform="translate(372.992 121.518)" fill="none" stroke="#2755a3" stroke-linecap="round" stroke-linejoin="round" stroke-width="1"/>
          <line id="Line_57" data-name="Line 57" x1="1.135" y1="4.176" transform="translate(399.735 155.302)" fill="none" stroke="#2755a3" stroke-linecap="round" stroke-linejoin="round" stroke-width="1"/>
          <line id="Line_58" data-name="Line 58" x1="2.446" y1="3.608" transform="translate(361.64 110.248)" fill="none" stroke="#2755a3" stroke-linecap="round" stroke-linejoin="round" stroke-width="1"/>
          <line id="Line_59" data-name="Line 59" x1="1.378" y2="4.135" transform="translate(296.749 165.45)" fill="none" stroke="#2755a3" stroke-linecap="round" stroke-linejoin="round" stroke-width="1"/>
          <line id="Line_60" data-name="Line 60" x2="3.419" y2="2.703" transform="translate(327.857 165.491)" fill="none" stroke="#2755a3" stroke-linecap="round" stroke-linejoin="round" stroke-width="1"/>
          <line id="Line_61" data-name="Line 61" x1="1.392" y2="4.135" transform="translate(315.113 166.086)" fill="none" stroke="#2755a3" stroke-linecap="round" stroke-linejoin="round" stroke-width="1"/>
          <line id="Line_62" data-name="Line 62" x1="3.784" y2="3.108" transform="translate(313.167 132.194)" fill="none" stroke="#2755a3" stroke-linecap="round" stroke-linejoin="round" stroke-width="1"/>
          <line id="Line_63" data-name="Line 63" x1="3.784" y2="3.108" transform="translate(326.465 108.518)" fill="none" stroke="#2755a3" stroke-linecap="round" stroke-linejoin="round" stroke-width="1"/>
          <line id="Line_64" data-name="Line 64" x1="0.797" y2="4.284" transform="translate(302.762 138.383)" fill="none" stroke="#2755a3" stroke-linecap="round" stroke-linejoin="round" stroke-width="1"/>
          <line id="Line_65" data-name="Line 65" x1="0.797" y2="4.284" transform="translate(321.032 136.41)" fill="none" stroke="#2755a3" stroke-linecap="round" stroke-linejoin="round" stroke-width="1"/>
          <line id="Line_66" data-name="Line 66" x1="2.446" y1="3.622" transform="translate(330.762 134.64)" fill="none" stroke="#2755a3" stroke-linecap="round" stroke-linejoin="round" stroke-width="1"/>
          <rect id="Rectangle_194" data-name="Rectangle 194" width="72.959" height="64.648" transform="translate(168.39 120.451) rotate(-10.55)" fill="#fff"/>
          <path id="Path_561" data-name="Path 561" d="M167.922,211.5a.838.838,0,0,1-.811-.676l-11.838-63.513a.838.838,0,0,1,.135-.622.824.824,0,0,1,.527-.338L227.665,133a.824.824,0,0,1,.96.662l11.838,63.513a.811.811,0,0,1-.135.608.8.8,0,0,1-.527.351L168.071,211.49Zm-10.811-63.73,11.54,61.946,70.04-13.068-11.54-61.932Z" transform="translate(12.313 -26.674)" fill="#0b2238"/>
          <path id="Path_562" data-name="Path 562" d="M208.95,138.591l17.216-19.351,10.3,55.27-15.676,27.635Z" transform="translate(31.177 -31.505)" fill="#fff"/>
          <path id="Path_563" data-name="Path 563" d="M221,203.168h-.135a.838.838,0,0,1-.676-.662l-11.838-63.513a.865.865,0,0,1,.189-.7l17.216-19.338a.8.8,0,0,1,.838-.243.811.811,0,0,1,.595.635l10.284,55.176a.73.73,0,0,1-.095.554l-15.662,27.635A.824.824,0,0,1,221,203.168Zm-10.959-64.135,11.351,60.946,14.419-25.459-9.932-53.311Z" transform="translate(30.963 -31.704)" fill="#0b2238"/>
          <path id="Path_564" data-name="Path 564" d="M155.87,152l19.081-19.919,69.757-12.986L227.6,138.644Z" transform="translate(12.528 -31.558)" fill="#fff"/>
          <path id="Path_565" data-name="Path 565" d="M156.074,153.025a.824.824,0,0,1-.595-1.351l19.081-19.919a.905.905,0,0,1,.446-.243l69.757-12.986a.8.8,0,0,1,.865.392.838.838,0,0,1-.095.959l-17.108,19.567a.932.932,0,0,1-.473.27l-71.7,13.243Zm19.5-19.986L158.439,150.93l68.919-12.838,15.378-17.568Z" transform="translate(12.323 -31.763)" fill="#0b2238"/>
          <path id="Path_566" data-name="Path 566" d="M224.7,161.075a.824.824,0,0,1-.662-.338L208.5,139.3a.833.833,0,0,1,1.351-.973L224,157.845l1.446-38.581a.8.8,0,0,1,.865-.784.811.811,0,0,1,.784.851l-1.568,40.986a.811.811,0,0,1-.581.757A.77.77,0,0,1,224.7,161.075Z" transform="translate(30.964 -31.773)" fill="#0b2238"/>
          <path id="Path_567" data-name="Path 567" d="M218.163,194.249a.838.838,0,0,1-.824-.811l-.919-48.54a.824.824,0,0,1,.811-.838.8.8,0,0,1,.838.811l.919,48.54a.838.838,0,0,1-.811.838Z" transform="translate(33.802 -22.785)" fill="#0b2238"/>
          <path id="Path_568" data-name="Path 568" d="M232.5,167.753a.811.811,0,0,1-.743-.487l-11.5-25.284a.825.825,0,1,1,1.5-.689l11.5,25.3a.811.811,0,0,1-.405,1.081.837.837,0,0,1-.351.081Z" transform="translate(35.125 -23.924)" fill="#0b2238"/>
          <path id="Path_569" data-name="Path 569" d="M183.714,134.9l-6.554,6.5,2.149,11.513,8.013-1.486-2.149-11.513,7.054-6.608Z" transform="translate(20.008 -26.562)" fill="#fd6b3b"/>
          <path id="Path_570" data-name="Path 570" d="M132.939,141.962c-11.338,4.784-24.067,31.757-6.419,52.973,18.176,21.851,44.257,25.581,70.351,22.851,15.811-1.662,21.351-5.527,21.351-5.527l-2.513-13.216s-6.486,1.824-27.486-2.892c-15.878-3.554-30.716-15.378-34.446-19.513-6.851-7.595.905-31.622.905-31.622S147.8,135.705,132.939,141.962Z" transform="translate(-0.852 -24.282)" fill="#f5be34"/>
          <path id="Path_571" data-name="Path 571" d="M202.6,193.741c-50.419,0-63.2-34.743-63.324-35.135a.811.811,0,0,1,.5-1.054.838.838,0,0,1,1.054.5c.108.351,12.581,34,61.77,34h.514a.824.824,0,0,1,0,1.635Z" transform="translate(6.678 -18.06)" fill="#0b2238"/>
          <path id="Path_572" data-name="Path 572" d="M190.436,184.927a9.04,9.04,0,0,0-.757,7,12.608,12.608,0,0,0,3.378,6.216,43.931,43.931,0,0,0,11.243-3.77c5.892-2.905,8.405-6.419,8.743-7.351,1.014-2.7-.581-2.932-.581-2.932s.284-2.068-.973-2.905c-.919-.608-2.189.486-2.189.486a1.793,1.793,0,0,0-1.351-1.568c-1.216-.216-3.595,3.5-5.513,4.432a20.514,20.514,0,0,1-3.446,1.351s1.77-2.7.473-3.27-2.824,1.216-4.959,1.757a20.645,20.645,0,0,1-4.068.554Z" transform="translate(24.272 -10.125)" fill="#ef6744"/>
          <path id="Path_573" data-name="Path 573" d="M242.737,184.971a.824.824,0,0,1,0-1.635c56.257-2.946,69.675-42.554,69.8-42.959a.824.824,0,0,1,1.568.5c-.135.419-13.838,41.094-71.27,44.094Z" transform="translate(42.795 -24.264)" fill="#2755a3"/>
          <path id="Path_574" data-name="Path 574" d="M150.56,124.922s-.081-.162-.23-.392Z" transform="translate(10.581 -29.647)" fill="none"/>
          <path id="Path_575" data-name="Path 575" d="M157.769,130.646l-.149-3.568s-2.554.311-3.473-1.095l-.23-.392c-.919-1.541-4.5-6.878-7.284-2.216a14.189,14.189,0,0,0-2.392,8.662c.257,2.324,1.243,3.189.757,5.311a.393.393,0,0,1,0,.135c-.405,1.351-2.014,2.378-2.7,2.878l-.189.581-1.986,5.986s.905,2.284,4.595,2.595a5.405,5.405,0,0,0,4.595-1.757l1.743-6.568c2.7-.689,7.108-2.622,8.284-4.257C160.593,135.079,157.769,130.646,157.769,130.646Z" transform="translate(6.994 -30.709)" fill="#ef6744"/>
          <path id="Path_576" data-name="Path 576" d="M141.815,135.08l-.135.405C141.8,135.3,141.883,135.148,141.815,135.08Z" transform="translate(7.542 -25.94)"/>
          <path id="Path_577" data-name="Path 577" d="M141.7,135.38l-.068.135h0Z" transform="translate(7.524 -25.835)"/>
          <path id="Path_578" data-name="Path 578" d="M157.318,120.586c-2.473-2.7-4.3-.486-4.3-.486s-1.257-5.257-4.622-5.595-5.243,4.149-5.243,4.149a8.446,8.446,0,0,0-8.378,1.73c-3.554,3.486-.7,10.635-.7,10.635s-3.622,1.23-2.608,6.068c1.513,7.243,11.176,7.676,13.635,5.919l.2-.135c.743-.5,2.351-1.473,2.7-2.878a.392.392,0,0,0,0-.135c.486-2.122-.5-2.986-.757-5.311a14.189,14.189,0,0,1,2.392-8.662c2.784-4.662,6.365.676,7.284,2.216.149.23.23.392.23.392S159.8,123.288,157.318,120.586Z" transform="translate(3.891 -33.176)" fill="#0b2238"/>
          <path id="Path_579" data-name="Path 579" d="M151.5,130.895a1.7,1.7,0,0,1-.892-.243.419.419,0,0,1,.473-.676s.662.392,1.581-.486a.411.411,0,1,1,.568.595,2.527,2.527,0,0,1-1.73.811Z" transform="translate(10.637 -27.944)"/>
          <path id="Path_580" data-name="Path 580" d="M146.049,129.27a.419.419,0,0,1-.405-.365,10.513,10.513,0,0,1,.108-2.892c.5-2.554,1.757-2.7,1.905-2.7h0a.392.392,0,0,1,.405.405.405.405,0,0,1-.392.419s-.757.149-1.108,1.959a9.974,9.974,0,0,0-.108,2.7.419.419,0,0,1-.351.459Z" transform="translate(8.916 -30.076)"/>
          <path id="Path_581" data-name="Path 581" d="M147.979,127.813a.392.392,0,0,1-.405-.392,1.635,1.635,0,0,1,1.351-1.811.428.428,0,0,1,.432.392.405.405,0,0,1-.378.432c-.649,0-.649.865-.635.959a.405.405,0,0,1-.405.419Z" transform="translate(9.608 -29.267)"/>
        </g>
        <g id="other_details" data-name="other details" transform="translate(259.246 249.392)">
          <path id="Path_582" data-name="Path 582" d="M260.721,297.67a3.833,3.833,0,0,0,0,.392Z" transform="translate(-178.626 -163.891)" fill="#ef6744"/>
          <path id="Path_583" data-name="Path 583" d="M313.465,364.594a27.477,27.477,0,0,0,.108-2.865c-.541-30.419-31.581-60.216-33.351-62.986a5.262,5.262,0,0,1-.257-.473H279.9l.554,1.811s-2.932,1.973-8.959,1.878a18.824,18.824,0,0,1-9.2-2.811c.77,11.513,3.014,45.757,2.446,49.811-.676,4.878-1.635,10.932-2.7,12-6.486,6.486-5.405,10.811-5.405,10.811l13.838-.3a3.919,3.919,0,0,0-1.149,5.04s25.865-.54,29.73-.54a20.162,20.162,0,0,0,8.622-1.351c-.135.419-.284.838-.459,1.284-1.784,4.243-8.946,4.824-12.959,4.811a.73.73,0,0,0-.351,1.351c3.581,1.905,10.973,4.716,16.838-1.176C315.681,375.9,314.627,368.675,313.465,364.594Z" transform="translate(-180.086 -163.68)" fill="#ff8532"/>
          <path id="Path_584" data-name="Path 584" d="M260.821,299.271h0a7.341,7.341,0,0,0-.081-1.351Z" transform="translate(-178.617 -163.803)" fill="#2755a3"/>
          <path id="Path_585" data-name="Path 585" d="M278.492,299.6l-.811-2.568-1.716.081c-4.8,2.892-11.919,2.568-15.405-2.581h0l.27,4.27v.392a8.271,8.271,0,0,0,.081,1.351,18.824,18.824,0,0,0,9.2,2.811c6.027.095,8.959-1.878,8.959-1.878Z" transform="translate(-178.681 -164.994)" fill="#c82c2f"/>
          <path id="Path_586" data-name="Path 586" d="M277.792,287.174a19.959,19.959,0,0,1-2.068-12.838l-4.608-2.986a9.689,9.689,0,0,0-7.162,9,23.8,23.8,0,0,1-1.243,6.311c-2.095,1.541-2.3-6.757-2.446-8.27s-.743-1.216-1.176-.905-.405,4.135-.2,7.284c.7,10.905-.5,10.878.743,14.446a11.473,11.473,0,0,0,1.568,3.459c3.486,5.149,10.608,5.473,15.405,2.581a9.459,9.459,0,0,0,4.8-7.149C281.819,293.85,280.792,292.5,277.792,287.174Z" transform="translate(-179.318 -173.138)" fill="#ff8532"/>
          <path id="Path_587" data-name="Path 587" d="M279.516,323.411c3.419,6.757,6.311,9.162,8.932,10.986,2.257,1.581,7.851.919,6.108-3.811s-4.892-6.851-7.135-12.73c-1.432-3.784-3.8-7.405-5.541-6.905S276.1,316.668,279.516,323.411Z" transform="translate(-172.488 -159.24)" fill="#0b2238"/>
          <path id="Path_588" data-name="Path 588" d="M295.106,328s-3.851,1.108-1.027,9.378,6.419,9.892,6.419,9.892a43.014,43.014,0,0,0-1.892-9.959A79.932,79.932,0,0,0,295.106,328Z" transform="translate(-167.267 -153.234)" fill="#0b2238"/>
          <path id="Path_589" data-name="Path 589" d="M267.051,271.914s3.959-1.919,5.554-.149-.73,4.865-2.054,5.405a2.7,2.7,0,0,1-3.392-1.77A6.3,6.3,0,0,1,267.051,271.914Z" transform="translate(-176.469 -173.256)" fill="#0b2238"/>
          <path id="Path_590" data-name="Path 590" d="M269.066,286.826a.419.419,0,0,1-.392-.27,4.054,4.054,0,0,1,0-3.676,1.933,1.933,0,0,1,1.54-.73.419.419,0,0,1,0,.824h0a1.094,1.094,0,0,0-.851.405c-.257.378-.459,1.176.149,2.905a.419.419,0,0,1-.257.527Z" transform="translate(-175.984 -169.344)" fill="#0b2238"/>
          <path id="Path_591" data-name="Path 591" d="M271.208,288.838a.581.581,0,0,1,.527-.73,5.905,5.905,0,0,1,6.23,4.054,121.656,121.656,0,0,1,4.054,12.027,3.771,3.771,0,0,1,.122,1.689,5.149,5.149,0,0,1-4.608,4.527c-2.432.378-7.081-1.108-7.554-5.243s.7-10.811,1.122-12.851a8.825,8.825,0,0,0,.108-3.473Z" transform="translate(-175.41 -167.261)" fill="#0b2238"/>
          <rect id="Rectangle_195" data-name="Rectangle 195" width="36.392" height="88.432" transform="translate(28.731 122.928)" fill="#6f5fa6"/>
          <path id="Path_592" data-name="Path 592" d="M243.011,314.439a56.433,56.433,0,0,0-2.459-12.5,7.284,7.284,0,0,0,1.284-3.622c.284-2.7-1.716-7.486-4.054-11.865a9.7,9.7,0,0,0,3.716.405,81.079,81.079,0,0,1,2.216,14.284,160.809,160.809,0,0,1,.365,20.459h4.73c.811-8.108,2.595-20.635,6.473-29.622A84.959,84.959,0,0,0,261.47,272.6a7.784,7.784,0,0,0,2.27-1.216c7.149-5.405,6.405-14.784,5.865-18.122a1.608,1.608,0,0,0-1.419-1.351,1.662,1.662,0,0,1-.824-2.946l1.351-1.068a1.635,1.635,0,0,0,.581-1.662,66.909,66.909,0,0,0-4.608-13.2,169.884,169.884,0,0,0-8.838-15.986,1.676,1.676,0,0,0-1.243-.77l-2.027-.2,1.23-3.122a1.608,1.608,0,0,0,0-1.351c-.351-.77-1.041-2.216-2.081-4.216s-2.932-5.405-4.3-7.865a1.662,1.662,0,0,0-2.959.122,24.906,24.906,0,0,0-1.8,5.514c-.865,4.486-.5,6.162-1.513,16.392a154.9,154.9,0,0,0-.838,15.595,1.649,1.649,0,0,0,1.041,1.514l2.2.892-1.351.973a1.635,1.635,0,0,0-.622,1.689c.473,2.135,1.662,7.3,3.189,12.568s6.649,16.04,12.919,17.851a84.785,84.785,0,0,1-5.838,17.851,75.991,75.991,0,0,0-4.216,13.824c0-1.135-.149-2.311-.243-3.5a81.476,81.476,0,0,0-2.7-16.081,15.878,15.878,0,0,0,3.743-14.473c-2.514-9.676-15.068-25.676-22.419-30.838s-9.149-7.365-9.149-7.365-1.432,2.878-2.7,2.162-1.8-4.311-3.041-4.662-9.149-6.108-10.581-4.311.176,10.405,9.135,19.905,12.027,10.811,14.351,20.27c.446,1.8.959,3.554,1.541,5.243-6.2-3.081-12.892-8.689-16.608-11.338a43.077,43.077,0,0,0-6.635-3.7A1.662,1.662,0,0,0,200,257.426a49.108,49.108,0,0,0,4.676,12.649c5.2,10.216,8.784,10.811,14.162,17.04s7,11.108,12.73,14.865a9.041,9.041,0,0,0,5.595,1.811,56.841,56.841,0,0,1,2.04,10.973c.257,2.541.473,4.784.635,6.757h3.73C243.511,319.506,243.254,317.142,243.011,314.439Z" transform="translate(-199.969 -198.673)" fill="#fec8cb"/>
          <path id="Path_593" data-name="Path 593" d="M286.54,240.851a33.784,33.784,0,0,0-15.446,9.581c-4.757,5.122-12.284,9.027-14.946,10.324a1.351,1.351,0,0,0-.743,1.527l.77,3.676-2.378-1.351a1.351,1.351,0,0,0-1.689.284c-1.946,2.162-7.216,8.365-9.27,14.243-1.432,4.054-1.095,6.757,0,8.689a68.294,68.294,0,0,0-3.973,10.108c-.932,3.054-1.7,6.041-2.365,8.838h3.811c.595-2.486,1.284-5.108,2.095-7.757a67.076,67.076,0,0,1,3.216-8.392l.459.27c2.419,1.351,7.946-.2,10.811-1.149a1.351,1.351,0,0,0,.676-2.135l-3.851-5.27,5.2,4.054a1.351,1.351,0,0,0,1.932-.216c2.7-3.419,11.649-14.635,16.824-24.243,4.27-7.959,8.365-15.338,10.486-19.122a1.351,1.351,0,0,0-1.622-1.96Z" transform="translate(-187.134 -183.882)" fill="#fec8cb"/>
          <path id="Path_594" data-name="Path 594" d="M248.182,271.3h0a.365.365,0,0,1-.338-.392c1.122-13.27-1.351-20.27-6.932-35-5.405-14.162-7.3-35.23-7.311-35.446a.351.351,0,0,1,.324-.392.378.378,0,0,1,.405.324c0,.216,1.892,21.189,7.27,35.257,5.649,14.784,8.108,21.892,6.973,35.324A.365.365,0,0,1,248.182,271.3Z" transform="translate(-188.154 -198.182)" fill="#fff"/>
          <path id="Path_595" data-name="Path 595" d="M241.971,277.049a.365.365,0,0,1-.338-.243c0-.122-5.027-12.73-8.716-22.581s-8.784-14.324-16.351-18.811-15.459-15.568-15.527-15.676a.351.351,0,0,1,.081-.5.365.365,0,0,1,.514.081c.081.108,7.824,11.041,15.3,15.473,7.716,4.554,12.905,9.162,16.662,19.176s8.676,22.446,8.716,22.581a.365.365,0,0,1-.2.473Z" transform="translate(-199.618 -191.472)" fill="#fff"/>
          <path id="Path_596" data-name="Path 596" d="M237.576,286.557a.338.338,0,0,1-.284-.135,68.086,68.086,0,0,1-6.757-9.554c-1.635-2.905-7.568-12.878-15.324-19.04-6.757-5.405-14-15.081-14.081-15.176a.378.378,0,0,1,.595-.446c.068.108,7.216,9.689,13.946,15.041,7.851,6.243,13.851,16.324,15.513,19.27a66.208,66.208,0,0,0,6.649,9.459.351.351,0,0,1,0,.514.311.311,0,0,1-.257.068Z" transform="translate(-199.575 -183.412)" fill="#fff"/>
          <path id="Path_597" data-name="Path 597" d="M242.587,288.871h-.108a.351.351,0,0,1-.243-.459c.108-.324,2.7-7.973,12.419-16.365a135.621,135.621,0,0,0,19.23-20.824l.338-.446c3.108-4.054,9.905-9.054,10.189-9.257a.362.362,0,1,1,.432.581c-.068,0-7,5.162-10.04,9.122l-.338.446a136.852,136.852,0,0,1-19.338,20.946c-9.608,8.23-12.162,15.946-12.162,16.027a.392.392,0,0,1-.378.23Z" transform="translate(-185.126 -183.646)" fill="#fff"/>
          <rect id="Rectangle_196" data-name="Rectangle 196" width="36.405" height="1.459" transform="translate(28.717 127.333)" fill="#564d7a"/>
          <rect id="Rectangle_197" data-name="Rectangle 197" width="36.405" height="1.459" transform="translate(28.717 132.252)" fill="#564d7a"/>
        </g>
      </g>
      <path id="Path_914" data-name="Path 914" d="M123.352,105.08h-.147l-4.809-.821a6.069,6.069,0,0,1-5.087-6.069v-.777a4.4,4.4,0,0,0-3.768-4.4l-.836-.1a6.128,6.128,0,0,1-5.292-5.424l-.323-3.709a.894.894,0,0,1,.806-.968.909.909,0,0,1,.968.821l.323,3.694a4.4,4.4,0,0,0,3.753,3.9l.836.1a6.128,6.128,0,0,1,5.336,6.113v.777a4.3,4.3,0,0,0,3.592,4.3l4.809.821a.883.883,0,1,1-.147,1.759Z" transform="translate(671.002 193.694)" fill="#6f5fa6"/>
      <path id="Path_915" data-name="Path 915" d="M304.947,106.048h-.132a.894.894,0,0,1-.762-1l.674-4.823a6.084,6.084,0,0,1,5.864-5.263h.792a4.3,4.3,0,0,0,4.325-3.914l.088-.836a6.143,6.143,0,0,1,5.366-5.468l3.694-.425a.909.909,0,0,1,.982.777.894.894,0,0,1-.777,1l-3.694.425a4.4,4.4,0,0,0-3.8,3.87l-.073.836a6.1,6.1,0,0,1-5.952,5.5h-.792a4.281,4.281,0,0,0-4.178,3.709l-.674,4.838A.88.88,0,0,1,304.947,106.048Z" transform="translate(908.656 95.397)" fill="#6f5fa6"/>
      <path id="Path_916" data-name="Path 916" d="M165.266,71.535a.88.88,0,0,1-.674-.308l-3.211-3.68a6.069,6.069,0,0,1-.088-7.917l.5-.586a4.4,4.4,0,0,0-.176-5.732l-.586-.616a6.128,6.128,0,0,1-.616-7.623l2.1-3.079a.894.894,0,1,1,1.466,1.012l-2.1,3.064a4.4,4.4,0,0,0,.44,5.41l.572.6a6.113,6.113,0,0,1,.264,8.107l-.513.586a4.3,4.3,0,0,0,0,5.6l3.3,3.694a.894.894,0,0,1-.088,1.261A.909.909,0,0,1,165.266,71.535Z" transform="translate(710.23 127.461)" fill="#6f5fa6"/>
      <path id="Path_917" data-name="Path 917" d="M245.222,76.565a.894.894,0,0,1-.894-.865l-.176-4.867a6.069,6.069,0,0,1,4.9-6.216l.777-.147a4.4,4.4,0,0,0,3.46-4.574v-.836a6.143,6.143,0,0,1,4.325-6.319l3.562-1.07a.9.9,0,1,1,.513,1.715l-3.562,1.07a4.4,4.4,0,0,0-3.049,4.4v.836a6.084,6.084,0,0,1-4.9,6.451l-.762.161a4.3,4.3,0,0,0-3.475,4.4l.191,4.882a.909.909,0,0,1-.865.924Z" transform="translate(783.74 61.166)" fill="#6f5fa6"/>
    </g>
  </g>
</svg>
