<svg xmlns="http://www.w3.org/2000/svg" xmlns:xlink="http://www.w3.org/1999/xlink" width="682" height="332" viewBox="0 0 682 332">
  <defs>
    <clipPath id="clip-path">
      <rect width="682" height="332" fill="none"/>
    </clipPath>
  </defs>
  <g id="Repeat_Grid_4" data-name="Repeat Grid 4" clip-path="url(#clip-path)">
    <g id="Group_5688" data-name="Group 5688" transform="translate(-997 -476)">
      <circle id="Ellipse_180" data-name="Ellipse 180" cx="3" cy="3" r="3" transform="translate(997 476)" fill="rgba(41,2,114,0.15)"/>
      <g id="Ellipse_181" data-name="Ellipse 181" transform="translate(1033 476)" fill="none" stroke="rgba(41,2,114,0.4)" stroke-width="1">
        <circle cx="3" cy="3" r="3" stroke="none"/>
        <circle cx="3" cy="3" r="2.5" fill="none"/>
      </g>
    </g>
    <g id="Group_5688-2" data-name="Group 5688" transform="translate(-927 -476)">
      <circle id="Ellipse_180-2" data-name="Ellipse 180" cx="3" cy="3" r="3" transform="translate(997 476)" fill="rgba(41,2,114,0.15)"/>
      <g id="Ellipse_181-2" data-name="Ellipse 181" transform="translate(1033 476)" fill="none" stroke="rgba(41,2,114,0.4)" stroke-width="1">
        <circle cx="3" cy="3" r="3" stroke="none"/>
        <circle cx="3" cy="3" r="2.5" fill="none"/>
      </g>
    </g>
    <g id="Group_5688-3" data-name="Group 5688" transform="translate(-857 -476)">
      <circle id="Ellipse_180-3" data-name="Ellipse 180" cx="3" cy="3" r="3" transform="translate(997 476)" fill="rgba(41,2,114,0.15)"/>
      <g id="Ellipse_181-3" data-name="Ellipse 181" transform="translate(1033 476)" fill="none" stroke="rgba(41,2,114,0.4)" stroke-width="1">
        <circle cx="3" cy="3" r="3" stroke="none"/>
        <circle cx="3" cy="3" r="2.5" fill="none"/>
      </g>
    </g>
    <g id="Group_5688-4" data-name="Group 5688" transform="translate(-787 -476)">
      <circle id="Ellipse_180-4" data-name="Ellipse 180" cx="3" cy="3" r="3" transform="translate(997 476)" fill="rgba(41,2,114,0.15)"/>
      <g id="Ellipse_181-4" data-name="Ellipse 181" transform="translate(1033 476)" fill="none" stroke="rgba(41,2,114,0.4)" stroke-width="1">
        <circle cx="3" cy="3" r="3" stroke="none"/>
        <circle cx="3" cy="3" r="2.5" fill="none"/>
      </g>
    </g>
    <g id="Group_5688-5" data-name="Group 5688" transform="translate(-717 -476)">
      <circle id="Ellipse_180-5" data-name="Ellipse 180" cx="3" cy="3" r="3" transform="translate(997 476)" fill="rgba(41,2,114,0.15)"/>
      <g id="Ellipse_181-5" data-name="Ellipse 181" transform="translate(1033 476)" fill="none" stroke="rgba(41,2,114,0.4)" stroke-width="1">
        <circle cx="3" cy="3" r="3" stroke="none"/>
        <circle cx="3" cy="3" r="2.5" fill="none"/>
      </g>
    </g>
    <g id="Group_5688-6" data-name="Group 5688" transform="translate(-647 -476)">
      <circle id="Ellipse_180-6" data-name="Ellipse 180" cx="3" cy="3" r="3" transform="translate(997 476)" fill="rgba(41,2,114,0.15)"/>
      <g id="Ellipse_181-6" data-name="Ellipse 181" transform="translate(1033 476)" fill="none" stroke="rgba(41,2,114,0.4)" stroke-width="1">
        <circle cx="3" cy="3" r="3" stroke="none"/>
        <circle cx="3" cy="3" r="2.5" fill="none"/>
      </g>
    </g>
    <g id="Group_5688-7" data-name="Group 5688" transform="translate(-577 -476)">
      <circle id="Ellipse_180-7" data-name="Ellipse 180" cx="3" cy="3" r="3" transform="translate(997 476)" fill="rgba(41,2,114,0.15)"/>
      <g id="Ellipse_181-7" data-name="Ellipse 181" transform="translate(1033 476)" fill="none" stroke="rgba(41,2,114,0.4)" stroke-width="1">
        <circle cx="3" cy="3" r="3" stroke="none"/>
        <circle cx="3" cy="3" r="2.5" fill="none"/>
      </g>
    </g>
    <g id="Group_5688-8" data-name="Group 5688" transform="translate(-507 -476)">
      <circle id="Ellipse_180-8" data-name="Ellipse 180" cx="3" cy="3" r="3" transform="translate(997 476)" fill="rgba(41,2,114,0.15)"/>
      <g id="Ellipse_181-8" data-name="Ellipse 181" transform="translate(1033 476)" fill="none" stroke="rgba(41,2,114,0.4)" stroke-width="1">
        <circle cx="3" cy="3" r="3" stroke="none"/>
        <circle cx="3" cy="3" r="2.5" fill="none"/>
      </g>
    </g>
    <g id="Group_5688-9" data-name="Group 5688" transform="translate(-437 -476)">
      <circle id="Ellipse_180-9" data-name="Ellipse 180" cx="3" cy="3" r="3" transform="translate(997 476)" fill="rgba(41,2,114,0.15)"/>
      <g id="Ellipse_181-9" data-name="Ellipse 181" transform="translate(1033 476)" fill="none" stroke="rgba(41,2,114,0.4)" stroke-width="1">
        <circle cx="3" cy="3" r="3" stroke="none"/>
        <circle cx="3" cy="3" r="2.5" fill="none"/>
      </g>
    </g>
    <g id="Group_5688-10" data-name="Group 5688" transform="translate(-367 -476)">
      <circle id="Ellipse_180-10" data-name="Ellipse 180" cx="3" cy="3" r="3" transform="translate(997 476)" fill="rgba(41,2,114,0.15)"/>
      <g id="Ellipse_181-10" data-name="Ellipse 181" transform="translate(1033 476)" fill="none" stroke="rgba(41,2,114,0.4)" stroke-width="1">
        <circle cx="3" cy="3" r="3" stroke="none"/>
        <circle cx="3" cy="3" r="2.5" fill="none"/>
      </g>
    </g>
    <g id="Group_5688-11" data-name="Group 5688" transform="translate(-997 -430)">
      <circle id="Ellipse_180-11" data-name="Ellipse 180" cx="3" cy="3" r="3" transform="translate(997 476)" fill="rgba(41,2,114,0.15)"/>
      <g id="Ellipse_181-11" data-name="Ellipse 181" transform="translate(1033 476)" fill="none" stroke="rgba(41,2,114,0.4)" stroke-width="1">
        <circle cx="3" cy="3" r="3" stroke="none"/>
        <circle cx="3" cy="3" r="2.5" fill="none"/>
      </g>
    </g>
    <g id="Group_5688-12" data-name="Group 5688" transform="translate(-927 -430)">
      <circle id="Ellipse_180-12" data-name="Ellipse 180" cx="3" cy="3" r="3" transform="translate(997 476)" fill="rgba(41,2,114,0.15)"/>
      <g id="Ellipse_181-12" data-name="Ellipse 181" transform="translate(1033 476)" fill="none" stroke="rgba(41,2,114,0.4)" stroke-width="1">
        <circle cx="3" cy="3" r="3" stroke="none"/>
        <circle cx="3" cy="3" r="2.5" fill="none"/>
      </g>
    </g>
    <g id="Group_5688-13" data-name="Group 5688" transform="translate(-857 -430)">
      <circle id="Ellipse_180-13" data-name="Ellipse 180" cx="3" cy="3" r="3" transform="translate(997 476)" fill="rgba(41,2,114,0.15)"/>
      <g id="Ellipse_181-13" data-name="Ellipse 181" transform="translate(1033 476)" fill="none" stroke="rgba(41,2,114,0.4)" stroke-width="1">
        <circle cx="3" cy="3" r="3" stroke="none"/>
        <circle cx="3" cy="3" r="2.5" fill="none"/>
      </g>
    </g>
    <g id="Group_5688-14" data-name="Group 5688" transform="translate(-787 -430)">
      <circle id="Ellipse_180-14" data-name="Ellipse 180" cx="3" cy="3" r="3" transform="translate(997 476)" fill="rgba(41,2,114,0.15)"/>
      <g id="Ellipse_181-14" data-name="Ellipse 181" transform="translate(1033 476)" fill="none" stroke="rgba(41,2,114,0.4)" stroke-width="1">
        <circle cx="3" cy="3" r="3" stroke="none"/>
        <circle cx="3" cy="3" r="2.5" fill="none"/>
      </g>
    </g>
    <g id="Group_5688-15" data-name="Group 5688" transform="translate(-717 -430)">
      <circle id="Ellipse_180-15" data-name="Ellipse 180" cx="3" cy="3" r="3" transform="translate(997 476)" fill="rgba(41,2,114,0.15)"/>
      <g id="Ellipse_181-15" data-name="Ellipse 181" transform="translate(1033 476)" fill="none" stroke="rgba(41,2,114,0.4)" stroke-width="1">
        <circle cx="3" cy="3" r="3" stroke="none"/>
        <circle cx="3" cy="3" r="2.5" fill="none"/>
      </g>
    </g>
    <g id="Group_5688-16" data-name="Group 5688" transform="translate(-647 -430)">
      <circle id="Ellipse_180-16" data-name="Ellipse 180" cx="3" cy="3" r="3" transform="translate(997 476)" fill="rgba(41,2,114,0.15)"/>
      <g id="Ellipse_181-16" data-name="Ellipse 181" transform="translate(1033 476)" fill="none" stroke="rgba(41,2,114,0.4)" stroke-width="1">
        <circle cx="3" cy="3" r="3" stroke="none"/>
        <circle cx="3" cy="3" r="2.5" fill="none"/>
      </g>
    </g>
    <g id="Group_5688-17" data-name="Group 5688" transform="translate(-577 -430)">
      <circle id="Ellipse_180-17" data-name="Ellipse 180" cx="3" cy="3" r="3" transform="translate(997 476)" fill="rgba(41,2,114,0.15)"/>
      <g id="Ellipse_181-17" data-name="Ellipse 181" transform="translate(1033 476)" fill="none" stroke="rgba(41,2,114,0.4)" stroke-width="1">
        <circle cx="3" cy="3" r="3" stroke="none"/>
        <circle cx="3" cy="3" r="2.5" fill="none"/>
      </g>
    </g>
    <g id="Group_5688-18" data-name="Group 5688" transform="translate(-507 -430)">
      <circle id="Ellipse_180-18" data-name="Ellipse 180" cx="3" cy="3" r="3" transform="translate(997 476)" fill="rgba(41,2,114,0.15)"/>
      <g id="Ellipse_181-18" data-name="Ellipse 181" transform="translate(1033 476)" fill="none" stroke="rgba(41,2,114,0.4)" stroke-width="1">
        <circle cx="3" cy="3" r="3" stroke="none"/>
        <circle cx="3" cy="3" r="2.5" fill="none"/>
      </g>
    </g>
    <g id="Group_5688-19" data-name="Group 5688" transform="translate(-437 -430)">
      <circle id="Ellipse_180-19" data-name="Ellipse 180" cx="3" cy="3" r="3" transform="translate(997 476)" fill="rgba(41,2,114,0.15)"/>
      <g id="Ellipse_181-19" data-name="Ellipse 181" transform="translate(1033 476)" fill="none" stroke="rgba(41,2,114,0.4)" stroke-width="1">
        <circle cx="3" cy="3" r="3" stroke="none"/>
        <circle cx="3" cy="3" r="2.5" fill="none"/>
      </g>
    </g>
    <g id="Group_5688-20" data-name="Group 5688" transform="translate(-367 -430)">
      <circle id="Ellipse_180-20" data-name="Ellipse 180" cx="3" cy="3" r="3" transform="translate(997 476)" fill="rgba(41,2,114,0.15)"/>
      <g id="Ellipse_181-20" data-name="Ellipse 181" transform="translate(1033 476)" fill="none" stroke="rgba(41,2,114,0.4)" stroke-width="1">
        <circle cx="3" cy="3" r="3" stroke="none"/>
        <circle cx="3" cy="3" r="2.5" fill="none"/>
      </g>
    </g>
    <g id="Group_5688-21" data-name="Group 5688" transform="translate(-997 -384)">
      <circle id="Ellipse_180-21" data-name="Ellipse 180" cx="3" cy="3" r="3" transform="translate(997 476)" fill="rgba(41,2,114,0.15)"/>
      <g id="Ellipse_181-21" data-name="Ellipse 181" transform="translate(1033 476)" fill="none" stroke="rgba(41,2,114,0.4)" stroke-width="1">
        <circle cx="3" cy="3" r="3" stroke="none"/>
        <circle cx="3" cy="3" r="2.5" fill="none"/>
      </g>
    </g>
    <g id="Group_5688-22" data-name="Group 5688" transform="translate(-927 -384)">
      <circle id="Ellipse_180-22" data-name="Ellipse 180" cx="3" cy="3" r="3" transform="translate(997 476)" fill="rgba(41,2,114,0.15)"/>
      <g id="Ellipse_181-22" data-name="Ellipse 181" transform="translate(1033 476)" fill="none" stroke="rgba(41,2,114,0.4)" stroke-width="1">
        <circle cx="3" cy="3" r="3" stroke="none"/>
        <circle cx="3" cy="3" r="2.5" fill="none"/>
      </g>
    </g>
    <g id="Group_5688-23" data-name="Group 5688" transform="translate(-857 -384)">
      <circle id="Ellipse_180-23" data-name="Ellipse 180" cx="3" cy="3" r="3" transform="translate(997 476)" fill="rgba(41,2,114,0.15)"/>
      <g id="Ellipse_181-23" data-name="Ellipse 181" transform="translate(1033 476)" fill="none" stroke="rgba(41,2,114,0.4)" stroke-width="1">
        <circle cx="3" cy="3" r="3" stroke="none"/>
        <circle cx="3" cy="3" r="2.5" fill="none"/>
      </g>
    </g>
    <g id="Group_5688-24" data-name="Group 5688" transform="translate(-787 -384)">
      <circle id="Ellipse_180-24" data-name="Ellipse 180" cx="3" cy="3" r="3" transform="translate(997 476)" fill="rgba(41,2,114,0.15)"/>
      <g id="Ellipse_181-24" data-name="Ellipse 181" transform="translate(1033 476)" fill="none" stroke="rgba(41,2,114,0.4)" stroke-width="1">
        <circle cx="3" cy="3" r="3" stroke="none"/>
        <circle cx="3" cy="3" r="2.5" fill="none"/>
      </g>
    </g>
    <g id="Group_5688-25" data-name="Group 5688" transform="translate(-717 -384)">
      <circle id="Ellipse_180-25" data-name="Ellipse 180" cx="3" cy="3" r="3" transform="translate(997 476)" fill="rgba(41,2,114,0.15)"/>
      <g id="Ellipse_181-25" data-name="Ellipse 181" transform="translate(1033 476)" fill="none" stroke="rgba(41,2,114,0.4)" stroke-width="1">
        <circle cx="3" cy="3" r="3" stroke="none"/>
        <circle cx="3" cy="3" r="2.5" fill="none"/>
      </g>
    </g>
    <g id="Group_5688-26" data-name="Group 5688" transform="translate(-647 -384)">
      <circle id="Ellipse_180-26" data-name="Ellipse 180" cx="3" cy="3" r="3" transform="translate(997 476)" fill="rgba(41,2,114,0.15)"/>
      <g id="Ellipse_181-26" data-name="Ellipse 181" transform="translate(1033 476)" fill="none" stroke="rgba(41,2,114,0.4)" stroke-width="1">
        <circle cx="3" cy="3" r="3" stroke="none"/>
        <circle cx="3" cy="3" r="2.5" fill="none"/>
      </g>
    </g>
    <g id="Group_5688-27" data-name="Group 5688" transform="translate(-577 -384)">
      <circle id="Ellipse_180-27" data-name="Ellipse 180" cx="3" cy="3" r="3" transform="translate(997 476)" fill="rgba(41,2,114,0.15)"/>
      <g id="Ellipse_181-27" data-name="Ellipse 181" transform="translate(1033 476)" fill="none" stroke="rgba(41,2,114,0.4)" stroke-width="1">
        <circle cx="3" cy="3" r="3" stroke="none"/>
        <circle cx="3" cy="3" r="2.5" fill="none"/>
      </g>
    </g>
    <g id="Group_5688-28" data-name="Group 5688" transform="translate(-507 -384)">
      <circle id="Ellipse_180-28" data-name="Ellipse 180" cx="3" cy="3" r="3" transform="translate(997 476)" fill="rgba(41,2,114,0.15)"/>
      <g id="Ellipse_181-28" data-name="Ellipse 181" transform="translate(1033 476)" fill="none" stroke="rgba(41,2,114,0.4)" stroke-width="1">
        <circle cx="3" cy="3" r="3" stroke="none"/>
        <circle cx="3" cy="3" r="2.5" fill="none"/>
      </g>
    </g>
    <g id="Group_5688-29" data-name="Group 5688" transform="translate(-437 -384)">
      <circle id="Ellipse_180-29" data-name="Ellipse 180" cx="3" cy="3" r="3" transform="translate(997 476)" fill="rgba(41,2,114,0.15)"/>
      <g id="Ellipse_181-29" data-name="Ellipse 181" transform="translate(1033 476)" fill="none" stroke="rgba(41,2,114,0.4)" stroke-width="1">
        <circle cx="3" cy="3" r="3" stroke="none"/>
        <circle cx="3" cy="3" r="2.5" fill="none"/>
      </g>
    </g>
    <g id="Group_5688-30" data-name="Group 5688" transform="translate(-367 -384)">
      <circle id="Ellipse_180-30" data-name="Ellipse 180" cx="3" cy="3" r="3" transform="translate(997 476)" fill="rgba(41,2,114,0.15)"/>
      <g id="Ellipse_181-30" data-name="Ellipse 181" transform="translate(1033 476)" fill="none" stroke="rgba(41,2,114,0.4)" stroke-width="1">
        <circle cx="3" cy="3" r="3" stroke="none"/>
        <circle cx="3" cy="3" r="2.5" fill="none"/>
      </g>
    </g>
    <g id="Group_5688-31" data-name="Group 5688" transform="translate(-997 -338)">
      <circle id="Ellipse_180-31" data-name="Ellipse 180" cx="3" cy="3" r="3" transform="translate(997 476)" fill="rgba(41,2,114,0.15)"/>
      <g id="Ellipse_181-31" data-name="Ellipse 181" transform="translate(1033 476)" fill="none" stroke="rgba(41,2,114,0.4)" stroke-width="1">
        <circle cx="3" cy="3" r="3" stroke="none"/>
        <circle cx="3" cy="3" r="2.5" fill="none"/>
      </g>
    </g>
    <g id="Group_5688-32" data-name="Group 5688" transform="translate(-927 -338)">
      <circle id="Ellipse_180-32" data-name="Ellipse 180" cx="3" cy="3" r="3" transform="translate(997 476)" fill="rgba(41,2,114,0.15)"/>
      <g id="Ellipse_181-32" data-name="Ellipse 181" transform="translate(1033 476)" fill="none" stroke="rgba(41,2,114,0.4)" stroke-width="1">
        <circle cx="3" cy="3" r="3" stroke="none"/>
        <circle cx="3" cy="3" r="2.5" fill="none"/>
      </g>
    </g>
    <g id="Group_5688-33" data-name="Group 5688" transform="translate(-857 -338)">
      <circle id="Ellipse_180-33" data-name="Ellipse 180" cx="3" cy="3" r="3" transform="translate(997 476)" fill="rgba(41,2,114,0.15)"/>
      <g id="Ellipse_181-33" data-name="Ellipse 181" transform="translate(1033 476)" fill="none" stroke="rgba(41,2,114,0.4)" stroke-width="1">
        <circle cx="3" cy="3" r="3" stroke="none"/>
        <circle cx="3" cy="3" r="2.5" fill="none"/>
      </g>
    </g>
    <g id="Group_5688-34" data-name="Group 5688" transform="translate(-787 -338)">
      <circle id="Ellipse_180-34" data-name="Ellipse 180" cx="3" cy="3" r="3" transform="translate(997 476)" fill="rgba(41,2,114,0.15)"/>
      <g id="Ellipse_181-34" data-name="Ellipse 181" transform="translate(1033 476)" fill="none" stroke="rgba(41,2,114,0.4)" stroke-width="1">
        <circle cx="3" cy="3" r="3" stroke="none"/>
        <circle cx="3" cy="3" r="2.5" fill="none"/>
      </g>
    </g>
    <g id="Group_5688-35" data-name="Group 5688" transform="translate(-717 -338)">
      <circle id="Ellipse_180-35" data-name="Ellipse 180" cx="3" cy="3" r="3" transform="translate(997 476)" fill="rgba(41,2,114,0.15)"/>
      <g id="Ellipse_181-35" data-name="Ellipse 181" transform="translate(1033 476)" fill="none" stroke="rgba(41,2,114,0.4)" stroke-width="1">
        <circle cx="3" cy="3" r="3" stroke="none"/>
        <circle cx="3" cy="3" r="2.5" fill="none"/>
      </g>
    </g>
    <g id="Group_5688-36" data-name="Group 5688" transform="translate(-647 -338)">
      <circle id="Ellipse_180-36" data-name="Ellipse 180" cx="3" cy="3" r="3" transform="translate(997 476)" fill="rgba(41,2,114,0.15)"/>
      <g id="Ellipse_181-36" data-name="Ellipse 181" transform="translate(1033 476)" fill="none" stroke="rgba(41,2,114,0.4)" stroke-width="1">
        <circle cx="3" cy="3" r="3" stroke="none"/>
        <circle cx="3" cy="3" r="2.5" fill="none"/>
      </g>
    </g>
    <g id="Group_5688-37" data-name="Group 5688" transform="translate(-577 -338)">
      <circle id="Ellipse_180-37" data-name="Ellipse 180" cx="3" cy="3" r="3" transform="translate(997 476)" fill="rgba(41,2,114,0.15)"/>
      <g id="Ellipse_181-37" data-name="Ellipse 181" transform="translate(1033 476)" fill="none" stroke="rgba(41,2,114,0.4)" stroke-width="1">
        <circle cx="3" cy="3" r="3" stroke="none"/>
        <circle cx="3" cy="3" r="2.5" fill="none"/>
      </g>
    </g>
    <g id="Group_5688-38" data-name="Group 5688" transform="translate(-507 -338)">
      <circle id="Ellipse_180-38" data-name="Ellipse 180" cx="3" cy="3" r="3" transform="translate(997 476)" fill="rgba(41,2,114,0.15)"/>
      <g id="Ellipse_181-38" data-name="Ellipse 181" transform="translate(1033 476)" fill="none" stroke="rgba(41,2,114,0.4)" stroke-width="1">
        <circle cx="3" cy="3" r="3" stroke="none"/>
        <circle cx="3" cy="3" r="2.5" fill="none"/>
      </g>
    </g>
    <g id="Group_5688-39" data-name="Group 5688" transform="translate(-437 -338)">
      <circle id="Ellipse_180-39" data-name="Ellipse 180" cx="3" cy="3" r="3" transform="translate(997 476)" fill="rgba(41,2,114,0.15)"/>
      <g id="Ellipse_181-39" data-name="Ellipse 181" transform="translate(1033 476)" fill="none" stroke="rgba(41,2,114,0.4)" stroke-width="1">
        <circle cx="3" cy="3" r="3" stroke="none"/>
        <circle cx="3" cy="3" r="2.5" fill="none"/>
      </g>
    </g>
    <g id="Group_5688-40" data-name="Group 5688" transform="translate(-367 -338)">
      <circle id="Ellipse_180-40" data-name="Ellipse 180" cx="3" cy="3" r="3" transform="translate(997 476)" fill="rgba(41,2,114,0.15)"/>
      <g id="Ellipse_181-40" data-name="Ellipse 181" transform="translate(1033 476)" fill="none" stroke="rgba(41,2,114,0.4)" stroke-width="1">
        <circle cx="3" cy="3" r="3" stroke="none"/>
        <circle cx="3" cy="3" r="2.5" fill="none"/>
      </g>
    </g>
    <g id="Group_5688-41" data-name="Group 5688" transform="translate(-997 -292)">
      <circle id="Ellipse_180-41" data-name="Ellipse 180" cx="3" cy="3" r="3" transform="translate(997 476)" fill="rgba(41,2,114,0.15)"/>
      <g id="Ellipse_181-41" data-name="Ellipse 181" transform="translate(1033 476)" fill="none" stroke="rgba(41,2,114,0.4)" stroke-width="1">
        <circle cx="3" cy="3" r="3" stroke="none"/>
        <circle cx="3" cy="3" r="2.5" fill="none"/>
      </g>
    </g>
    <g id="Group_5688-42" data-name="Group 5688" transform="translate(-927 -292)">
      <circle id="Ellipse_180-42" data-name="Ellipse 180" cx="3" cy="3" r="3" transform="translate(997 476)" fill="rgba(41,2,114,0.15)"/>
      <g id="Ellipse_181-42" data-name="Ellipse 181" transform="translate(1033 476)" fill="none" stroke="rgba(41,2,114,0.4)" stroke-width="1">
        <circle cx="3" cy="3" r="3" stroke="none"/>
        <circle cx="3" cy="3" r="2.5" fill="none"/>
      </g>
    </g>
    <g id="Group_5688-43" data-name="Group 5688" transform="translate(-857 -292)">
      <circle id="Ellipse_180-43" data-name="Ellipse 180" cx="3" cy="3" r="3" transform="translate(997 476)" fill="rgba(41,2,114,0.15)"/>
      <g id="Ellipse_181-43" data-name="Ellipse 181" transform="translate(1033 476)" fill="none" stroke="rgba(41,2,114,0.4)" stroke-width="1">
        <circle cx="3" cy="3" r="3" stroke="none"/>
        <circle cx="3" cy="3" r="2.5" fill="none"/>
      </g>
    </g>
    <g id="Group_5688-44" data-name="Group 5688" transform="translate(-787 -292)">
      <circle id="Ellipse_180-44" data-name="Ellipse 180" cx="3" cy="3" r="3" transform="translate(997 476)" fill="rgba(41,2,114,0.15)"/>
      <g id="Ellipse_181-44" data-name="Ellipse 181" transform="translate(1033 476)" fill="none" stroke="rgba(41,2,114,0.4)" stroke-width="1">
        <circle cx="3" cy="3" r="3" stroke="none"/>
        <circle cx="3" cy="3" r="2.5" fill="none"/>
      </g>
    </g>
    <g id="Group_5688-45" data-name="Group 5688" transform="translate(-717 -292)">
      <circle id="Ellipse_180-45" data-name="Ellipse 180" cx="3" cy="3" r="3" transform="translate(997 476)" fill="rgba(41,2,114,0.15)"/>
      <g id="Ellipse_181-45" data-name="Ellipse 181" transform="translate(1033 476)" fill="none" stroke="rgba(41,2,114,0.4)" stroke-width="1">
        <circle cx="3" cy="3" r="3" stroke="none"/>
        <circle cx="3" cy="3" r="2.5" fill="none"/>
      </g>
    </g>
    <g id="Group_5688-46" data-name="Group 5688" transform="translate(-647 -292)">
      <circle id="Ellipse_180-46" data-name="Ellipse 180" cx="3" cy="3" r="3" transform="translate(997 476)" fill="rgba(41,2,114,0.15)"/>
      <g id="Ellipse_181-46" data-name="Ellipse 181" transform="translate(1033 476)" fill="none" stroke="rgba(41,2,114,0.4)" stroke-width="1">
        <circle cx="3" cy="3" r="3" stroke="none"/>
        <circle cx="3" cy="3" r="2.5" fill="none"/>
      </g>
    </g>
    <g id="Group_5688-47" data-name="Group 5688" transform="translate(-577 -292)">
      <circle id="Ellipse_180-47" data-name="Ellipse 180" cx="3" cy="3" r="3" transform="translate(997 476)" fill="rgba(41,2,114,0.15)"/>
      <g id="Ellipse_181-47" data-name="Ellipse 181" transform="translate(1033 476)" fill="none" stroke="rgba(41,2,114,0.4)" stroke-width="1">
        <circle cx="3" cy="3" r="3" stroke="none"/>
        <circle cx="3" cy="3" r="2.5" fill="none"/>
      </g>
    </g>
    <g id="Group_5688-48" data-name="Group 5688" transform="translate(-507 -292)">
      <circle id="Ellipse_180-48" data-name="Ellipse 180" cx="3" cy="3" r="3" transform="translate(997 476)" fill="rgba(41,2,114,0.15)"/>
      <g id="Ellipse_181-48" data-name="Ellipse 181" transform="translate(1033 476)" fill="none" stroke="rgba(41,2,114,0.4)" stroke-width="1">
        <circle cx="3" cy="3" r="3" stroke="none"/>
        <circle cx="3" cy="3" r="2.5" fill="none"/>
      </g>
    </g>
    <g id="Group_5688-49" data-name="Group 5688" transform="translate(-437 -292)">
      <circle id="Ellipse_180-49" data-name="Ellipse 180" cx="3" cy="3" r="3" transform="translate(997 476)" fill="rgba(41,2,114,0.15)"/>
      <g id="Ellipse_181-49" data-name="Ellipse 181" transform="translate(1033 476)" fill="none" stroke="rgba(41,2,114,0.4)" stroke-width="1">
        <circle cx="3" cy="3" r="3" stroke="none"/>
        <circle cx="3" cy="3" r="2.5" fill="none"/>
      </g>
    </g>
    <g id="Group_5688-50" data-name="Group 5688" transform="translate(-367 -292)">
      <circle id="Ellipse_180-50" data-name="Ellipse 180" cx="3" cy="3" r="3" transform="translate(997 476)" fill="rgba(41,2,114,0.15)"/>
      <g id="Ellipse_181-50" data-name="Ellipse 181" transform="translate(1033 476)" fill="none" stroke="rgba(41,2,114,0.4)" stroke-width="1">
        <circle cx="3" cy="3" r="3" stroke="none"/>
        <circle cx="3" cy="3" r="2.5" fill="none"/>
      </g>
    </g>
    <g id="Group_5688-51" data-name="Group 5688" transform="translate(-997 -246)">
      <circle id="Ellipse_180-51" data-name="Ellipse 180" cx="3" cy="3" r="3" transform="translate(997 476)" fill="rgba(41,2,114,0.15)"/>
      <g id="Ellipse_181-51" data-name="Ellipse 181" transform="translate(1033 476)" fill="none" stroke="rgba(41,2,114,0.4)" stroke-width="1">
        <circle cx="3" cy="3" r="3" stroke="none"/>
        <circle cx="3" cy="3" r="2.5" fill="none"/>
      </g>
    </g>
    <g id="Group_5688-52" data-name="Group 5688" transform="translate(-927 -246)">
      <circle id="Ellipse_180-52" data-name="Ellipse 180" cx="3" cy="3" r="3" transform="translate(997 476)" fill="rgba(41,2,114,0.15)"/>
      <g id="Ellipse_181-52" data-name="Ellipse 181" transform="translate(1033 476)" fill="none" stroke="rgba(41,2,114,0.4)" stroke-width="1">
        <circle cx="3" cy="3" r="3" stroke="none"/>
        <circle cx="3" cy="3" r="2.5" fill="none"/>
      </g>
    </g>
    <g id="Group_5688-53" data-name="Group 5688" transform="translate(-857 -246)">
      <circle id="Ellipse_180-53" data-name="Ellipse 180" cx="3" cy="3" r="3" transform="translate(997 476)" fill="rgba(41,2,114,0.15)"/>
      <g id="Ellipse_181-53" data-name="Ellipse 181" transform="translate(1033 476)" fill="none" stroke="rgba(41,2,114,0.4)" stroke-width="1">
        <circle cx="3" cy="3" r="3" stroke="none"/>
        <circle cx="3" cy="3" r="2.5" fill="none"/>
      </g>
    </g>
    <g id="Group_5688-54" data-name="Group 5688" transform="translate(-787 -246)">
      <circle id="Ellipse_180-54" data-name="Ellipse 180" cx="3" cy="3" r="3" transform="translate(997 476)" fill="rgba(41,2,114,0.15)"/>
      <g id="Ellipse_181-54" data-name="Ellipse 181" transform="translate(1033 476)" fill="none" stroke="rgba(41,2,114,0.4)" stroke-width="1">
        <circle cx="3" cy="3" r="3" stroke="none"/>
        <circle cx="3" cy="3" r="2.5" fill="none"/>
      </g>
    </g>
    <g id="Group_5688-55" data-name="Group 5688" transform="translate(-717 -246)">
      <circle id="Ellipse_180-55" data-name="Ellipse 180" cx="3" cy="3" r="3" transform="translate(997 476)" fill="rgba(41,2,114,0.15)"/>
      <g id="Ellipse_181-55" data-name="Ellipse 181" transform="translate(1033 476)" fill="none" stroke="rgba(41,2,114,0.4)" stroke-width="1">
        <circle cx="3" cy="3" r="3" stroke="none"/>
        <circle cx="3" cy="3" r="2.5" fill="none"/>
      </g>
    </g>
    <g id="Group_5688-56" data-name="Group 5688" transform="translate(-647 -246)">
      <circle id="Ellipse_180-56" data-name="Ellipse 180" cx="3" cy="3" r="3" transform="translate(997 476)" fill="rgba(41,2,114,0.15)"/>
      <g id="Ellipse_181-56" data-name="Ellipse 181" transform="translate(1033 476)" fill="none" stroke="rgba(41,2,114,0.4)" stroke-width="1">
        <circle cx="3" cy="3" r="3" stroke="none"/>
        <circle cx="3" cy="3" r="2.5" fill="none"/>
      </g>
    </g>
    <g id="Group_5688-57" data-name="Group 5688" transform="translate(-577 -246)">
      <circle id="Ellipse_180-57" data-name="Ellipse 180" cx="3" cy="3" r="3" transform="translate(997 476)" fill="rgba(41,2,114,0.15)"/>
      <g id="Ellipse_181-57" data-name="Ellipse 181" transform="translate(1033 476)" fill="none" stroke="rgba(41,2,114,0.4)" stroke-width="1">
        <circle cx="3" cy="3" r="3" stroke="none"/>
        <circle cx="3" cy="3" r="2.5" fill="none"/>
      </g>
    </g>
    <g id="Group_5688-58" data-name="Group 5688" transform="translate(-507 -246)">
      <circle id="Ellipse_180-58" data-name="Ellipse 180" cx="3" cy="3" r="3" transform="translate(997 476)" fill="rgba(41,2,114,0.15)"/>
      <g id="Ellipse_181-58" data-name="Ellipse 181" transform="translate(1033 476)" fill="none" stroke="rgba(41,2,114,0.4)" stroke-width="1">
        <circle cx="3" cy="3" r="3" stroke="none"/>
        <circle cx="3" cy="3" r="2.5" fill="none"/>
      </g>
    </g>
    <g id="Group_5688-59" data-name="Group 5688" transform="translate(-437 -246)">
      <circle id="Ellipse_180-59" data-name="Ellipse 180" cx="3" cy="3" r="3" transform="translate(997 476)" fill="rgba(41,2,114,0.15)"/>
      <g id="Ellipse_181-59" data-name="Ellipse 181" transform="translate(1033 476)" fill="none" stroke="rgba(41,2,114,0.4)" stroke-width="1">
        <circle cx="3" cy="3" r="3" stroke="none"/>
        <circle cx="3" cy="3" r="2.5" fill="none"/>
      </g>
    </g>
    <g id="Group_5688-60" data-name="Group 5688" transform="translate(-367 -246)">
      <circle id="Ellipse_180-60" data-name="Ellipse 180" cx="3" cy="3" r="3" transform="translate(997 476)" fill="rgba(41,2,114,0.15)"/>
      <g id="Ellipse_181-60" data-name="Ellipse 181" transform="translate(1033 476)" fill="none" stroke="rgba(41,2,114,0.4)" stroke-width="1">
        <circle cx="3" cy="3" r="3" stroke="none"/>
        <circle cx="3" cy="3" r="2.5" fill="none"/>
      </g>
    </g>
    <g id="Group_5688-61" data-name="Group 5688" transform="translate(-997 -200)">
      <circle id="Ellipse_180-61" data-name="Ellipse 180" cx="3" cy="3" r="3" transform="translate(997 476)" fill="rgba(41,2,114,0.15)"/>
      <g id="Ellipse_181-61" data-name="Ellipse 181" transform="translate(1033 476)" fill="none" stroke="rgba(41,2,114,0.4)" stroke-width="1">
        <circle cx="3" cy="3" r="3" stroke="none"/>
        <circle cx="3" cy="3" r="2.5" fill="none"/>
      </g>
    </g>
    <g id="Group_5688-62" data-name="Group 5688" transform="translate(-927 -200)">
      <circle id="Ellipse_180-62" data-name="Ellipse 180" cx="3" cy="3" r="3" transform="translate(997 476)" fill="rgba(41,2,114,0.15)"/>
      <g id="Ellipse_181-62" data-name="Ellipse 181" transform="translate(1033 476)" fill="none" stroke="rgba(41,2,114,0.4)" stroke-width="1">
        <circle cx="3" cy="3" r="3" stroke="none"/>
        <circle cx="3" cy="3" r="2.5" fill="none"/>
      </g>
    </g>
    <g id="Group_5688-63" data-name="Group 5688" transform="translate(-857 -200)">
      <circle id="Ellipse_180-63" data-name="Ellipse 180" cx="3" cy="3" r="3" transform="translate(997 476)" fill="rgba(41,2,114,0.15)"/>
      <g id="Ellipse_181-63" data-name="Ellipse 181" transform="translate(1033 476)" fill="none" stroke="rgba(41,2,114,0.4)" stroke-width="1">
        <circle cx="3" cy="3" r="3" stroke="none"/>
        <circle cx="3" cy="3" r="2.5" fill="none"/>
      </g>
    </g>
    <g id="Group_5688-64" data-name="Group 5688" transform="translate(-787 -200)">
      <circle id="Ellipse_180-64" data-name="Ellipse 180" cx="3" cy="3" r="3" transform="translate(997 476)" fill="rgba(41,2,114,0.15)"/>
      <g id="Ellipse_181-64" data-name="Ellipse 181" transform="translate(1033 476)" fill="none" stroke="rgba(41,2,114,0.4)" stroke-width="1">
        <circle cx="3" cy="3" r="3" stroke="none"/>
        <circle cx="3" cy="3" r="2.5" fill="none"/>
      </g>
    </g>
    <g id="Group_5688-65" data-name="Group 5688" transform="translate(-717 -200)">
      <circle id="Ellipse_180-65" data-name="Ellipse 180" cx="3" cy="3" r="3" transform="translate(997 476)" fill="rgba(41,2,114,0.15)"/>
      <g id="Ellipse_181-65" data-name="Ellipse 181" transform="translate(1033 476)" fill="none" stroke="rgba(41,2,114,0.4)" stroke-width="1">
        <circle cx="3" cy="3" r="3" stroke="none"/>
        <circle cx="3" cy="3" r="2.5" fill="none"/>
      </g>
    </g>
    <g id="Group_5688-66" data-name="Group 5688" transform="translate(-647 -200)">
      <circle id="Ellipse_180-66" data-name="Ellipse 180" cx="3" cy="3" r="3" transform="translate(997 476)" fill="rgba(41,2,114,0.15)"/>
      <g id="Ellipse_181-66" data-name="Ellipse 181" transform="translate(1033 476)" fill="none" stroke="rgba(41,2,114,0.4)" stroke-width="1">
        <circle cx="3" cy="3" r="3" stroke="none"/>
        <circle cx="3" cy="3" r="2.5" fill="none"/>
      </g>
    </g>
    <g id="Group_5688-67" data-name="Group 5688" transform="translate(-577 -200)">
      <circle id="Ellipse_180-67" data-name="Ellipse 180" cx="3" cy="3" r="3" transform="translate(997 476)" fill="rgba(41,2,114,0.15)"/>
      <g id="Ellipse_181-67" data-name="Ellipse 181" transform="translate(1033 476)" fill="none" stroke="rgba(41,2,114,0.4)" stroke-width="1">
        <circle cx="3" cy="3" r="3" stroke="none"/>
        <circle cx="3" cy="3" r="2.5" fill="none"/>
      </g>
    </g>
    <g id="Group_5688-68" data-name="Group 5688" transform="translate(-507 -200)">
      <circle id="Ellipse_180-68" data-name="Ellipse 180" cx="3" cy="3" r="3" transform="translate(997 476)" fill="rgba(41,2,114,0.15)"/>
      <g id="Ellipse_181-68" data-name="Ellipse 181" transform="translate(1033 476)" fill="none" stroke="rgba(41,2,114,0.4)" stroke-width="1">
        <circle cx="3" cy="3" r="3" stroke="none"/>
        <circle cx="3" cy="3" r="2.5" fill="none"/>
      </g>
    </g>
    <g id="Group_5688-69" data-name="Group 5688" transform="translate(-437 -200)">
      <circle id="Ellipse_180-69" data-name="Ellipse 180" cx="3" cy="3" r="3" transform="translate(997 476)" fill="rgba(41,2,114,0.15)"/>
      <g id="Ellipse_181-69" data-name="Ellipse 181" transform="translate(1033 476)" fill="none" stroke="rgba(41,2,114,0.4)" stroke-width="1">
        <circle cx="3" cy="3" r="3" stroke="none"/>
        <circle cx="3" cy="3" r="2.5" fill="none"/>
      </g>
    </g>
    <g id="Group_5688-70" data-name="Group 5688" transform="translate(-367 -200)">
      <circle id="Ellipse_180-70" data-name="Ellipse 180" cx="3" cy="3" r="3" transform="translate(997 476)" fill="rgba(41,2,114,0.15)"/>
      <g id="Ellipse_181-70" data-name="Ellipse 181" transform="translate(1033 476)" fill="none" stroke="rgba(41,2,114,0.4)" stroke-width="1">
        <circle cx="3" cy="3" r="3" stroke="none"/>
        <circle cx="3" cy="3" r="2.5" fill="none"/>
      </g>
    </g>
    <g id="Group_5688-71" data-name="Group 5688" transform="translate(-997 -154)">
      <circle id="Ellipse_180-71" data-name="Ellipse 180" cx="3" cy="3" r="3" transform="translate(997 476)" fill="rgba(41,2,114,0.15)"/>
      <g id="Ellipse_181-71" data-name="Ellipse 181" transform="translate(1033 476)" fill="none" stroke="rgba(41,2,114,0.4)" stroke-width="1">
        <circle cx="3" cy="3" r="3" stroke="none"/>
        <circle cx="3" cy="3" r="2.5" fill="none"/>
      </g>
    </g>
    <g id="Group_5688-72" data-name="Group 5688" transform="translate(-927 -154)">
      <circle id="Ellipse_180-72" data-name="Ellipse 180" cx="3" cy="3" r="3" transform="translate(997 476)" fill="rgba(41,2,114,0.15)"/>
      <g id="Ellipse_181-72" data-name="Ellipse 181" transform="translate(1033 476)" fill="none" stroke="rgba(41,2,114,0.4)" stroke-width="1">
        <circle cx="3" cy="3" r="3" stroke="none"/>
        <circle cx="3" cy="3" r="2.5" fill="none"/>
      </g>
    </g>
    <g id="Group_5688-73" data-name="Group 5688" transform="translate(-857 -154)">
      <circle id="Ellipse_180-73" data-name="Ellipse 180" cx="3" cy="3" r="3" transform="translate(997 476)" fill="rgba(41,2,114,0.15)"/>
      <g id="Ellipse_181-73" data-name="Ellipse 181" transform="translate(1033 476)" fill="none" stroke="rgba(41,2,114,0.4)" stroke-width="1">
        <circle cx="3" cy="3" r="3" stroke="none"/>
        <circle cx="3" cy="3" r="2.5" fill="none"/>
      </g>
    </g>
    <g id="Group_5688-74" data-name="Group 5688" transform="translate(-787 -154)">
      <circle id="Ellipse_180-74" data-name="Ellipse 180" cx="3" cy="3" r="3" transform="translate(997 476)" fill="rgba(41,2,114,0.15)"/>
      <g id="Ellipse_181-74" data-name="Ellipse 181" transform="translate(1033 476)" fill="none" stroke="rgba(41,2,114,0.4)" stroke-width="1">
        <circle cx="3" cy="3" r="3" stroke="none"/>
        <circle cx="3" cy="3" r="2.5" fill="none"/>
      </g>
    </g>
    <g id="Group_5688-75" data-name="Group 5688" transform="translate(-717 -154)">
      <circle id="Ellipse_180-75" data-name="Ellipse 180" cx="3" cy="3" r="3" transform="translate(997 476)" fill="rgba(41,2,114,0.15)"/>
      <g id="Ellipse_181-75" data-name="Ellipse 181" transform="translate(1033 476)" fill="none" stroke="rgba(41,2,114,0.4)" stroke-width="1">
        <circle cx="3" cy="3" r="3" stroke="none"/>
        <circle cx="3" cy="3" r="2.5" fill="none"/>
      </g>
    </g>
    <g id="Group_5688-76" data-name="Group 5688" transform="translate(-647 -154)">
      <circle id="Ellipse_180-76" data-name="Ellipse 180" cx="3" cy="3" r="3" transform="translate(997 476)" fill="rgba(41,2,114,0.15)"/>
      <g id="Ellipse_181-76" data-name="Ellipse 181" transform="translate(1033 476)" fill="none" stroke="rgba(41,2,114,0.4)" stroke-width="1">
        <circle cx="3" cy="3" r="3" stroke="none"/>
        <circle cx="3" cy="3" r="2.5" fill="none"/>
      </g>
    </g>
    <g id="Group_5688-77" data-name="Group 5688" transform="translate(-577 -154)">
      <circle id="Ellipse_180-77" data-name="Ellipse 180" cx="3" cy="3" r="3" transform="translate(997 476)" fill="rgba(41,2,114,0.15)"/>
      <g id="Ellipse_181-77" data-name="Ellipse 181" transform="translate(1033 476)" fill="none" stroke="rgba(41,2,114,0.4)" stroke-width="1">
        <circle cx="3" cy="3" r="3" stroke="none"/>
        <circle cx="3" cy="3" r="2.5" fill="none"/>
      </g>
    </g>
    <g id="Group_5688-78" data-name="Group 5688" transform="translate(-507 -154)">
      <circle id="Ellipse_180-78" data-name="Ellipse 180" cx="3" cy="3" r="3" transform="translate(997 476)" fill="rgba(41,2,114,0.15)"/>
      <g id="Ellipse_181-78" data-name="Ellipse 181" transform="translate(1033 476)" fill="none" stroke="rgba(41,2,114,0.4)" stroke-width="1">
        <circle cx="3" cy="3" r="3" stroke="none"/>
        <circle cx="3" cy="3" r="2.5" fill="none"/>
      </g>
    </g>
    <g id="Group_5688-79" data-name="Group 5688" transform="translate(-437 -154)">
      <circle id="Ellipse_180-79" data-name="Ellipse 180" cx="3" cy="3" r="3" transform="translate(997 476)" fill="rgba(41,2,114,0.15)"/>
      <g id="Ellipse_181-79" data-name="Ellipse 181" transform="translate(1033 476)" fill="none" stroke="rgba(41,2,114,0.4)" stroke-width="1">
        <circle cx="3" cy="3" r="3" stroke="none"/>
        <circle cx="3" cy="3" r="2.5" fill="none"/>
      </g>
    </g>
    <g id="Group_5688-80" data-name="Group 5688" transform="translate(-367 -154)">
      <circle id="Ellipse_180-80" data-name="Ellipse 180" cx="3" cy="3" r="3" transform="translate(997 476)" fill="rgba(41,2,114,0.15)"/>
      <g id="Ellipse_181-80" data-name="Ellipse 181" transform="translate(1033 476)" fill="none" stroke="rgba(41,2,114,0.4)" stroke-width="1">
        <circle cx="3" cy="3" r="3" stroke="none"/>
        <circle cx="3" cy="3" r="2.5" fill="none"/>
      </g>
    </g>
  </g>
</svg>
