<?xml version="1.0" encoding="utf-8"?>
<!-- Generator: Adobe Illustrator 22.1.0, SVG Export Plug-In . SVG Version: 6.00 Build 0)  -->
<svg version="1.1" xmlns="http://www.w3.org/2000/svg" xmlns:xlink="http://www.w3.org/1999/xlink" x="0px" y="0px"
	 viewBox="0 0 3001 3000" style="enable-background:new 0 0 3001 3000;" xml:space="preserve">
<style type="text/css">
	.st0{fill:none;stroke:#000000;stroke-width:4.7644;stroke-linecap:round;}
	.st1{fill:none;stroke:#000000;stroke-width:5;stroke-linecap:round;}
	.st2{fill:none;stroke:#2039D2;stroke-width:5;stroke-linecap:round;}
	.st3{fill:none;stroke:#FFB905;stroke-width:4.7644;stroke-linecap:round;}
	.st4{fill:none;stroke:#FFB905;stroke-width:5;stroke-linecap:round;}
	.st5{fill:none;stroke:#000000;stroke-width:6;}
	.st6{fill:none;stroke:#000000;stroke-width:12;}
	.st7{fill:none;stroke:#000000;stroke-width:5;}
	.st8{fill:none;stroke:#000000;stroke-width:11;}
	.st9{fill:none;stroke:#000000;stroke-width:4;}
	.st10{fill:none;stroke:#000000;stroke-width:9;}
	.st11{fill:none;stroke:#000000;stroke-width:19.6118;}
	.st12{fill:none;stroke:#000000;stroke-width:14;}
	.st13{fill:none;stroke:#2039D2;stroke-width:29.5395;}
	.st14{fill:none;stroke:#FF7A00;stroke-width:15;}
	.st15{fill:none;stroke:#2039D2;stroke-width:8;}
	.st16{fill:none;stroke:#2039D2;stroke-width:35;}
	.st17{fill:#FFB905;}
	.st18{fill:#FF7A00;}
	.st19{fill:#FF6B6B;}
	.st20{fill:#E34545;}
	.st21{fill:none;stroke:#000000;stroke-width:4.4332;stroke-linecap:round;}
	.st22{fill:#7432FF;}
</style>
<g id="Background_Details">
	<g id="Layer_1">
		<g>
			<defs>
				<rect id="SVGID_1_" x="0.7" y="0" width="3000" height="3000"/>
			</defs>
			<clipPath id="SVGID_2_">
				<use xlink:href="#SVGID_1_"  style="overflow:visible;"/>
			</clipPath>
		</g>
	</g>
	<g id="Waves">
		<path class="st0" d="M684.9,2009.5c-17.7-45.6-38-175.3,110.2-149.8c121.7,20.9,125-94.2,110.3-153.1"/>
		<path class="st0" d="M2340.7,1799.6c-4.7-9.7-11.6-37.9,21.5-35c27.2,2.4,25.8-23,21.4-35.7"/>
		<path class="st1" d="M2265.1,2384.2c-7.8-16-19.2-62.5,35.4-57.8c44.9,3.9,42.5-38,35.4-59"/>
		<path class="st0" d="M1516.5,1493.9c-7.7-15.5-20.6-57.8,24.7-40.6c37.2,14.1,32-22.1,24.5-41.6"/>
		<path class="st0" d="M595.2,1338.7c-14.1-28.5-37.8-106,45.3-74.5c68.2,25.9,58.8-40.5,45-76.3"/>
		<path class="st0" d="M2677.6,2201.5c-14.1-28.4-37.8-106,45.3-74.4c68.2,25.9,58.8-40.5,45-76.3"/>
		<path class="st0" d="M2125.2,540.5c-6.7-13.6-18.1-50.7,21.7-35.6c32.6,12.4,28.1-19.4,21.5-36.5"/>
		<path class="st2" d="M1225.8,871.1c-14.1-28.4-37.7-105.8,45.2-74.3c68.1,25.9,58.7-40.4,44.9-76.2"/>
		<path class="st0" d="M2732.8,1700.6c-14.1-28.4-37.7-105.8,45.2-74.3c68.1,25.9,58.7-40.4,44.9-76.2"/>
		<path class="st0" d="M834.5,2495.7c-8.7-21.8-18.8-83.9,52.5-72.8c58.6,9.2,59.8-46.2,52.6-74.3"/>
	</g>
	<g id="Lines">
		<path class="st0" d="M412.4,676.1L285.4,828.3L158.5,980.6"/>
		<path class="st1" d="M737,371.6L261.1,941.2"/>
		<path class="st0" d="M481.5,796.8l-392.1,479"/>
		<path class="st3" d="M2449.1,691l-126.9,152.2l-126.9,152.2"/>
		<path class="st4" d="M2773.7,386.6l-475.9,569.6"/>
		<path class="st3" d="M2714.3,592.5l-392.1,479"/>
		<path class="st1" d="M2339.6,1999.8L1922.2,2505"/>
		<path class="st0" d="M2221.6,2260.7l-370.5,446.9"/>
	</g>
	<g id="Black_Elipses">
		<circle class="st5" cx="2677.7" cy="1269.5" r="34.7"/>
		<circle class="st6" cx="2608.6" cy="1956.6" r="21.9"/>
		<circle class="st5" cx="1752.3" cy="441.1" r="66.4"/>
		<circle class="st7" cx="657.4" cy="2318.1" r="49.7"/>
		<circle class="st8" cx="2617" cy="872.3" r="43.5"/>
		<circle class="st9" cx="2095.4" cy="2131.9" r="67.7"/>
		<circle class="st10" cx="2377.3" cy="1338.9" r="11.1"/>
		<circle class="st10" cx="1035.3" cy="2063.3" r="11.1"/>
		<circle class="st11" cx="1760.1" cy="609.8" r="13.5"/>
		<circle class="st12" cx="847" cy="634.2" r="34.9"/>
		<circle class="st11" cx="1766.3" cy="2507.9" r="13.5"/>
		<circle class="st11" cx="1211.9" cy="1645.1" r="13.5"/>
	</g>
	<g id="Color_Elipses">
		<circle class="st13" cx="541.6" cy="1670.1" r="153.2"/>
		<circle class="st14" cx="1944.8" cy="1023.9" r="209.3"/>
		<circle class="st15" cx="2765.3" cy="1237.3" r="180.6"/>
		<circle class="st16" cx="1287.1" cy="2244.1" r="38.4"/>
	</g>
</g>
<g id="Girl">
	<g id="Book">
		<path class="st17" d="M1350.7,631.6L946.3,873.7l265.7,621.4l442.8-186L1350.7,631.6z"/>
		<path class="st18" d="M595.3,775.2l351,98.6l265.6,621.5l-312.6-42.5L595.3,775.2z"/>
		<path class="st1" d="M946.3,851.5l412.3-247.7"/>
		<path class="st1" d="M639.1,942.8l293.1,669.7"/>
		<path class="st1" d="M1015.4,921.6l303.5-187.4"/>
		<path class="st1" d="M1035.3,977l221.1-134"/>
		<path class="st1" d="M1119.5,1071.4l221.1-134"/>
		<path class="st1" d="M709.6,914L919,951.9"/>
		<path class="st1" d="M737,994.1l249.4,35.3"/>
	</g>
	<g id="Legs">
		<path d="M1589.9,2086.9c2-14-24.5-88.9-28.4-97.4l167.9-47.3l86.9,122.7l-44.8,44.2l-30.8-36.1c-16.3,10.2-11.4,53.2-7,73.3
			l-161.2,154.8c-1-1.4-4.5-7.6-11-21.5C1538.2,2209.7,1588,2100.2,1589.9,2086.9z"/>
		<path d="M1650.9,2100.3l-190.5,53.1c13.6,41.2,37.1,113.1,39.9,137.8c1.4,13.1-14.9,97.1-72.5,179.9
			c-46.1,66.2-40,122.8-31.2,142.8l273.5-129.6c-1.9-20.1,27.2-51.6,42-64.8l21.6,36l76.8-36
			C1784.5,2313.8,1690.5,2158.7,1650.9,2100.3z"/>
		<path class="st7" d="M1506.4,2335.5c-28.9-67.1-87.1-183.9-88.4-114.3C1416.8,2290.9,1476.4,2326.5,1506.4,2335.5z"/>
		<path class="st7" d="M1501.1,2337.5c-39.7-19.2-111.9-49.3-83.3-15.8C1446.3,2355.3,1485.2,2346.2,1501.1,2337.5z"/>
		<path class="st19" d="M1356.5,1641.1c38.8-63.7,209.8-89.9,291-96.2l36.4,195.2l-136.2,9.5c74.3,52.7,151.2,131.2,177.5,178.9
			l-147.5,114.4c-18.2-36.7-26.2-50.3-36-64.6c-34-49.9-102.4-98.6-139.7-142.8C1364.8,1791.2,1312.1,1714.1,1356.5,1641.1z"/>
		<path class="st19" d="M1424.2,2015.6c-2.8-136.8,181.8-223.8,274.3-250.2l67.9,200.8c-20.3,0.4-116.9,3.6-129.9,49.4
			c-5.3,18.6-6.1,49.7,10.4,86.4l-185.6,53C1456.8,2124,1446,2137.3,1424.2,2015.6z"/>
		<path class="st20" d="M1387.2,1719c-13.2,12.3-39.9,5.1-44.3,0l40.8,69.3L1387.2,1719z"/>
		<path class="st20" d="M1736.1,1968.7l-64.4-195.3c2.6,70.5-35.9,243.6-35.9,243.6C1654.8,1982.9,1688.8,1976.7,1736.1,1968.7z"/>
		<path class="st1" d="M1438.5,1924.4c13.4-17,59.7-75.7,128.8-111.7"/>
		<path class="st1" d="M1357.4,1741.6c-5.2-5.9-41.1-67.8,19-144.6"/>
		<path class="st1" d="M1511.8,1724.1c19.8,8.8,46.4,22.3,73.8,41.2"/>
	</g>
	<g id="Head">
		<path d="M1932.2,891.2c40.9-3,126.2,50.4,146.1,237.2c4.8,70.5,2,69,0,59.5c-16.4,0.7-116.7-9.8-204.7-19.7
			c0,0-105.9,104.6-138-16.7c-10.5,0-99.1-24-85.4-95.2c14.2-74.4,164.6-90.4,170.6-109.3C1850.9,882.9,1923.6,891.2,1932.2,891.2z"
			/>
		<path class="st19" d="M1846.9,1095.4c-54.3-20.9-43.2-106.2-16-138.9c65.9,0.4,104.9-43.6,103.7-39.7
			c-30.9,105,36.3,134.4,35,138.9c24.5,83.8,39.6,94.2,39.5,94.3c-34.7,44.4-81.6,33.8-114.7,20.2l-17.2-75
			C1872.5,1096.6,1857.9,1099.6,1846.9,1095.4z"/>
		<circle class="st20" cx="1883.6" cy="1034.2" r="15.4"/>
		<path class="st20" d="M1826.3,1008.3c-1.4,8.4-9.5,14-17.9,12.6c0,0,0.4-7,2-15.4c1.4-8.4,3.8-14.9,3.8-14.9
			C1822.5,992.1,1827.7,1000,1826.3,1008.3z"/>
		<path class="st20" d="M1877.2,1095.2c16.1-5.6,52.7-22.5,72.2-45.2l1.1-1.3c-0.4,0.5-0.8,0.9-1.1,1.3l-64.8,77.1L1877.2,1095.2z"
			/>
		<path class="st1" d="M1846.2,1032c0,0-14.6-4.9-14.6-12.4c0-4.8,16.5-30.1,16.5-30.1"/>
		<path class="st21" d="M1949.8,1049.8c-7.2,9.2-29.1,30.6-59.7,43.1"/>
		<ellipse transform="matrix(0.726 -0.6877 0.6877 0.726 -170.5537 1569.1487)" cx="1883.8" cy="998.6" rx="6.6" ry="5.1"/>
		<ellipse transform="matrix(0.5446 -0.8387 0.8387 0.5446 10.032 1982.6941)" cx="1830.7" cy="982.1" rx="6.6" ry="5.1"/>
	</g>
	<g id="Hat">
		<path class="st22" d="M2207.1,676.2l-280.8,214.1c-2.2,4.7-0.2,18.6,25.1,36.1c25.3,17.5,50.6,23.3,60.1,24L2207.1,676.2z"/>
		<path class="st17" d="M2061.8,847.9l7.8-17.7l7.4,17.7l11.4-4.9l-23.1,32.4l-3.5-8.3h-23.1l17.2-9.8l-10.8-16.7L2061.8,847.9z"/>
		<path class="st17" d="M1969.8,877.1l5.4-12.2l5.1,12.2l11.2-5.1l-7.4,11.5l4.1,10.1l-10.5-3.4l-4.7,11.5l-3-11.5h-15.9l11.8-6.8
			l-7.4-11.5L1969.8,877.1z"/>
		<path class="st17" d="M2130,744l-15.6,2.9l33.1-25.1l-5,12.8l6,9.1l-10.9-1.2l-2.3,12.2L2130,744z"/>
	</g>
	<g id="Hands">
		<path class="st19" d="M2482.6,1762.2c-14.2,1.7-81.6-115.7-113.6-175.3l57.2-59.3c6,13.3,24.1,32.1,30.6,38.1
			c17.3,15.9,163.8,62.3,160.6,75.7c-2.6,10.7-38.2-2.3-55.7-10.1c22.2,10.5,66.3,33.9,64.5,43.6c-1.8,9.7-49.8-8-73.5-18
			c22.9,11.2,70.4,34.9,77,40.7l0.2,0.2c8,7.1,10.8,9.5,4.7,15.5c-4.9,4.9-60.6-18.9-87.8-31.4c14.6,11.2,45.1,36,50.4,45.1
			c5.2,9.2-5.6,10.2-11.7,9.6c-34-18.4-104.4-54.5-113.4-51.4C2460.7,1689.1,2500.3,1760.1,2482.6,1762.2z"/>
		<path class="st19" d="M1426,1028.3c0,52.2,19.6,104.8,34.3,126.2l-58.1,67.4c-37.4-37.9-113.2-118.4-117.3-136.5
			c-4.2-18.1,4.3-23.9,9.4-26.1c0-4.1,1.8-17.9,6.9-28.5c4.9-10.3,12.7-5.4,17.7-2.8c-1.8-2.5,6.7-22,10.4-26.8
			c3.8-5,21.4-10.9,21.3-4.2c0.9-7,6.5-23.7,24.4-23.7c14.9,0,19,34.5,19.2,51.7c1.5-14.9,7.1-66.8,19.1-72.9
			C1427.6,944.9,1426,960.6,1426,1028.3z"/>
		<path d="M1565.2,698.6c-6.1,0-177.3,287.4-177.3,287.4s1.3,3.3,2.5,8.5c0.8,3.7,2,10.1,2,10.1S1565.2,702.4,1565.2,698.6z"/>
		<path class="st1" d="M1646.3,564.7l-36.6,55.5"/>
		<path class="st1" d="M1558.1,552.6l12.4,65.3"/>
		<path class="st1" d="M1692.3,637.7l-64.3,17"/>
		<path class="st1" d="M1540.8,679.1l-64.3,17"/>
		<path class="st1" d="M1591.9,704.6l2.5,66.5"/>
		<path class="st1" d="M1624.6,689.4l53.8,39.1"/>
		<path class="st1" d="M1485.2,600.7l53.8,39.1"/>
		<path class="st1" d="M2527.8,1623.5l-10.2-5.8"/>
		<path class="st1" d="M1385.1,1055.1c-8.4,12.3-12.3,50.6-5.3,67.7"/>
		<path class="st1" d="M1361.7,1018.1l3.5,45.8"/>
		<path class="st1" d="M1338.8,1035.5l3.5,45.8"/>
		<path class="st1" d="M1315.9,1063.8l3.5,45.8"/>
		<path class="st1" d="M2519.7,1645.1l-10.2-5.8"/>
		<path class="st1" d="M2513.6,1665.4l-10.2-5.8"/>
	</g>
	<g id="Body">
		<path class="st22" d="M1889.1,1150.8l-45.1,31.4c-29,18.9-62.8,59.8-161.1,75.1c-98.3,15.3-189.3-64.6-222.5-106.5l-92.8,106.5
			c7.7,12.7,56.5,48.6,189.7,90.1c133.2,41.5,263-6.4,311.2-35.5c4.4,30.6,35.5,154.7,50.5,212.9c-65.5-19.7-220.2-16.4-289.4-12.3
			l79.2,487.3c117.8-37.3,373.5-138.4,453.2-244.3c79.7-105.9,33.2-294.4,0-375.4c49.1,29.5,130,212.8,176,288.3l113.4-109.5
			c-36.4-50.5-135.7-179.9-241.6-293.5c-105.9-113.6-183.4-130.1-208.8-124.2C1953,1167.5,1906.4,1158.5,1889.1,1150.8z"/>
		<path class="st1" d="M1623.6,1467.8l77.8,472.3"/>
		<path class="st1" d="M1664.8,1469.9l63.2,360.3"/>
		<path class="st1" d="M2138.1,1323.2c19.9,35.9,44.8,86.7,64.7,146.7"/>
		<path class="st1" d="M1864.8,1283.4c-0.7,35.7,0,87.6,11.7,142.1"/>
		<path class="st1" d="M2151.6,1270.6c0.7,18.9,2.9,45,9.4,73.4"/>
		<path class="st1" d="M2220,1575.8c6.6,66.4-11.4,231.3-188.8,309.2"/>
		<path class="st1" d="M1475.9,1134.3l-86.6,98.1"/>
		<path class="st1" d="M2469.1,1540.9l-94.2,90.9"/>
		<path class="st1" d="M2436.5,1530.4l-94.1,90.9"/>
		<path class="st1" d="M1493.4,1161.2l-84.1,100.3"/>
		<path class="st1" d="M1899.6,1156.2c17.7,3.9,60.9,7.3,91.8-9.7"/>
		<g id="Stars">
			<path class="st17" d="M2035.4,1285l19.3-43.4l18.1,43.4l39.8-18.1l-26.5,41l14.5,36.2l-37.4-12.1l-16.9,41l-10.9-41h-56.7
				l42.2-24.1l-26.5-41L2035.4,1285z"/>
			<path class="st17" d="M2140.9,1591.7l9.7-21.7l9,21.7l19.9-9l-13.3,20.5l7.2,18.1l-18.7-6l-8.4,20.5l-5.4-20.5h-28.3l21.1-12.1
				l-13.3-20.5L2140.9,1591.7z"/>
			<path class="st17" d="M1943,1687.4l7.8-17.7l7.4,17.7l16.2-7.3l-10.8,16.7l5.9,14.7l-15.2-4.9l-6.9,16.7l-4.4-16.7h-23l17.2-9.8
				l-10.8-16.7L1943,1687.4z"/>
			<path class="st17" d="M1853.8,1247.6l7.8-17.7l7.3,17.7l16.2-7.3l-10.8,16.7l5.9,14.7l-15.2-4.9l-6.9,16.7l-4.4-16.7h-23
				l17.2-9.8l-10.8-16.7L1853.8,1247.6z"/>
			<path class="st17" d="M2350.9,1526.1l9.6-21.7l9,21.7l19.8-9l-13.2,20.4l7.2,18l-18.6-6l-8.4,20.5l-5.4-20.5h-28.3l21.1-12
				l-13.2-20.4L2350.9,1526.1z"/>
			<path class="st17" d="M1598.8,1249c0,0,10.7,3.8,17.8,5.4c5.7,1.3,9.5,2.1,15.2,2.9c4.9,0.7,13.1,1.5,13.1,1.5l-7,5.6l5.9,14.7
				l-15.2-4.9l-6.9,16.7l-4.4-16.7h-23l17.2-9.8L1598.8,1249z"/>
			<path class="st17" d="M1714.1,1560.7l13.1-29.5l12.3,29.5l27-12.3l-18,27.8l9.8,24.5l-25.4-8.2l-11.5,27.8l-7.4-27.8h-38.4
				l28.6-16.4l-18-27.8L1714.1,1560.7z"/>
			<path class="st17" d="M1905.1,1905.7l16.5-37.1l15.5,37.1l37.3-14.2c0,0-48.6,26.5-117.8,54.5c13.9-8.5,36.1-20.6,36.1-20.6
				l-22.7-35.1L1905.1,1905.7z"/>
		</g>
	</g>
</g>
</svg>
