<svg xmlns="http://www.w3.org/2000/svg" width="2863.851" height="2342.876" viewBox="0 0 2863.851 2342.876">
  <g id="girl" transform="translate(-14969.647 -9041.479)">
    <g id="Background_Details" transform="translate(14883.6 8673.4)">
      <g id="Waves">
        <path id="Path_1096" data-name="Path 1096" d="M684.9,2009.5c-17.7-45.6-38-175.3,110.2-149.8,121.7,20.9,125-94.2,110.3-153.1" fill="none" stroke="#000" stroke-linecap="round" stroke-width="4.764"/>
        <path id="Path_1097" data-name="Path 1097" d="M2340.7,1799.6c-4.7-9.7-11.6-37.9,21.5-35,27.2,2.4,25.8-23,21.4-35.7" fill="none" stroke="#000" stroke-linecap="round" stroke-width="4.764"/>
        <path id="Path_1098" data-name="Path 1098" d="M2265.1,2384.2c-7.8-16-19.2-62.5,35.4-57.8,44.9,3.9,42.5-38,35.4-59" fill="none" stroke="#000" stroke-linecap="round" stroke-width="5"/>
        <path id="Path_1099" data-name="Path 1099" d="M1516.5,1493.9c-7.7-15.5-20.6-57.8,24.7-40.6,37.2,14.1,32-22.1,24.5-41.6" fill="none" stroke="#000" stroke-linecap="round" stroke-width="4.764"/>
        <path id="Path_1100" data-name="Path 1100" d="M595.2,1338.7c-14.1-28.5-37.8-106,45.3-74.5,68.2,25.9,58.8-40.5,45-76.3" fill="none" stroke="#000" stroke-linecap="round" stroke-width="4.764"/>
        <path id="Path_1101" data-name="Path 1101" d="M2677.6,2201.5c-14.1-28.4-37.8-106,45.3-74.4,68.2,25.9,58.8-40.5,45-76.3" fill="none" stroke="#000" stroke-linecap="round" stroke-width="4.764"/>
        <path id="Path_1102" data-name="Path 1102" d="M2125.2,540.5c-6.7-13.6-18.1-50.7,21.7-35.6,32.6,12.4,28.1-19.4,21.5-36.5" fill="none" stroke="#000" stroke-linecap="round" stroke-width="4.764"/>
        <path id="Path_1103" data-name="Path 1103" d="M1225.8,871.1c-14.1-28.4-37.7-105.8,45.2-74.3,68.1,25.9,58.7-40.4,44.9-76.2" fill="none" stroke="#2039d2" stroke-linecap="round" stroke-width="5"/>
        <path id="Path_1104" data-name="Path 1104" d="M2732.8,1700.6c-14.1-28.4-37.7-105.8,45.2-74.3,68.1,25.9,58.7-40.4,44.9-76.2" fill="none" stroke="#000" stroke-linecap="round" stroke-width="4.764"/>
        <path id="Path_1105" data-name="Path 1105" d="M834.5,2495.7c-8.7-21.8-18.8-83.9,52.5-72.8,58.6,9.2,59.8-46.2,52.6-74.3" fill="none" stroke="#000" stroke-linecap="round" stroke-width="4.764"/>
      </g>
      <g id="Lines">
        <path id="Path_1106" data-name="Path 1106" d="M412.4,676.1l-127,152.2L158.5,980.6" fill="none" stroke="#000" stroke-linecap="round" stroke-width="4.764"/>
        <path id="Path_1107" data-name="Path 1107" d="M737,371.6,261.1,941.2" fill="none" stroke="#000" stroke-linecap="round" stroke-width="5"/>
        <path id="Path_1108" data-name="Path 1108" d="M481.5,796.8l-392.1,479" fill="none" stroke="#000" stroke-linecap="round" stroke-width="4.764"/>
        <path id="Path_1109" data-name="Path 1109" d="M2449.1,691,2322.2,843.2,2195.3,995.4" fill="none" stroke="#ffb905" stroke-linecap="round" stroke-width="4.764"/>
        <path id="Path_1110" data-name="Path 1110" d="M2773.7,386.6,2297.8,956.2" fill="none" stroke="#ffb905" stroke-linecap="round" stroke-width="5"/>
        <path id="Path_1111" data-name="Path 1111" d="M2714.3,592.5l-392.1,479" fill="none" stroke="#ffb905" stroke-linecap="round" stroke-width="4.764"/>
        <path id="Path_1112" data-name="Path 1112" d="M2339.6,1999.8,1922.2,2505" fill="none" stroke="#000" stroke-linecap="round" stroke-width="5"/>
        <path id="Path_1113" data-name="Path 1113" d="M2221.6,2260.7l-370.5,446.9" fill="none" stroke="#000" stroke-linecap="round" stroke-width="4.764"/>
      </g>
      <g id="Black_Elipses">
        <circle id="Ellipse_185" data-name="Ellipse 185" cx="34.7" cy="34.7" r="34.7" transform="translate(2643 1234.8)" fill="none" stroke="#000" stroke-width="6"/>
        <circle id="Ellipse_186" data-name="Ellipse 186" cx="21.9" cy="21.9" r="21.9" transform="translate(2586.7 1934.7)" fill="none" stroke="#000" stroke-width="12"/>
        <circle id="Ellipse_187" data-name="Ellipse 187" cx="66.4" cy="66.4" r="66.4" transform="translate(1685.9 374.7)" fill="none" stroke="#000" stroke-width="6"/>
        <circle id="Ellipse_188" data-name="Ellipse 188" cx="49.7" cy="49.7" r="49.7" transform="translate(607.7 2268.4)" fill="none" stroke="#000" stroke-width="5"/>
        <circle id="Ellipse_189" data-name="Ellipse 189" cx="43.5" cy="43.5" r="43.5" transform="translate(2573.5 828.8)" fill="none" stroke="#000" stroke-width="11"/>
        <circle id="Ellipse_190" data-name="Ellipse 190" cx="67.7" cy="67.7" r="67.7" transform="translate(2027.7 2064.2)" fill="none" stroke="#000" stroke-width="4"/>
        <circle id="Ellipse_191" data-name="Ellipse 191" cx="11.1" cy="11.1" r="11.1" transform="translate(2366.2 1327.8)" fill="none" stroke="#000" stroke-width="9"/>
        <circle id="Ellipse_192" data-name="Ellipse 192" cx="11.1" cy="11.1" r="11.1" transform="translate(1024.2 2052.2)" fill="none" stroke="#000" stroke-width="9"/>
        <circle id="Ellipse_193" data-name="Ellipse 193" cx="13.5" cy="13.5" r="13.5" transform="translate(1746.6 596.3)" fill="none" stroke="#000" stroke-width="19.612"/>
        <circle id="Ellipse_194" data-name="Ellipse 194" cx="34.9" cy="34.9" r="34.9" transform="translate(812.1 599.3)" fill="none" stroke="#000" stroke-width="14"/>
        <circle id="Ellipse_195" data-name="Ellipse 195" cx="13.5" cy="13.5" r="13.5" transform="translate(1752.8 2494.4)" fill="none" stroke="#000" stroke-width="19.612"/>
        <circle id="Ellipse_196" data-name="Ellipse 196" cx="13.5" cy="13.5" r="13.5" transform="translate(1198.4 1631.6)" fill="none" stroke="#000" stroke-width="19.612"/>
      </g>
      <g id="Color_Elipses">
        <circle id="Ellipse_197" data-name="Ellipse 197" cx="153.2" cy="153.2" r="153.2" transform="translate(388.4 1516.9)" fill="none" stroke="#165df5" stroke-width="29.539"/>
        <circle id="Ellipse_198" data-name="Ellipse 198" cx="209.3" cy="209.3" r="209.3" transform="translate(1735.5 814.6)" fill="none" stroke="#ff7a00" stroke-width="15"/>
        <circle id="Ellipse_199" data-name="Ellipse 199" cx="180.6" cy="180.6" r="180.6" transform="translate(2584.7 1056.7)" fill="none" stroke="#165df5" stroke-width="8"/>
        <circle id="Ellipse_200" data-name="Ellipse 200" cx="38.4" cy="38.4" r="38.4" transform="translate(1248.7 2205.7)" fill="none" stroke="#165df5" stroke-width="35"/>
      </g>
    </g>
    <g id="Girl-2" data-name="Girl" transform="translate(14883.6 8673.4)">
      <g id="Book">
        <path id="Path_1114" data-name="Path 1114" d="M1350.7,631.6,946.3,873.7,1212,1495.1l442.8-186Z" fill="#ffb905"/>
        <path id="Path_1115" data-name="Path 1115" d="M595.3,775.2l351,98.6,265.6,621.5-312.6-42.5Z" fill="#ff7a00"/>
        <path id="Path_1116" data-name="Path 1116" d="M946.3,851.5l412.3-247.7" fill="none" stroke="#000" stroke-linecap="round" stroke-width="5"/>
        <path id="Path_1117" data-name="Path 1117" d="M639.1,942.8l293.1,669.7" fill="none" stroke="#000" stroke-linecap="round" stroke-width="5"/>
        <path id="Path_1118" data-name="Path 1118" d="M1015.4,921.6l303.5-187.4" fill="none" stroke="#000" stroke-linecap="round" stroke-width="5"/>
        <path id="Path_1119" data-name="Path 1119" d="M1035.3,977l221.1-134" fill="none" stroke="#000" stroke-linecap="round" stroke-width="5"/>
        <path id="Path_1120" data-name="Path 1120" d="M1119.5,1071.4l221.1-134" fill="none" stroke="#000" stroke-linecap="round" stroke-width="5"/>
        <path id="Path_1121" data-name="Path 1121" d="M709.6,914,919,951.9" fill="none" stroke="#000" stroke-linecap="round" stroke-width="5"/>
        <path id="Path_1122" data-name="Path 1122" d="M737,994.1l249.4,35.3" fill="none" stroke="#000" stroke-linecap="round" stroke-width="5"/>
      </g>
      <g id="Legs">
        <path id="Path_1123" data-name="Path 1123" d="M1589.9,2086.9c2-14-24.5-88.9-28.4-97.4l167.9-47.3,86.9,122.7-44.8,44.2-30.8-36.1c-16.3,10.2-11.4,53.2-7,73.3l-161.2,154.8c-1-1.4-4.5-7.6-11-21.5C1538.2,2209.7,1588,2100.2,1589.9,2086.9Z"/>
        <path id="Path_1124" data-name="Path 1124" d="M1650.9,2100.3l-190.5,53.1c13.6,41.2,37.1,113.1,39.9,137.8,1.4,13.1-14.9,97.1-72.5,179.9-46.1,66.2-40,122.8-31.2,142.8l273.5-129.6c-1.9-20.1,27.2-51.6,42-64.8l21.6,36,76.8-36C1784.5,2313.8,1690.5,2158.7,1650.9,2100.3Z"/>
        <path id="Path_1125" data-name="Path 1125" d="M1506.4,2335.5c-28.9-67.1-87.1-183.9-88.4-114.3C1416.8,2290.9,1476.4,2326.5,1506.4,2335.5Z" fill="none" stroke="#000" stroke-width="5"/>
        <path id="Path_1126" data-name="Path 1126" d="M1501.1,2337.5c-39.7-19.2-111.9-49.3-83.3-15.8C1446.3,2355.3,1485.2,2346.2,1501.1,2337.5Z" fill="none" stroke="#000" stroke-width="5"/>
        <path id="Path_1127" data-name="Path 1127" d="M1356.5,1641.1c38.8-63.7,209.8-89.9,291-96.2l36.4,195.2-136.2,9.5c74.3,52.7,151.2,131.2,177.5,178.9l-147.5,114.4c-18.2-36.7-26.2-50.3-36-64.6-34-49.9-102.4-98.6-139.7-142.8C1364.8,1791.2,1312.1,1714.1,1356.5,1641.1Z" fill="#ff6b6b"/>
        <path id="Path_1128" data-name="Path 1128" d="M1424.2,2015.6c-2.8-136.8,181.8-223.8,274.3-250.2l67.9,200.8c-20.3.4-116.9,3.6-129.9,49.4-5.3,18.6-6.1,49.7,10.4,86.4l-185.6,53C1456.8,2124,1446,2137.3,1424.2,2015.6Z" fill="#ff6b6b"/>
        <path id="Path_1129" data-name="Path 1129" d="M1387.2,1719c-13.2,12.3-39.9,5.1-44.3,0l40.8,69.3Z" fill="#e34545"/>
        <path id="Path_1130" data-name="Path 1130" d="M1736.1,1968.7l-64.4-195.3c2.6,70.5-35.9,243.6-35.9,243.6C1654.8,1982.9,1688.8,1976.7,1736.1,1968.7Z" fill="#e34545"/>
        <path id="Path_1131" data-name="Path 1131" d="M1438.5,1924.4c13.4-17,59.7-75.7,128.8-111.7" fill="none" stroke="#000" stroke-linecap="round" stroke-width="5"/>
        <path id="Path_1132" data-name="Path 1132" d="M1357.4,1741.6c-5.2-5.9-41.1-67.8,19-144.6" fill="none" stroke="#000" stroke-linecap="round" stroke-width="5"/>
        <path id="Path_1133" data-name="Path 1133" d="M1511.8,1724.1a461.714,461.714,0,0,1,73.8,41.2" fill="none" stroke="#000" stroke-linecap="round" stroke-width="5"/>
      </g>
      <g id="Head">
        <path id="Path_1134" data-name="Path 1134" d="M1932.2,891.2c40.9-3,126.2,50.4,146.1,237.2,4.8,70.5,2,69,0,59.5-16.4.7-116.7-9.8-204.7-19.7,0,0-105.9,104.6-138-16.7-10.5,0-99.1-24-85.4-95.2,14.2-74.4,164.6-90.4,170.6-109.3C1850.9,882.9,1923.6,891.2,1932.2,891.2Z"/>
        <path id="Path_1135" data-name="Path 1135" d="M1846.9,1095.4c-54.3-20.9-43.2-106.2-16-138.9,65.9.4,104.9-43.6,103.7-39.7-30.9,105,36.3,134.4,35,138.9,24.5,83.8,39.6,94.2,39.5,94.3-34.7,44.4-81.6,33.8-114.7,20.2l-17.2-75C1872.5,1096.6,1857.9,1099.6,1846.9,1095.4Z" fill="#ff6b6b"/>
        <circle id="Ellipse_201" data-name="Ellipse 201" cx="15.4" cy="15.4" r="15.4" transform="translate(1868.2 1018.8)" fill="#e34545"/>
        <path id="Path_1136" data-name="Path 1136" d="M1826.3,1008.3a15.521,15.521,0,0,1-17.9,12.6,132.307,132.307,0,0,1,2-15.4,91,91,0,0,1,3.8-14.9A15.157,15.157,0,0,1,1826.3,1008.3Z" fill="#e34545"/>
        <path id="Path_1137" data-name="Path 1137" d="M1877.2,1095.2c16.1-5.6,52.7-22.5,72.2-45.2l1.1-1.3c-.4.5-.8.9-1.1,1.3l-64.8,77.1Z" fill="#e34545"/>
        <path id="Path_1138" data-name="Path 1138" d="M1846.2,1032s-14.6-4.9-14.6-12.4c0-4.8,16.5-30.1,16.5-30.1" fill="none" stroke="#000" stroke-linecap="round" stroke-width="5"/>
        <path id="Path_1139" data-name="Path 1139" d="M1949.8,1049.8c-7.2,9.2-29.1,30.6-59.7,43.1" fill="none" stroke="#000" stroke-linecap="round" stroke-width="4.433"/>
        <ellipse id="Ellipse_202" data-name="Ellipse 202" cx="6.6" cy="5.1" rx="6.6" ry="5.1" transform="matrix(0.726, -0.688, 0.688, 0.726, 1875.523, 999.479)"/>
        <ellipse id="Ellipse_203" data-name="Ellipse 203" cx="6.6" cy="5.1" rx="6.6" ry="5.1" transform="translate(1822.847 984.896) rotate(-57.003)"/>
      </g>
      <g id="Hat">
        <path id="Path_1140" data-name="Path 1140" d="M2207.1,676.2,1926.3,890.3c-2.2,4.7-.2,18.6,25.1,36.1s50.6,23.3,60.1,24Z" fill="#165df5"/>
        <path id="Path_1141" data-name="Path 1141" d="M2061.8,847.9l7.8-17.7,7.4,17.7,11.4-4.9-23.1,32.4-3.5-8.3h-23.1l17.2-9.8-10.8-16.7Z" fill="#ffb905"/>
        <path id="Path_1142" data-name="Path 1142" d="M1969.8,877.1l5.4-12.2,5.1,12.2,11.2-5.1-7.4,11.5,4.1,10.1-10.5-3.4-4.7,11.5-3-11.5h-15.9l11.8-6.8-7.4-11.5Z" fill="#ffb905"/>
        <path id="Path_1143" data-name="Path 1143" d="M2130,744l-15.6,2.9,33.1-25.1-5,12.8,6,9.1-10.9-1.2-2.3,12.2Z" fill="#ffb905"/>
      </g>
      <g id="Hands">
        <path id="Path_1144" data-name="Path 1144" d="M2482.6,1762.2c-14.2,1.7-81.6-115.7-113.6-175.3l57.2-59.3c6,13.3,24.1,32.1,30.6,38.1,17.3,15.9,163.8,62.3,160.6,75.7-2.6,10.7-38.2-2.3-55.7-10.1,22.2,10.5,66.3,33.9,64.5,43.6s-49.8-8-73.5-18c22.9,11.2,70.4,34.9,77,40.7l.2.2c8,7.1,10.8,9.5,4.7,15.5-4.9,4.9-60.6-18.9-87.8-31.4,14.6,11.2,45.1,36,50.4,45.1,5.2,9.2-5.6,10.2-11.7,9.6-34-18.4-104.4-54.5-113.4-51.4C2460.7,1689.1,2500.3,1760.1,2482.6,1762.2Z" fill="#ff6b6b"/>
        <path id="Path_1145" data-name="Path 1145" d="M1426,1028.3c0,52.2,19.6,104.8,34.3,126.2l-58.1,67.4c-37.4-37.9-113.2-118.4-117.3-136.5-4.2-18.1,4.3-23.9,9.4-26.1,0-4.1,1.8-17.9,6.9-28.5,4.9-10.3,12.7-5.4,17.7-2.8-1.8-2.5,6.7-22,10.4-26.8,3.8-5,21.4-10.9,21.3-4.2.9-7,6.5-23.7,24.4-23.7,14.9,0,19,34.5,19.2,51.7,1.5-14.9,7.1-66.8,19.1-72.9C1427.6,944.9,1426,960.6,1426,1028.3Z" fill="#ff6b6b"/>
        <path id="Path_1146" data-name="Path 1146" d="M1565.2,698.6c-6.1,0-177.3,287.4-177.3,287.4a66.04,66.04,0,0,1,2.5,8.5c.8,3.7,2,10.1,2,10.1S1565.2,702.4,1565.2,698.6Z"/>
        <path id="Path_1147" data-name="Path 1147" d="M1646.3,564.7l-36.6,55.5" fill="none" stroke="#000" stroke-linecap="round" stroke-width="5"/>
        <path id="Path_1148" data-name="Path 1148" d="M1558.1,552.6l12.4,65.3" fill="none" stroke="#000" stroke-linecap="round" stroke-width="5"/>
        <path id="Path_1149" data-name="Path 1149" d="M1692.3,637.7l-64.3,17" fill="none" stroke="#000" stroke-linecap="round" stroke-width="5"/>
        <path id="Path_1150" data-name="Path 1150" d="M1540.8,679.1l-64.3,17" fill="none" stroke="#000" stroke-linecap="round" stroke-width="5"/>
        <path id="Path_1151" data-name="Path 1151" d="M1591.9,704.6l2.5,66.5" fill="none" stroke="#000" stroke-linecap="round" stroke-width="5"/>
        <path id="Path_1152" data-name="Path 1152" d="M1624.6,689.4l53.8,39.1" fill="none" stroke="#000" stroke-linecap="round" stroke-width="5"/>
        <path id="Path_1153" data-name="Path 1153" d="M1485.2,600.7l53.8,39.1" fill="none" stroke="#000" stroke-linecap="round" stroke-width="5"/>
        <path id="Path_1154" data-name="Path 1154" d="M2527.8,1623.5l-10.2-5.8" fill="none" stroke="#000" stroke-linecap="round" stroke-width="5"/>
        <path id="Path_1155" data-name="Path 1155" d="M1385.1,1055.1c-8.4,12.3-12.3,50.6-5.3,67.7" fill="none" stroke="#000" stroke-linecap="round" stroke-width="5"/>
        <path id="Path_1156" data-name="Path 1156" d="M1361.7,1018.1l3.5,45.8" fill="none" stroke="#000" stroke-linecap="round" stroke-width="5"/>
        <path id="Path_1157" data-name="Path 1157" d="M1338.8,1035.5l3.5,45.8" fill="none" stroke="#000" stroke-linecap="round" stroke-width="5"/>
        <path id="Path_1158" data-name="Path 1158" d="M1315.9,1063.8l3.5,45.8" fill="none" stroke="#000" stroke-linecap="round" stroke-width="5"/>
        <path id="Path_1159" data-name="Path 1159" d="M2519.7,1645.1l-10.2-5.8" fill="none" stroke="#000" stroke-linecap="round" stroke-width="5"/>
        <path id="Path_1160" data-name="Path 1160" d="M2513.6,1665.4l-10.2-5.8" fill="none" stroke="#000" stroke-linecap="round" stroke-width="5"/>
      </g>
      <g id="Body">
        <path id="Path_1161" data-name="Path 1161" d="M1889.1,1150.8l-45.1,31.4c-29,18.9-62.8,59.8-161.1,75.1s-189.3-64.6-222.5-106.5l-92.8,106.5c7.7,12.7,56.5,48.6,189.7,90.1s263-6.4,311.2-35.5c4.4,30.6,35.5,154.7,50.5,212.9-65.5-19.7-220.2-16.4-289.4-12.3l79.2,487.3c117.8-37.3,373.5-138.4,453.2-244.3s33.2-294.4,0-375.4c49.1,29.5,130,212.8,176,288.3l113.4-109.5c-36.4-50.5-135.7-179.9-241.6-293.5s-183.4-130.1-208.8-124.2C1953,1167.5,1906.4,1158.5,1889.1,1150.8Z" fill="#165df5"/>
        <path id="Path_1162" data-name="Path 1162" d="M1623.6,1467.8l77.8,472.3" fill="none" stroke="#000" stroke-linecap="round" stroke-width="5"/>
        <path id="Path_1163" data-name="Path 1163" d="M1664.8,1469.9l63.2,360.3" fill="none" stroke="#000" stroke-linecap="round" stroke-width="5"/>
        <path id="Path_1164" data-name="Path 1164" d="M2138.1,1323.2a873.606,873.606,0,0,1,64.7,146.7" fill="none" stroke="#000" stroke-linecap="round" stroke-width="5"/>
        <path id="Path_1165" data-name="Path 1165" d="M1864.8,1283.4c-.7,35.7,0,87.6,11.7,142.1" fill="none" stroke="#000" stroke-linecap="round" stroke-width="5"/>
        <path id="Path_1166" data-name="Path 1166" d="M2151.6,1270.6a398.105,398.105,0,0,0,9.4,73.4" fill="none" stroke="#000" stroke-linecap="round" stroke-width="5"/>
        <path id="Path_1167" data-name="Path 1167" d="M2220,1575.8c6.6,66.4-11.4,231.3-188.8,309.2" fill="none" stroke="#000" stroke-linecap="round" stroke-width="5"/>
        <path id="Path_1168" data-name="Path 1168" d="M1475.9,1134.3l-86.6,98.1" fill="none" stroke="#000" stroke-linecap="round" stroke-width="5"/>
        <path id="Path_1169" data-name="Path 1169" d="M2469.1,1540.9l-94.2,90.9" fill="none" stroke="#000" stroke-linecap="round" stroke-width="5"/>
        <path id="Path_1170" data-name="Path 1170" d="M2436.5,1530.4l-94.1,90.9" fill="none" stroke="#000" stroke-linecap="round" stroke-width="5"/>
        <path id="Path_1171" data-name="Path 1171" d="M1493.4,1161.2l-84.1,100.3" fill="none" stroke="#000" stroke-linecap="round" stroke-width="5"/>
        <path id="Path_1172" data-name="Path 1172" d="M1899.6,1156.2c17.7,3.9,60.9,7.3,91.8-9.7" fill="none" stroke="#000" stroke-linecap="round" stroke-width="5"/>
        <g id="Stars">
          <path id="Path_1173" data-name="Path 1173" d="M2035.4,1285l19.3-43.4,18.1,43.4,39.8-18.1-26.5,41,14.5,36.2-37.4-12.1-16.9,41-10.9-41h-56.7l42.2-24.1-26.5-41Z" fill="#ffb905"/>
          <path id="Path_1174" data-name="Path 1174" d="M2140.9,1591.7l9.7-21.7,9,21.7,19.9-9-13.3,20.5,7.2,18.1-18.7-6-8.4,20.5-5.4-20.5h-28.3l21.1-12.1-13.3-20.5Z" fill="#ffb905"/>
          <path id="Path_1175" data-name="Path 1175" d="M1943,1687.4l7.8-17.7,7.4,17.7,16.2-7.3-10.8,16.7,5.9,14.7-15.2-4.9-6.9,16.7-4.4-16.7h-23l17.2-9.8-10.8-16.7Z" fill="#ffb905"/>
          <path id="Path_1176" data-name="Path 1176" d="M1853.8,1247.6l7.8-17.7,7.3,17.7,16.2-7.3-10.8,16.7,5.9,14.7-15.2-4.9-6.9,16.7-4.4-16.7h-23l17.2-9.8-10.8-16.7Z" fill="#ffb905"/>
          <path id="Path_1177" data-name="Path 1177" d="M2350.9,1526.1l9.6-21.7,9,21.7,19.8-9-13.2,20.4,7.2,18-18.6-6-8.4,20.5-5.4-20.5h-28.3l21.1-12-13.2-20.4Z" fill="#ffb905"/>
          <path id="Path_1178" data-name="Path 1178" d="M1598.8,1249s10.7,3.8,17.8,5.4c5.7,1.3,9.5,2.1,15.2,2.9,4.9.7,13.1,1.5,13.1,1.5l-7,5.6,5.9,14.7-15.2-4.9-6.9,16.7-4.4-16.7h-23l17.2-9.8Z" fill="#ffb905"/>
          <path id="Path_1179" data-name="Path 1179" d="M1714.1,1560.7l13.1-29.5,12.3,29.5,27-12.3-18,27.8,9.8,24.5-25.4-8.2-11.5,27.8-7.4-27.8h-38.4l28.6-16.4-18-27.8Z" fill="#ffb905"/>
          <path id="Path_1180" data-name="Path 1180" d="M1905.1,1905.7l16.5-37.1,15.5,37.1,37.3-14.2s-48.6,26.5-117.8,54.5c13.9-8.5,36.1-20.6,36.1-20.6l-22.7-35.1Z" fill="#ffb905"/>
        </g>
      </g>
    </g>
  </g>
</svg>
