<svg xmlns="http://www.w3.org/2000/svg" width="408.827" height="444.961" viewBox="0 0 408.827 444.961">
  <g id="_96" data-name="96" transform="translate(-116.981 -102.477)">
    <path id="Path_1097" data-name="Path 1097" d="M651.255,917.233c-9.351-3.74-17.7-4.316-17.7-43.878-16.112,3.6-32.224,6.474-48.625,8.632.863,24.456,1.439,48.48,1.439,48.48l72.793.147C659.167,930.467,660.75,920.973,651.255,917.233Z" transform="translate(-276.79 -455.968)" fill="#fff"/>
    <path id="Path_1098" data-name="Path 1098" d="M658.719,929.537l-74.807-.143v-1.005c0-.29-.575-24.17-1.438-48.483V878.9l1.007-.144c16.688-2.3,32.944-5.179,48.481-8.632l1.295-.288v1.295c0,36.4,7.049,39.13,15.393,42.295.576.144,1.151.432,1.583.576,10.214,4.028,8.632,14.388,8.632,14.531Zm-72.793-2.3,70.779.143a11.133,11.133,0,0,0-7.481-11.221,10.942,10.942,0,0,0-1.583-.575c-8.919-3.309-16.544-6.33-16.688-42.871-14.962,3.309-30.5,6.042-46.467,8.2C585.35,901.917,585.926,922.489,585.926,927.237Z" transform="translate(-275.334 -453.886)" fill="#030047"/>
    <path id="Path_1099" data-name="Path 1099" d="M526.436,720.768c-.144-3.309-.144-6.906-.144-10.79.288-42.871,13.81-68.046-27.046-85.453-11.8-5.035-26.183-13.091-47.33-19.277-22.586-6.617-16.688-4.316-16.688-4.316l-31.649,22.874c66.464,45.316,61.572,41.863,72.218,49.056-1.726,10.646,1.583,31.505,2.3,52.365C494.067,724.077,510.323,722.782,526.436,720.768Z" transform="translate(-169.52 -294.603)" fill="#fff"/>
    <path id="Path_1100" data-name="Path 1100" d="M473.887,724.465v-1.151c-.288-8.056-.863-15.825-1.439-23.45-1.007-11.653-1.726-21.723-.863-28.484-6.761-4.6-7.193-4.892-27.19-18.414l-45.748-31.218,31.793-22.874V598.3c.431-1.294.431-1.438,18.7,4.028,15.681,4.6,27.765,10.214,37.548,14.817,3.6,1.726,6.905,3.165,10.07,4.6,32.8,13.954,31.362,32.8,29.06,61.285-.576,7.481-1.295,15.968-1.295,25.176,0,3.884,0,7.481.144,10.789V720l-1.007.144c-15.537,1.87-31.505,3.309-48.625,4.316ZM402.245,621.892,445.4,651.239c20.428,13.955,20.428,13.955,27.765,18.846l.576.432-.144.719c-1.007,6.474-.144,16.688.719,28.628.576,7.337,1.151,14.818,1.439,22.442,16.4-1.007,31.505-2.445,46.467-4.172-.144-3.021-.144-6.33-.144-9.926,0-9.207.719-17.839,1.295-25.319,2.158-27.621,3.74-45.748-27.765-59.127-3.165-1.3-6.474-2.877-10.07-4.6-9.639-4.46-21.723-10.07-37.26-14.674-9.926-2.877-14.1-4.028-15.824-4.46Z" transform="translate(-166.603 -292.833)" fill="#030047"/>
    <path id="Path_1101" data-name="Path 1101" d="M464.65,683.159c1.582-2.878,27.046-46.467,34.239-58.983-10.933-6.905-26.183-13.091-47.33-19.277-22.586-6.618-16.688-4.316-16.688-4.316l-31.65,22.874C439.618,664.313,458.032,678.7,464.65,683.159Z" transform="translate(-169.308 -294.396)" fill="#165df5"/>
    <path id="Path_1102" data-name="Path 1102" d="M462.585,683.177l-1.007-.719c-7.912-5.323-26.327-20.14-61.716-59.99L399,621.6l31.649-22.73V598.3c.432-1.294.432-1.438,18.7,4.028,21.435,6.33,36.541,12.516,47.618,19.421l.863.575-.576.863c-2.445,4.316-7.049,12.085-12.084,20.716-9.495,16.112-21.148,36.253-22.155,38.123Zm-60.421-61.141c34.239,38.411,52.509,53.084,59.558,57.976,2.59-4.6,12.66-21.867,21.579-37.116,4.747-8.056,9.063-15.393,11.653-19.853-10.79-6.617-25.607-12.516-46.18-18.7-9.926-2.877-14.1-4.028-15.824-4.46Z" transform="translate(-166.811 -292.833)" fill="#5f5fff"/>
    <path id="Path_1103" data-name="Path 1103" d="M635.832,929.7c-16.4,2.014-32.944,3.453-49.488,4.46.576,16.544.863,29.49.863,29.49L660,963.8a12.5,12.5,0,0,0-8.056-13.381C645.039,947.686,638.565,946.679,635.832,929.7Z" transform="translate(-277.624 -489.297)" fill="#030047"/>
    <path id="Path_1104" data-name="Path 1104" d="M707.669,947.105l-12.228,9.351c-.719.576,0,1.726.719,1.3l12.228-9.351C709.108,947.825,708.388,946.53,707.669,947.105Z" transform="translate(-341.978 -499.505)" fill="#fff"/>
    <path id="Path_1105" data-name="Path 1105" d="M724.277,958.33a28.5,28.5,0,0,0-7.049,8.919c-.431.863.863,1.582,1.294.719a28.6,28.6,0,0,1,6.905-8.632C726,958.761,725,957.755,724.277,958.33Z" transform="translate(-354.989 -506.128)" fill="#fff"/>
    <path id="Path_1106" data-name="Path 1106" d="M260.45,610.1c-5.755,21.867,1.007,80.993-13.955,111.06-8.632,17.264-46.467,84.445-46.467,84.445l62.292,37.55a12.517,12.517,0,0,0,0-15.54c-6.186-8.2-13.091-12.946,8.488-48.478,30.355-49.921,41.719-75.672,41.719-128.469,0-23.449-2.014-44.6-2.014-44.6Z" transform="translate(-49.121 -297.87)" fill="#fff"/>
    <path id="Path_1107" data-name="Path 1107" d="M260.525,842.989l-64.018-38.555.576-.862c.431-.719,37.979-67.184,46.467-84.3,9.207-18.414,10.071-49.056,10.79-73.513.432-15.537.863-28.916,3.021-37.26l.144-.719h.719l51.07-4.172.144,1.007c0,.144,2.014,21.435,2.014,44.74,0,51.646-10.5,77.541-41.864,129.043-20,32.8-15.1,38.841-9.638,45.749a12.341,12.341,0,0,1,1.151,1.438c6.617,8.775,0,16.831,0,16.831Zm-61.141-39.417,60.566,36.541a11.063,11.063,0,0,0-.576-13.379,12.731,12.731,0,0,1-1.151-1.442c-6.042-7.623-11.221-14.241,9.495-48.192,31.218-51.214,41.576-76.821,41.576-127.892,0-20.284-1.582-38.986-2.014-43.446l-48.193,4.028c-2.014,8.2-2.3,21.148-2.733,36.109-.719,26.039-1.583,55.53-10.934,74.375C237.507,736.1,203.988,795.516,199.384,803.572Z" transform="translate(-47.039 -296.413)" fill="#030047"/>
    <path id="Path_1108" data-name="Path 1108" d="M296.376,788.488c1.583-2.876,3.309-6.042,5.467-9.351,30.355-49.918,41.72-75.669,41.72-128.466,0-23.449-2.014-44.6-2.014-44.6l-50.064,4.172c-5.754,21.867,1.007,80.993-13.955,111.06-4.172,8.2-14.817,27.909-25.031,46.037C266.885,774.68,281.559,781.87,296.376,788.488Z" transform="translate(-80.157 -297.873)" fill="#fff"/>
    <path id="Path_1109" data-name="Path 1109" d="M294.726,788.258l-.863-.429c-14.242-6.475-28.628-13.383-43.877-21.291l-1.007-.576.575-1.008c13.235-23.593,21.579-39.13,25.032-46.035,9.207-18.414,10.07-49.057,10.79-73.513.431-15.537.863-28.916,3.021-37.26l.144-.719h.719l51.07-4.172.144,1.007c0,.144,2.014,21.435,2.014,44.741,0,51.646-10.5,77.541-41.863,129.043-2.014,3.309-3.884,6.475-5.467,9.351ZM251.856,765.1c14.53,7.482,28.34,14.243,42.007,20.285,1.439-2.733,3.165-5.613,5.035-8.489,31.218-51.214,41.576-76.821,41.576-127.891,0-20.284-1.583-38.986-2.014-43.446l-48.193,4.028c-2.014,8.2-2.3,21.147-2.733,36.109-.719,26.039-1.582,55.53-10.933,74.376C273,726.686,264.8,741.935,251.856,765.1Z" transform="translate(-78.075 -296.205)" fill="#030047"/>
    <path id="Path_1110" data-name="Path 1110" d="M394.379,706.278c9.063-33.376-5.754-100.559-5.754-100.559l-50.064,4.172c-4.315,16.688-1.582,54.955-6.474,85.6C332.951,695.632,387.043,705.7,394.379,706.278Z" transform="translate(-127.234 -297.663)" fill="#165df5"/>
    <path id="Path_1111" data-name="Path 1111" d="M393.367,705.97H392.5c-5.9-.431-40.856-6.761-61.284-10.646l-2.3-.431.144-1.007c2.445-15.393,3.021-32.944,3.452-48.481s.863-28.916,3.021-37.26l.144-.719h.719l50.926-4.172.144.863c.575,2.733,14.817,67.9,5.754,100.99Zm-62-12.8h.144c32.657,6.042,54.236,9.782,60.134,10.5,7.769-30.786-4.172-90.057-5.9-98.257L337.4,609.44c-2.014,8.2-2.3,21.147-2.733,36.109C334.24,660.654,333.808,677.774,331.363,693.167Z" transform="translate(-125.358 -296.205)" fill="#5f5fff"/>
    <path id="Path_1112" data-name="Path 1112" d="M258.95,1053.058c-15.105-6.761-29.923-13.955-44.741-21.578-8.056,14.531-14.53,25.753-14.53,25.753l62.291,37.546a12.511,12.511,0,0,0,0-15.535C257.511,1073.2,252.62,1068.883,258.95,1053.058Z" transform="translate(-48.915 -549.497)" fill="#030047"/>
    <path id="Path_1113" data-name="Path 1113" d="M328.437,1108.585l-15.249,1.724c-.863.147-.863,1.585,0,1.442l15.249-1.728C329.3,1109.88,329.3,1108.442,328.437,1108.585Z" transform="translate(-115.671 -595.098)" fill="#fff"/>
    <path id="Path_1114" data-name="Path 1114" d="M337.284,1123.024a29.113,29.113,0,0,0-10.646,4.028c-.863.433,0,1.728.719,1.3a29.1,29.1,0,0,1,10.358-3.885C338.578,1124.176,338.146,1122.881,337.284,1123.024Z" transform="translate(-123.796 -603.638)" fill="#fff"/>
    <path id="Path_1115" data-name="Path 1115" d="M485.02,714.34a1.135,1.135,0,0,1-1.151-1.151,133.579,133.579,0,0,1,.719-14.242l.144-.719.719-.144a31.556,31.556,0,0,0,11.077-5.323,1.124,1.124,0,0,1,1.439,1.726,33.629,33.629,0,0,1-11.221,5.611c-.144,1.87-.575,6.905-.575,13.235A1.221,1.221,0,0,1,485.02,714.34Z" transform="translate(-217.011 -349.029)" fill="#fff"/>
    <path id="Path_1116" data-name="Path 1116" d="M687.118,741.8a6.743,6.743,0,0,1-5.323-5.467c-.144-.863-1.582-.575-1.438.432a7.964,7.964,0,0,0,6.33,6.474C687.694,743.239,688.126,741.944,687.118,741.8Z" transform="translate(-333.226 -374.618)" fill="#030047"/>
    <path id="Path_1117" data-name="Path 1117" d="M423.421,876.683a.741.741,0,1,0-1.3-.719,9.353,9.353,0,0,0,0,9.495c.432.863,1.726.144,1.3-.719A8.056,8.056,0,0,1,423.421,876.683Z" transform="translate(-179.725 -457.28)" fill="#030047"/>
    <path id="Path_1118" data-name="Path 1118" d="M600.529,1087.353a1.132,1.132,0,0,1-1.151-1.148V1015.28H670.3a1.136,1.136,0,0,1,1.151,1.152,1.06,1.06,0,0,1-1.151,1.152H601.536v68.764C601.68,1086.777,601.1,1087.353,600.529,1087.353Z" transform="translate(-285.333 -539.915)" fill="#165df5"/>
    <path id="Path_1119" data-name="Path 1119" d="M771.327,916.56a1.136,1.136,0,0,1-1.151-1.152V844.484h48.769a1.135,1.135,0,0,1,1.151,1.151,1.059,1.059,0,0,1-1.151,1.151H772.334v68.765C772.478,915.984,772.046,916.56,771.327,916.56Z" transform="translate(-386.359 -438.891)" fill="#165df5"/>
    <path id="Path_1120" data-name="Path 1120" d="M923.521,846.435H910.43a1.134,1.134,0,0,1-1.151-1.151,1.059,1.059,0,0,1,1.151-1.151h13.091a1.151,1.151,0,1,1,0,2.3Z" transform="translate(-468.637 -438.683)" fill="#5f5fff"/>
    <path id="Path_1121" data-name="Path 1121" d="M942.475,786.443a1.135,1.135,0,0,1-1.151-1.151V743.86a1.135,1.135,0,0,1,1.151-1.151,1.058,1.058,0,0,1,1.151,1.151v41.432C943.482,786.011,943.05,786.443,942.475,786.443Z" transform="translate(-487.591 -378.692)" fill="#165df5"/>
    <path id="Path_1122" data-name="Path 1122" d="M942.475,694.692a1.135,1.135,0,0,1-1.151-1.151V673.688h26.9a1.132,1.132,0,0,1,1.148,1.151,1.057,1.057,0,0,1-1.148,1.151H943.482v17.695A.983.983,0,0,1,942.475,694.692Z" transform="translate(-487.591 -337.866)" fill="#165df5"/>
    <path id="Path_1123" data-name="Path 1123" d="M1095.362,675.638h-12.374a1.135,1.135,0,0,1-1.148-1.151,1.057,1.057,0,0,1,1.148-1.151h12.374a1.151,1.151,0,1,1,0,2.3Z" transform="translate(-570.706 -337.658)" fill="#165df5"/>
    <path id="Path_1124" data-name="Path 1124" d="M868.77,534.325l21.579,33.52s14.386-14.674,4.316-28.341S868.77,534.325,868.77,534.325Z" transform="translate(-444.676 -253.894)" fill="#fff"/>
    <path id="Path_1125" data-name="Path 1125" d="M888.124,567.858,865.25,532.181l1.007-.576c.144-.144,16.831-8.919,27.333,5.467s-4.316,29.635-4.46,29.779Zm-19.853-34.814,20.14,31.361c2.877-3.452,11.365-14.961,3.309-26.039S871.868,531.462,868.271,533.044Z" transform="translate(-442.594 -252.181)" fill="#030047"/>
    <path id="Path_1126" data-name="Path 1126" d="M870.59,597.372a6.042,6.042,0,1,0-6.042-6.042A6.042,6.042,0,0,0,870.59,597.372Z" transform="translate(-442.179 -285.578)" fill="#165df5"/>
    <path id="Path_1127" data-name="Path 1127" d="M869.137,597.272a7.049,7.049,0,1,1,7.049-7.049A7.06,7.06,0,0,1,869.137,597.272Zm0-12.084a4.891,4.891,0,1,0,4.891,4.891A4.851,4.851,0,0,0,869.137,585.188Z" transform="translate(-440.724 -284.328)" fill="#165df5"/>
    <path id="Path_1128" data-name="Path 1128" d="M735.211,792.288a1.21,1.21,0,0,1-1.007-.576l-8.919-19.565a1.1,1.1,0,1,1,2.014-.863l8.919,19.565a1.051,1.051,0,0,1-.576,1.439C735.5,792.144,735.355,792.288,735.211,792.288Z" transform="translate(-359.739 -395.186)" fill="#030047"/>
    <path id="Path_1129" data-name="Path 1129" d="M713.257,794.318a1.211,1.211,0,0,1-1.007-.576,1.051,1.051,0,0,1,.576-1.438l19.565-8.919a1.1,1.1,0,1,1,.863,2.014l-19.565,8.919Z" transform="translate(-352.029 -402.684)" fill="#030047"/>
    <path id="Path_1130" data-name="Path 1130" d="M516.111,1008.94l-6.186,25.029,23.018-8.489Z" transform="translate(-232.423 -536.165)" fill="#165df5"/>
    <path id="Path_1131" data-name="Path 1131" d="M506.051,1032.781l7.193-28.771,19.421,19.131Zm8.344-24.6-5.323,21.149,19.565-7.194Z" transform="translate(-230.131 -533.249)" fill="#165df5"/>
    <path id="Path_1132" data-name="Path 1132" d="M205.355,716.484a1.1,1.1,0,0,1-.719-.287L196,708.571a1.124,1.124,0,0,1,1.439-1.727l8.632,7.625a1.29,1.29,0,0,1,.144,1.583A1.026,1.026,0,0,1,205.355,716.484Z" transform="translate(-46.537 -357.36)" fill="#030047"/>
    <path id="Path_1133" data-name="Path 1133" d="M118.105,847.682a1.245,1.245,0,0,1-.863-.432,1.139,1.139,0,0,1,.144-1.583l13.379-11.077a1.124,1.124,0,1,1,1.439,1.726l-13.379,11.077C118.537,847.538,118.393,847.682,118.105,847.682Z" transform="translate(0 -432.885)" fill="#030047"/>
    <path id="Path_1134" data-name="Path 1134" d="M501.129,973.8H500.7l-11.94-4.316a1.137,1.137,0,1,1,.719-2.158l11.941,4.316a1.187,1.187,0,0,1,.719,1.438A1.081,1.081,0,0,1,501.129,973.8Z" transform="translate(-219.455 -511.53)" fill="#030047"/>
    <path id="Path_1135" data-name="Path 1135" d="M496.949,991.235h-.288l-11.077-2.877a1.048,1.048,0,1,1,.576-2.014l11.077,2.878a1.029,1.029,0,0,1,.719,1.294A1.082,1.082,0,0,1,496.949,991.235Z" transform="translate(-217.578 -522.778)" fill="#030047"/>
    <path id="Path_1136" data-name="Path 1136" d="M641.986,1064.313l44.741-24.743v55.676Z" transform="translate(-310.536 -554.282)" fill="#165df5"/>
    <path id="Path_1137" data-name="Path 1137" d="M684.961,1094.764l-47.906-33.089,47.906-26.324Zm-43.878-32.942,41.576,28.771V1038.8Z" transform="translate(-307.619 -551.786)" fill="#165df5"/>
    <path id="Path_1138" data-name="Path 1138" d="M157.107,1144.26l-9.468,5.466,5.467,9.469,9.468-5.466Z" transform="translate(-18.134 -616.206)" fill="#fff"/>
    <path id="Path_1139" data-name="Path 1139" d="M150.652,1158.273l-6.618-11.365,11.365-6.618,6.617,11.365Zm-3.6-10.5,4.46,7.627,7.624-4.461-4.46-7.627Z" transform="translate(-16.001 -613.858)" fill="#030047"/>
    <path id="Path_1140" data-name="Path 1140" d="M680.348,211.724H590.292a27.168,27.168,0,0,1-27.189-27.19V170.868a27.168,27.168,0,0,1,27.189-27.19h90.057a27.168,27.168,0,0,1,27.19,27.19v13.667A27.26,27.26,0,0,1,680.348,211.724Z" transform="translate(-263.876 -24.37)" fill="#fff"/>
    <path id="Path_1141" data-name="Path 1141" d="M678.893,211.275H588.836a28.243,28.243,0,0,1-28.2-28.2V169.411a28.243,28.243,0,0,1,28.2-28.2h90.057a28.242,28.242,0,0,1,28.2,28.2v13.667A28.242,28.242,0,0,1,678.893,211.275Zm-89.913-67.9a26.032,26.032,0,0,0-26.039,26.039v13.667a26.032,26.032,0,0,0,26.039,26.039h90.057a26.032,26.032,0,0,0,26.039-26.039V169.411a26.032,26.032,0,0,0-26.039-26.039Z" transform="translate(-262.42 -22.913)" fill="#030047"/>
    <path id="Path_1142" data-name="Path 1142" d="M671.324,199.863H647.011a1.135,1.135,0,0,1-1.151-1.151,1.059,1.059,0,0,1,1.151-1.151h24.312a1.151,1.151,0,1,1,0,2.3Z" transform="translate(-312.827 -56.241)" fill="#030047"/>
    <path id="Path_1143" data-name="Path 1143" d="M674.057,183.314H647.011a1.135,1.135,0,0,1-1.151-1.151,1.059,1.059,0,0,1,1.151-1.151h27.046a1.151,1.151,0,0,1,0,2.3Z" transform="translate(-312.827 -46.453)" fill="#030047"/>
    <path id="Path_1144" data-name="Path 1144" d="M592.346,113.067a3.884,3.884,0,1,0-3.884-3.884A3.884,3.884,0,0,0,592.346,113.067Z" transform="translate(-278.877 -1.669)" fill="#165df5"/>
    <path id="Path_1145" data-name="Path 1145" d="M590.676,112.547a5.035,5.035,0,1,1,5.035-5.035A5.1,5.1,0,0,1,590.676,112.547Zm0-7.912a2.877,2.877,0,1,0,2.877,2.877A2.885,2.885,0,0,0,590.676,104.635Z" transform="translate(-277.208 0)" fill="#165df5"/>
    <path id="Path_1146" data-name="Path 1146" d="M633.194,113.067a3.884,3.884,0,1,0-3.884-3.884A3.884,3.884,0,0,0,633.194,113.067Z" transform="translate(-303.038 -1.669)" fill="#165df5"/>
    <path id="Path_1147" data-name="Path 1147" d="M631.526,112.547a5.035,5.035,0,1,1,5.035-5.035A5.1,5.1,0,0,1,631.526,112.547Zm0-7.912a2.877,2.877,0,1,0,2.877,2.877A2.886,2.886,0,0,0,631.526,104.635Z" transform="translate(-301.371 0)" fill="#165df5"/>
    <path id="Path_1148" data-name="Path 1148" d="M674.052,113.067a3.884,3.884,0,1,0-3.884-3.884A3.884,3.884,0,0,0,674.052,113.067Z" transform="translate(-327.205 -1.669)" fill="#165df5"/>
    <path id="Path_1149" data-name="Path 1149" d="M672.381,112.547a5.035,5.035,0,1,1,5.035-5.035A5.1,5.1,0,0,1,672.381,112.547Zm0-7.912a2.877,2.877,0,1,0,2.877,2.877A2.885,2.885,0,0,0,672.381,104.635Z" transform="translate(-325.536 0)" fill="#165df5"/>
    <path id="Path_1150" data-name="Path 1150" d="M505.251,314.456c26.9,14.53,37.116,25.176,47.186,15.969,19.421-17.7,9.783-45.316,22.73-67.039,6.33-10.646,9.926-14.242,11.8-10.5s-4.46,16.544-4.46,16.544,17.263-1.007,16.256,13.379a30.1,30.1,0,0,1-2.446,9.783S594.3,361.93,559.63,370.562s-59.558-21.148-59.558-21.148Z" transform="translate(-226.595 -88.116)" fill="#fff"/>
    <path id="Path_1151" data-name="Path 1151" d="M545.444,371.684c-28.2,0-47.762-22.874-47.906-23.162l-.288-.431,5.467-36.828,1.295.719c6.33,3.453,11.653,6.474,16.257,9.351,15.393,9.207,22.442,13.379,29.635,6.762,10.789-9.783,12.372-22.442,14.1-35.965,1.295-10.358,2.733-21.148,8.488-30.786,5.467-9.207,8.344-12.516,10.933-12.372,1.151,0,2.014.719,2.733,2.014,1.726,3.453-1.87,12.084-3.74,15.969,2.877.144,8.631.863,12.372,4.6,2.446,2.446,3.6,5.9,3.309,10.07a29.382,29.382,0,0,1-2.446,10.07c-.144,5.179-3.021,70.2-37.4,78.692A67.791,67.791,0,0,1,545.444,371.684Zm-45.891-24.169c3.021,3.309,26.614,28.341,58.263,20.572,33.52-8.344,35.821-76.246,35.821-76.965v-.288l.144-.144a26.205,26.205,0,0,0,2.3-9.351A10.053,10.053,0,0,0,593.35,273c-4.316-4.315-12.372-3.884-12.372-3.884l-1.87.144.863-1.726c2.3-4.747,5.61-13.235,4.46-15.681-.144-.432-.432-.863-.863-.863-1.007,0-3.453,2.014-9.063,11.365-5.467,9.351-6.905,19.853-8.2,30.067-1.726,13.235-3.453,27.046-14.818,37.26-8.344,7.624-16.831,2.589-32.225-6.474-4.315-2.59-9.207-5.467-14.817-8.488Z" transform="translate(-224.926 -86.648)" fill="#030047"/>
    <path id="Path_1152" data-name="Path 1152" d="M536.756,423.235c-7.337-3.021-16.976-9.783-31.505-17.551l-5.179,34.958A75.375,75.375,0,0,0,524.1,458.337C528.125,446.54,532.584,434.887,536.756,423.235Z" transform="translate(-226.595 -179.344)" fill="#fff"/>
    <path id="Path_1153" data-name="Path 1153" d="M523.145,457.281l-1.151-.432a73.732,73.732,0,0,1-24.456-17.983l-.288-.431,5.467-36.972,1.295.719c6.33,3.453,11.509,6.474,16.256,9.351,6.186,3.6,11.077,6.474,15.105,8.2l1.007.432-.288,1.007c-1.439,4.028-3.021,8.2-4.46,12.228-2.733,7.481-5.611,15.249-8.2,22.874Zm-23.593-19.565a76.139,76.139,0,0,0,22.3,16.544c2.446-7.337,5.179-14.674,7.768-21.723,1.439-3.74,2.734-7.481,4.172-11.221-4.028-1.726-8.631-4.6-14.53-7.912-4.316-2.59-9.207-5.467-14.818-8.488Z" transform="translate(-224.926 -176.848)" fill="#030047"/>
    <path id="Path_1154" data-name="Path 1154" d="M684.367,315.159c1.439-2.877,4.172-8.056,1.295-10.646-3.021-2.589-5.611,1.726-6.905,3.885-.576.719.719,1.438,1.294.719.432-.576.863-1.295,1.3-2.014,2.877-3.453,4.747.576,3.884,2.446,0,1.726-1.438,3.884-2.158,5.323a.89.89,0,0,0,.288,1.007c3.453,2.59,2.877,6.905,2.3,10.646-.144.863,1.295,1.295,1.438.431C687.532,322.5,687.819,318.181,684.367,315.159Z" transform="translate(-332.2 -119.028)" fill="#030047"/>
    <path id="Path_1155" data-name="Path 1155" d="M708.012,316.951c-2.014,0-3.309,0-4.028-2.589a15.5,15.5,0,0,1,0-2.59,46.821,46.821,0,0,1,.431-6.33c.144-.863-1.295-.863-1.439,0-.288,3.021-1.294,7.481-.144,10.5.863,2.158,3.165,2.446,5.179,2.446A.723.723,0,0,0,708.012,316.951Z" transform="translate(-346.207 -119.67)" fill="#030047"/>
    <path id="Path_1156" data-name="Path 1156" d="M725.64,323.436c-6.33,1.007-3.453-9.063-3.021-12.372.144-.863-1.295-1.295-1.439-.431-.575,4.46-3.6,15.537,4.748,14.242C726.935,324.731,726.5,323.292,725.64,323.436Z" transform="translate(-356.785 -122.844)" fill="#030047"/>
    <path id="Path_1157" data-name="Path 1157" d="M694.031,249.877a9.783,9.783,0,1,0-9.783-9.783A9.783,9.783,0,0,0,694.031,249.877Z" transform="translate(-335.533 -75.613)" fill="#165df5"/>
    <path id="Path_1158" data-name="Path 1158" d="M722.619,250.573H646.661a1.135,1.135,0,0,1-1.151-1.151,1.059,1.059,0,0,1,1.151-1.151h75.958a1.151,1.151,0,0,1,0,2.3Z" transform="translate(-312.62 -86.236)" fill="#165df5"/>
    <path id="Path_1159" data-name="Path 1159" d="M740.035,200.391a.866.866,0,0,1-.576-.144.9.9,0,0,1-.288-1.439l7.912-12.947a1.037,1.037,0,0,1,1.726,1.151L740.9,199.959A.87.87,0,0,1,740.035,200.391Z" transform="translate(-367.872 -49.002)" fill="#165df5"/>
    <path id="Path_1160" data-name="Path 1160" d="M748.287,225.823a1.025,1.025,0,0,1-.863-.432,1.116,1.116,0,0,1,.287-1.439l9.351-6.186a1.037,1.037,0,0,1,1.151,1.726l-9.351,6.186C748.718,225.679,748.43,225.823,748.287,225.823Z" transform="translate(-372.812 -68.104)" fill="#165df5"/>
    <path id="Path_1161" data-name="Path 1161" d="M384.21,291a9.138,9.138,0,0,0-.863,2.59,13.759,13.759,0,0,0-9.783,10.5,16.609,16.609,0,0,0-.144,4.6,17.647,17.647,0,0,0-6.905,7.337c-2.446,4.891-.288,11.365,3.884,14.817a12.283,12.283,0,0,0,2.446,8.919,10.808,10.808,0,0,0,2.733,2.446,9.13,9.13,0,0,0,6.617,4.172c7.625,1.439,16.112-4.46,21.148-9.638a31.535,31.535,0,0,0,6.617-10.646,8.559,8.559,0,0,0,3.74-2.3c6.33-4.46,10.79-14.386,3.453-19.133a6.272,6.272,0,0,0-3.021-3.6q-2.59-2.158-4.747-1.726a11.645,11.645,0,0,0,4.891-3.021,54.936,54.936,0,0,0,2.158-9.639,6.143,6.143,0,0,1,3.165-4.891C412.119,275.172,393.993,273.014,384.21,291Z" transform="translate(-146.988 -103.213)" fill="#030047"/>
    <path id="Path_1162" data-name="Path 1162" d="M419.065,486.273c-28.628,5.322-80.993,1.438-80.993,1.438s.144-32.369,8.056-63.155c7.193-27.909,22.011-38.555,36.972-39.418a40.5,40.5,0,0,1,17.407,3.021,27.461,27.461,0,0,1,8.775,5.323c13.955,12.372,9.926,35.678,5.467,47.906C409.715,455.631,419.065,486.273,419.065,486.273Z" transform="translate(-130.773 -167.143)" fill="#ffcc3e"/>
    <path id="Path_1163" data-name="Path 1163" d="M474.834,393.483c-6.186,4.891-16.4,7.193-26.183-8.344a40.5,40.5,0,0,1,17.407,3.021A28.076,28.076,0,0,1,474.834,393.483Z" transform="translate(-196.18 -167.143)" fill="#ff3e6c"/>
    <path id="Path_1164" data-name="Path 1164" d="M521.673,471.742h-.288a1.029,1.029,0,0,1-.719-1.294c0-.144,4.172-16.544-1.438-26.9a1.062,1.062,0,1,1,1.87-1.007c6.042,11.077,1.87,27.765,1.582,28.484C522.68,471.455,522.248,471.742,521.673,471.742Z" transform="translate(-237.84 -200.803)" fill="#5f5fff"/>
    <path id="Path_1165" data-name="Path 1165" d="M355.54,399.7c-17.839,11.077-58.407,56.825-18.126,117.534l27.909-16.256s-8.344-21.579-8.344-42.439c0-16.544,14.386-36.109,14.386-36.109Z" transform="translate(-120.187 -175.805)" fill="#ff3e6c"/>
    <path id="Path_1166" data-name="Path 1166" d="M373.471,446.024c4.028-12.516,12.228-23.737,12.228-23.737L369.875,399.7c-7.049,4.46-17.695,14.242-25.464,28.341C354.194,433.8,363.832,439.982,373.471,446.024Z" transform="translate(-134.523 -175.805)" fill="#ffcc3e"/>
    <path id="Path_1167" data-name="Path 1167" d="M417.893,488.4a.528.528,0,0,1-.431-.144,1.178,1.178,0,0,1-.576-1.439l4.46-9.495a1.1,1.1,0,1,1,2.014.863l-4.46,9.495A1.081,1.081,0,0,1,417.893,488.4Z" transform="translate(-177.36 -221.348)" fill="#5f5fff"/>
    <path id="Path_1168" data-name="Path 1168" d="M420.221,487.334c-28.628,5.323-82.144,1.439-82.144,1.439s1.295-32.369,9.351-63.155c7.193-27.909,22.011-38.554,36.972-39.417a40.5,40.5,0,0,1,17.407,3.021,27.454,27.454,0,0,1,8.775,5.323c13.955,12.372,9.926,35.533,5.467,47.905C410.87,456.692,420.221,487.334,420.221,487.334Z" transform="translate(-130.776 -167.771)" fill="#fff"/>
    <path id="Path_1169" data-name="Path 1169" d="M376.4,489.6c-21.147,0-39.849-1.295-40.137-1.295l-1.007-.144v-1.007c0-.288,1.295-32.944,9.351-63.442,8.776-33.664,27.621-39.705,37.979-40.281a44,44,0,0,1,17.839,3.021,33.044,33.044,0,0,1,9.063,5.467c16.976,15.105,7.769,43.446,5.755,49.056-5.035,13.955,4.172,44.021,4.172,44.309l.288,1.151-1.151.288C407.045,488.884,391.221,489.6,376.4,489.6Zm-38.842-3.453c7.481.432,53.372,3.165,79.7-1.295-1.726-5.9-8.632-31.362-3.885-44.453,1.87-5.322,10.646-32.656-5.179-46.755a26.339,26.339,0,0,0-8.488-5.179,37.188,37.188,0,0,0-16.831-2.877c-16.976,1.007-29.779,14.674-36.109,38.7C339.719,451.481,337.848,480.253,337.561,486.151Z" transform="translate(-129.109 -166.156)" fill="#030047"/>
    <path id="Path_1170" data-name="Path 1170" d="M477.653,394.192c-6.186,4.891-16.4,7.193-26.183-8.344a40.5,40.5,0,0,1,17.407,3.021A31.058,31.058,0,0,1,477.653,394.192Z" transform="translate(-197.847 -167.563)" fill="#fff"/>
    <path id="Path_1171" data-name="Path 1171" d="M465.3,397.533a12.379,12.379,0,0,1-2.3-.144c-5.467-.863-10.5-5.035-15.105-12.228l-1.007-1.583,1.87-.144a44,44,0,0,1,17.839,3.021,33.038,33.038,0,0,1,9.063,5.467l1.007.863-1.007.863A17.3,17.3,0,0,1,465.3,397.533Zm-14.53-12.085c3.884,5.755,8.2,8.919,12.66,9.783a13.2,13.2,0,0,0,9.783-2.445,29.114,29.114,0,0,0-7.481-4.316,39.529,39.529,0,0,0-14.817-3.021Z" transform="translate(-195.137 -166.156)" fill="#030047"/>
    <path id="Path_1172" data-name="Path 1172" d="M364.653,469.188c-7.912-7.481-17.551-13.235-26.758-19.133-14.961,21.291-25.319,55.818,2.3,97.393l27.909-16.256s-8.344-21.579-8.344-42.439C359.762,482.136,361.92,475.231,364.653,469.188Z" transform="translate(-121.822 -205.589)" fill="#fff"/>
    <path id="Path_1173" data-name="Path 1173" d="M338.376,546.806l-.576-.863c-30.355-45.748-14.386-81.425-2.3-98.544l.575-.863,4.172,2.733c8.056,5.179,16.544,10.5,23.593,17.119l.576.576-.288.719q-4.747,10.789-4.747,18.99c0,20.428,8.2,41.863,8.344,42.151l.288.863Zm-1.726-97.394c-11.653,16.976-26.039,50.927,2.3,94.516l26.327-15.393c-1.583-4.315-8.2-23.593-8.2-42.007,0-5.611,1.582-11.941,4.747-19.134-6.762-6.186-14.818-11.365-22.73-16.4Z" transform="translate(-120.288 -203.507)" fill="#030047"/>
    <path id="Path_1174" data-name="Path 1174" d="M372.689,400.754c-7.049,4.46-17.695,14.242-25.463,28.34,9.783,5.9,19.421,12.085,29.06,18.127,4.028-12.516,12.228-23.737,12.228-23.737" transform="translate(-136.188 -176.428)" fill="#fff"/>
    <path id="Path_1175" data-name="Path 1175" d="M374.779,447.2l-1.151-.719c-2.733-1.726-5.61-3.453-8.344-5.179-6.761-4.315-13.81-8.631-20.716-12.8l-.863-.575.576-.863c7.768-14.1,18.558-24.025,25.895-28.628a1.037,1.037,0,0,1,1.151,1.726c-7.049,4.316-16.976,13.667-24.6,26.9,6.618,4.028,13.379,8.2,19.853,12.372,2.445,1.439,4.747,3.021,7.193,4.46a97.506,97.506,0,0,1,11.94-22.73,1.037,1.037,0,0,1,1.726,1.151,97.776,97.776,0,0,0-12.085,23.449Z" transform="translate(-134.105 -174.963)" fill="#030047"/>
    <path id="Path_1176" data-name="Path 1176" d="M449.851,264.529a16.921,16.921,0,0,0-13.379-4.172c-10.214,1.439-17.119,11.94-15.537,23.305v.144a15.162,15.162,0,0,0,.863,3.453c-3.884,3.021-2.878,9.063.575,11.94a8.632,8.632,0,0,0,10.79.719,20.467,20.467,0,0,0,9.351,1.726c14.674-.863,19.277-12.085,15.537-23.305C456.325,273.3,454.023,267.982,449.851,264.529Z" transform="translate(-178.821 -93.289)" fill="#fff"/>
    <path id="Path_1177" data-name="Path 1177" d="M439.768,301.327a22.31,22.31,0,0,1-8.056-1.583,10.014,10.014,0,0,1-11.653-1.151,10.253,10.253,0,0,1-3.453-7.625,7.607,7.607,0,0,1,2.3-5.467,27.891,27.891,0,0,1-.719-2.877v-.144a23.325,23.325,0,0,1,3.453-16.112,19.337,19.337,0,0,1,12.947-8.488c4.891-.719,9.926.863,14.242,4.46,4.46,3.74,6.9,9.495,8.488,14.242,2.158,6.33,1.726,12.66-1.438,17.263-3.021,4.46-8.2,7.049-14.962,7.481Zm-8.2-4.028.575.288a18.656,18.656,0,0,0,8.776,1.583c6.186-.431,10.79-2.59,13.379-6.617,2.733-4.028,3.165-9.639,1.151-15.393-1.583-4.6-3.74-9.926-7.769-13.235-3.884-3.165-8.344-4.6-12.515-4.028a16.773,16.773,0,0,0-11.509,7.481,21.432,21.432,0,0,0-3.165,14.674v.144a32.365,32.365,0,0,0,.719,3.165l.288.719-.575.431a5.07,5.07,0,0,0-2.014,4.316,7.889,7.889,0,0,0,2.733,5.9,7.6,7.6,0,0,0,9.495.719Z" transform="translate(-177.225 -91.82)" fill="#030047"/>
    <path id="Path_1178" data-name="Path 1178" d="M477.439,308.136a1.438,1.438,0,1,0-1.749,1.038A1.438,1.438,0,0,0,477.439,308.136Z" transform="translate(-211.532 -120.584)" fill="#030047"/>
    <path id="Path_1179" data-name="Path 1179" d="M498.074,308.026a32.038,32.038,0,0,0-3.885-8.776c-.431-.719-1.726,0-1.295.719a30.949,30.949,0,0,1,3.74,8.344C496.923,309.321,498.362,308.89,498.074,308.026Z" transform="translate(-222.298 -116.214)" fill="#030047"/>
    <path id="Path_1180" data-name="Path 1180" d="M437.212,335.474a7.357,7.357,0,0,0-9.064-.431c-.719.575,0,1.726.719,1.295a5.855,5.855,0,0,1,7.337.288C436.924,337.056,437.931,336.049,437.212,335.474Z" transform="translate(-183.877 -136.756)" fill="#030047"/>
    <path id="Path_1181" data-name="Path 1181" d="M430.465,276.622c3.309,2.014,2.733-3.74,7.912-10.933,2.3-3.165,16.112-3.74,17.407-13.667.719-10.358-15.249-5.755-17.983,0-10.214,1.438-20.572,13.667-14.386,28.053C425.43,278.349,428.882,276.622,430.465,276.622Z" transform="translate(-180.151 -84.811)" fill="#030047"/>
  </g>
</svg>
