<svg id="Page-1" xmlns="http://www.w3.org/2000/svg" width="70" height="65" viewBox="0 0 70 65">
  <g id="_010---Locked-Folder" data-name="010---Locked-Folder">
    <path id="Shape" d="M70,22.87V57.778A7.232,7.232,0,0,1,62.759,65H7.241A7.232,7.232,0,0,1,0,57.778V4.815A4.821,4.821,0,0,1,4.828,0H31.379a4.821,4.821,0,0,1,4.828,4.815V7.222H57.931a4.821,4.821,0,0,1,4.828,4.815v3.611A7.243,7.243,0,0,1,70,22.87Z" transform="translate(0)" fill="#4ae4a1"/>
    <path id="Shape-2" data-name="Shape" d="M62.759,12.069V15.69H0V4.828A4.828,4.828,0,0,1,4.828,0H31.379a4.828,4.828,0,0,1,4.828,4.828V7.241H57.931A4.828,4.828,0,0,1,62.759,12.069Z" transform="translate(0)" fill="#30d18b"/>
    <path id="Shape-3" data-name="Shape" d="M19.034,13.414H14.207a1.207,1.207,0,0,1,0-2.414h4.828a1.207,1.207,0,0,1,0,2.414Z" transform="translate(2.69 2.239)" fill="#1db472"/>
    <path id="Shape-4" data-name="Shape" d="M58.207,11v2.414h-35a1.207,1.207,0,1,1,0-2.414Z" transform="translate(4.552 2.239)" fill="#1db472"/>
  </g>
</svg>
