<svg xmlns="http://www.w3.org/2000/svg" xmlns:xlink="http://www.w3.org/1999/xlink" width="35.682" height="30.922" viewBox="0 0 35.682 30.922">
  <defs>
    <linearGradient id="linear-gradient" x1="0.5" y1="2.115" x2="0.5" y2="-3.627" gradientUnits="objectBoundingBox">
      <stop offset="0.322" stop-color="#a163f5"/>
      <stop offset="0.466" stop-color="#b074ee"/>
      <stop offset="0.752" stop-color="#d8a1dd"/>
      <stop offset="0.898" stop-color="#efbad3"/>
    </linearGradient>
    <linearGradient id="linear-gradient-2" x1="0.499" y1="4.121" x2="0.499" y2="-28.485" xlink:href="#linear-gradient"/>
    <linearGradient id="linear-gradient-3" x1="0.501" y1="1.495" x2="0.501" y2="-2.851" xlink:href="#linear-gradient"/>
    <linearGradient id="linear-gradient-4" x1="0.5" y1="19.013" x2="0.5" y2="-14.565" xlink:href="#linear-gradient"/>
    <linearGradient id="linear-gradient-5" x1="0.5" y1="2.377" x2="0.5" y2="-1.954" xlink:href="#linear-gradient"/>
    <linearGradient id="linear-gradient-6" x1="0.5" y1="1.035" x2="0.5" y2="-0.042" gradientUnits="objectBoundingBox">
      <stop offset="0" stop-color="#fd4ffe"/>
      <stop offset="1" stop-color="#6bb0f8"/>
    </linearGradient>
  </defs>
  <g id="access" transform="translate(0.001 -0.011)">
    <path id="Path_167" data-name="Path 167" d="M224.168,276.678v-1.484a1.795,1.795,0,1,0-2.23,0v1.484a1.115,1.115,0,1,0,2.23,0Zm-1.36,0v-1.712a.434.434,0,0,0-.218-.377.925.925,0,1,1,.925,0,.435.435,0,0,0-.218.377v1.712a.245.245,0,1,1-.49,0Zm0,0" transform="translate(-205.213 -252.256)" fill="url(#linear-gradient)"/>
    <path id="Path_168" data-name="Path 168" d="M241.847,383.09a7.018,7.018,0,0,1-1.4.142.435.435,0,0,0,0,.87,7.9,7.9,0,0,0,1.578-.159.435.435,0,1,0-.175-.853Zm0,0" transform="translate(-222.603 -355.288)" fill="url(#linear-gradient-2)"/>
    <path id="Path_169" data-name="Path 169" d="M280.805,289.957a.435.435,0,1,0,.347.8,7.836,7.836,0,0,0,4.712-7.187.435.435,0,0,0-.87,0A6.966,6.966,0,0,1,280.805,289.957Zm0,0" transform="translate(-260.19 -262.589)" fill="url(#linear-gradient-3)"/>
    <path id="Path_170" data-name="Path 170" d="M221.932,182.1a.435.435,0,0,0,.079-.007,7.013,7.013,0,0,1,1.265-.114.435.435,0,0,0,0-.87,7.891,7.891,0,0,0-1.421.129.435.435,0,0,0,.078.863Zm0,0" transform="translate(-205.436 -167.964)" fill="url(#linear-gradient-4)"/>
    <path id="Path_171" data-name="Path 171" d="M142.765,189.158a7.824,7.824,0,0,0-4.785,7.219.435.435,0,0,0,.87,0,6.955,6.955,0,0,1,4.254-6.417.435.435,0,0,0-.339-.8Zm0,0" transform="translate(-127.975 -175.397)" fill="url(#linear-gradient-5)"/>
    <path id="Path_172" data-name="Path 172" d="M28.894,16.408a1.537,1.537,0,0,0,1.493-1.2.662.662,0,0,1,.643-.518h1.9a1.408,1.408,0,1,0,0-.87h-1.9a1.537,1.537,0,0,0-1.493,1.2.662.662,0,0,1-.643.518H26.17a10,10,0,0,0-.756-1.009V7.586a7.574,7.574,0,0,0-15.148,0v6.943a10.04,10.04,0,0,0-.756,1.009H6.785a.662.662,0,0,1-.643-.518,1.537,1.537,0,0,0-1.494-1.2h-1.9a1.408,1.408,0,1,0,0,.87h1.9a.662.662,0,0,1,.643.518,1.537,1.537,0,0,0,1.494,1.2H9a9.874,9.874,0,0,0-.99,3,1.022,1.022,0,0,1-.844-.625A1.889,1.889,0,0,0,5.417,17.62h-.35a1.408,1.408,0,1,0,0,.87h.35a1.022,1.022,0,0,1,.946.631,1.888,1.888,0,0,0,1.548,1.154q-.025.349-.025.7c0,.16,0,.32.012.478L6.492,21.45a1.985,1.985,0,0,0-1.748,1.043,1.115,1.115,0,0,1-.982.586H3.072a1.406,1.406,0,1,0,.014.87h.677A1.985,1.985,0,0,0,5.51,22.906a1.114,1.114,0,0,1,.98-.586l1.488.008A9.868,9.868,0,0,0,8.925,25.4H8.091A2.221,2.221,0,0,0,5.973,26.99a1.345,1.345,0,0,1-1.284.96H3.953a1.409,1.409,0,1,0,0,.87h.736a2.22,2.22,0,0,0,2.118-1.585,1.345,1.345,0,0,1,1.284-.96H9.415a9.947,9.947,0,0,0,16.849,0h1.324a1.345,1.345,0,0,1,1.284.96A2.221,2.221,0,0,0,30.99,28.82h.736a1.408,1.408,0,1,0,0-.87h-.737a1.346,1.346,0,0,1-1.284-.96A2.22,2.22,0,0,0,27.587,25.4h-.834a9.872,9.872,0,0,0,.948-3.076l1.485-.008a1.116,1.116,0,0,1,.982.586,1.985,1.985,0,0,0,1.748,1.043h.677a1.41,1.41,0,1,0,.014-.87h-.691a1.115,1.115,0,0,1-.982-.586,1.986,1.986,0,0,0-1.75-1.043l-1.4.008c.007-.159.012-.318.012-.478q0-.355-.025-.7a1.889,1.889,0,0,0,1.548-1.154,1.021,1.021,0,0,1,.946-.631h.35a1.408,1.408,0,1,0,0-.87h-.35a1.89,1.89,0,0,0-1.749,1.166,1.021,1.021,0,0,1-.843.625,9.879,9.879,0,0,0-.99-3Zm5.377-2.695a.538.538,0,1,1-.538.538.538.538,0,0,1,.538-.538ZM1.408,14.789a.538.538,0,1,1,.538-.538A.538.538,0,0,1,1.408,14.789Zm2.321,3.8a.538.538,0,1,1,.538-.538A.538.538,0,0,1,3.728,18.593ZM1.74,24.07a.538.538,0,1,1,.538-.538.538.538,0,0,1-.538.538Zm.875,4.853a.538.538,0,1,1,.538-.538A.538.538,0,0,1,2.615,28.923Zm30.45-1.076a.538.538,0,1,1-.538.538A.538.538,0,0,1,33.065,27.847Zm.875-4.853a.538.538,0,1,1-.538.538A.538.538,0,0,1,33.939,22.994Zm-1.988-5.477a.538.538,0,1,1-.538.538A.538.538,0,0,1,31.951,17.517ZM17.84.882a6.711,6.711,0,0,1,6.7,6.7v6.043a9.99,9.99,0,0,0-1.169-.918V7.586a5.534,5.534,0,0,0-11.069,0V12.71a10.013,10.013,0,0,0-1.169.918V7.586A6.711,6.711,0,0,1,17.84.882ZM22.5,12.188a9.937,9.937,0,0,0-9.328,0v-4.6a4.664,4.664,0,1,1,9.328,0ZM17.84,30.063a9.083,9.083,0,1,1,9.083-9.083A9.084,9.084,0,0,1,17.84,30.063Zm0,0" fill="url(#linear-gradient-6)"/>
  </g>
</svg>
