<svg id="archive" xmlns="http://www.w3.org/2000/svg" width="26" height="27" viewBox="0 0 26 27">
  <path id="Path_105" data-name="Path 105" d="M4.12,24.943V22.155a.74.74,0,0,1,.73-.75H8.971L9.145,3.742A.74.74,0,0,1,9.875,3H26.4V.75a.74.74,0,0,0-.73-.75H6.224a.74.74,0,0,0-.73.743L5.32,18.405H1.2a.74.74,0,0,0-.73.75v2.788A5,5,0,0,0,4.51,26.929a5.219,5.219,0,0,1-.39-1.986Zm0,0" transform="translate(-0.433 0)" fill="#ffe1d6"/>
  <g id="Group_120" data-name="Group 120" transform="translate(9.103 3.989)">
    <path id="Path_106" data-name="Path 106" d="M134.713,55.855h-3.605a.771.771,0,1,1,0-1.543h3.605a.771.771,0,0,1,0,1.543Zm0,0" transform="translate(-130.336 -54.313)" fill="#19a389"/>
    <path id="Path_107" data-name="Path 107" d="M141.594,121.723H131.107a.771.771,0,0,1,0-1.543h10.487a.771.771,0,0,1,0,1.543Zm0,0" transform="translate(-130.336 -115.1)" fill="#19a389"/>
    <path id="Path_108" data-name="Path 108" d="M141.594,187.59H131.107a.771.771,0,0,1,0-1.543h10.487a.771.771,0,0,1,0,1.543Zm0,0" transform="translate(-130.336 -175.887)" fill="#19a389"/>
  </g>
  <path id="Path_109" data-name="Path 109" d="M25.235,0H5.79a.726.726,0,0,0-.73.723v0L4.886,18.373H.764A.8.8,0,0,0,0,19.155v2.788a5,5,0,0,0,4.545,5.043A.679.679,0,0,0,4.674,27H20.879a.679.679,0,0,0,.081,0c.061,0,.122,0,.184,0A4.972,4.972,0,0,0,26,21.944V.748A.77.77,0,0,0,25.236,0ZM1.46,21.944v-2.07H16.286v2.07A5.142,5.142,0,0,0,17.7,25.5H4.849a3.485,3.485,0,0,1-3.388-3.555Zm23.079,0a3.4,3.4,0,1,1-6.792,0V19.155a.758.758,0,0,0-.717-.782H6.347L6.513,1.5H24.539Zm0,0" transform="translate(0 0.002)" fill="#fd6b3b"/>
</svg>
