<svg id="Binocular" xmlns="http://www.w3.org/2000/svg" width="24" height="24" viewBox="0 0 24 24">
  <rect id="bound" width="24" height="24" fill="none"/>
  <path id="Combined-Shape" d="M12.843,16H11.157l-.171.639A4.547,4.547,0,0,1,2.2,14.286l1.72-6.418A4.547,4.547,0,0,1,12,6.383a4.547,4.547,0,0,1,8.079,1.484l1.72,6.418a4.547,4.547,0,0,1-8.784,2.354Zm4.613,2.105a2.833,2.833,0,1,0-2.728-2.831A2.781,2.781,0,0,0,17.456,18.105Zm-10.913,0a2.833,2.833,0,0,0,0-5.662,2.833,2.833,0,0,0,0,5.662Z" fill="#fff" fill-rule="evenodd"/>
</svg>
