<svg xmlns="http://www.w3.org/2000/svg" width="31.719" height="29.606" viewBox="0 0 31.719 29.606">
  <g id="bitcoin_4_" data-name="bitcoin (4)" transform="translate(0 -17.047)">
    <g id="Group_222" data-name="Group 222" transform="translate(0.527 17.576)">
      <path id="Path_291" data-name="Path 291" d="M270.3,38.857c0,.18-.005.354-.016.529a13.637,13.637,0,0,1-.471,3.172c-.1.36-.206.714-.328,1.057a14.037,14.037,0,0,1-1.591,3.172c-.243.365-.508.719-.782,1.057a14.247,14.247,0,0,1-11.086,5.287c-.354,0-.708-.011-1.057-.042V24.625c.349-.032.7-.042,1.057-.042A14.247,14.247,0,0,1,267.11,29.87a12.994,12.994,0,0,1,.782,1.057,14.035,14.035,0,0,1,1.591,3.172c.122.344.233.7.328,1.057a13.64,13.64,0,0,1,.471,3.172C270.292,38.5,270.3,38.678,270.3,38.857Z" transform="translate(-239.634 -24.583)" fill="#c52828"/>
      <circle id="Ellipse_14" data-name="Ellipse 14" cx="14.274" cy="14.274" r="14.274" transform="translate(0 0)" fill="#d84315"/>
      <ellipse id="Ellipse_15" data-name="Ellipse 15" cx="13.481" cy="14.274" rx="13.481" ry="14.274" transform="translate(0 0)" fill="#ff5722"/>
      <path id="Path_292" data-name="Path 292" d="M85.812,112.94a10.045,10.045,0,1,1,10.045-10.045A10.045,10.045,0,0,1,85.812,112.94Z" transform="translate(-71.538 -88.621)" fill="#cfd8dc"/>
      <path id="Path_293" data-name="Path 293" d="M140.712,146.149a2.643,2.643,0,0,1-5.287,0,2.8,2.8,0,0,1,.058-.56l-1.644-1.644-1.644,1.644a2.8,2.8,0,0,1,.058.56,2.643,2.643,0,1,1-2.643-2.643,2.6,2.6,0,0,1,1.322.354l1.85-1.85v-1.364a2.643,2.643,0,1,1,2.115,0v1.364l1.85,1.85a2.6,2.6,0,0,1,1.322-.354A2.644,2.644,0,0,1,140.712,146.149Z" transform="translate(-119.565 -128.702)" fill="#ff5722"/>
    </g>
    <g id="Group_223" data-name="Group 223" transform="translate(0 17.047)">
      <path id="Path_294" data-name="Path 294" d="M89.374,95.89a10.62,10.62,0,0,0-8.346-10.338,10.746,10.746,0,0,0-2.112-.231l-.031,0c-.017,0-.069-.006-.086-.006a10.572,10.572,0,0,0-.114,21.143h.058l.061,0a10.693,10.693,0,0,0,2.328-.255c.091-.02.183-.044.313-.078A10.57,10.57,0,0,0,89.374,95.89ZM80.9,105.176a9.684,9.684,0,0,1-2.047.232l-.035,0-.043,0H78.7a9.516,9.516,0,0,1,.05-19.031l.078.006H78.9a9.516,9.516,0,0,1,2.253,18.735C81.061,105.137,80.98,105.158,80.9,105.176Z" transform="translate(-64 -81.086)"/>
      <path id="Path_295" data-name="Path 295" d="M230.41,51.948a.4.4,0,0,0,.048.1l.063.079a.614.614,0,0,0,.174.111.5.5,0,0,0,.4,0,.615.615,0,0,0,.175-.111.836.836,0,0,0,.063-.079.4.4,0,0,0,.048-.1.343.343,0,0,0,.032-.1.734.734,0,0,0,.011-.106.528.528,0,0,0-.042-.2.548.548,0,0,0-.111-.174.538.538,0,0,0-.576-.111.609.609,0,0,0-.174.111.544.544,0,0,0-.111.174.529.529,0,0,0-.042.2.694.694,0,0,0,.011.106A.33.33,0,0,0,230.41,51.948Z" transform="translate(-216.096 -49.103)"/>
      <path id="Path_296" data-name="Path 296" d="M231.27,443.846a.611.611,0,0,0-.175-.111.485.485,0,0,0-.4,0,.48.48,0,0,0-.285.285.528.528,0,0,0-.042.2.556.556,0,0,0,.153.375.614.614,0,0,0,.174.111.5.5,0,0,0,.4,0,.476.476,0,0,0,.285-.285.5.5,0,0,0,0-.4A.614.614,0,0,0,231.27,443.846Z" transform="translate(-216.094 -417.259)"/>
      <path id="Path_297" data-name="Path 297" d="M179.744,58.768a.509.509,0,0,0,.175.116.523.523,0,0,0,.2.037.325.325,0,0,0,.1-.011.545.545,0,0,0,.1-.026c.032-.016.064-.032.09-.048a.337.337,0,0,0,.079-.069.461.461,0,0,0,.116-.169.549.549,0,0,0,.042-.206.517.517,0,0,0-.158-.37.342.342,0,0,0-.079-.069c-.026-.016-.058-.032-.09-.048s-.063-.021-.1-.032a.535.535,0,0,0-.3.032.442.442,0,0,0-.175.116.512.512,0,0,0-.153.37.549.549,0,0,0,.037.206A.538.538,0,0,0,179.744,58.768Z" transform="translate(-168.465 -55.337)"/>
      <path id="Path_298" data-name="Path 298" d="M282.041,437.945a.512.512,0,0,0,.153-.37.523.523,0,0,0-.153-.375.539.539,0,0,0-.576-.116.63.63,0,0,0-.175.116.523.523,0,0,0-.111.169.579.579,0,0,0-.042.206.534.534,0,0,0,.153.37.524.524,0,0,0,.751,0Z" transform="translate(-263.719 -411.024)"/>
      <path id="Path_299" data-name="Path 299" d="M132.387,78.367a.537.537,0,0,0,.751,0,.5.5,0,0,0,.111-.175.529.529,0,1,0-.973,0A.5.5,0,0,0,132.387,78.367Z" transform="translate(-124.042 -73.72)"/>
      <path id="Path_300" data-name="Path 300" d="M329.23,417.476a.492.492,0,0,0-.3-.032.311.311,0,0,0-.1.032.4.4,0,0,0-.095.048.79.79,0,0,0-.079.064.491.491,0,0,0-.111.175.527.527,0,0,0-.042.2.638.638,0,0,0,.011.1.319.319,0,0,0,.031.1.292.292,0,0,0,.048.09c.021.032.042.058.064.085l.079.064a.4.4,0,0,0,.095.048.327.327,0,0,0,.1.032.668.668,0,0,0,.1.011.556.556,0,0,0,.375-.153c.021-.027.042-.053.063-.085a.292.292,0,0,0,.048-.09.326.326,0,0,0,.032-.1.668.668,0,0,0,.011-.1.556.556,0,0,0-.153-.375A.543.543,0,0,0,329.23,417.476Z" transform="translate(-308.148 -392.628)"/>
      <path id="Path_301" data-name="Path 301" d="M91.933,109.643a.55.55,0,0,0,.206.042.524.524,0,0,0,.2-.042.462.462,0,0,0,.169-.116.527.527,0,1,0-.746-.746.53.53,0,0,0,0,.745A.461.461,0,0,0,91.933,109.643Z" transform="translate(-85.935 -102.949)"/>
      <path id="Path_302" data-name="Path 302" d="M369.852,386.309a.539.539,0,0,0-.576.116.515.515,0,0,0-.159.37.741.741,0,0,0,.011.106c.011.032.021.069.032.1s.032.058.048.09a.891.891,0,0,0,.069.079.511.511,0,0,0,.37.153.57.57,0,0,0,.206-.037.535.535,0,0,0,.169-.116.852.852,0,0,0,.069-.079c.016-.032.032-.058.048-.09a.692.692,0,0,0,.026-.1.363.363,0,0,0,.011-.106.511.511,0,0,0-.153-.37A.46.46,0,0,0,369.852,386.309Z" transform="translate(-346.249 -363.396)"/>
      <path id="Path_303" data-name="Path 303" d="M60.618,150.294a.292.292,0,0,0,.09.048.327.327,0,0,0,.1.032.666.666,0,0,0,.1.011.523.523,0,0,0,.529-.529.444.444,0,0,0-.042-.2.614.614,0,0,0-.111-.174.5.5,0,0,0-.174-.111.52.52,0,0,0-.571.111.547.547,0,0,0-.159.375.538.538,0,0,0,.159.375A.5.5,0,0,0,60.618,150.294Z" transform="translate(-56.639 -141.132)"/>
      <path id="Path_304" data-name="Path 304" d="M401.253,345.716c-.026-.021-.053-.042-.085-.064a.3.3,0,0,0-.09-.048.317.317,0,0,0-.1-.031.51.51,0,0,0-.587.317.523.523,0,0,0-.042.2.692.692,0,0,0,.011.106.327.327,0,0,0,.032.1.39.39,0,0,0,.048.1.871.871,0,0,0,.064.079.546.546,0,0,0,.375.153.662.662,0,0,0,.1-.011.323.323,0,0,0,.1-.032.3.3,0,0,0,.09-.048,1.03,1.03,0,0,0,.085-.063l.063-.079a.411.411,0,0,0,.048-.1.328.328,0,0,0,.031-.1.663.663,0,0,0,.011-.106.528.528,0,0,0-.042-.2A.544.544,0,0,0,401.253,345.716Z" transform="translate(-375.546 -325.208)"/>
      <path id="Path_305" data-name="Path 305" d="M40.912,196.928a.515.515,0,0,0-.116.576.464.464,0,0,0,.116.169.517.517,0,0,0,.37.158.549.549,0,0,0,.206-.042.461.461,0,0,0,.169-.116.527.527,0,0,0-.745-.745Z" transform="translate(-38.228 -185.645)"/>
      <path id="Path_306" data-name="Path 306" d="M420.5,299.317a.511.511,0,0,0,.37-.153.53.53,0,0,0,0-.751c-.021-.021-.053-.042-.079-.064a.289.289,0,0,0-.09-.048.325.325,0,0,0-.1-.032.675.675,0,0,0-.206,0,.375.375,0,0,0-.1.032.288.288,0,0,0-.09.048.507.507,0,0,0-.079.064.628.628,0,0,0-.116.175.544.544,0,0,0,.116.576A.514.514,0,0,0,420.5,299.317Z" transform="translate(-393.955 -280.84)"/>
      <path id="Path_307" data-name="Path 307" d="M34.734,248.451a.348.348,0,0,0,.1-.032.292.292,0,0,0,.09-.048.5.5,0,0,0,.085-.063.536.536,0,0,0,0-.751.531.531,0,1,0-.375.9A.729.729,0,0,0,34.734,248.451Z" transform="translate(-31.987 -233.129)"/>
      <path id="Path_308" data-name="Path 308" d="M426.786,247.557a.554.554,0,0,0-.153.375.529.529,0,0,0,.042.2.612.612,0,0,0,.111.175.8.8,0,0,0,.079.063.4.4,0,0,0,.1.048.344.344,0,0,0,.095.032.821.821,0,0,0,.106.011.741.741,0,0,0,.106-.011.349.349,0,0,0,.095-.032.4.4,0,0,0,.1-.048.814.814,0,0,0,.08-.063.611.611,0,0,0,.111-.175.528.528,0,0,0-.862-.576Z" transform="translate(-400.201 -233.129)"/>
      <path id="Path_309" data-name="Path 309" d="M41.658,298.441a.459.459,0,0,0-.169-.116.538.538,0,0,0-.576.116.461.461,0,0,0-.116.169.528.528,0,0,0,.486.729.549.549,0,0,0,.206-.037.537.537,0,0,0,.322-.492.523.523,0,0,0-.037-.2A.54.54,0,0,0,41.658,298.441Z" transform="translate(-38.229 -280.863)"/>
      <path id="Path_310" data-name="Path 310" d="M420.128,197.68a.507.507,0,0,0,.079.064.29.29,0,0,0,.09.048.36.36,0,0,0,.1.032.705.705,0,0,0,.106.011.639.639,0,0,0,.1-.011.31.31,0,0,0,.1-.032.288.288,0,0,0,.09-.048c.026-.021.058-.042.079-.064a.524.524,0,0,0,0-.751.529.529,0,0,0-.862.576A.628.628,0,0,0,420.128,197.68Z" transform="translate(-393.955 -185.647)"/>
      <path id="Path_311" data-name="Path 311" d="M61.144,345.635a.52.52,0,0,0-.571.111.525.525,0,0,0,.571.862.5.5,0,0,0,.174-.111.537.537,0,0,0,0-.751A.494.494,0,0,0,61.144,345.635Z" transform="translate(-56.674 -325.239)"/>
      <path id="Path_312" data-name="Path 312" d="M400.5,150.2a.546.546,0,0,0,.375.153.664.664,0,0,0,.1-.011.326.326,0,0,0,.1-.032.3.3,0,0,0,.09-.048.484.484,0,0,0,.085-.063.547.547,0,0,0,.111-.576.61.61,0,0,0-.111-.174c-.026-.021-.053-.042-.085-.064a.3.3,0,0,0-.09-.048.316.316,0,0,0-.1-.031.51.51,0,0,0-.587.317.5.5,0,0,0,0,.4A.493.493,0,0,0,400.5,150.2Z" transform="translate(-375.547 -141.1)"/>
      <path id="Path_313" data-name="Path 313" d="M92.342,386.282a.542.542,0,0,0-.407,0,.462.462,0,0,0-.169.116.529.529,0,0,0,0,.745.538.538,0,0,0,.169.116.551.551,0,0,0,.206.037.523.523,0,0,0,.2-.037.539.539,0,0,0,.169-.116.517.517,0,0,0,0-.745A.463.463,0,0,0,92.342,386.282Z" transform="translate(-85.936 -363.369)"/>
      <path id="Path_314" data-name="Path 314" d="M369.737,109.714a.528.528,0,0,0,.375-.158.512.512,0,0,0,.153-.37.523.523,0,0,0-.153-.375.535.535,0,0,0-.169-.116.542.542,0,0,0-.407,0,.532.532,0,0,0,.2,1.02Z" transform="translate(-346.34 -102.979)"/>
      <path id="Path_315" data-name="Path 315" d="M133.137,417.687a.553.553,0,0,0-.751,0,.491.491,0,0,0-.111.175.5.5,0,0,0,0,.4.61.61,0,0,0,.111.175.536.536,0,0,0,.751,0,.614.614,0,0,0,.111-.175.547.547,0,0,0-.111-.576Z" transform="translate(-124.04 -392.728)"/>
      <path id="Path_316" data-name="Path 316" d="M328.544,78.193a.4.4,0,0,0,.048.095l.064.079a.825.825,0,0,0,.079.063.853.853,0,0,0,.095.053.564.564,0,0,0,.1.027.332.332,0,0,0,.1.01.532.532,0,0,0,.375-.153l.063-.079a.4.4,0,0,0,.048-.095.346.346,0,0,0,.032-.1.738.738,0,0,0,.011-.106.557.557,0,0,0-.153-.375.55.55,0,0,0-.175-.111.494.494,0,0,0-.3-.032.324.324,0,0,0-.1.032.4.4,0,0,0-.095.048l-.079.063a.556.556,0,0,0-.153.375.691.691,0,0,0,.011.106A.33.33,0,0,0,328.544,78.193Z" transform="translate(-308.15 -73.72)"/>
      <path id="Path_317" data-name="Path 317" d="M180.484,437.21a.342.342,0,0,0-.079-.069c-.026-.016-.058-.032-.09-.048a.563.563,0,0,0-.1-.027.531.531,0,0,0-.3.027.506.506,0,0,0-.175.116.543.543,0,0,0-.116.169.569.569,0,0,0-.037.206.325.325,0,0,0,.011.1.536.536,0,0,0,.026.1.516.516,0,0,0,.053.09.239.239,0,0,0,.064.079.439.439,0,0,0,.175.116.523.523,0,0,0,.2.042.634.634,0,0,0,.1-.011c.037-.011.069-.021.1-.032s.064-.032.09-.048a.726.726,0,0,0,.148-.148.494.494,0,0,0,.048-.09.542.542,0,0,0,.032-.1.636.636,0,0,0,.011-.1.573.573,0,0,0-.042-.206A.467.467,0,0,0,180.484,437.21Z" transform="translate(-168.459 -411.036)"/>
      <path id="Path_318" data-name="Path 318" d="M281.18,58.64a.762.762,0,0,0,.048.09l.064.079a.635.635,0,0,0,.175.116.545.545,0,0,0,.576-.116.408.408,0,0,0,.064-.079.816.816,0,0,0,.053-.09.7.7,0,0,0,.026-.1.345.345,0,0,0,.011-.106.325.325,0,0,0-.011-.1.547.547,0,0,0-.026-.1.505.505,0,0,0-.053-.09.231.231,0,0,0-.064-.079.54.54,0,0,0-.576-.116.532.532,0,0,0-.175.116.521.521,0,0,0-.064.079.49.49,0,0,0-.048.09.57.57,0,0,0-.032.1.507.507,0,0,0,0,.206A.742.742,0,0,0,281.18,58.64Z" transform="translate(-263.72 -55.378)"/>
      <path id="Path_319" data-name="Path 319" d="M31.036,27.4a14.771,14.771,0,0,0-2.228-4.358c-.008-.009-.013-.021-.021-.03a14.79,14.79,0,0,0-11.871-5.969c-.4,0-.753.014-1.074.042-.281-.019-.56-.032-.836-.035a2,2,0,0,0-.2-.008,14.8,14.8,0,0,0-.2,29.6,2,2,0,0,0,.2.008c.354,0,.706-.017,1.057-.041.317.027.662.041,1.058.041a14.79,14.79,0,0,0,11.871-5.969c.009-.009.013-.021.021-.03A14.771,14.771,0,0,0,31.036,36.3c.005-.012.008-.024.012-.036a14.828,14.828,0,0,0,0-8.819C31.044,27.429,31.041,27.416,31.036,27.4Zm-.885,8.146H29.136a14.822,14.822,0,0,0,.446-3.172h1.066A13.682,13.682,0,0,1,30.151,35.551ZM28.133,39.78H27.3a14.79,14.79,0,0,0,1.521-3.172h.994a13.715,13.715,0,0,1-1.679,3.172Zm1.679-12.688H28.8a14.88,14.88,0,0,0-1.535-3.172h.866A13.72,13.72,0,0,1,29.811,27.092Zm-.231,4.229a14.637,14.637,0,0,0-.456-3.172h1.026a13.682,13.682,0,0,1,.5,3.172ZM27.3,22.863h-.776a14.93,14.93,0,0,0-3.643-3.393A13.824,13.824,0,0,1,27.3,22.863ZM14.653,45.591A13.743,13.743,0,0,1,14.8,18.1h.022c.029,0,.062,0,.126.005a13.745,13.745,0,0,1,3.269,27.059c-.13.034-.261.067-.392.1A13.864,13.864,0,0,1,14.8,45.6c-.036,0-.068,0-.148-.005Zm8.4-1.445a14.8,14.8,0,0,0,3.514-3.308h.74A13.826,13.826,0,0,1,23.05,44.146Z" transform="translate(0 -17.047)"/>
      <path id="Path_320" data-name="Path 320" d="M131.038,135.838a3.165,3.165,0,0,0-1.216.241l-1.427-1.427v-.83a3.172,3.172,0,1,0-3.172,0v.83l-1.427,1.427a3.173,3.173,0,1,0,1.956,2.931,3.267,3.267,0,0,0-.024-.376l1.081-1.081,1.081,1.081a3.252,3.252,0,0,0-.024.376,3.172,3.172,0,1,0,3.172-3.172Zm0,5.287a2.117,2.117,0,0,1-2.115-2.115,2.268,2.268,0,0,1,.047-.454.478.478,0,0,0,0-.052.51.51,0,0,0,0-.107.5.5,0,0,0-.056-.188.519.519,0,0,0-.06-.09.486.486,0,0,0-.029-.043l-1.644-1.644a.528.528,0,0,0-.748,0l-1.644,1.644a.5.5,0,0,0-.029.043.514.514,0,0,0-.06.09.5.5,0,0,0-.056.188.512.512,0,0,0,0,.108.5.5,0,0,0,0,.052,2.269,2.269,0,0,1,.047.454,2.115,2.115,0,1,1-2.115-2.115,2.076,2.076,0,0,1,1.053.281c.012.007.025.007.037.013a.5.5,0,0,0,.1.035.514.514,0,0,0,.1.019c.012,0,.023.007.034.007a.543.543,0,0,0,.066-.013.39.39,0,0,0,.186-.061.51.51,0,0,0,.09-.06c.01-.009.022-.012.032-.021l1.85-1.85a.529.529,0,0,0,.155-.374v-1.364a.5.5,0,0,0-.013-.065.527.527,0,0,0-.027-.132q-.052-.087-.11-.17a.528.528,0,0,0-.11-.078.494.494,0,0,0-.054-.038,2.115,2.115,0,1,1,1.686,0,.494.494,0,0,0-.054.038.525.525,0,0,0-.11.078q-.058.083-.11.17a.528.528,0,0,0-.027.132.489.489,0,0,0-.013.065v1.364a.529.529,0,0,0,.155.374l1.85,1.85c.01.01.022.013.032.021a.506.506,0,0,0,.089.059.393.393,0,0,0,.187.061.543.543,0,0,0,.065.013c.012,0,.022-.006.034-.007a.729.729,0,0,0,.2-.054c.012-.006.025-.006.037-.013a2.076,2.076,0,0,1,1.053-.281,2.115,2.115,0,1,1,0,4.229Z" transform="translate(-112.008 -121.035)"/>
    </g>
  </g>
</svg>
