<svg xmlns="http://www.w3.org/2000/svg" width="59" height="43" viewBox="0 0 59 43">
  <g id="blockchain" transform="translate(0 -0.001)">
    <path id="Path_64" data-name="Path 64" d="M17.117,37.187H14.683A2.686,2.686,0,0,0,12,39.87V60.527h2.434V39.87A2.686,2.686,0,0,1,17.117,37.187Zm0,0" transform="translate(-10.539 -32.66)" fill="#ffe1d6"/>
    <path id="Path_65" data-name="Path 65" d="M14.434,241.971v-1.049H12v1.049a2.686,2.686,0,0,0,2.683,2.683h2.434A2.686,2.686,0,0,1,14.434,241.971Zm0,0" transform="translate(-10.539 -211.899)" fill="#ffe1d6"/>
    <g id="Group_110" data-name="Group 110" transform="translate(25.387 0.001)">
      <path id="Path_66" data-name="Path 66" d="M292.907,5.326a.73.73,0,1,0,1.033-1.033l-.794-.794h6.371a.73.73,0,1,0,0-1.461h-6.371l.794-.795A.73.73,0,0,0,292.907.211l-2.041,2.041a.73.73,0,0,0,0,1.033Zm0,0" transform="translate(-281.548 -0.001)" fill="#19a389"/>
      <path id="Path_67" data-name="Path 67" d="M409.652,18.2h.09a.73.73,0,1,0,0-1.461h-.09a.73.73,0,1,0,0,1.461Zm0,0" transform="translate(-385.421 -14.698)" fill="#19a389"/>
      <path id="Path_68" data-name="Path 68" d="M395.945,18.2H396a.73.73,0,1,0,0-1.461h-.059a.73.73,0,1,0,0,1.461Zm0,0" transform="translate(-373.383 -14.698)" fill="#19a389"/>
      <path id="Path_69" data-name="Path 69" d="M376.769,18.2h.028a.73.73,0,1,0,0-1.461h-.028a.73.73,0,1,0,0,1.461Zm0,0" transform="translate(-356.541 -14.698)" fill="#19a389"/>
      <path id="Path_70" data-name="Path 70" d="M435.5,290.859h-.09a.73.73,0,0,0,0,1.461h.09a.73.73,0,0,0,0-1.461Zm0,0" transform="translate(-408.044 -255.866)" fill="#19a389"/>
      <path id="Path_71" data-name="Path 71" d="M421.758,290.859H421.7a.73.73,0,0,0,0,1.461h.059a.73.73,0,0,0,0-1.461Zm0,0" transform="translate(-396.001 -255.866)" fill="#19a389"/>
      <path id="Path_72" data-name="Path 72" d="M402.551,290.859h-.028a.73.73,0,1,0,0,1.461h.028a.73.73,0,0,0,0-1.461Zm0,0" transform="translate(-379.16 -255.866)" fill="#19a389"/>
      <path id="Path_73" data-name="Path 73" d="M295.821,276.131H285.368l.794-.795a.73.73,0,0,0-1.033-1.033l-2.041,2.041a.73.73,0,0,0,0,1.033l2.041,2.041a.73.73,0,1,0,1.033-1.033l-.795-.794h10.453a.73.73,0,1,0,0-1.461Zm0,0" transform="translate(-274.717 -241.138)" fill="#19a389"/>
      <path id="Path_74" data-name="Path 74" d="M405.468,94.628l2.041,2.041a.73.73,0,1,0,1.033-1.033l-.795-.794h1.473a.73.73,0,1,0,0-1.461h-1.473l.795-.795a.73.73,0,1,0-1.033-1.033L405.468,93.6a.73.73,0,0,0,0,1.033Zm0,0" transform="translate(-382.2 -80.359)" fill="#19a389"/>
      <path id="Path_75" data-name="Path 75" d="M480.082,108.109h-.09a.73.73,0,1,0,0,1.461h.09a.73.73,0,1,0,0-1.461Zm0,0" transform="translate(-447.199 -95.094)" fill="#19a389"/>
      <path id="Path_76" data-name="Path 76" d="M466.34,108.109h-.059a.73.73,0,1,0,0,1.461h.059a.73.73,0,1,0,0-1.461Zm0,0" transform="translate(-435.157 -95.094)" fill="#19a389"/>
      <path id="Path_77" data-name="Path 77" d="M447.13,108.109H447.1a.73.73,0,1,0,0,1.461h.028a.73.73,0,0,0,0-1.461Zm0,0" transform="translate(-418.312 -95.094)" fill="#19a389"/>
      <path id="Path_78" data-name="Path 78" d="M477.489,199.484h-.059a.73.73,0,0,0,0,1.461h.059a.73.73,0,0,0,0-1.461Zm0,0" transform="translate(-444.949 -175.469)" fill="#19a389"/>
      <path id="Path_79" data-name="Path 79" d="M458.281,199.484h-.028a.73.73,0,0,0,0,1.461h.028a.73.73,0,0,0,0-1.461Zm0,0" transform="translate(-428.107 -175.469)" fill="#19a389"/>
      <path id="Path_80" data-name="Path 80" d="M398.692,184.756h-4.477l.794-.795a.73.73,0,0,0-1.033-1.033l-2.041,2.041a.73.73,0,0,0,0,1.033l2.041,2.041a.73.73,0,0,0,1.033-1.033l-.794-.794h4.477a.73.73,0,1,0,0-1.461Zm0,0" transform="translate(-370.315 -160.748)" fill="#19a389"/>
      <path id="Path_81" data-name="Path 81" d="M217.165,93.911a.74.74,0,0,0-.681-.272.728.728,0,0,0-.577.446.7.7,0,0,0,.112.711,9.554,9.554,0,0,0,10.489,3,9.155,9.155,0,0,0,0-17.42,9.553,9.553,0,0,0-10.489,3,.7.7,0,0,0-.112.711.728.728,0,0,0,.577.446.74.74,0,0,0,.681-.272,8.072,8.072,0,0,1,8.863-2.538,7.736,7.736,0,0,1,0,14.721,8.073,8.073,0,0,1-8.863-2.538Zm0,0" transform="translate(-215.855 -70.147)" fill="#19a389"/>
      <path id="Path_82" data-name="Path 82" d="M217.359,63.871V65.56c-.108.068-.214.138-.32.21a.73.73,0,1,1-.82-1.209A12.865,12.865,0,0,1,217.359,63.871Zm0,0" transform="translate(-215.893 -56.183)" fill="#1ae5be"/>
      <path id="Path_83" data-name="Path 83" d="M217.457,234.494v1.689a12.778,12.778,0,0,1-1.116-.674.73.73,0,1,1,.818-1.21C217.258,234.366,217.356,234.431,217.457,234.494Zm0,0" transform="translate(-215.991 -205.982)" fill="#1ae5be"/>
      <path id="Path_84" data-name="Path 84" d="M252.786,107.2a.73.73,0,0,0-.73.73v.656H251.3a.731.731,0,0,0-.73.73v8.026a.73.73,0,0,0,.73.73h.755v.594a.73.73,0,1,0,1.461,0v-.594h.438v.594a.73.73,0,0,0,1.461,0v-.748a2.734,2.734,0,0,0,.954-4.589,2.734,2.734,0,0,0-.954-4.589v-.81a.73.73,0,0,0-1.461,0v.656h-.438v-.656A.73.73,0,0,0,252.786,107.2Zm3,8.136a1.278,1.278,0,0,1-1.276,1.276h-2.48v-2.552h2.48a1.278,1.278,0,0,1,1.276,1.276Zm-1.276-2.737h-2.48V110.05h2.48a1.276,1.276,0,1,1,0,2.552Zm0,0" transform="translate(-246.345 -94.355)" fill="#19a389"/>
    </g>
    <path id="Path_85" data-name="Path 85" d="M31.565,54.784H23.832V47.425H26.28v.507a.727.727,0,0,0,.73.723h2.321a.727.727,0,0,0,.73-.723V44.425a12.985,12.985,0,0,1-1.461-.541v3.325h-.861V16.51H28.6v4.019a12.478,12.478,0,0,1,1.461-.541v-4.2a.726.726,0,0,0-.73-.723H27.01a.727.727,0,0,0-.73.723v.5H4.143A4.128,4.128,0,0,0,0,20.386V43.323a4.128,4.128,0,0,0,4.143,4.1H22.372v7.359H14.639a.723.723,0,1,0,0,1.446H31.566a.723.723,0,1,0,0-1.446Zm-30.1-34.4A2.672,2.672,0,0,1,4.143,17.73H26.28V40.837H1.461ZM4.143,45.979a2.673,2.673,0,0,1-2.683-2.656V42.284H26.28v3.7Zm0,0" transform="translate(0 -13.228)" fill="#fd6b3b"/>
    <path id="Path_86" data-name="Path 86" d="M246.9,64.2a12.861,12.861,0,0,1-3.736,9.071.385.385,0,0,1-.1.1A12.878,12.878,0,0,1,228.759,76q-.438-.194-.861-.423V73.885a11.359,11.359,0,0,0,5.368,1.735v-.51a.73.73,0,0,1,1.461,0v.51a11.386,11.386,0,0,0,6.824-2.832l-.358-.357a.731.731,0,0,1,1.033-1.033l.357.358a11.389,11.389,0,0,0,2.832-6.824h-.51a.73.73,0,1,1,0-1.461h.51a11.387,11.387,0,0,0-2.832-6.824l-.357.358a.731.731,0,0,1-1.033-1.033l.358-.357a11.392,11.392,0,0,0-6.824-2.832v.51a.73.73,0,0,1-1.461,0v-.51a11.37,11.37,0,0,0-5.368,1.735V52.829q.424-.228.861-.421a12.4,12.4,0,0,1,1.461-.546,12.9,12.9,0,0,1,12.848,3.173.384.384,0,0,1,.1.1A12.862,12.862,0,0,1,246.9,64.2Zm0,0" transform="translate(-200.76 -45.053)" fill="#19a389"/>
  </g>
</svg>
