<svg xmlns="http://www.w3.org/2000/svg" width="35" height="43" viewBox="0 0 35 43">
  <g id="bonus" transform="translate(-0.5)">
    <path id="Path_54" data-name="Path 54" d="M14.329,44.734V14.012A2.014,2.014,0,0,1,16.34,12H14.512A2.014,2.014,0,0,0,12.5,14.012V44.734a2.014,2.014,0,0,0,2.012,2.012H16.34A2.014,2.014,0,0,1,14.329,44.734Zm0,0" transform="translate(-10.903 -10.903)" fill="#ffe1d6"/>
    <g id="Group_109" data-name="Group 109" transform="translate(0.5 0)">
      <path id="Path_55" data-name="Path 55" d="M18.945,35.778H3.609A2.012,2.012,0,0,1,1.6,33.77V3.1A2.012,2.012,0,0,1,3.609,1.1H15.861V8.214a3.109,3.109,0,0,0,3.109,3.1H26.1V26.21h1.1V10.77a.547.547,0,0,0-.161-.387L16.8.16A.549.549,0,0,0,16.41,0H3.609A3.109,3.109,0,0,0,.5,3.1V33.77a3.109,3.109,0,0,0,3.109,3.1H18.945ZM16.959,8.214V1.87l8.368,8.353H18.97A2.012,2.012,0,0,1,16.959,8.214Zm0,0" transform="translate(-0.5 0)" fill="#fd6b3b"/>
      <path id="Path_56" data-name="Path 56" d="M59.764,304.549a.549.549,0,0,0-.549-.549H46.049a.549.549,0,0,0,0,1.1H59.215A.549.549,0,0,0,59.764,304.549Zm0,0" transform="translate(-41.385 -276.255)" fill="#fd6b3b"/>
      <path id="Path_57" data-name="Path 57" d="M46.049,338a.549.549,0,1,0,0,1.1h9.784a.549.549,0,1,0,0-1.1Zm0,0" transform="translate(-41.385 -307.161)" fill="#fd6b3b"/>
      <path id="Path_58" data-name="Path 58" d="M59.907,148.342h.771a.549.549,0,0,0,.549-.549v-3.417a.549.549,0,0,0-.549-.549H46.048a.549.549,0,0,0-.549.549v3.417a.549.549,0,0,0,.549.549h.791v7.587a.549.549,0,0,0,.549.549h11.97a.549.549,0,0,0,.549-.549ZM46.6,144.925H60.129v2.319H46.6Zm5.5,3.417h2.562v3.126l-1.026-.606a.548.548,0,0,0-.563,0l-.973.59Zm-4.155,7.038v-7.038H51v4.087a.548.548,0,0,0,.833.469l1.525-.924,1.571.928a.549.549,0,0,0,.828-.473v-4.087H58.81v7.038Zm0,0" transform="translate(-41.385 -130.713)" fill="#fd6b3b"/>
    </g>
    <path id="Path_59" data-name="Path 59" d="M201.575,296.556a8.778,8.778,0,1,0-8.778-8.778A8.778,8.778,0,0,0,201.575,296.556Zm0-16.459a7.681,7.681,0,1,1-7.681,7.681A7.681,7.681,0,0,1,201.575,280.1Zm0,0" transform="translate(-174.853 -253.556)" fill="#19a389"/>
    <path id="Path_60" data-name="Path 60" d="M260.846,331.22h.623v.5a.549.549,0,0,0,1.1,0v-.5h.4v.5a.549.549,0,0,0,1.1,0v-.609a25.177,25.177,0,0,1,1.4-5.612,2.129,2.129,0,0,0-1.4-1.588v-.658a.549.549,0,0,0-1.1,0v.545h-.4v-.545a.549.549,0,0,0-1.1,0v.545h-.623a.549.549,0,0,0-.549.549v6.331A.549.549,0,0,0,260.846,331.22Zm3.566-2.131a1.034,1.034,0,0,1-1.034,1.034h-1.984v-2.068h1.984A1.035,1.035,0,0,1,264.412,329.089Zm-3.017-4.2h1.984a1.034,1.034,0,0,1,0,2.068h-1.984Zm0,0" transform="translate(-236.152 -293.26)" fill="#19a389"/>
  </g>
</svg>
