<svg xmlns="http://www.w3.org/2000/svg" width="19.668" height="30.771" viewBox="0 0 19.668 30.771">
  <g id="book" transform="translate(0.001)">
    <path id="Path_131" data-name="Path 131" d="M10.106,27.588a.769.769,0,0,1-1.159-.663V23.394H6.822a2.951,2.951,0,0,1-2.976-2.919V0H2.976A2.952,2.952,0,0,0,0,2.919V23.553a2.951,2.951,0,0,0,2.976,2.918H5.1V30a.769.769,0,0,0,1.159.663l2.211-1.3,2.211,1.3A.77.77,0,0,0,11.842,30V26.567Zm0,0" transform="translate(-0.001)" fill="#ffe1d6"/>
    <path id="Path_132" data-name="Path 132" d="M156.375,341.715l-.312.184h.624Zm0,0" transform="translate(-144.057 -315.427)" fill="#d4e1f4"/>
    <path id="Path_133" data-name="Path 133" d="M72.276,335.962a.771.771,0,0,1-.39-.106l-2.211-1.3-2.211,1.3a.77.77,0,0,1-1.159-.663v-4.568h1.539v3.223L69.286,333a.769.769,0,0,1,.78,0l1.442.848v-3.223h1.539v4.568a.769.769,0,0,1-.769.769Zm0,0" transform="translate(-61.205 -305.19)" fill="#19a389"/>
    <path id="Path_134" data-name="Path 134" d="M18.9,26.471H2.975A2.951,2.951,0,0,1,0,23.553V2.919A2.952,2.952,0,0,1,2.975,0H16.207a.769.769,0,0,1,.769.769V4.3H18.9a.769.769,0,0,1,.769.769V25.7a.769.769,0,0,1-.769.769ZM1.538,5.476V23.553a1.411,1.411,0,0,0,1.437,1.38H18.128V5.84H2.975a3,3,0,0,1-1.437-.364ZM2.975,1.539a1.411,1.411,0,0,0-1.437,1.38A1.412,1.412,0,0,0,2.975,4.3H15.438V1.539Zm0,0" fill="#fd6b3b"/>
    <g id="Group_149" data-name="Group 149" transform="translate(5.717 13.078)">
      <path id="Path_135" data-name="Path 135" d="M81.79,171.539H75.1a.769.769,0,0,1,0-1.539H81.79a.769.769,0,0,1,0,1.539Zm0,0" transform="translate(-74.328 -170)" fill="#19a389"/>
      <path id="Path_136" data-name="Path 136" d="M81.79,211.539H75.1a.769.769,0,1,1,0-1.539H81.79a.769.769,0,0,1,0,1.539Zm0,0" transform="translate(-74.328 -206.923)" fill="#19a389"/>
    </g>
  </g>
</svg>
