<svg xmlns="http://www.w3.org/2000/svg" width="26" height="26" viewBox="0 0 26 26">
  <g id="calendar" transform="translate(-140 -2037)">
    <rect id="Rectangle_160" data-name="Rectangle 160" width="26" height="26" transform="translate(140 2037)" fill="none"/>
    <g id="calendar-2" data-name="calendar" transform="translate(143.852 2040)">
      <path id="Path_304" data-name="Path 304" d="M14.364,56.078A2.092,2.092,0,0,1,12.256,54V39.819a1.884,1.884,0,0,1,.069-.519h-.069a2.092,2.092,0,0,0-2.108,2.077V55.559a2.092,2.092,0,0,0,2.108,2.077h13.7A2.1,2.1,0,0,0,28,56.078Zm0,0" transform="translate(-9.459 -37.172)" fill="#d4e1f4"/>
      <path id="Path_305" data-name="Path 305" d="M16.509,1.529h-2.19V.522a.528.528,0,0,0-1.056,0v1H6.033v-1a.528.528,0,0,0-1.056,0v1H2.787A2.626,2.626,0,0,0,.148,4.134V18.39A2.626,2.626,0,0,0,2.787,21H16.509a2.625,2.625,0,0,0,2.639-2.61V4.139a2.625,2.625,0,0,0-2.639-2.61ZM18.092,18.4a1.579,1.579,0,0,1-1.583,1.566H2.787A1.579,1.579,0,0,1,1.2,18.4V6.467H18.092Zm0-12.972H1.2V4.139A1.579,1.579,0,0,1,2.787,2.574h2.19v1a.528.528,0,0,0,1.056,0v-1h7.225v1a.528.528,0,0,0,1.056,0v-1h2.2a1.579,1.579,0,0,1,1.583,1.566Zm0,0" fill="#165df5"/>
      <g id="Group_333" data-name="Group 333" transform="translate(3.796 10.873)">
        <path id="Path_306" data-name="Path 306" d="M83.214,210.4H72.592a.541.541,0,1,0,0,1.083H83.214a.541.541,0,1,0,0-1.083Zm0,0" transform="translate(-72.051 -210.398)" fill="#17e79b"/>
        <path id="Path_307" data-name="Path 307" d="M78.737,275.8H72.592a.541.541,0,1,0,0,1.083h6.144a.541.541,0,1,0,0-1.083Zm0,0" transform="translate(-72.051 -272.26)" fill="#17e79b"/>
      </g>
    </g>
  </g>
</svg>
