<svg xmlns="http://www.w3.org/2000/svg" width="36.133" height="36.133" viewBox="0 0 36.133 36.133">
  <g id="Compass" transform="translate(-2 -2)">
    <path id="Path_300" data-name="Path 300" d="M33.917,5.613A4.215,4.215,0,0,0,29.75,9.227H22.475v1.2H29.7V33.917a.6.6,0,1,0,1.2,0,3.011,3.011,0,1,1,6.022,0v.126a2.891,2.891,0,0,1-2.885,2.885H3.2V24.473a16.32,16.32,0,0,0,14.453,8.842.6.6,0,1,0,0-1.2,14.959,14.959,0,0,1-6.521-1.51l.374-1.395a1.761,1.761,0,0,0,1.6-1.325l1.982-7.393a10.783,10.783,0,0,0,1.362.163v.62a.6.6,0,0,0,1.2,0v-.62a10.783,10.783,0,0,0,1.362-.162L21,27.879A1.759,1.759,0,0,0,22.6,29.2l.5,1.857a.6.6,0,0,0,.582.447.61.61,0,0,0,.156-.02.6.6,0,0,0,.426-.738l-.5-1.853a1.811,1.811,0,0,0,.723-1.947L20.536,12.2a4.2,4.2,0,0,0-1.071-5.829V4.409a2.409,2.409,0,1,0-4.818,0V6.374A4.2,4.2,0,0,0,13.575,12.2L9.62,26.953a1.807,1.807,0,0,0,.726,1.944l-.3,1.12A15.038,15.038,0,0,1,3.2,21.254V10.431h8.431v-1.2H2V38.133H34.044a4.1,4.1,0,0,0,4.089-4.091V9.829a4.22,4.22,0,0,0-4.215-4.215ZM17.658,19.428v-.566a.6.6,0,0,0-1.2,0v.566a9.582,9.582,0,0,1-1.045-.12l1.414-5.274c.078,0,.154.012.233.012s.155-.008.233-.012L18.7,19.308A9.581,9.581,0,0,1,17.658,19.428Zm5.669,7.832A.608.608,0,0,1,22.9,28h0a.6.6,0,0,1-.455-.06.592.592,0,0,1-.276-.366l-3.7-13.777a4.2,4.2,0,0,0,1.088-.582ZM15.851,4.409a1.2,1.2,0,1,1,2.409,0V5.794a4.172,4.172,0,0,0-2.409,0Zm1.2,2.409a3.011,3.011,0,1,1-3.011,3.011,3.011,3.011,0,0,1,3.011-3.011ZM10.784,27.262l3.767-14.05a4.2,4.2,0,0,0,1.088.582l-3.7,13.78a.6.6,0,0,1-.729.426H11.21a.608.608,0,0,1-.426-.738Zm26.144,3.707a4.21,4.21,0,0,0-6.022,0V9.829a3.011,3.011,0,0,1,6.022,0Z" fill="#0b2238"/>
    <path id="Path_301" data-name="Path 301" d="M25.807,15.613A1.807,1.807,0,1,0,24,13.807,1.807,1.807,0,0,0,25.807,15.613Zm0-2.409a.6.6,0,1,1-.6.6A.6.6,0,0,1,25.807,13.2Z" transform="translate(-8.751 -3.978)" fill="#0b2238"/>
  </g>
</svg>
