<svg xmlns="http://www.w3.org/2000/svg" width="51" height="43" viewBox="0 0 51 43">
  <g id="cryptocurrency_1_" data-name="cryptocurrency (1)" transform="translate(0.001 -0.5)">
    <path id="Path_87" data-name="Path 87" d="M151.37,137.645a9.134,9.134,0,0,1-3.494-6.652v-9.766l-1.876.922v10.062a8.945,8.945,0,0,0,3.421,6.514l7.061,4.831,1.765-1.205Zm0,0" transform="translate(-130.924 -108.353)" fill="#ffe1d6"/>
    <path id="Path_88" data-name="Path 88" d="M137.646,91.89l7.439,4.989a.638.638,0,0,0,.709,0l7.438-4.989a9.87,9.87,0,0,0,3.994-7.428V74.2a.618.618,0,0,0-.352-.556l-11.158-5.389a.637.637,0,0,0-.554,0L134,73.626a.617.617,0,0,0-.352.556V84.463a9.87,9.87,0,0,0,3.994,7.428Zm-2.735-17.323,10.528-5.07,10.528,5.085v9.88a8.643,8.643,0,0,1-3.444,6.405l-7.084,4.75-7.084-4.75a8.777,8.777,0,0,1-3.444-6.405Zm0,0" transform="translate(-119.94 -60.588)" fill="#fd6b3b"/>
    <path id="Path_89" data-name="Path 89" d="M205.63,144.236h1.6v1.234a.629.629,0,0,0,1.259,0v-1.234h.436v1.234a.629.629,0,0,0,1.259,0v-1.234h.366a3.054,3.054,0,0,0,3.051-3.05v-.807a3.045,3.045,0,0,0-1.2-2.421,3.048,3.048,0,0,0,1.2-2.422v-.807a3.054,3.054,0,0,0-3.051-3.051h-.366v-1.322a.629.629,0,0,0-1.259,0v1.322h-.436v-1.322a.629.629,0,0,0-1.259,0v1.322h-1.6a.63.63,0,0,0-.629.629v11.3a.63.63,0,0,0,.629.629Zm6.714-3.857v.807a1.794,1.794,0,0,1-1.792,1.791h-4.293v-4.391h4.293a1.794,1.794,0,0,1,1.792,1.792Zm-6.085-7.441h4.293a1.794,1.794,0,0,1,1.792,1.791v.807a1.794,1.794,0,0,1-1.792,1.791h-4.293Zm0,0" transform="translate(-183.803 -115.913)" fill="#fd6b3b"/>
    <g id="Group_111" data-name="Group 111" transform="translate(-0.001 0.5)">
      <path id="Path_90" data-name="Path 90" d="M126.944,146.9a.629.629,0,0,0-1.053,0l-5.641,8.6a.63.63,0,0,0,.526.975h4.813a19.808,19.808,0,0,1-6.748,12.342,18.871,18.871,0,0,1-12,4.7,17.835,17.835,0,0,1-8.172-2.107,20.31,20.31,0,0,1-6.96-5.971.63.63,0,1,0-1.016.744,21.575,21.575,0,0,0,7.394,6.343,19.1,19.1,0,0,0,8.754,2.249,20.145,20.145,0,0,0,12.818-5,21.062,21.062,0,0,0,7.2-13.3h5.2a.63.63,0,0,0,.526-.975Zm-5,8.317,4.475-6.824,4.476,6.824Zm0,0" transform="translate(-81.688 -131.775)" fill="#19a389"/>
      <path id="Path_91" data-name="Path 91" d="M6.269,28.659a.63.63,0,0,0,.527-.284l5.641-8.6a.629.629,0,0,0-.527-.975H7.1A19.808,19.808,0,0,1,13.846,6.456a18.871,18.871,0,0,1,12-4.7,17.834,17.834,0,0,1,8.172,2.107,20.306,20.306,0,0,1,6.961,5.97.629.629,0,1,0,1.016-.744A21.575,21.575,0,0,0,34.6,2.75,19.1,19.1,0,0,0,25.844.5a20.147,20.147,0,0,0-12.818,5,21.066,21.066,0,0,0-7.2,13.3H.628a.629.629,0,0,0-.526.975l5.641,8.6a.63.63,0,0,0,.526.284Zm4.476-8.6L6.269,26.882,1.794,20.057Zm0,0" transform="translate(0.001 -0.5)" fill="#19a389"/>
    </g>
  </g>
</svg>
