<svg xmlns="http://www.w3.org/2000/svg" width="40.072" height="36.133" viewBox="0 0 40.072 36.133">
  <g id="cupboard" transform="translate(0 -18.6)">
    <g id="Group_284" data-name="Group 284" transform="translate(0 18.6)">
      <g id="Group_283" data-name="Group 283" transform="translate(0 0)">
        <path id="Path_294" data-name="Path 294" d="M40.072,30.757v-7.5a3.363,3.363,0,0,0-3.389-3.346A3.4,3.4,0,0,0,33.295,23.3v7.413a3.317,3.317,0,0,0,2.626,3.262v3.135H23.34c0-.085.042-.169.042-.254V34.7a.537.537,0,0,0-.042-.254h7.54a1.79,1.79,0,0,0,1.779-1.779V20.379A1.79,1.79,0,0,0,30.88,18.6H9.4a1.79,1.79,0,0,0-1.779,1.779V32.748A1.79,1.79,0,0,0,9.4,34.527h7.54c0,.085-.042.169-.042.254v2.16a.537.537,0,0,0,.042.254H4.194v-2.88A3.4,3.4,0,0,0,6.82,31.054v-7.54a3.389,3.389,0,1,0-6.778,0v7.413a3.317,3.317,0,0,0,2.626,3.262v2.923H1.652A1.654,1.654,0,0,0,0,38.763V53.081a1.654,1.654,0,0,0,1.652,1.652H38.378a1.654,1.654,0,0,0,1.652-1.652V38.806a1.654,1.654,0,0,0-1.652-1.652h-.932V34.019A3.4,3.4,0,0,0,40.072,30.757ZM34.82,23.3a1.864,1.864,0,1,1,3.728-.042v1.567H34.82ZM9.4,33a.363.363,0,0,1-.254-.3V20.379a.273.273,0,0,1,.254-.254H30.88a.273.273,0,0,1,.254.254V32.748A.273.273,0,0,1,30.88,33H9.4ZM21.858,34.7v2.16a.273.273,0,0,1-.254.254h-2.88a.225.225,0,0,1-.254-.254V34.7a.273.273,0,0,1,.254-.254H21.6A.273.273,0,0,1,21.858,34.7ZM1.567,23.514a1.864,1.864,0,0,1,3.728,0v1.271H1.567Zm0,7.455V26.31H5.295v4.617a1.88,1.88,0,0,1-1.864,1.864A1.817,1.817,0,0,1,1.567,30.969Zm36.98,22.112a.155.155,0,0,1-.169.169H1.694a.182.182,0,0,1-.169-.169v-6.4H38.547Zm-.169-14.445a.182.182,0,0,1,.169.169v6.4H1.525v-6.4a.182.182,0,0,1,.169-.169H38.378Zm-1.694-6.057a1.88,1.88,0,0,1-1.864-1.864V26.31h3.728v4.363A1.89,1.89,0,0,1,36.684,32.579Z" transform="translate(0 -18.6)"/>
      </g>
    </g>
    <g id="Group_286" data-name="Group 286" transform="translate(2.626 27.241)">
      <g id="Group_285" data-name="Group 285" transform="translate(0 0)">
        <circle id="Ellipse_1" data-name="Ellipse 1" cx="0.805" cy="0.805" r="0.805"/>
      </g>
    </g>
    <g id="Group_288" data-name="Group 288" transform="translate(2.626 30.164)">
      <g id="Group_287" data-name="Group 287" transform="translate(0 0)">
        <circle id="Ellipse_2" data-name="Ellipse 2" cx="0.805" cy="0.805" r="0.805"/>
      </g>
    </g>
    <g id="Group_290" data-name="Group 290" transform="translate(35.879 27.241)">
      <g id="Group_289" data-name="Group 289" transform="translate(0 0)">
        <circle id="Ellipse_3" data-name="Ellipse 3" cx="0.805" cy="0.805" r="0.805"/>
      </g>
    </g>
    <g id="Group_292" data-name="Group 292" transform="translate(35.879 30.164)">
      <g id="Group_291" data-name="Group 291" transform="translate(0 0)">
        <circle id="Ellipse_4" data-name="Ellipse 4" cx="0.805" cy="0.805" r="0.805"/>
      </g>
    </g>
    <g id="Group_294" data-name="Group 294" transform="translate(16.774 41.263)">
      <g id="Group_293" data-name="Group 293">
        <path id="Path_295" data-name="Path 295" d="M164.076,232.6h-4.914a.762.762,0,0,0,0,1.525h4.914a.762.762,0,1,0,0-1.525Z" transform="translate(-158.4 -232.6)"/>
      </g>
    </g>
    <g id="Group_296" data-name="Group 296" transform="translate(16.774 49.353)">
      <g id="Group_295" data-name="Group 295">
        <path id="Path_296" data-name="Path 296" d="M164.076,309h-4.914a.762.762,0,1,0,0,1.525h4.914a.762.762,0,1,0,0-1.525Z" transform="translate(-158.4 -309)"/>
      </g>
    </g>
  </g>
</svg>
