<svg xmlns="http://www.w3.org/2000/svg" xmlns:xlink="http://www.w3.org/1999/xlink" width="60" height="60" viewBox="0 0 60 60">
  <defs>
    <clipPath id="clip-path">
      <rect id="Rectangle_114" data-name="Rectangle 114" width="60" height="60" rx="25" transform="translate(140 1062)" fill="#ffe7aa"/>
    </clipPath>
    <linearGradient id="linear-gradient" x1="0.26" y1="-2.487" x2="1.067" y2="-3.832" gradientUnits="objectBoundingBox">
      <stop offset="0" stop-color="#ffc200"/>
      <stop offset="0.268" stop-color="#fb0"/>
      <stop offset="0.659" stop-color="#ffa801"/>
      <stop offset="1" stop-color="#ff9102"/>
    </linearGradient>
    <linearGradient id="linear-gradient-2" x1="1.06" y1="-3.225" x2="-0.014" y2="-2.15" gradientUnits="objectBoundingBox">
      <stop offset="0" stop-color="#ffc200" stop-opacity="0"/>
      <stop offset="0.203" stop-color="#fb0" stop-opacity="0.204"/>
      <stop offset="0.499" stop-color="#ffa700" stop-opacity="0.498"/>
      <stop offset="0.852" stop-color="#f80" stop-opacity="0.851"/>
      <stop offset="1" stop-color="#ff7800"/>
    </linearGradient>
    <linearGradient id="linear-gradient-3" x1="0.344" y1="-1.257" x2="0.837" y2="-5.397" xlink:href="#linear-gradient"/>
    <linearGradient id="linear-gradient-4" x1="0.314" y1="0.923" x2="0.847" y2="0.363" xlink:href="#linear-gradient"/>
    <linearGradient id="linear-gradient-5" x1="0.879" y1="-7.151" x2="-0.052" y2="-8.358" xlink:href="#linear-gradient-2"/>
    <linearGradient id="linear-gradient-6" x1="1.226" y1="-0.258" x2="0.144" y2="0.824" xlink:href="#linear-gradient-2"/>
    <linearGradient id="linear-gradient-7" x1="0.14" y1="2.081" x2="0.529" y2="1.155" gradientUnits="objectBoundingBox">
      <stop offset="0" stop-color="#d63305"/>
      <stop offset="0.366" stop-color="#cf3004"/>
      <stop offset="0.899" stop-color="#bc2602"/>
      <stop offset="1" stop-color="#b72401"/>
    </linearGradient>
  </defs>
  <g id="date" transform="translate(-973 -1065)">
    <rect id="Rectangle_113" data-name="Rectangle 113" width="60" height="60" rx="25" transform="translate(973 1065)" fill="#ffe7aa" opacity="0.5"/>
    <g id="Mask_Group_5" data-name="Mask Group 5" transform="translate(833 3)" clip-path="url(#clip-path)">
      <g id="bell" transform="translate(128.443 1082.225)">
        <circle id="Ellipse_21" data-name="Ellipse 21" cx="5.116" cy="5.116" r="5.116" transform="translate(36.717 35.315)" fill="url(#linear-gradient)"/>
        <path id="Path_320" data-name="Path 320" d="M203.833,396.975a5.116,5.116,0,0,0-5.093,4.64l5.57,5.57a5.116,5.116,0,0,0-.476-10.21Z" transform="translate(-162 -361.66)" fill="url(#linear-gradient-2)"/>
        <path id="Path_321" data-name="Path 321" d="M58.6,354.192H25.068a4.147,4.147,0,0,0,0,8.293H58.6a4.147,4.147,0,1,0,0-8.293Z" transform="translate(0 -322.683)" fill="url(#linear-gradient-3)"/>
        <path id="Path_322" data-name="Path 322" d="M89.888,28.381V20.069A14.37,14.37,0,0,0,79.035,6.137a4.074,4.074,0,1,0-7.026,0A14.369,14.369,0,0,0,61.158,20.069v8.312A3.258,3.258,0,0,1,57.9,31.639H93.145A3.257,3.257,0,0,1,89.888,28.381ZM75.523,5.7a1.629,1.629,0,1,1,1.63-1.629A1.629,1.629,0,0,1,75.523,5.7Z" transform="translate(-33.689)" fill="url(#linear-gradient-4)"/>
        <path id="Path_323" data-name="Path 323" d="M21.5,410.067a3.834,3.834,0,0,0,4.1,3.307H59.127a3.834,3.834,0,0,0,4.1-3.307Z" transform="translate(-0.527 -373.587)" fill="url(#linear-gradient-5)"/>
        <path id="Path_324" data-name="Path 324" d="M352.149,235.812V240.6l-6.379-6.379h.023a1.424,1.424,0,0,1,.914.278,7.317,7.317,0,0,0,4.314,1.4A7.446,7.446,0,0,0,352.149,235.812Z" transform="translate(-295.95 -213.384)" fill="url(#linear-gradient-6)"/>
        <circle id="Ellipse_22" data-name="Ellipse 22" cx="7.675" cy="7.675" r="7.675" transform="translate(47.397 7.487)" fill="url(#linear-gradient-7)"/>
        <path id="Path_325" data-name="Path 325" d="M385.346,113.52a.685.685,0,0,1,.3-.589l1.494-1.436a.527.527,0,0,1,.388-.158.834.834,0,0,1,.467.136.42.42,0,0,1,.208.366v9.509a.413.413,0,0,1-.23.366,1.117,1.117,0,0,1-1.07,0,.414.414,0,0,1-.223-.366v-7.986l-.5.632a.439.439,0,0,1-.316.144.45.45,0,0,1-.366-.194A.675.675,0,0,1,385.346,113.52Z" transform="translate(-332.005 -101.432)" fill="#fff"/>
      </g>
    </g>
  </g>
</svg>
