<svg xmlns="http://www.w3.org/2000/svg" xmlns:xlink="http://www.w3.org/1999/xlink" width="27.982" height="28.4" viewBox="0 0 27.982 28.4">
  <defs>
    <linearGradient id="linear-gradient" x1="0.5" y1="1.658" x2="0.5" y2="-0.472" gradientUnits="objectBoundingBox">
      <stop offset="0" stop-color="#fd4ffe"/>
      <stop offset="1" stop-color="#6bb0f8"/>
    </linearGradient>
  </defs>
  <path id="Decentralized" d="M19.333-93.424a2.824,2.824,0,0,1,2.824-2.824,2.827,2.827,0,0,1,2.824,2.824A2.824,2.824,0,0,1,22.157-90.6,2.824,2.824,0,0,1,19.333-93.424Zm.941,0a1.883,1.883,0,0,0,1.883,1.883,1.886,1.886,0,0,0,1.883-1.883,1.883,1.883,0,0,0-1.883-1.883A1.883,1.883,0,0,0,20.274-93.424Zm-12.108,0a2.824,2.824,0,0,1,2.824-2.824,2.826,2.826,0,0,1,2.824,2.824A2.824,2.824,0,0,1,10.991-90.6,2.824,2.824,0,0,1,8.167-93.424Zm.941,0a1.883,1.883,0,0,0,1.883,1.883,1.886,1.886,0,0,0,1.883-1.883,1.882,1.882,0,0,0-1.883-1.883A1.883,1.883,0,0,0,9.108-93.424Zm-12.1.236a2.825,2.825,0,0,1,2.344-3.02v-5.807A2.825,2.825,0,0,1-3-104.958,2.823,2.823,0,0,1-.333-107.62a2.824,2.824,0,0,1,2.942,2.35h5.6a2.823,2.823,0,0,1,2.784-2.354,2.823,2.823,0,0,1,2.785,2.354h5.6a2.831,2.831,0,0,1,2.314-2.314v-5.807a2.823,2.823,0,0,1-2.336-3.1,2.824,2.824,0,0,1,2.965-2.5,2.823,2.823,0,0,1,2.666,2.821,2.828,2.828,0,0,1-2.354,2.784v5.807a2.824,2.824,0,0,1,2.35,2.942,2.824,2.824,0,0,1-2.662,2.663,2.825,2.825,0,0,1-2.943-2.35h-5.6a2.823,2.823,0,0,1-2.785,2.354,2.823,2.823,0,0,1-2.784-2.354h-5.6A2.832,2.832,0,0,1,.3-102.015v5.807a2.823,2.823,0,0,1,2.343,3.02A2.823,2.823,0,0,1-.175-90.6,2.825,2.825,0,0,1-2.99-93.188Zm.932-.236A1.883,1.883,0,0,0-.175-91.541a1.883,1.883,0,0,0,1.883-1.883A1.887,1.887,0,0,0-.175-95.307,1.883,1.883,0,0,0-2.057-93.424ZM20.274-104.8a1.883,1.883,0,0,0,1.883,1.883A1.883,1.883,0,0,0,24.04-104.8a1.884,1.884,0,0,0-1.883-1.883A1.883,1.883,0,0,0,20.274-104.8Zm-11.166,0a1.883,1.883,0,0,0,1.883,1.883,1.884,1.884,0,0,0,1.883-1.883,1.882,1.882,0,0,0-1.883-1.883A1.883,1.883,0,0,0,9.108-104.8Zm-11.165,0a1.883,1.883,0,0,0,1.883,1.883A1.886,1.886,0,0,0,1.708-104.8a1.883,1.883,0,0,0-1.883-1.883A1.882,1.882,0,0,0-2.057-104.8Zm22.332-11.375a1.883,1.883,0,0,0,1.883,1.883,1.886,1.886,0,0,0,1.883-1.883,1.882,1.882,0,0,0-1.883-1.883A1.883,1.883,0,0,0,20.274-116.175Zm-12.108,0A2.824,2.824,0,0,1,10.991-119a2.824,2.824,0,0,1,2.824,2.824,2.824,2.824,0,0,1-2.824,2.824A2.828,2.828,0,0,1,8.167-116.175Zm.941,0a1.883,1.883,0,0,0,1.883,1.883,1.883,1.883,0,0,0,1.883-1.883,1.882,1.882,0,0,0-1.883-1.883A1.885,1.885,0,0,0,9.108-116.175Zm-12.107,0A2.824,2.824,0,0,1-.175-119a2.824,2.824,0,0,1,2.824,2.824,2.824,2.824,0,0,1-2.824,2.824A2.827,2.827,0,0,1-3-116.175Zm.941,0a1.883,1.883,0,0,0,1.883,1.883,1.883,1.883,0,0,0,1.883-1.883,1.883,1.883,0,0,0-1.883-1.883A1.884,1.884,0,0,0-2.057-116.175Z" transform="translate(3 119)" fill="url(#linear-gradient)"/>
</svg>
