<svg xmlns="http://www.w3.org/2000/svg" width="55.063" height="55" viewBox="0 0 55.063 55">
  <g id="discount" transform="translate(-999 -1747)">
    <rect id="Rectangle_160" data-name="Rectangle 160" width="55" height="55" transform="translate(999 1747)" fill="none"/>
    <g id="discount-2" data-name="discount" transform="translate(999.933 1746.999)">
      <path id="Path_276" data-name="Path 276" d="M44.608,183.514a3.741,3.741,0,0,1-3.737-3.737V159.609H36.289v24.75a3.74,3.74,0,0,0,3.737,3.736H75.552a3.74,3.74,0,0,0,3.736-3.736v-.845Zm0,0" transform="translate(-30.69 -135.233)" fill="#d4e1f4"/>
      <path id="Path_277" data-name="Path 277" d="M18.648,90.546v-6.32H17.8a3.742,3.742,0,0,0-3.737,3.737V93.6H31.935V90.546Zm0,0" transform="translate(-11.862 -71.362)" fill="#d4e1f4"/>
      <path id="Path_278" data-name="Path 278" d="M171.371,12.866a1.069,1.069,0,0,1-.756-1.825l9.409-9.409A5.568,5.568,0,0,1,187.9,9.506l-2.94,3.019a1.069,1.069,0,0,1-1.531-1.492L186.377,8a3.43,3.43,0,1,0-4.841-4.861l-9.408,9.409a1.07,1.07,0,0,1-.756.313Zm0,0" transform="translate(-144.237 0)" fill="#17e79b"/>
      <path id="Path_279" data-name="Path 279" d="M77.292,25.07a1.066,1.066,0,0,1-.756-.313l-.779-.779A5.568,5.568,0,0,1,83.632,16.1l7.122,7.122a1.069,1.069,0,0,1-1.512,1.512L82.12,17.616a3.43,3.43,0,1,0-4.851,4.851l.779.779a1.069,1.069,0,0,1-.756,1.825Zm0,0" transform="translate(-62.761 -12.273)" fill="#17e79b"/>
      <path id="Path_280" data-name="Path 280" d="M107.13,192.359a1.063,1.063,0,0,1-.381-.07l-3.4-1.293-3.394,1.293a1.069,1.069,0,0,1-1.276-.415L96.7,188.834l-3.507-.95A1.069,1.069,0,0,1,92.4,186.8l.181-3.628L90.3,180.342a1.069,1.069,0,0,1,0-1.342l2.279-2.829-.181-3.628a1.069,1.069,0,0,1,.788-1.085l3.507-.949,1.987-3.042a1.069,1.069,0,0,1,1.276-.414l3.394,1.292,3.4-1.293a1.068,1.068,0,0,1,1.275.415l1.987,3.042,3.507.949a1.069,1.069,0,0,1,.789,1.085l-.181,3.628L116.4,179a1.071,1.071,0,0,1,0,1.342l-2.279,2.829.181,3.628a1.069,1.069,0,0,1-.789,1.085l-3.507.95-1.987,3.041A1.066,1.066,0,0,1,107.13,192.359Zm-3.776-3.576a1.066,1.066,0,0,1,.381.07l2.971,1.132,1.738-2.662a1.071,1.071,0,0,1,.616-.447l3.069-.83-.158-3.175a1.069,1.069,0,0,1,.235-.724l1.994-2.475L112.2,177.2a1.068,1.068,0,0,1-.235-.724l.158-3.175-3.069-.83a1.071,1.071,0,0,1-.616-.447l-1.738-2.662-2.971,1.132a1.073,1.073,0,0,1-.761,0L100,169.356l-1.738,2.662a1.07,1.07,0,0,1-.616.447l-3.069.83.159,3.175a1.068,1.068,0,0,1-.236.724l-1.994,2.476,1.994,2.475a1.069,1.069,0,0,1,.236.724l-.159,3.175,3.069.83a1.07,1.07,0,0,1,.616.447L100,189.985l2.97-1.132A1.065,1.065,0,0,1,103.354,188.783Zm0,0" transform="translate(-76.255 -141.479)" fill="#17e79b"/>
      <g id="Group_322" data-name="Group 322" transform="translate(0.067 10.726)">
        <path id="Path_281" data-name="Path 281" d="M135.3,208.723a3.168,3.168,0,1,0-3.168-3.168A3.168,3.168,0,0,0,135.3,208.723Zm0-4.2a1.03,1.03,0,1,1-1.03,1.03A1.03,1.03,0,0,1,135.3,204.525Zm0,0" transform="translate(-111.963 -182.203)" fill="#165df5"/>
        <path id="Path_282" data-name="Path 282" d="M179.414,260.531a3.168,3.168,0,1,0,3.168-3.168A3.167,3.167,0,0,0,179.414,260.531Zm4.2,0a1.03,1.03,0,1,1-1.03-1.03A1.03,1.03,0,0,1,183.611,260.531Zm0,0" transform="translate(-152.024 -228.783)" fill="#165df5"/>
        <path id="Path_283" data-name="Path 283" d="M149.623,219.882a1.07,1.07,0,0,0,1.48-.311l6.722-10.308a1.069,1.069,0,1,0-1.791-1.168L149.312,218.4A1.07,1.07,0,0,0,149.623,219.882Zm0,0" transform="translate(-126.372 -186.62)" fill="#165df5"/>
        <path id="Path_284" data-name="Path 284" d="M1.136,83.877H3.461v24.75A5.881,5.881,0,0,0,9.336,114.5H44.862a5.881,5.881,0,0,0,5.874-5.874V83.877h2.325a1.069,1.069,0,0,0,1.069-1.069V76.1a5.881,5.881,0,0,0-5.874-5.875H5.942A5.882,5.882,0,0,0,.067,76.1v6.707a1.069,1.069,0,0,0,1.069,1.069ZM48.6,108.627a3.74,3.74,0,0,1-3.736,3.736H9.336A3.74,3.74,0,0,1,5.6,108.627V83.877h43ZM34.429,72.364H48.256A3.741,3.741,0,0,1,51.992,76.1v5.638H34.429Zm-12.218,0h10.08v9.375H22.211ZM2.2,76.1a3.742,3.742,0,0,1,3.737-3.737H20.073v9.375H2.2Zm0,0" transform="translate(-0.067 -70.226)" fill="#165df5"/>
      </g>
    </g>
  </g>
</svg>
