<svg xmlns="http://www.w3.org/2000/svg" xmlns:xlink="http://www.w3.org/1999/xlink" width="27.556" height="31.068" viewBox="0 0 27.556 31.068">
  <defs>
    <linearGradient id="linear-gradient" x1="0.5" y1="1.229" x2="0.5" y2="-0.247" gradientUnits="objectBoundingBox">
      <stop offset="0" stop-color="#fd4ffe"/>
      <stop offset="1" stop-color="#6bb0f8"/>
    </linearGradient>
  </defs>
  <path id="energy" d="M11.4-235.936a.441.441,0,0,1-.388-.424l-.3-11.85H5.169A.448.448,0,0,1,4.8-248.4a.433.433,0,0,1-.048-.406l7.032-17.913a.446.446,0,0,1,.52-.268.438.438,0,0,1,.336.474l-1.427,12.748h5.172a.448.448,0,0,1,.356.174.438.438,0,0,1,.072.385L11.887-236.25a.444.444,0,0,1-.427.318A.454.454,0,0,1,11.4-235.936ZM5.818-249.088h5.332a.442.442,0,0,1,.445.427l.238,9.419L15.8-252.889H10.72a.449.449,0,0,1-.331-.146.435.435,0,0,1-.111-.341l1.108-9.894Zm4.076,10.82A13.691,13.691,0,0,1-3-251.832,13.68,13.68,0,0,1,9.958-265.4a.442.442,0,0,1,.47.412.441.441,0,0,1-.418.464A12.8,12.8,0,0,0-2.111-251.832,12.808,12.808,0,0,0,9.95-239.144a.441.441,0,0,1,.418.452.443.443,0,0,1-.446.425Zm3.442-.645a.438.438,0,0,1,.334-.525,12.756,12.756,0,0,0,10-12.542,12.765,12.765,0,0,0-10.291-12.308.439.439,0,0,1-.347-.517.445.445,0,0,1,.525-.341,13.644,13.644,0,0,1,11,13.157,13.632,13.632,0,0,1-10.688,13.406.45.45,0,0,1-.1.011A.443.443,0,0,1,13.335-238.913Zm-3.5-1.557A11.471,11.471,0,0,1-.77-251.427,11.443,11.443,0,0,1,9.015-263.1a.444.444,0,0,1,.507.367.439.439,0,0,1-.372.5A10.564,10.564,0,0,0,.119-251.458,10.589,10.589,0,0,0,9.9-241.344a.44.44,0,0,1,.41.454.442.442,0,0,1-.445.42Zm4.242-.881a.437.437,0,0,1,.27-.56,10.526,10.526,0,0,0,7.085-10.537,10.569,10.569,0,0,0-8.286-9.646h0a.437.437,0,0,1-.324-.521.445.445,0,0,1,.52-.334A11.451,11.451,0,0,1,22.316-252.5a11.4,11.4,0,0,1-7.675,11.415.45.45,0,0,1-.149.025A.443.443,0,0,1,14.073-241.351Z" transform="translate(3 267)" fill="url(#linear-gradient)"/>
</svg>
