<svg xmlns="http://www.w3.org/2000/svg" xmlns:xlink="http://www.w3.org/1999/xlink" width="60" height="60" viewBox="0 0 60 60">
  <defs>
    <clipPath id="clip-path">
      <circle id="Ellipse_12" data-name="Ellipse 12" cx="30" cy="30" r="30" transform="translate(771 1683)" fill="#f5be36" opacity="0.1"/>
    </clipPath>
  </defs>
  <g id="engage" transform="translate(-771 -1683)">
    <circle id="Ellipse_9" data-name="Ellipse 9" cx="30" cy="30" r="30" transform="translate(771 1683)" fill="#f74d4d" opacity="0.1"/>
    <g id="Mask_Group_3" data-name="Mask Group 3" clip-path="url(#clip-path)">
      <g id="shake-hands" transform="translate(779.128 1709.022)">
        <g id="Group_338" data-name="Group 338" transform="translate(0 0)">
          <g id="Group_336" data-name="Group 336" transform="translate(0 0)">
            <g id="Group_335" data-name="Group 335" transform="translate(8.846)">
              <path id="Path_342" data-name="Path 342" d="M113.752,211.143l-7.7,7.695a8.565,8.565,0,0,0-2.487,6.718l7.869,7.861a8.584,8.584,0,0,0,6.724-2.485l8.784-8.775Z" transform="translate(-103.537 -208.12)" fill="#d78878"/>
              <path id="Path_343" data-name="Path 343" d="M296.523,274.267l8.232-8.223a2.139,2.139,0,0,0-3.026-3.023l-4.6,4.6Z" transform="translate(-280.034 -253.324)" fill="#d78878"/>
              <path id="Path_344" data-name="Path 344" d="M311.237,328.17a2.19,2.19,0,0,0-3.065.032l-3.982,3.978a.341.341,0,0,1-.582-.241,2.144,2.144,0,0,1,.629-1.517l3.94-3.936a2.17,2.17,0,0,1,3.007-.08,2.136,2.136,0,0,1,.5,2.417A2.131,2.131,0,0,0,311.237,328.17Z" transform="translate(-286.513 -316.758)" fill="#ca6e59"/>
              <path id="Path_345" data-name="Path 345" d="M271.212,348.487l4.6-4.6a2.139,2.139,0,1,0-3.026-3.023l-4.6,4.6Z" transform="translate(-254.119 -334.195)" fill="#d78878"/>
              <path id="Path_346" data-name="Path 346" d="M275.819,363.677a2.19,2.19,0,0,0-3.065.032l-3.982,3.978a.341.341,0,0,1-.582-.241,2.144,2.144,0,0,1,.629-1.517l3.94-3.936a2.17,2.17,0,0,1,3.007-.08,2.136,2.136,0,0,1,.5,2.416A2.132,2.132,0,0,0,275.819,363.677Z" transform="translate(-254.121 -355.299)" fill="#ca6e59"/>
              <path id="Path_347" data-name="Path 347" d="M235.791,383.872l4.6-4.6a2.139,2.139,0,0,0-3.026-3.023l-4.6,4.6Z" transform="translate(-221.724 -372.604)" fill="#d78878"/>
              <path id="Path_348" data-name="Path 348" d="M161.5,412.18l4.6-4.6a2.139,2.139,0,1,0-3.026-3.023l-8.232,8.223Z" transform="translate(-150.456 -403.935)" fill="#d78878"/>
              <g id="Group_334" data-name="Group 334" transform="translate(8.015 0)">
                <path id="Path_349" data-name="Path 349" d="M240.4,399.184a2.19,2.19,0,0,0-3.065.032l-3.982,3.978a.341.341,0,0,1-.582-.241,2.144,2.144,0,0,1,.629-1.517l3.94-3.936a2.17,2.17,0,0,1,3.007-.08,2.136,2.136,0,0,1,.5,2.416,2.129,2.129,0,0,0-.444-.652Z" transform="translate(-229.744 -393.84)" fill="#ca6e59"/>
                <path id="Path_350" data-name="Path 350" d="M204.98,428.813a2.19,2.19,0,0,0-3.065.032l-4.565,4.56a4.13,4.13,0,0,1,1.211-2.922l3.358-3.354a2.17,2.17,0,0,1,3.007-.08,2.136,2.136,0,0,1,.5,2.416A2.132,2.132,0,0,0,204.98,428.813Z" transform="translate(-197.35 -426.482)" fill="#ca6e59"/>
              </g>
            </g>
            <path id="Path_351" data-name="Path 351" d="M0,11.156a.856.856,0,0,1,.249-.683l5.26-5.232a2.57,2.57,0,0,1,3.632,0l7.3,7.3a2.564,2.564,0,0,1-.019,3.647L2.018,30.461a.171.171,0,0,1-.291-.106Z" transform="translate(0 12.467)" fill="#8ac9fe"/>
          </g>
          <g id="Group_337" data-name="Group 337" transform="translate(5.967)">
            <path id="Path_352" data-name="Path 352" d="M176.729,441.618a2.136,2.136,0,0,0,0,3.023l1.409,1.408a2.139,2.139,0,0,0,3.026-3.023l-1.409-1.408A2.142,2.142,0,0,0,176.729,441.618Z" transform="translate(-167.023 -440.992)" fill="#ffcebf"/>
            <path id="Path_353" data-name="Path 353" d="M181.165,451.054a2.16,2.16,0,0,1-.229.2,2.13,2.13,0,0,0-.627-1.51l-1.409-1.408a2.142,2.142,0,0,0-2.8-.2,2.14,2.14,0,0,1,3.653-1.514l1.409,1.408A2.136,2.136,0,0,1,181.165,451.054Z" transform="translate(-167.024 -445.997)" fill="#ffb09e"/>
            <path id="Path_354" data-name="Path 354" d="M141.308,406.233a2.136,2.136,0,0,0,0,3.023l1.409,1.408a2.139,2.139,0,1,0,3.026-3.023l-1.409-1.408A2.142,2.142,0,0,0,141.308,406.233Z" transform="translate(-134.629 -402.583)" fill="#ffcebf"/>
            <path id="Path_355" data-name="Path 355" d="M145.743,415.669a2.151,2.151,0,0,1-.229.2,2.13,2.13,0,0,0-.627-1.51l-1.409-1.408a2.142,2.142,0,0,0-2.8-.2,2.14,2.14,0,0,1,3.653-1.514l1.409,1.408A2.136,2.136,0,0,1,145.743,415.669Z" transform="translate(-134.628 -407.589)" fill="#ffb09e"/>
            <path id="Path_356" data-name="Path 356" d="M105.887,370.847a2.136,2.136,0,0,0,0,3.023l1.409,1.408a2.139,2.139,0,0,0,3.026-3.023l-1.409-1.408A2.141,2.141,0,0,0,105.887,370.847Z" transform="translate(-102.234 -364.174)" fill="#ffcebf"/>
            <path id="Path_357" data-name="Path 357" d="M110.322,380.284a2.158,2.158,0,0,1-.229.2,2.13,2.13,0,0,0-.627-1.51l-1.409-1.408a2.142,2.142,0,0,0-2.8-.2,2.14,2.14,0,0,1,3.653-1.514l1.409,1.408A2.136,2.136,0,0,1,110.322,380.284Z" transform="translate(-102.234 -369.18)" fill="#ffb09e"/>
            <path id="Path_358" data-name="Path 358" d="M70.466,335.462a2.136,2.136,0,0,0,0,3.023l1.409,1.408A2.139,2.139,0,0,0,74.9,336.87l-1.409-1.408A2.142,2.142,0,0,0,70.466,335.462Z" transform="translate(-69.839 -325.766)" fill="#ffcebf"/>
            <path id="Path_359" data-name="Path 359" d="M74.9,344.9a2.156,2.156,0,0,1-.229.2,2.13,2.13,0,0,0-.627-1.51l-1.409-1.408a2.142,2.142,0,0,0-2.8-.2,2.14,2.14,0,0,1,3.653-1.514l1.409,1.408A2.136,2.136,0,0,1,74.9,344.9Z" transform="translate(-69.839 -330.772)" fill="#ffb09e"/>
          </g>
          <path id="Path_360" data-name="Path 360" d="M205.577,215.192h-1.634a3.913,3.913,0,0,1-2.915-1.3l-5.077-5.669a1.35,1.35,0,0,1,.052-1.856,3,3,0,0,1,4.244,0l2.972,2.969a1.284,1.284,0,0,0,1.815,0l6.11-6.1a8.856,8.856,0,0,1,3.544,4.4Z" transform="translate(-178.894 -189.194)" fill="#ffcebf"/>
          <path id="Path_361" data-name="Path 361" d="M327.848,19.723a.856.856,0,0,0-.242-.719l-5.246-5.257a2.57,2.57,0,0,0-3.632,0l-7.323,7.316a2.564,2.564,0,0,0,0,3.628l13.541,13.524a.257.257,0,0,0,.436-.147Z" transform="translate(-284.111 3.961)" fill="#fe646f"/>
          <path id="Path_362" data-name="Path 362" d="M340.012,153.888l0,0-.908-.907,10.836-11.053,0,0,.907.909Z" transform="translate(-310.128 -122.656)" fill="#fd4755"/>
          <path id="Path_363" data-name="Path 363" d="M53.452,159.471l-.911.9-.012-.011L41.722,149.339l.91-.905.007.006,10.806,11.023.007.008Z" transform="translate(-38.157 -129.694)" fill="#60b7ff"/>
        </g>
        <g id="Group_341" data-name="Group 341" transform="translate(15.397 -19.425)">
          <g id="Group_339" data-name="Group 339" transform="translate(0 0)">
            <circle id="Ellipse_11" data-name="Ellipse 11" cx="6.484" cy="6.484" r="6.484" fill="#98d5b9"/>
          </g>
          <g id="Group_340" data-name="Group 340" transform="translate(3.107 4.496)">
            <path id="Path_364" data-name="Path 364" d="M218.937,67a1.237,1.237,0,0,1-.878-.363l-1.292-1.292a.642.642,0,0,1,.908-.908l1.262,1.261,3.3-3.3a.642.642,0,0,1,.908.908l-3.329,3.329A1.238,1.238,0,0,1,218.937,67Z" transform="translate(-216.58 -62.214)" fill="#fff"/>
          </g>
        </g>
      </g>
    </g>
  </g>
</svg>
