<svg xmlns="http://www.w3.org/2000/svg" width="62" height="62" viewBox="0 0 62 62">
  <g id="england" transform="translate(-1 -1)">
    <path id="Path_1634" data-name="Path 1634" d="M24,28H40v4H24Z" fill="#fd6b3b" opacity="0.15"/>
    <circle id="Ellipse_231" data-name="Ellipse 231" cx="4" cy="4" r="4" transform="translate(28 38)" fill="#fd6b3b" opacity="0.15"/>
    <g id="Group_6444" data-name="Group 6444">
      <path id="Path_1635" data-name="Path 1635" d="M27,42a5,5,0,1,0,5-5A5.006,5.006,0,0,0,27,42Zm5-3a3,3,0,1,1-3,3A3,3,0,0,1,32,39Z" fill="#fd6b3b"/>
      <path id="Path_1636" data-name="Path 1636" d="M41,48.816A3,3,0,0,0,43,46V38a3,3,0,0,0-2-2.816V21H39v4l-1.2-1.6A1,1,0,0,0,37,23V14H35v2.63A17.348,17.348,0,0,1,33.184,11H35V9H33.017c0-.062-.007-.125-.008-.187A2.983,2.983,0,0,0,33,3.184V1H31V3.184a2.983,2.983,0,0,0-.009,5.629c0,.062-.007.125-.008.187H29v2h1.816A17.348,17.348,0,0,1,29,16.63V14H27v9a1,1,0,0,0-.8.4L25,25V21H23V35.184A3,3,0,0,0,21,38v8a3,3,0,0,0,2,2.816V61H1v2H63V61H41ZM27,51v2H25V49H39v4H37V51H35v2H33V51H31v2H29V51Zm4,4v6H29V55Zm2,0h2v6H33Zm4,0h2v6H37ZM25,29H39v2H25Zm0,4H39v2H25Zm9.067-14H29.932A19.3,19.3,0,0,0,32,14.676,19.393,19.393,0,0,0,34.067,19ZM32,5a1,1,0,1,1-1,1A1,1,0,0,1,32,5ZM29,21h6v2H29Zm-1.5,4h9L38,27H26ZM23,38a1,1,0,0,1,1-1H40a1,1,0,0,1,1,1v8a1,1,0,0,1-1,1H24a1,1,0,0,1-1-1Zm2,17h2v6H25Z" fill="#fd6b3b"/>
      <path id="Path_1637" data-name="Path 1637" d="M7.232,44.318a6.035,6.035,0,0,0,5.535,0A3.96,3.96,0,0,0,15,45a4,4,0,0,0,.677-7.942,6,6,0,0,0-11.354,0A4,4,0,0,0,5,45a3.954,3.954,0,0,0,2.232-.682ZM3,41a1.994,1.994,0,0,1,1.913-2.005c.037.005.12.013.157.015a1.022,1.022,0,0,0,1.01-.8,4,4,0,0,1,7.84,0,1,1,0,0,0,.98.8,1.225,1.225,0,0,0,.14-.01A2,2,0,0,1,15,43a1.982,1.982,0,0,1-1.428-.6,1,1,0,0,0-1.288-.12,4.028,4.028,0,0,1-4.568,0,1,1,0,0,0-1.288.12A1.982,1.982,0,0,1,5,43a2,2,0,0,1-2-2Z" fill="#fd6b3b"/>
      <path id="Path_1638" data-name="Path 1638" d="M59.677,15.058a6,6,0,0,0-11.354,0A4,4,0,0,0,49,23a3.954,3.954,0,0,0,2.232-.682,6.035,6.035,0,0,0,5.535,0A3.96,3.96,0,0,0,59,23a4,4,0,0,0,.677-7.942ZM59,21a1.982,1.982,0,0,1-1.428-.6,1,1,0,0,0-1.288-.12,4.028,4.028,0,0,1-4.568,0,1,1,0,0,0-1.288.12A1.982,1.982,0,0,1,49,21a2,2,0,0,1-.087-4.005c.037,0,.12.013.157.015a1.026,1.026,0,0,0,1.01-.8,4,4,0,0,1,7.84,0,1,1,0,0,0,.98.8c.034,0,.083,0,.14-.01A2,2,0,0,1,59,21Z" fill="#fd6b3b"/>
    </g>
  </g>
</svg>
