<svg xmlns="http://www.w3.org/2000/svg" width="62" height="62" viewBox="0 0 62 62">
  <g id="france" transform="translate(-1 -1)">
    <path id="Path_1639" data-name="Path 1639" d="M18,44H46v4H18Z" fill="#6c45f3" opacity="0.15"/>
    <path id="Path_1640" data-name="Path 1640" d="M22,34H42v4H22Z" fill="#6c45f3" opacity="0.15"/>
    <g id="Group_6445" data-name="Group 6445">
      <path id="Path_1641" data-name="Path 1641" d="M63,52a5,5,0,1,0-6,4.9V61H52.484a67.143,67.143,0,0,1-7.941-12H46a1,1,0,0,0,1-1V44a1,1,0,0,0-1-1H41.783c-.524-1.314-1-2.652-1.444-4H42a1,1,0,0,0,1-1V34a1,1,0,0,0-1-1H38.669A67.161,67.161,0,0,1,37,18.16V10a1,1,0,0,0-1-1H35V6a1,1,0,0,0-1-1H33V1H31V5H30a1,1,0,0,0-1,1V9H28a1,1,0,0,0-1,1v8.16A67.161,67.161,0,0,1,25.331,33H22a1,1,0,0,0-1,1v4a1,1,0,0,0,1,1h1.661c-.441,1.348-.92,2.685-1.444,4H18a1,1,0,0,0-1,1v4a1,1,0,0,0,1,1h1.482a67.082,67.082,0,0,1-7.957,12H7V56.9a5,5,0,1,0-2,0V61H1v2H63V61H59V56.9A5.009,5.009,0,0,0,63,52ZM3,52a3,3,0,1,1,4,2.816V51H5v3.816A3,3,0,0,1,3,52Zm36.642-9H36.721l-1.333-4h2.846C38.66,40.346,39.133,41.68,39.642,43Zm-6.363-4,1.333,4H29.387l1.333-4Zm1.742-19.393L33.414,18,35,16.414V18.16C35,18.643,35.011,19.125,35.021,19.607ZM32,16.586,30.414,15h3.172Zm-3-.172L30.586,18l-1.607,1.607c.01-.482.021-.964.021-1.447Zm-.262,7.738L30.586,26l-2.342,2.342q.311-2.087.494-4.19ZM29.414,22,32,19.414,34.586,22,32,24.586Zm5.848,2.152q.183,2.1.494,4.19L33.414,26ZM31,7h2V9H31Zm-2,4h6v2H29ZM27.639,31.775,32,27.414l4.361,4.361c.082.409.17.817.259,1.225H27.38C27.469,32.592,27.557,32.184,27.639,31.775ZM23,35H41v2H23Zm2.766,4h2.846l-1.333,4H24.358c.509-1.32.982-2.654,1.408-4ZM19,45H45v2H19Zm2.724,4h20.55a69.175,69.175,0,0,0,7.62,12H41V60a9,9,0,1,0-18,0v1H14.107a69.159,69.159,0,0,0,7.617-12ZM39,61H25V60a7,7,0,0,1,14,0Zm16-9a3,3,0,1,1,4,2.816V51H57v3.816A3,3,0,0,1,55,52Z" fill="#6c45f3"/>
      <path id="Path_1642" data-name="Path 1642" d="M7.232,32.318a6.041,6.041,0,0,0,5.535,0A3.96,3.96,0,0,0,15,33a4,4,0,0,0,.677-7.942,6,6,0,0,0-11.354,0A4,4,0,0,0,5,33a3.954,3.954,0,0,0,2.232-.682ZM3,29a1.994,1.994,0,0,1,1.913-2.005c.037,0,.12.013.158.015a1.018,1.018,0,0,0,1.009-.8,4,4,0,0,1,7.84,0,1,1,0,0,0,.98.8,1.225,1.225,0,0,0,.14-.01,2,2,0,1,1-1.469,3.4,1,1,0,0,0-1.287-.12,4.028,4.028,0,0,1-4.568,0,1,1,0,0,0-1.287.12A2,2,0,0,1,3,29Z" fill="#6c45f3"/>
      <path id="Path_1643" data-name="Path 1643" d="M59.677,25.058a6,6,0,0,0-11.354,0A4,4,0,0,0,49,33a3.954,3.954,0,0,0,2.232-.682,6.041,6.041,0,0,0,5.535,0A3.96,3.96,0,0,0,59,33a4,4,0,0,0,.677-7.942ZM59,31a1.99,1.99,0,0,1-1.429-.6,1,1,0,0,0-1.287-.12,4.028,4.028,0,0,1-4.568,0,1,1,0,0,0-1.287.12,2,2,0,1,1-1.516-3.4c.037,0,.121.013.158.015a1.014,1.014,0,0,0,1.009-.8,4,4,0,0,1,7.84,0,1,1,0,0,0,.98.8,1.211,1.211,0,0,0,.14-.01A2,2,0,0,1,59,31Z" fill="#6c45f3"/>
    </g>
  </g>
</svg>
