<svg xmlns="http://www.w3.org/2000/svg" width="62" height="62" viewBox="0 0 62 62">
  <g id="golden-gate-bridge" transform="translate(-1 -1)">
    <path id="Path_1651" data-name="Path 1651" d="M27,6c-.034,0-.066.009-.1.01a5,5,0,0,0-9.8,0c-.034,0-.066-.01-.1-.01a3,3,0,1,0,2.143,5.1,4.962,4.962,0,0,0,5.714,0A3,3,0,1,0,27,6Z" fill="#58d5d3" opacity="0.15"/>
    <path id="Path_1652" data-name="Path 1652" d="M47,10c-.034,0-.066.009-.1.01a5,5,0,0,0-9.8,0c-.034,0-.066-.01-.1-.01a3,3,0,1,0,2.143,5.1,4.962,4.962,0,0,0,5.714,0A3,3,0,1,0,47,10Z" fill="#58d5d3" opacity="0.15"/>
    <g id="Group_6447" data-name="Group 6447">
      <path id="Path_1653" data-name="Path 1653" d="M1,44H3v3a1,1,0,0,0,1,1H5v9H4a1,1,0,0,0-1,1v3H1v2H63V61H61V58a1,1,0,0,0-1-1H59V48h1a1,1,0,0,0,1-1V44h2V42H1Zm51,4h1v9H52a1,1,0,0,0-1,1v3H13V58a1,1,0,0,0-1-1H11V48h1a1,1,0,0,0,1-1V44H51v3A1,1,0,0,0,52,48ZM11,46H5V44h6ZM7,48H9v9H7ZM5,59h6v2H5Zm48,2V59h6v2Zm4-4H55V48h2Zm2-11H53V44h6Z" fill="#58d5d3"/>
      <path id="Path_1654" data-name="Path 1654" d="M59,4a3,3,0,0,0-6,0V9A21,21,0,0,1,11,9V4A3,3,0,0,0,5,4V38H1v2H63V38H59ZM57,25H55V17h2Zm-2,2h2V38H55ZM56,3a1,1,0,0,1,1,1V5H55V4A1,1,0,0,1,56,3ZM55,7h2v8H55ZM53,38H51V21.944a23.018,23.018,0,0,0,2-3.581ZM49,24.476V38H45V27.96A23.151,23.151,0,0,0,49,24.476Zm-22,6.97a22.9,22.9,0,0,0,4,.529V38H27ZM25,38H21V29.194a22.923,22.923,0,0,0,4,1.714Zm8-6.025a22.9,22.9,0,0,0,4-.529V38H33Zm6-1.068a22.847,22.847,0,0,0,4-1.714V38H39ZM19,27.96V38H15V24.476A23.151,23.151,0,0,0,19,27.96Zm-6-6.016V38H11V18.363A22.927,22.927,0,0,0,13,21.944ZM9,25H7V17H9ZM9,15H7V7H9ZM8,3A1,1,0,0,1,9,4V5H7V4A1,1,0,0,1,8,3ZM7,38V27H9V38Z" fill="#58d5d3"/>
      <path id="Path_1655" data-name="Path 1655" d="M19.232,12.318a6.041,6.041,0,0,0,5.535,0A3.96,3.96,0,0,0,27,13a4,4,0,0,0,.677-7.942,6,6,0,0,0-11.354,0A4,4,0,0,0,17,13,3.954,3.954,0,0,0,19.232,12.318ZM15,9a1.994,1.994,0,0,1,1.913-2.005c.037.005.12.013.158.015a1.01,1.01,0,0,0,1.009-.8,4,4,0,0,1,7.84,0,1,1,0,0,0,.98.8A1.211,1.211,0,0,0,27.04,7a2,2,0,1,1-1.469,3.4,1,1,0,0,0-1.287-.12,4.028,4.028,0,0,1-4.568,0,1,1,0,0,0-1.287.12A2,2,0,0,1,15,9Z" fill="#58d5d3"/>
      <path id="Path_1656" data-name="Path 1656" d="M39.232,16.318a6.041,6.041,0,0,0,5.535,0A3.96,3.96,0,0,0,47,17a4,4,0,0,0,.677-7.942,6,6,0,0,0-11.354,0A4,4,0,0,0,37,17,3.954,3.954,0,0,0,39.232,16.318ZM35,13A1.994,1.994,0,0,1,36.913,11c.037.005.121.013.158.015a1.03,1.03,0,0,0,1.009-.8,4,4,0,0,1,7.84,0,1,1,0,0,0,.98.8,1.225,1.225,0,0,0,.14-.01,2,2,0,1,1-1.469,3.4,1,1,0,0,0-1.287-.12,4.028,4.028,0,0,1-4.568,0,1,1,0,0,0-1.287.12A2,2,0,0,1,35,13Z" fill="#58d5d3"/>
      <path id="Path_1657" data-name="Path 1657" d="M40,50a3,3,0,0,1-3-3H35a3,3,0,0,1-6,0H27a3,3,0,0,1-6,0H19a4.985,4.985,0,0,0,9,2.969,4.954,4.954,0,0,0,8,0A4.985,4.985,0,0,0,45,47H43A3,3,0,0,1,40,50Z" fill="#58d5d3"/>
      <path id="Path_1658" data-name="Path 1658" d="M40,57a3,3,0,0,1-3-3H35a3,3,0,0,1-6,0H27a3,3,0,0,1-6,0H19a4.985,4.985,0,0,0,9,2.969,4.954,4.954,0,0,0,8,0A4.985,4.985,0,0,0,45,54H43A3,3,0,0,1,40,57Z" fill="#58d5d3"/>
    </g>
  </g>
</svg>
