<svg xmlns="http://www.w3.org/2000/svg" xmlns:xlink="http://www.w3.org/1999/xlink" width="33.216" height="30.837" viewBox="0 0 33.216 30.837">
  <defs>
    <linearGradient id="linear-gradient" x1="0.5" y1="1.312" x2="0.5" y2="-0.38" gradientUnits="objectBoundingBox">
      <stop offset="0" stop-color="#fd4ffe"/>
      <stop offset="1" stop-color="#6bb0f8"/>
    </linearGradient>
  </defs>
  <path id="houses" d="M5.588,30.432V25.014a.405.405,0,1,1,.81,0v5.418a.405.405,0,0,1-.81,0Zm-2.13-.066V28.412a.405.405,0,0,1,.81,0v1.954a.405.405,0,0,1-.81,0Zm4.262-.609v-2.2a.4.4,0,1,1,.81,0v2.2a.4.4,0,1,1-.81,0Zm-6.392-.066V28.144a.405.405,0,0,1,.81,0v1.547a.405.405,0,1,1-.81,0ZM19.493,21.6a6.862,6.862,0,1,1,6.862,6.862A6.861,6.861,0,0,1,19.493,21.6Zm.81,0a6.052,6.052,0,1,0,6.052-6.052A6.051,6.051,0,0,0,20.3,21.6ZM3.458,26.952V22.128a.405.405,0,0,1,.81,0v4.824a.405.405,0,0,1-.81,0Zm-2.13-.311V25.034a.405.405,0,1,1,.81,0v1.607a.405.405,0,0,1-.81,0Zm6.392-.517V24.17a.4.4,0,1,1,.81,0v1.955a.4.4,0,1,1-.81,0Zm18.23-.178v-.639a2.1,2.1,0,0,1-1.687-2.053.4.4,0,0,1,.81,0,1.283,1.283,0,0,0,1.27,1.283h.024a1.283,1.283,0,0,0-.012-2.565,2.092,2.092,0,0,1-.4-4.145v-.562a.4.4,0,0,1,.81,0v.563a2.1,2.1,0,0,1,1.688,2.053.4.4,0,1,1-.81,0,1.283,1.283,0,1,0-1.283,1.283,2.093,2.093,0,0,1,.405,4.145v.639a.4.4,0,1,1-.81,0ZM1.327,23.888V9.625l-.681.5A.4.4,0,1,1,.17,9.465L4.693,6.179a.405.405,0,0,1,.477,0l2.55,1.86V6.9a.4.4,0,1,1,.81,0V8.63l1.157.844a.4.4,0,0,1-.477.654l-.68-.5V22.716a.4.4,0,1,1-.81,0V9.042L4.93,7.007,2.138,9.037V23.888a.405.405,0,1,1-.81,0Zm4.261-.352V20.947a.405.405,0,0,1,.81,0v2.589a.405.405,0,1,1-.81,0Zm9.555-2.088v-.2a.405.405,0,1,1,.81,0v.2a.405.405,0,1,1-.81,0Zm-2.131-.066V18.073a.405.405,0,1,1,.81,0v3.309a.405.405,0,1,1-.81,0Zm-9.554-.773V20.1a.405.405,0,0,1,.81,0v.512a.405.405,0,1,1-.81,0Zm2.13-.82V19.3a.405.405,0,0,1,.81,0v.492a.405.405,0,1,1-.81,0Zm9.555-.02V13.33a.405.405,0,1,1,.81,0v6.439a.405.405,0,1,1-.81,0Zm2.13-1.7v-.847a.4.4,0,0,1,.81,0v.847a.4.4,0,0,1-.81,0Zm-6.392-.066V16.46a.405.405,0,1,1,.81,0v1.547a.405.405,0,1,1-.81,0Zm2.13-1.278V16.6a.405.405,0,1,1,.81,0v.132a.405.405,0,1,1-.81,0Zm7.825-.159a.406.406,0,0,1-.4-.406v-.776a.4.4,0,0,1,.405-.4h0a.4.4,0,0,1,.4.4v.776a.406.406,0,0,1-.405.405Zm-3.564-.779V2.94L14.486.906,11.693,2.935V14.957a.405.405,0,1,1-.81,0V3.524l-.681.5a.405.405,0,1,1-.477-.655L14.248.077a.405.405,0,0,1,.477,0l2.55,1.86V.8a.4.4,0,1,1,.81,0V2.529l1.156.843a.405.405,0,0,1-.478.654l-.68-.495V15.791a.4.4,0,1,1-.81,0Zm-4.262-.522V10.444a.405.405,0,0,1,.81,0v4.824a.405.405,0,0,1-.81,0Zm9.556-.787V12.219a.4.4,0,1,1,.81,0v2.263a.4.4,0,1,1-.81,0Zm-2.133-.4,0-5.392-.681.5a.405.405,0,0,1-.476-.656L23.8,5.243a.407.407,0,0,1,.477,0L26.829,7.1V5.963a.405.405,0,0,1,.405-.4h0a.4.4,0,0,1,.4.405l0,1.729,1.159.845a.405.405,0,1,1-.478.654l-.683-.5v3.488a.4.4,0,1,1-.81,0V9.959l0-1.856L24.041,6.071,21.248,8.1l0,5.981a.405.405,0,0,1-.81,0Zm4.263-.3v-1.8a.405.405,0,0,1,.81,0v1.8a.405.405,0,0,1-.81,0Zm2.13-.054v-.324a.4.4,0,1,1,.81,0v.324a.4.4,0,1,1-.81,0ZM15.143,11.963v-.111a.405.405,0,1,1,.81,0v.111a.405.405,0,1,1-.81,0Zm7.425-1.131v-.026a.4.4,0,1,1,.81,0v.026a.4.4,0,1,1-.81,0Z" transform="translate(0 0)" fill="url(#linear-gradient)"/>
</svg>
