<svg id="Layers" xmlns="http://www.w3.org/2000/svg" width="24" height="24" viewBox="0 0 24 24">
  <path id="Bound" d="M0,0H24V24H0Z" fill="none" fill-rule="evenodd"/>
  <path id="Shape" d="M12.934,16.072l6.426-5.116.158-.125a1.5,1.5,0,0,0,0-2.35L12.934,3.243a1.5,1.5,0,0,0-1.867,0L4.475,8.485a1.5,1.5,0,0,0,0,2.347l.156.124,6.436,5.117A1.5,1.5,0,0,0,12.934,16.072Z" fill="#19a389"/>
  <path id="Path" d="M11.056,18.671l-5.72-4.548a.9.9,0,0,0-1.269.145l-.007.009h0a.909.909,0,0,0,.162,1.275l0,0L11.087,20.8a1.5,1.5,0,0,0,1.822,0l6.858-5.243a.915.915,0,0,0,.171-1.283l0-.005h0a.911.911,0,0,0-1.278-.161l-.009.007-5.725,4.553A1.5,1.5,0,0,1,11.056,18.671Z" fill="#19a389" fill-rule="evenodd" opacity="0.3"/>
</svg>
