<svg xmlns="http://www.w3.org/2000/svg" xmlns:xlink="http://www.w3.org/1999/xlink" width="36.186" height="23.304" viewBox="0 0 36.186 23.304">
  <defs>
    <linearGradient id="linear-gradient" x1="0.5" y1="1.216" x2="0.5" y2="-0.194" gradientUnits="objectBoundingBox">
      <stop offset="0" stop-color="#fd4ffe"/>
      <stop offset="1" stop-color="#6bb0f8"/>
    </linearGradient>
  </defs>
  <path id="leaves" d="M35.669,1.508A23.6,23.6,0,0,0,26,.519C22.426.9,19.664,2.182,18.015,4.212a8,8,0,0,0-.931,8.428,7.6,7.6,0,0,0,.476.814,24.273,24.273,0,0,0-1.444,4.177c-.234-.286-.491-.586-.769-.887.037-.081.073-.169.11-.256a6.193,6.193,0,0,0-1.319-6.471,8.912,8.912,0,0,0-6.4-2.294A18.069,18.069,0,0,0,.448,9.145a.729.729,0,0,0-.388.96.758.758,0,0,0,.308.352,7.2,7.2,0,0,1,3.063,3.591c.154.4.271.821.4,1.26.1.33.19.674.308,1.011a6.458,6.458,0,0,0,.733,1.561A5.541,5.541,0,0,0,9.58,20.35a6.5,6.5,0,0,0,4.961-2.308c.41.462.762.909,1.07,1.327a14.216,14.216,0,0,1,2.228,4.324l1.422-.359a14.66,14.66,0,0,0-1.979-4.126,22.191,22.191,0,0,1,1.341-4.514,8.3,8.3,0,0,0,5.54,2.221H24.3a7.181,7.181,0,0,0,6.471-3.73,8.332,8.332,0,0,0,.755-2.089c.11-.454.2-.916.278-1.356.11-.6.22-1.173.374-1.729A9.678,9.678,0,0,1,35.874,2.8a.738.738,0,0,0,.183-1.019.852.852,0,0,0-.388-.271ZM14.2,15.608a23.393,23.393,0,0,0-7.8-4.719l-.513,1.37a21.756,21.756,0,0,1,7.622,4.719,4.932,4.932,0,0,1-3.408,1.883,4.112,4.112,0,0,1-4.024-1.788,5.1,5.1,0,0,1-.564-1.217c-.1-.308-.19-.615-.286-.945-.132-.454-.264-.924-.44-1.385a8.543,8.543,0,0,0-2.506-3.5A16.75,16.75,0,0,1,7.7,9.2c1.656.029,3.928.366,5.372,1.847A4.789,4.789,0,0,1,14.2,15.608ZM30.759,7.62c-.176.615-.293,1.246-.4,1.854-.081.447-.161.872-.264,1.29a7.139,7.139,0,0,1-.615,1.73,5.742,5.742,0,0,1-5.291,2.953,6.755,6.755,0,0,1-4.91-2.184c0-.007.007-.015.007-.022a16.477,16.477,0,0,1,3.554-4.793A12.946,12.946,0,0,1,28.9,5.334L28.6,3.9a14.3,14.3,0,0,0-6.75,3.466,17.607,17.607,0,0,0-3.5,4.514,6.56,6.56,0,0,1,.806-6.742c1.773-2.184,4.786-2.924,7.006-3.166a22.1,22.1,0,0,1,7.732.542A11.032,11.032,0,0,0,30.759,7.62Zm0,0" transform="translate(0 -0.388)" fill="url(#linear-gradient)"/>
</svg>
