<svg id="Miso-soup" xmlns="http://www.w3.org/2000/svg" width="24" height="24" viewBox="0 0 24 24">
  <rect id="bound" width="24" height="24" fill="none"/>
  <path id="Combined-Shape" d="M2,14H22a9,9,0,0,1-9,9H11A9,9,0,0,1,2,14Z" fill="#fff" fill-rule="evenodd"/>
  <path id="Combined-Shape-2" data-name="Combined-Shape" d="M16.723,1.418a.964.964,0,0,1,.353,1.317l-.018.03-6.52,10.4a.518.518,0,0,1-.9-.518L15.389,1.8a.964.964,0,0,1,1.3-.4Zm5.153,2.8a.964.964,0,0,1-.071,1.362l-.026.023L12.363,13.48a.518.518,0,0,1-.693-.77l8.819-8.541a.964.964,0,0,1,1.364.022Z" fill="#fff" fill-rule="evenodd" opacity="0.5"/>
</svg>
