<svg xmlns="http://www.w3.org/2000/svg" width="55" height="55" viewBox="0 0 55 55">
  <g id="name" transform="translate(-999 -1747)">
    <rect id="Rectangle_160" data-name="Rectangle 160" width="55" height="55" transform="translate(999 1747)" fill="none"/>
    <g id="name-2" data-name="name" transform="translate(1007 1747.233)">
      <path id="Path_271" data-name="Path 271" d="M15.747,61.148v-42.7a4.714,4.714,0,0,1,4.6-4.825H46.631A4.634,4.634,0,0,0,42.183,10H14.6A4.714,4.714,0,0,0,10,14.825v42.7a4.714,4.714,0,0,0,4.6,4.825h1.3a4.606,4.606,0,0,1-.15-1.206Zm0,0" transform="translate(-8.794 -8.794)" fill="#d4e1f4"/>
      <path id="Path_272" data-name="Path 272" d="M33.436,0H5.765A5.905,5.905,0,0,0,0,6.032v42.7a5.905,5.905,0,0,0,5.765,6.032H33.436A5.905,5.905,0,0,0,39.2,48.735V6.032A5.905,5.905,0,0,0,33.436,0ZM36.9,48.735a3.552,3.552,0,0,1-3.459,3.619H5.765a3.552,3.552,0,0,1-3.459-3.619V6.032A3.552,3.552,0,0,1,5.765,2.413H33.436A3.552,3.552,0,0,1,36.9,6.032Zm0,0" fill="#165df5"/>
      <path id="Path_273" data-name="Path 273" d="M129.158,47.1h-9.65a1.206,1.206,0,1,0,0,2.413h9.65a1.206,1.206,0,1,0,0-2.413Zm0,0" transform="translate(-104.924 -41.42)" fill="#165df5"/>
      <g id="Group_317" data-name="Group 317" transform="translate(10.023 16.599)">
        <path id="Path_274" data-name="Path 274" d="M124.537,150.075a6.237,6.237,0,1,0-6.237-6.237A6.237,6.237,0,0,0,124.537,150.075Zm0-10.049a3.824,3.824,0,1,1-3.824,3.824A3.824,3.824,0,0,1,124.537,140.026Zm0,0" transform="translate(-114.959 -137.602)" fill="#17e79b"/>
        <path id="Path_275" data-name="Path 275" d="M100.18,260.1a9.359,9.359,0,0,0-6.779,2.835,10,10,0,0,0-2.8,7.081,1.209,1.209,0,0,0,1.206,1.206h16.743a1.209,1.209,0,0,0,1.206-1.206,10,10,0,0,0-2.8-7.081,9.359,9.359,0,0,0-6.779-2.835ZM93.1,268.81a7.376,7.376,0,0,1,2.027-4.186,7.106,7.106,0,0,1,10.109,0,7.415,7.415,0,0,1,2.027,4.186Zm0,0" transform="translate(-90.602 -245.323)" fill="#17e79b"/>
      </g>
    </g>
  </g>
</svg>
