<svg xmlns="http://www.w3.org/2000/svg" xmlns:xlink="http://www.w3.org/1999/xlink" width="30.921" height="30.922" viewBox="0 0 30.921 30.922">
  <defs>
    <linearGradient id="linear-gradient" x1="0.5" y1="0.965" x2="0.5" y2="0.081" gradientUnits="objectBoundingBox">
      <stop offset="0" stop-color="#fd4ffe"/>
      <stop offset="1" stop-color="#6bb0f8"/>
    </linearGradient>
    <linearGradient id="linear-gradient-2" x1="0.5" y1="1.541" x2="0.5" y2="-0.438" gradientUnits="objectBoundingBox">
      <stop offset="0.322" stop-color="#a163f5"/>
      <stop offset="0.466" stop-color="#b074ee"/>
      <stop offset="0.752" stop-color="#d8a1dd"/>
      <stop offset="0.898" stop-color="#efbad3"/>
    </linearGradient>
    <linearGradient id="linear-gradient-3" x1="0.5" y1="9.959" x2="0.5" y2="-14.901" xlink:href="#linear-gradient-2"/>
    <linearGradient id="linear-gradient-7" x1="0.5" y1="9.959" x2="0.5" y2="-14.901" xlink:href="#linear-gradient-2"/>
    <linearGradient id="linear-gradient-8" x1="0.501" y1="5.291" x2="0.501" y2="-3.817" xlink:href="#linear-gradient-2"/>
  </defs>
  <g id="networking" transform="translate(-0.018 0.001)">
    <g id="Group_113" data-name="Group 113" transform="translate(0.018 -0.001)">
      <path id="Path_173" data-name="Path 173" d="M28.9,13.423a2.04,2.04,0,0,0-2,1.674H23.957a8.454,8.454,0,0,0-2.247-5.379L23.8,7.632a2.033,2.033,0,1,0-.525-.541l-2.1,2.1a8.454,8.454,0,0,0-5.381-2.193V4.05a2.038,2.038,0,1,0-.754-.024V7A8.455,8.455,0,0,0,9.729,9.24L7.644,7.156a2.035,2.035,0,1,0-.545.522l2.1,2.1A8.455,8.455,0,0,0,7,15.161H4.072a2.038,2.038,0,1,0-.029.754H7a8.455,8.455,0,0,0,2.231,5.3L7.164,23.288a2.033,2.033,0,1,0,.525.541l2.082-2.082a8.453,8.453,0,0,0,5.332,2.2v2.93a2.037,2.037,0,1,0,.754,0v-2.93a8.453,8.453,0,0,0,5.368-2.238L23.3,23.788a2.033,2.033,0,1,0,.538-.529l-2.08-2.08a8.454,8.454,0,0,0,2.2-5.327H26.9a2.037,2.037,0,1,0,2-2.428ZM24.064,5.062a1.283,1.283,0,1,1-.376.907,1.283,1.283,0,0,1,.376-.907ZM14.2,2.038A1.283,1.283,0,1,1,15.48,3.32,1.283,1.283,0,0,1,14.2,2.038ZM5.081,6.876a1.283,1.283,0,1,1,.907.376,1.283,1.283,0,0,1-.907-.376ZM2.057,16.743A1.283,1.283,0,1,1,3.34,15.46,1.283,1.283,0,0,1,2.057,16.743ZM6.9,25.859a1.284,1.284,0,1,1-.041-1.851.36.36,0,0,0,.114.118A1.282,1.282,0,0,1,6.9,25.859Zm9.867,3.024A1.283,1.283,0,1,1,15.4,27.6a.367.367,0,0,0,.165,0,1.284,1.284,0,0,1,1.2,1.279Zm9.116-4.838a1.283,1.283,0,1,1-.907-.376,1.282,1.282,0,0,1,.907.376Zm-10.4-.839a7.732,7.732,0,1,1,7.732-7.732A7.732,7.732,0,0,1,15.479,23.206ZM28.9,16.743a1.283,1.283,0,1,1,1.283-1.283A1.283,1.283,0,0,1,28.9,16.743Zm0,0" transform="translate(-0.018 0.001)" fill="url(#linear-gradient)"/>
      <path id="Path_174" data-name="Path 174" d="M155.858,136.19a27.083,27.083,0,0,1-5.541,3.209l-.037.016a.377.377,0,0,0-.229.346v3.281a6.565,6.565,0,0,0,2.933,5.392,10.353,10.353,0,0,0,2.9,1.481.375.375,0,0,0,.208,0,10.842,10.842,0,0,0,2.992-1.478,6.511,6.511,0,0,0,3.036-5.4v-3.281a.377.377,0,0,0-.228-.346l-.037-.016a27.075,27.075,0,0,1-5.542-3.209A.377.377,0,0,0,155.858,136.19Zm5.5,6.852a5.328,5.328,0,0,1-1.531,3.76.377.377,0,0,0-.753.028v.346a.376.376,0,0,0,.09.245q-.24.2-.507.389a10.437,10.437,0,0,1-2.675,1.348,9.874,9.874,0,0,1-2.558-1.332q-.245-.18-.468-.368a.376.376,0,0,0,.127-.281v-.346a.377.377,0,1,0-.754,0v.03a5.444,5.444,0,0,1-1.53-3.818v-3.034a27.838,27.838,0,0,0,5.279-3.047,27.846,27.846,0,0,0,5.279,3.047Zm0,0" transform="translate(-140.622 -127.561)" fill="url(#linear-gradient-2)"/>
      <path id="Path_175" data-name="Path 175" d="M240.428,300.625a.377.377,0,0,0-.377.377v.346a.377.377,0,1,0,.754,0V301A.377.377,0,0,0,240.428,300.625Zm0,0" transform="translate(-224.966 -281.733)" fill="url(#linear-gradient-3)"/>
    </g>
    <path id="Path_176" data-name="Path 176" d="M258.315,300.625a.377.377,0,0,0-.377.377v.346a.377.377,0,1,0,.754,0V301A.377.377,0,0,0,258.315,300.625Zm0,0" transform="translate(-241.711 -281.734)" fill="url(#linear-gradient-3)"/>
    <path id="Path_177" data-name="Path 177" d="M275.824,301v.346a.377.377,0,1,0,.754,0V301a.377.377,0,0,0-.754,0Zm0,0" transform="translate(-258.473 -281.734)" fill="url(#linear-gradient-3)"/>
    <path id="Path_178" data-name="Path 178" d="M222.541,300.625a.377.377,0,0,0-.377.377v.346a.377.377,0,1,0,.754,0V301A.377.377,0,0,0,222.541,300.625Zm0,0" transform="translate(-208.186 -281.734)" fill="url(#linear-gradient-3)"/>
    <path id="Path_179" data-name="Path 179" d="M204.654,300.625a.377.377,0,0,0-.377.377v.346a.377.377,0,1,0,.754,0V301A.377.377,0,0,0,204.654,300.625Zm0,0" transform="translate(-191.423 -281.734)" fill="url(#linear-gradient-7)"/>
    <path id="Path_180" data-name="Path 180" d="M212.54,223.255a.377.377,0,1,0-.533.533l1.281,1.28a.377.377,0,0,0,.533,0l2.251-2.251a.377.377,0,0,0-.533-.533l-1.985,1.984Zm0,0" transform="translate(-198.559 -208.216)" fill="url(#linear-gradient-8)"/>
  </g>
</svg>
