<svg xmlns="http://www.w3.org/2000/svg" width="55" height="55.113" viewBox="0 0 55 55.113">
  <g id="phone" transform="translate(-999 -1746.887)">
    <rect id="Rectangle_160" data-name="Rectangle 160" width="55" height="55" transform="translate(999 1747)" fill="none"/>
    <g id="phone-2" data-name="phone" transform="translate(1009.766 1746.887)">
      <path id="Path_252" data-name="Path 252" d="M14.234,74.148h3.7V108h-3.7Zm0,0" transform="translate(-12.276 -65.016)" fill="#d4e1f4"/>
      <path id="Path_253" data-name="Path 253" d="M21.021,14h-3.7a3.1,3.1,0,0,0-3.091,3.092v2.592h3.7V17.091A3.1,3.1,0,0,1,21.021,14Zm0,0" transform="translate(-12.276 -12.276)" fill="#d4e1f4"/>
      <path id="Path_254" data-name="Path 254" d="M21.021,369.216a3.1,3.1,0,0,1-3.091-3.091V363h-3.7v5.588a3.1,3.1,0,0,0,3.091,3.092H40.456a3.1,3.1,0,0,0,3.027-2.463Zm0,0" transform="translate(-12.276 -318.291)" fill="#d4e1f4"/>
      <path id="Path_255" data-name="Path 255" d="M108.257,209.716a.86.86,0,0,1-.656-.3l-1.505-1.763a.862.862,0,1,1,1.311-1.12l.959,1.122,2.853-2.321a.862.862,0,1,1,1.088,1.338l-3.505,2.852A.863.863,0,0,1,108.257,209.716Zm0,0" transform="translate(-92.641 -179.871)" fill="#1ae5be"/>
      <path id="Path_256" data-name="Path 256" d="M78.87,177.007a7.636,7.636,0,1,1,7.636-7.636A7.636,7.636,0,0,1,78.87,177.007Zm0-13.548a5.912,5.912,0,1,0,5.912,5.912A5.912,5.912,0,0,0,78.87,163.458Zm0,0" transform="translate(-62.255 -141.814)" fill="#17e79b"/>
      <g id="Group_309" data-name="Group 309" transform="translate(0.234 0)">
        <path id="Path_257" data-name="Path 257" d="M28.181,0H5.05A4.821,4.821,0,0,0,.234,4.816V50.3A4.821,4.821,0,0,0,5.05,55.113H28.181A4.822,4.822,0,0,0,33,50.3V4.815A4.821,4.821,0,0,0,28.181,0ZM1.959,9.133H31.272V42.985H1.959ZM5.05,1.724H28.181a3.1,3.1,0,0,1,3.092,3.092V7.408H1.959V4.815A3.1,3.1,0,0,1,5.05,1.724ZM28.181,53.388H5.05A3.1,3.1,0,0,1,1.959,50.3V44.709H31.272V50.3a3.1,3.1,0,0,1-3.092,3.091Zm0,0" transform="translate(-0.234 0)" fill="#165df5"/>
        <path id="Path_258" data-name="Path 258" d="M105.749,391.531H98.773a.862.862,0,1,0,0,1.724h6.977a.862.862,0,1,0,0-1.724Zm0,0" transform="translate(-85.88 -343.307)" fill="#165df5"/>
        <path id="Path_259" data-name="Path 259" d="M211.389,216.734H210.1a.862.862,0,1,0,0,1.724h1.293a.862.862,0,1,0,0-1.724Zm0,0" transform="translate(-183.492 -190.04)" fill="#165df5"/>
        <path id="Path_260" data-name="Path 260" d="M34.89,218.458a.862.862,0,1,0,0-1.724H33.6a.862.862,0,1,0,0,1.724Zm0,0" transform="translate(-28.731 -190.04)" fill="#165df5"/>
        <path id="Path_261" data-name="Path 261" d="M202.925,242.812l-1.805-.622a.862.862,0,1,0-.562,1.63l1.805.622a.862.862,0,1,0,.562-1.63Zm0,0" transform="translate(-175.375 -212.318)" fill="#165df5"/>
        <path id="Path_262" data-name="Path 262" d="M40.752,186.93l-1.8-.622a.862.862,0,1,0-.562,1.631l1.8.622a.862.862,0,1,0,.562-1.63Zm0,0" transform="translate(-33.173 -163.318)" fill="#165df5"/>
        <path id="Path_263" data-name="Path 263" d="M201.572,191.259a.859.859,0,0,0,.256-.039l1.822-.567a.862.862,0,1,0-.511-1.646l-1.823.567a.862.862,0,0,0,.255,1.685Zm0,0" transform="translate(-176.018 -165.692)" fill="#165df5"/>
        <path id="Path_264" data-name="Path 264" d="M39.346,239.924l-1.823.567a.862.862,0,1,0,.512,1.646l1.823-.566a.862.862,0,0,0-.512-1.647Zm0,0" transform="translate(-32.395 -210.339)" fill="#165df5"/>
      </g>
    </g>
  </g>
</svg>
