<svg xmlns="http://www.w3.org/2000/svg" width="26" height="27" viewBox="0 0 26 27">
  <g id="physics" transform="translate(-0.5 0.001)">
    <g id="Group_123" data-name="Group 123" transform="translate(1.181 0.681)">
      <path id="Path_110" data-name="Path 110" d="M17.867,24.315c-3.467-2.7-5.321-5.315-4.429-6.667.87-1.321,4.136-1.1,8.246.326.677-3.45,1.889-5.922,3.314-6.487A2.719,2.719,0,0,0,22.9,10c-1.691,0-3.164,2.665-3.938,6.61-4.11-1.426-7.376-1.647-8.246-.326-.891,1.352.963,3.964,4.429,6.667-3.467,2.7-5.321,5.315-4.429,6.667a2.9,2.9,0,0,0,2.531.876c-.271-1.437,1.537-3.773,4.625-6.18Zm0,0" transform="translate(-10.488 -10)" fill="#ffe1d6"/>
      <path id="Path_111" data-name="Path 111" d="M283.492,91.888a18.855,18.855,0,0,1,5.715-1.2,1.322,1.322,0,0,0-.2-.487c-.706-1.071-2.987-1.128-6.016-.351C283.183,90.478,283.35,91.161,283.492,91.888Zm0,0" transform="translate(-264.596 -83.976)" fill="#ffe1d6"/>
      <path id="Path_112" data-name="Path 112" d="M144.223,313.027c-.777.27-1.524.5-2.231.677.828,2.8,2.063,4.57,3.443,4.57a1.679,1.679,0,0,0,.624-.123A14.8,14.8,0,0,1,144.223,313.027Zm0,0" transform="translate(-133.104 -292.637)" fill="#ffe1d6"/>
    </g>
    <path id="Path_113" data-name="Path 113" d="M121.44,27c-1.074,0-2.612-.73-3.837-4.209a29.035,29.035,0,0,1-1.361-9.291A29.035,29.035,0,0,1,117.6,4.208C118.828.729,120.366,0,121.44,0s2.612.73,3.837,4.209a29.035,29.035,0,0,1,1.361,9.291,29.035,29.035,0,0,1-1.361,9.291C124.052,26.269,122.514,27,121.44,27Zm0-25.65c-.868,0-1.821,1.235-2.55,3.3a27.677,27.677,0,0,0-1.285,8.846,27.685,27.685,0,0,0,1.285,8.846c.729,2.068,1.682,3.3,2.55,3.3s1.821-1.235,2.549-3.3a27.677,27.677,0,0,0,1.285-8.846,27.679,27.679,0,0,0-1.285-8.846c-.728-2.068-1.681-3.3-2.549-3.3Zm0,0" transform="translate(-107.94)" fill="#fd6b3b"/>
    <path id="Path_114" data-name="Path 114" d="M23.068,88.085q-.376-.333-.783-.665.406-.332.783-.665c1.307-1.157,2.948-2.865,3.343-4.438a2.21,2.21,0,0,0-.243-1.826c-.793-1.191-2.828-1.475-5.886-.82A33.315,33.315,0,0,0,13.5,82.039a33.349,33.349,0,0,0-6.782-2.367c-3.058-.655-5.093-.372-5.886.82a2.208,2.208,0,0,0-.243,1.826c.395,1.572,2.036,3.281,3.343,4.438q.376.333.783.665-.406.332-.783.665C2.625,89.241.984,90.95.589,92.522a2.208,2.208,0,0,0,.243,1.826c.514.773,1.552,1.164,3.054,1.164a13.759,13.759,0,0,0,2.833-.344A33.32,33.32,0,0,0,13.5,92.8a33.347,33.347,0,0,0,6.782,2.367,13.757,13.757,0,0,0,2.833.344c1.5,0,2.539-.391,3.054-1.164a2.21,2.21,0,0,0,.243-1.826C26.016,90.95,24.375,89.241,23.068,88.085Zm.089-7.419c.985,0,1.638.2,1.881.563a.873.873,0,0,1,.059.764c-.141.561-.709,1.795-2.931,3.761q-.46.407-.969.814a41.754,41.754,0,0,0-5.063-3.208q-.529-.287-1.06-.557a22.506,22.506,0,0,1,8.083-2.138ZM20.083,87.42a40.978,40.978,0,0,1-4.6,2.883q-1.015.55-1.984,1.015-.968-.466-1.985-1.015a40.926,40.926,0,0,1-4.6-2.883,40.973,40.973,0,0,1,4.6-2.883q1.016-.55,1.984-1.014.968.466,1.984,1.014A40.976,40.976,0,0,1,20.083,87.42ZM4.834,85.754c-2.222-1.966-2.79-3.2-2.931-3.761a.873.873,0,0,1,.059-.764c.243-.364.9-.563,1.88-.563A22.5,22.5,0,0,1,11.925,82.8q-.53.27-1.06.557A41.8,41.8,0,0,0,5.8,86.569c-.338-.271-.662-.543-.969-.814ZM1.962,93.61a.873.873,0,0,1-.059-.764c.141-.561.709-1.795,2.931-3.761.307-.272.631-.543.969-.814a41.8,41.8,0,0,0,5.063,3.208q.529.287,1.06.557C6.547,94.355,2.641,94.63,1.962,93.61Zm23.075,0c-.242.364-.9.563-1.88.563a22.5,22.5,0,0,1-8.082-2.138q.53-.27,1.06-.557A41.777,41.777,0,0,0,21.2,88.271q.508.407.969.814c2.222,1.966,2.79,3.2,2.931,3.761a.873.873,0,0,1-.059.764Zm0,0" transform="translate(0 -73.921)" fill="#19a389"/>
  </g>
</svg>
