<svg xmlns="http://www.w3.org/2000/svg" xmlns:xlink="http://www.w3.org/1999/xlink" width="60" height="60" viewBox="0 0 60 60">
  <defs>
    <clipPath id="clip-path">
      <circle id="Ellipse_10" data-name="Ellipse 10" cx="30" cy="30" r="30" transform="translate(1095 1706)" fill="#65d6a9" opacity="0.1"/>
    </clipPath>
  </defs>
  <g id="restore" transform="translate(-1095 -1706)">
    <circle id="Ellipse_9" data-name="Ellipse 9" cx="30" cy="30" r="30" transform="translate(1095 1706)" fill="#65d6a9" opacity="0.1"/>
    <g id="Mask_Group_2" data-name="Mask Group 2" clip-path="url(#clip-path)">
      <g id="tree_1_" data-name="tree (1)" transform="translate(1073.166 1723.999)">
        <path id="Path_333" data-name="Path 333" d="M172.774,5.047c-3.051-2.31-7.716-1.952-11.093.852a10.46,10.46,0,0,0-1.134,1.114,10.436,10.436,0,0,0-.6-1.471A10.086,10.086,0,0,0,153.733.258a7.477,7.477,0,0,0-3.64-.06,1.347,1.347,0,0,0-.878,1.92l4.518,9.034.093.183,5.056,3.772,6.135-1.468,7.805-6.482a1.347,1.347,0,0,0-.047-2.111Z" transform="translate(-106.212)" fill="#26bfa6"/>
        <path id="Path_334" data-name="Path 334" d="M264.443,49.373l7.805-6.482a1.347,1.347,0,0,0-.047-2.111c-3.051-2.31-7.716-1.952-11.093.852a10.461,10.461,0,0,0-1.134,1.114l-1.666,8.095Z" transform="translate(-205.638 -35.733)" fill="#149084"/>
        <path id="Path_335" data-name="Path 335" d="M254.353,186.088a8.543,8.543,0,0,0-.9-1.142l-9.624-.141,7.547,11.46a1.347,1.347,0,0,0,2.079.211A8.29,8.29,0,0,0,254.353,186.088Z" transform="translate(-192.457 -168.201)" fill="#149084"/>
        <path id="Path_336" data-name="Path 336" d="M117.39,149.584l-3.143-1.3a8.462,8.462,0,0,0-1.282.695,8.288,8.288,0,0,0-3.276,9.9,1.348,1.348,0,0,0,1.993.626l5.708-3.759,5.752-3.789Z" transform="translate(-69.87 -134.963)" fill="#26bfa6"/>
        <path id="Path_337" data-name="Path 337" d="M164.621,162a1.343,1.343,0,0,0-1.691.623,58.444,58.444,0,0,0-3.772,9.32,105.881,105.881,0,0,0-4.13,19.685l4.13.1,4.159.1a82.827,82.827,0,0,1,2.1-28.207,1.348,1.348,0,0,0-.8-1.616Z" transform="translate(-111.637 -147.357)" fill="#4b2746"/>
        <path id="Path_338" data-name="Path 338" d="M113.513,482H97.342a1.348,1.348,0,1,0,0,2.7h16.171a1.348,1.348,0,1,0,0-2.7Z" transform="translate(-57.907 -438.695)" fill="#65d6a9"/>
        <path id="Path_339" data-name="Path 339" d="M210.427,483.348A1.348,1.348,0,0,0,209.08,482h-8.086v2.7h8.086A1.348,1.348,0,0,0,210.427,483.348Z" transform="translate(-153.473 -438.695)" fill="#26bfa6"/>
        <path id="Path_340" data-name="Path 340" d="M63.578,85.543a12.98,12.98,0,0,0-10.5,1.588h0c-1.695-2.862-5.212-4.832-8.5-5.509h0c-4.377-.9-9.994.129-12.052,4.014a1.349,1.349,0,0,0,.92,1.95l18.743,3.858L70.934,95.3a1.349,1.349,0,0,0,1.615-1.429C72.2,89.66,67.775,86.557,63.578,85.543Z" transform="translate(0 -74.012)" fill="#65d6a9"/>
        <path id="Path_341" data-name="Path 341" d="M273.339,132.26c-.345-4.213-4.774-7.316-8.971-8.331a12.98,12.98,0,0,0-10.5,1.588l-.888,4.314,18.743,3.858A1.349,1.349,0,0,0,273.339,132.26Z" transform="translate(-200.79 -112.399)" fill="#26bfa6"/>
      </g>
    </g>
  </g>
</svg>
