<svg id="sheet" xmlns="http://www.w3.org/2000/svg" width="24" height="27" viewBox="0 0 24 27">
  <g id="Group_119" data-name="Group 119" transform="translate(0.604 0.604)">
    <path id="Path_92" data-name="Path 92" d="M315.122,19.868v.012h-3.7A2.417,2.417,0,0,1,309,17.463V15.572h.248V14Zm0,0" transform="translate(-292.331 -13.759)" fill="#ffe1d6"/>
    <path id="Path_93" data-name="Path 93" d="M198.622,87.2v.012h-3.7a2.416,2.416,0,0,1-2.417-2.417V83.519h.012V81.1Zm0,0" transform="translate(-182.332 -77.039)" fill="#ffe1d6"/>
    <path id="Path_94" data-name="Path 94" d="M309.248,10.435V12H309V10.2h.018Zm0,0" transform="translate(-291.992 -10.187)" fill="#d4e1f4"/>
    <path id="Path_95" data-name="Path 95" d="M309.435,10.2v.236l-.23-.236h.23Zm0,0" transform="translate(-292.179 -10.187)" fill="#d4e1f4"/>
    <path id="Path_96" data-name="Path 96" d="M137.811,10.012v1.8h-6.176a2.416,2.416,0,0,0-2.417,2.417H126.8V12.417A2.416,2.416,0,0,1,129.218,10Zm0,0" transform="translate(-120.499 -10)" fill="#ffe1d6"/>
    <path id="Path_97" data-name="Path 97" d="M192.6,81.1h.012v2.417H192.6Zm0,0" transform="translate(-182.215 -77.004)" fill="#d4e1f4"/>
    <path id="Path_98" data-name="Path 98" d="M17.341,80.9l3.976.006v2.335l-.719-.012H15.136a2.377,2.377,0,0,0-2.417,2.335v17.207a2.377,2.377,0,0,1-2.417-2.335V83.234A2.377,2.377,0,0,1,12.718,80.9Zm0,0" transform="translate(-10.301 -76.985)" fill="#ffe1d6"/>
  </g>
  <path id="Path_99" data-name="Path 99" d="M18.358.186,18.347.174A.571.571,0,0,0,17.941,0H9.815A2.88,2.88,0,0,0,6.958,2.9V4.111h-3.8A2.88,2.88,0,0,0,.3,7.011V24.1A2.88,2.88,0,0,0,3.158,27H14.787a2.88,2.88,0,0,0,2.857-2.9V22.888h3.8a2.88,2.88,0,0,0,2.857-2.9V6.443a.6.6,0,0,0-.166-.412Zm.154,1.792,3.846,3.9H20.227a1.732,1.732,0,0,1-1.714-1.74ZM14.787,25.84H3.158A1.732,1.732,0,0,1,1.444,24.1V7.011a1.732,1.732,0,0,1,1.714-1.74h7.56V8.246a2.879,2.879,0,0,0,2.857,2.9h2.931V24.1a1.737,1.737,0,0,1-1.72,1.74Zm.92-15.854H13.576a1.732,1.732,0,0,1-1.714-1.74V6.089Zm5.737,11.743h-3.8V10.554a.6.6,0,0,0-.166-.412L11.707,4.291,11.7,4.285a.561.561,0,0,0-.411-.174H8.1V2.9A1.732,1.732,0,0,1,9.815,1.16h7.56V4.135a2.879,2.879,0,0,0,2.857,2.9h2.926V19.989a1.732,1.732,0,0,1-1.714,1.74Zm0,0" transform="translate(-0.301 0)" fill="#fd6b3b"/>
  <path id="Path_100" data-name="Path 100" d="M71.5,234.107h4.913a.6.6,0,1,0,0-1.209H71.5a.6.6,0,1,0,0,1.209Zm0,0" transform="translate(-66.938 -219.418)" fill="#19a389"/>
  <path id="Path_101" data-name="Path 101" d="M81.31,303.8H71.5a.6.6,0,0,0,0,1.209H81.31a.6.6,0,0,0,0-1.209Zm0,0" transform="translate(-67.042 -286.217)" fill="#19a389"/>
  <path id="Path_102" data-name="Path 102" d="M81.31,374.7H71.5a.6.6,0,0,0,0,1.209H81.31a.6.6,0,0,0,0-1.209Zm0,0" transform="translate(-67.042 -353.192)" fill="#19a389"/>
  <path id="Path_103" data-name="Path 103" d="M321.646,232.9H319.8a.6.6,0,1,0,0,1.209h1.843a.6.6,0,1,0,0-1.209Zm0,0" transform="translate(-301.309 -219.418)" fill="#19a389"/>
  <path id="Path_104" data-name="Path 104" d="M321.646,303.8H319.8a.6.6,0,0,0,0,1.209h1.843a.6.6,0,1,0,0-1.209Zm0,0" transform="translate(-301.309 -286.217)" fill="#19a389"/>
</svg>
