<svg id="Shield-check" xmlns="http://www.w3.org/2000/svg" width="24" height="24" viewBox="0 0 24 24">
  <rect id="bound" width="24" height="24" fill="none"/>
  <path id="Path-50" d="M4,4l7.631-1.431a2,2,0,0,1,.737,0L20,4v9.283A8.511,8.511,0,0,1,16,20.5l-3.47,2.169a1,1,0,0,1-1.06,0L8,20.5a8.511,8.511,0,0,1-4-7.217Z" fill="#fff" fill-rule="evenodd" opacity="0.3"/>
  <path id="check-path" d="M11.175,14.75a.946.946,0,0,1-.671-.288L8.588,12.546A.949.949,0,0,1,9.929,11.2l1.246,1.246,3.163-3.162a.949.949,0,1,1,1.342,1.342l-3.833,3.833A.946.946,0,0,1,11.175,14.75Z" fill="#fff" fill-rule="evenodd"/>
</svg>
