<svg xmlns="http://www.w3.org/2000/svg" width="54.259" height="36.133" viewBox="0 0 54.259 36.133">
  <g id="sofa" transform="translate(0 -61)">
    <g id="Group_298" data-name="Group 298" transform="translate(0 61)">
      <g id="Group_297" data-name="Group 297">
        <path id="Path_297" data-name="Path 297" d="M50.812,71.578V67.6c0-4.873-3.387-6.6-6.6-6.6H10.043c-3.209,0-6.6,1.723-6.6,6.6v3.982A4.531,4.531,0,0,0,0,75.976V89.942a2.384,2.384,0,0,0,2.377,2.377H3.506v2.674a2.131,2.131,0,0,0,2.139,2.139H8.023a2.131,2.131,0,0,0,2.139-2.139V92.319H44.1v2.674a2.131,2.131,0,0,0,2.139,2.139h2.377a2.131,2.131,0,0,0,2.139-2.139V92.319h1.129a2.384,2.384,0,0,0,2.377-2.377V75.976A4.531,4.531,0,0,0,50.812,71.578ZM5.527,67.656c.059-3.744,2.5-4.517,4.517-4.517H43.977c2.021,0,4.517.773,4.517,4.517v3.982a4.514,4.514,0,0,0-3.447,4.338v1.248H8.974V75.976a4.514,4.514,0,0,0-3.447-4.338Zm39.52,11.708v4.1H27.813v-4.1Zm-19.374,0v4.1H8.974v-4.1ZM7.963,94.993H5.586V92.319H7.963Zm40.531,0H46.117V92.319h2.377ZM52,89.942a.256.256,0,0,1-.238.238H2.377a.256.256,0,0,1-.238-.238V75.976a2.377,2.377,0,0,1,4.754,0v8.558a1.065,1.065,0,0,0,1.07,1.07H46.176a1.065,1.065,0,0,0,1.07-1.07V75.976a2.377,2.377,0,0,1,4.754,0V89.942Z" transform="translate(0 -61)" fill="#0b2238"/>
      </g>
    </g>
    <g id="Group_300" data-name="Group 300" transform="translate(11.886 67.062)">
      <g id="Group_299" data-name="Group 299">
        <path id="Path_298" data-name="Path 298" d="M83.269,101.8A3.222,3.222,0,0,0,80,105.069a3.3,3.3,0,0,0,3.269,3.269,3.269,3.269,0,0,0,0-6.537Zm0,4.4a1.128,1.128,0,0,1-1.129-1.129,1.093,1.093,0,0,1,1.129-1.129,1.129,1.129,0,0,1,0,2.258Z" transform="translate(-80 -101.8)" fill="#0b2238"/>
      </g>
    </g>
    <g id="Group_302" data-name="Group 302" transform="translate(35.123 67.062)">
      <g id="Group_301" data-name="Group 301">
        <path id="Path_299" data-name="Path 299" d="M239.669,101.8a3.222,3.222,0,0,0-3.269,3.269,3.337,3.337,0,0,0,3.269,3.269,3.269,3.269,0,1,0,0-6.537Zm0,4.4a1.129,1.129,0,1,1,1.129-1.129A1.093,1.093,0,0,1,239.669,106.2Z" transform="translate(-236.4 -101.8)" fill="#0b2238"/>
      </g>
    </g>
  </g>
</svg>
