<svg xmlns="http://www.w3.org/2000/svg" xmlns:xlink="http://www.w3.org/1999/xlink" width="31.245" height="28" viewBox="0 0 31.245 28">
  <defs>
    <linearGradient id="linear-gradient" x1="0.5" y1="4.481" x2="0.5" y2="-4.223" gradientUnits="objectBoundingBox">
      <stop offset="0.322" stop-color="#a163f5"/>
      <stop offset="0.466" stop-color="#b074ee"/>
      <stop offset="0.752" stop-color="#d8a1dd"/>
      <stop offset="0.898" stop-color="#efbad3"/>
    </linearGradient>
    <linearGradient id="linear-gradient-2" x1="0.5" y1="1.167" x2="0.5" y2="-0.205" gradientUnits="objectBoundingBox">
      <stop offset="0" stop-color="#fd4ffe"/>
      <stop offset="1" stop-color="#6bb0f8"/>
    </linearGradient>
  </defs>
  <g id="technology" transform="translate(-71.999 -91)">
    <path id="Path_181" data-name="Path 181" d="M149.661,244.777H136.6a2.206,2.206,0,1,0-.04,1.018H149.7a2.206,2.206,0,1,0-.04-1.018Zm-15.229,1.612a1.188,1.188,0,1,1,1.188-1.188A1.188,1.188,0,0,1,134.432,246.389Zm18.582-1.188a1.188,1.188,0,1,1-1.188-1.188A1.188,1.188,0,0,1,153.014,245.2Z" transform="translate(-55.116 -139.098)" fill="url(#linear-gradient)"/>
    <path id="Path_182" data-name="Path 182" d="M101.037,99.06a2.206,2.206,0,1,0-2.146-2.715H96.455a.526.526,0,0,0-.529.509V99.4H94.484V97.307a.522.522,0,0,0-.283-.449l-10.887-5.8a.515.515,0,0,0-.487,0l-10.571,5.8a.5.5,0,0,0-.256.446V104a15.639,15.639,0,0,0,9.369,14.321l1.463.64a.5.5,0,0,0,.2.042.5.5,0,0,0,.2-.042l1.652-.714a15.66,15.66,0,0,0,6.741-5.439h4.3v2.545a.526.526,0,0,0,.529.509h2.436a2.206,2.206,0,1,0,0-1.018H96.945V112.3a.493.493,0,0,0-.49-.509H86.722a2.206,2.206,0,1,0,0,1.018h3.641a14.661,14.661,0,0,1-5.878,4.5l-1.454.628-1.255-.552A14.62,14.62,0,0,1,73.017,104V97.608l10.077-5.521,10.372,5.525V99.4H86.722a2.206,2.206,0,1,0,0,1.018h9.733a.493.493,0,0,0,.49-.509V97.363h1.946a2.209,2.209,0,0,0,2.146,1.7Zm0-3.394a1.188,1.188,0,1,1-1.188,1.188A1.188,1.188,0,0,1,101.037,95.666Zm0,18.5a1.188,1.188,0,1,1-1.188,1.188A1.188,1.188,0,0,1,101.037,114.164Zm-16.471-.679a1.188,1.188,0,1,1,1.093-1.626v.877a1.171,1.171,0,0,1-1.093.75Zm0-12.388A1.188,1.188,0,1,1,85.66,99.47v.877A1.171,1.171,0,0,1,84.567,101.1Z" fill="url(#linear-gradient-2)"/>
  </g>
</svg>
