<svg xmlns="http://www.w3.org/2000/svg" width="18.593" height="30.771" viewBox="0 0 18.593 30.771">
  <g id="travel" transform="translate(-0.424 0)">
    <path id="Path_142" data-name="Path 142" d="M20.126,232.722a8.732,8.732,0,0,1-6.32-2.683,8.469,8.469,0,0,1-.793-10.808,8.689,8.689,0,0,0-1.742,1.654,8.47,8.47,0,0,0,.527,11.161,8.777,8.777,0,0,0,13.434-.957,8.741,8.741,0,0,1-5.106,1.633Zm0,0" transform="translate(-8.397 -204.56)" fill="#ffe1d6"/>
    <path id="Path_143" data-name="Path 143" d="M9.721,204.182a9.275,9.275,0,0,1-6.755-2.869A9.073,9.073,0,0,1,2.4,189.36a9.244,9.244,0,1,1,7.318,14.822Zm0-17.131a8.1,8.1,0,0,0-6.376,3.059,7.868,7.868,0,0,0,.49,10.369,8.081,8.081,0,0,0,5.885,2.5,7.964,7.964,0,1,0,0-15.926Zm0,0" transform="translate(0 -173.411)" fill="#fd6b3b"/>
    <g id="Group_150" data-name="Group 150" transform="translate(1.089 0)">
      <path id="Path_144" data-name="Path 144" d="M122.109,260.517l-2.139-1.35V254.75a.6.6,0,0,0-1.2,0V259.5a.6.6,0,0,0,.281.509l2.42,1.528a.6.6,0,1,0,.643-1.019Zm0,0" transform="translate(-111.51 -237.142)" fill="#19a389"/>
      <path id="Path_145" data-name="Path 145" d="M13.051,6.077a.6.6,0,0,0,.852-.852l-1.5-1.5H27.013a.6.6,0,0,0,0-1.2H12.407l1.5-1.5a.6.6,0,0,0-.852-.852L10.527,2.7a.6.6,0,0,0,0,.852Zm0,0" transform="translate(-10.351 0)" fill="#19a389"/>
      <path id="Path_146" data-name="Path 146" d="M24.914,72.417a.6.6,0,0,0-.852.852l1.5,1.5H10.953a.6.6,0,1,0,0,1.2H25.559l-1.5,1.5a.6.6,0,0,0,.852.852l2.525-2.525a.6.6,0,0,0,0-.852Zm0,0" transform="translate(-10.351 -67.407)" fill="#19a389"/>
    </g>
  </g>
</svg>
