<svg xmlns="http://www.w3.org/2000/svg" width="27.077" height="27" viewBox="0 0 27.077 27">
  <g id="user" transform="translate(0.001 -0.149)">
    <path id="Path_115" data-name="Path 115" d="M266.681,266.195a5.365,5.365,0,0,1,5.364-5.364,5.461,5.461,0,0,1,1.132.119,5.366,5.366,0,1,0-4.649,9.3A5.357,5.357,0,0,1,266.681,266.195Zm0,0" transform="translate(-248.545 -244.023)" fill="#dcfcec"/>
    <path id="Path_116" data-name="Path 116" d="M76.575,17.04a5.7,5.7,0,0,1,5.7-5.7c.185,0,.364.012.542.024a5.705,5.705,0,1,0-4.065,10.168,5.7,5.7,0,0,1-2.181-4.488Zm0,0" transform="translate(-69.209 -9.399)" fill="#ffe1d6"/>
    <path id="Path_117" data-name="Path 117" d="M22.468,246.542a9.618,9.618,0,0,1,2,.209,9.4,9.4,0,0,0-4.983-1.4A9.553,9.553,0,0,0,10,255.256l3.04-.006a9.486,9.486,0,0,1,9.429-8.708Zm0,0" transform="translate(-9.404 -230.587)" fill="#ffe1d6"/>
    <g id="Group_125" data-name="Group 125" transform="translate(-0.001 0.149)">
      <path id="Path_118" data-name="Path 118" d="M69.9,12.749a6.3,6.3,0,1,0-6.3-6.3A6.3,6.3,0,0,0,69.9,12.749Zm0-11.408a5.108,5.108,0,1,1-5.108,5.108A5.108,5.108,0,0,1,69.9,1.341Zm0,0" transform="translate(-59.811 -0.149)" fill="#ff8a5c"/>
      <path id="Path_119" data-name="Path 119" d="M16.867,245.22l-15.657.03A9.35,9.35,0,0,1,3.8,239.177a8.692,8.692,0,0,1,6.288-2.634H10.1a8.746,8.746,0,0,1,6.1,2.438.594.594,0,0,0,.822-.858A9.942,9.942,0,0,0,10.1,235.35h-.018a9.891,9.891,0,0,0-7.14,3A10.611,10.611,0,0,0,0,245.852a.6.6,0,0,0,.6.6l16.271-.03a.6.6,0,0,0,0-1.2Zm0,0" transform="translate(0.001 -221.332)" fill="#ff8a5c"/>
      <path id="Path_120" data-name="Path 120" d="M318.033,327.449H314.4a.6.6,0,0,0,0,1.192h3.636a.6.6,0,0,0,0-1.192Zm0,0" transform="translate(-295.098 -307.941)" fill="#ff8a5c"/>
      <path id="Path_121" data-name="Path 121" d="M316.125,364.051H314.4a.6.6,0,0,0,0,1.192h1.728a.6.6,0,1,0,0-1.192Zm0,0" transform="translate(-295.098 -342.362)" fill="#ff8a5c"/>
    </g>
    <path id="Path_122" data-name="Path 122" d="M266.168,255.551a5.962,5.962,0,1,0-4.047,5.645l2.962.518a.606.606,0,0,0,.1.006.6.6,0,0,0,.548-.828l-.751-1.77a5.752,5.752,0,0,0,.781-1.395,6.039,6.039,0,0,0,.405-2.176Zm-1.52,1.735a4.832,4.832,0,0,1-.811,1.353.589.589,0,0,0-.1.62l.465,1.091-2.033-.358a.589.589,0,0,0-.1-.006.617.617,0,0,0-.209.036,4.768,4.768,0,1,1,3.111-4.47A4.669,4.669,0,0,1,264.649,257.286Zm0,0" transform="translate(-239.092 -234.571)" fill="#19a389"/>
  </g>
</svg>
