<svg xmlns="http://www.w3.org/2000/svg" width="26" height="26" viewBox="0 0 26 26">
  <g id="writing" transform="translate(-140 -2037)">
    <rect id="Rectangle_160" data-name="Rectangle 160" width="26" height="26" transform="translate(140 2037)" fill="none"/>
    <g id="writing_1_" data-name="writing (1)" transform="translate(142.948 2039)">
      <path id="Path_293" data-name="Path 293" d="M11.678,10.011,11.559,10H1.768A1.693,1.693,0,0,0,.052,11.663V29.2a1.693,1.693,0,0,0,1.716,1.663h.549V14.408a1.693,1.693,0,0,1,1.716-1.663h9.785V10H11.553" transform="translate(0 -9.434)" fill="#d4e1f4"/>
      <g id="Group_331" data-name="Group 331" transform="translate(1.631 0)">
        <path id="Path_294" data-name="Path 294" d="M294.523,167.6l.852-.746,2.488,2.842-.852.746Zm0,0" transform="translate(-280.195 -157.728)" fill="#165df5"/>
        <path id="Path_295" data-name="Path 295" d="M44.022,12.767a.547.547,0,0,0-.541.55v6.461a1.1,1.1,0,0,1-1.088,1.116H30.107a1.09,1.09,0,0,1-1.077-1.1V2.216A1.091,1.091,0,0,1,30.09,1.1h8.952V5.086a.554.554,0,0,0,.52.577h3.919V8.489a.541.541,0,1,0,1.083,0V5.075a.559.559,0,0,0-.157-.39L39.952.17,39.947.165A.549.549,0,0,0,39.557,0h-9.45A2.182,2.182,0,0,0,27.947,2.2V19.784A2.183,2.183,0,0,0,30.1,22h12.3a2.19,2.19,0,0,0,2.17-2.216V13.317a.547.547,0,0,0-.541-.55Zm-3.9-10.893,2.609,2.689H40.125Zm0,0" transform="translate(-27.947 0)" fill="#165df5"/>
        <path id="Path_296" data-name="Path 296" d="M86.215,122.133h4.536a.566.566,0,1,0,0-1.133H86.215a.566.566,0,1,0,0,1.133Zm0,0" transform="translate(-82.577 -114.357)" fill="#165df5"/>
        <path id="Path_297" data-name="Path 297" d="M86.215,187.133h7.164a.566.566,0,1,0,0-1.133H86.215a.566.566,0,0,0,0,1.133Zm0,0" transform="translate(-82.628 -175.789)" fill="#165df5"/>
      </g>
      <path id="Path_298" data-name="Path 298" d="M177.617,151.158a.568.568,0,0,1-.566-.566.831.831,0,0,1,.011-.119l.64-3.024a.55.55,0,0,1,.181-.306l6.863-6.031a2.365,2.365,0,0,1,3.336.215l.006.006.125.142A2.368,2.368,0,0,1,188,144.8l-3.619,3.188-3.256,2.849a.587.587,0,0,1-.34.142l-3.126.181a.113.113,0,0,0-.04-.006Zm1.155-3.284-.447,2.112,2.192-.125,3.177-2.78,3.545-3.132a1.228,1.228,0,0,0,.113-1.733l-.125-.142a1.23,1.23,0,0,0-1.738-.113Zm0,0" transform="translate(-167.744 -133.002)" fill="#1ae5be"/>
    </g>
  </g>
</svg>
