<svg xmlns="http://www.w3.org/2000/svg" width="30.472" height="31.038" viewBox="0 0 30.472 31.038">
  <g id="writing02" transform="translate(-0.402)">
    <path id="Path_147" data-name="Path 147" d="M13.989,25.947A14.509,14.509,0,0,1,32.026,11.872a14.51,14.51,0,1,0-10.68,26.7,14.5,14.5,0,0,1-7.357-12.624Zm0,0" transform="translate(-9.234 -9.26)" fill="#ffe1d6"/>
    <path id="Path_148" data-name="Path 148" d="M15.638,0a15.236,15.236,0,1,0,5.1,29.587l8.235,1.444a.746.746,0,0,0,.123.007.728.728,0,0,0,.667-1.009l-2.242-5.274A15.225,15.225,0,0,0,15.638,0ZM28.48,20.257a13.732,13.732,0,0,1-2.351,3.9.716.716,0,0,0-.116.754l1.893,4.455L20.8,28.128a.689.689,0,0,0-.123-.007.753.753,0,0,0-.254.043,13.766,13.766,0,1,1,8.061-7.908Zm0,0" fill="#fd6b3b"/>
    <g id="Group_153" data-name="Group 153" transform="translate(7.084 13.154)">
      <path id="Path_149" data-name="Path 149" d="M265.467,181.3a2.365,2.365,0,1,0,2.365,2.365A2.365,2.365,0,0,0,265.467,181.3Zm0,3.279a.914.914,0,1,1,.914-.914A.914.914,0,0,1,265.467,184.58Zm0,0" transform="translate(-250.724 -181.301)" fill="#19a389"/>
      <path id="Path_150" data-name="Path 150" d="M180.166,181.3a2.365,2.365,0,1,0,2.365,2.365A2.365,2.365,0,0,0,180.166,181.3Zm0,3.279a.914.914,0,1,1,.914-.914A.914.914,0,0,1,180.166,184.58Zm0,0" transform="translate(-171.612 -181.301)" fill="#19a389"/>
      <path id="Path_151" data-name="Path 151" d="M94.866,181.3a2.365,2.365,0,1,0,2.365,2.365A2.365,2.365,0,0,0,94.866,181.3Zm0,3.279a.914.914,0,1,1,.914-.914A.914.914,0,0,1,94.866,184.58Zm0,0" transform="translate(-92.5 -181.301)" fill="#19a389"/>
    </g>
  </g>
</svg>
