<svg xmlns="http://www.w3.org/2000/svg" width="302.692" height="281.94" viewBox="0 0 302.692 281.94">
  <g id="_54" data-name="54" transform="translate(-184.181 -240.172)">
    <path id="Path_449" data-name="Path 449" d="M495.871,1137.13a30.509,30.509,0,0,0,5.336,12.847c.2.295.4.494.593.791.494.592.988,1.086,1.482,1.58a5,5,0,0,0,.79.693,29.3,29.3,0,0,0,8,4.841c6.226,2.669,6.522,9.488,6.522,9.488l-48.818-.3c.593-8.1.593-23.42.593-23.42C480.553,1140.587,485.495,1138.71,495.871,1137.13Z" transform="translate(-205.457 -645.257)" fill="#040309"/>
    <path id="Path_450" data-name="Path 450" d="M566.492,1182.55c.2.3.4.494.593.791-1.976.89-3.953,1.877-5.929,2.767-.593.295-1.087-.592-.494-.791C562.539,1184.427,564.516,1183.538,566.492,1182.55Z" transform="translate(-270.642 -677.931)" fill="#fff"/>
    <path id="Path_451" data-name="Path 451" d="M572.619,1191a4.85,4.85,0,0,0,.79.693c-2.174,1.086-4.447,2.074-6.621,3.163-.593.3-1.087-.592-.494-.791C568.37,1192.978,570.544,1191.991,572.619,1191Z" transform="translate(-274.694 -684.01)" fill="#fff"/>
    <path id="Path_452" data-name="Path 452" d="M222.722,1060.883a29.753,29.753,0,0,0-8.8,10.77c-.1.3-.3.592-.4.89a17,17,0,0,0-.692,2.077c-.1.295-.2.69-.3.988a31.187,31.187,0,0,0-.494,9.387c.494,6.721-5.336,10.181-5.336,10.181l-22.532-43.285c6.819-4.742,13.341-9.19,18.578-14.429A226.907,226.907,0,0,1,222.722,1060.883Z" transform="translate(0 -573.556)" fill="#040309"/>
    <path id="Path_453" data-name="Path 453" d="M324.237,707.071s-11.76-4.941-21.444-6.226c.593-8.5.79-14.132.79-14.132l-31.228,2.075c-3.36,19.27-4.744,47.237-18.974,71.843-6.423,11.167-17.491,20.062-29.054,30.043,6.424,8.795,16.7,20.356,23.223,29.15,1.878-3.062,29.745-17.788,43.976-55.636-.4,30.338-1.482,61.369-1.482,61.369l35.378-2.273S330.265,759.15,324.237,707.071Z" transform="translate(-28.881 -321.235)" fill="#fff"/>
    <path id="Path_454" data-name="Path 454" d="M286.469,824.066v-.789c0-.3.988-28.561,1.482-57.317-11.661,28.066-30.635,42.593-38.837,48.916a26.085,26.085,0,0,0-3.656,3.064l-.593.988-.692-.89c-3.063-4.15-7.115-8.991-10.969-13.638-4.348-5.334-8.894-10.77-12.353-15.512l-.4-.595.494-.494c1.186-.988,2.372-2.074,3.558-3.062,10.08-8.7,19.567-16.9,25.3-26.782,11.463-19.863,14.527-41.9,17.1-59.688.593-4.249,1.186-8.3,1.779-11.957l.1-.593,32.611-2.174v.79c0,.1-.2,5.435-.79,13.44,9.586,1.383,20.851,6.127,20.95,6.226l.4.2.1.4c5.929,51.486,1.186,115.621,1.186,116.315v.69Zm3.063-66.407-.1,4.249c-.4,27.274-1.285,55.44-1.483,60.578l33.9-2.175c.494-6.819,4.348-66.408-1.186-114.929-2.174-.89-12.353-4.941-20.851-6.028l-.692-.1.1-.692c.494-6.522.692-11.464.79-13.242L270.163,687.3c-.593,3.558-1.087,7.313-1.68,11.365-2.569,17.887-5.633,40.122-17.2,60.182-5.83,10.08-15.416,18.381-25.595,27.175a38.5,38.5,0,0,1-3.063,2.57c3.36,4.546,7.708,9.782,11.859,14.822,3.656,4.448,7.412,8.994,10.475,12.948.692-.595,1.779-1.484,3.36-2.669,8.5-6.521,28.56-21.939,39.924-52.08Z" transform="translate(-26.096 -318.954)" fill="#040309"/>
    <path id="Path_455" data-name="Path 455" d="M275.217,1148.927c-.1.3-.3.592-.4.89-1.779-1.285-3.459-2.669-5.237-3.954-.494-.393,0-1.282.494-.887C271.758,1146.359,273.438,1147.641,275.217,1148.927Z" transform="translate(-61.29 -650.83)" fill="#fff"/>
    <path id="Path_456" data-name="Path 456" d="M270.078,1158.724c-.1.3-.2.693-.3.99-1.976-1.484-3.953-2.868-5.83-4.349-.494-.4,0-1.285.494-.89C266.323,1155.859,268.2,1157.243,270.078,1158.724Z" transform="translate(-57.238 -657.664)" fill="#fff"/>
    <path id="Path_457" data-name="Path 457" d="M469.926,836.551a.364.364,0,0,1-.3-.1.7.7,0,0,1-.4-.988c7.016-18.183,9.684-39.331,9.684-39.529l.1-.593h.593a53.966,53.966,0,0,0,9.19-1.285.72.72,0,1,1,.4,1.384,56.1,56.1,0,0,1-8.894,1.285c-.494,3.656-3.261,22.63-9.685,39.232C470.42,836.353,470.222,836.551,469.926,836.551Z" transform="translate(-205.007 -398.438)" fill="#040309"/>
    <path id="Path_458" data-name="Path 458" d="M729.143,695.088c-3.162,2.273-6.917,3.459-10.574,1.482-5.831-3.261-3.261-10.179-.1-14.527l-3.854-4.842-25.792,20.95,20.95,25.793,25.792-20.95Z" transform="translate(-363.032 -314.391)" fill="#f93542"/>
    <path id="Path_459" data-name="Path 459" d="M825.332,948.07l-27.769,7.117-17.492,4.546-11.661-45.261,13.143-3.36a10.419,10.419,0,0,1,7.609-12.748c6.621-1.68,11.364,1.977,12.748,7.609l11.858-3.063,3.064,11.859Z" transform="translate(-420.286 -473.197)" fill="#fff"/>
    <path id="Path_460" data-name="Path 460" d="M776.945,958.555l-12.056-46.743,13.143-3.36a11.284,11.284,0,0,1,1.383-7.807,10.8,10.8,0,0,1,6.917-5.139,11.051,11.051,0,0,1,8.6.988,11.487,11.487,0,0,1,4.842,6.423l11.859-3.063L823.688,946.6ZM766.767,912.9l11.266,43.877,43.877-11.267-11.266-43.876-11.76,3.063-.2-.593a10.122,10.122,0,0,0-4.447-6.325,10.235,10.235,0,0,0-13.44,3.656,10.2,10.2,0,0,0-1.087,7.412l.2.692-.692.2Z" transform="translate(-417.752 -471.129)" fill="#040309"/>
    <path id="Path_461" data-name="Path 461" d="M811,989.546l-5.83,1.58-3.656.89-2.471-9.487,9.586-2.471.593,2.471Z" transform="translate(-442.324 -532.262)" fill="#f93542"/>
    <path id="Path_462" data-name="Path 462" d="M853.62,978.98l-5.83,1.583-3.656.89-2.471-9.488,9.586-2.471.593,2.471Z" transform="translate(-472.982 -524.662)" fill="#f93542"/>
    <path id="Path_463" data-name="Path 463" d="M897.533,990.669l-27.769,7.116a35.064,35.064,0,0,1-.988-8.5,35.491,35.491,0,0,1,20.258-32.117Z" transform="translate(-492.487 -515.795)" fill="#fff"/>
    <path id="Path_464" data-name="Path 464" d="M866.892,996.137l-.2-.69a36.08,36.08,0,0,1,19.567-41.407l.791-.4,8.993,35.081Zm19.27-40.417a35.025,35.025,0,0,0-18.974,31.03,32.708,32.708,0,0,0,.89,7.61l26.286-6.721Z" transform="translate(-490.207 -513.261)" fill="#040309"/>
    <path id="Path_465" data-name="Path 465" d="M1052.1,713.334l-6.423,14.724c-7.015-3.063-14.626-1.087-18.184,7.115a13.812,13.812,0,0,0,7.215,18.183l-7.117,16.306-56.327-24.508,16.7-38.343,7.807-17.986,19.567,8.5,6.521,2.866,21.939,9.586Z" transform="translate(-566.213 -322.754)" fill="#fff"/>
    <path id="Path_466" data-name="Path 466" d="M1025.451,768.118l-57.712-25.1,25.1-57.712,57.712,25.1-6.917,16.009-.791-.2a13.56,13.56,0,0,0-10.178-.494c-3.064,1.186-5.436,3.755-7.018,7.313a13.167,13.167,0,0,0,6.721,17.2l.791.2-.3.791Zm-55.735-25.793,55.045,23.915,6.521-14.922a15.009,15.009,0,0,1,.89-26.978,14.293,14.293,0,0,1,10.672.3l5.831-13.44-55.046-23.915Z" transform="translate(-563.679 -320.221)" fill="#040309"/>
    <path id="Path_467" data-name="Path 467" d="M1069.632,772c0,10.87-7.116,15.91-15.911,15.91A15.91,15.91,0,1,1,1069.632,772Z" transform="translate(-614.087 -371.141)" fill="#fff"/>
    <path id="Path_468" data-name="Path 468" d="M1051.954,787.18a16.6,16.6,0,1,1,16.6-16.6C1068.555,780.757,1062.23,787.18,1051.954,787.18Zm0-31.821a15.12,15.12,0,0,0,0,30.239c9.485,0,15.12-5.633,15.12-15.12A15.184,15.184,0,0,0,1051.954,755.359Z" transform="translate(-612.317 -369.622)" fill="#040309"/>
    <path id="Path_469" data-name="Path 469" d="M1070.78,808.41l-2.371-11.365a.755.755,0,1,1,1.482-.3l1.877,9.091,13.242-9.586a.713.713,0,0,1,.791,1.186Z" transform="translate(-636.085 -399.944)" fill="#f93542"/>
    <path id="Path_470" data-name="Path 470" d="M1173.508,738.912a13.857,13.857,0,0,1-21.938-9.586Z" transform="translate(-695.924 -351.889)" fill="#fff"/>
    <path id="Path_471" data-name="Path 471" d="M1163.026,739.232a14.458,14.458,0,0,1-14.426-12.847l-.2-1.285,24.31,10.574-1.086.791A14.851,14.851,0,0,1,1163.026,739.232Zm-12.847-11.661a13.113,13.113,0,0,0,12.748,10.277,12.784,12.784,0,0,0,6.62-1.779Z" transform="translate(-693.644 -348.85)" fill="#040309"/>
    <path id="Path_472" data-name="Path 472" d="M896.6,290.039l11.957-7.609,1.186,13.539Z" transform="translate(-512.503 -30.399)" fill="#fff"/>
    <path id="Path_473" data-name="Path 473" d="M906.48,293.859l-15.515-7.016,14.23-8.993Zm-12.451-7.214,10.771,4.842-.889-11.068Z" transform="translate(-508.449 -27.105)" fill="#040309"/>
    <path id="Path_474" data-name="Path 474" d="M679.451,990.872c-.2,0-.3-.1-.494-.2a.777.777,0,0,1-.1-1.089l3.261-4.248a.772.772,0,1,1,1.186.988l-3.261,4.25A.6.6,0,0,1,679.451,990.872Z" transform="translate(-355.734 -535.861)" fill="#040309"/>
    <path id="Path_475" data-name="Path 475" d="M974.406,288.413a.542.542,0,0,1-.593-.4.743.743,0,0,1,.2-.988l10.871-6.621a.713.713,0,0,1,.791,1.186L974.8,288.216C974.6,288.413,974.5,288.413,974.406,288.413Z" transform="translate(-567.974 -28.871)" fill="#040309"/>
    <path id="Path_476" data-name="Path 476" d="M976.877,593.456a.364.364,0,0,1-.3-.1.685.685,0,0,1-.3-.988l4.546-8.8a.729.729,0,1,1,1.285.692l-4.546,8.8A.832.832,0,0,1,976.877,593.456Z" transform="translate(-569.755 -246.753)" fill="#040309"/>
    <path id="Path_477" data-name="Path 477" d="M709.677,948.117a.363.363,0,0,1-.3-.1L699.7,943.67a.753.753,0,0,1,.593-1.383l9.685,4.348a.809.809,0,0,1,.4.988C710.172,947.919,709.974,948.117,709.677,948.117Z" transform="translate(-370.544 -505.064)" fill="#040309"/>
    <path id="Path_478" data-name="Path 478" d="M931.8,814.515a.7.7,0,0,1-.593-.3.767.767,0,0,1,.2-.988l3.854-2.471a.743.743,0,0,1,.988.2.766.766,0,0,1-.2.988l-3.854,2.471C932.093,814.416,931.9,814.515,931.8,814.515Z" transform="translate(-537.322 -410.397)" fill="#040309"/>
    <path id="Path_479" data-name="Path 479" d="M979.686,922.821a.755.755,0,0,1-.494-.2l-5.336-5.435a.769.769,0,1,1,1.087-1.087l5.336,5.435a.775.775,0,0,1,0,1.087A1.4,1.4,0,0,1,979.686,922.821Z" transform="translate(-567.919 -486.093)" fill="#040309"/>
    <path id="Path_480" data-name="Path 480" d="M1062.768,627.263a.742.742,0,0,1-.69-.494l-4.745-11.463a.753.753,0,0,1,1.384-.593l4.745,11.463a.723.723,0,0,1-.4.988C1062.967,627.164,1062.869,627.263,1062.768,627.263Z" transform="translate(-628.076 -269.098)" fill="#040309"/>
    <path id="Path_481" data-name="Path 481" d="M942.658,247.584a.746.746,0,0,1-.692-.4l-3.36-5.929a.73.73,0,0,1,1.285-.692l3.36,5.929a.685.685,0,0,1-.3.988C942.955,247.584,942.757,247.584,942.658,247.584Z" transform="translate(-542.65 0)" fill="#040309"/>
    <path id="Path_482" data-name="Path 482" d="M559.468,449.706c-5.435,5.238-13.835,14.922-21.839,18.085-9.981,3.953-27.571-17.59-40.023-16.306l3.162,21.642s10.475,21.642,29.844,25.891,39.133-29.647,39.232-29.745C567.374,463.442,564.113,453.56,559.468,449.706Z" transform="translate(-225.473 -150.735)" fill="#040309"/>
    <path id="Path_483" data-name="Path 483" d="M462.912,442.473l-1.581,4.249,18.578,2.174.889-8.7Z" transform="translate(-199.377 -143.897)" fill="#040309"/>
    <path id="Path_484" data-name="Path 484" d="M408.632,458.316c-10.475-8.1-28.164,2.273-33.4,17.887-3.953,11.859-9.685,69.966-9.685,69.966l63.542-.89s-5.139-62.653-12.55-73.227S412.19,460.984,408.632,458.316Z" transform="translate(-130.471 -154.897)" fill="#040309"/>
    <path id="Path_485" data-name="Path 485" d="M556.773,543.271a.653.653,0,0,1-.692-.593c0-.1-1.285-5.929-3.953-15.021a.719.719,0,0,1,1.383-.4c2.767,9.19,3.953,15.021,3.953,15.12a.77.77,0,0,1-.593.889Z" transform="translate(-264.677 -206.154)" fill="#fff"/>
    <path id="Path_486" data-name="Path 486" d="M674.74,457.027c6.226-11.859,13.341-12.847,17.294-12.649S695,449.516,695,449.516Z" transform="translate(-352.9 -146.887)" fill="#fff"/>
    <path id="Path_487" data-name="Path 487" d="M669.1,456.652l.889-1.68c4.744-8.993,10.772-13.341,17.985-13.044a3.815,3.815,0,0,1,2.866,1.383c1.383,1.779.79,4.546.79,4.645l-.1.4Zm18.183-13.341c-5.929,0-10.87,3.459-15.021,10.574l17.985-6.72a4.414,4.414,0,0,0-.593-3.064,2.172,2.172,0,0,0-1.779-.79Z" transform="translate(-348.847 -145.129)" fill="#040309"/>
    <path id="Path_488" data-name="Path 488" d="M771.44,398.716l-62.752,11.661-8-42.691-3.755-20.061,21.84-4.052,40.912-7.609,3.064,16.4c-7.807,1.482-13.143,7.51-11.464,16.7a14.329,14.329,0,0,0,16.7,11.463Z" transform="translate(-368.862 -68.911)" fill="#f93542"/>
    <path id="Path_489" data-name="Path 489" d="M775.681,431.792a.6.6,0,0,1-.4-.1l-66.8-45.853a.713.713,0,0,1,.791-1.186l66.8,45.853a.767.767,0,0,1,.2.988A.6.6,0,0,1,775.681,431.792Z" transform="translate(-376.958 -103.864)" fill="#fff"/>
    <path id="Path_490" data-name="Path 490" d="M746.212,415.408a.6.6,0,0,1-.4-.1.766.766,0,0,1-.2-.988l45.853-66.8a.713.713,0,0,1,1.186.791l-45.853,66.8A.7.7,0,0,1,746.212,415.408Z" transform="translate(-403.816 -77.006)" fill="#fff"/>
    <path id="Path_491" data-name="Path 491" d="M700.1,370l20.16-3.755a23.732,23.732,0,0,1-16.8,22.235Z" transform="translate(-371.143 -90.698)" fill="#fff"/>
    <path id="Path_492" data-name="Path 492" d="M717.286,364.857a23.039,23.039,0,0,1-15.416,20.357l-3.162-16.9Zm1.482-1.779-21.84,4.052,3.755,20.061a24.632,24.632,0,0,0,18.084-23.717Z" transform="translate(-368.863 -88.416)" fill="#040309"/>
    <path id="Path_493" data-name="Path 493" d="M680.462,459.885s1.977-5.04-3.459-4.348-16.6.4-27.473,13.835Q648.2,471,646.566,472.93c5.929,5.237,11.364,10.87,16.8,16.6,1.087-2.371,1.878-4.447,2.569-5.83,5.237-10.376,17.985-5.04,16.009-16.305C681.944,467.494,685.3,460.577,680.462,459.885Z" transform="translate(-332.632 -154.883)" fill="#fff"/>
    <path id="Path_494" data-name="Path 494" d="M661.13,489.058l-.791-.79c-4.447-4.744-10.376-10.969-16.8-16.6l-.494-.494.494-.593c1.087-1.285,2.174-2.569,2.965-3.558,9.882-12.254,19.962-13.242,25.99-13.835.692-.1,1.383-.1,1.976-.2,1.878-.3,3.261.1,4.052,1.087a4.059,4.059,0,0,1,.494,3.459,3.015,3.015,0,0,1,1.878,1.581c1.186,2.273-.2,5.732-.593,6.72,1.087,6.522-2.767,7.905-6.72,9.388-3.261,1.186-7.016,2.668-9.289,7.115-.494.89-.988,2.075-1.581,3.459-.3.692-.692,1.482-.988,2.372Zm-16.009-18.084c5.83,5.237,11.266,10.87,15.515,15.416.2-.494.4-.89.593-1.285.593-1.384,1.087-2.569,1.581-3.558,2.569-4.941,6.72-6.522,10.179-7.807,4.052-1.482,6.72-2.471,5.732-8v-.2l.1-.2c.494-.988,1.581-4.052.692-5.534a1.865,1.865,0,0,0-1.68-.988l-.89-.1.3-.889c.2-.494.593-2.075,0-2.767-.494-.692-1.68-.692-2.668-.494a12.171,12.171,0,0,1-1.977.2c-5.83.593-15.515,1.581-25,13.341C646.9,468.9,646.01,469.886,645.121,470.973Z" transform="translate(-330.1 -153.027)" fill="#040309"/>
    <path id="Path_495" data-name="Path 495" d="M471.092,511.441c-8.3,10.08-26.089,29.054-39.627,20.061-14.527-9.684-16.5-20.159-16.5-20.159l-10.772.3c-9.19,19.863-2.273,52.079,37.75,49.51,31.326-2.075,40.813-22.235,45.359-32.809C482.061,522.41,476.528,516.975,471.092,511.441Z" transform="translate(-155.676 -195.075)" fill="#040309"/>
    <path id="Path_496" data-name="Path 496" d="M483.311,538.016c-13.539,0-22.432-9.685-24.508-17.492a.72.72,0,0,1,1.384-.4c2.174,8.4,13.044,19.171,29.251,15.713,11.364-2.471,20.456-16.9,20.555-17a.713.713,0,1,1,1.186.79c-.4.593-9.487,15.12-21.543,17.689A28.806,28.806,0,0,1,483.311,538.016Z" transform="translate(-197.541 -200.206)" fill="#fff"/>
    <path id="Path_497" data-name="Path 497" d="M736.934,497.255a26,26,0,0,0-11.463,2.964c-.593.3-.1,1.186.494.89a24.806,24.806,0,0,1,10.969-2.866A.5.5,0,0,0,736.934,497.255Z" transform="translate(-389.203 -184.941)" fill="#040309"/>
    <path id="Path_498" data-name="Path 498" d="M733.108,473.642a27.158,27.158,0,0,0-9.19,2.174c-.593.2-.3,1.186.3.988a27.8,27.8,0,0,1,8.894-2.075C733.7,474.532,733.8,473.543,733.108,473.642Z" transform="translate(-388.045 -167.95)" fill="#040309"/>
    <path id="Path_499" data-name="Path 499" d="M458.93,623.106c-17.195,0-31.425-12.254-37.947-24.705a.73.73,0,1,1,1.285-.692c6.819,13.044,22.531,25.99,41.11,23.618a.7.7,0,1,1,.2,1.383A25.261,25.261,0,0,1,458.93,623.106Z" transform="translate(-170.294 -256.935)" fill="#fff"/>
    <path id="Path_500" data-name="Path 500" d="M1012.449,328.569v63.839H948.61v-18.48A14.339,14.339,0,0,1,934.281,359.6c0-9.289,6.423-14.329,14.329-14.329v-16.7Z" transform="translate(-539.61 -63.591)" fill="#fff"/>
    <path id="Path_501" data-name="Path 501" d="M1010.86,391.069H945.54v-18.48a15.163,15.163,0,0,1-14.428-15.021c0-8.8,5.732-14.724,14.428-15.021v-16.8h65.32Zm-63.837-1.482h62.356V327.23H947.022v16.7h-.791c-8.3,0-13.637,5.336-13.637,13.637a13.665,13.665,0,0,0,13.637,13.637h.791v18.381Z" transform="translate(-537.33 -61.562)" fill="#040309"/>
    <path id="Path_502" data-name="Path 502" d="M1048.1,380.153h-20.061a.78.78,0,0,1-.791-.791.728.728,0,0,1,.791-.79H1048.1a.791.791,0,1,1,0,1.581Z" transform="translate(-606.49 -99.562)" fill="#040309"/>
    <path id="Path_503" data-name="Path 503" d="M1048.1,404.8h-20.061a.78.78,0,0,1-.791-.79.728.728,0,0,1,.791-.79H1048.1a.79.79,0,1,1,0,1.581Z" transform="translate(-606.49 -117.296)" fill="#040309"/>
    <path id="Path_504" data-name="Path 504" d="M1125.435,422.352v36.07h-30.043a24.208,24.208,0,0,1-4.052-13.44c0-16.009,10.969-24.508,24.509-24.508A25.488,25.488,0,0,1,1125.435,422.352Z" transform="translate(-652.596 -129.706)" fill="#fff"/>
    <path id="Path_505" data-name="Path 505" d="M1124.358,457.441h-31.129l-.2-.3a25.509,25.509,0,0,1-4.15-13.835c0-15.12,10.178-25.3,25.3-25.3a25.444,25.444,0,0,1,9.785,1.977l.494.2v37.256Zm-30.34-1.482h28.856V421.074a23.872,23.872,0,0,0-8.7-1.68c-14.426,0-23.816,9.388-23.816,23.816A23.943,23.943,0,0,0,1094.018,455.959Z" transform="translate(-650.826 -127.934)" fill="#040309"/>
    <path id="Path_506" data-name="Path 506" d="M469.688,358.55c-3.261-7.214-11.167-10.673-17.59-7.708s-9.091,11.167-5.83,18.381v.1a5.485,5.485,0,0,0-1.68,1.087c-3.261,2.767-2.569,6.819.593,8.2a7.7,7.7,0,0,0,8.993-1.878,14.2,14.2,0,0,0,9.684.2C473.344,373.571,472.949,365.764,469.688,358.55Z" transform="translate(-185.795 -78.85)" fill="#fff"/>
    <path id="Path_507" data-name="Path 507" d="M446.428,377.872a8.986,8.986,0,0,1-3.656-.79,5.226,5.226,0,0,1-3.063-3.953,6.227,6.227,0,0,1,2.372-5.534,14.506,14.506,0,0,1,1.285-.89c-3.063-7.51-.3-15.811,6.424-18.776a12.743,12.743,0,0,1,10.574.1,16.183,16.183,0,0,1,8,8c2.372,5.237,2.767,9.586,1.383,13.044-1.186,2.866-3.755,5.04-7.51,6.324a15.079,15.079,0,0,1-9.783,0A8.359,8.359,0,0,1,446.428,377.872Zm8.5-29.449a10.48,10.48,0,0,0-4.546.988c-6.127,2.767-8.5,10.574-5.435,17.393l.3.593-.593.4a11.008,11.008,0,0,0-1.581.988,4.389,4.389,0,0,0-1.779,4.15,3.5,3.5,0,0,0,2.174,2.767,6.994,6.994,0,0,0,8.2-1.68l.3-.4.494.2a12.821,12.821,0,0,0,9.191.2c3.36-1.186,5.633-3.063,6.72-5.534,1.285-3.063.889-7.016-1.285-11.859a14.094,14.094,0,0,0-7.214-7.313A14.935,14.935,0,0,0,454.927,348.424Z" transform="translate(-183.782 -76.728)" fill="#040309"/>
    <path id="Path_508" data-name="Path 508" d="M503.928,394.646a.988.988,0,1,0-1.017-.959A.988.988,0,0,0,503.928,394.646Z" transform="translate(-229.289 -109.705)" fill="#040309"/>
    <path id="Path_509" data-name="Path 509" d="M522.89,386.125a23.023,23.023,0,0,0-4.249-5.04c-.494-.4-1.186.3-.692.692a24.431,24.431,0,0,1,4.15,4.842C522.4,387.212,523.187,386.619,522.89,386.125Z" transform="translate(-239.985 -101.286)" fill="#040309"/>
    <path id="Path_510" data-name="Path 510" d="M454.679,335.962c-2.174,2.372-12.946,7.708-8.894,13.044.988,1.384,2.174,1.878,1.087,3.261a1.674,1.674,0,0,1-2.471-.3c-1.977.494-4.151,1.186-5.238,2.174-5.237-4.546-5.237-10.278-2.866-12.155,0,0,13.835-19.863,20.258-14.626C462.189,332.108,454.679,335.962,454.679,335.962Z" transform="translate(-180.272 -62.092)" fill="#040309"/>
    <path id="Path_511" data-name="Path 511" d="M458.36,429.116a5.178,5.178,0,0,0-6.127,1.383c-.4.494.3,1.186.692.692a3.979,3.979,0,0,1,4.941-1.186C458.459,430.3,458.953,429.412,458.36,429.116Z" transform="translate(-192.748 -135.58)" fill="#040309"/>
  </g>
</svg>
