<svg xmlns="http://www.w3.org/2000/svg" width="302.489" height="287.768" viewBox="0 0 302.489 287.768">
  <g id="_78" data-name="78" transform="translate(-180.166 -125.015)">
    <path id="Path_383" data-name="Path 383" d="M776.1,474.715,673.327,513.267l50.961,130.814L788.7,474.715Z" transform="translate(-360.511 -255.638)" fill="#f93542"/>
    <path id="Path_384" data-name="Path 384" d="M241.58,992.546h-44.8s-29.648-55.13-3.126-59.108c26.523-4.073,31.543,33.343,31.543,33.343S239.117,958.445,241.58,992.546Z" transform="translate(-1.795 -590.748)" fill="#fff"/>
    <path id="Path_385" data-name="Path 385" d="M240.543,991.545H194.6l-.189-.379c-.853-1.514-20.176-37.888-12.409-53.424,1.894-3.789,5.21-5.968,9.756-6.725,6.536-.947,12.314.379,17.24,4.073,10.8,8.146,14.209,24.724,14.967,28.89a8.071,8.071,0,0,1,6.725.379c5.4,2.84,8.715,11.746,9.851,26.427Zm-45.089-1.42h43.668c-1.326-17.05-5.683-22.734-9-24.534a6.984,6.984,0,0,0-6.252,0l-.947.568-.19-1.041c0-.191-2.841-20.177-14.587-28.892a20.579,20.579,0,0,0-16.2-3.789c-4.168.663-7.1,2.558-8.714,5.968C176.13,952.519,193.37,986.147,195.454,990.125Z" transform="translate(0 -588.989)" fill="#040309"/>
    <path id="Path_386" data-name="Path 386" d="M1068.719,1101.938H1046.27C1049.016,1089.531,1068.434,1065.85,1068.719,1101.938Z" transform="translate(-633.14 -700.141)" fill="#fff"/>
    <path id="Path_387" data-name="Path 387" d="M1066.807,1100.9H1042.75l.188-.853c1.8-8.05,10.041-20.461,16.577-19.7,4.737.473,7.1,7.2,7.2,19.891Zm-22.164-1.42h20.838c-.188-11.085-2.273-17.336-5.966-17.715C1054.114,1081.193,1046.631,1091.992,1044.644,1099.475Z" transform="translate(-630.567 -698.339)" fill="#040309"/>
    <path id="Path_388" data-name="Path 388" d="M1173.3,1063.633h-22.449C1146.309,1011.726,1173.022,1027.545,1173.3,1063.633Z" transform="translate(-709.214 -661.836)" fill="#fff"/>
    <path id="Path_389" data-name="Path 389" d="M1171.841,1062.4h-23.778l-.094-.664c-1.609-18,.379-29.744,5.5-33.152a5.6,5.6,0,0,1,6.063-.1c5.966,3.222,12.123,15.63,12.217,33.154Zm-22.449-1.42h21.026c-.282-16.389-6.06-28.323-11.461-31.166a4.532,4.532,0,0,0-4.64,0C1149.865,1032.751,1147.969,1044.4,1149.392,1060.981Z" transform="translate(-707.086 -659.844)" fill="#040309"/>
    <path id="Path_390" data-name="Path 390" d="M1184.124,1080.583h-1.9a.748.748,0,0,1-.756-.758.7.7,0,0,1,.756-.759h.476c-.1-8.145-.759-18.85-3.031-25.574a.749.749,0,1,1,1.42-.473c2.461,7.1,3.031,18.471,3.125,26.712Z" transform="translate(-730.642 -678.026)" fill="#040309"/>
    <path id="Path_391" data-name="Path 391" d="M1091.589,1126.408h-.191a.677.677,0,0,1-.474-.853l2.652-9.85a.69.69,0,1,1,1.326.379l-2.652,9.85A.711.711,0,0,1,1091.589,1126.408Z" transform="translate(-665.766 -723.851)" fill="#040309"/>
    <path id="Path_392" data-name="Path 392" d="M261.635,1031.735h-1.8a.748.748,0,0,1-.758-.758.632.632,0,0,1,.568-.662c-4.547-13.64-11.177-31.922-17.619-43.574a.7.7,0,1,1,1.231-.663c6.631,11.935,13.545,30.879,18.092,44.71Z" transform="translate(-45.153 -629.178)" fill="#040309"/>
    <path id="Path_393" data-name="Path 393" d="M334.507,1093.153a.349.349,0,0,1-.284-.094.657.657,0,0,1-.284-.947l5.684-11.652a.7.7,0,1,1,1.231.662l-5.684,11.652A1.209,1.209,0,0,1,334.507,1093.153Z" transform="translate(-112.342 -698.173)" fill="#040309"/>
    <path id="Path_394" data-name="Path 394" d="M592,783.385s-1.8-5.872-6.915-7.483c-2.936-.947-6.82-.188-10.42-7.1-2.557-5.022-5.873-22.355-10.419-38.174-14.019-49.446-30.785-75.968-30.785-75.968l-10.988,10.135h-26.9C491.5,691.5,448.3,779.6,448.3,779.6l36.847,19.418s2.652-5.5,0-10.135-10.514-7.2,12.409-39.405c9.946-14.019,17.334-31.922,22.544-47.741,14.682,35.805,31.543,92.357,31.543,92.357Z" transform="translate(-196.014 -387.179)" fill="#fff"/>
    <path id="Path_395" data-name="Path 395" d="M483.211,796.876,445.132,776.8l.284-.664c.474-.853,43.194-88.282,47.172-114.615l.095-.568h27.186l11.367-10.514.474.758c.189.284,16.956,27.186,30.88,76.157,1.8,6.441,3.5,13.167,4.926,19.133,2.084,8.621,3.884,16.01,5.4,18.947,2.747,5.3,5.494,5.872,8.146,6.345a13.928,13.928,0,0,1,1.895.473c5.4,1.705,7.294,7.674,7.388,7.956l.189.664-41.583,11.082-.189-.662c-.189-.57-16.482-55.035-30.785-90.557-6.346,18.945-13.735,34.385-21.976,46.035-19.987,28.132-16.2,33.248-13.451,37.038a15.431,15.431,0,0,1,1.042,1.609c2.842,4.925.095,10.609,0,10.8Zm-36.184-20.65,35.521,18.756c.568-1.514,1.705-5.493-.284-8.809a13.592,13.592,0,0,0-1.042-1.42c-3.221-4.357-7.2-9.758,13.451-38.744,8.431-11.839,16.009-27.848,22.449-47.55l.568-1.8.758,1.8c13.64,33.343,29.459,85.347,31.353,91.786l38.836-10.418c-.663-1.517-2.463-5.116-6.157-6.254a11.426,11.426,0,0,0-1.705-.379c-2.652-.473-6.062-1.135-9.093-7.1-1.61-3.031-3.315-10.229-5.494-19.229-1.421-5.967-3.126-12.692-4.925-19.039-12.6-44.331-27.47-70.474-30.217-75.116l-10.514,9.662H494.009C489.557,688.419,450.815,768.365,447.026,776.227Z" transform="translate(-193.695 -384.093)" fill="#040309"/>
    <path id="Path_396" data-name="Path 396" d="M842.4,1079.01c-9.283,3.031-18.471,6.442-27.849,9.283,3.031,9.756,4.926,16.009,4.926,16.009l40.257-10.8s-1.8-5.872-6.915-7.483C849.88,1085.261,846,1086.02,842.4,1079.01Z" transform="translate(-463.746 -697.391)" fill="#040309"/>
    <path id="Path_397" data-name="Path 397" d="M912.358,1086.318c-1.61,1.705-3.22,3.317-4.831,5.022-.379.379.189,1.041.568.662,1.61-1.705,3.221-3.314,4.831-5.019C913.305,1086.509,912.737,1085.844,912.358,1086.318Z" transform="translate(-531.625 -702.614)" fill="#fff"/>
    <path id="Path_398" data-name="Path 398" d="M921.163,1089.622c-1.61,1.705-3.221,3.314-4.831,5.019-.379.379.19,1.044.568.664,1.61-1.705,3.22-3.317,4.831-5.022C922.205,1089.9,921.542,1089.242,921.163,1089.622Z" transform="translate(-538.062 -705.065)" fill="#fff"/>
    <path id="Path_399" data-name="Path 399" d="M482.4,1074.936c-8.9-4.169-18-7.862-26.807-12.126-4.357,9.188-7.294,15.157-7.294,15.157l36.847,19.418s2.652-5.5,0-10.135C483.73,1084.5,480.414,1082.513,482.4,1074.936Z" transform="translate(-196.014 -685.548)" fill="#040309"/>
    <path id="Path_400" data-name="Path 400" d="M555.83,1118.46c-2.273.094-4.641.282-6.915.377a.426.426,0,0,0,0,.853c2.273-.094,4.641-.282,6.915-.377A.426.426,0,0,0,555.83,1118.46Z" transform="translate(-269.252 -726.23)" fill="#fff"/>
    <path id="Path_401" data-name="Path 401" d="M560.06,1127.24c-2.273.094-4.642.285-6.915.379a.426.426,0,0,0,0,.853c2.273-.094,4.642-.285,6.915-.379C560.629,1128,560.629,1127.146,560.06,1127.24Z" transform="translate(-272.344 -732.643)" fill="#fff"/>
    <path id="Path_402" data-name="Path 402" d="M712.526,774.421a.348.348,0,0,1-.284-.095.692.692,0,0,1-.379-.947,86.474,86.474,0,0,0,4.642-15.251l.095-.474,6.536-1.989a.69.69,0,0,1,.379,1.326l-5.684,1.7a89.026,89.026,0,0,1-4.641,15.061C713.094,774.232,712.81,774.421,712.526,774.421Z" transform="translate(-388.627 -461.001)" fill="#040309"/>
    <path id="Path_403" data-name="Path 403" d="M729.852,356.331a11.321,11.321,0,0,0-8.62-3.221c-6.82.568-11.745,7.2-10.988,14.777v.095a18.979,18.979,0,0,0,.379,2.273c-2.652,1.894-2.178,5.873-.095,7.862a5.833,5.833,0,0,0,7.1.947,12.417,12.417,0,0,0,6.063,1.421c9.662-.095,13.166-7.2,10.988-14.777C733.83,362.3,732.5,358.7,729.852,356.331Z" transform="translate(-386.44 -166.715)" fill="#fff"/>
    <path id="Path_404" data-name="Path 404" d="M721.588,379.081a13.472,13.472,0,0,1-5.968-1.421,6.518,6.518,0,0,1-7.578-1.231,6.849,6.849,0,0,1-1.989-5.115,5.177,5.177,0,0,1,1.705-3.5,7.074,7.074,0,0,1-.284-1.894v-.189a15.1,15.1,0,0,1,3.315-10.988,12.392,12.392,0,0,1,8.336-4.452,12.181,12.181,0,0,1,9.188,3.41c2.842,2.652,4.168,6.536,5.02,9.662,1.231,4.263.663,8.43-1.516,11.272-2.084,2.841-5.589,4.357-10.23,4.452Zm-5.968-3.031.379.189a12.318,12.318,0,0,0,5.684,1.421c4.073,0,7.2-1.326,9-3.789,1.894-2.557,2.368-6.157,1.326-10.041-.852-3.126-2.084-6.631-4.642-9a10.3,10.3,0,0,0-8.146-3.031,11.079,11.079,0,0,0-7.389,3.978A13.848,13.848,0,0,0,708.8,365.82v.095a19.531,19.531,0,0,0,.379,2.084l.095.474-.379.284a3.72,3.72,0,0,0-1.516,2.747,5.21,5.21,0,0,0,7.767,4.831Z" transform="translate(-384.429 -164.648)" fill="#040309"/>
    <path id="Path_405" data-name="Path 405" d="M767.594,400.828a.947.947,0,1,0-1.188.618A.947.947,0,0,0,767.594,400.828Z" transform="translate(-428.069 -200.724)" fill="#040309"/>
    <path id="Path_406" data-name="Path 406" d="M787.226,398.887a21.01,21.01,0,0,0-2.273-5.873c-.284-.568-1.137-.095-.852.473a20.751,20.751,0,0,1,2.178,5.684A.5.5,0,0,0,787.226,398.887Z" transform="translate(-441.447 -195.726)" fill="#040309"/>
    <path id="Path_407" data-name="Path 407" d="M723.433,425.831a4.87,4.87,0,0,0-5.968-.663c-.474.284-.095,1.137.473.853a3.871,3.871,0,0,1,4.831.473C723.149,426.873,723.812,426.21,723.433,425.831Z" transform="translate(-392.62 -218.881)" fill="#040309"/>
    <path id="Path_408" data-name="Path 408" d="M717.806,359.778c2.084,1.421,1.894-2.368,5.589-6.915,1.61-1.989,12.409-6.062,11.367-10.04-1.516-5.778-8.052.663-11.272.947a13.171,13.171,0,0,0-10.7,17.9C712.786,361.767,716.669,359.683,717.806,359.778Z" transform="translate(-388.698 -157.469)" fill="#040309"/>
    <path id="Path_409" data-name="Path 409" d="M620.892,356.8c1.61-2.084,1.421-2.463,3.694-3.883-1.989-7.2-13.735-14.587-21.786-5.873-3.6,3.978-2.652,10.7-2.652,11.272-5.02-.568-10.7,1.326-13.356,5.494-3.884,5.968.189,13.545,6.441,15.724,6.915,2.368,14.872-.474,20.176-5.4,8.43-7.862,2.747-19.323,3.6-19.8C618.145,353.772,620.04,355.761,620.892,356.8Z" transform="translate(-296.141 -159.419)" fill="#040309"/>
    <path id="Path_410" data-name="Path 410" d="M961.354,473.408h-4.831a.747.747,0,0,1-.758-.758.7.7,0,0,1,.758-.758h4.831a.758.758,0,0,1,0,1.515Z" transform="translate(-566.98 -253.575)" fill="#040309"/>
    <path id="Path_411" data-name="Path 411" d="M804.411,499.391a9.144,9.144,0,0,1-3.6.189c-7.294-1.042-13.735-17.334-23.4-24.533a19.909,19.909,0,0,0-8.051-3.5s-.095,3.22,0,8.146c.095,8.336,5.02,15.251,3.315,25.291-.663,3.694,7.578,18.282,23.018,19.892a33.2,33.2,0,0,0,10.7-.568C806.021,521.461,805.074,504.222,804.411,499.391Z" transform="translate(-430.685 -253.319)" fill="#040309"/>
    <path id="Path_412" data-name="Path 412" d="M797.231,523.662c-1.231,0-2.463-.095-3.789-.189-10.8-1.137-17.334-8.43-19.7-11.461-2.652-3.5-4.263-7.294-3.884-9.188,1.042-5.778-.284-10.514-1.515-15.156a42.9,42.9,0,0,1-1.8-9.946c-.095-4.831,0-8.052,0-8.146v-.852l.852.095a19.158,19.158,0,0,1,8.336,3.6c4.452,3.315,8.336,8.62,11.651,13.261,3.978,5.494,7.673,10.609,11.367,11.083a7.777,7.777,0,0,0,3.315-.189l.758-.19.095.758c.474,3.22,1.042,11.935,1.516,18.281.189,3.126.379,5.684.474,6.631l.095.663-.663.095A29.185,29.185,0,0,1,797.231,523.662Zm-29.269-53.329v7.2a41.41,41.41,0,0,0,1.705,9.567c1.231,4.736,2.557,9.662,1.515,15.819-.189,1.326.947,4.547,3.6,8.146,2.179,2.936,8.431,9.851,18.755,10.893a34.147,34.147,0,0,0,9.851-.379c-.095-1.231-.284-3.41-.379-5.968-.379-5.873-.947-13.83-1.421-17.429a8.141,8.141,0,0,1-3.031,0c-4.357-.568-8.051-5.778-12.314-11.745-3.5-4.831-7.1-9.757-11.367-12.977A19.025,19.025,0,0,0,767.962,470.333Z" transform="translate(-428.622 -251.258)" fill="#040309"/>
    <path id="Path_413" data-name="Path 413" d="M936.527,462.867h3.7c-.473-3.884-5.589-5.778-11.84-3.126-1.326-.474-3.7.758-6.063,1.989-3.315,1.8-6.536,3.884-8.43,8.146-3.315,7.01-5.873,16.955-14.114,19.987,0,7.578.19,15.913.853,23.4a39.678,39.678,0,0,0,23.87-24.628c3.126-9,7.1-10.419,7.1-10.419,2.37.474,5.4-2.273,5.969-4.452a6.178,6.178,0,0,0-.664-3.978C937.571,467.982,938.9,464.951,936.527,462.867Z" transform="translate(-526.049 -243.79)" fill="#fff"/>
    <path id="Path_414" data-name="Path 414" d="M897.9,512.275l-.095-.947c-.568-6.536-.853-14.4-.853-23.492v-.473l.474-.19c6.347-2.273,9.283-9.188,11.84-15.251.663-1.515,1.231-2.936,1.894-4.263,1.989-4.452,5.4-6.631,8.715-8.43,2.747-1.516,4.736-2.463,6.346-2.179,3.7-1.515,7.389-1.61,9.947-.095a5.13,5.13,0,0,1,2.652,3.978l.094.758H935.98c1.138,2.084.191,4.736-.377,6.252a7.355,7.355,0,0,1,.568,4.168c-.568,2.273-3.693,5.4-6.536,5.02-.662.379-3.884,2.368-6.441,9.851a40.6,40.6,0,0,1-24.344,25.007Zm.474-23.871c0,8.431.284,15.819.758,21.976a39.005,39.005,0,0,0,22.639-23.87c3.125-9.188,7.294-10.8,7.483-10.8l.191-.095h.188c1.894.379,4.643-1.989,5.116-3.884a5.876,5.876,0,0,0-.57-3.5l-.188-.284.188-.474c.95-2.368,1.611-4.547-.188-6.062l-1.42-1.231h4.737a3.861,3.861,0,0,0-1.8-2.084c-2.179-1.231-5.492-1.137-8.9.284l-.285.095-.283-.095c-1.138-.379-3.6.947-5.4,1.989-3.221,1.8-6.347,3.694-8.146,7.767-.663,1.326-1.231,2.747-1.894,4.262C908.038,478.743,905.007,485.753,898.376,488.4Z" transform="translate(-523.988 -241.859)" fill="#040309"/>
    <path id="Path_415" data-name="Path 415" d="M1014.742,485.172c-.474.379-.947.663-1.42,1.042-.1,0-.191-.095-.285,0-.853.189-1.611.379-2.273-.19-1.138-.852-.285-2.178.474-2.936a15.962,15.962,0,0,1,3.5-2.747c.568-.284.094-1.137-.474-.853-1.8,1.042-4.831,2.936-5.022,5.3-.188,1.894,1.326,2.463,2.843,2.463-1.42,1.231-2.37,2.747-1.42,4.736.283.568,1.041.095.853-.474-1.232-2.652,2.367-4.357,3.978-5.683C1015.877,485.456,1015.215,484.793,1014.742,485.172Z" transform="translate(-606.064 -259.086)" fill="#040309"/>
    <path id="Path_416" data-name="Path 416" d="M1021.442,473.408H1009.7a.747.747,0,0,1-.758-.758.7.7,0,0,1,.758-.758h11.744a.758.758,0,1,1,0,1.515Z" transform="translate(-605.851 -253.575)" fill="#040309"/>
    <path id="Path_417" data-name="Path 417" d="M994.709,468.267a.476.476,0,0,0-.947,0c0,3.031-2.179,4.357-4.736,5.115a.43.43,0,0,0-.189.758c2.084,2.273.758,5.115-.474,7.483-.284.568.568,1.042.853.474,1.326-2.557,2.558-5.589.758-8.052C992.721,473.1,994.806,471.393,994.709,468.267Z" transform="translate(-590.768 -250.613)" fill="#040309"/>
    <path id="Path_418" data-name="Path 418" d="M649.76,471.542c-21.123,2.368-32.585,12.125-38.363,33.343-5.4,20.081-5.683,27.47-5.683,27.47l50.488,1.421s-7.767-16.577-3.22-24.06C657.623,502.232,672.3,480.825,649.76,471.542Z" transform="translate(-311.084 -253.319)" fill="#040309"/>
    <path id="Path_419" data-name="Path 419" d="M655.277,532.566l-52.382-1.516v-.758c0-.284.379-7.768,5.778-27.659,5.778-21.313,17.429-31.448,38.932-33.911h.189l.19.095c6.346,2.557,10.325,6.347,11.935,11.177,3.126,9.567-3.789,20.744-7.483,26.807-.284.474-.568.852-.758,1.231-4.357,7.1,3.22,23.207,3.22,23.4ZM604.41,529.63l48.688,1.421c-1.61-3.789-6.82-16.956-2.747-23.681a8.638,8.638,0,0,1,.758-1.231c3.6-5.778,10.325-16.671,7.388-25.575-1.421-4.358-5.115-7.862-10.893-10.325-21.029,2.463-31.922,11.935-37.51,32.869C605.642,519.4,604.6,527.357,604.41,529.63Z" transform="translate(-309.024 -251.258)" fill="#040309"/>
    <path id="Path_420" data-name="Path 420" d="M781.684,533.449a.724.724,0,0,1-.474-.189.744.744,0,0,1,0-1.042c4.547-4.642,8.431-14.777,7.2-25.1a.671.671,0,0,1,.663-.758.625.625,0,0,1,.758.663c1.326,10.8-2.842,21.408-7.673,26.239C782.063,533.449,781.873,533.449,781.684,533.449Z" transform="translate(-439.22 -278.756)" fill="#fff"/>
    <path id="Path_421" data-name="Path 421" d="M563.909,465.194c-18.66-2.368-46.225-3.315-57.023,13.735-10.7,17.05,6.63,40.542,21.407,44.141,7.862,1.894,5.589-1.61,14.967-8.052,2.463-1.61,2.747-4.168,4.452-5.3,2.463-1.705,2.652-3.126,1.516-4.452,0,0,.568-5.02-3.5-4.547,0,0,1.989-2.557-2.273-3.126-6.252-.853-7.767,7.294-11.935,6.252-8.336-2.178-7.1-17.334,1.705-19.229s24.628-2.273,24.628-2.273l12.03-12.788Z" transform="translate(-236.411 -247.727)" fill="#fff"/>
    <path id="Path_422" data-name="Path 422" d="M529.668,522.564a15.294,15.294,0,0,1-3.6-.568c-9.093-2.273-18.755-11.461-23.018-22.07-3.41-8.43-2.936-16.577,1.137-23.207,8.241-13.072,27.659-17.808,57.686-14.114h.19l6.915,5.02-12.788,13.64h-.284c-.189,0-15.819.379-24.533,2.178-4.547.947-6.725,5.683-6.82,9.662-.095,3.315,1.231,7.2,5.115,8.146,1.421.379,2.557-.663,4.168-2.463,1.8-1.894,4.073-4.357,7.767-3.884,1.705.189,2.747.852,3.126,1.8a2.173,2.173,0,0,1,.095,1.326,3.036,3.036,0,0,1,1.895.947,5.543,5.543,0,0,1,1.231,4.168,2.9,2.9,0,0,1,.663,2.084c-.095,1.042-.947,2.084-2.463,3.126a5.536,5.536,0,0,0-1.516,1.989,9.194,9.194,0,0,1-2.842,3.315,38.618,38.618,0,0,0-6.631,5.684C533.173,521.427,532.131,522.564,529.668,522.564Zm13.924-59.771c-19.134,0-31.922,4.926-38.079,14.682-5.02,7.862-3.315,16.293-1.042,21.881,4.073,10.135,13.356,19.039,21.976,21.218,4.547,1.137,5.21.379,7.578-1.989a35.013,35.013,0,0,1,6.915-5.873,8.877,8.877,0,0,0,2.463-2.936,16.181,16.181,0,0,1,1.989-2.463c2.652-2.936,1.516-4.547,1.231-4.831a.57.57,0,0,1-.095-.379,2.786,2.786,0,0,0-.758-1.989c-.758-.852-3.5-.758-3.5-.758l1.042-.852a1.7,1.7,0,0,0,.284-1.042,2.6,2.6,0,0,0-1.989-.852c-3.031-.379-4.736,1.515-6.536,3.41-1.61,1.705-3.221,3.41-5.589,2.842-3.884-1.042-6.252-4.736-6.157-9.567.095-4.547,2.652-9.946,7.957-11.083,8.146-1.705,22.26-2.178,24.534-2.273l11.272-12.03-5.3-3.883A164.244,164.244,0,0,0,543.592,462.793Z" transform="translate(-234.376 -245.896)" fill="#040309"/>
    <path id="Path_423" data-name="Path 423" d="M581.944,465.293c-16.956-2.084-41.394-3.126-53.708,9.662,3.6,3.41,6.82,7.009,10.325,10.609,1.989,2.084,5.778,6.536,7.862,8.525,1.8-2.273,5.02-5.589,8.525-6.347a118.993,118.993,0,0,1,19.418-2.084l13.83-16.008Z" transform="translate(-254.446 -247.827)" fill="#040309"/>
    <path id="Path_424" data-name="Path 424" d="M543.244,493.6l-.568-.568c-1.137-1.137-2.842-3.031-4.452-4.831-1.326-1.421-2.558-2.841-3.41-3.694-1.042-1.042-2.084-2.178-3.126-3.22-2.273-2.463-4.736-5.02-7.2-7.294l-.473-.473.473-.474c9.662-9.946,27.47-13.167,54.371-9.851h.19l6.82,5.02-14.493,16.766h-.284a121.242,121.242,0,0,0-19.229,1.989c-2.463.568-5.21,2.558-8.052,6.063ZM526.1,473.422c2.273,2.273,4.547,4.641,6.725,6.915,1.042,1.042,2.084,2.179,3.126,3.221.852.947,2.084,2.273,3.41,3.789s2.747,3.126,3.884,4.263c2.936-3.41,5.778-5.4,8.43-5.968a124.144,124.144,0,0,1,19.229-2.084L583.975,468.4l-5.3-3.884C553.1,461.3,535.476,464.328,526.1,473.422Z" transform="translate(-251.361 -246.295)" fill="#040309"/>
    <path id="Path_425" data-name="Path 425" d="M642.865,599.632c-3.5-.379-5.778,2.463-7.388,5.115a.488.488,0,1,0,.852.474c1.516-2.368,3.41-5.02,6.536-4.642C643.433,600.674,643.433,599.727,642.865,599.632Z" transform="translate(-332.796 -346.93)" fill="#040309"/>
    <path id="Path_426" data-name="Path 426" d="M652.187,612.366c-3.978-.284-5.873,3.5-7.1,6.631-.19.568.663.852.947.284,1.137-2.747,2.747-6.157,6.252-5.873C652.755,613.408,652.755,612.461,652.187,612.366Z" transform="translate(-339.844 -356.253)" fill="#040309"/>
    <path id="Path_427" data-name="Path 427" d="M747.146,472.828c0,.095-.095.095-.095.19l-.568.852a9.9,9.9,0,0,1-7.294,3.6h-.379a11.66,11.66,0,0,1-3.694-.379,10.131,10.131,0,0,1-6.252-5.02,8.765,8.765,0,0,1-.947-3.5,48.26,48.26,0,0,1,11.177.758A17.638,17.638,0,0,1,747.146,472.828Z" transform="translate(-400.417 -251.101)" fill="#fff"/>
    <path id="Path_428" data-name="Path 428" d="M735.99,476.428a12.034,12.034,0,0,1-3.221-.474,10.314,10.314,0,0,1-7.673-9.188V466.1h.663a49.906,49.906,0,0,1,11.367.758,19.159,19.159,0,0,1,8.336,3.6l.474.284-.189.474a.33.33,0,0,1-.095.189,8.177,8.177,0,0,1-.663.947,11.054,11.054,0,0,1-7.862,3.884h-.379A1.138,1.138,0,0,1,735.99,476.428Zm-9.378-9a7.444,7.444,0,0,0,.758,2.463,9.535,9.535,0,0,0,5.778,4.641,10.776,10.776,0,0,0,3.5.379h.284a9.8,9.8,0,0,0,6.82-3.315c.095-.095.19-.284.284-.379a17.074,17.074,0,0,0-7.2-2.936A45.249,45.249,0,0,0,726.612,467.43Z" transform="translate(-398.356 -249.301)" fill="#040309"/>
    <path id="Path_429" data-name="Path 429" d="M1146.113,394.166a.747.747,0,0,1-.756-.758V216.939h-48.973v10.8a.748.748,0,0,1-.759.758.7.7,0,0,1-.756-.758V215.518h51.813V393.409C1146.871,393.882,1146.587,394.166,1146.113,394.166Z" transform="translate(-668.668 -66.16)" fill="#f93542"/>
    <path id="Path_430" data-name="Path 430" d="M1226.963,662.831a4.263,4.263,0,1,0-4.263-4.263A4.264,4.264,0,0,0,1226.963,662.831Z" transform="translate(-762.114 -386.923)" fill="#f93542"/>
    <path id="Path_431" data-name="Path 431" d="M1299.879,391.48a.747.747,0,0,1-.758-.758V367.7a.748.748,0,0,1,.758-.758.7.7,0,0,1,.756.758v23.018C1300.54,391.2,1300.258,391.48,1299.879,391.48Z" transform="translate(-817.979 -176.857)" fill="#040309"/>
    <path id="Path_432" data-name="Path 432" d="M1299.879,734.485a.747.747,0,0,1-.758-.758V710.71a.748.748,0,0,1,.758-.758.7.7,0,0,1,.756.758v23.018C1300.54,734.2,1300.258,734.485,1299.879,734.485Z" transform="translate(-817.979 -427.601)" fill="#040309"/>
    <path id="Path_433" data-name="Path 433" d="M915.687,371.063l-12.773-8.842-8.842,12.772,12.772,8.842Z" transform="translate(-521.88 -173.403)" fill="#fff"/>
    <path id="Path_434" data-name="Path 434" d="M904.531,382.085l-13.925-9.662,9.662-13.924,13.924,9.662ZM892.6,372.139l11.651,8.052L912.3,368.54l-11.651-8.052Z" transform="translate(-519.347 -170.682)" fill="#040309"/>
    <path id="Path_435" data-name="Path 435" d="M1068.113,267.639H1055.42v55.7h12.693Z" transform="translate(-639.829 -104.261)" fill="#040309"/>
    <path id="Path_436" data-name="Path 436" d="M1078.828,325.8V338.21l-1.894,1.61-6.724-8.052,7.956-6.725Z" transform="translate(-650.641 -146.225)" fill="#f93542"/>
    <path id="Path_437" data-name="Path 437" d="M949.069,368.778l25.766-10.988s2.935,13.64-7.483,17.619S949.069,368.778,949.069,368.778Z" transform="translate(-562.084 -170.163)" fill="#f93542"/>
    <path id="Path_438" data-name="Path 438" d="M1025.416,294.965a2.747,2.747,0,1,0-2.746-2.747A2.746,2.746,0,0,0,1025.416,294.965Z" transform="translate(-615.888 -120.221)" fill="#f93542"/>
    <path id="Path_439" data-name="Path 439" d="M918.5,208.506a9.188,9.188,0,1,1-9.188-9.188C914.422,199.318,918.5,202.254,918.5,208.506Z" transform="translate(-526.301 -54.317)" fill="#f93542"/>
    <path id="Path_440" data-name="Path 440" d="M1034.151,133.888l-6.488-7.662L1020,132.715l6.49,7.662Z" transform="translate(-613.936 -0.885)" fill="#040309"/>
    <path id="Path_441" data-name="Path 441" d="M910.332,297.712l4.547-8.241,5.873,6.725Z" transform="translate(-533.767 -120.221)" fill="#040309"/>
    <path id="Path_442" data-name="Path 442" d="M868.452,258.105c-.189,0-.284-.095-.474-.19l-7.673-6.157a.74.74,0,0,1,.947-1.137l7.673,6.157a.743.743,0,0,1,.095,1.042A.818.818,0,0,1,868.452,258.105Z" transform="translate(-497.001 -91.696)" fill="#040309"/>
    <path id="Path_443" data-name="Path 443" d="M972.922,167.747h-.095a.738.738,0,0,1-.568-.853l.853-4.736a.724.724,0,0,1,1.421.284l-.852,4.736A.825.825,0,0,1,972.922,167.747Z" transform="translate(-579.023 -26.724)" fill="#040309"/>
    <path id="Path_444" data-name="Path 444" d="M1072.459,276.447a.709.709,0,0,1-.662-.474l-3.79-9.946a.721.721,0,1,1,1.326-.568l3.79,9.946a.776.776,0,0,1-.379.947A.35.35,0,0,1,1072.459,276.447Z" transform="translate(-649.006 -102.366)" fill="#fff"/>
    <path id="Path_445" data-name="Path 445" d="M1068.557,412.581a.822.822,0,0,1-.57-.284.751.751,0,0,1,.1-1.042l3.787-3.221a.74.74,0,1,1,.947,1.137l-3.787,3.221A.73.73,0,0,1,1068.557,412.581Z" transform="translate(-648.891 -206.767)" fill="#fff"/>
    <path id="Path_446" data-name="Path 446" d="M893.411,452.915a.724.724,0,0,1-.474-.189l-5.021-5.021a.737.737,0,0,1,1.042-1.042l5.02,5.02a.744.744,0,0,1,0,1.042A1.349,1.349,0,0,1,893.411,452.915Z" transform="translate(-517.225 -234.976)" fill="#040309"/>
    <path id="Path_447" data-name="Path 447" d="M802.677,290.312a.712.712,0,0,1-.663-.474.692.692,0,0,1,.379-.947l4.926-2.084a.721.721,0,0,1,.568,1.326l-4.926,2.084A.347.347,0,0,1,802.677,290.312Z" transform="translate(-454.529 -118.219)" fill="#040309"/>
    <path id="Path_448" data-name="Path 448" d="M836.077,136.287a.747.747,0,0,1-.758-.758v-9.756a.747.747,0,0,1,.758-.758.7.7,0,0,1,.758.758v9.756A.747.747,0,0,1,836.077,136.287Z" transform="translate(-478.93 0)" fill="#040309"/>
  </g>
</svg>
